<svg xmlns="http://www.w3.org/2000/svg" width="431.524" height="357.866" viewBox="0 0 431.524 357.866">
  <g id="banner-princiapal" transform="translate(-867.844 -142.489)">
    <ellipse id="Ellipse_4096" data-name="Ellipse 4096" cx="215.762" cy="6.815" rx="215.762" ry="6.815" transform="translate(867.844 486.726)" fill="#e6a545"/>
    <g id="Group_53890" data-name="Group 53890" transform="translate(883.065 142.489)" opacity="0.7">
      <path id="Path_100745" data-name="Path 100745" d="M-416.2,243.776c-8.632-82.157,109.425-101.289,198.39-86.886,76.774,12.429,159.6,70.6,150.258,107.756-9.211,36.65-60.183,6.214-80.607,53.645-21.2,49.24-6.563,52.42-12.051,93.857-2.239,16.909-15.912,45.909-50.541,39.04C-268.526,439.726-402.419,348.577-416.2,243.776Z" transform="translate(439.373 -152.507)" fill="#fff2cc"/>
      <path id="Path_100746" data-name="Path 100746" d="M-410.378,346.518c-10.608-5.2-22.239-25.364,11.485-57.519,19.5-18.6,40.954-20.777,53.04-8.56,10.6,10.716-18.274,23.351-26.751,36C-387.03,337.953-394.089,354.5-410.378,346.518Z" transform="translate(718.943 -120.205)" fill="#fff2cc"/>
      <path id="Path_100897" data-name="Path 100897" d="M66.834,2.04C77.443,7.237,89.074,27.4,55.349,59.559c-19.5,18.6-40.954,20.777-53.04,8.56-10.6-10.716,18.274-23.351,26.751-36C43.486,10.605,50.545-5.937,66.834,2.04Z" transform="matrix(-0.105, 0.995, -0.995, -0.105, 113.455, 165.955)" fill="#fff2cc"/>
    </g>
    <g id="Group_92597" data-name="Group 92597" transform="translate(213.339 -1367.952)">
      <g id="Group_92584" data-name="Group 92584" transform="translate(759.35 1510.442)">
        <rect id="Rectangle_32351" data-name="Rectangle 32351" width="2.29" height="65.075" transform="translate(23.955)" fill="#c4b3ff"/>
        <path id="Path_135904" data-name="Path 135904" d="M936.85,1510.442v65.074h2.29v-64.954l-.335-.121Z" transform="translate(-801.031 -1510.442)" fill="#c4b3ff"/>
        <g id="Group_92583" data-name="Group 92583" transform="translate(0 43.412)">
          <g id="Group_92582" data-name="Group 92582">
            <rect id="Rectangle_32352" data-name="Rectangle 32352" width="159.543" height="77.89" rx="2.192" transform="translate(1.26 1.261)" fill="#1d3d66"/>
            <path id="Path_135905" data-name="Path 135905" d="M933.809,1641.862H782.781a5.524,5.524,0,0,1-5.518-5.518v-69.374a5.525,5.525,0,0,1,5.518-5.518H933.809a5.524,5.524,0,0,1,5.517,5.518v69.374A5.524,5.524,0,0,1,933.809,1641.862Zm-151.027-77.891a3,3,0,0,0-3,3v69.374a3,3,0,0,0,3,3H933.809a3,3,0,0,0,3-3v-69.374a3,3,0,0,0-3-3Z" transform="translate(-777.263 -1561.451)" fill="#12263f"/>
          </g>
          <path id="Path_135906" data-name="Path 135906" d="M809.786,1578.225h-16.55a2.835,2.835,0,0,1-2.835-2.835h0a2.835,2.835,0,0,1,2.835-2.835h16.55a2.835,2.835,0,0,1,2.835,2.835h0A2.835,2.835,0,0,1,809.786,1578.225Z" transform="translate(-779.22 -1563.105)" fill="#c4b3ff"/>
          <path id="Path_135907" data-name="Path 135907" d="M932.341,1578.225h-9.935a2.835,2.835,0,0,1-2.835-2.835h0a2.835,2.835,0,0,1,2.835-2.835h9.935a2.835,2.835,0,0,1,2.835,2.835h0A2.835,2.835,0,0,1,932.341,1578.225Z" transform="translate(-798.458 -1563.105)" fill="#ffdc72"/>
          <path id="Path_135908" data-name="Path 135908" d="M950.944,1578.225H947.2a2.835,2.835,0,0,1-2.835-2.835h0a2.835,2.835,0,0,1,2.835-2.835h3.74a2.835,2.835,0,0,1,2.835,2.835h0A2.835,2.835,0,0,1,950.944,1578.225Z" transform="translate(-802.151 -1563.105)" fill="#ffdc72"/>
          <path id="Path_135909" data-name="Path 135909" d="M893.818,1578.225H830.124a2.835,2.835,0,0,1-2.835-2.835h0a2.835,2.835,0,0,1,2.835-2.835h63.694a2.835,2.835,0,0,1,2.835,2.835h0A2.835,2.835,0,0,1,893.818,1578.225Z" transform="translate(-784.714 -1563.105)" fill="#fff"/>
          <path id="Path_135910" data-name="Path 135910" d="M809.786,1591.327h-16.55a2.834,2.834,0,0,1-2.835-2.835h0a2.835,2.835,0,0,1,2.835-2.835h16.55a2.835,2.835,0,0,1,2.835,2.835h0A2.835,2.835,0,0,1,809.786,1591.327Z" transform="translate(-779.22 -1565.056)" fill="#c4b3ff"/>
          <path id="Path_135911" data-name="Path 135911" d="M932.341,1591.327h-9.935a2.835,2.835,0,0,1-2.835-2.835h0a2.835,2.835,0,0,1,2.835-2.835h9.935a2.835,2.835,0,0,1,2.835,2.835h0A2.834,2.834,0,0,1,932.341,1591.327Z" transform="translate(-798.458 -1565.056)" fill="#ffdc72"/>
          <path id="Path_135912" data-name="Path 135912" d="M950.944,1591.327H947.2a2.834,2.834,0,0,1-2.835-2.835h0a2.835,2.835,0,0,1,2.835-2.835h3.74a2.836,2.836,0,0,1,2.835,2.835h0A2.835,2.835,0,0,1,950.944,1591.327Z" transform="translate(-802.151 -1565.056)" fill="#ffdc72"/>
          <path id="Path_135913" data-name="Path 135913" d="M868.764,1591.327h-38.64a2.835,2.835,0,0,1-2.835-2.835h0a2.835,2.835,0,0,1,2.835-2.835h38.64a2.835,2.835,0,0,1,2.835,2.835h0A2.835,2.835,0,0,1,868.764,1591.327Z" transform="translate(-784.714 -1565.056)" fill="#fff"/>
          <path id="Path_135914" data-name="Path 135914" d="M804.956,1604.43h-11.72a2.835,2.835,0,0,1-2.835-2.836h0a2.835,2.835,0,0,1,2.835-2.835h11.72a2.836,2.836,0,0,1,2.835,2.835h0A2.836,2.836,0,0,1,804.956,1604.43Z" transform="translate(-779.22 -1567.008)" fill="#c4b3ff"/>
          <path id="Path_135915" data-name="Path 135915" d="M932.341,1604.43h-9.935a2.835,2.835,0,0,1-2.835-2.836h0a2.835,2.835,0,0,1,2.835-2.835h9.935a2.835,2.835,0,0,1,2.835,2.835h0A2.835,2.835,0,0,1,932.341,1604.43Z" transform="translate(-798.458 -1567.008)" fill="#ffdc72"/>
          <path id="Path_135916" data-name="Path 135916" d="M950.944,1604.43H947.2a2.835,2.835,0,0,1-2.835-2.836h0a2.835,2.835,0,0,1,2.835-2.835h3.74a2.836,2.836,0,0,1,2.835,2.835h0A2.836,2.836,0,0,1,950.944,1604.43Z" transform="translate(-802.151 -1567.008)" fill="#ffdc72"/>
          <path id="Path_135917" data-name="Path 135917" d="M893.818,1604.43H830.124a2.835,2.835,0,0,1-2.835-2.836h0a2.835,2.835,0,0,1,2.835-2.835h63.694a2.835,2.835,0,0,1,2.835,2.835h0A2.835,2.835,0,0,1,893.818,1604.43Z" transform="translate(-784.714 -1567.008)" fill="#fff"/>
          <path id="Path_135918" data-name="Path 135918" d="M809.786,1617.531h-16.55a2.834,2.834,0,0,1-2.835-2.835h0a2.835,2.835,0,0,1,2.835-2.835h16.55a2.835,2.835,0,0,1,2.835,2.835h0A2.835,2.835,0,0,1,809.786,1617.531Z" transform="translate(-779.22 -1568.959)" fill="#c4b3ff"/>
          <path id="Path_135919" data-name="Path 135919" d="M932.341,1617.531h-9.935a2.835,2.835,0,0,1-2.835-2.835h0a2.835,2.835,0,0,1,2.835-2.835h9.935a2.835,2.835,0,0,1,2.835,2.835h0A2.834,2.834,0,0,1,932.341,1617.531Z" transform="translate(-798.458 -1568.959)" fill="#ffdc72"/>
          <path id="Path_135920" data-name="Path 135920" d="M950.944,1617.531H947.2a2.834,2.834,0,0,1-2.835-2.835h0a2.835,2.835,0,0,1,2.835-2.835h3.74a2.836,2.836,0,0,1,2.835,2.835h0A2.835,2.835,0,0,1,950.944,1617.531Z" transform="translate(-802.151 -1568.959)" fill="#ffdc72"/>
          <path id="Path_135921" data-name="Path 135921" d="M882.688,1617.531H830.124a2.835,2.835,0,0,1-2.835-2.835h0a2.835,2.835,0,0,1,2.835-2.835h52.564a2.836,2.836,0,0,1,2.835,2.835h0A2.835,2.835,0,0,1,882.688,1617.531Z" transform="translate(-784.714 -1568.959)" fill="#fff"/>
          <path id="Path_135922" data-name="Path 135922" d="M807.266,1630.634h-14.03a2.835,2.835,0,0,1-2.835-2.835h0a2.835,2.835,0,0,1,2.835-2.835h14.03a2.835,2.835,0,0,1,2.835,2.835h0A2.836,2.836,0,0,1,807.266,1630.634Z" transform="translate(-779.22 -1570.91)" fill="#c4b3ff"/>
          <path id="Path_135923" data-name="Path 135923" d="M932.341,1630.634h-9.935a2.835,2.835,0,0,1-2.835-2.835h0a2.835,2.835,0,0,1,2.835-2.835h9.935a2.835,2.835,0,0,1,2.835,2.835h0A2.835,2.835,0,0,1,932.341,1630.634Z" transform="translate(-798.458 -1570.91)" fill="#ffdc72"/>
          <path id="Path_135924" data-name="Path 135924" d="M950.944,1630.634H947.2a2.835,2.835,0,0,1-2.835-2.835h0a2.835,2.835,0,0,1,2.835-2.835h3.74a2.835,2.835,0,0,1,2.835,2.835h0A2.836,2.836,0,0,1,950.944,1630.634Z" transform="translate(-802.151 -1570.91)" fill="#ffdc72"/>
          <path id="Path_135925" data-name="Path 135925" d="M888.515,1630.634H830.124a2.835,2.835,0,0,1-2.835-2.835h0a2.835,2.835,0,0,1,2.835-2.835h58.392a2.835,2.835,0,0,1,2.835,2.835h0A2.836,2.836,0,0,1,888.515,1630.634Z" transform="translate(-784.714 -1570.91)" fill="#fff"/>
          <path id="Path_135926" data-name="Path 135926" d="M800.966,1643.736h-7.73a2.835,2.835,0,0,1-2.835-2.835h0a2.834,2.834,0,0,1,2.835-2.835h7.73a2.835,2.835,0,0,1,2.835,2.835h0A2.836,2.836,0,0,1,800.966,1643.736Z" transform="translate(-779.22 -1572.862)" fill="#c4b3ff"/>
          <path id="Path_135927" data-name="Path 135927" d="M932.341,1643.736h-9.935a2.835,2.835,0,0,1-2.835-2.835h0a2.835,2.835,0,0,1,2.835-2.835h9.935a2.834,2.834,0,0,1,2.835,2.835h0A2.835,2.835,0,0,1,932.341,1643.736Z" transform="translate(-798.458 -1572.862)" fill="#ffdc72"/>
          <path id="Path_135928" data-name="Path 135928" d="M950.944,1643.736H947.2a2.835,2.835,0,0,1-2.835-2.835h0a2.834,2.834,0,0,1,2.835-2.835h3.74a2.835,2.835,0,0,1,2.835,2.835h0A2.836,2.836,0,0,1,950.944,1643.736Z" transform="translate(-802.151 -1572.862)" fill="#ffdc72"/>
          <path id="Path_135929" data-name="Path 135929" d="M880.168,1643.736H830.124a2.835,2.835,0,0,1-2.835-2.835h0a2.835,2.835,0,0,1,2.835-2.835h50.044A2.835,2.835,0,0,1,883,1640.9h0A2.836,2.836,0,0,1,880.168,1643.736Z" transform="translate(-784.714 -1572.862)" fill="#fff"/>
        </g>
      </g>
      <path id="Rectangle_32353" data-name="Rectangle 32353" d="M0,0H125.943a0,0,0,0,1,0,0V47.569a4.927,4.927,0,0,1-4.927,4.927H0a0,0,0,0,1,0,0V0A0,0,0,0,1,0,0Z" transform="translate(885.294 1860.889) rotate(180)" fill="#1d3d66"/>
      <path id="Rectangle_32354" data-name="Rectangle 32354" d="M0,0H77.456a0,0,0,0,1,0,0V29.255a3.03,3.03,0,0,1-3.03,3.03H0a0,0,0,0,1,0,0V0A0,0,0,0,1,0,0Z" transform="translate(885.294 1860.889) rotate(180)" fill="#12263f"/>
      <path id="Path_135930" data-name="Path 135930" d="M1051.856,1635.979c7.894,8.843,4.764,15.05,6.536,25.643,1.4,8.37,6.9,15.4,10.157,23.234s3.5,18.406-3.47,23.251c-9.674,6.729-31.67-3.474-36.4-12.467-3.265-6.209-2.055-13.72-.764-20.615,2.543-13.576,1.883-20.225,5.26-33.615C1035.456,1632.383,1044.375,1628.5,1051.856,1635.979Z" transform="translate(-55.046 -18.108)" fill="#12263f" fill-rule="evenodd"/>
      <path id="Path_135931" data-name="Path 135931" d="M1015.509,1686.966s1.174-1.648,5.913-1.614,6.243,1.614,6.243,1.614l1.451,3.142-13.758,1.808Z" transform="translate(-53.373 -26.05)" fill="#a7a9ac" fill-rule="evenodd"/>
      <path id="Path_135932" data-name="Path 135932" d="M1025.64,1676.252l1.088,14.535h0l-9.644,11.83-1.313-11.83,1.7-13.4Z" transform="translate(-53.435 -24.695)" fill="#e09153" fill-rule="evenodd"/>
      <path id="Path_135933" data-name="Path 135933" d="M994.1,1699.721c4.588-7.121,13.785-6.767,17.494-7.205l1.749,9.6,10.252-10c4.311.809,11.268.162,15.856,7.283s12.254,33.714,10.5,38.517c-1.881,5.151-9.224-1.887-9.224-1.887.732-1.688-8.178-17.649-8.178-17.649l-5.272,20.3h-21.727l-4.345-20.3s-5.786,15.33-6.317,17.092c-1.465,4.863-9.331,4.806-9.945,1.155C984.108,1731.65,989.515,1706.841,994.1,1699.721Z" transform="translate(-48.831 -27.057)" fill="#e6e7e8"/>
      <path id="Path_135934" data-name="Path 135934" d="M1033.9,1693.709c-.891,1.423-4.751,8.911.859,24.74l-5.528,21.432h-21.727l-3.117-16.336a7.541,7.541,0,0,1-4.537-6.1c-.726-4.3,1.028-11.383,6.236-23.7.12-.284.219-.564.525-.6l3.283-.339a.182.182,0,0,1,.2.216c-1.208,6.531,3.923,21.352,3.923,21.352s14.153-19.167,15.4-21.68a.2.2,0,0,1,.223-.107l4.127.805A.206.206,0,0,1,1033.9,1693.709Z" transform="translate(-51.041 -27.128)" fill="#36256b" fill-rule="evenodd"/>
      <g id="Group_92585" data-name="Group 92585" transform="translate(957.578 1703.709)">
        <path id="Path_135935" data-name="Path 135935" d="M1027.529,1744.108c-1.505-.015-4.693,1.516-7.522,1.433s-3.749-1.151-5.9-1.2-4.25.127-3.89-.563a9.216,9.216,0,0,1,3.523-2.814c1.294-.58,4.805-1.417,6.04-1.133,1.605.369,7.932.993,7.932.993Z" transform="translate(-1010.18 -1737.865)" fill="#ffc685" fill-rule="evenodd"/>
        <path id="Path_135936" data-name="Path 135936" d="M1055.053,1745.363l.086-.537a6.26,6.26,0,0,0-6.527-7.281c-5.9.406-13.426,2.987-19.569,2.979l-1.615,2.765A80.611,80.611,0,0,0,1053.7,1746,2.164,2.164,0,0,0,1055.053,1745.363Z" transform="translate(-1012.749 -1737.531)" fill="#ffc685" fill-rule="evenodd"/>
      </g>
      <g id="Group_92586" data-name="Group 92586" transform="translate(926.077 1703.222)">
        <path id="Path_135937" data-name="Path 135937" d="M981.48,1743.611c-.721.077-1.986,1.783-3.35,1.876s-1.98-.9-3.012-.818-2.007.386-1.95-.317a7.131,7.131,0,0,1,1.212-2.991c.521-.65,2.057-1.692,2.693-1.487a31.919,31.919,0,0,0,3.95.491Z" transform="translate(-973.166 -1737.389)" fill="#ffc685" fill-rule="evenodd"/>
        <path id="Path_135938" data-name="Path 135938" d="M989.034,1736.962c-2.85.072-6.305,2.28-7.38,3.08l-.311,2.826c6.883,2.615,8.858,1.655,10.127,1.111C993.2,1743.235,996.339,1736.778,989.034,1736.962Z" transform="translate(-974.384 -1736.958)" fill="#ffc685" fill-rule="evenodd"/>
      </g>
      <g id="Group_92587" data-name="Group 92587" transform="translate(875.521 1662.484)">
        <path id="Path_135939" data-name="Path 135939" d="M922.036,1730.9h61.936a1.45,1.45,0,0,0,1.437-1.645l-5.088-37.4a3.2,3.2,0,0,0-3.172-2.769H915.214a1.451,1.451,0,0,0-1.437,1.646l5.088,37.4A3.2,3.2,0,0,0,922.036,1730.9Z" transform="translate(-913.763 -1689.091)" fill="#1d3d66" fill-rule="evenodd"/>
        <rect id="Rectangle_32355" data-name="Rectangle 32355" width="11.377" height="20.907" transform="translate(44.362 50.269) rotate(180)" fill="#1d3d66"/>
        <path id="Path_135940" data-name="Path 135940" d="M968.595,1747.647h43.874a1.453,1.453,0,0,0,1.454-1.453h0a1.453,1.453,0,0,0-1.454-1.454H968.595a1.453,1.453,0,0,0-1.454,1.454h0A1.453,1.453,0,0,0,968.595,1747.647Z" transform="translate(-921.713 -1697.379)" fill="#c4b3ff" fill-rule="evenodd"/>
        <path id="Path_135941" data-name="Path 135941" d="M944.624,1747.783H973.2a1.065,1.065,0,0,0,1.065-1.065h0a1.065,1.065,0,0,0-1.065-1.065H944.624a1.065,1.065,0,0,0-1.065,1.065h0A1.065,1.065,0,0,0,944.624,1747.783Z" transform="translate(-918.201 -1697.515)" fill="#1d3d66" fill-rule="evenodd"/>
      </g>
      <path id="Path_135942" data-name="Path 135942" d="M1017.385,1701.392l-2.178-11.955-.2-2.189-3.029,4.74.48,3.647.935-.885Z" transform="translate(-52.87 -26.333)" fill="#f1f2f2"/>
      <path id="Path_135943" data-name="Path 135943" d="M1018.331,1701.392l4.738-11.321,5.038-2.823,2.839,4.333-2.364,5.046-3-2.307Z" transform="translate(-53.816 -26.333)" fill="#f1f2f2"/>
      <circle id="Ellipse_4199" data-name="Ellipse 4199" cx="7.011" cy="7.011" r="7.011" transform="matrix(0.484, -0.875, 0.875, 0.484, 968.649, 1623.016)" fill="#ffb74d"/>
      <path id="Path_135944" data-name="Path 135944" d="M1007.84,1662.98c-3.5-5.367.058-18.271,4.1-22.825,2.03-2.289,15.848-12.8,26.018,7.945,4.665,9.518-3.9,23.741-11.379,24.072C1019.823,1672.471,1009.214,1665.088,1007.84,1662.98Z" transform="translate(-52.041 -18.62)" fill="#12263f" fill-rule="evenodd"/>
      <g id="Group_92588" data-name="Group 92588" transform="translate(954.669 1627.698)">
        <path id="Path_135945" data-name="Path 135945" d="M1017.865,1651.758a6.8,6.8,0,0,1-4.916-3.54c-7.049,2.58-6.254,11.214-6.06,14.237.354,5.557,3.341,17.064,7.377,17.094,7.541.055,13.065-7.14,13.516-14.989.057-.99.071-2.031.037-3.088C1027.466,1660.969,1027.248,1653.655,1017.865,1651.758Z" transform="translate(-1006.762 -1648.218)" fill="#ffc685" fill-rule="evenodd"/>
        <path id="Path_135946" data-name="Path 135946" d="M1030.076,1665.849c-.32,2.021-.384,4.495.935,4.7s2.739-1.637,3.844-3.946c.882-1.845.26-3.709-1.06-3.918A3.8,3.8,0,0,0,1030.076,1665.849Z" transform="translate(-1010.206 -1650.37)" fill="#ffc685" fill-rule="evenodd"/>
      </g>
      <rect id="Rectangle_32356" data-name="Rectangle 32356" width="7.977" height="4.598" rx="0.234" transform="translate(969.304 1682.904)" fill="#ffb74d"/>
      <g id="Group_92589" data-name="Group 92589" transform="translate(879.939 1712.588)">
        <path id="Rectangle_32357" data-name="Rectangle 32357" d="M0,0H124.684a0,0,0,0,1,0,0V142.779a5.522,5.522,0,0,1-5.522,5.522H5.522A5.522,5.522,0,0,1,0,142.779V0A0,0,0,0,1,0,0Z" transform="translate(124.684 148.301) rotate(180)" fill="#e6edf2"/>
        <path id="Rectangle_32358" data-name="Rectangle 32358" d="M0,0H104.828a0,0,0,0,1,0,0V120.042a4.642,4.642,0,0,1-4.642,4.642H4.642A4.642,4.642,0,0,1,0,120.042V0A0,0,0,0,1,0,0Z" transform="translate(114.756 148.301) rotate(180)" fill="#d3daed"/>
      </g>
      <g id="Group_92590" data-name="Group 92590" transform="translate(957.079 1764.055)">
        <path id="Rectangle_32359" data-name="Rectangle 32359" d="M0,0H5.982a0,0,0,0,1,0,0V96.171a.663.663,0,0,1-.663.663H.663A.663.663,0,0,1,0,96.171V0A0,0,0,0,1,0,0Z" transform="translate(109.256 96.834) rotate(180)" fill="#c4b3ff"/>
        <rect id="Rectangle_32360" data-name="Rectangle 32360" width="100.299" height="4.093" transform="translate(103.29 9.761) rotate(180)" fill="#36256b"/>
        <path id="Rectangle_32361" data-name="Rectangle 32361" d="M0,0H5.982a0,0,0,0,1,0,0V96.171a.663.663,0,0,1-.663.663H.663A.663.663,0,0,1,0,96.171V0A0,0,0,0,1,0,0Z" transform="translate(5.982 96.834) rotate(180)" fill="#c4b3ff"/>
      </g>
      <g id="Group_92596" data-name="Group 92596" transform="translate(656.993 1589.329)">
        <g id="Group_92594" data-name="Group 92594" transform="translate(65.235 127.335)">
          <path id="Path_135947" data-name="Path 135947" d="M738.553,1913.413a7.867,7.867,0,1,0,9.008-6.529A7.868,7.868,0,0,0,738.553,1913.413Z" transform="translate(-734.361 -1775.693)" fill="#484848"/>
          <path id="Path_135948" data-name="Path 135948" d="M742.449,1914.528a4.516,4.516,0,1,0,5.17-3.748A4.515,4.515,0,0,0,742.449,1914.528Z" transform="translate(-734.947 -1776.28)" fill="#9e9e9e"/>
          <g id="Group_92593" data-name="Group 92593">
            <g id="Group_92591" data-name="Group 92591" transform="translate(9.388 1.885)">
              <path id="Path_135949" data-name="Path 135949" d="M746.074,1833.866a1.4,1.4,0,0,0,1.378-1.182l11.8-76.107a1.4,1.4,0,0,0-2.76-.428l-11.8,76.106a1.4,1.4,0,0,0,1.166,1.594A1.434,1.434,0,0,0,746.074,1833.866Z" transform="translate(-744.675 -1754.967)" fill="#d3daed"/>
            </g>
            <g id="Group_92592" data-name="Group 92592" transform="translate(0 51.372)">
              <rect id="Rectangle_32362" data-name="Rectangle 32362" width="19.02" height="43.15" rx="2.05" transform="translate(52.018 85.767) rotate(-170.931)" fill="#765ccc"/>
              <rect id="Rectangle_32363" data-name="Rectangle 32363" width="19.02" height="19.02" rx="2.306" transform="translate(59.76 37.269) rotate(-170.932)" fill="#765ccc"/>
              <path id="Rectangle_32364" data-name="Rectangle 32364" d="M4.7,0H42.421a4.7,4.7,0,0,1,4.7,4.7V82.06a4.7,4.7,0,0,1-4.7,4.7H9.316A9.316,9.316,0,0,1,0,77.447V4.7A4.7,4.7,0,0,1,4.7,0Z" transform="matrix(-0.988, -0.158, 0.158, -0.988, 46.535, 93.106)" fill="#8c6df2"/>
              <rect id="Rectangle_32365" data-name="Rectangle 32365" width="12.652" height="25.548" transform="translate(31.406 33.804) rotate(20.625)" fill="#ededed"/>
              <path id="Rectangle_32366" data-name="Rectangle 32366" d="M1.506,0H30.879a1.506,1.506,0,0,1,1.506,1.506V33.765a1.505,1.505,0,0,1-1.505,1.505H1.505A1.505,1.505,0,0,1,0,33.765V1.506A1.506,1.506,0,0,1,1.506,0Z" transform="translate(40.536 83.935) rotate(-170.931)" fill="#765ccc"/>
            </g>
            <path id="Path_135950" data-name="Path 135950" d="M756.369,1755.515a3.279,3.279,0,1,0,3.756-2.722A3.279,3.279,0,0,0,756.369,1755.515Z" transform="translate(-737.023 -1752.752)" fill="#484848"/>
            <path id="Path_135951" data-name="Path 135951" d="M757.49,1814.545l23.532,3.756a15.477,15.477,0,0,1,12.812,12.7l1.237.2a3.832,3.832,0,0,1,3.18,4.389l-1.79,11.213a3.833,3.833,0,0,1-4.389,3.181l-.42-.067-.94,5.888.841.135a3.406,3.406,0,0,1,2.827,3.9l-5.728,35.883a3.385,3.385,0,0,1-1.516,2.31c.684-8.113,2.623-17.477-1.1-34.443-7.37-33.548-28.205-40.222-35.918-46.146A7.809,7.809,0,0,1,757.49,1814.545Z" transform="translate(-736.097 -1761.941)" fill="#8e7bbd" opacity="0.3" style="mix-blend-mode: color-dodge;isolation: isolate"/>
          </g>
        </g>
        <g id="Group_92595" data-name="Group 92595">
          <path id="Path_135952" data-name="Path 135952" d="M755.817,1745.56c-1.4-1.95-10.214-17.1-14.119-20.3,0,0-10.352-2.937-10.035,1.445.266,3.671,11.781,18.172,20.242,22.613C751.9,1749.315,757.539,1747.964,755.817,1745.56Z" transform="translate(-668.113 -1621.179)" fill="#fff"/>
          <path id="Path_135953" data-name="Path 135953" d="M708.227,1660.114l13.552,2.2,2.82,2.294-1.187,3.576-16.681-.821Z" transform="translate(-664.401 -1611.62)" fill="#99a7d8"/>
          <path id="Path_135954" data-name="Path 135954" d="M758.218,1911.6a1.634,1.634,0,0,1,1.5.689,7.027,7.027,0,0,0,3.977,2.928c7.125,1.174,12.047,3.512,14.149,4.975a1.663,1.663,0,0,1-.937,3.037l-22.992.008a1.643,1.643,0,0,1-1.62-1.284,29.425,29.425,0,0,1-.435-8.409,1.651,1.651,0,0,1,1.5-1.494Z" transform="translate(-671.104 -1649.074)" fill="#12263f"/>
          <path id="Path_135955" data-name="Path 135955" d="M693.47,1912.643c.712,2.22,1.8,6.906,1.062,9.543a1.492,1.492,0,0,1-1.454,1.046l-8.874.008a1.548,1.548,0,0,1-1.528-1.389c-.443-4.061,1.769-7.712,2.739-9.091a1.521,1.521,0,0,1,1.109-.647l5.366-.5A1.5,1.5,0,0,1,693.47,1912.643Z" transform="translate(-660.809 -1649.077)" fill="#12263f"/>
          <path id="Path_135956" data-name="Path 135956" d="M737.249,1675.532c3.249,3.519,4.767,39.737,4.943,42.138.254,3.47-7.4,7.006-10.036,1.445-.9-1.893-3.525-28.678-3.769-37.024C728.115,1672.777,733.5,1671.469,737.249,1675.532Z" transform="translate(-667.624 -1613.592)" fill="#fff"/>
          <path id="Path_135957" data-name="Path 135957" d="M715.319,1784.983l15.8,45.949a71.793,71.793,0,0,0-.232,14.114c1.294,10.426,14.82,44.574,14.82,44.574a12.46,12.46,0,0,0,10.331-1.083s-10.4-57.822-10.723-59.448-14.273-81.071-14.273-81.071l-9.5-3.938Z" transform="translate(-665.68 -1624.126)" fill="#36256b"/>
          <path id="Path_135958" data-name="Path 135958" d="M695.213,1749.214c-5.249,16.461-6,77.232-6.437,80.556s-3.743,12.974-3.763,18.194c-.035,8.752-.015,40.844-.015,40.844a14.618,14.618,0,0,0,9.7.277s8.768-39.371,7.954-60.183c-.107-2.747,16.937-53.692,17.226-55.715s2.312-21.818,2.023-24.853S695.213,1749.214,695.213,1749.214Z" transform="translate(-661.163 -1624.588)" fill="#5038a1"/>
          <path id="Path_135959" data-name="Path 135959" d="M704.077,1668.067s-11.006,3.256-12.451,5.279,6.96,38.208,6.237,45.578-2.443,18.351-1.366,20.084,30.409,6.358,30.987-2.312,5.092-39.015,4.624-52.017c-.358-9.935-1.3-10.851-3.179-12.152s-11.448-4.395-11.448-4.395Z" transform="translate(-662.126 -1612.805)" fill="#d3daed"/>
          <path id="Path_135960" data-name="Path 135960" d="M725.087,1603.134c-7.041,0-8.816,8.993-8.816,8.993s-8.788-1.124-11.969,9.131c-1.87,6.029,2.262,14.448,7.9,20.723,8.226,4.19,19.293-9.868,20.112-30.059C732.5,1607.222,729.41,1603.135,725.087,1603.134Z" transform="translate(-663.971 -1603.134)" fill="#12263f"/>
          <path id="Path_135961" data-name="Path 135961" d="M721.3,1663.776c.143-2.251,1.4-18.106,1.4-18.106l-9.826-4.262c.512,4.167-2.455,20.974-7.093,22.689-.4.15.086.853.457,1.072,0,0,9.29,6.1,14.022,8.068l2.985-7.843S721.225,1664.941,721.3,1663.776Z" transform="translate(-664.237 -1608.834)" fill="#e09153"/>
          <path id="Path_135962" data-name="Path 135962" d="M716.98,1637.194c2.888-3.34.4-10.945,2.934-12.922,4.405-3.438,9.9-2.451,11.517,6.96,1.392,8.129.2,19.26-3.649,20.9-3.339,1.42-9.34-4.832-12.151-10.717-1.117-.89-3.811-2.528-4.233-4.558C710.529,1632.686,713.948,1633.119,716.98,1637.194Z" transform="translate(-665.075 -1606.012)" fill="#ffc685"/>
          <path id="Path_135963" data-name="Path 135963" d="M709.588,1739.878c-2.61-5.108-8.208-6.369-12.411-3.6-8.352-.017-.656,6.332-.467,6.233,3.881,1.191,6.071-1.277,7.986-.7C709.772,1743.34,710.939,1742.524,709.588,1739.878Z" transform="translate(-662.399 -1622.75)" fill="#ffc685"/>
          <path id="Path_135964" data-name="Path 135964" d="M696.476,1682.8c-1.729,9.066-20.458,21.616-23.8,27.461.006.026,13.62,11.44,19.363,16.851,1.4,1.317.546,6.328.159,6.272-8.248-1.2-31.208-13.724-35.04-19.64-2.368-3.656,21.912-32.382,28.1-38.626C692.162,1668.146,697.932,1675.152,696.476,1682.8Z" transform="translate(-656.993 -1613.428)" fill="#fff"/>
          <path id="Path_135965" data-name="Path 135965" d="M753.225,1752.041a2.666,2.666,0,0,1,1.5-1.952c1.506-.748,3.683-1.766,5.036-1.491a6.6,6.6,0,0,1,3.76,2.665,6.7,6.7,0,0,1,1.3,4.42c.25,3-2.266,5.648-3.94,3-.63-.995-3.425-4.9-3.425-4.9s1.663,6.127-3.792-.176A1.883,1.883,0,0,1,753.225,1752.041Z" transform="translate(-671.321 -1624.792)" fill="#ffc685"/>
          <path id="Path_135966" data-name="Path 135966" d="M711.26,1673.237l9.842,4.177-4.644-7.954h-4.565Z" transform="translate(-665.075 -1613.012)" fill="#99a7d8"/>
          <path id="Path_135967" data-name="Path 135967" d="M719.856,1676.022l-3.7-8.507-8.5-7.4-4.761,7.681,7.831,5.8,3.307-4.583Z" transform="translate(-663.829 -1611.62)" fill="#fff"/>
          <path id="Path_135968" data-name="Path 135968" d="M727,1665.389l3.036,6.778-2.482-1.741-4.727,6.381Z" transform="translate(-666.797 -1612.406)" fill="#fff"/>
        </g>
      </g>
    </g>
  </g>
</svg>
