<svg xmlns="http://www.w3.org/2000/svg" width="110" height="110" viewBox="0 0 110 110">
  <g id="ic1" transform="translate(-543 -18899)">
    <rect id="Rectangle_32155" data-name="Rectangle 32155" width="110" height="110" rx="13" transform="translate(543 18899)" fill="#5038a1"/>
    <g id="outline" transform="translate(556.001 18912.006)">
      <path id="Path_135086" data-name="Path 135086" d="M77.994,66h-3.32a5.635,5.635,0,0,0,.653-2.666V44.665a5.1,5.1,0,0,0-5.333-5.333H62V32.666a3.956,3.956,0,0,0-4-4H44.663a3.956,3.956,0,0,0-4,4v6.666h-8a5.1,5.1,0,0,0-5.333,5.333V63.33A5.636,5.636,0,0,0,27.985,66h-3.32V35.817a17.332,17.332,0,1,0-10.666,0V66H3.334A1.333,1.333,0,0,0,2,67.329V80.661a1.333,1.333,0,0,0,1.333,1.333h74.66a1.333,1.333,0,0,0,1.333-1.333V67.329A1.333,1.333,0,0,0,77.994,66Zm-8-24a2.45,2.45,0,0,1,2.666,2.666V46H69.994Zm-5.333,0h2.666v5.333a1.333,1.333,0,0,0,1.333,1.333h4V59.33h-4a1.333,1.333,0,0,0-1.333,1.333V66H64.661Zm8,20V63.33A2.45,2.45,0,0,1,69.994,66V62ZM62,42V66H59.329V42Zm-5.333-2.666V36.665h2.666v2.666ZM43.33,32.666a1.276,1.276,0,0,1,1.333-1.333H58a1.276,1.276,0,0,1,1.333,1.333V34h-16ZM56.662,42V66H46V42Zm-8-2.666V36.665H54v2.666ZM43.33,36.665H46v2.666H43.33ZM40.664,42H43.33V66H40.664ZM30,44.665A2.45,2.45,0,0,1,32.664,42v4H30Zm0,4h4a1.333,1.333,0,0,0,1.333-1.333V42H38V66H35.331V60.663A1.333,1.333,0,0,0,34,59.33H30ZM30,62h2.666v4A2.45,2.45,0,0,1,30,63.33ZM4.667,19.334A14.665,14.665,0,1,1,19.332,34,14.665,14.665,0,0,1,4.667,19.334ZM22,36.439V66H16.666V36.439a17.406,17.406,0,0,0,2.666.227A17.407,17.407,0,0,0,22,36.439ZM76.66,79.328H4.667V68.663H76.66Z" transform="translate(0 0)" fill="#fff"/>
      <path id="Path_135087" data-name="Path 135087" d="M30,18A12,12,0,0,0,6,18a1.333,1.333,0,0,0,1.333,1.333H28.665A1.333,1.333,0,0,0,30,18Zm-8-1.333,2.133-1.6-1.6-2.133-4.977,3.733h-8.8A9.234,9.234,0,0,1,9.6,13.957l2.472,1.236,1.192-2.386L11.1,11.733a9.306,9.306,0,0,1,5.562-2.961v2.561h2.666V8.772a9.347,9.347,0,0,1,7.9,7.894Z" transform="translate(1.333 1.335)" fill="#fff"/>
      <path id="Path_135088" data-name="Path 135088" d="M68.327,4.662H58.521a11.991,11.991,0,1,0,4.473,9.333c0-.253-.009-.505-.028-.753l6.3-6.3a1.333,1.333,0,0,0-.943-2.276ZM60.638,11.8a1.333,1.333,0,0,0-.381,1.1A9.353,9.353,0,1,1,57.152,7a1.333,1.333,0,0,0,.881.333h7.075Z" transform="translate(12.333 0.006)" fill="#fff"/>
      <path id="Path_135089" data-name="Path 135089" d="M52.292,7.293,49.235,10.35,46.178,7.293,44.293,9.178l3.057,3.057-3.057,3.057,1.885,1.885,3.057-3.057,3.057,3.057,1.885-1.885L51.12,12.235l3.057-3.057Z" transform="translate(14.093 1.765)" fill="#fff"/>
      <path id="Path_135090" data-name="Path 135090" d="M6,54H22v2.666H6Z" transform="translate(1.333 17.329)" fill="#fff"/>
      <path id="Path_135091" data-name="Path 135091" d="M25,19.333A1.333,1.333,0,0,0,23.665,18H10.333A1.381,1.381,0,0,0,9,19.389,6.619,6.619,0,0,0,15.61,26h2.722A6.674,6.674,0,0,0,25,19.333ZM11.888,20.666H22.1a4.008,4.008,0,0,1-3.772,2.666H15.61A3.94,3.94,0,0,1,11.888,20.666Z" transform="translate(2.333 5.333)" fill="#fff"/>
      <path id="Path_135092" data-name="Path 135092" d="M37,34h5.333v2.666H37Z" transform="translate(11.663 10.665)" fill="#fff"/>
    </g>
  </g>
</svg>
