<svg xmlns="http://www.w3.org/2000/svg" width="110" height="110" viewBox="0 0 110 110">
  <g id="ic5" transform="translate(6160 -8185)">
    <rect id="Rectangle_32167" data-name="Rectangle 32167" width="110" height="110" rx="13" transform="translate(-6160 8185)" fill="#5038a1"/>
    <g id="family" transform="translate(-6145 8164.572)">
      <path id="Path_136023" data-name="Path 136023" d="M80,90.895c0-3.023-.576-4.812-1.868-6.158V57.39a12.11,12.11,0,0,0-4.4-9.088,14.753,14.753,0,0,0-9.566-3.7H59.524a14.753,14.753,0,0,0-9.566,3.7,12.11,12.11,0,0,0-4.4,9.088V71.156a8.239,8.239,0,0,0-4.327-1.223H38.768a8.3,8.3,0,0,0-7.524,4.816l-2.485-.68-.231-2.342c4.332-2.289,7.413-6.838,7.413-10.767V52.8A11.388,11.388,0,0,0,24.566,41.428H21.034a11.263,11.263,0,0,0-6.692,2.191l1.384,1.892a8.934,8.934,0,0,1,5.308-1.739h3.532A9.041,9.041,0,0,1,33.6,52.8v1.215C27.8,54.159,23.059,53,19.5,50.568l-.631-.431-.649.4c-.345.214-.69.434-1.036.654A22.073,22.073,0,0,1,12,53.888V52.8a9.012,9.012,0,0,1,2.2-5.886l-1.774-1.532A11.356,11.356,0,0,0,9.659,52.8v8.158A12.191,12.191,0,0,0,13.517,69.1a14.715,14.715,0,0,0,3.553,2.642l-.23,2.325L7.729,76.564C1.878,78.165,0,80.673,0,86.885v13.822H23.787c-.032.4-.047.833-.047,1.293v6.482H42.2v-2.344H26.084V102c0-3.328.634-4.17,3.993-5.3l4.271-1.439a5.863,5.863,0,0,0,11.3,0L49.923,96.7c3.358,1.131,3.993,1.974,3.993,5.3v4.138H49.229v2.344H56.26V102c0-.46-.016-.889-.047-1.293H80ZM51.5,50.064a12.379,12.379,0,0,1,8.02-3.123h4.643a12.379,12.379,0,0,1,8.02,3.123,9.8,9.8,0,0,1,3.6,7.327V83.034c-.712-.39-1.522-.772-2.438-1.179l-6.434-2.861L66.6,76.878a12.576,12.576,0,0,0,2.964-2.218,10.438,10.438,0,0,0,3.3-6.978V60.539s-1.777,0-2.084,0c-4.015.022-8.168.046-11.877-3.762L58,55.849l-.832,1a11.186,11.186,0,0,1-5.9,3.73l-.869.233v6.87a10.438,10.438,0,0,0,3.3,6.978,12.581,12.581,0,0,0,2.964,2.218l-.315,2.116-6.817,3.033v-3.8A8.245,8.245,0,0,0,47.9,73.31V57.39a9.806,9.806,0,0,1,3.6-7.327ZM61.628,75.821A8.947,8.947,0,0,1,55.35,73a8.2,8.2,0,0,1-2.614-5.323v-5.1a13.287,13.287,0,0,0,5.388-3.31c4.067,3.578,8.458,3.634,12.4,3.614v4.794A8.2,8.2,0,0,1,67.906,73,8.947,8.947,0,0,1,61.628,75.821Zm-2.738,1.962a10,10,0,0,0,5.477,0l.27,1.815-3.009,5.744L58.619,79.6ZM40,90.468c-3.962,0-7.178-3.966-7.178-6.554V79.4H47.178v4.52C47.178,87.532,42.835,90.468,40,90.468ZM38.768,72.277h2.464a5.956,5.956,0,0,1,5.829,4.774H32.939A5.955,5.955,0,0,1,38.768,72.277ZM12,60.96V56.318a21.58,21.58,0,0,0,6.442-3.146l.384-.244c3.87,2.418,8.83,3.571,14.768,3.435v4.6a9.98,9.98,0,0,1-3.174,6.487A10.86,10.86,0,0,1,22.8,70.863a10.86,10.86,0,0,1-7.623-3.415A9.982,9.982,0,0,1,12,60.96ZM22.8,73.206a11.692,11.692,0,0,0,3.466-.536l.233,2.362a3.7,3.7,0,0,1-7.4,0l.232-2.354A11.878,11.878,0,0,0,22.8,73.206Zm6.529,21.271c-2.812.947-4.34,2.03-5.059,3.886H2.344V86.885c0-5.158,1.178-6.74,6-8.061l8.592-2.352a6.044,6.044,0,0,0,11.718,0L30.57,77a8.313,8.313,0,0,0-.092,1.228v5.691a8.862,8.862,0,0,0,2.795,5.93,10.807,10.807,0,0,0,1.982,1.575l-.746,1.312ZM40,97.221a3.525,3.525,0,0,1-3.508-3.233l.9-1.584a8.525,8.525,0,0,0,5.215,0l.9,1.584A3.525,3.525,0,0,1,40,97.221Zm37.656,1.142H55.73c-.718-1.855-2.247-2.939-5.059-3.886l-5.181-1.745-.746-1.312a10.807,10.807,0,0,0,1.982-1.575,9.3,9.3,0,0,0,2.749-5.211c.384-.186,7.4-3.313,7.4-3.313l4.752,9.072L66.38,81.32,72.4,84c4.329,1.925,5.258,2.731,5.258,6.9Z" transform="translate(0)" fill="#fff"/>
      <path id="Path_136024" data-name="Path 136024" d="M285.065,455.574h2.344v2.344h-2.344Z" transform="translate(-240.524 -349.436)" fill="#fff"/>
      <path id="Path_136025" data-name="Path 136025" d="M410.673,99.212h2.344v2.344h-2.344Z" transform="translate(-346.505 -48.755)" fill="#fff"/>
      <path id="Path_136026" data-name="Path 136026" d="M440.673,114.211h2.344v2.344h-2.344Z" transform="translate(-371.818 -61.411)" fill="#fff"/>
    </g>
  </g>
</svg>
