<svg xmlns="http://www.w3.org/2000/svg" width="110" height="110" viewBox="0 0 110 110">
  <g id="ic6" transform="translate(6160 -8544)">
    <rect id="Rectangle_32169" data-name="Rectangle 32169" width="110" height="110" rx="13" transform="translate(-6160 8544)" fill="#5038a1"/>
    <g id="tennis-racket" transform="translate(-6145 8558.997)">
      <g id="Group_92719" data-name="Group 92719" transform="translate(0.001 0.003)">
        <g id="Group_92718" data-name="Group 92718">
          <path id="Path_136027" data-name="Path 136027" d="M73.846,6.157C69.254,1.564,62.777-.574,55.609.136a32.384,32.384,0,0,0-19.48,9.59q-.719.719-1.4,1.478A10.755,10.755,0,1,0,24.2,26.363a10.885,10.885,0,0,0,2.805-.175,26.072,26.072,0,0,0-.182,10.192h-.021c-.033,3.214-.726,12.162-3.494,14.93L17.7,56.925a2.822,2.822,0,0,0-2.771.72L6.191,66.38a1.2,1.2,0,0,0,1.69,1.69l8.735-8.735a.438.438,0,0,1,.619,0l3.434,3.434a.439.439,0,0,1,0,.619l-14.1,14.1a.438.438,0,0,1-.62,0L2.519,74.052a.438.438,0,0,1,0-.62L3.96,71.991A1.2,1.2,0,0,0,2.27,70.3L.829,71.742a2.829,2.829,0,0,0,0,4l3.433,3.432a2.832,2.832,0,0,0,4,0l14.1-14.1a2.83,2.83,0,0,0,.72-2.77l5.616-5.616c2.764-2.764,11.714-3.459,14.93-3.494v-.017a24.125,24.125,0,0,0,2.467.33q1.044.086,2.1.086a29.228,29.228,0,0,0,12.346-2.854,1.2,1.2,0,0,0,.566-1.634h0a1.191,1.191,0,0,0-1.561-.54,26.271,26.271,0,0,1-13.255,2.559A18.921,18.921,0,0,1,34.25,45.753c-4.972-4.972-6.663-12.59-4.572-20.466a10.757,10.757,0,0,0,5.87-11.35,33.251,33.251,0,0,1,2.271-2.52,29.991,29.991,0,0,1,18.025-8.9c6.442-.638,12.234,1.255,16.311,5.332,8.482,8.483,6.88,23.886-3.57,34.336a33.007,33.007,0,0,1-4.116,3.5,1.2,1.2,0,0,0,1.4,1.935,35.4,35.4,0,0,0,4.4-3.74,32.382,32.382,0,0,0,9.59-19.479C80.577,17.227,78.439,10.75,73.846,6.157ZM19.017,21.547a8.323,8.323,0,0,1-2.383-4.9,8.372,8.372,0,0,1,7.285,7.289A8.3,8.3,0,0,1,19.017,21.547ZM35.505,49.88a20.5,20.5,0,0,0,2.3,1.354q-.419.052-.85.114-1.962.28-3.593.675ZM32.56,47.444q.5.5,1.036.966L21.643,60.362l-2-2L31.6,46.407Q32.058,46.94,32.56,47.444ZM30.126,44.5l-2.145,2.145q.394-1.63.675-3.593.063-.439.115-.865A20.641,20.641,0,0,0,30.126,44.5Zm.723-22.949a8.3,8.3,0,0,1-4.532,2.335,10.753,10.753,0,0,0-9.629-9.634,8.338,8.338,0,0,1,6.863-6.863,10.755,10.755,0,0,0,9.627,9.631A8.316,8.316,0,0,1,30.848,21.547Zm-2.513-9.319a8.273,8.273,0,0,1-2.388-4.9,8.339,8.339,0,0,1,7.284,7.283A8.272,8.272,0,0,1,28.335,12.228Z" transform="translate(-0.001 -0.003)" fill="#fff"/>
        </g>
      </g>
      <g id="Group_92721" data-name="Group 92721" transform="translate(32.208 5.805)">
        <g id="Group_92720" data-name="Group 92720">
          <path id="Path_136028" data-name="Path 136028" d="M243.665,41.592c-3.341-3.341-8.157-4.886-13.563-4.35a26.575,26.575,0,0,0-15.95,7.919,26.576,26.576,0,0,0-7.919,15.95c-.535,5.406,1.01,10.223,4.35,13.563a15.912,15.912,0,0,0,11.489,4.454q1.02,0,2.074-.1A26.576,26.576,0,0,0,240.1,71.1a26.576,26.576,0,0,0,7.919-15.95C248.55,49.75,247.005,44.932,243.665,41.592Zm-.888,2.578a12.725,12.725,0,0,1,2.361,4.566l-3.464-3.463ZM215.953,58.133l4.74-4.74,4.74,4.74-4.74,4.74Zm3.05,6.43-4.74,4.74-4.74-4.74,4.74-4.74ZM222.384,51.7l4.739-4.739,4.74,4.74-4.739,4.739Zm4.74,8.121,4.739,4.739-4.74,4.74-4.739-4.739Zm1.691-1.691,4.739-4.739,4.739,4.739-4.739,4.739Zm6.429-6.429,4.74-4.74,4.739,4.739-4.74,4.74Zm5.842-9.222-1.1,1.1-3.459-3.46A12.723,12.723,0,0,1,241.085,42.481Zm-7.531-1.948,4.74,4.74-4.74,4.74-4.74-4.74Zm-3.217-.912c.272-.027.542-.047.811-.062l-4.025,4.025-2.548-2.548A21.478,21.478,0,0,1,230.337,39.62Zm-8.08,2.477,3.176,3.176-4.739,4.739-3.988-3.988A26.265,26.265,0,0,1,222.257,42.1Zm-7.242,5.617L219,51.7l-4.74,4.74-3.175-3.175A26.269,26.269,0,0,1,215.015,47.715Zm-6.4,13.631a21.48,21.48,0,0,1,1.414-5.761l2.548,2.548-4.025,4.025C208.564,61.889,208.584,61.619,208.611,61.346Zm2.86,10.749a12.73,12.73,0,0,1-2.36-4.564l3.462,3.462Zm1.69,1.69,1.1-1.1,3.462,3.462A12.728,12.728,0,0,1,213.161,73.786Zm7.531,1.947-4.739-4.739,4.74-4.74,4.739,4.739Zm3.218.912q-.409.041-.812.063l4.025-4.025,2.548,2.548A21.473,21.473,0,0,1,223.91,76.645Zm8.079-2.477-3.176-3.176,4.74-4.74,3.989,3.988A26.267,26.267,0,0,1,231.989,74.168Zm7.243-5.618-3.988-3.988,4.739-4.739L243.159,63A26.275,26.275,0,0,1,239.232,68.551Zm6.4-13.631a21.482,21.482,0,0,1-1.415,5.762l-2.548-2.548,4.026-4.026Q245.676,54.51,245.636,54.919Z" transform="translate(-206.129 -37.138)" fill="#fff"/>
        </g>
      </g>
    </g>
  </g>
</svg>
