<svg xmlns="http://www.w3.org/2000/svg" width="820" height="320" viewBox="0 0 820 320">
  <g id="t0-i1" transform="translate(-390 -397)">
    <rect id="Rectangle_32189" data-name="Rectangle 32189" width="820" height="320" transform="translate(390 397)" fill="#fff"/>
    <g id="Group_92303" data-name="Group 92303" transform="translate(4127.529 263.107)">
      <path id="Path_134799" data-name="Path 134799" d="M-3678.239,445.967l705.66,7.088s33.755-247.383-122.936-298.887c-163.967-53.895-224.717,91.648-428.026,116.454C-3714.867,293.966-3678.239,445.967-3678.239,445.967Z" fill="#fff8e3"/>
      <g id="Group_92295" data-name="Group 92295">
        <rect id="Rectangle_32190" data-name="Rectangle 32190" width="172.97" height="101.035" transform="translate(-3731.964 157.117)" fill="#fff8e3"/>
        <path id="Path_134800" data-name="Path 134800" d="M-3558.429,258.717h-174.1V156.552h174.1Zm-172.97-1.129h171.84V157.682H-3731.4Z" fill="#1b2746"/>
        <rect id="Rectangle_32191" data-name="Rectangle 32191" width="172.97" height="16.325" transform="translate(-3731.964 157.117)" fill="#c4b3ff"/>
        <path id="Path_134801" data-name="Path 134801" d="M-3558.429,174.007h-174.1V156.552h174.1Zm-172.97-1.13h171.84V157.682H-3731.4Z" fill="#1b2746"/>
        <rect id="Rectangle_32192" data-name="Rectangle 32192" width="26.382" height="4.328" transform="translate(-3723.011 180.037)" fill="#c4b3ff"/>
        <path id="Path_134802" data-name="Path 134802" d="M-3696.065,184.931h-27.511v-5.458h27.511Zm-26.381-1.13h25.252v-3.2h-25.252Z" fill="#1b2746"/>
        <rect id="Rectangle_32193" data-name="Rectangle 32193" width="26.382" height="4.328" transform="translate(-3678.698 180.037)" fill="#c4b3ff"/>
        <path id="Path_134803" data-name="Path 134803" d="M-3651.752,184.931h-27.511v-5.458h27.511Zm-26.382-1.13h25.253v-3.2h-25.253Z" fill="#1b2746"/>
        <rect id="Rectangle_32194" data-name="Rectangle 32194" width="26.382" height="4.328" transform="translate(-3634.385 180.037)" fill="#c4b3ff"/>
        <path id="Path_134804" data-name="Path 134804" d="M-3607.438,184.931h-27.512v-5.458h27.512Zm-26.382-1.13h25.252v-3.2h-25.252Z" fill="#1b2746"/>
        <rect id="Rectangle_32195" data-name="Rectangle 32195" width="26.382" height="4.328" transform="translate(-3592.328 180.037)" fill="#c4b3ff"/>
        <path id="Path_134805" data-name="Path 134805" d="M-3565.381,184.931h-27.512v-5.458h27.512Zm-26.382-1.13h25.252v-3.2h-25.252Z" fill="#1b2746"/>
        <path id="Path_134806" data-name="Path 134806" d="M-3689.21,252.534a.565.565,0,0,1-.565-.565V180.038a.564.564,0,0,1,.565-.565.564.564,0,0,1,.565.565v71.931A.565.565,0,0,1-3689.21,252.534Z" fill="#1b2746"/>
        <path id="Path_134807" data-name="Path 134807" d="M-3642.526,252.534a.565.565,0,0,1-.565-.565V180.038a.565.565,0,0,1,.565-.565.565.565,0,0,1,.565.565v71.931A.565.565,0,0,1-3642.526,252.534Z" fill="#1b2746"/>
        <path id="Path_134808" data-name="Path 134808" d="M-3600.166,252.534a.565.565,0,0,1-.565-.565V180.038a.564.564,0,0,1,.565-.565.564.564,0,0,1,.565.565v71.931A.565.565,0,0,1-3600.166,252.534Z" fill="#1b2746"/>
        <path id="Path_134809" data-name="Path 134809" d="M-3695.187,195.03h-29.267a.565.565,0,0,1-.565-.565.565.565,0,0,1,.565-.565h29.267a.565.565,0,0,1,.565.565A.565.565,0,0,1-3695.187,195.03Z" fill="#1b2746"/>
        <path id="Path_134810" data-name="Path 134810" d="M-3650.874,195.03h-29.267a.565.565,0,0,1-.565-.565.565.565,0,0,1,.565-.565h29.267a.565.565,0,0,1,.565.565A.565.565,0,0,1-3650.874,195.03Z" fill="#1b2746"/>
        <path id="Path_134811" data-name="Path 134811" d="M-3606.561,195.03h-29.267a.565.565,0,0,1-.565-.565.565.565,0,0,1,.565-.565h29.267a.564.564,0,0,1,.565.565A.564.564,0,0,1-3606.561,195.03Z" fill="#1b2746"/>
        <path id="Path_134812" data-name="Path 134812" d="M-3564.5,195.03h-29.267a.565.565,0,0,1-.565-.565.565.565,0,0,1,.565-.565h29.267a.565.565,0,0,1,.565.565A.565.565,0,0,1-3564.5,195.03Z" fill="#1b2746"/>
        <path id="Path_134813" data-name="Path 134813" d="M-3695.187,205.129h-29.267a.565.565,0,0,1-.565-.565.565.565,0,0,1,.565-.565h29.267a.565.565,0,0,1,.565.565A.565.565,0,0,1-3695.187,205.129Z" fill="#1b2746"/>
        <path id="Path_134814" data-name="Path 134814" d="M-3650.874,205.129h-29.267a.565.565,0,0,1-.565-.565.565.565,0,0,1,.565-.565h29.267a.565.565,0,0,1,.565.565A.565.565,0,0,1-3650.874,205.129Z" fill="#1b2746"/>
        <path id="Path_134815" data-name="Path 134815" d="M-3606.561,205.129h-29.267a.565.565,0,0,1-.565-.565.565.565,0,0,1,.565-.565h29.267a.564.564,0,0,1,.565.565A.564.564,0,0,1-3606.561,205.129Z" fill="#1b2746"/>
        <path id="Path_134816" data-name="Path 134816" d="M-3564.5,205.129h-29.267a.565.565,0,0,1-.565-.565.565.565,0,0,1,.565-.565h29.267a.565.565,0,0,1,.565.565A.565.565,0,0,1-3564.5,205.129Z" fill="#1b2746"/>
        <path id="Path_134817" data-name="Path 134817" d="M-3695.187,214.713h-29.267a.565.565,0,0,1-.565-.565.565.565,0,0,1,.565-.565h29.267a.565.565,0,0,1,.565.565A.565.565,0,0,1-3695.187,214.713Z" fill="#1b2746"/>
        <path id="Path_134818" data-name="Path 134818" d="M-3650.874,214.713h-29.267a.565.565,0,0,1-.565-.565.565.565,0,0,1,.565-.565h29.267a.565.565,0,0,1,.565.565A.565.565,0,0,1-3650.874,214.713Z" fill="#1b2746"/>
        <path id="Path_134819" data-name="Path 134819" d="M-3606.561,214.713h-29.267a.565.565,0,0,1-.565-.565.565.565,0,0,1,.565-.565h29.267a.564.564,0,0,1,.565.565A.564.564,0,0,1-3606.561,214.713Z" fill="#1b2746"/>
        <path id="Path_134820" data-name="Path 134820" d="M-3564.5,214.713h-29.267a.565.565,0,0,1-.565-.565.565.565,0,0,1,.565-.565h29.267a.565.565,0,0,1,.565.565A.565.565,0,0,1-3564.5,214.713Z" fill="#1b2746"/>
        <path id="Path_134821" data-name="Path 134821" d="M-3695.187,224.137h-29.267a.565.565,0,0,1-.565-.564.564.564,0,0,1,.565-.565h29.267a.564.564,0,0,1,.565.565A.565.565,0,0,1-3695.187,224.137Z" fill="#1b2746"/>
        <path id="Path_134822" data-name="Path 134822" d="M-3650.874,224.137h-29.267a.565.565,0,0,1-.565-.564.565.565,0,0,1,.565-.565h29.267a.564.564,0,0,1,.565.565A.565.565,0,0,1-3650.874,224.137Z" fill="#1b2746"/>
        <path id="Path_134823" data-name="Path 134823" d="M-3606.561,224.137h-29.267a.565.565,0,0,1-.565-.564.565.565,0,0,1,.565-.565h29.267a.564.564,0,0,1,.565.565A.564.564,0,0,1-3606.561,224.137Z" fill="#1b2746"/>
        <path id="Path_134824" data-name="Path 134824" d="M-3564.5,224.137h-29.267a.565.565,0,0,1-.565-.564.564.564,0,0,1,.565-.565h29.267a.564.564,0,0,1,.565.565A.565.565,0,0,1-3564.5,224.137Z" fill="#1b2746"/>
        <path id="Path_134825" data-name="Path 134825" d="M-3695.187,233.261h-29.267a.565.565,0,0,1-.565-.565.565.565,0,0,1,.565-.565h29.267a.565.565,0,0,1,.565.565A.565.565,0,0,1-3695.187,233.261Z" fill="#1b2746"/>
        <path id="Path_134826" data-name="Path 134826" d="M-3650.874,233.261h-29.267a.565.565,0,0,1-.565-.565.565.565,0,0,1,.565-.565h29.267a.565.565,0,0,1,.565.565A.565.565,0,0,1-3650.874,233.261Z" fill="#1b2746"/>
        <path id="Path_134827" data-name="Path 134827" d="M-3606.561,233.261h-29.267a.565.565,0,0,1-.565-.565.565.565,0,0,1,.565-.565h29.267a.564.564,0,0,1,.565.565A.564.564,0,0,1-3606.561,233.261Z" fill="#1b2746"/>
        <path id="Path_134828" data-name="Path 134828" d="M-3564.5,233.261h-29.267a.565.565,0,0,1-.565-.565.565.565,0,0,1,.565-.565h29.267a.565.565,0,0,1,.565.565A.565.565,0,0,1-3564.5,233.261Z" fill="#1b2746"/>
        <path id="Path_134829" data-name="Path 134829" d="M-3695.187,241.983h-29.267a.565.565,0,0,1-.565-.565.565.565,0,0,1,.565-.565h29.267a.565.565,0,0,1,.565.565A.565.565,0,0,1-3695.187,241.983Z" fill="#1b2746"/>
        <path id="Path_134830" data-name="Path 134830" d="M-3650.874,241.983h-29.267a.565.565,0,0,1-.565-.565.565.565,0,0,1,.565-.565h29.267a.565.565,0,0,1,.565.565A.565.565,0,0,1-3650.874,241.983Z" fill="#1b2746"/>
        <path id="Path_134831" data-name="Path 134831" d="M-3606.561,241.983h-29.267a.565.565,0,0,1-.565-.565.565.565,0,0,1,.565-.565h29.267a.564.564,0,0,1,.565.565A.564.564,0,0,1-3606.561,241.983Z" fill="#1b2746"/>
        <path id="Path_134832" data-name="Path 134832" d="M-3564.5,241.983h-29.267a.565.565,0,0,1-.565-.565.565.565,0,0,1,.565-.565h29.267a.565.565,0,0,1,.565.565A.565.565,0,0,1-3564.5,241.983Z" fill="#1b2746"/>
        <path id="Path_134833" data-name="Path 134833" d="M-3695.393,250.705h-29.267a.565.565,0,0,1-.565-.565.565.565,0,0,1,.565-.565h29.267a.565.565,0,0,1,.565.565A.565.565,0,0,1-3695.393,250.705Z" fill="#1b2746"/>
        <path id="Path_134834" data-name="Path 134834" d="M-3651.08,250.705h-29.267a.565.565,0,0,1-.565-.565.565.565,0,0,1,.565-.565h29.267a.565.565,0,0,1,.565.565A.565.565,0,0,1-3651.08,250.705Z" fill="#1b2746"/>
        <path id="Path_134835" data-name="Path 134835" d="M-3606.767,250.705h-29.267a.565.565,0,0,1-.565-.565.565.565,0,0,1,.565-.565h29.267a.565.565,0,0,1,.565.565A.565.565,0,0,1-3606.767,250.705Z" fill="#1b2746"/>
        <path id="Path_134836" data-name="Path 134836" d="M-3564.71,250.705h-29.267a.565.565,0,0,1-.565-.565.565.565,0,0,1,.565-.565h29.267a.565.565,0,0,1,.565.565A.565.565,0,0,1-3564.71,250.705Z" fill="#1b2746"/>
        <rect id="Rectangle_32196" data-name="Rectangle 32196" width="1.13" height="22.224" transform="translate(-3715.036 134.893)" fill="#1b2746"/>
        <rect id="Rectangle_32197" data-name="Rectangle 32197" width="1.13" height="22.224" transform="translate(-3579.045 134.893)" fill="#1b2746"/>
      </g>
      <g id="Group_92296" data-name="Group 92296">
        <rect id="Rectangle_32198" data-name="Rectangle 32198" width="540.992" height="10.097" transform="translate(-3514.157 364.177)" fill="#d9cfff"/>
        <path id="Path_134837" data-name="Path 134837" d="M-2972.6,374.839h-542.122V363.612H-2972.6Zm-540.992-1.13h539.862v-8.967h-539.862Z" fill="#1b2746"/>
        <rect id="Rectangle_32199" data-name="Rectangle 32199" width="6.016" height="78.591" transform="translate(-3410.552 374.274)" fill="#0e2549"/>
        <rect id="Rectangle_32200" data-name="Rectangle 32200" width="6.016" height="78.591" transform="translate(-3341.099 374.274)" fill="#0e2549"/>
        <rect id="Rectangle_32201" data-name="Rectangle 32201" width="6.016" height="78.591" transform="translate(-3272.123 374.274)" fill="#0e2549"/>
        <rect id="Rectangle_32202" data-name="Rectangle 32202" width="6.016" height="78.591" transform="translate(-3199.86 374.274)" fill="#0e2549"/>
        <rect id="Rectangle_32203" data-name="Rectangle 32203" width="6.016" height="78.591" transform="translate(-3124.153 374.274)" fill="#0e2549"/>
        <rect id="Rectangle_32204" data-name="Rectangle 32204" width="6.016" height="78.591" transform="translate(-3045.914 374.464)" fill="#0e2549"/>
        <rect id="Rectangle_32205" data-name="Rectangle 32205" width="6.016" height="78.591" transform="translate(-3472.923 374.274)" fill="#0e2549"/>
        <rect id="Rectangle_32206" data-name="Rectangle 32206" width="22.557" height="13.504" transform="translate(-3418.823 362.176)" fill="#fff8e3"/>
        <path id="Path_134838" data-name="Path 134838" d="M-3395.7,376.245h-23.686V361.612h23.686Zm-22.557-1.13h21.428V362.741h-21.428Z" fill="#1b2746"/>
        <rect id="Rectangle_32207" data-name="Rectangle 32207" width="22.557" height="13.504" transform="translate(-3349.37 362.176)" fill="#fff8e3"/>
        <path id="Path_134839" data-name="Path 134839" d="M-3326.248,376.245h-23.686V361.612h23.686Zm-22.556-1.13h21.427V362.741H-3348.8Z" fill="#1b2746"/>
        <rect id="Rectangle_32208" data-name="Rectangle 32208" width="22.557" height="13.504" transform="translate(-3280.393 362.474)" fill="#fff8e3"/>
        <path id="Path_134840" data-name="Path 134840" d="M-3257.271,376.543h-23.687V361.909h23.687Zm-22.557-1.13h21.427V363.038h-21.427Z" fill="#1b2746"/>
        <rect id="Rectangle_32209" data-name="Rectangle 32209" width="22.557" height="13.504" transform="translate(-3208.131 362.474)" fill="#fff8e3"/>
        <path id="Path_134841" data-name="Path 134841" d="M-3185.009,376.543H-3208.7V361.909h23.687Zm-22.557-1.13h21.427V363.038h-21.427Z" fill="#1b2746"/>
        <rect id="Rectangle_32210" data-name="Rectangle 32210" width="22.557" height="13.504" transform="translate(-3132.423 362.474)" fill="#fff8e3"/>
        <path id="Path_134842" data-name="Path 134842" d="M-3109.3,376.543h-23.686V361.909h23.686Zm-22.557-1.13h21.428V363.038h-21.428Z" fill="#1b2746"/>
        <rect id="Rectangle_32211" data-name="Rectangle 32211" width="22.557" height="13.504" transform="translate(-3055.098 362.663)" fill="#fff8e3"/>
        <path id="Path_134843" data-name="Path 134843" d="M-3031.977,376.732h-23.686V362.1h23.686Zm-22.556-1.129h21.427V363.228h-21.427Z" fill="#1b2746"/>
      </g>
      <g id="Group_92297" data-name="Group 92297">
        <path id="Path_134844" data-name="Path 134844" d="M-3612.17,236.509a16.11,16.11,0,0,0-12.93-3.212c-.385.053-.754.116-1.115.186-2.686-1.863-14.365-8.7-21.615,7.364-8.233,18.247-16.7,8.445-16.7,8.445s5.439,15.5,16.319,11.553c6.818-2.475,9.363-10.392,11.613-16.058a20.832,20.832,0,0,0,.938,8.385c1.667,4.11,1.1,2.494,3.84,6.621,1.387,2.088,16.166,4.8,21.689-7.316C-3608.17,248.171-3606.1,241.375-3612.17,236.509Z" fill="#12263f"/>
        <path id="Path_134845" data-name="Path 134845" d="M-3628.924,253.913s-4.366,12.664-5.077,13.169c-10.349,7.352-9.629,12.808-10.849,12.676s16.621,3.53,16.621,3.53l10.951-.936,1.383-7.43s-6.257-3.36-7.042-5.222,3.687-11.269,3.687-11.269Z" fill="#fff8e3"/>
        <path id="Path_134846" data-name="Path 134846" d="M-3628.263,283.858l-.08-.016s-4.175-.857-8.348-1.727c-2.087-.435-4.174-.874-5.738-1.21-.784-.168-1.437-.311-1.894-.415-.844-.193-1.229-.28-1.144-.82a.568.568,0,0,1,.576-.478,6.536,6.536,0,0,0,.432-.909c.879-2.072,2.707-6.377,10.094-11.635.538-.708,2.919-7.152,4.907-12.919l.205-.593,10.757,5.024-.244.513c-2.144,4.512-4.106,9.788-3.676,10.807.515,1.223,4.437,3.682,6.788,4.944l.364.195-1.537,8.259Zm-15.487-4.4c2.669.594,10.239,2.166,15.554,3.257l10.442-.893,1.228-6.6c-1.452-.8-6.181-3.521-6.931-5.3-.772-1.832,2.349-8.841,3.455-11.216l-8.593-4.013c-1.983,5.731-4.393,12.366-5.079,12.852-7.157,5.085-8.905,9.2-9.746,11.182C-3643.534,278.994-3643.64,279.244-3643.75,279.462Z" fill="#12263f"/>
        <path id="Path_134847" data-name="Path 134847" d="M-3629.663,256.244c-1.09-1.545-2.9-4.517-2.225-6.468s2.785-.874,3.337-.309c.368.375,3.648-9.424,3.648-9.424l15.2,4.984s-1,9.129-3.6,14.234c-2.6,5.127-5.587,5.558-9.536,4.224a9.741,9.741,0,0,1-4.263-2.737Z" fill="#fff8e3"/>
        <path id="Path_134848" data-name="Path 134848" d="M-3619.506,264.684a11.07,11.07,0,0,1-3.516-.664,10.379,10.379,0,0,1-4.5-2.9.565.565,0,0,1,.045-.8.564.564,0,0,1,.8.045,9.275,9.275,0,0,0,4.023,2.579c3.607,1.218,6.347.984,8.852-3.945,2.192-4.312,3.245-11.69,3.488-13.586l-14.225-4.664c-3.058,9.091-3.494,9.191-3.846,9.272l-.309.071-.254-.236a2.3,2.3,0,0,0-1.73-.615c-.2.043-.478.165-.669.715-.43,1.238.354,3.408,2.152,5.956a.564.564,0,0,1-.135.787.566.566,0,0,1-.788-.136c-1.443-2.045-3.013-4.915-2.3-6.978a2.031,2.031,0,0,1,1.49-1.447,3.2,3.2,0,0,1,2.267.522c.6-1.28,2.021-5.2,3.226-8.8l.178-.532,16.167,5.3-.05.456c-.041.377-1.047,9.29-3.659,14.428C-3614.591,263.038-3616.653,264.684-3619.506,264.684Z" fill="#12263f"/>
        <path id="Path_134849" data-name="Path 134849" d="M-3609.275,245.437s-13.816-1.527-19.011,4a4.036,4.036,0,0,0-1.323-.892,1.938,1.938,0,0,0-1.184-.085l5.134-10.692Z" fill="#12263f"/>
        <path id="Path_134850" data-name="Path 134850" d="M-3635.377,267.6c-6.57-3.329-25.186,20.413-29.767,29.55-9.374,18.694,16.512,14.364,16.512,14.364l-3.507-22.284,1.768,32.5,27.479,1.821,6.22-28.688a.167.167,0,0,1,.329.019c.367,3.941,2.2,16.7,10.606,16.7h14.389l.869-8.133-14.073-1.626s-2.376-18.649-8.386-24.874c-2.836-2.938-5.17-4.668-6.4-4.966-2.718-.663-3.223,8.36-5.059,8.36C-3625.833,280.352-3631.236,269.7-3635.377,267.6Z" fill="#fff"/>
        <path id="Path_134851" data-name="Path 134851" d="M-3622.443,324.152l-28.464-1.886-.537-9.859c-4.236.325-11.91.264-14.995-3.915-1.984-2.689-1.719-6.589.79-11.592,4.2-8.373,18.795-27.152,26.944-29.839a4.609,4.609,0,0,1,3.584.038h0c2.518,1.276,5.357,5.378,7.638,8.674,1.162,1.679,2.6,3.759,3.115,4.008.42-.148,1.054-2.173,1.4-3.271.815-2.607,1.738-5.561,3.771-5.067,1.431.349,3.861,2.216,6.668,5.123,5.624,5.825,8.073,21.824,8.481,24.756l14.193,1.639-.983,9.2h-14.9c-7.553,0-10.067-9.544-10.88-14.877Zm-27.391-2.948,26.494,1.756,6.116-28.212a.73.73,0,0,1,.759-.576.728.728,0,0,1,.685.662c.353,3.8,2.123,16.192,10.043,16.192h13.881l.756-7.071-13.956-1.612-.056-.439c-.024-.185-2.421-18.536-8.232-24.554-3.088-3.2-5.188-4.581-6.122-4.81-1-.243-1.825,2.386-2.426,4.307-.711,2.274-1.273,4.07-2.5,4.07-.831,0-1.713-1.167-4.02-4.5-2.209-3.191-4.957-7.162-7.22-8.309h0a3.548,3.548,0,0,0-2.72.027c-7.612,2.51-22.1,20.93-26.288,29.272-2.3,4.592-2.6,8.1-.89,10.416,2.745,3.718,10,3.748,14.024,3.447l-1.2-22.005,1.122-.119,3.594,22.837-.552.093c-.115.019-.772.125-1.779.23Zm-1.138-20.922.592,10.887c.45-.046.823-.092,1.1-.129Zm26.636-20.488h0Z" fill="#12263f"/>
        <path id="Path_134852" data-name="Path 134852" d="M-3614.137,254.46a.961.961,0,0,1-.224-.027.943.943,0,0,1-.691-1.139l.124-.508a.941.941,0,0,1,1.138-.691.941.941,0,0,1,.691,1.138l-.124.509A.943.943,0,0,1-3614.137,254.46Z" fill="#12263f"/>
        <path id="Path_134853" data-name="Path 134853" d="M-3621.653,252.706a.958.958,0,0,1-.224-.027.942.942,0,0,1-.691-1.138l.124-.509a.941.941,0,0,1,1.138-.691.941.941,0,0,1,.691,1.138l-.124.508A.943.943,0,0,1-3621.653,252.706Z" fill="#12263f"/>
        <path id="Path_134854" data-name="Path 134854" d="M-3618.445,249.643a.562.562,0,0,1-.389-.156,4.01,4.01,0,0,0-3.922-.617.564.564,0,0,1-.709-.368.565.565,0,0,1,.368-.709,5.122,5.122,0,0,1,5.044.878.565.565,0,0,1,.016.8A.566.566,0,0,1-3618.445,249.643Z" fill="#12263f"/>
        <path id="Path_134855" data-name="Path 134855" d="M-3616.5,257.088a8.206,8.206,0,0,1-1.684-.222.566.566,0,0,1-.433-.672.565.565,0,0,1,.672-.433,8.347,8.347,0,0,0,1.492.2c-.013-.043-.026-.088-.038-.129a9.484,9.484,0,0,1-.429-3.117c.017-1.466.276-2.361.817-2.817a1.572,1.572,0,0,1,1.3-.3,7.424,7.424,0,0,1,3.413,1.766.565.565,0,0,1,.025.8.564.564,0,0,1-.8.025,6.349,6.349,0,0,0-2.817-1.474c-.261-.042-.34,0-.393.046-.119.1-.4.494-.416,1.967a8.371,8.371,0,0,0,.382,2.781,1.337,1.337,0,0,1,.012,1.166C-3615.488,256.814-3615.66,257.088-3616.5,257.088Z" fill="#12263f"/>
        <path id="Path_134856" data-name="Path 134856" d="M-3616.508,310.247c-3.2-.275-16.923,1.581-16.923,1.581l1.157-7.412s14.968,2.547,16.1,2.221a33.784,33.784,0,0,1,7.448-.931c3.323-.129,6.482,1.513,6.432,2.416-.027.487-4.782-.46-5.928,0C-3611.459,309.421-3614.226,310.444-3616.508,310.247Z" fill="#fff8e3"/>
        <path id="Path_134857" data-name="Path 134857" d="M-3634.106,312.488l1.363-8.725.564.1c5.638.959,14.93,2.413,15.86,2.233a32.964,32.964,0,0,1,7.571-.951c2.726-.1,5.522.953,6.548,2a1.36,1.36,0,0,1,.47,1.016.638.638,0,0,1-.224.452c-.35.3-.991.262-2.8.1a12.666,12.666,0,0,0-3.261-.061c-3.372,1.353-6.142,2.37-8.546,2.164h0c-3.1-.266-16.661,1.558-16.8,1.577Zm2.3-7.419-.952,6.1c2.943-.387,13.469-1.729,16.3-1.483,2.151.181,4.909-.837,8.028-2.088a10.38,10.38,0,0,1,3.782-.016c.434.039.959.085,1.378.108a9.446,9.446,0,0,0-5.432-1.419,31.962,31.962,0,0,0-7.314.91C-3617.125,307.5-3627.732,305.756-3631.8,305.069Z" fill="#12263f"/>
        <path id="Path_134858" data-name="Path 134858" d="M-3649.134,295.766l22.135,7.265-2.975,8.8s-17.691.511-21.478,0c-7.051-.953-14.588-7.164-14.588-7.164l14.313-19.2Z" fill="#fff"/>
        <path id="Path_134859" data-name="Path 134859" d="M-3547.5,281.348l-6.824,27.63h-39.856l8.069-27.63Z" fill="#c4b3ff"/>
        <path id="Path_134860" data-name="Path 134860" d="M-3553.868,309.568h-41.1l8.413-28.809h39.807Zm-39.531-1.179h38.608l6.533-26.451h-37.417Z" fill="#12263f"/>
        <rect id="Rectangle_32212" data-name="Rectangle 32212" width="51.766" height="2.612" transform="translate(-3606.131 308.979)" fill="#fff8e3"/>
        <path id="Path_134861" data-name="Path 134861" d="M-3553.8,312.156h-52.9v-3.742h52.9Zm-51.766-1.13h50.636v-1.482h-50.636Z" fill="#12263f"/>
        <path id="Path_134862" data-name="Path 134862" d="M-3572.978,295.962c-.183,2.141,1.081,4,2.825,4.146s3.305-1.464,3.489-3.605-1.081-4-2.824-4.146S-3572.794,293.821-3572.978,295.962Z" fill="#fff8e3"/>
        <path id="Path_134863" data-name="Path 134863" d="M-3569.925,300.683c-.092,0-.184,0-.276-.012a3.44,3.44,0,0,1-2.554-1.571,4.917,4.917,0,0,1-.785-3.186h0c.21-2.448,2.053-4.3,4.1-4.12s3.549,2.31,3.339,4.758a4.92,4.92,0,0,1-1.316,3.006A3.482,3.482,0,0,1-3569.925,300.683Zm-2.49-4.673a3.789,3.789,0,0,0,.594,2.454,2.335,2.335,0,0,0,1.716,1.082,2.344,2.344,0,0,0,1.876-.774,3.786,3.786,0,0,0,1-2.317c.157-1.827-.879-3.413-2.309-3.536s-2.722,1.265-2.879,3.091Z" fill="#12263f"/>
        <path id="Path_134864" data-name="Path 134864" d="M-3629.818,311.891a.526.526,0,0,1-.169-.028.527.527,0,0,1-.33-.668l2.619-7.741-23.522-3.73,6.81-11.468a.527.527,0,0,1,.722-.184.527.527,0,0,1,.184.722l-6.017,10.133,23.221,3.682-3.019,8.924A.526.526,0,0,1-3629.818,311.891Z" fill="#12263f"/>
        <path id="Path_134865" data-name="Path 134865" d="M-3621.639,257.487s2.576,4.128,5.3,1.3a2.182,2.182,0,0,0-2.007-.6A5.723,5.723,0,0,0-3621.639,257.487Z" fill="#5038a1"/>
        <path id="Path_134866" data-name="Path 134866" d="M-3520.389,452.368h-164.432l-17.02-141.275h199.1Z" fill="#d9cfff"/>
        <path id="Path_134867" data-name="Path 134867" d="M-3519.892,453.43h-165.431l-17.156-142.406H-3502.1l-.08.635Zm-164.429-1.13h163.432l17.5-140.146h-197.82Z" fill="#12263f"/>
        <path id="Path_134868" data-name="Path 134868" d="M-3728.916,329.833s9.5,26.3,9.5,36.987,1.909,20.74,9.825,23.95a12.7,12.7,0,0,0,14.972-3.584c1.654-2.375,4.929-17.441-11.251-35.051C-3712.223,345.219-3728.916,329.833-3728.916,329.833Z" fill="#c4b3ff"/>
        <path id="Path_134869" data-name="Path 134869" d="M-3704.341,392.411a14.449,14.449,0,0,1-5.462-1.118c-6.849-2.777-10.178-10.782-10.178-24.473,0-10.469-9.372-36.533-9.466-36.8l-.786-2.174,1.7,1.567c.167.154,16.783,15.481,23.08,22.335,8.706,9.477,11.578,18.027,12.454,23.532,1,6.263-.18,10.822-1.156,12.224A13.108,13.108,0,0,1-3704.341,392.411Zm-23.281-60.608c2.275,6.546,8.771,26.027,8.771,35.017,0,13.179,3.1,20.841,9.473,23.427a12.064,12.064,0,0,0,14.3-3.384c1.363-1.959,5.089-16.612-11.2-34.346C-3711.365,346.988-3723.226,335.888-3727.622,331.8Z" fill="#12263f"/>
        <path id="Path_134870" data-name="Path 134870" d="M-3696.106,406.155a.5.5,0,0,1-.493-.442c-1.947-17.522-19.958-54.093-20.139-54.46a.5.5,0,0,1,.225-.666.5.5,0,0,1,.665.225c.183.369,18.27,37.1,20.236,54.792a.5.5,0,0,1-.439.548A.51.51,0,0,1-3696.106,406.155Z" fill="#12263f"/>
        <path id="Path_134871" data-name="Path 134871" d="M-3702.714,299.221s-8.111,35.3-4.988,56.713c2.674,18.34,6.455,25.775,14.146,24.435,12.9-2.246,5.622-44.247,1.621-55.88A252.46,252.46,0,0,0-3702.714,299.221Z" fill="#c4b3ff"/>
        <path id="Path_134872" data-name="Path 134872" d="M-3695.248,381.088a7.5,7.5,0,0,1-4.536-1.449c-3.944-2.856-6.479-9.921-8.477-23.623-3.1-21.274,4.915-56.568,5-56.922l.354-1.538.7,1.413A255.522,255.522,0,0,1-3691.4,324.3c3.641,10.587,9.141,42.246,2.829,52.931a7.063,7.063,0,0,1-4.888,3.69A10.443,10.443,0,0,1-3695.248,381.088Zm-7.261-80.158c-1.511,7.1-7.332,36.422-4.634,54.922,1.923,13.194,4.4,20.247,8.022,22.872a6.866,6.866,0,0,0,5.468,1.089,5.991,5.991,0,0,0,4.11-3.151c2.643-4.475,3.4-13.77,2.125-26.174-1.068-10.411-3.349-20.868-5.051-25.815A244.85,244.85,0,0,0-3702.509,300.93Z" fill="#12263f"/>
        <path id="Path_134873" data-name="Path 134873" d="M-3692.209,406.155l-.04,0a.5.5,0,0,1-.455-.535c.871-10.7-8.477-81.2-8.571-81.906a.5.5,0,0,1,.427-.558.5.5,0,0,1,.558.427c.386,2.907,9.456,71.316,8.576,82.118A.5.5,0,0,1-3692.209,406.155Z" fill="#12263f"/>
        <path id="Path_134874" data-name="Path 134874" d="M-3716.654,405.658h44.07l-5.278,47.105-33.778.1Z" fill="#5038a1"/>
        <path id="Path_134875" data-name="Path 134875" d="M-3620.812,272.357l-.027,0a1.829,1.829,0,0,0-.032-.185l1.317-.747-2.733-2.063-.66,1.317a1.97,1.97,0,0,0-.708.2c-2.074-1.3-8.449-5.157-11.118-5.082l-1.54,2.807s4.848,2.149,8.091,3.674a9.9,9.9,0,0,0-2.186,4.148,41.818,41.818,0,0,1,5.081-1.013,2.314,2.314,0,0,0,1.84-.967,1.925,1.925,0,0,0,.666.134c.013.151.029.307.059.478.541,3.155,5.229,5.608,5.229,5.608S-3615.581,275.724-3620.812,272.357Z" fill="#5038a1"/>
        <path id="Path_134876" data-name="Path 134876" d="M-3627.987,303.271a.559.559,0,0,1-.152-.02.565.565,0,0,1-.393-.7,113.594,113.594,0,0,0,3.575-22.227.57.57,0,0,1,.589-.54.564.564,0,0,1,.54.589,114.859,114.859,0,0,1-3.616,22.481A.563.563,0,0,1-3627.987,303.271Z" fill="#12263f"/>
        <path id="Path_134877" data-name="Path 134877" d="M-3627.815,288.852a1.3,1.3,0,0,1-1.3,1.3,1.3,1.3,0,0,1-1.3-1.3,1.3,1.3,0,0,1,1.3-1.3A1.3,1.3,0,0,1-3627.815,288.852Z" fill="#5038a1"/>
        <path id="Path_134878" data-name="Path 134878" d="M-3629.65,296.927a1.3,1.3,0,0,1-1.3,1.3,1.3,1.3,0,0,1-1.3-1.3,1.3,1.3,0,0,1,1.3-1.3A1.3,1.3,0,0,1-3629.65,296.927Z" fill="#5038a1"/>
      </g>
      <g id="Group_92298" data-name="Group 92298">
        <path id="Path_134879" data-name="Path 134879" d="M-3001.005,435.874l.014,7.719h10.7l.892-7.324Z" fill="#fff"/>
        <path id="Path_134880" data-name="Path 134880" d="M-2989.856,444.09h-11.631l-.016-8.73,12.657.431Zm-10.639-.993h9.759l.773-6.35-10.544-.359Z" fill="#12263f"/>
        <path id="Path_134881" data-name="Path 134881" d="M-3001.578,443.127s-15.457,4.906-15.99,8.949h27.716v-8.949Z" fill="#c4b3ff"/>
        <path id="Path_134882" data-name="Path 134882" d="M-2968.856,435.74l.292,7.81h10.695l.507-7.978Z" fill="#fff"/>
        <path id="Path_134883" data-name="Path 134883" d="M-2957.4,444.046h-11.64l-.329-8.795,12.539-.184Zm-10.683-.993h9.75l.443-6.977-10.448.153Z" fill="#12263f"/>
        <path id="Path_134884" data-name="Path 134884" d="M-2969.151,443.083s-15.456,4.907-15.99,8.949h27.716v-8.949Z" fill="#c4b3ff"/>
        <path id="Path_134885" data-name="Path 134885" d="M-2986.149,450.5v2.325h29.448v-2.658Z" fill="#12263f"/>
        <path id="Path_134886" data-name="Path 134886" d="M-2988.986,450.387v2.478h-29.448v-2.658Z" fill="#12263f"/>
        <path id="Path_134887" data-name="Path 134887" d="M-2972.4,437.16h17.021l1.452-136.433-49.066,8.473-.308,127.96h16.385l5.784-85.016L-2983.1,333.5Z" fill="#12263f"/>
        <path id="Path_134888" data-name="Path 134888" d="M-2985.674,247.372s23.06-1.72,17.9-7.987a22.3,22.3,0,0,0-11.408-7.579s-19.776-2.784-23.04,7.783C-3004.332,246.414-2985.674,247.372-2985.674,247.372Z" fill="#c4b3ff"/>
        <path id="Path_134889" data-name="Path 134889" d="M-2992.791,228.122s.595,12.156-.435,13.45,5.942,12.231,5.942,12.231l-4.576,19.254,20.1-1.011,2.242-20.424s-8.79-7.861-9.27-9.415c-.665-2.149-.146-13.446-.146-13.446Z" fill="#fff"/>
        <path id="Path_134890" data-name="Path 134890" d="M-2992.5,273.586l4.68-19.694c-.413-.656-1.89-3.022-3.259-5.477-3.391-6.083-2.838-6.778-2.54-7.152.572-.718.616-7.233.328-13.117a.5.5,0,0,1,.472-.52.5.5,0,0,1,.52.472c.142,2.9.521,12.447-.543,13.783-.328.877,2.84,6.74,5.973,11.655l.113.177-4.472,18.815,19.016-.957,2.168-19.749c-1.84-1.651-8.746-7.924-9.224-9.468-.683-2.207-.189-13.151-.167-13.615a.494.494,0,0,1,.518-.474.5.5,0,0,1,.474.519c-.143,3.118-.4,11.582.124,13.277.32,1.036,5.769,6.187,9.127,9.191l.191.17-.028.255-2.288,20.844Z" fill="#12263f"/>
        <path id="Path_134891" data-name="Path 134891" d="M-2960.827,323.516a.605.605,0,0,1-.348-.11l-10.3-7.138a.612.612,0,0,1-.154-.852.612.612,0,0,1,.852-.154l10.3,7.138a.612.612,0,0,1,.155.852A.614.614,0,0,1-2960.827,323.516Z" fill="#fff"/>
        <path id="Path_134892" data-name="Path 134892" d="M-2981.134,352.757a.613.613,0,0,1-.6-.511l-3.935-23.223v-11.2a.612.612,0,0,1,.612-.612.612.612,0,0,1,.613.612v11.1l3.918,23.122a.613.613,0,0,1-.5.706A.6.6,0,0,1-2981.134,352.757Z" fill="#fff"/>
        <path id="Path_134893" data-name="Path 134893" d="M-2960.827,434.772a.613.613,0,0,1-.612-.6l-2.513-113a.611.611,0,0,1,.6-.626.616.616,0,0,1,.625.6l2.514,113a.614.614,0,0,1-.6.626Z" fill="#fff"/>
        <path id="Path_134894" data-name="Path 134894" d="M-2991.452,433.488h-.046a.613.613,0,0,1-.566-.656l7.231-98.962a.617.617,0,0,1,.655-.566.611.611,0,0,1,.566.655l-7.23,98.962A.613.613,0,0,1-2991.452,433.488Z" fill="#fff"/>
        <path id="Path_134895" data-name="Path 134895" d="M-3004.7,342.237a.352.352,0,0,0,.65-.185,65.889,65.889,0,0,0-.813-7.873,26.165,26.165,0,0,1,.462-4.958s4.61,4.411,4.839,3.139-4.314-6.4-4.323-8.235,7.394-44.7,7.394-44.7l-10.26-3.429-2.637,48.115s-1.032,6.994-.63,8.465C-3009.494,334.5-3006.057,340.082-3004.7,342.237Z" fill="#fff"/>
        <path id="Path_134896" data-name="Path 134896" d="M-3004.408,342.9a.842.842,0,0,1-.715-.4h0c-1.437-2.287-4.836-7.818-5.376-9.792-.414-1.512.492-7.819.614-8.646l2.672-48.742,11.282,3.77-.072.421c-2.058,11.91-7.4,43.141-7.388,44.61,0,.8,1.259,2.687,2.267,4.206,1.4,2.112,2.188,3.344,2.049,4.12a.743.743,0,0,1-.5.6c-.84.277-2.782-1.26-4.485-2.825a19.056,19.056,0,0,0-.312,3.881,69.567,69.567,0,0,1,.819,7.952.843.843,0,0,1-.617.811A.871.871,0,0,1-3004.408,342.9Zm.126-.927Zm-2.01-65.3-2.607,47.509c-.409,2.771-.917,7.257-.642,8.262.482,1.762,3.651,6.95,4.985,9.088-.063-2.056-.519-5.465-.8-7.281a25.158,25.158,0,0,1,.464-5.119l.161-.916.672.643a21.611,21.611,0,0,0,3.966,3.159,20.179,20.179,0,0,0-1.859-3.144c-1.248-1.88-2.427-3.657-2.432-4.75-.009-1.78,6.517-39.659,7.329-44.364Z" fill="#12263f"/>
        <path id="Path_134897" data-name="Path 134897" d="M-3011.151,263.446l-1.173,58.458h9.806l.679-6.126,48.5.2-.59-31.269s-2.92-35.926-5.713-37.8c-3.632-2.443-13.755-7.71-17.431-4.657a16.932,16.932,0,0,1-9.339,3.564s-10.446-1.488-11.81-.578C-3005.84,250.323-3009.3,258.907-3011.151,263.446Z" fill="#c4b3ff"/>
        <path id="Path_134898" data-name="Path 134898" d="M-2994.072,240.9s2.539,5.2,7.66,4.915c0,0-4.834,3.55-8.95.372Z" fill="#c4b3ff"/>
        <path id="Path_134899" data-name="Path 134899" d="M-2991.53,248.065a6.688,6.688,0,0,1-4.178-1.43.565.565,0,0,1-.1-.792.565.565,0,0,1,.792-.1,6.438,6.438,0,0,0,6.661.5c-4.1-.846-6.128-4.892-6.224-5.089a.565.565,0,0,1,.26-.755.565.565,0,0,1,.755.259h0c.024.049,2.446,4.859,7.121,4.6l1.9-.106-1.532,1.125A10.388,10.388,0,0,1-2991.53,248.065Z" fill="#12263f"/>
        <path id="Path_134900" data-name="Path 134900" d="M-2978.138,238.238s1.392,5.776-8.274,7.578c0,0,2.13,1.966,9.912,0Z" fill="#c4b3ff"/>
        <path id="Path_134901" data-name="Path 134901" d="M-2982.555,247.26c-3,0-4.081-.882-4.241-1.029l-.827-.764,1.107-.206c3.524-.657,5.912-1.907,7.1-3.715a4.382,4.382,0,0,0,.73-3.179.565.565,0,0,1,.421-.677.564.564,0,0,1,.678.416,5.512,5.512,0,0,1-.865,4.03c-1.13,1.744-3.156,3.025-6.035,3.819,1.382.263,3.825.33,7.851-.687a.566.566,0,0,1,.686.41.564.564,0,0,1-.41.685A25.593,25.593,0,0,1-2982.555,247.26Z" fill="#12263f"/>
        <path id="Path_134902" data-name="Path 134902" d="M-2989.345,259.781a.613.613,0,0,1-.613-.609c0-1.037-.2-3.963-1.025-5.036-1.3-1.688,1.582-6.383,2.5-7.781a.613.613,0,0,1,.848-.178.614.614,0,0,1,.178.848c-1.653,2.528-3.073,5.688-2.553,6.363,1.228,1.593,1.279,5.355,1.28,5.779a.611.611,0,0,1-.61.614Z" fill="#12263f"/>
        <path id="Path_134903" data-name="Path 134903" d="M-2984.705,257.651a.61.61,0,0,1-.5-.253c-1.891-2.613-.32-4.69.436-5.688.105-.139.2-.263.272-.372.073-.558-1.031-2.916-2.44-5.2a.612.612,0,0,1,.2-.842.613.613,0,0,1,.843.2c1.475,2.392,3.1,5.455,2.453,6.467-.089.141-.212.3-.351.488-.752.993-1.781,2.352-.421,4.231a.611.611,0,0,1-.136.855A.61.61,0,0,1-2984.705,257.651Z" fill="#12263f"/>
        <path id="Path_134904" data-name="Path 134904" d="M-2998.926,310.886a1.21,1.21,0,0,1-.992-.551,1.177,1.177,0,0,1-.071-1.179c2.177-4.363.541-11.288-.637-13.283h0a1.187,1.187,0,0,1-.023-1.174,1.192,1.192,0,0,1,.993-.631l25.988-.5a1.186,1.186,0,0,1,1.066.568,1.189,1.189,0,0,1,.026,1.212c-2.05,3.627-.466,11.347.661,13.843a1.2,1.2,0,0,1-.069,1.118,1.205,1.205,0,0,1-.966.572h-25.976Zm-.006-1.2s-.005.019.03.021h25.923c-1.155-2.554-3.016-10.705-.625-14.934h-.011l-.03-.018-25.968.495-.5.325.509-.3c1.447,2.452,3,9.76.677,14.41Z" fill="#12263f"/>
        <path id="Path_134905" data-name="Path 134905" d="M-2962.755,243.663s-4.112,31.818,10.04,56.854v6.5s-15.848-18.026-15.865-49.956c0-3.679,1.884-14.6,1.884-14.6Z" fill="#12263f"/>
        <path id="Path_134906" data-name="Path 134906" d="M-2950.174,277.985l9.744,6.717-19.212-37.793c30.523,11.841,33.324,49.852,30.648,56.466-5.867,14.5-24.415,8.9-24.415,8.9l-.122-8.921s-1-12.641-1.087-16.2c-.073-3.126-.029-10.374-.343-13.52C-2955.307,270.154-2950.174,277.985-2950.174,277.985Z" fill="#12263f"/>
        <path id="Path_134907" data-name="Path 134907" d="M-2931.251,285.02c-.363-.146,4.609,2.308-10.335-.851-9.18-1.94-14.553-3-15.723-3.85-1.644-1.2-4.633-7.581-6.058-8.306-.863-.439.284,5.521.294,5.744l-3.034-.686s-1.072.73-.9,1.608c.151.753,1.171,1.323,1.2,2.024a9.481,9.481,0,0,0-.452,1.765c.023.594,1.071,1.262,1.332,1.745.191.355-.481,1.352-.263,1.9.35.885,1.5.813,1.761,1.436.247.587-.658,1.216-.179,2.223.469.985,6.278-1.517,7.413-1.211,3.979,1.073,12.632,7.57,20.51,6.338S-2931.251,285.02-2931.251,285.02Z" fill="#fff"/>
        <path id="Path_134908" data-name="Path 134908" d="M-2937.722,295.555c-5.051,0-10.189-2.567-14.069-4.505a29.373,29.373,0,0,0-4.533-2,12.547,12.547,0,0,0-2.983.658c-2.747.785-4.32,1.185-4.748.287a2.1,2.1,0,0,1,.051-1.824,1.025,1.025,0,0,0,.118-.419c-.044-.106-.275-.213-.5-.316a2.165,2.165,0,0,1-1.266-1.131,2.162,2.162,0,0,1,.133-1.432,3.212,3.212,0,0,0,.128-.462,4.049,4.049,0,0,0-.435-.467,2.452,2.452,0,0,1-.929-1.452,5.9,5.9,0,0,1,.394-1.67c.019-.06.037-.112.05-.152a2.111,2.111,0,0,0-.456-.668,2.8,2.8,0,0,1-.723-1.22c-.239-1.187,1.047-2.079,1.1-2.117l.179-.121,2.527.571c-.7-4.236-.6-5.155-.138-5.5a.64.64,0,0,1,.677-.044c.793.4,1.741,1.879,3.207,4.26a19.675,19.675,0,0,0,2.919,4.088c.96.7,5.655,1.686,12.762,3.181l2.771.584c6.317,1.336,8.819,1.608,9.807,1.618l0-.01a.489.489,0,0,1-.032-.506l.208-.4.636.253.026.065c.3.209.754.588.553,1.075a.733.733,0,0,1-.129.226c.405,1.536.84,4.289-.4,6.471a6.254,6.254,0,0,1-4.785,2.92A13.74,13.74,0,0,1-2937.722,295.555Zm-18.714-7.511a1.458,1.458,0,0,1,.371.042,29.758,29.758,0,0,1,4.718,2.075c4.3,2.15,10.2,5.1,15.587,4.252a5.313,5.313,0,0,0,4.075-2.43c1.06-1.859.67-4.313.309-5.7-1.234.054-3.984-.288-10.312-1.626l-2.77-.583c-7.745-1.63-12.01-2.528-13.142-3.351-.887-.645-2-2.454-3.181-4.37a28.44,28.44,0,0,0-2.417-3.564,30.4,30.4,0,0,0,.537,4.4c.07.416.081.487.084.548l.028.649-3.438-.777c-.248.218-.6.616-.529.975a2.129,2.129,0,0,0,.5.769,2.286,2.286,0,0,1,.7,1.333,1.2,1.2,0,0,1-.109.445,6.843,6.843,0,0,0-.343,1.32c.006.167.413.566.632.781a3.487,3.487,0,0,1,.64.747,1.534,1.534,0,0,1-.084,1.2,1.981,1.981,0,0,0-.154.761c.11.278.36.41.759.594a1.731,1.731,0,0,1,1,.833,1.484,1.484,0,0,1-.112,1.174,1.175,1.175,0,0,0-.1.961,13.506,13.506,0,0,0,3.607-.749A14.342,14.342,0,0,1-2956.436,288.044Z" fill="#12263f"/>
        <path id="Path_134909" data-name="Path 134909" d="M-2990.644,205.709c-2.5.4-8.592,1.277-8.367,5.834a119.489,119.489,0,0,0,2.143,15.329,2.807,2.807,0,0,0,2.881,2.278l15.5-.765a2.81,2.81,0,0,0,2.65-2.648c.306-4.845.864-15.1.224-16.608C-2977.793,203.991-2986.683,205.083-2990.644,205.709Z" fill="#12263f"/>
        <path id="Path_134910" data-name="Path 134910" d="M-2979.29,231.827c.8-.922.971-4.421.871-8.4a.331.331,0,0,1,.147-.284,4.629,4.629,0,0,0,2.285-4.02c-.121-1.7-1.338-1.286-2.28-.689a.262.262,0,0,1-.4-.216c-.313-4.787-.784-8.974-.784-8.974l-18.646.921s.247,4.27.663,9.052c.018.215,1.366,11.6,1.865,12.615a3.193,3.193,0,0,0,1.409,1.346s1.245.919,8.021.585Z" fill="#fff"/>
        <path id="Path_134911" data-name="Path 134911" d="M-2988.865,234.333c-4.086,0-5.291-.569-5.544-.725a3.67,3.67,0,0,1-1.6-1.555c-.56-1.136-1.905-12.684-1.914-12.792-.411-4.734-.662-9.024-.664-9.067l-.029-.5,19.612-.968.052.463c.005.041.452,4.036.762,8.627a2.056,2.056,0,0,1,1.9-.263,1.707,1.707,0,0,1,.8,1.536,5.1,5.1,0,0,1-2.429,4.417c.159,6.543-.492,8.069-1,8.648a.5.5,0,0,1-.7.048.5.5,0,0,1-.049-.7c.346-.4.9-1.972.75-8.061a.823.823,0,0,1,.368-.709,4.178,4.178,0,0,0,2.065-3.572c-.028-.387-.122-.65-.26-.719-.163-.082-.579-.017-1.259.415a.743.743,0,0,1-.741.035.763.763,0,0,1-.419-.638c-.249-3.807-.6-7.269-.732-8.488l-17.676.873c.078,1.265.3,4.759.632,8.538.076.8,1.393,11.581,1.815,12.439a2.716,2.716,0,0,0,1.2,1.128l.059.037h0s1.4.8,7.7.488a.49.49,0,0,1,.521.472.5.5,0,0,1-.472.521C-2987.15,234.311-2988.063,234.333-2988.865,234.333Z" fill="#12263f"/>
        <path id="Path_134912" data-name="Path 134912" d="M-2960.647,268.078l12.9,12.207-9.168-.6-.943,10.295s16.584,9.448,24.484,7.355,8.075-12.157,5.253-16.784c-2.721-4.461-27.126-31.924-31.525-33.64S-2960.647,268.078-2960.647,268.078Z" fill="#c4b3ff"/>
        <path id="Path_134913" data-name="Path 134913" d="M-2985.368,221.2a.98.98,0,0,1-.974-.884l-.038-.384a.981.981,0,0,1,.879-1.071.977.977,0,0,1,1.071.879l.038.384a.98.98,0,0,1-.879,1.071C-2985.3,221.2-2985.336,221.2-2985.368,221.2Z" fill="#12263f"/>
        <path id="Path_134914" data-name="Path 134914" d="M-2993.387,221.579a.98.98,0,0,1-.977-.922l-.027-.455a.981.981,0,0,1,.92-1.036.976.976,0,0,1,1.036.921l.027.454a.98.98,0,0,1-.92,1.036Z" fill="#12263f"/>
        <path id="Path_134915" data-name="Path 134915" d="M-2982.748,218.185a.75.75,0,0,1-.513-.2c-.792-.737-2.844-.217-3.5.023a.754.754,0,0,1-.966-.448.751.751,0,0,1,.446-.966c.347-.128,3.438-1.207,5.046.289a.752.752,0,0,1,.038,1.064A.752.752,0,0,1-2982.748,218.185Z" fill="#12263f"/>
        <path id="Path_134916" data-name="Path 134916" d="M-2995.263,218.464a.752.752,0,0,1-.649-.371.752.752,0,0,1,.265-1.031,4.84,4.84,0,0,1,4.766-.33.752.752,0,0,1,.423.977.752.752,0,0,1-.977.423,3.386,3.386,0,0,0-3.446.227A.748.748,0,0,1-2995.263,218.464Z" fill="#12263f"/>
        <path id="Path_134917" data-name="Path 134917" d="M-2986.735,226.109c.308.417-1.116,1.944-2.841,1.937-2.814-.013-3.761-1.9-3.077-1.794a8.519,8.519,0,0,0,3,.556C-2987.841,226.781-2986.941,225.829-2986.735,226.109Z" fill="#12263f"/>
        <path id="Path_134918" data-name="Path 134918" d="M-2974.943,209.706c-.585-5.062-5.844-7.637-12.925-7.555s-12.774,4.275-12.716,9.365a3.545,3.545,0,0,0,.055.568c-3.914.513-8.344,1.123-8.772,1.309-.91.393-1.686,2.124,1.615,2.006l3.3-.117,11.991-1.295v0c1.766-.162,3.693-.346,5.65-.369C-2979.665,213.534-2974.591,212.747-2974.943,209.706Z" fill="#c4b3ff"/>
        <path id="Path_134919" data-name="Path 134919" d="M-3007.988,215.97c-1.933,0-2.5-.674-2.635-1.257a1.743,1.743,0,0,1,1.1-1.839c.175-.075.579-.25,8.379-1.279v-.073a8.657,8.657,0,0,1,3.91-7.022,16.177,16.177,0,0,1,9.363-2.914l.344,0c7.659,0,12.564,3,13.149,8.057h0a2.647,2.647,0,0,1-.657,2.135c-1.415,1.607-4.915,2.327-11.7,2.4-1.856.021-3.653.187-5.391.347l-.2.021-12.031,1.3-3.3.118C-3007.777,215.968-3007.885,215.97-3007.988,215.97Zm20.457-13.256c-.11,0-.219,0-.33,0a15.046,15.046,0,0,0-8.708,2.694,7.566,7.566,0,0,0-3.45,6.1,2.928,2.928,0,0,0,.047.477l.1.58-.584.077c-7.235.949-8.447,1.205-8.632,1.271-.271.118-.463.423-.434.549s.417.42,1.814.371l3.281-.117,10.947-1.182-.013-.015,1.259-.118c1.678-.155,3.58-.33,5.48-.352,3.941-.045,9.354-.3,10.866-2.021a1.522,1.522,0,0,0,.383-1.259h0C-2976.017,205.339-2980.5,202.714-2987.531,202.714Z" fill="#12263f"/>
        <path id="Path_134920" data-name="Path 134920" d="M-2990.351,224.928a2.434,2.434,0,0,1-1.125-.295.84.84,0,0,1-1.054-.378,1.1,1.1,0,0,1,.308-1.464.565.565,0,0,1,.792.1.564.564,0,0,1,.061.59.828.828,0,0,1,.327.1,1.163,1.163,0,0,0,1.239.065,1.033,1.033,0,0,1,.345-.116.566.566,0,0,1,0-.473.564.564,0,0,1,.745-.284,1.071,1.071,0,0,1,.621.762,1.181,1.181,0,0,1-.206.971.8.8,0,0,1-.93.174c-.021-.007-.042-.017-.065-.023A2.24,2.24,0,0,1-2990.351,224.928Z" fill="#12263f"/>
        <path id="Path_134921" data-name="Path 134921" d="M-3001.839,316.369h-.008a.591.591,0,0,1-.583-.6l.6-45.157a.585.585,0,0,1,.6-.583.592.592,0,0,1,.583.6l-.6,45.156A.591.591,0,0,1-3001.839,316.369Z" fill="#12263f"/>
        <path id="Path_134922" data-name="Path 134922" d="M-2932.932,282.206a.6.6,0,0,1-.084-.006c-4.859-.7-23.743-1.915-23.933-1.927a.591.591,0,0,1-.551-.628.6.6,0,0,1,.627-.551c.779.05,19.12,1.232,24.024,1.936a.591.591,0,0,1,.5.669A.59.59,0,0,1-2932.932,282.206Z" fill="#12263f"/>
      </g>
      <g id="Group_92299" data-name="Group 92299">
        <path id="Path_134923" data-name="Path 134923" d="M-3391.035,437.248l.013,6.991h9.684l.808-6.632Z" fill="#fff"/>
        <path id="Path_134924" data-name="Path 134924" d="M-3380.915,444.716H-3391.5l-.014-7.962,11.519.393Zm-9.631-.955h8.785l.694-5.695-9.49-.324Z" fill="#12263f"/>
        <path id="Path_134925" data-name="Path 134925" d="M-3391.554,443.816s-14,4.443-14.479,8.1h25.1v-8.1Z" fill="#ffb74d"/>
        <path id="Path_134926" data-name="Path 134926" d="M-3352,437.4l.264,7.071h9.685l.459-7.224Z" fill="#fff"/>
        <path id="Path_134927" data-name="Path 134927" d="M-3341.6,444.95h-10.592l-.3-8.019,11.412-.168Zm-9.673-.955h8.777l.4-6.262-9.4.138Z" fill="#12263f"/>
        <path id="Path_134928" data-name="Path 134928" d="M-3352.264,444.05s-14,4.443-14.479,8.1h25.1v-8.1Z" fill="#ffb74d"/>
        <path id="Path_134929" data-name="Path 134929" d="M-3367.656,450.763v2.1h26.666v-2.407Z" fill="#12263f"/>
        <path id="Path_134930" data-name="Path 134930" d="M-3380.152,450.39v2.244h-26.666v-2.407Z" fill="#12263f"/>
        <path id="Path_134931" data-name="Path 134931" d="M-3353.205,447.131a.416.416,0,0,1-.125-.018l-4.839-1.448a.437.437,0,0,1-.294-.546.436.436,0,0,1,.545-.293l4.839,1.447a.439.439,0,0,1,.294.546A.438.438,0,0,1-3353.205,447.131Z" fill="#12263f"/>
        <path id="Path_134932" data-name="Path 134932" d="M-3355.624,448.579a.457.457,0,0,1-.126-.018l-4.838-1.448a.439.439,0,0,1-.3-.546.437.437,0,0,1,.546-.294l4.838,1.448a.439.439,0,0,1,.295.546A.44.44,0,0,1-3355.624,448.579Z" fill="#12263f"/>
        <path id="Path_134933" data-name="Path 134933" d="M-3358.977,450.027a.426.426,0,0,1-.126-.018l-4.838-1.448a.438.438,0,0,1-.294-.546.436.436,0,0,1,.545-.294l4.838,1.449a.437.437,0,0,1,.3.545A.438.438,0,0,1-3358.977,450.027Z" fill="#12263f"/>
        <path id="Path_134934" data-name="Path 134934" d="M-3391.807,446.4a.43.43,0,0,1-.126-.019l-4.838-1.447a.438.438,0,0,1-.294-.546.436.436,0,0,1,.545-.294l4.838,1.448a.439.439,0,0,1,.295.546A.439.439,0,0,1-3391.807,446.4Z" fill="#12263f"/>
        <path id="Path_134935" data-name="Path 134935" d="M-3394.226,447.853a.424.424,0,0,1-.126-.019l-4.839-1.448a.438.438,0,0,1-.294-.545.437.437,0,0,1,.546-.294l4.838,1.448a.438.438,0,0,1,.3.545A.439.439,0,0,1-3394.226,447.853Z" fill="#12263f"/>
        <path id="Path_134936" data-name="Path 134936" d="M-3397.579,449.3a.428.428,0,0,1-.126-.019l-4.838-1.448a.438.438,0,0,1-.295-.545.437.437,0,0,1,.546-.294l4.839,1.448a.439.439,0,0,1,.294.545A.439.439,0,0,1-3397.579,449.3Z" fill="#12263f"/>
        <path id="Path_134937" data-name="Path 134937" d="M-3355.209,438.687h15.414l1.314-123.542-44.43,7.673-10.574,115.87h14.837l15.533-76.983-1.778-16.88Z" fill="#12263f"/>
        <path id="Path_134938" data-name="Path 134938" d="M-3366,247.184s1.09,11.451.174,12.717-6.2,3.6-6.2,3.6l8.864,26.064,18.931-1.83,1.227-19.378s-8.641-7.039-9.162-8.485c-.721-2-.723-12.688-.723-12.688Z" fill="#fff"/>
        <path id="Path_134939" data-name="Path 134939" d="M-3363.47,290.037l-9.108-26.776.37-.163c1.44-.636,5.33-2.5,6.024-3.455.513-.708.272-6.87-.256-12.417a.441.441,0,0,1,.4-.48.44.44,0,0,1,.48.4c.185,1.939,1.058,11.683.093,13.017-.844,1.166-4.723,2.993-6.014,3.579l8.623,25.354,18.21-1.76,1.189-18.778c-1.79-1.463-8.6-7.1-9.122-8.533-.739-2.05-.75-12.4-.75-12.838a.44.44,0,0,1,.441-.44.442.442,0,0,1,.441.44c0,2.952.127,10.957.7,12.539.349.969,5.721,5.6,9.026,8.292l.175.143-1.265,19.98Z" fill="#12263f"/>
        <path id="Path_134940" data-name="Path 134940" d="M-3373.748,262.479c-5.722,2.088-4.34,32.645-4.34,32.645-.933,3.593-3.134,27.8-3.134,27.8l40.1,3.024,4.729-24.013s2.96-40.428-12.752-42.8c-1.508-.228-6.115,1.779-11.04,1.3-2.135-.207-3.224,2.489-4.286-1.251C-3364.468,259.194-3372.5,262.025-3373.748,262.479Z" fill="#fff"/>
        <path id="Path_134941" data-name="Path 134941" d="M-3344.727,335.7a.477.477,0,0,1-.271-.085l-9.331-6.464a.477.477,0,0,1-.121-.664.477.477,0,0,1,.664-.121l9.331,6.464a.477.477,0,0,1,.121.664A.478.478,0,0,1-3344.727,335.7Z" fill="#a1c5e2"/>
        <path id="Path_134942" data-name="Path 134942" d="M-3385.008,351.308a24.431,24.431,0,0,1,.431-4.627s4.3,4.116,4.516,2.93-4.026-5.973-4.035-7.686,6.9-41.713,6.9-41.713l-6.355.6-5.681,41.1s-.963,6.528-.588,7.9c.477,1.745,3.371,6.041,4.638,7.871a.312.312,0,0,0,.568-.188C-3384.659,355.89-3384.774,352.826-3385.008,351.308Z" fill="#fff"/>
        <path id="Path_134943" data-name="Path 134943" d="M-3384.929,358.645a1.127,1.127,0,0,1-.93-.49c-1.565-2.259-4.263-6.317-4.756-8.123-.4-1.465.4-7.12.567-8.238l5.77-41.743,8.08-.762-.183,1.063c-2.761,15.982-6.874,40.241-6.889,41.57,0,.634,1.238,2.495,2.055,3.726,1.4,2.107,2.121,3.247,1.966,4.109a1.058,1.058,0,0,1-.713.839c-.313.1-1.09.354-4.036-2.257a14.09,14.09,0,0,0-.2,2.843h0c.239,1.548.356,4.606.4,6.291a1.132,1.132,0,0,1-.782,1.115A1.15,1.15,0,0,1-3384.929,358.645Zm2.107-57.073-5.592,40.455c-.39,2.647-.836,6.739-.609,7.569a31.139,31.139,0,0,0,3.524,6.156c-.064-1.532-.167-3.3-.325-4.318a23.66,23.66,0,0,1,.434-4.9l.268-1.521,1.116,1.067a32.1,32.1,0,0,0,2.5,2.159c-.338-.558-.753-1.183-1.084-1.682-1.405-2.116-2.326-3.582-2.331-4.632-.009-1.631,5.484-33.573,6.729-40.794Zm1.943,47.952Z" fill="#12263f"/>
        <path id="Path_134944" data-name="Path 134944" d="M-3368.241,259.864c-2.622,0-13.984,6.436-13.984,6.436-2.247,2.349-10.146,73.143-10.068,74.023,0,0,8.743,2.207,8.743.809,0-.216.243-2.669.243-2.669l13.114,1Z" fill="#c4b3ff"/>
        <path id="Path_134945" data-name="Path 134945" d="M-3384.915,342.145a38.2,38.2,0,0,1-7.517-1.275l-.389-.1-.035-.4c-.051-.584,7.638-71.76,10.223-74.462l.057-.06.072-.041c1.177-.667,11.569-6.51,14.263-6.51h.579l-1.981,80.776-13.156-1.007c-.1.984-.184,1.934-.186,2.067a.863.863,0,0,1-.348.69A2.786,2.786,0,0,1-3384.915,342.145Zm-6.784-2.257c3.2.779,6.8,1.362,7.592,1.082.037-.529.188-2.055.238-2.563l.054-.549,13.072,1,1.921-78.35c-2.7.606-10.073,4.56-13.026,6.228-.437.712-1.84,5.916-5.714,37.13C-3389.676,320.9-3391.449,337.043-3391.7,339.888Z" fill="#12263f"/>
        <path id="Path_134946" data-name="Path 134946" d="M-3350.122,258.381l-5.968,30.1c-.039,3.312-2.133,33.228-3.256,51.656l20.614,1.619.251-9.759V321.728s15.257-49.789,10.98-51.514C-3327.971,270.024-3344.781,258.381-3350.122,258.381Z" fill="#c4b3ff"/>
        <path id="Path_134947" data-name="Path 134947" d="M-3362.958,225.352c-2.366.288-8.123.916-8.058,5.155a109.8,109.8,0,0,0,1.522,14.308,2.634,2.634,0,0,0,2.637,2.208l14.6-.224a2.633,2.633,0,0,0,2.578-2.377c.444-4.49,1.3-14,.746-15.421C-3350.814,224.159-3359.212,224.9-3362.958,225.352Z" fill="#12263f"/>
        <path id="Path_134948" data-name="Path 134948" d="M-3353.337,249.975c.775-.831,1.042-4.077,1.075-7.775a.307.307,0,0,1,.146-.259,4.308,4.308,0,0,0,2.25-3.662c-.06-1.588-1.2-1.238-2.1-.712a.244.244,0,0,1-.363-.214c-.14-4.457-.445-8.362-.445-8.362l-17.35.266s.094,3.975.329,8.43c.011.2.9,10.823,1.334,11.779a2.963,2.963,0,0,0,1.266,1.294s1.127.894,7.433.8Z" fill="#fff"/>
        <path id="Path_134949" data-name="Path 134949" d="M-3360.679,252.007c-5.135,0-6.5-.7-6.751-.873a3.386,3.386,0,0,1-1.431-1.486c-.489-1.082-1.368-11.837-1.373-11.937-.232-4.411-.329-8.4-.33-8.443l-.01-.446,18.212-.28.033.415c0,.038.293,3.781.435,8.067a1.907,1.907,0,0,1,1.782-.2,1.564,1.564,0,0,1,.688,1.435,4.72,4.72,0,0,1-2.4,4.015c-.059,6.086-.709,7.481-1.194,8a.443.443,0,0,1-.625.022.443.443,0,0,1-.022-.626c.336-.359.906-1.809.957-7.477a.746.746,0,0,1,.355-.632,3.9,3.9,0,0,0,2.04-3.269c-.013-.368-.1-.62-.228-.693-.153-.083-.55-.037-1.2.346a.67.67,0,0,1-.671.009.689.689,0,0,1-.358-.59c-.112-3.564-.332-6.807-.413-7.927l-16.486.253c.032,1.161.131,4.431.317,7.971.046.75.924,10.8,1.3,11.62a2.531,2.531,0,0,0,1.087,1.094l.051.036h0s1.276.792,7.152.7a.439.439,0,0,1,.449.435.443.443,0,0,1-.436.45C-3360.074,252-3360.383,252.007-3360.679,252.007Z" fill="#12263f"/>
        <path id="Path_134950" data-name="Path 134950" d="M-3359.894,239.486a.753.753,0,0,1-.749-.7l-.024-.358a.752.752,0,0,1,.7-.8.755.755,0,0,1,.8.7l.024.358a.752.752,0,0,1-.7.8Z" fill="#12263f"/>
        <path id="Path_134951" data-name="Path 134951" d="M-3367.016,239.989a.752.752,0,0,1-.751-.733l-.011-.423a.752.752,0,0,1,.733-.77.752.752,0,0,1,.77.732l.011.423a.752.752,0,0,1-.732.771Z" fill="#12263f"/>
        <path id="Path_134952" data-name="Path 134952" d="M-3356.692,236.24a.607.607,0,0,1-.3-.082,3.783,3.783,0,0,0-4.28-.051.6.6,0,0,1-.844-.093.6.6,0,0,1,.086-.841,4.946,4.946,0,0,1,5.645-.054.6.6,0,0,1,.216.823A.6.6,0,0,1-3356.692,236.24Z" fill="#12263f"/>
        <path id="Path_134953" data-name="Path 134953" d="M-3364.124,243.121a.551.551,0,0,1-.1-.009c-.393-.078-1.686-.4-1.853-1.232a8.807,8.807,0,0,1,.6-2.754,19.932,19.932,0,0,0,.721-2.976c-.158-.1-.812-.235-3.511.366a.507.507,0,0,1-.6-.385.507.507,0,0,1,.384-.6c2.474-.55,3.676-.612,4.29-.221a.945.945,0,0,1,.43.605c.1.476-.157,1.479-.736,3.5a20.654,20.654,0,0,0-.58,2.272,2.428,2.428,0,0,0,1.053.44.507.507,0,0,1,.4.6A.506.506,0,0,1-3364.124,243.121Z" fill="#12263f"/>
        <path id="Path_134954" data-name="Path 134954" d="M-3343.911,330.534a.576.576,0,0,1-.186-.031l-12.442-4.356a.565.565,0,0,1-.346-.72.565.565,0,0,1,.72-.346l12.441,4.355a.565.565,0,0,1,.346.72A.563.563,0,0,1-3343.911,330.534Z" fill="#12263f"/>
        <path id="Path_134955" data-name="Path 134955" d="M-3383.55,329.326a.567.567,0,0,1-.529-.364.566.566,0,0,1,.329-.729l10.387-3.933a.565.565,0,0,1,.729.328.564.564,0,0,1-.328.728l-10.388,3.934A.563.563,0,0,1-3383.55,329.326Z" fill="#12263f"/>
        <path id="Path_134956" data-name="Path 134956" d="M-3353.445,304.653a1.374,1.374,0,0,0,1.375,1.375,1.374,1.374,0,0,0,1.374-1.375,1.374,1.374,0,0,0-1.374-1.374A1.374,1.374,0,0,0-3353.445,304.653Z" fill="#12263f"/>
        <path id="Path_134957" data-name="Path 134957" d="M-3353.72,312.1a1.367,1.367,0,0,0,1.367,1.367,1.367,1.367,0,0,0,1.366-1.367,1.367,1.367,0,0,0-1.366-1.366A1.367,1.367,0,0,0-3353.72,312.1Z" fill="#12263f"/>
        <path id="Path_134958" data-name="Path 134958" d="M-3370.8,260.573l3.242-3.435,7.374,3.307-2.78,3.391Z" fill="#fff"/>
        <path id="Path_134959" data-name="Path 134959" d="M-3360.182,260.445s-5.207,55-5.162,63.678Z" fill="#e2474b"/>
        <path id="Path_134960" data-name="Path 134960" d="M-3366.359,231.1c-2.239-.1-6.473-.9-6.088-5.313s1.264-2.83,1.264-2.83.929.973,1.279,1.009-.368.291.77-3.382c0,0,3.311-.661,4.76,1.41s2.464.9,2.993-.153c.449-.894,1.856.247,2.134,1.152.524,1.014,5.609.433,7.121,1.176,2.4,1.177,3.223,1.677,3.2,4.832-.005.607-.9,6.523-.9,6.523l-1.985-6.181S-3362.7,231.258-3366.359,231.1Z" fill="#12263f"/>
        <path id="Path_134961" data-name="Path 134961" d="M-3372.686,303.843h-2.476a.565.565,0,0,1-.565-.564.565.565,0,0,1,.565-.565h2.476a.565.565,0,0,1,.565.565A.565.565,0,0,1-3372.686,303.843Z" fill="#12263f"/>
        <path id="Path_134962" data-name="Path 134962" d="M-3371.925,312.664h-2.475a.565.565,0,0,1-.565-.565.565.565,0,0,1,.565-.565h2.475a.565.565,0,0,1,.565.565A.565.565,0,0,1-3371.925,312.664Z" fill="#12263f"/>
        <path id="Path_134963" data-name="Path 134963" d="M-3363.115,362.268a.565.565,0,0,1-.557-.475l-2.877-17.817.64-16.545a.563.563,0,0,1,.587-.542.564.564,0,0,1,.542.586l-.636,16.431,2.859,17.707a.566.566,0,0,1-.467.648A.567.567,0,0,1-3363.115,362.268Z" fill="#a1c5e2"/>
        <path id="Path_134964" data-name="Path 134964" d="M-3326.561,356.877h-2.259v-2.921a1.675,1.675,0,0,0-1.673-1.673h-4.777a1.675,1.675,0,0,0-1.672,1.673v2.921h-2.26v-2.921a3.937,3.937,0,0,1,3.932-3.932h4.777a3.936,3.936,0,0,1,3.932,3.932Z" fill="#ffb74d"/>
        <path id="Path_134965" data-name="Path 134965" d="M-3337.057,318.891c.839,8.573,2.958,26.42,2.209,27.208-1.055,1.108-6.04,3.772-6.721,4.763-.413.6,3.5.139,3.662.154l-.233,1.322s.439.872,1.111.827c.576-.038,1.1-.742,1.627-.693a7.017,7.017,0,0,0,1.271.512c.445.042,1.047-.674,1.433-.82.284-.108.961.492,1.4.384.694-.173.754-1.038,1.244-1.171.463-.126.842.61,1.64.353.781-.252-.511-4.831-.17-5.647,1.193-2.862.7-53.182-1.825-48.8-.793,1.379-7.691-1.385-8.51.4C-3338.924,297.688-3337.3,316.421-3337.057,318.891Z" fill="#fff"/>
        <path id="Path_134966" data-name="Path 134966" d="M-3337.083,353.852a2.113,2.113,0,0,1-1.669-1.206l-.1-.2.119-.676c-2.6.2-3.158.06-3.444-.432a.8.8,0,0,1,.045-.862,16.146,16.146,0,0,1,3.681-2.694,28.01,28.01,0,0,0,3.031-2.076c.333-1.5-.839-12.61-1.619-20-.264-2.5-.512-4.852-.7-6.745h0c-.239-2.445-1.851-21.022-1.867-21.209l-.016-.181.075-.164c.65-1.418,2.929-1.066,5.342-.692,1.064.164,2.835.439,3.214.2a.951.951,0,0,1,1.266-.495c.516.255,1.889.933,2.345,24.514.171,8.88.166,23.63-.577,25.412a12.172,12.172,0,0,0,.216,2.124c.32,2.161.531,3.589-.467,3.912a1.872,1.872,0,0,1-1.6-.244l-.073-.041c-.033.047-.068.1-.1.147a1.913,1.913,0,0,1-1.157.968,1.9,1.9,0,0,1-1.264-.261c-.048-.024-.109-.053-.163-.077-.074.053-.165.124-.234.178a2.068,2.068,0,0,1-1.4.614,4.376,4.376,0,0,1-1.314-.489l-.007,0c-.085.042-.233.138-.338.206a2.394,2.394,0,0,1-1.131.469C-3337.017,353.851-3337.05,353.852-3337.083,353.852Zm-.336-1.654c.114.153.267.291.345.283a1.623,1.623,0,0,0,.474-.25,1.974,1.974,0,0,1,1.262-.441,1.155,1.155,0,0,1,.428.154,6.024,6.024,0,0,0,.808.349,3.169,3.169,0,0,0,.459-.321,2.844,2.844,0,0,1,.7-.449,1.413,1.413,0,0,1,1.129.19,2.558,2.558,0,0,0,.376.158c.087-.04.165-.152.3-.359a1.59,1.59,0,0,1,.9-.8,1.4,1.4,0,0,1,1.1.229,1.607,1.607,0,0,0,.29.141,16.462,16.462,0,0,0-.248-2.414,6.642,6.642,0,0,1-.125-2.852c.425-1.018.721-10.967.484-24.155-.246-13.74-.915-21.509-1.5-23.6-.817.518-2.335.283-4.173,0-1.018-.157-3.3-.512-3.8-.181.2,2.255,1.621,18.659,1.845,20.94h0c.184,1.887.433,4.241.7,6.734,1.835,17.388,1.938,20.37,1.326,21.013a22.929,22.929,0,0,1-3.368,2.366c-.753.477-1.671,1.059-2.352,1.539.411-.016.958-.051,1.682-.113a3.213,3.213,0,0,1,.543-.03l.745.065Z" fill="#12263f"/>
        <rect id="Rectangle_32213" data-name="Rectangle 32213" width="41.499" height="31.194" transform="translate(-3353.631 356.877)" fill="#ffb74d"/>
        <path id="Path_134967" data-name="Path 134967" d="M-3332.881,373.181l-19.991-15.028a.565.565,0,0,1-.113-.791.566.566,0,0,1,.791-.112l19.313,14.517,19.111-14.365a.565.565,0,0,1,.791.112.566.566,0,0,1-.112.791Z" fill="#12263f"/>
        <path id="Path_134968" data-name="Path 134968" d="M-3332.881,376.169h0a1.778,1.778,0,0,1-1.779-1.779v-2.669a1.779,1.779,0,0,1,1.779-1.779h0a1.78,1.78,0,0,1,1.779,1.779v2.669A1.779,1.779,0,0,1-3332.881,376.169Z" fill="#12263f"/>
        <path id="Path_134969" data-name="Path 134969" d="M-3341.62,299.753l2.2,44.227h15.5l-3.5-74.3Z" fill="#c4b3ff"/>
        <path id="Path_134970" data-name="Path 134970" d="M-3323.33,344.544h-16.629l-2.226-44.763a.566.566,0,0,1,.536-.592.572.572,0,0,1,.593.536l2.172,43.69h14.37l-3.457-73.391-21.052-11.574a.567.567,0,0,1-.223-.768.565.565,0,0,1,.768-.222l21.606,11.879.015.316Z" fill="#12263f"/>
        <path id="Path_134971" data-name="Path 134971" d="M-3360.182,339.808l4.091-51.33,5.969-30.1Z" fill="#c4b3ff"/>
        <path id="Path_134972" data-name="Path 134972" d="M-3360.181,340.372h-.045a.564.564,0,0,1-.518-.608l4.093-51.363,5.975-30.129a.565.565,0,0,1,.664-.444.565.565,0,0,1,.444.664l-5.962,30.064-4.089,51.3A.564.564,0,0,1-3360.181,340.372Z" fill="#12263f"/>
        <path id="Path_134973" data-name="Path 134973" d="M-3345.921,260.16l-4.648-3.623-9.613,3.908,3.083,3.678Z" fill="#fff"/>
        <path id="Path_134974" data-name="Path 134974" d="M-3344.761,260.348l-5.718-4.457-9.692,3.94-7.519-3.373-4.08,4.322,8.979,3.739,1.874-2.286c-.919,9.785-5.033,54.079-4.992,61.893a.564.564,0,0,0,.565.562h0a.566.566,0,0,0,.562-.568c-.041-7.8,4.238-53.8,5.033-62.276l2.466,2.942Zm-18.371,2.805-6.694-2.787,2.406-2.548,6.333,2.84Zm12.473-5.97,3.578,2.789-9.837,3.487-2.333-2.783Z" fill="#12263f"/>
        <path id="Path_134975" data-name="Path 134975" d="M-3370.193,340.031h-.043l-15.881-1.215,4.333-42.3a.566.566,0,0,1,.62-.5.565.565,0,0,1,.5.62l-4.215,41.151,14.725,1.126a.565.565,0,0,1,.52.606A.564.564,0,0,1-3370.193,340.031Z" fill="#12263f"/>
        <path id="Path_134976" data-name="Path 134976" d="M-3360.737,244.393c.277.4-1.091,1.786-2.7,1.735-2.626-.084-3.462-1.873-2.826-1.753a7.959,7.959,0,0,0,2.781.6C-3361.787,244.992-3360.922,244.127-3360.737,244.393Z" fill="#12263f"/>
        <path id="Path_134977" data-name="Path 134977" d="M-3349.631,386.238a.566.566,0,0,1-.565-.553l-.465-22.452a.563.563,0,0,1,.552-.576.553.553,0,0,1,.577.553l.466,22.451a.566.566,0,0,1-.553.577Z" fill="#fff"/>
      </g>
      <g id="Group_92300" data-name="Group 92300">
        <path id="Path_134978" data-name="Path 134978" d="M-3503.976,269.622s-3.053-20.361,3.2-25.509c4.849-3.989,13.379-5.745,19.767,1.948s5.341,25.3,5.341,25.3l-3.661-.225-.251-1.135-.859,1.067-20.008-1.227-.93-1.3-.256,1.227Z" fill="#12263f"/>
        <path id="Path_134979" data-name="Path 134979" d="M-3523.715,432.692l-1.773,15.073,8-.711,2.715-14.362Z" fill="#fff8e3"/>
        <path id="Path_134980" data-name="Path 134980" d="M-3526.131,448.389l1.914-16.262h10.126l-2.921,15.452Zm2.918-15.132-1.633,13.884,6.882-.611,2.51-13.273Z" fill="#12263f"/>
        <path id="Path_134981" data-name="Path 134981" d="M-3484.562,434.134l.21,13.579,7.421-.659,1.061-13.741Z" fill="#fff8e3"/>
        <path id="Path_134982" data-name="Path 134982" d="M-3484.908,448.33l-.227-14.709,9.88-.933-1.15,14.887Zm.919-13.683.192,12.45,6.339-.563.973-12.6Z" fill="#12263f"/>
        <path id="Path_134983" data-name="Path 134983" d="M-3497.966,336.365l6.5,10.164,5.806,91.13h11.36s5.351-83.576,4.265-95.061-11.175-21.418-11.175-21.418l-.5-4.577-23.649-1.058-19.884,120.608,11.272.724,22.535-89.3Z" fill="#ffdc72"/>
        <path id="Path_134984" data-name="Path 134984" d="M-3473.775,438.224h-12.42l-5.55-87.121-21.8,86.368-12.364-.794,20.067-121.718,24.634,1.1.529,4.862c1.3,1.314,10.162,10.68,11.2,21.622,1.078,11.4-4.044,91.737-4.263,95.151Zm-11.36-1.13h10.3c.453-7.146,5.257-83.609,4.232-94.443-1.054-11.141-10.909-20.97-11.008-21.069l-.144-.141-.467-4.3-22.664-1.014-19.7,119.5,10.181.654,22.419-88.84.009,0-.047-.735-6.417-10.041.952-.608,6.574,10.286.009.146Z" fill="#12263f"/>
        <path id="Path_134985" data-name="Path 134985" d="M-3487.017,259.884s-.928,11.512-.511,12.136c1.424,2.136,13.123,10.024,14.131,10.339s-24.247.472-24.247.472l-8.323-4.5,3.389-2.822a18.97,18.97,0,0,0,4.063-2.474c1.259-1.2,2.313-12.907,2.313-12.907Z" fill="#fff8e3"/>
        <path id="Path_134986" data-name="Path 134986" d="M-3497.786,283.4l-9.184-4.962,4.089-3.4.069-.031a18.461,18.461,0,0,0,3.907-2.369c.683-.651,1.642-7.021,2.14-12.549l.045-.5,10.317-.277-.051.627c-.356,4.42-.763,10.94-.571,11.825,1.46,2.041,12.8,9.719,13.8,10.065a.578.578,0,0,1,.417.641c-.1.652-.1.664-12.707.821-6,.075-12.064.113-12.125.114Zm-7.178-5.162,7.461,4.031c7.5-.047,18.116-.161,22.256-.309-3.619-2.257-11.574-7.856-12.751-9.623-.339-.508-.216-4.5.368-11.867l-8.056.216c-.3,3.257-1.2,11.582-2.439,12.765a18.733,18.733,0,0,1-4.149,2.547Z" fill="#12263f"/>
        <path id="Path_134987" data-name="Path 134987" d="M-3487.235,261.762c1.39-.845,3.84-2.569,3.974-4.341s-1.9-1.645-2.527-1.389c-.419.17.354-8.69.354-8.69l-13.7-1.281s-2.339,7.55-2.042,12.47c.3,4.941,2.5,6.3,6.077,6.606a8.375,8.375,0,0,0,4.3-.7Z" fill="#fff8e3"/>
        <path id="Path_134988" data-name="Path 134988" d="M-3494.267,265.738q-.437,0-.884-.038c-4.4-.373-6.311-2.44-6.594-7.135-.3-4.966,1.969-12.359,2.066-12.671l.136-.438,14.721,1.376-.049.559c-.277,3.174-.5,6.675-.477,7.958a2.737,2.737,0,0,1,1.939.392,1.825,1.825,0,0,1,.712,1.723c-.145,1.907-2.388,3.652-4.245,4.781a.565.565,0,0,1-.776-.19.566.566,0,0,1,.189-.776c2.271-1.38,3.622-2.8,3.705-3.9.035-.46-.126-.634-.251-.725a1.919,1.919,0,0,0-1.5-.1l-.293.119-.284-.192c-.292-.215-.594-.438.107-8.63l-12.685-1.186c-.483,1.671-2.134,7.74-1.888,11.831.283,4.692,2.338,5.8,5.562,6.077a7.9,7.9,0,0,0,4.02-.648.563.563,0,0,1,.749.277.564.564,0,0,1-.276.749A8.776,8.776,0,0,1-3494.267,265.738Z" fill="#12263f"/>
        <path id="Path_134989" data-name="Path 134989" d="M-3549.473,311.322c3.2-.275,17.511-.512,17.511-.512v-6.449s-16.689,3.3-17.821,2.978a16.81,16.81,0,0,0-8.019-.1c-3.226.806-7.637,2.89-7.587,3.793.027.487,7.251-1.135,8.98-.751C-3553,311.042-3551.755,311.518-3549.473,311.322Z" fill="#fff8e3"/>
        <path id="Path_134990" data-name="Path 134990" d="M-3550.465,311.932a17.789,17.789,0,0,1-4.27-.682c-.531-.125-1.121-.264-1.8-.414a25.672,25.672,0,0,0-5.318.48c-2.915.429-3.518.487-3.875.2a.624.624,0,0,1-.228-.445c-.091-1.641,5.7-3.793,8.014-4.373a17.5,17.5,0,0,1,8.312.1c.975.159,11.287-1.748,17.556-2.989l.674-.133v7.692l-.555.009c-.143,0-14.327.24-17.473.51h0C-3549.794,311.917-3550.137,311.932-3550.465,311.932Zm.992-.61h0Zm-15.363-.229Zm7.686-1.433a4.076,4.076,0,0,1,.863.074c.681.151,1.276.291,1.81.417a13.922,13.922,0,0,0,4.956.609h0c2.863-.246,14.292-.458,17-.505v-5.206c-4.57.9-16.3,3.155-17.413,2.833a16.26,16.26,0,0,0-7.726-.092,24.525,24.525,0,0,0-6.5,2.706c.627-.074,1.436-.193,2.147-.3A39.616,39.616,0,0,1-3557.15,309.66Z" fill="#12263f"/>
        <path id="Path_134991" data-name="Path 134991" d="M-3473.861,281.314c3.227-.383,10.854,10.241,15.356,17.69,5.984,9.9-13.775,16.99-13.612,17.308l2.222-11.467-7.125-8.328-3.222,20.917-25.884-.582-3.3-16.788s-2.494,11.044-8.326,11.044l-17.323.005v-7.856l13.361-2.233s6.544-18.495,12.685-23.412c2.9-2.321,4.529-3.005,5.69-3.183C-3499.845,273.89-3499.227,284.325-3473.861,281.314Z" fill="#8c6df2"/>
        <path id="Path_134992" data-name="Path 134992" d="M-3525.415,444.951s-11.154-2.015-11.464,2.848,0,4.553,0,4.553h19.452l.383-5.868S-3524.363,448.125-3525.415,444.951Z" fill="#fff8e3"/>
        <path id="Path_134993" data-name="Path 134993" d="M-3536.751,453.057l-.39-.166c-.4-.179-.636-.287-.327-5.129a3.212,3.212,0,0,1,1.286-2.412c3.02-2.364,10.552-1.037,10.872-.979l.345.062.11.333c.724,2.184,5.791,1.565,7.682,1.142l.768-.172-.469,7.205h-19.761Zm.335-1.3h18.437l.3-4.552c-1.983.347-6.879.908-8.153-1.73-1.431-.221-7.326-1-9.619.8a2.055,2.055,0,0,0-.836,1.558A38.422,38.422,0,0,0-3536.416,451.762Z" fill="#12263f"/>
        <path id="Path_134994" data-name="Path 134994" d="M-3484.742,444.137s-11.271-1.862-11.581,3.343,0,4.872,0,4.872h19.453l.3-6.114S-3483.69,447.533-3484.742,444.137Z" fill="#fff8e3"/>
        <path id="Path_134995" data-name="Path 134995" d="M-3496.175,453.057l-.4-.161c-.417-.179-.647-.278-.339-5.451a3.549,3.549,0,0,1,1.387-2.653c3.113-2.485,10.563-1.288,10.879-1.236l.359.059.108.348c.736,2.376,5.663,2.029,7.5,1.694l.731-.133-.36,7.417h-19.759Zm.318-1.3h18.425l.235-4.837c-1.868.233-6.721.543-7.974-2.254-1.45-.2-7.25-.848-9.619,1.044a2.373,2.373,0,0,0-.944,1.8C-3495.89,450.128-3495.884,451.27-3495.857,451.762Z" fill="#12263f"/>
        <path id="Path_134996" data-name="Path 134996" d="M-3497.42,255.545a.561.561,0,0,1-.241-.055,1.6,1.6,0,0,0-1.006-.087.567.567,0,0,1-.7-.383.563.563,0,0,1,.376-.7,2.7,2.7,0,0,1,1.811.147.566.566,0,0,1,.27.752A.566.566,0,0,1-3497.42,255.545Z" fill="#12263f"/>
        <path id="Path_134997" data-name="Path 134997" d="M-3491.278,256.142a.556.556,0,0,1-.281-.076,1.978,1.978,0,0,0-1.234-.241.565.565,0,0,1-.687-.408.566.566,0,0,1,.408-.687,3.069,3.069,0,0,1,2.077.358.564.564,0,0,1,.207.771A.563.563,0,0,1-3491.278,256.142Z" fill="#12263f"/>
        <path id="Path_134998" data-name="Path 134998" d="M-3489.835,253.986a.557.557,0,0,1-.179-.029,13.307,13.307,0,0,0-3.069-.739.567.567,0,0,1-.538-.59.562.562,0,0,1,.587-.539,13.909,13.909,0,0,1,3.377.8.566.566,0,0,1,.358.715A.566.566,0,0,1-3489.835,253.986Z" fill="#12263f"/>
        <path id="Path_134999" data-name="Path 134999" d="M-3498.35,259.884c-.224.248.968.871,1.914.872,2.378,0,1.768-.493,1.171-.521C-3495.915,260.2-3498.35,259.884-3498.35,259.884Z" fill="#12263f"/>
        <rect id="Rectangle_32214" data-name="Rectangle 32214" width="20.212" height="1.121" transform="translate(-3496.755 451.387)" fill="#12263f"/>
        <rect id="Rectangle_32215" data-name="Rectangle 32215" width="20.21" height="1.121" transform="translate(-3537.254 451.633)" fill="#12263f"/>
        <path id="Path_135000" data-name="Path 135000" d="M-3475.671,332.371a.561.561,0,0,1-.348-.12l-9.866-7.729a.565.565,0,0,1-.1-.793.566.566,0,0,1,.793-.1l9.865,7.729a.564.564,0,0,1,.1.792A.563.563,0,0,1-3475.671,332.371Z" fill="#12263f"/>
        <path id="Path_135001" data-name="Path 135001" d="M-3492.2,345.955a.564.564,0,0,1-.477-.261l-5.86-9.17.4-18.224a.567.567,0,0,1,.577-.552.564.564,0,0,1,.552.577l-.392,17.881,5.675,8.88a.565.565,0,0,1-.172.78A.562.562,0,0,1-3492.2,345.955Z" fill="#12263f"/>
        <path id="Path_135002" data-name="Path 135002" d="M-3505.967,327.505a.565.565,0,0,1-.391-.157.564.564,0,0,1-.017-.8l2.231-2.329a.565.565,0,0,1,.8-.017.566.566,0,0,1,.017.8l-2.231,2.328A.562.562,0,0,1-3505.967,327.505Z" fill="#12263f"/>
        <path id="Path_135003" data-name="Path 135003" d="M-3495.673,258.625a.521.521,0,0,1-.111-.011c-2.08-.414-2.161-.947-2.2-1.175a1.224,1.224,0,0,1,.427-.979,7.144,7.144,0,0,0,1.243-2.043,3.925,3.925,0,0,0,.422-1.463h-.064c-.881.024-2.96.1-2.96.1l-.043-1.129s2.088-.081,2.973-.1a1.123,1.123,0,0,1,1.029.444c.335.491.241,1.264-.316,2.586a8.279,8.279,0,0,1-1.42,2.333l-.005.006a7.85,7.85,0,0,0,1.13.312.566.566,0,0,1,.444.665A.565.565,0,0,1-3495.673,258.625Z" fill="#12263f"/>
        <path id="Path_135004" data-name="Path 135004" d="M-3483.437,246.71l-.881,6.328-5.531-1.124-.169-1.291-.829,1.077-7.127-.641-.586-1.185-.557.749h-1.656l1.656-6.509Z" fill="#12263f"/>
        <rect id="Rectangle_32216" data-name="Rectangle 32216" width="56.842" height="90.023" rx="16.193" transform="translate(-3517.377 354.818)" fill="#fff8e3"/>
        <path id="Path_135005" data-name="Path 135005" d="M-3477.279,357.439h-22.926V331.573a11.31,11.31,0,0,1,11.3-11.3h.332a11.31,11.31,0,0,1,11.3,11.3Zm-21.8-1.13h20.667V331.573a10.179,10.179,0,0,0-10.167-10.167h-.332a10.179,10.179,0,0,0-10.168,10.167Z" fill="#12263f"/>
        <path id="Path_135006" data-name="Path 135006" d="M-3496.812,448.447a3.991,3.991,0,0,1-3.991,3.991,3.991,3.991,0,0,1-3.992-3.991,3.991,3.991,0,0,1,3.992-3.991A3.991,3.991,0,0,1-3496.812,448.447Z" fill="#12263f"/>
        <path id="Path_135007" data-name="Path 135007" d="M-3474.927,448.447a3.991,3.991,0,0,1-3.991,3.991,3.991,3.991,0,0,1-3.991-3.991,3.99,3.99,0,0,1,3.991-3.991A3.991,3.991,0,0,1-3474.927,448.447Z" fill="#12263f"/>
        <path id="Path_135008" data-name="Path 135008" d="M-3475.92,308.006c-.2.109-1.447.811-8.311,6.328-4.216,3.389-6.65,5.4-7.456,5.612-1.134.3-5.075-.7-5.918-.328-.512.225,2.567,1.888,2.67,1.965l-1.413,1.1s-.066.745.391.986c.39.208,1.017-.039,1.339.2a5.51,5.51,0,0,0,.623.845c.274.207.954-.017,1.265.043.228.045.428.709.754.813.523.167.91-.372,1.284-.262.352.1.3.738.927.891.61.15,1.614-3.355,2.165-3.75,1.931-1.385,18.26-7.109,20.586-11.075S-3475.92,308.006-3475.92,308.006Z" fill="#fff8e3"/>
        <path id="Path_135009" data-name="Path 135009" d="M-3489.7,326.781a.8.8,0,0,1-.2-.025,1.467,1.467,0,0,1-.973-.825l-.013-.023c-.031.013-.062.029-.088.041a1.5,1.5,0,0,1-1.174.168,1.474,1.474,0,0,1-.739-.7c-.019-.028-.041-.063-.063-.1-.064.005-.141.014-.2.02a1.629,1.629,0,0,1-1.185-.17,3.334,3.334,0,0,1-.664-.85c-.064,0-.189,0-.278,0a1.861,1.861,0,0,1-.945-.155,1.621,1.621,0,0,1-.689-1.535l.021-.244.948-.741c-2.078-1.216-2.307-1.568-2.285-1.993a.649.649,0,0,1,.394-.558,7.678,7.678,0,0,1,3.222.1,11.668,11.668,0,0,0,2.78.2c.6-.159,2.856-1.971,5.972-4.48l1.274-1.025c6.269-5.039,7.957-6.142,8.392-6.382l.114-.063.13-.007c.827-.043,8.12-.356,9.551,2a2.059,2.059,0,0,1-.129,2.23c-1.717,2.928-9.94,6.457-15.943,9.034a45.7,45.7,0,0,0-4.8,2.214,9.713,9.713,0,0,0-.7,1.455C-3488.588,325.8-3489.012,326.781-3489.7,326.781Zm-1.094-2.044a.939.939,0,0,1,.266.038,1.118,1.118,0,0,1,.648.611,1.791,1.791,0,0,0,.1.161,13.99,13.99,0,0,0,.777-1.622A5.1,5.1,0,0,1-3487.93,322a41.464,41.464,0,0,1,5.014-2.334c5.193-2.229,13.885-5.96,15.414-8.568.348-.593.246-.895.139-1.071-.8-1.323-5.514-1.6-8.391-1.462-.5.3-2.282,1.514-8.123,6.21l-1.273,1.024c-3.952,3.183-5.588,4.482-6.394,4.694a10.8,10.8,0,0,1-3.218-.169c-.447-.06-1.005-.135-1.5-.182.325.205.764.469,1.355.808.174.1.286.167.306.182l.59.443-1.768,1.381a.382.382,0,0,0,.081.219,1.334,1.334,0,0,0,.391.024,1.553,1.553,0,0,1,1.025.229.9.9,0,0,1,.226.282,5.031,5.031,0,0,0,.373.538,3.175,3.175,0,0,0,.405-.026,2.23,2.23,0,0,1,.651-.009,1.112,1.112,0,0,1,.684.6,2.3,2.3,0,0,0,.167.237.729.729,0,0,0,.3-.112A1.516,1.516,0,0,1-3490.8,324.737Zm-.953.329Zm-1.96-.825Z" fill="#12263f"/>
        <path id="Path_135010" data-name="Path 135010" d="M-3469.9,301.7l-13.869,11.3,5.542,5.769s12.155-4.192,13-7.37c.925-3.477-4.854-4.848-4.854-4.848Z" fill="#8c6df2"/>
        <rect id="Rectangle_32217" data-name="Rectangle 32217" width="32.851" height="18.129" rx="1.842" transform="translate(-3505.167 369.939)" fill="#12263f"/>
        <path id="Path_135011" data-name="Path 135011" d="M-3480.315,394.324h-18.7a.565.565,0,0,1-.565-.565.565.565,0,0,1,.565-.565h18.7a.565.565,0,0,1,.565.565A.565.565,0,0,1-3480.315,394.324Z" fill="#12263f"/>
      </g>
      <g id="Group_92301" data-name="Group 92301">
        <path id="Path_135012" data-name="Path 135012" d="M-3220.515,436.183l.013,7.284h10.091l.842-6.911Z" fill="#fff"/>
        <path id="Path_135013" data-name="Path 135013" d="M-3209.868,444.08h-11.245l-.016-8.53,12.249.417Zm-10.022-1.225h8.937l.7-5.709-9.644-.329Z" fill="#12263f"/>
        <path id="Path_135014" data-name="Path 135014" d="M-3220.958,442.6s-14.68,4.629-15.186,8.444h26.322V442.6Z" fill="#ffb74d"/>
        <path id="Path_135015" data-name="Path 135015" d="M-3195.807,436.779l.275,7.369h10.092l.478-7.527Z" fill="#fff"/>
        <path id="Path_135016" data-name="Path 135016" d="M-3184.865,444.761h-11.257l-.321-8.585,12.134-.178Zm-10.077-1.226h8.927l.4-6.293-9.557.14Z" fill="#12263f"/>
        <path id="Path_135017" data-name="Path 135017" d="M-3195.94,443.468s-14.726,4.761-15.234,8.684h26.405v-8.684Z" fill="#ffb74d"/>
        <path id="Path_135018" data-name="Path 135018" d="M-3209.7,450.39v2.193h27.787v-2.508Z" fill="#12263f"/>
        <path id="Path_135019" data-name="Path 135019" d="M-3209.174,450.319V452.5h-27.787V450.16Z" fill="#12263f"/>
        <path id="Path_135020" data-name="Path 135020" d="M-3197.937,437.439h17.28L-3174.6,308.7l-46.3,8-2.166,120.742h15.461l7.333-80.22-1.852-17.59Z" fill="#12263f"/>
        <path id="Path_135021" data-name="Path 135021" d="M-3203.97,240.818s1.089,11.432.174,12.7-6.522,3.893-6.522,3.893l9.179,25.725,18.9-1.827,1.226-19.348s-8.627-7.028-9.148-8.471c-.72-2-.722-12.668-.722-12.668Z" fill="#fff"/>
        <path id="Path_135022" data-name="Path 135022" d="M-3201.507,283.712l-9.487-26.586.446-.209c2.119-.994,5.707-2.882,6.313-3.72.493-.738.248-6.848-.274-12.328a.542.542,0,0,1,.488-.591.542.542,0,0,1,.591.488c.26,2.73,1.033,11.739.073,13.066-.842,1.165-4.864,3.17-6.286,3.854l8.873,24.866,18.021-1.742,1.179-18.61c-1.852-1.514-8.579-7.086-9.1-8.531-.731-2.027-.754-11.749-.754-12.851a.542.542,0,0,1,.542-.542.542.542,0,0,1,.542.541c0,2.942.126,10.92.69,12.485.294.815,4.8,4.827,8.98,8.235l.217.176-1.273,20.087Z" fill="#12263f"/>
        <path id="Path_135023" data-name="Path 135023" d="M-3181.112,330.24a.605.605,0,0,1-.348-.11l-9.724-6.735a.612.612,0,0,1-.154-.852.611.611,0,0,1,.852-.155l9.723,6.736a.613.613,0,0,1,.155.852A.614.614,0,0,1-3181.112,330.24Z" fill="#a1c5e2"/>
        <path id="Path_135024" data-name="Path 135024" d="M-3200.557,218.209c-2.364.281-8.113.889-8.062,5.122a109.46,109.46,0,0,0,1.474,14.29,2.628,2.628,0,0,0,2.626,2.213l14.579-.177a2.629,2.629,0,0,0,2.582-2.365c.458-4.482,1.342-13.971.794-15.394C-3188.429,217.058-3196.816,217.765-3200.557,218.209Z" fill="#12263f"/>
        <path id="Path_135025" data-name="Path 135025" d="M-3191.031,242.825c.778-.828,1.054-4.067,1.1-7.759a.309.309,0,0,1,.146-.259,4.3,4.3,0,0,0,2.258-3.649c-.054-1.586-1.2-1.239-2.091-.718a.243.243,0,0,1-.362-.214c-.125-4.45-.417-8.35-.417-8.35l-17.324.21s.082,3.969.3,8.418c.01.2.866,10.808,1.294,11.764a2.962,2.962,0,0,0,1.26,1.3s1.123.9,7.419.819Z" fill="#fff"/>
        <path id="Path_135026" data-name="Path 135026" d="M-3198.2,244.933c-5.241,0-6.656-.7-6.965-.912a3.472,3.472,0,0,1-1.459-1.531c-.485-1.083-1.336-11.858-1.341-11.959-.217-4.406-.3-8.394-.3-8.434l-.011-.549,18.384-.222.038.509c0,.038.274,3.687.4,7.9a1.9,1.9,0,0,1,1.733-.12,1.655,1.655,0,0,1,.734,1.522,4.793,4.793,0,0,1-2.405,4.061c-.083,6.064-.749,7.469-1.244,8a.545.545,0,0,1-.77.025.544.544,0,0,1-.024-.769c.262-.28.88-1.56.951-7.394a.843.843,0,0,1,.407-.716,3.8,3.8,0,0,0,2-3.167c-.013-.383-.1-.566-.174-.606-.1-.054-.441-.044-1.1.34a.77.77,0,0,1-.77.008.8.8,0,0,1-.41-.676c-.1-3.461-.3-6.617-.38-7.816l-16.26.2c.031,1.241.118,4.42.288,7.854.046.762.883,10.71,1.248,11.57a2.439,2.439,0,0,0,1.039,1.049l.063.043c.027.016,1.267.773,7.074.7a.528.528,0,0,1,.55.538.543.543,0,0,1-.537.55Q-3197.833,244.933-3198.2,244.933Zm8.306-14.963Z" fill="#12263f"/>
        <path id="Path_135027" data-name="Path 135027" d="M-3192.941,219.163s8.061-2.1,5.766,8.692c-1.312,6.172,1.526-1.8-5.475-6.233C-3193.377,221.162-3192.941,219.163-3192.941,219.163Z" fill="#12263f"/>
        <path id="Path_135028" data-name="Path 135028" d="M-3200.9,362.463a.613.613,0,0,1-.608-.542l-3.085-26.567v-10.52a.613.613,0,0,1,.613-.613.612.612,0,0,1,.612.613v10.484l3.077,26.462a.613.613,0,0,1-.538.679A.579.579,0,0,1-3200.9,362.463Z" fill="#a1c5e2"/>
        <path id="Path_135029" data-name="Path 135029" d="M-3238.089,324.067c.847-1.159,6.6-4.5,6.6-4.5l9.5-21.2.628-17.869,8.033,3.033s11.487,19.482,3.126,24.1c-9.774,5.4-17.336,15.409-18.062,15.993-1.346,1.084-2.457,7.441-3.528,8.019s-.528-5.407-.528-5.407a24.691,24.691,0,0,0-3.923,2.57,62.342,62.342,0,0,1-5.31,5.212.337.337,0,0,1-.524-.377C-3241.28,331.365-3239.2,325.581-3238.089,324.067Z" fill="#fff"/>
        <path id="Path_135030" data-name="Path 135030" d="M-3241.758,334.914a1.154,1.154,0,0,1-.674-.218,1.155,1.155,0,0,1-.423-1.331c1.05-2.995,2.977-8.249,4.1-9.785h0c.847-1.159,5.263-3.8,6.625-4.6l9.322-20.812.663-18.858,9.381,3.543.148.25c.327.555,7.983,13.666,5.941,21.149a6.406,6.406,0,0,1-3.127,4.1c-7.96,4.4-14.437,11.913-16.875,14.741a11.874,11.874,0,0,1-1.068,1.173c-.5.4-1.193,2.55-1.651,3.97-.783,2.427-1.227,3.713-2,4.132a1.059,1.059,0,0,1-1.1-.035c-.277-.182-.964-.635-.754-4.612a14.3,14.3,0,0,0-2.379,1.643,65.96,65.96,0,0,1-5.407,5.3A1.155,1.155,0,0,1-3241.758,334.914Zm4.336-10.361a43.91,43.91,0,0,0-3.242,7.581c1.338-1.261,2.9-2.9,3.815-3.891a23.852,23.852,0,0,1,4.135-2.735l1.357-.739-.14,1.539a31.949,31.949,0,0,0-.129,3.372c.231-.627.469-1.366.659-1.953.786-2.438,1.363-4.086,2.186-4.749.091-.081.461-.51.853-.966,2.491-2.889,9.109-10.564,17.327-15.106a4.746,4.746,0,0,0,2.332-3.086c1.718-6.288-4.586-17.793-5.626-19.628l-6.681-2.523-.593,16.881-.066.147-9.6,21.445-.23.133c-2.328,1.354-5.838,3.576-6.352,4.278Zm5.191,6.392Z" fill="#12263f"/>
        <path id="Path_135031" data-name="Path 135031" d="M-3176.914,326.439c.089-1.21-7.607-36.658-7.581-40.618.022-3.429,5.439-7.834,7.624-3.577,2.388,4.653,3.443,41.7,4.275,43.267a28.636,28.636,0,0,1,1.389,5.883c-.526,2.453-4.819,4.129-6.2,3.43C-3178.1,334.474-3177.007,327.708-3176.914,326.439Z" fill="#fff"/>
        <path id="Path_135032" data-name="Path 135032" d="M-3176.583,335.572a2.427,2.427,0,0,1-1.092-.223c-.686-.347-.779-1.4-.017-7.331.09-.708.169-1.321.191-1.61-.016-.626-1.222-6.589-2.5-12.9-2.272-11.23-5.1-25.207-5.083-27.69a6.793,6.793,0,0,1,4.785-5.807,3.367,3.367,0,0,1,3.95,1.965c1.556,3.033,2.5,18.28,3.262,30.531.368,5.937.749,12.076,1.018,12.746.256.482,1.626,5.379,1.436,6.265-.393,1.833-2.334,2.938-3.151,3.328A7.013,7.013,0,0,1-3176.583,335.572Zm-.429-1.223a4.707,4.707,0,0,0,2.723-.564,4.252,4.252,0,0,0,2.507-2.514,32.478,32.478,0,0,0-1.333-5.486c-.337-.634-.581-4.125-1.144-13.206-.673-10.852-1.691-27.253-3.135-30.067a2.191,2.191,0,0,0-2.631-1.358,5.656,5.656,0,0,0-3.882,4.671c-.016,2.362,2.918,16.862,5.059,27.449,1.859,9.187,2.557,12.705,2.521,13.208h0c-.023.314-.1.92-.2,1.686A36.915,36.915,0,0,0-3177.012,334.349Z" fill="#12263f"/>
        <path id="Path_135033" data-name="Path 135033" d="M-3221.993,268.835l4.21,16.721c-.531,3.505-5.284,40.69-5.284,40.69l43.524-.686-2.521-40.836,10.868-3.109,4.475,5.613c.854-2.024-3.693-22.345-6.087-24.432-3.114-2.714-11.9-8.931-14.763-9.34-.7-.1-11.82,7.7-11.82,7.7s-6.948-7.645-8.331-6.954C-3215.453,258.07-3219.731,264.8-3221.993,268.835Z" fill="#8c6df2"/>
        <path id="Path_135034" data-name="Path 135034" d="M-3188.089,223.319c-2.931,3.385-15.856,6.714-21.991-4.567s11.268-2.393,16.974-.8C-3190.663,218.637-3185.58,220.421-3188.089,223.319Z" fill="#12263f"/>
        <path id="Path_135035" data-name="Path 135035" d="M-3219.228,264.421c-4.911,4.054-6.651,21.135-6.651,21.135l9.439-.329,6.122-11.336S-3216.845,262.452-3219.228,264.421Z" fill="#8c6df2"/>
        <path id="Path_135036" data-name="Path 135036" d="M-3182.529,285.507l-2.957-14.412a.612.612,0,0,1,.476-.723.612.612,0,0,1,.724.477l2.687,13.093,13.647-4.176a.614.614,0,0,1,.765.407.613.613,0,0,1-.407.765Z" fill="#12263f"/>
        <path id="Path_135037" data-name="Path 135037" d="M-3196.457,233.281a.754.754,0,0,1-.749-.678l-.036-.362a.753.753,0,0,1,.675-.824.749.749,0,0,1,.824.675l.036.361a.753.753,0,0,1-.674.825Z" fill="#12263f"/>
        <path id="Path_135038" data-name="Path 135038" d="M-3204.01,233.636a.754.754,0,0,1-.751-.709l-.025-.427a.753.753,0,0,1,.707-.8.755.755,0,0,1,.8.707l.026.428a.753.753,0,0,1-.707.8A.353.353,0,0,1-3204.01,233.636Z" fill="#12263f"/>
        <path id="Path_135039" data-name="Path 135039" d="M-3193.99,230.684a.779.779,0,0,1-.534-.21c-.8-.743-2.185.006-2.2.014a.785.785,0,0,1-1.064-.3.782.782,0,0,1,.3-1.064c.1-.054,2.393-1.318,4.032.207a.783.783,0,0,1,.04,1.107A.781.781,0,0,1-3193.99,230.684Z" fill="#12263f"/>
        <path id="Path_135040" data-name="Path 135040" d="M-3200.864,237.023a.652.652,0,0,1-.107-.009c-.666-.109-1.817-.411-2.041-1.214-.173-.622-.1-.841.5-2.537.128-.36.282-.795.467-1.325a4.829,4.829,0,0,0,.257-1.554,5.713,5.713,0,0,0-3.659.348.66.66,0,0,1-.9-.234.659.659,0,0,1,.233-.9,6.748,6.748,0,0,1,4.793-.443,1.193,1.193,0,0,1,.782.745,5.162,5.162,0,0,1-.25,2.462c-.191.548-.345.984-.473,1.346-.477,1.343-.529,1.514-.5,1.675a2.966,2.966,0,0,0,1,.331.662.662,0,0,1,.544.759A.661.661,0,0,1-3200.864,237.023Z" fill="#12263f"/>
        <path id="Path_135041" data-name="Path 135041" d="M-3197.745,238.072c.29.393-1.051,1.832-2.675,1.824-2.651-.011-3.543-1.792-2.9-1.689a8.016,8.016,0,0,0,2.82.524C-3198.787,238.705-3197.939,237.809-3197.745,238.072Z" fill="#12263f"/>
        <path id="Path_135042" data-name="Path 135042" d="M-3188.47,433.482h0a.613.613,0,0,1-.608-.617l.7-106.623a.615.615,0,0,1,.617-.609.613.613,0,0,1,.608.617l-.7,106.623A.613.613,0,0,1-3188.47,433.482Z" fill="#a1c5e2"/>
        <path id="Path_135043" data-name="Path 135043" d="M-3211.826,433.721a.481.481,0,0,1-.054,0,.613.613,0,0,1-.557-.664l8.209-93.3a.61.61,0,0,1,.664-.556.611.611,0,0,1,.556.663l-8.208,93.3A.614.614,0,0,1-3211.826,433.721Z" fill="#a1c5e2"/>
        <path id="Path_135044" data-name="Path 135044" d="M-3233.344,348.793l.63,95.9-29.2-2.746c-8.029-.755-14.48-8.56-14.523-17.571l-.284-60.005c-.042-8.792,6.043-15.63,13.865-15.581Z" fill="#ffdc72"/>
        <path id="Path_135045" data-name="Path 135045" d="M-3232.145,445.316l-29.818-2.8c-8.386-.788-14.99-8.752-15.035-18.13l-.283-60a17.018,17.018,0,0,1,4.725-12.12,13.552,13.552,0,0,1,9.621-4.03h30.152Zm-30.786-95.959a12.425,12.425,0,0,0-8.826,3.7,15.885,15.885,0,0,0-4.4,11.315l.284,60c.041,8.658,6.326,16.289,14.011,17.012l28.575,2.687-.623-94.718h-29.026Z" fill="#12263f"/>
        <path id="Path_135046" data-name="Path 135046" d="M-3245.141,449.669a4.3,4.3,0,0,0,5.253,3.051,4.3,4.3,0,0,0,3.051-5.253,4.3,4.3,0,0,0-5.253-3.051A4.3,4.3,0,0,0-3245.141,449.669Z" fill="#12263f"/>
        <path id="Path_135047" data-name="Path 135047" d="M-3233.344,350.045a.565.565,0,0,1-.565-.565V326.854a.565.565,0,0,1,.565-.565.565.565,0,0,1,.565.565V349.48A.565.565,0,0,1-3233.344,350.045Z" fill="#12263f"/>
      </g>
      <g id="Group_92302" data-name="Group 92302">
        <path id="Path_135048" data-name="Path 135048" d="M-3133.337,273.761c-3.514,10.574-17.756,15.359-31.812,10.688s-22.6-17.029-19.087-27.6,17.756-15.359,31.812-10.688S-3129.823,263.188-3133.337,273.761Z" fill="#c4b3ff"/>
        <path id="Path_135049" data-name="Path 135049" d="M-3154.373,286.8a34.829,34.829,0,0,1-10.954-1.811c-14.329-4.761-23.052-17.465-19.446-28.317,1.757-5.287,6.129-9.342,12.31-11.418a32.187,32.187,0,0,1,20.217.372c14.329,4.762,23.052,17.465,19.445,28.317C-3135.476,281.99-3144.2,286.8-3154.373,286.8Zm-8.872-41.869a27.821,27.821,0,0,0-8.859,1.394c-5.836,1.961-9.954,5.762-11.6,10.7-3.41,10.262,4.992,22.324,18.729,26.889a33.766,33.766,0,0,0,10.624,1.758c9.687,0,17.955-4.508,20.474-12.088,3.41-10.261-4.992-22.323-18.729-26.889A33.878,33.878,0,0,0-3163.245,244.927Z" fill="#12263f"/>
        <path id="Path_135050" data-name="Path 135050" d="M-3162.668,253.01a13.535,13.535,0,0,0-10,5.028c-4.073,5.113-3.771,6.063-2.756,9.773s1.713,5.939-1.1,7.536-2.981,3.326-3.5,4.663,1.6,4.606.947,6.217c-2.361,5.817-1.479,9.319-1.479,9.319l35.458,4.2s4.845-6.784,3.418-13.235c-.429-1.943-4.752-4.656-5.065-6.931-.214-1.554,1.9-5.578.884-7.424-1.849-3.369-3.545-3.354-2.94-7.03C-3148.474,263.16-3149.937,251.9-3162.668,253.01Z" fill="#12263f"/>
        <path id="Path_135051" data-name="Path 135051" d="M-3166.549,357.4l4.089,90.709,7.811-.694,5.155-90.015Z" fill="#fff"/>
        <path id="Path_135052" data-name="Path 135052" d="M-3163,448.72l-4.142-91.889h18.243l-5.216,91.1Zm-2.96-90.759,4.036,89.529,6.737-.6,5.093-88.93Z" fill="#12263f"/>
        <path id="Path_135053" data-name="Path 135053" d="M-3157.828,273.143s-.783,12.494-.377,13.1c1.391,2.086,12.69,8.532,13.674,8.839s-23.673.461-23.673.461l-8.126-4.39,3.309-2.755a18.508,18.508,0,0,0,3.967-2.416c1.229-1.172,2.258-12.6,2.258-12.6Z" fill="#fff"/>
        <path id="Path_135054" data-name="Path 135054" d="M-3168.345,296.111l-8.987-4.855,4.008-3.338.07-.032a18.059,18.059,0,0,0,3.811-2.31c.663-.633,1.6-6.848,2.084-12.243l.046-.5,10.087-.27-.039.617c-.351,5.611-.619,11.936-.435,12.8,1.433,1.975,12.434,8.281,13.338,8.564l.462.144-.043.5c-.1.647-.1.66-12.42.813-5.854.073-11.779.11-11.837.111Zm-6.982-5.055,7.264,3.924c7.2-.045,17.324-.153,21.508-.294-3.549-1.933-10.9-6.3-12.12-8.127-.124-.186-.5-.749.245-12.834l-7.849.21c-.3,3.19-1.172,11.3-2.385,12.459a18.328,18.328,0,0,1-4.053,2.489Z" fill="#12263f"/>
        <path id="Path_135055" data-name="Path 135055" d="M-3158.042,274.976c1.358-.825,3.749-2.508,3.881-4.238s-1.853-1.606-2.467-1.356c-.41.166.345-8.484.345-8.484l-13.381-1.251s-2.283,7.371-1.993,12.175c.29,4.823,2.444,6.154,5.933,6.449a8.179,8.179,0,0,0,4.2-.681Z" fill="#fff"/>
        <path id="Path_135056" data-name="Path 135056" d="M-3164.907,278.871q-.426,0-.864-.037c-4.3-.364-6.173-2.386-6.45-6.978-.292-4.85,1.923-12.071,2.018-12.376l.136-.438,14.4,1.346-.049.559c-.269,3.086-.489,6.49-.466,7.753a2.679,2.679,0,0,1,1.888.387,1.793,1.793,0,0,1,.7,1.693c-.141,1.869-2.335,3.576-4.15,4.679a.566.566,0,0,1-.777-.189.565.565,0,0,1,.19-.776c2.214-1.346,3.53-2.73,3.61-3.8.034-.443-.12-.609-.239-.7a1.855,1.855,0,0,0-1.452-.1l-.293.119-.283-.192c-.288-.212-.585-.431.1-8.424l-12.36-1.155c-.475,1.644-2.079,7.551-1.84,11.535.276,4.572,2.278,5.655,5.418,5.92a7.694,7.694,0,0,0,3.918-.631.564.564,0,0,1,.749.276.565.565,0,0,1-.276.75A8.569,8.569,0,0,1-3164.907,278.871Z" fill="#12263f"/>
        <path id="Path_135057" data-name="Path 135057" d="M-3171.2,259.272s12.224,4.209,14.375,10.209a3.4,3.4,0,0,1,1.318-.244,1.627,1.627,0,0,1,.941.331l-.374-9.958Z" fill="#12263f"/>
        <path id="Path_135058" data-name="Path 135058" d="M-3162.137,444.477s-10.89-2.092-11.193,2.956,0,4.726,0,4.726h18.992l.373-6.092S-3161.11,447.77-3162.137,444.477Z" fill="#f9e5ef"/>
        <path id="Path_135059" data-name="Path 135059" d="M-3173.19,452.834l-.381-.154c-.4-.174-.624-.269-.323-5.281a3.356,3.356,0,0,1,1.344-2.545c3.012-2.341,10.214-.991,10.519-.932l.332.064.1.322c.714,2.289,5.657,1.649,7.5,1.21l.742-.177-.453,7.382h-19.279Zm.3-1.24h18.016l.3-4.826c-1.884.34-6.752.928-7.976-1.79-1.378-.226-7.014-1.015-9.308.768a2.242,2.242,0,0,0-.908,1.72A40.769,40.769,0,0,0-3172.886,451.594Z" fill="#12263f"/>
        <path id="Path_135060" data-name="Path 135060" d="M-3184.83,357.4l-1.851,90.709,7.811-.694,10.931-90.015Z" fill="#fff"/>
        <path id="Path_135061" data-name="Path 135061" d="M-3187.259,448.723l1.875-91.892h18.083l-11.063,91.1Zm2.982-90.762-1.826,89.525,6.727-.6,10.8-88.928Z" fill="#12263f"/>
        <path id="Path_135062" data-name="Path 135062" d="M-3186.925,445.094s-10.89-1.968-11.193,2.78,0,4.445,0,4.445h18.992l.373-5.729S-3185.9,448.192-3186.925,445.094Z" fill="#f9e5ef"/>
        <path id="Path_135063" data-name="Path 135063" d="M-3198,452.995l-.374-.159c-.383-.173-.614-.278-.313-5a3.125,3.125,0,0,1,1.252-2.346c2.945-2.306,10.293-1.01,10.6-.954l.33.06.106.318c.71,2.144,5.663,1.536,7.512,1.122l.737-.165-.457,7.011h-19.287Zm.319-1.241h18.021l.29-4.468c-1.925.34-6.724.9-7.964-1.686-1.389-.214-7.161-.976-9.4.782a2.016,2.016,0,0,0-.821,1.528A36.923,36.923,0,0,0-3197.676,451.754Z" fill="#12263f"/>
        <path id="Path_135064" data-name="Path 135064" d="M-3168.968,269a.717.717,0,0,1-.129-.011.753.753,0,0,1-.614-.87l.075-.433a.751.751,0,0,1,.87-.615.753.753,0,0,1,.614.87l-.075.434A.752.752,0,0,1-3168.968,269Z" fill="#12263f"/>
        <path id="Path_135065" data-name="Path 135065" d="M-3162.71,269.8a.827.827,0,0,1-.129-.011.754.754,0,0,1-.614-.87l.075-.434a.75.75,0,0,1,.87-.614.752.752,0,0,1,.614.87l-.075.433A.752.752,0,0,1-3162.71,269.8Z" fill="#12263f"/>
        <path id="Path_135066" data-name="Path 135066" d="M-3160.581,267.4a.56.56,0,0,1-.3-.088,3.774,3.774,0,0,0-2.517-.467.568.568,0,0,1-.667-.438.565.565,0,0,1,.435-.668,4.876,4.876,0,0,1,3.356.62.565.565,0,0,1,.173.78A.564.564,0,0,1-3160.581,267.4Z" fill="#12263f"/>
        <path id="Path_135067" data-name="Path 135067" d="M-3168.859,272.771c-.218.242.911,1.222,1.835,1.222,2.321,0,3.039-1.648,2.517-1.388a5.549,5.549,0,0,1-2.517.538C-3168.5,273.035-3168.61,272.5-3168.859,272.771Z" fill="#12263f"/>
        <rect id="Rectangle_32218" data-name="Rectangle 32218" width="19.731" height="1.094" transform="translate(-3173.947 451.379)" fill="#12263f"/>
        <rect id="Rectangle_32219" data-name="Rectangle 32219" width="19.731" height="1.094" transform="translate(-3198.368 451.379)" fill="#12263f"/>
        <path id="Path_135068" data-name="Path 135068" d="M-3166.615,271.927a.522.522,0,0,1-.111-.011c-2.04-.406-2.118-.914-2.155-1.159a1.2,1.2,0,0,1,.421-.966,6.975,6.975,0,0,0,1.211-1.992,3.51,3.51,0,0,0,.4-1.342c-.038-.019-.1-.042-.147-.061l-.123-.049a7.3,7.3,0,0,0-2.4-.106.565.565,0,0,1-.613-.512.566.566,0,0,1,.511-.614,8.389,8.389,0,0,1,2.939.189l.1.039a1.219,1.219,0,0,1,.774.648c.2.469.088,1.1-.4,2.247a8.061,8.061,0,0,1-1.381,2.272,7.59,7.59,0,0,0,1.083.3.566.566,0,0,1,.444.665A.566.566,0,0,1-3166.615,271.927Z" fill="#12263f"/>
        <path id="Path_135069" data-name="Path 135069" d="M-3129.027,364.184l22.1,82.486,27.516-8.975a14.854,14.854,0,0,0,9.535-18.331l-15.108-51.408a14.6,14.6,0,0,0-17.4-10.187Z" fill="#ffb74d"/>
        <path id="Path_135070" data-name="Path 135070" d="M-3107.321,447.391l-.155-.576-22.246-83.045,27.208-6.55a15.174,15.174,0,0,1,18.07,10.576l15.107,51.409a15.508,15.508,0,0,1-9.9,19.027Zm-21.01-82.793,21.792,81.349,26.95-8.789a14.369,14.369,0,0,0,9.168-17.634l-15.108-51.409a14.046,14.046,0,0,0-16.72-9.8Z" fill="#12263f"/>
        <circle id="Ellipse_4099" data-name="Ellipse 4099" cx="4.296" cy="4.296" r="4.296" transform="translate(-3102.867 451.843) rotate(-80.783)" fill="#12263f"/>
        <path id="Path_135071" data-name="Path 135071" d="M-3135.15,349.822c-.125-1.207-13.916-34.757-14.585-38.661-.579-3.379,3.982-8.666,6.879-4.858,3.167,4.163,10.7,40.451,11.794,41.848a28.686,28.686,0,0,1,2.4,5.548c-.088,2.508-4.021,4.91-5.506,4.465C-3134.913,357.941-3135.02,351.087-3135.15,349.822Z" fill="#fff"/>
        <path id="Path_135072" data-name="Path 135072" d="M-3133.76,358.8a2.012,2.012,0,0,1-.578-.078c-.737-.222-1.012-1.246-1.3-7.214-.035-.713-.065-1.331-.094-1.619-.125-.613-2.358-6.273-4.722-12.264-4.206-10.658-9.439-23.922-9.858-26.37a6.792,6.792,0,0,1,3.693-6.555,3.365,3.365,0,0,1,4.233,1.242c2.064,2.713,5.668,17.557,8.563,29.485,1.4,5.781,2.854,11.759,3.237,12.372.337.428,2.544,5.008,2.512,5.916-.065,1.873-1.782,3.3-2.517,3.828A6.172,6.172,0,0,1-3133.76,358.8Zm-.1-1.179a4.675,4.675,0,0,0,2.582-1.033,4.25,4.25,0,0,0,2.028-2.914,32.593,32.593,0,0,0-2.275-5.167c-.443-.565-1.3-3.96-3.442-12.8-2.565-10.566-6.441-26.533-8.356-29.05a2.191,2.191,0,0,0-2.829-.876,5.655,5.655,0,0,0-3,5.279c.4,2.328,5.828,16.089,9.792,26.136,3.441,8.719,4.745,12.062,4.8,12.563.033.314.062.923.1,1.7A37,37,0,0,0-3133.86,357.626Z" fill="#12263f"/>
        <path id="Path_135073" data-name="Path 135073" d="M-3187.886,345.092c.519-1.1,6.135-36.932,7.588-40.617,1.259-3.189,7.9-5.343,8.4-.584.548,5.2-11.839,40.132-11.628,41.894.069.58-4.825,11.889-5.181,12.432-1.376,2.1-2.535-4.293-2.13-6.839C-3190.713,350.611-3188.431,346.242-3187.886,345.092Z" fill="#fff"/>
        <path id="Path_135074" data-name="Path 135074" d="M-3189.254,359.22a.985.985,0,0,1-.356-.066c-1.572-.608-2.1-6.018-1.8-7.868a32.792,32.792,0,0,1,2.3-5.038c.3-.6.551-1.1.692-1.4.211-.589,1.238-6.586,2.325-12.934,1.935-11.294,4.342-25.348,5.254-27.659a6.793,6.793,0,0,1,6.558-3.688,3.366,3.366,0,0,1,2.974,3.258c.358,3.39-4.263,17.949-7.975,29.647-1.8,5.671-3.661,11.536-3.652,12.258.11.918-5.217,12.718-5.274,12.8A1.253,1.253,0,0,1-3189.254,359.22Zm1.9-13.877c-.142.3-.4.817-.709,1.432a49.134,49.134,0,0,0-2.19,4.7c-.334,2.093.421,5.841.993,6.514a.944.944,0,0,0,.064-.089c.459-.759,4.889-11.131,5.084-12.117-.012-.856,1.04-4.26,3.705-12.657,3.289-10.363,8.258-26.023,7.927-29.169a2.191,2.191,0,0,0-1.964-2.216,5.662,5.662,0,0,0-5.306,2.955c-.867,2.2-3.364,16.779-5.188,27.425-1.582,9.238-2.2,12.772-2.416,13.227Zm3.246.414Z" fill="#12263f"/>
        <path id="Path_135075" data-name="Path 135075" d="M-3129.027,364.66a.564.564,0,0,1-.541-.4l-2.047-6.929a.564.564,0,0,1,.382-.7.564.564,0,0,1,.7.381l2.047,6.929a.565.565,0,0,1-.382.7A.59.59,0,0,1-3129.027,364.66Z" fill="#12263f"/>
        <path id="Path_135076" data-name="Path 135076" d="M-3133.406,356.84l.123-4.717a2.777,2.777,0,0,0-.594.281,6.874,6.874,0,0,0-.366,2.721l-1.175.015c-.016-1.16.081-3.186.9-3.72a4.9,4.9,0,0,1,1.622-.617.693.693,0,0,1,.693.275l.013.019.053-.041,2.34,3.007Zm1.277-3.856-.037,1.417.713-.549Z" fill="#12263f"/>
        <path id="Path_135077" data-name="Path 135077" d="M-3177.853,288.375c-5.63,3.825-7.471,22.813-7.471,22.813l7.126,1.564,1.868-5.788,21.235-2.706,3.663,10.114,12.512-8.052s-7.205-13.668-11.45-16.55a32.693,32.693,0,0,0-5.414-2.307s-5.871,3.2-9.5,2.616a8.218,8.218,0,0,1-5.3-3.357S-3175.471,286.756-3177.853,288.375Z" fill="#ffb74d"/>
        <path id="Path_135078" data-name="Path 135078" d="M-3151.722,315.23l-3.75-10.354-20.43,2.6-1.917,5.935-8.116-1.782.048-.5c.077-.787,1.934-19.3,7.716-23.226h0c2.5-1.7,7.378-1.749,7.585-1.751l.314,0,.167.265a7.72,7.72,0,0,0,4.915,3.1c3.39.549,9.078-2.522,9.135-2.554l.216-.117.234.078a32.393,32.393,0,0,1,5.552,2.375c4.313,2.927,11.336,16.19,11.633,16.754l.242.458Zm-3-11.589,3.575,9.872,11.478-7.386c-1.29-2.388-7.372-13.411-11.023-15.889a29.758,29.758,0,0,0-5.048-2.161c-1.135.592-6.227,3.111-9.636,2.559a8.772,8.772,0,0,1-5.5-3.341c-1.065.038-4.775.262-6.666,1.547-4.853,3.3-6.834,18.9-7.172,21.9l6.13,1.346,1.821-5.642Z" fill="#12263f"/>
        <path id="Path_135079" data-name="Path 135079" d="M-3181.464,303.067c0,4.325,2.868,6.124,3.023,15.37s-14.106,48.765-24.034,54.984,20.63,5.716,29.317,10.422,21.095,3.026,26.059,0,15.821-3.53,18.3-3.361-30.541-56.837-31.161-58.518,3.956-14.69,4.731-16.539-3.1-9.024,4.348-16.756l-3.372-1.242s-4.557,7.381-6.344,10.949c-.892,1.779-16.976.514-16.045-3.184s5.387-8.7,5.387-8.7l-3.726.2S-3181.473,290.455-3181.464,303.067Z" fill="#c4b3ff"/>
        <path id="Path_135080" data-name="Path 135080" d="M-3160.234,387.331a28.042,28.042,0,0,1-13.193-2.991c-3.377-1.83-10.448-2.9-16.686-3.839-8.9-1.345-14.383-2.284-14.855-4.556-.2-.969.516-1.951,2.194-3,9.586-6.007,23.922-45.354,23.768-54.5a28.564,28.564,0,0,0-1.919-10.434,13.785,13.785,0,0,1-1.1-4.945c-.009-12.791,6.491-16.7,6.768-16.862l.117-.068,5.216-.282-.9,1.013c-.043.049-4.375,4.943-5.26,8.462-.147.584.576,1.1,1.208,1.433,3.844,2.014,13.044,2.2,13.8,1.339,1.765-3.528,6.31-10.9,6.355-10.972l.243-.393,4.617,1.7-.6.623c-5.339,5.545-4.655,10.766-4.247,13.885a5.784,5.784,0,0,1,.014,2.7c-1.2,2.853-5.184,14.835-4.722,16.126.175.452,2.976,5.42,6.219,11.173,4.706,8.347,11.152,19.78,16.341,29.341,9.383,17.29,8.959,17.961,8.65,18.452a.669.669,0,0,1-.617.31c-2.307-.156-13.064.289-17.971,3.281C-3149.675,386.075-3154.775,387.331-3160.234,387.331Zm-20.665-84.265a12.714,12.714,0,0,0,1.037,4.563,29.56,29.56,0,0,1,1.986,10.8c.16,9.527-14.193,49.141-24.3,55.473-1.649,1.033-1.73,1.614-1.688,1.815.336,1.617,7.867,2.755,13.918,3.668,6.639,1,13.5,2.04,17.055,3.964,8.37,4.535,20.491,3.065,25.5.014,4.818-2.937,14.915-3.539,18.1-3.465-1.126-4.23-17.08-32.527-24.9-46.4-4.127-7.321-6.119-10.861-6.3-11.336-.769-2.084,4.373-16.078,4.74-16.954a6.107,6.107,0,0,0-.092-2.115c-.392-2.993-1.109-8.473,3.971-14.185l-2.143-.789c-.965,1.574-4.558,7.477-6.078,10.512-.931,1.859-10.177,1.12-14.179-.366-2.817-1.046-3.142-2.322-2.919-3.209.707-2.808,3.293-6.249,4.659-7.927l-2.27.123C-3175.608,287.8-3180.907,291.846-3180.9,303.066Z" fill="#12263f"/>
      </g>
      <path id="Path_135081" data-name="Path 135081" d="M-2923.542,453.43H-3730.9a.565.565,0,0,1-.565-.565.565.565,0,0,1,.565-.565h807.357a.565.565,0,0,1,.564.565A.565.565,0,0,1-2923.542,453.43Z" fill="#0e2549"/>
    </g>
  </g>
</svg>
