<svg xmlns="http://www.w3.org/2000/svg" xmlns:xlink="http://www.w3.org/1999/xlink" width="400" height="225" viewBox="0 0 400 225">
  <defs>
    <clipPath id="clip-path">
      <rect id="Rectangle_32350" data-name="Rectangle 32350" width="307" height="225" transform="translate(227 10951)" fill="#fff" stroke="#707070" stroke-width="1"/>
    </clipPath>
  </defs>
  <g id="t1-i7" transform="translate(-180 -10951)">
    <path id="Path_135852" data-name="Path 135852" d="M105,0H439a66,66,0,0,1,66,66V91H105Z" transform="translate(75 11085)" fill="#ffedb8"/>
    <g id="Mask_Group_53" data-name="Mask Group 53" clip-path="url(#clip-path)">
      <g id="Group_92581" data-name="Group 92581" transform="translate(4120.673 5495.792)">
        <g id="Group_92578" data-name="Group 92578" transform="translate(-3738.044 5473.213)">
          <path id="Path_135853" data-name="Path 135853" d="M-3535.307,6028.71l0-2.279s10.551-11.712,13.791-17.67l8.908-16.453,11.662,2.884-14.8,20.976Z" transform="translate(3542.091 -5703.91)" fill="#ffb27d"/>
          <path id="Path_135854" data-name="Path 135854" d="M-3419.061,5497.755c-2.037-8.38.916-12.283,3.581-14.361,1.264-3.084,2.706-5.308,4.181-6.146a15.1,15.1,0,0,1,8.168-1.562,3.82,3.82,0,0,0-1.722-.817c1.4-.208,4.519,1.179,4.519,1.179,19.449-7.494,22.505,21.143,22.1,27.795s-.352,14.488,9.767,19.73c19.306,10-6.417,47.691-6.417,47.691.491-5.376-24.315-33.748-37.257-42.245-3.15-4.638-4.27-12.832-4.354-13.477.544,6.5,1.655,10.142,2.649,12.192C-3419.748,5522.306-3420.622,5509.27-3419.061,5497.755Z" transform="translate(3490.93 -5474.807)" fill="#a9453d"/>
          <path id="Path_135855" data-name="Path 135855" d="M-3404.733,5557.622c-.064.03,6.249,3.307,11,2.008,4.468-1.218,7.385-7.009,7.324-7.022-1.892-.376-2.437-2.976-2.4-14.146l-.856.168-14.38,2.848s.327,4.525.337,8.788C-3403.7,5553.845-3403.914,5557.239-3404.733,5557.622Z" transform="translate(3484.285 -5502.987)" fill="#ffb27d"/>
          <path id="Path_135856" data-name="Path 135856" d="M-3403.5,5541.611s.327,4.525.337,8.788c8.046-.227,12.3-7.567,14.042-11.636Z" transform="translate(3483.737 -5503.121)" fill="#ed975d"/>
          <path id="Path_135857" data-name="Path 135857" d="M-3506.338,5880.493l7.623.233,8.25.253s19.057-21.218,29.747-55.231q.374-1.186.79-2.4c5.85-17.059,17.979-38.471,24.37-57.852,1.017-3.087,1.931-5.993,2.75-8.744.262-.881.518-1.746.761-2.6a205.561,205.561,0,0,0,7.331-38.59l-46.152.369S-3478.317,5794.325-3506.338,5880.493Z" transform="translate(3529.266 -5581.393)" fill="#26488a"/>
          <path id="Path_135858" data-name="Path 135858" d="M-3436.409,5621.125c.117,21.962-3.222,31.385-3.222,31.385a62.015,62.015,0,0,0,43.246,2.649c.277-.087,15.112-4.054,15.112-4.054-.393-.889-3.889-15.69-4.271-16.505-4.958-10.648-4.389-15.725-4.977-19a69.663,69.663,0,0,1-.571-18.4,147.682,147.682,0,0,1,5.695-28.895c-6.4-1.456-12.391-4.014-19.052-6.512-1.531,1.908-6.215,3.9-10.278,3.813-4.678-.1-6.195-2.105-5.952-4.292-4.985,2.774-8.963,5.395-8.963,5.395-4.237,7.36-12.83,14.507-13.453,25.8C-3443.25,5595.283-3436.413,5620.511-3436.409,5621.125Z" transform="translate(3501.27 -5513.104)" fill="#e7f1fd"/>
          <path id="Path_135859" data-name="Path 135859" d="M-3413.354,5525.6s19.038.314,19.051-11.545,2.479-19.806-9.676-20.507-14.522,3.82-15.489,7.778S-3418.306,5525.208-3413.354,5525.6Z" transform="translate(3490.909 -5483.069)" fill="#ffb27d"/>
          <path id="Path_135860" data-name="Path 135860" d="M-3407.052,5490.786s5.213,13.913,13.212,15.97,11.469-.086,11.469-.086-1.253-7.156-2.526-15.666C-3384.9,5491-3403.12,5484.165-3407.052,5490.786Z" transform="translate(3485.312 -5480.603)" fill="#a9453d"/>
          <path id="Path_135861" data-name="Path 135861" d="M-3412.392,5493.3s-3.893,3.106-4.843,6.126-1.376,9.236-3.187,9.025c0,0-3.927-9.457.486-14.806C-3415.256,5487.978-3412.392,5493.3-3412.392,5493.3Z" transform="translate(3491.943 -5481.992)" fill="#a9453d"/>
          <path id="Path_135862" data-name="Path 135862" d="M-3382.838,6027.4c.648-3.564,1.881-9.726,1.881-9.726l-.286-21.865h13.28l-4.969,20.928a21.293,21.293,0,0,0,1.021,8.74s1.276,5.811-4.447,5.918S-3383.486,6030.961-3382.838,6027.4Z" transform="translate(3474.656 -5705.459)" fill="#ffb27d"/>
          <path id="Path_135863" data-name="Path 135863" d="M-3372.228,6048.924s1.078,6.95.429,9.866c0,0-1.688.113-5.846.113-3.941,0-6.05-.113-6.05-.113s-.121-7.477.931-10.014C-3382.763,6048.776-3378.707,6054.863-3372.228,6048.924Z" transform="translate(3474.973 -5728.909)" fill="#1e3d70"/>
          <path id="Path_135864" data-name="Path 135864" d="M-3469.213,5695.992l-8.992,27.415,5.129,2.057,14.868-24.221Z" transform="translate(3516.812 -5572.728)" fill="#ffb27d"/>
          <path id="Path_135865" data-name="Path 135865" d="M-3547.481,6050.067s11.488.217,13.432,0,3.445-3.735,5.551-7.947c.861-1.723,2.8-2.672,4.778-3.194l-.094,11.141h2.915l3.01-11.753c1.869-3.434.451-6.53-.865-9.241-1.529,0-5.945,1.026-13.738,9.808a10.219,10.219,0,0,1-8.2,3.826.63.63,0,0,1-.116.062C-3547.286,6045.684-3547.481,6050.067-3547.481,6050.067Z" transform="translate(3547.481 -5720.186)" fill="#1e3d70"/>
          <path id="Path_135866" data-name="Path 135866" d="M-3466.08,5639.036s1.392-3.577,3.242-8.1,6.5-48.518,9.565-55.078,13.671-10.767,13.671-10.767l8.748-3.78s-11.015,27.211-11.339,32.719-1.3,90.055-1.3,90.055.648,3.888-6.8,2.268-9.394-3.239-9.394-3.239,2.705-19.8,4.327-39.246C-3460.734,5643.54-3466.08,5639.036-3466.08,5639.036Z" transform="translate(3511.444 -5513.104)" fill="#2a4e96"/>
          <path id="Path_135867" data-name="Path 135867" d="M-3492.66,5907.286l8.25.252s19.057-21.218,29.747-55.231q.374-1.186.79-2.4c5.851-17.059,17.979-38.471,24.37-57.853,1.017-3.086,1.93-5.992,2.75-8.742.262-.881.518-1.747.761-2.6l-6.8-5.157s-20.4,33.042-26.721,64.137C-3465,5866.7-3486.972,5899.2-3492.66,5907.286Z" transform="translate(3523.211 -5607.951)" fill="#1e3d70"/>
          <path id="Path_135868" data-name="Path 135868" d="M-3390.1,5835.622c-.116,15.122.648,49.887,2.618,64.279h7.308c4.039,0,6.054-.058,6.054-.058,4.94-25.025,8.455-45.73,11.013-63.573,2.1-14.642,3.965-27.194,5.4-38,1.444-10.874,2.449-19.98,2.808-27.674.055-1.211.1-2.391.12-3.534s.03-2.268.02-3.354l-39.877-3.887C-3394.133,5786.315-3390.034,5826.834-3390.1,5835.622Z" transform="translate(3479.814 -5600.985)" fill="#26488a"/>
          <path id="Path_135869" data-name="Path 135869" d="M-3368.686,5908.46c4.039,0,6.054-.058,6.054-.058,4.94-25.024,8.455-45.73,11.013-63.572,2.1-14.643,3.966-27.195,5.4-38,1.444-10.875,2.449-19.98,2.808-27.674l-14.632,8.607s9.34,3.294,5.776,28.238S-3363.727,5904.93-3368.686,5908.46Z" transform="translate(3468.327 -5609.544)" fill="#1e3d70"/>
          <path id="Path_135870" data-name="Path 135870" d="M-3382.89,5682.909s2.809,10.15,12.526,8.854,23.538-7.126,23.538-7.126-4.153-13.123-9.316-30.363c-6.252-20.872-13.991-47.777-17.639-64.75a104.824,104.824,0,0,1-1.982-11.571l-8.063-15.643s-12.021,26.98-12.67,33.784S-3382.89,5682.909-3382.89,5682.909Z" transform="translate(3480.648 -5513.546)" fill="#2a4e96"/>
          <path id="Path_135871" data-name="Path 135871" d="M-3384.493,5595.081l-10.641-32.77c.029.014,13.44,3.99,20.186,7.4,0,0,4.217,5.436,6.826,17.979,0,0,2.756,30.111-3.4,41.124,0,0-19.437,3.887-50.534-6.8v-7.126s34.013,1.781,40.978,2.591Z" transform="translate(3491.954 -5513.546)" fill="#ffb27d"/>
          <path id="Path_135872" data-name="Path 135872" d="M-3371.3,5631.966c.435,11.014,3.026,32.394,26.132,43.839.062.029.123.062.185.088-6.252-20.872-13.991-47.778-17.639-64.75C-3366.865,5617.486-3371.536,5625.9-3371.3,5631.966Z" transform="translate(3469.487 -5535.165)" fill="#1e3d70"/>
          <path id="Path_135873" data-name="Path 135873" d="M-3374.653,5562.311s19.727,1.39,24.478,11.971,6.263,45.783.215,56.15c0,0-8.324,2.371-23.049-.383l-.544-.1s-4.7-11.5-.486-13.767c0,0,12.418.647,11.122-3.456S-3374.653,5562.311-3374.653,5562.311Z" transform="translate(3471.473 -5513.546)" fill="#2a4e96"/>
          <path id="Path_135874" data-name="Path 135874" d="M-3383,5594.726h11.058a.53.53,0,0,1,.507.687l-1.811,5.881a.53.53,0,0,1-.507.374H-3385.2a.53.53,0,0,1-.5-.716l2.2-5.881A.53.53,0,0,1-3383,5594.726Z" transform="translate(3475.874 -5527.896)" fill="#fff"/>
          <path id="Path_135875" data-name="Path 135875" d="M-3483.707,5743.84s-8.211,4.538-9.291,7.995-.338,10.7.966,10.588,3.248-7.779,4.328-8.319,2.593-2.16,2.593-.972-1.081,3.349-.541,3.672,2.27-3.024,3.458-3.672,1.688-5.991,2.843-7.425S-3483.707,5743.84-3483.707,5743.84Z" transform="translate(3523.591 -5593.91)" fill="#ffb27d"/>
          <path id="Path_135876" data-name="Path 135876" d="M-3436.819,5653.548s-7.343-4.522-10.423-3.827-10.931,6.382-7.155,7.613,6.834-.061,8.286.834,2.525,2.529,9.292,2.507S-3436.819,5653.548-3436.819,5653.548Z" transform="translate(3506.717 -5552.21)" fill="#ffb27d"/>
          <g id="Group_92577" data-name="Group 92577" transform="translate(75.795 46.696)">
            <path id="Path_135877" data-name="Path 135877" d="M-3406.68,5561.124c-1.32,7.564,6.8,13.343,6.843,13.846a3.484,3.484,0,0,1-.708,1.675c-8.878-4.858-10.9-11.561-10.928-13.449C-3411.161,5561.678-3406.657,5560.313-3406.68,5561.124Z" transform="translate(3411.474 -5559.608)" fill="#f99746"/>
            <path id="Path_135878" data-name="Path 135878" d="M-3391.173,5573.958c7.189-5.527,8.9-12.123,8.542-15.336,1.2-.18,2.027.676,3,.951,1.549.438,2.848.44,2.848,1.792-.874,7.142-10.072,12.09-15.1,14.268A2.042,2.042,0,0,1-3391.173,5573.958Z" transform="translate(3402.809 -5558.597)" fill="#f99746"/>
            <path id="Path_135879" data-name="Path 135879" d="M-3396.709,5586.661c-4.335,4.083-5.7,10.427-4.607,16.331,3.979-7.726,6.172-14.733,5.437-16.331C-3396.584,5585.843-3396.709,5586.661-3396.709,5586.661Z" transform="translate(3407.135 -5570.86)" fill="#f99746"/>
            <path id="Path_135880" data-name="Path 135880" d="M-3390.911,5586.3c2.793,9.152,0,13.3,0,13.3a20.382,20.382,0,0,1-1.341-12.563C-3391.522,5586.219-3390.911,5586.3-3390.911,5586.3Z" transform="translate(3403.159 -5570.858)" fill="#f99746"/>
          </g>
        </g>
        <g id="Group_92580" data-name="Group 92580" transform="translate(-3877.673 5471.208)">
          <g id="Group_92579" data-name="Group 92579">
            <path id="Path_135881" data-name="Path 135881" d="M-3853.4,5476.728s-6.717-10.765-17.961-2.229c0,0,4.108-1.662,7.274-1.152,0,0-10.368,1.234-13.261,13.628s14.274,24.938,14.239,29.821-8.81,12.514-.117,21.618,46.365.169,50.811,9.786c0,0-1.282-24.637-14.813-26.052,0,0,6.606.7,10.273,4.719,0,0-5.347-9.214-12.75-7.84-6.552,1.216-17.053-4.552-17.825-6.422S-3853.4,5476.728-3853.4,5476.728Z" transform="translate(3877.673 -5471.208)" fill="#152847"/>
            <path id="Path_135882" data-name="Path 135882" d="M-3792.432,5579.5s-6.073,12.108-.076,18.167,40.076,15.274,43.549,15.49c6.323.391,32.707-5.816,32.707-5.816l.279-4.741s-27.346-2.371-30.4-1.808C-3751.155,5601.676-3787.764,5577.452-3792.432,5579.5Z" transform="translate(3841.14 -5519.096)" fill="#ffb27d"/>
            <path id="Path_135883" data-name="Path 135883" d="M-3752.427,5604.262a.148.148,0,0,1-.013.022,17.966,17.966,0,0,1-2.34,3.521c-8.118,3.176-29.781-5.747-37.563-9.666a21.643,21.643,0,0,1-2.588-1.451c-2.906-2.119-6.264-11.117-6.83-15.488s8.061-12.7,8.061-12.7,35.771,21.349,40.739,26.529C-3750.175,5597.94-3751.086,5601.6-3752.427,5604.262Z" transform="translate(3844.078 -5514.282)" fill="#2b478b"/>
            <path id="Path_135884" data-name="Path 135884" d="M-3747.749,5618.124a17.972,17.972,0,0,1-2.34,3.521c-8.118,3.176-29.782-5.747-37.564-9.667l-3.539-12.214,15.771,2.362s16.643,17.987,21.611,17.926C-3749.151,5619.995-3747.89,5618.331-3747.749,5618.124Z" transform="translate(3839.386 -5528.121)" fill="#233862"/>
            <path id="Path_135885" data-name="Path 135885" d="M-3823.084,5484.179s-17.649-19.236-25.86-5.984c0,0-6.455,3.052-8.3,14.381-1.877,11.558,6.152,19.886,9.981,17.546,2.457-1.5,4.58,2.823,4.58,2.823Z" transform="translate(3868.751 -5472.239)" fill="#152847"/>
            <path id="Path_135886" data-name="Path 135886" d="M-3805.612,5567.826h-34.051c.08-4.649.673-7.808,2.035-8.37,1.739-.835,6.021-7.166,4.694-18.718l14.046-.456s.662,14.84,1.52,15.1c1.078.553,5.015.359,5.015.359A53.417,53.417,0,0,0-3805.612,5567.826Z" transform="translate(3860.845 -5501.788)" fill="#ffb27d"/>
            <path id="Path_135887" data-name="Path 135887" d="M-3813.458,5540.284a56.721,56.721,0,0,0,0,9.441c-7.805,1.274-12.918-5.381-15.354-8.982Z" transform="translate(3856.042 -5501.789)" fill="#e8945b"/>
            <path id="Path_135888" data-name="Path 135888" d="M-3836.935,5513.825s-4.454-6.338-5.718-11.88c-.9-3.957.415-18.851,15.385-17.438a20.212,20.212,0,0,1,8.53,2.761c3.333,2.024,8.22,6.5,3.636,19.668l-1.142,4.426Z" transform="translate(3862.265 -5477.053)" fill="#152847"/>
            <path id="Path_135889" data-name="Path 135889" d="M-3814.673,5525.677s-18.667,1.213-19.243-10.423-3.373-19.317,8.521-20.583,14.431,3.061,15.568,6.9S-3809.832,5525.063-3814.673,5525.677Z" transform="translate(3858.609 -5481.495)" fill="#ffb27d"/>
            <path id="Path_135890" data-name="Path 135890" d="M-3821.838,5491.088s-4.455,13.9-12.207,16.3-11.259.459-11.259.459-1.875-10.653,1.926-17.978C-3843.379,5489.869-3826.011,5484.777-3821.838,5491.088Z" transform="translate(3863.548 -5478.61)" fill="#152847"/>
            <path id="Path_135891" data-name="Path 135891" d="M-3805.009,5493.8s3.968,2.864,5.042,5.781,1.789,9,3.557,8.705c0,0,3.405-9.466-1.18-14.505C-3802.452,5488.436-3805.009,5493.8-3805.009,5493.8Z" transform="translate(3845.504 -5480.151)" fill="#152847"/>
            <path id="Path_135892" data-name="Path 135892" d="M-3813.733,5493.574s-2.952,14.474-12.636,19.531c0,0,9.48-9.263,9.864-18.742S-3813.733,5493.574-3813.733,5493.574Z" transform="translate(3854.96 -5479.499)" fill="#152847"/>
            <path id="Path_135893" data-name="Path 135893" d="M-3746.478,5901.29l-7.485-.628s-37.86-62.793-35.206-82.727a42.141,42.141,0,0,0-.624-13.024c-3.393-18.6-15.479-42.085-17.957-67.195-3.1-31.41,35.325-20.293,35.325-20.293s2.88,14.453,5.65,34.378a510.906,510.906,0,0,1,4.963,54.927C-3760.97,5838.095-3753.1,5872.477-3746.478,5901.29Z" transform="translate(3846.795 -5579.364)" fill="#f99746"/>
            <path id="Path_135894" data-name="Path 135894" d="M-3693.53,6053.836h-29.282s-.7-4.463.828-7.849c1.466-3.249,3.043-4.726,2.494-8.656a12.082,12.082,0,0,0,9.844,3.491c.519.841,3.348,5.342,5.082,6.587C-3702.652,6048.784-3694.118,6048.294-3693.53,6053.836Z" transform="translate(3809.185 -5721.836)" fill="#233862"/>
            <path id="Path_135895" data-name="Path 135895" d="M-3766.774,5751.8c-4.725,10.759-16.324,37.6-23.018,53.109-3.393-18.6-15.479-42.085-17.957-67.195-3.1-31.41,35.325-20.293,35.325-20.293S-3769.544,5731.876-3766.774,5751.8Z" transform="translate(3846.795 -5579.364)" fill="#ed7d2b"/>
            <path id="Path_135896" data-name="Path 135896" d="M-3795.781,5717.22s-20.066,88.605-25.47,104.765c-9.818,29.36-13.006,45.551-15.3,76.837l-8.553-1.18s-9.916-70.7-2-84.866c6.835-12.232-7.148-81.107,7.45-98S-3795.781,5717.22-3795.781,5717.22Z" transform="translate(3865.498 -5575.976)" fill="#f99746"/>
            <path id="Path_135897" data-name="Path 135897" d="M-3820.013,6053.836H-3849.3s-.7-4.463.828-7.849c1.466-3.249,3.761-4.726,3.211-8.656a10.547,10.547,0,0,0,9.127,3.491c.519.841,3.348,5.342,5.082,6.587C-3829.135,6048.784-3820.6,6048.294-3820.013,6053.836Z" transform="translate(3865.181 -5721.836)" fill="#233862"/>
            <path id="Path_135898" data-name="Path 135898" d="M-3784.648,5670.248c-17.973,16.2-60.8,6.543-62.506-.221-1.052-4.183,8.626-28.755,10.263-33.582s-12.254-53.569-11.369-58.338,9.684-10.294,9.684-10.294a40.977,40.977,0,0,0,12.776,2.327c6.092-.128,4.734-1.7,9.326-2.327s9.8,8.649,15.55,13.736c3.022,2.672,4.15,12.308,4.41,22.009.119,4.362.062,8.737-.075,12.493-.013.328-.026.651-.04.965-.141,3.362-.345,6.153-.535,7.887-.235,2.1.513,6.025,1.743,10.737C-3791.975,5648.832-3781.459,5667.372-3784.648,5670.248Z" transform="translate(3864.669 -5513.962)" fill="#2b478b"/>
            <path id="Path_135899" data-name="Path 135899" d="M-3786.694,5665.915c-23.863-4.911-41.9-29.747-41.9-29.747l40.687,11.122c-.141,3.362-.345,6.153-.535,7.888C-3788.672,5657.275-3787.924,5661.2-3786.694,5665.915Z" transform="translate(3855.943 -5544.237)" fill="#233862"/>
            <path id="Path_135900" data-name="Path 135900" d="M-3827.095,5592.279s-9.612,12.238-3.207,20.1,47.123,24.607,51.4,25.512c7.78,1.647,41.59-.156,41.59-.156l1.158-5.2s-33.534-7.877-37.415-7.84C-3779.665,5624.755-3820.95,5590.906-3827.095,5592.279Z" transform="translate(3857.676 -5524.789)" fill="#ffb27d"/>
            <path id="Path_135901" data-name="Path 135901" d="M-3831.72,5578.434s-7.272,8.773-7.318,13.717,2.577,15.551,5.823,18.457,35.568,22.3,47.927,20.019c0,0,9.724-7.1,4.447-13.788S-3831.72,5578.434-3831.72,5578.434Z" transform="translate(3860.569 -5518.678)" fill="#2b478b"/>
            <path id="Path_135902" data-name="Path 135902" d="M-3653.294,5615.8s2.923-.374,3.512-1.286a5.052,5.052,0,0,1,2.8-2.6c1.546-.442,3.45-1.972,3.681-1.84.687.393-2.282,2.618-1.619,2.855.324.116,1.664-1.163,3.038-1.763,1.435-.626,1.152-2.819,2.28-1.607.459.492,1.183,2.962.479,3.772-.762.876-2.594,3.323-3.4,3.718-1.167.568-11.042,3.5-11.042,3.5Z" transform="translate(3778.461 -5532.297)" fill="#ffb27d"/>
          </g>
          <path id="Path_135903" data-name="Path 135903" d="M-3672.347,5661.6l7.092,1.642s2.845.463,4.511.577,4.785-.369,5.889,1.03,5.02,3.319,4.563,3.73-5.226-1.521-5.079-1.08,2.708,3.662,4.487,3.975c3.631.638,2.26,2.209,2.26,2.209s-3.435,1.123-5.349.819-5.994-4.647-7.635-5.088-9.689-.743-9.689-.743Z" transform="translate(3786.772 -5555.498)" fill="#ffb27d"/>
        </g>
      </g>
    </g>
  </g>
</svg>
