<svg xmlns="http://www.w3.org/2000/svg" width="150" height="150" viewBox="0 0 150 150">
  <g id="t1-ic1" transform="translate(-546 -6354)">
    <rect id="Rectangle_5553" data-name="Rectangle 5553" width="150" height="150" rx="13" transform="translate(546 6354)" fill="#2a0088"/>
    <g id="layer5" transform="translate(1135.001 5825.456)">
      <g id="Group_92305" data-name="Group 92305" transform="translate(-549.502 595.778)">
        <path id="path27116" d="M1555.9,756.962l3.823-14.775h4.226a2.725,2.725,0,0,1,1.623.334,2.209,2.209,0,0,1,.708,1.112l2.3,7.15,3-8.6h4.09a3.03,3.03,0,0,1,1.545.413,2.124,2.124,0,0,1,.686,1.033l3.353,13.329h-3.971l-3-11.361-3.144,8.661h-4.21a1.651,1.651,0,0,1-.992-.278c-.485-.328-.5-.628-.5-.628l-2.563-7.755-2.941,11.361Z" transform="translate(-1481.745 -742.177)" fill="#fff" fill-rule="evenodd"/>
        <path id="path27065" d="M729.66,742.36v2.947l7.093.477v11.351h4.1V745.784l7.093-.477V742.36Z" transform="translate(-694.884 -742.351)" fill="#fff" fill-rule="evenodd"/>
        <path id="path27022" d="M334.717,742.356,327.33,757.13h4.541l1.29-2.717H341.4l1.261,2.717h4.516l-7.008-13.806a1.818,1.818,0,0,0-.626-.736,1.883,1.883,0,0,0-.815-.233h-4.008Zm2.508,3.191,2.715,5.865h-5.472l2.757-5.865Z" transform="translate(-311.729 -742.347)" fill="#fff" fill-rule="evenodd"/>
        <path id="path26992" d="M0,742.357v14.775H12.471l1.7-3.4h-9.9V742.357Z" transform="translate(0 -742.348)" fill="#fff" fill-rule="evenodd"/>
        <path id="path27070" d="M1107.688,742.356,1100.3,757.13h4.541l1.291-2.717h8.237l1.261,2.717h4.516l-7.009-13.806a1.818,1.818,0,0,0-.626-.736,1.883,1.883,0,0,0-.815-.233h-4.008Zm2.508,3.191,2.715,5.865h-5.472Z" transform="translate(-1047.859 -742.347)" fill="#fff" fill-rule="evenodd"/>
      </g>
      <g id="Group_92306" data-name="Group 92306" transform="translate(-577.002 588.452)">
        <path id="path27278" d="M-574.886,779.819l3.278-.936a.657.657,0,0,0-.153-.326,1.049,1.049,0,0,0-.329-.174l-4.557-1.655a.358.358,0,0,0-.25.01.252.252,0,0,0-.1.211v2.119a1.329,1.329,0,0,0,.282.658c.294.455.99.339.99.339Z" transform="translate(576.998 -767.735)" fill="#ed1651" fill-rule="evenodd"/>
        <path id="path27260" d="M-474.7,595.422l3.05-1.708s.046-.3-.072-.4a.646.646,0,0,0-.258-.141l-13.17-4.7a.358.358,0,0,0-.25.01.252.252,0,0,0-.1.211v1.827a1.765,1.765,0,0,0,.292.878,1.413,1.413,0,0,0,.771.572Z" transform="translate(489.863 -588.452)" fill="#ed1651" fill-rule="evenodd"/>
        <path id="path27258" d="M-561.839,673.675l3.05-1.58s.065-.4-.053-.508a.934.934,0,0,0-.277-.164l-17.531-6.368a.357.357,0,0,0-.25.01.252.252,0,0,0-.1.211V667.1a1.764,1.764,0,0,0,.292.878,1.413,1.413,0,0,0,.771.573Z" transform="translate(577.002 -661.386)" fill="#ed1651" fill-rule="evenodd"/>
      </g>
      <g id="Group_92307" data-name="Group 92307" transform="translate(-577.002 593.17)">
        <path id="path27194" d="M-559.118,687.46a.664.664,0,0,1,.329.174.5.5,0,0,1,.153.326v2.419a1.812,1.812,0,0,1-.143.628.672.672,0,0,1-.334.368l-.413.15-13.162,4.781a.548.548,0,0,1-.146.019.548.548,0,0,1-.146-.019l-3.667-1.332s-.091-.021-.22-.223a1.52,1.52,0,0,1-.135-.677.586.586,0,0,0,.153.341c.131.11.478-.011.478-.011l16.844-6.118s.669-.273.669-.55c0-.191-.261-.274-.261-.274Z" transform="translate(577.002 -687.46)" fill="#fff" fill-rule="evenodd"/>
        <path id="path27140" d="M-472.927,799.04a.664.664,0,0,1,.329.174.5.5,0,0,1,.153.326v2.419a1.812,1.812,0,0,1-.143.628.672.672,0,0,1-.334.368l-.413.15-13.162,4.781v-3.241l13.162-4.781s.669-.273.669-.55C-472.666,799.122-472.927,799.04-472.927,799.04Z" transform="translate(490.81 -793.722)" fill="#fff" fill-rule="evenodd"/>
        <path id="path27142" d="M-479.463,976.955a.681.681,0,0,1,.126.4v1.809a1.814,1.814,0,0,1-.143.628.672.672,0,0,1-.334.367l-.413.15-6.273,2.278V979.35l6.273-2.279S-479.589,976.829-479.463,976.955Z" transform="translate(490.813 -963.123)" fill="#fff" fill-rule="evenodd"/>
        <path id="path27168" d="M-483.51,1118.875a.682.682,0,0,1,.126.4v1.809a1.813,1.813,0,0,1-.143.628.672.672,0,0,1-.334.367l-.413.15-2.226.849v-3.241l2.226-.849S-483.636,1118.749-483.51,1118.875Z" transform="translate(490.813 -1098.279)" fill="#fff" fill-rule="evenodd"/>
      </g>
    </g>
  </g>
</svg>
