<svg xmlns="http://www.w3.org/2000/svg" xmlns:xlink="http://www.w3.org/1999/xlink" width="295" height="358" viewBox="0 0 295 358">
  <defs>
    <clipPath id="clip-path">
      <path id="Path_103901" data-name="Path 103901" d="M184.907,344.758c-5.089-15.731-32.372-26.613-51.942-32.53,4.194,6.642,8.088,12.34,8.877,14.862,1.84,5.889,1.472,8.466,1.472,8.466s-8.835,11.042-13.988,12.883-56.685-32.024-73.248-51.532c0,0-18.4,4.417-25.521,23.557s-17.422,85.4-17.422,85.4H196.712S193,369.788,184.907,344.758Z" transform="translate(-13.135 -296.907)" fill="none"/>
    </clipPath>
    <clipPath id="clip-path-2">
      <path id="Path_103912" data-name="Path 103912" d="M55.869,175.339S37.1,198.16,38.57,236.809s7.73,78.033,12.514,88.707l87.236,38.649s1.472,9.2,0,16.932c0,0-8.65-4.234-13.435,1.472s-1.289,25.213,20.8,27.237,41.778-25.949,43.25-48.219-13.988-43.249-16.564-49.322-8.151-14.415-7.849-32.7,3.648-70.745,3.648-70.745,8.617-2.749,6.04-18.208-23.463-32.991-47.85-37.177C101.7,149.206,77.77,151.046,55.869,175.339Z" transform="translate(-38.487 -151.656)" fill="none"/>
    </clipPath>
  </defs>
  <g id="t1-i6" transform="translate(-285 -6836)">
    <path id="Path_104001" data-name="Path 104001" d="M210,0H439a66,66,0,0,1,66,66V91H210Z" transform="translate(75 7103)" fill="#ffb74d"/>
    <g id="Group_57349" data-name="Group 57349" transform="translate(291.865 6747.159)">
      <path id="Path_103898" data-name="Path 103898" d="M184.907,344.758c-5.089-15.731-32.372-26.613-51.942-32.53,4.194,6.642,8.088,12.34,8.877,14.862,1.84,5.889,1.472,8.466,1.472,8.466s-8.835,11.042-13.988,12.883-56.685-32.024-73.248-51.532c0,0-18.4,4.417-25.521,23.557s-17.422,85.4-17.422,85.4h182.78S193,369.788,184.907,344.758Z" transform="translate(0 40.982)" fill="#f24f71"/>
      <g id="Group_57279" data-name="Group 57279" transform="translate(13.135 337.889)">
        <g id="Group_57278" data-name="Group 57278" clip-path="url(#clip-path)">
          <g id="Group_57277" data-name="Group 57277" transform="translate(40.906 58.084)">
            <g id="Group_57275" data-name="Group 57275" transform="translate(0)">
              <path id="Path_103899" data-name="Path 103899" d="M47.875,411.093h0a.566.566,0,0,1-.56-.57c.245-28.211,9.25-64.3,9.341-64.664a.565.565,0,1,1,1.1.276c-.09.359-9.062,36.322-9.306,64.4A.564.564,0,0,1,47.875,411.093Z" transform="translate(-47.31 -345.433)" fill="#bc3556"/>
            </g>
            <g id="Group_57276" data-name="Group 57276" transform="translate(121.326 15.077)">
              <path id="Path_103900" data-name="Path 103900" d="M151.418,407.636a.565.565,0,0,1-.464-.886c.04-.059,3.993-6,3.993-21.764,0-15.829-6.13-26-6.191-26.1a.564.564,0,0,1,.961-.591c.063.1,6.359,10.521,6.359,26.689,0,16.187-4.024,22.162-4.2,22.407A.562.562,0,0,1,151.418,407.636Z" transform="translate(-148.672 -358.029)" fill="#bc3556"/>
            </g>
          </g>
        </g>
      </g>
      <path id="Path_103902" data-name="Path 103902" d="M55.869,175.339S37.1,198.16,38.57,236.809s7.73,78.033,12.514,88.707l87.236,38.649s1.472,9.2,0,16.932c0,0-8.65-4.234-13.435,1.472s-1.289,25.213,20.8,27.237,41.778-25.949,43.25-48.219-13.988-43.249-16.564-49.322-8.151-14.415-7.849-32.7,3.648-70.745,3.648-70.745,8.617-2.749,6.04-18.208-23.463-32.991-47.85-37.177C101.7,149.206,77.77,151.046,55.869,175.339Z" transform="translate(4.994 12.372)" fill="#162655"/>
      <g id="Group_57291" data-name="Group 57291" transform="translate(43.481 164.029)">
        <g id="Group_57290" data-name="Group 57290" clip-path="url(#clip-path-2)">
          <g id="Group_57289" data-name="Group 57289" transform="translate(15.983 -0.565)">
            <g id="Group_57280" data-name="Group 57280" transform="translate(22.678 21.59)">
              <path id="Path_103903" data-name="Path 103903" d="M82.267,224.344a.566.566,0,0,1-.48-.266c-.147-.236-14.7-23.978-10.1-54.376a.565.565,0,1,1,1.117.169c-4.538,29.971,9.8,53.376,9.943,53.608a.565.565,0,0,1-.479.864Z" transform="translate(-70.787 -169.221)" fill="#2c3f70"/>
            </g>
            <g id="Group_57281" data-name="Group 57281" transform="translate(32.489 10.325)">
              <path id="Path_103904" data-name="Path 103904" d="M100.892,210.39a.566.566,0,0,1-.372-.14c-20.933-18.337-21.533-49.556-21.537-49.869a.564.564,0,0,1,.558-.571h.007a.565.565,0,0,1,.565.558c0,.309.6,31.033,21.152,49.033a.565.565,0,0,1-.372.99Z" transform="translate(-78.983 -159.81)" fill="#2c3f70"/>
            </g>
            <g id="Group_57282" data-name="Group 57282" transform="translate(38.697 4.532)">
              <path id="Path_103905" data-name="Path 103905" d="M126.584,199.625a.564.564,0,0,1-.539-.4c-9.535-30.457-41.2-43.043-41.516-43.166a.565.565,0,0,1,.408-1.055c.324.126,32.484,12.9,42.185,43.883a.564.564,0,0,1-.37.707A.558.558,0,0,1,126.584,199.625Z" transform="translate(-84.17 -154.97)" fill="#2c3f70"/>
            </g>
            <g id="Group_57283" data-name="Group 57283" transform="translate(44.82)">
              <path id="Path_103906" data-name="Path 103906" d="M147.394,194.446a.566.566,0,0,1-.536-.387C133.22,153,90.278,152.316,89.846,152.314a.565.565,0,0,1,0-1.13h0c.44,0,44.187.7,58.078,42.519a.564.564,0,0,1-.358.715A.573.573,0,0,1,147.394,194.446Z" transform="translate(-89.285 -151.184)" fill="#2c3f70"/>
            </g>
            <g id="Group_57284" data-name="Group 57284" transform="translate(0 59.775)">
              <path id="Path_103907" data-name="Path 103907" d="M64.491,310.925a.564.564,0,0,1-.53-.371c-19.373-53.282-9.735-108.416-9.636-108.967a.565.565,0,0,1,1.112.2c-.1.548-9.68,55.392,9.584,108.379a.564.564,0,0,1-.338.724A.573.573,0,0,1,64.491,310.925Z" transform="translate(-51.84 -201.123)" fill="#2c3f70"/>
            </g>
            <g id="Group_57285" data-name="Group 57285" transform="translate(19.245 115.46)">
              <path id="Path_103908" data-name="Path 103908" d="M76.257,294.993a.564.564,0,0,1-.541-.4,197.208,197.208,0,0,1-7.8-46.369.565.565,0,0,1,.553-.577.54.54,0,0,1,.577.552,196.019,196.019,0,0,0,7.749,46.07.565.565,0,0,1-.379.7A.584.584,0,0,1,76.257,294.993Z" transform="translate(-67.919 -247.645)" fill="#2c3f70"/>
            </g>
            <g id="Group_57286" data-name="Group 57286" transform="translate(84.521 139.45)">
              <path id="Path_103909" data-name="Path 103909" d="M129.143,387.518a.564.564,0,0,1-.411-.952c7.487-7.949,13.8-22.526,11.02-37.174-1.465-7.728-4.041-16.157-7.024-25.918-2.39-7.822-5.1-16.688-7.446-26.087-5.14-20.575-1.736-29.006-1.588-29.354a.565.565,0,0,1,1.041.438c-.035.083-3.389,8.5,1.642,28.642,2.341,9.371,5.045,18.221,7.432,26.032,2.992,9.791,5.577,18.249,7.053,26.036,2.854,15.04-3.624,30-11.309,38.159A.563.563,0,0,1,129.143,387.518Z" transform="translate(-122.453 -267.687)" fill="#2c3f70"/>
            </g>
            <g id="Group_57287" data-name="Group 57287" transform="translate(97.995 135.649)">
              <path id="Path_103910" data-name="Path 103910" d="M156.841,372.449a.575.575,0,0,1-.172-.026.566.566,0,0,1-.366-.711c9.033-28.313-.578-46.781-9.059-63.074-2.192-4.212-4.262-8.19-5.992-12.244-8.548-20.028-7.529-30.921-7.481-31.375a.556.556,0,0,1,.62-.5.565.565,0,0,1,.5.62c-.012.108-1.02,11.1,7.4,30.815,1.713,4.013,3.774,7.973,5.955,12.165,8.583,16.488,18.31,35.178,9.134,63.941A.566.566,0,0,1,156.841,372.449Z" transform="translate(-133.71 -264.512)" fill="#2c3f70"/>
            </g>
            <g id="Group_57288" data-name="Group 57288" transform="translate(79.059 229.442)">
              <path id="Path_103911" data-name="Path 103911" d="M118.456,350.747a.565.565,0,0,1-.249-1.072c2.734-1.336,3.91-6.316,3.922-6.367a.565.565,0,1,1,1.1.254c-.053.225-1.308,5.555-4.527,7.129A.575.575,0,0,1,118.456,350.747Z" transform="translate(-117.89 -342.87)" fill="#2c3f70"/>
            </g>
          </g>
        </g>
      </g>
      <path id="Path_103913" data-name="Path 103913" d="M159.067,186.2s8.835,14.723,12.883,38.28,2.946,54.476-36.439,60.365c-15.827,2.577-19.508,0-19.508,0a151.016,151.016,0,0,0-1.841,22.821c0,12.147,18.772,35.336,20.613,41.225s1.472,8.466,1.472,8.466-8.835,11.042-13.988,12.883S65.575,338.22,49.011,318.712c0,0,15.827-4.785,24.294-8.834s13.252-5.522,13.988-17.668-1.841-28.342-1.841-28.342S75.146,265.34,66.679,255.4s1.841-21.349,9.938-20.613S87.66,250.4,87.66,250.4l7.361-4.2s-7.361-16.931-8.465-25.766C86.556,220.434,103.856,197.245,159.067,186.2Z" transform="translate(7.066 19.177)" fill="#ffb78c"/>
      <path id="Path_103914" data-name="Path 103914" d="M67.975,237.589a4.909,4.909,0,0,1,1.5-1.831,4.129,4.129,0,0,1,2.466-.853,4.309,4.309,0,0,1,2.59.922,7.664,7.664,0,0,1,1.732,1.815,15.018,15.018,0,0,1,2.509,8.783c-.815-1.314-1.5-2.612-2.193-3.882a37.966,37.966,0,0,0-2.158-3.594,8.943,8.943,0,0,0-1.229-1.461,3.093,3.093,0,0,0-1.408-.833A5.675,5.675,0,0,0,67.975,237.589Z" transform="translate(10.802 28.769)" fill="#ce734e"/>
      <path id="Path_103915" data-name="Path 103915" d="M118.574,206.648a10.487,10.487,0,0,1-3.926,2.822c-2.454.982-3.435,3.681-5.644,3.926s-3.8-4.294,1.718-8.1S119.311,203.581,118.574,206.648Z" transform="translate(18.481 22.534)" fill="#162655"/>
      <path id="Path_103916" data-name="Path 103916" d="M144.834,197.047a14.567,14.567,0,0,0-7.485,0c-3.926,1.1-4.048,5.889,0,5.52s4.417-1.227,7.485-.982S147.908,197.517,144.834,197.047Z" transform="translate(23.877 21.216)" fill="#162655"/>
      <path id="Path_103917" data-name="Path 103917" d="M134.359,212.239c.956,1.112,1.9,2.186,2.9,3.189a23.4,23.4,0,0,0,3.123,2.692,12.574,12.574,0,0,0,3.6,1.654c.668.224,1.335.449,1.993.65l.976.274.463.105.2.035.08.011s.085,0-.06.012l1.207,1.189a13.07,13.07,0,0,1-.841,2.795,11.43,11.43,0,0,1-1.495,2.459,7.728,7.728,0,0,1-2.2,1.84,6.29,6.29,0,0,1-2.662.764,8.828,8.828,0,0,0,2.141-1.484,8.32,8.32,0,0,0,1.489-1.974,11.089,11.089,0,0,0,.937-2.273,11.249,11.249,0,0,0,.488-2.362L147.906,223a1.934,1.934,0,0,1-.33.011l-.189-.013-.33-.04c-.206-.031-.4-.067-.595-.107-.383-.078-.75-.171-1.112-.275-.724-.2-1.423-.436-2.114-.688a19.346,19.346,0,0,1-2.107-.873,11.6,11.6,0,0,1-1.956-1.343,15.59,15.59,0,0,1-2.922-3.448A16.64,16.64,0,0,1,134.359,212.239Z" transform="translate(23.877 24.305)" fill="#ce734e"/>
      <path id="Path_103918" data-name="Path 103918" d="M121.52,218.9c1.456,3.542,1.061,7.06-.882,7.858s-4.7-1.424-6.154-4.966-1.061-7.059.882-7.857S120.065,215.355,121.52,218.9Z" transform="translate(19.789 24.606)" fill="#59313e"/>
      <path id="Path_103919" data-name="Path 103919" d="M147.2,210.018c1.455,3.541,1.06,7.058-.882,7.857s-4.7-1.424-6.154-4.965-1.061-7.06.882-7.858S145.743,206.476,147.2,210.018Z" transform="translate(24.847 22.857)" fill="#59313e"/>
      <path id="Path_103920" data-name="Path 103920" d="M141.972,237.617s-4.417,1.381-11.287-1.7-10.429-1.975-12.024,2.011,3.086,12.8,16.809,12.942,12.514-9.57,11.656-11.656S144.318,237.314,141.972,237.617Z" transform="translate(20.726 28.619)" fill="#932047"/>
      <path id="Path_103921" data-name="Path 103921" d="M141.727,237.616s-4.417,1.381-11.287-1.7c-5.513-2.474-8.89-2.244-10.835,0,13.212,9.954,22,6.591,22,6.591l1.842-5.056C142.908,237.474,142.333,237.537,141.727,237.616Z" transform="translate(20.971 28.62)" fill="#fff"/>
      <path id="Path_103922" data-name="Path 103922" d="M131.677,249.939c-2.5-9.445-13.016-12.636-13.016-12.636C117.223,240.893,120.905,248.381,131.677,249.939Z" transform="translate(20.726 29.242)" fill="#ed8470"/>
      <path id="Path_103923" data-name="Path 103923" d="M70.961,242.483s-16.073-17.409-17.914-41.009,7.67-32.265,12.577-37.573,16.685-12.529,31.41-12.244c0,0-19.692,11.905-27.79,34.91s6.625,55.028,6.625,55.028A6.5,6.5,0,0,0,70.961,242.483Z" transform="translate(7.815 12.371)" fill="#ffdc5e"/>
      <path id="Path_103924" data-name="Path 103924" d="M140.957,186.236a19.43,19.43,0,0,1,8.344.613c4.171,1.35-5.372,5.207-5.372,5.207S141.94,187.34,140.957,186.236Z" transform="translate(25.177 19.144)" fill="#101d3d"/>
      <path id="Path_103925" data-name="Path 103925" d="M110.006,272.068a51.49,51.49,0,0,1-30.551-20.98s1.3,8.429,1.608,14.391c0,0,3.67,17.391,27.165,25.486C108.228,290.965,107.8,285.319,110.006,272.068Z" transform="translate(13.063 31.957)" fill="#ff9360"/>
      <path id="Path_103926" data-name="Path 103926" d="M169.579,179.835s11.778-7.363,4.662-17.423-17.905-3.435-36.8-10.8-28.959-30.183-5.157-49.323,76.56-16.687,100.609,0,14.968,45.4-15.46,55.949c-21.051,7.3-21.839,4.417-21.839,4.417S189.456,176.89,169.579,179.835Z" transform="translate(20.725 0)" fill="#8c6df2"/>
    </g>
  </g>
</svg>
