<svg xmlns="http://www.w3.org/2000/svg" width="190" height="413.999" viewBox="0 0 190 413.999">
  <g id="t1-i10" transform="translate(-285 -14732)">
    <path id="Path_135717" data-name="Path 135717" d="M105-97H229a66,66,0,0,1,66,66V91H105Z" transform="translate(180 15024)" fill="#ffdc72" opacity="0.5"/>
    <g id="Group_92522" data-name="Group 92522" transform="translate(4037.633 12491.894)">
      <g id="Group_92431" data-name="Group 92431" transform="translate(-3752.396 2635.947)" opacity="0.25">
        <g id="Group_92430" data-name="Group 92430">
          <g id="Group_92429" data-name="Group 92429">
            <path id="Path_135445" data-name="Path 135445" d="M-3615.724,2711.811c0,5.014-30.594,9.079-68.335,9.079s-68.337-4.065-68.337-9.079,30.6-9.08,68.337-9.08S-3615.724,2706.8-3615.724,2711.811Z" transform="translate(3752.396 -2702.731)" fill="#231f20"/>
          </g>
        </g>
      </g>
      <path id="Path_135446" data-name="Path 135446" d="M-3638.332,2344.191c4.949,3.24,18.526,36.593,27.339,57.453l35.463,17.874s-2.659,7.673-2.417,8.01c-18.425-2.281-38.668-11.049-41.437-12.6-3.572-2-28.93-46.965-28.93-46.965Z" transform="translate(-15.026 -15.026)" fill="#fab57a"/>
      <path id="Path_135447" data-name="Path 135447" d="M-3607.168,2403.571l-3.824-1.927c-8.814-20.86-22.39-54.213-27.339-57.453l-9.981,23.771s20.126,35.69,27.039,44.876C-3616.114,2410.674-3611.594,2406.95-3607.168,2403.571Z" transform="translate(-15.026 -15.026)" fill="#e58052"/>
      <path id="Path_135448" data-name="Path 135448" d="M-3622.95,2396.525c2.2-2.09,4.94-4,7.179-6.243-8.351-19.85-18.442-43.395-22.561-46.092l-9.981,23.771s11.342,20.112,19.924,34.033C-3626.613,2400.135-3624.815,2398.3-3622.95,2396.525Z" transform="translate(-15.026 -15.026)" fill="#5038a1"/>
      <path id="Path_135449" data-name="Path 135449" d="M-3552.312,2429.751c-1.479.116-2.192.609-3.754.776a4.417,4.417,0,0,0-.864.2c4.395.962,20.92,4.822,19.315,9.878-3.313,10.437-22.487,5.281-22.487,5.281-10.3-.895-10.729-4.638-10.049-9.981a9.051,9.051,0,0,1,.68-2.5c.912-1.445,2.823-4.21,4.93-5.208,2.779-1.317,13.623-2.025,15.023-2.368S-3546.987,2429.333-3552.312,2429.751Z" transform="translate(-26.279 -26.808)" fill="#fab57a"/>
      <path id="Path_135450" data-name="Path 135450" d="M-3628.617,2409.287s12.3-20.109,16.025-17.13c1.382,1.106,6.079,13.539,6.079,13.539s-12.157,12.156-16.3,12.156S-3628.617,2409.287-3628.617,2409.287Z" transform="translate(-17.868 -21.907)" fill="#e6e7e8"/>
      <path id="Path_135451" data-name="Path 135451" d="M-3692.67,2650.75s13.594-55.939,20.024-69.442,6.751-22.5,10.93-29.577,21.492-63.013,16.349-82.945l-33.114,23.469-5.419,55.3s-2.25,18.646-4.178,22.182-6.752,15.753-9.324,27.97,5.053,28.935-3.627,38.9-1.287,11.575-3.537,19.933-5.786,18-1.929,20.254,13.181,2.893,13.824-.321S-3695.242,2660.394-3692.67,2650.75Z" transform="translate(-6.379 -33.012)" fill="#e78052"/>
      <path id="Path_135452" data-name="Path 135452" d="M-3645.612,2450.61c.936,8.086,1.677,24.917.261,29.323-2.894,9-27.006,15.753-27.006,15.753s.965,7.073,1.608,18.646,2.894,33.113,1.286,38.579,1.469,54.653,4.042,66.227,6.292,24.754,9.185,35.043,8.68,18.324,9.323,21.539-5.144,3.215-13.824,2.251-8.359-7.395-8.68-13.181-6.752-8.037-7.073-11.573,1.929-11.574,1.929-17.361-15.8-59.476-14.191-81.98-12.216-33.757-16.4-61.4c-3.073-20.327,4.4-36.963,8.5-43.368C-3692.117,2445.274-3658.4,2443.564-3645.612,2450.61Z" transform="translate(-6.717 -29.691)" fill="#fab57a"/>
      <path id="Path_135453" data-name="Path 135453" d="M-3691.4,2534.04c-3.934-12.026-10.969-23.17-13.75-41.57-3.073-20.327,4.4-36.963,8.5-43.368,4.527-3.828,38.248-5.538,51.033,1.507.509,4.39.956,11.35,1.036,17.507,1.77,15.82-2.915,47.339-11.7,66.06C-3665.139,2531.5-3683.448,2530.836-3691.4,2534.04Z" transform="translate(-6.717 -29.691)" fill="#8c6df2"/>
      <path id="Path_135454" data-name="Path 135454" d="M-3654.354,2462.607c-6.531,2.2-14.2,2.167-20.959,1.43a107.487,107.487,0,0,1-24.859-6.273,53.186,53.186,0,0,1,4.35-8.661c4.527-3.828,38.248-5.538,51.033,1.507.208,1.788.4,4.012.568,6.423C-3647.487,2459.12-3650.688,2461.371-3654.354,2462.607Z" transform="translate(-7.539 -29.691)" fill="#5038a1"/>
      <path id="Path_135455" data-name="Path 135455" d="M-3670.651,2678.744c.584.351,1.163.713,1.726,1.1,5.395,3.768,6.106,8.722,8.8,14.194,3.127,6.357,8.636,6.561,14.54,7.559,1.8,3.511,3.317,6.2,3.626,7.748.644,3.215-5.143,3.215-13.823,2.251s-8.359-7.395-8.68-13.181a9.249,9.249,0,0,0-2.709-5.745c-.987,4.9.5,17.033.5,17.033h-2.971a171.709,171.709,0,0,0-1.892-22.862C-3671.7,2685.029-3671.191,2682.021-3670.651,2678.744Z" transform="translate(-11.668 -63.321)" fill="#12263f"/>
      <path id="Path_135456" data-name="Path 135456" d="M-3704.565,2685.262a12.475,12.475,0,0,0,.436-2.952,14.414,14.414,0,0,0-2.584,4.822,2.3,2.3,0,0,1-1.357-1.809,44.179,44.179,0,0,0,2.755-10.473c-.152-1.934.278-4.081,2.378-7.076.539,2.985,2.131,5.9,2.423,9.124a32.847,32.847,0,0,1-.889,9.312c-.328,1.732-.771,3.877-.158,5.627,1.164,3.321,4.677,3.943,8.255,3.875.4,4.384.936,7.984.635,9.482-.642,3.215-9.965,2.572-13.822.321S-3706.815,2693.621-3704.565,2685.262Z" transform="translate(-6.379 -61.738)" fill="#12263f"/>
      <path id="Path_135457" data-name="Path 135457" d="M-3700.86,2267.227s-17.75,34.645-4.878,46.994,21.742,13.742,29.047,13.742,24.352-10.959,24.7-17.569,2.672-22.673-7.273-43.167Z" transform="translate(-6.06 -3.915)" fill="#2f1c0d"/>
      <path id="Path_135458" data-name="Path 135458" d="M-3665.511,2324.575s4-4.957,8.262-3.392,9.48,6.436,14.263,5.914c0,0-3.827,5.74-9.915,4S-3665.511,2324.575-3665.511,2324.575Z" transform="translate(-12.543 -11.66)" fill="#5038a1"/>
      <path id="Path_135459" data-name="Path 135459" d="M-3696.917,2403.52c-.8-5.723-19.741-61.973-19.741-61.973s19.887-11.08,21.819-11.886c6.963-2.9.963-20.873.963-20.873l18.237.648,5.206,17.937s19.251,9.894,21.6,11.112.26.321-.131,9.593c-.256,6.068,3.806,13.427,3.969,22.268s-6.425,20.419-6.425,20.422c2.624,20.189,10.027,35.189,10.027,37.277-.017,5.725-11.728,7.979-24.978,8.291-1.064.025-3.216-4.136-3.216-4.136s-2.319,4.163-3.479,4.137c-15.342-.334-30.491-2.855-30.493-5.316C-3703.562,2431.02-3696.122,2409.243-3696.917,2403.52Z" transform="translate(-5.159 -9.915)" fill="#8c6df2"/>
      <path id="Path_135460" data-name="Path 135460" d="M-3674.557,2347.462c-2.073-1.89-4.425-3.388-6.209-5.595a84.351,84.351,0,0,1-9.041-12.957c5.017-4.411-.228-20.122-.228-20.122l18.238.648,5.206,17.937,2.635,1.354c-.9,7.709-2.585,16.884-6.207,23.492C-3670.242,2352.135-3673.367,2348.543-3674.557,2347.462Z" transform="translate(-9.002 -9.915)" fill="#fab57a"/>
      <path id="Path_135461" data-name="Path 135461" d="M-3689.806,2328.91a48.716,48.716,0,0,0,2.714,4.514c8.464,4.816,15.822,5.513,22.268,1.453.353-2.1.638-4.174.868-6.151l-2.635-1.354-5.206-17.937-18.238-.648S-3684.79,2324.5-3689.806,2328.91Z" transform="translate(-9.002 -9.915)" fill="#e68052"/>
      <path id="Path_135462" data-name="Path 135462" d="M-3664.023,2327.082s8.529,3.617,13.994,15.656c3.017,6.647-.613.743-.613.743l-2.274-3.98s-13.078,13.53-13.953,15.366l3.518-24.4Z" transform="translate(-12.347 -12.556)" fill="#e6e7e8"/>
      <path id="Path_135463" data-name="Path 135463" d="M-3687.6,2321.54s-.979,1.118-.979,1.652,1.3,1.725,1.043,2.526a3.672,3.672,0,0,0-.087,2.879c.522.89,1.392,4.6,12.351,4.956s10.305-2.963,9.522-4.12a4.023,4.023,0,0,1-.13-3.652c.391-.534-.456-1.6-1.109-1.958S-3679.126,2325.547-3687.6,2321.54Z" transform="translate(-9.212 -11.756)" fill="#8c6df2"/>
      <path id="Path_135464" data-name="Path 135464" d="M-3688.587,2327.435s-4.011,3.972-4.5,5.47c-.632,1.927-.175,14.606-.175,14.606l6.734-5.16,5.686,3.673,10.137,8.869S-3687.013,2334.083-3688.587,2327.435Z" transform="translate(-8.513 -12.607)" fill="#e6e7e8"/>
      <path id="Path_135465" data-name="Path 135465" d="M-3659.006,2373.5a58.814,58.814,0,0,1,13.046.173s-5.392-6.957-8-7.828S-3659.006,2373.5-3659.006,2373.5Z" transform="translate(-13.482 -18.142)" fill="#e6e7e8"/>
      <g id="Group_92432" data-name="Group 92432" transform="translate(-3674.713 2353.954)">
        <path id="Path_135466" data-name="Path 135466" d="M-3644.573,2376.2c-10.625-2-16.312-.184-16.369-.166l-.664-1.98c.246-.083,6.195-2.023,17.421.094Z" transform="translate(3661.607 -2373.162)" fill="#5038a1"/>
      </g>
      <g id="Group_92433" data-name="Group 92433" transform="translate(-3702.405 2345.774)">
        <path id="Path_135467" data-name="Path 135467" d="M-3685.36,2365.2l-1.261-1.6h-7.341c0,.057-.008.115-.008.173a2.58,2.58,0,0,0,2.221,2.815h12.778a2.579,2.579,0,0,0,2.221-2.815c0-.058,0-.116-.008-.173h-7.342Z" transform="translate(3693.971 -2363.602)" fill="#ffe177"/>
      </g>
      <g id="Group_92467" data-name="Group 92467" transform="translate(-3708.732 2249.254)">
        <g id="Group_92457" data-name="Group 92457" transform="translate(0 9.658)">
          <g id="Group_92456" data-name="Group 92456">
            <g id="Group_92435" data-name="Group 92435" transform="translate(39.538 21.833)">
              <g id="Group_92434" data-name="Group 92434">
                <path id="Path_135468" data-name="Path 135468" d="M-3654.727,2292.948c-1.057,3.555-.1,6.977,2.143,7.644s4.913-1.678,5.969-5.233.1-6.978-2.142-7.645S-3653.67,2289.392-3654.727,2292.948Z" transform="translate(3655.157 -2287.601)" fill="#e78052"/>
              </g>
            </g>
            <g id="Group_92437" data-name="Group 92437" transform="translate(0 21.337)">
              <g id="Group_92436" data-name="Group 92436">
                <path id="Path_135469" data-name="Path 135469" d="M-3701.115,2294.563c.807,3.62,3.308,6.145,5.591,5.636s3.477-3.855,2.671-7.475-3.309-6.145-5.591-5.637S-3701.919,2290.942-3701.115,2294.563Z" transform="translate(3701.365 -2287.022)" fill="#e78052"/>
              </g>
            </g>
            <g id="Group_92439" data-name="Group 92439" transform="translate(4.82)">
              <g id="Group_92438" data-name="Group 92438">
                <path id="Path_135470" data-name="Path 135470" d="M-3676.046,2262.087c18.3.2,19.224,17.384,19.268,19.455,0,.125,0,.246-.01.372-.131,1.911-1.388,19.58-3.187,22.938-1.491,2.785-12.394,11.778-16.77,11.778s-14.857-9.317-16.287-12.133c-1.726-3.4-2.6-21.089-2.695-23-.006-.126-.007-.247,0-.372C-3695.639,2279.052-3694.35,2261.89-3676.046,2262.087Z" transform="translate(3695.732 -2262.085)" fill="#fbbe7d"/>
              </g>
            </g>
            <path id="Path_135471" data-name="Path 135471" d="M-3692.626,2270.62h0c.007-.013.016-.025.025-.039a18.376,18.376,0,0,1,1.017-1.531c.1-.139.222-.271.33-.409.276-.351.561-.7.871-1.033.174-.189.363-.37.548-.554.278-.273.567-.54.87-.8.223-.188.45-.375.688-.555.314-.239.648-.463.99-.684.257-.167.506-.338.778-.492.425-.242.884-.458,1.349-.669a21.065,21.065,0,0,1,9.116-1.768c18.3.2,19.223,17.384,19.268,19.455,0,.125,0,.246-.01.372-.018.247-.054.766-.106,1.475a123.133,123.133,0,0,0-14.906-7.241c-5.457-2.128-10.565-3.086-15.967-4.325a64.848,64.848,0,0,1-7.8,12.695c-.089-1.506-.145-2.621-.163-3.021-.006-.126-.007-.247,0-.372A24.118,24.118,0,0,1-3692.626,2270.62Z" transform="translate(3700.552 -2262.085)" fill="#e78052"/>
            <g id="Group_92450" data-name="Group 92450" transform="translate(13.885 24.902)">
              <g id="Group_92444" data-name="Group 92444">
                <g id="Group_92443" data-name="Group 92443">
                  <g id="Group_92442" data-name="Group 92442">
                    <g id="Group_92441" data-name="Group 92441">
                      <g id="Group_92440" data-name="Group 92440">
                        <path id="Path_135472" data-name="Path 135472" d="M-3682.966,2291.2c1.282-.129,2.392,1.253,2.479,3.088s-.884,3.426-2.166,3.556-2.392-1.252-2.479-3.087S-3684.249,2291.326-3682.966,2291.2Z" transform="translate(3685.138 -2291.188)" fill="#231f20"/>
                      </g>
                    </g>
                  </g>
                </g>
              </g>
              <g id="Group_92449" data-name="Group 92449" transform="translate(16.762 0.18)">
                <g id="Group_92448" data-name="Group 92448">
                  <g id="Group_92447" data-name="Group 92447">
                    <g id="Group_92446" data-name="Group 92446">
                      <g id="Group_92445" data-name="Group 92445">
                        <path id="Path_135473" data-name="Path 135473" d="M-3663.377,2291.408c1.283-.129,2.394,1.253,2.48,3.088s-.884,3.426-2.166,3.555-2.393-1.253-2.479-3.087S-3664.659,2291.537-3663.377,2291.408Z" transform="translate(3665.548 -2291.399)" fill="#231f20"/>
                      </g>
                    </g>
                  </g>
                </g>
              </g>
            </g>
            <g id="Group_92455" data-name="Group 92455" transform="translate(23.912 32.304)">
              <g id="Group_92454" data-name="Group 92454">
                <g id="Group_92453" data-name="Group 92453">
                  <g id="Group_92452" data-name="Group 92452">
                    <g id="Group_92451" data-name="Group 92451">
                      <path id="Path_135474" data-name="Path 135474" d="M-3672.732,2303.733c.309.514.291.423.08.811a4.478,4.478,0,0,1-.7.738c-.455.479,1.519.374,1.868.006.291-.306.992-.809,1.138-1.221.173-.491-.177-.679-.526-.978a6.092,6.092,0,0,1-1.965-3.187C-3672.963,2299.4-3673.786,2301.982-3672.732,2303.733Z" transform="translate(3673.42 -2299.84)" fill="#e78052"/>
                    </g>
                  </g>
                </g>
              </g>
            </g>
          </g>
          <path id="Path_135475" data-name="Path 135475" d="M-3666.967,2310.218a50.077,50.077,0,0,0-15.5,0s3.96,6.675,7.693,6.675S-3666.967,2310.218-3666.967,2310.218Z" transform="translate(3698.637 -2268.946)" fill="#fff"/>
        </g>
        <path id="Path_135476" data-name="Path 135476" d="M-3674.955,2251.853c-18.416-5.054-20.085,9.679-20.085,9.679a9.469,9.469,0,0,0-4.327,3.323c-1.314,2.217-.687,14.026,2.925,18.413,2.762-3.915,6.9-15.419,6.9-15.419s11.6-.354,32.169,14.882C-3653.074,2269.145-3658.285,2256.427-3674.955,2251.853Z" transform="translate(3701.168 -2250.797)" fill="#3e2511"/>
        <g id="Group_92466" data-name="Group 92466" transform="translate(8.481 26.555)">
          <g id="Group_92461" data-name="Group 92461">
            <g id="Group_92460" data-name="Group 92460">
              <g id="Group_92459" data-name="Group 92459">
                <g id="Group_92458" data-name="Group 92458">
                  <path id="Path_135477" data-name="Path 135477" d="M-3679.145,2283.361c-.119-.017-.24-.04-.357-.068-7.132-1.545-10.759,2.215-10.662,2.045a1.883,1.883,0,0,1-1.093.487c-.278-.021-.263-.292.064-.606.009.176,3.177-4.642,11.7-3.07C-3678.907,2282.284-3678.715,2283.425-3679.145,2283.361Z" transform="translate(3691.453 -2281.832)" fill="#3e2511"/>
                </g>
              </g>
            </g>
          </g>
          <g id="Group_92465" data-name="Group 92465" transform="translate(19.49 1.647)">
            <g id="Group_92464" data-name="Group 92464">
              <g id="Group_92463" data-name="Group 92463">
                <g id="Group_92462" data-name="Group 92462">
                  <path id="Path_135478" data-name="Path 135478" d="M-3668.411,2285.349a2.656,2.656,0,0,0,.321-.069,11.91,11.91,0,0,1,10.174,1.608,1.873,1.873,0,0,0,1.118.422c.275-.037.237-.309-.113-.6.034.117-3.642-4.309-11.341-2.526C-3668.774,2284.323-3668.8,2285.414-3668.411,2285.349Z" transform="translate(3668.675 -2283.756)" fill="#3e2511"/>
                </g>
              </g>
            </g>
          </g>
        </g>
      </g>
      <g id="Group_92469" data-name="Group 92469" transform="translate(-3707.062 2240.106)">
        <g id="Group_92468" data-name="Group 92468">
          <path id="Path_135479" data-name="Path 135479" d="M-3677.373,2240.122a6.975,6.975,0,0,0-1.1.012,7,7,0,0,0-1.1-.012c-11.7.782-21.118,21.133-19.7,23.189,1.173,1.7,15.726,5.855,20.8,5.8,5.072.059,19.624-4.1,20.8-5.8C-3656.254,2261.255-3665.671,2240.9-3677.373,2240.122Z" transform="translate(3699.413 -2240.106)" fill="#8c6df2"/>
        </g>
      </g>
      <g id="Group_92470" data-name="Group 92470" transform="translate(-3695.455 2240.106)">
        <path id="Path_135480" data-name="Path 135480" d="M-3667.182,2243.8a14.81,14.81,0,0,0-8.231-3.681,6.989,6.989,0,0,0-1.1.012,7,7,0,0,0-1.1-.012,14.811,14.811,0,0,0-8.232,3.681c3.654,2.22,7.273,3.853,9.333,3.8C-3674.457,2247.656-3670.835,2246.023-3667.182,2243.8Z" transform="translate(3685.848 -2240.106)" fill="#5038a1"/>
      </g>
      <g id="Group_92471" data-name="Group 92471" transform="translate(-3704.685 2254.049)">
        <path id="Path_135481" data-name="Path 135481" d="M-3678.037,2264.156h-.092c-3.708,0-13.086-4.9-17.53-7.755q-.525.924-.976,1.809c4.944,3.2,14.332,8.033,18.492,8.033h.118c4.179,0,13.57-4.838,18.515-8.033q-.449-.887-.975-1.809C-3664.931,2259.259-3674.314,2264.156-3678.037,2264.156Z" transform="translate(3696.635 -2256.4)" fill="#ffe177"/>
      </g>
      <path id="Path_135482" data-name="Path 135482" d="M-3655.8,2506.165l-12.919-3.961c2.932,5.6,4.785,12.525,6.2,19.98C-3661.033,2516.111-3659.2,2510.373-3655.8,2506.165Z" transform="translate(-12.08 -37.836)" fill="#5038a1"/>
      <path id="Path_135483" data-name="Path 135483" d="M-3710.524,2429.007s-10.335-5.684-17.052-11.368-17.569-9.3-17.052,0,19.729,22.979,34.151,22.857Z" transform="translate(-1.119 -24.806)" fill="#e58052"/>
      <g id="Group_92475" data-name="Group 92475" transform="translate(-3715.396 2389.336)">
        <g id="Group_92474" data-name="Group 92474">
          <g id="Group_92473" data-name="Group 92473">
            <g id="Group_92472" data-name="Group 92472">
              <path id="Path_135484" data-name="Path 135484" d="M-3705.353,2440.869c-3.808-2.694-4.564-6.643-3.107-10.583,1.7-1.754,12.645-12.71,12.645-12.71l8.233-3.062s5.663,1.879,6.371,3.413-2.324,1.732-2.324,1.732l-4.167-.758a42.253,42.253,0,0,0-5.1,1.445c-1.293.589-2.935,3.272-2.935,3.272a13.429,13.429,0,0,1,3.51-.886,45.04,45.04,0,0,1,6.138,1.758s4.683,2.992,5.347,4.335-2.01,2.348-3.583,1.174-2.638-1.827-2.638-1.827l-5-.971-4.455.574,5.743,1.923,4.993,2.8a12.306,12.306,0,0,1,3.2,2.781c.74,1.255-1.349,1.585-1.349,1.585l-3.821-1.173-5.345-2.036-5.2-.843,5.956,2.261s3.418,2.355,3.724,3.233-1.275,1.5-1.275,1.5l-5.109-2.138C-3700.715,2436.453-3703.273,2440.919-3705.353,2440.869Z" transform="translate(3709.153 -2414.513)" fill="#fab57a"/>
            </g>
          </g>
        </g>
      </g>
      <path id="Path_135485" data-name="Path 135485" d="M-3720.7,2347.074s-24.7,26.581-23.929,58.876l9.3.775,24.286-34.793S-3704.78,2348.655-3720.7,2347.074Z" transform="translate(-1.119 -15.442)" fill="#8c6df2"/>
      <path id="Path_135486" data-name="Path 135486" d="M-3728.863,2405.012s-19.505-6.351-21.013-2.154c-.8,2.232,3.249,21.714,6.674,19.076-.034-2.03,8.356-9.17,10.929-8.523C-3728.514,2414.356-3728.863,2405.012-3728.863,2405.012Z" transform="translate(-0.349 -23.288)" fill="#e6e7e8"/>
    </g>
  </g>
</svg>
