<svg xmlns="http://www.w3.org/2000/svg" width="150" height="150" viewBox="0 0 150 150">
  <g id="t1-ic2" transform="translate(5865 5346)">
    <rect id="Rectangle_12815" data-name="Rectangle 12815" width="150" height="150" rx="13" transform="translate(-5865 -5346)" fill="#113f6b"/>
    <g id="Navigation" transform="translate(-5859.71 -5282.683)">
      <g id="GlobalNav_Guest_Large" data-name="GlobalNav/Guest/Large" transform="translate(0.068 0.226)">
        <g id="LOGO" transform="translate(0 0)">
          <g id="Group" transform="translate(0 0)">
            <path id="Fill-65" d="M74.518,14.318,72.89,10.744l-1.641,3.574ZM71.375,8.212h3.031C74.932,9.346,79.3,18.674,79.3,18.674H76.527l-1.14-2.451h-5.03l-1.109,2.453H66.466Z" transform="translate(-20.923 -2.735)" fill="#fff" fill-rule="evenodd"/>
            <path id="Fill-66" d="M123.5,11.627a3.661,3.661,0,0,0-2.609.916l-.143-.757h-2.371a4.418,4.418,0,0,1,.251,1.276v6.686h2.344V15.111c0-1.241.774-1.886,2.529-1.886.965,0,1.556.316,1.556,1.886v4.638h2.335V15.111c0-2.366-.77-3.484-3.891-3.484" transform="translate(-37.226 -3.807)" fill="#fff" fill-rule="evenodd"/>
            <path id="Fill-67" d="M136.513,14.978c.136-.981.586-1.733,2.435-1.733a1.756,1.756,0,0,1,1.922,1.733Zm2.435-3.312c-3.981,0-4.867,1.849-4.867,4.114,0,2.29.868,4.145,5.061,4.145a17.478,17.478,0,0,0,3.3-.351c.063-.406.2-1.286.243-1.588a26.3,26.3,0,0,1-3.538.354c-1.949,0-2.471-.737-2.63-1.76h6.738v-.8C143.251,12.927,141.713,11.666,138.948,11.666Z" transform="translate(-42.16 -3.819)" fill="#fff" fill-rule="evenodd"/>
            <path id="Fill-68" d="M23.75,18.351c-1.957,0-2.539-.966-2.539-2.566,0-1.571.581-2.532,2.539-2.532s2.532.961,2.532,2.532c0,1.6-.586,2.566-2.532,2.566m0-6.694c-2.926,0-4.877,1.275-4.877,4.128,0,2.887,1.951,4.146,4.877,4.146s4.865-1.259,4.865-4.146c0-2.853-1.943-4.128-4.865-4.128" transform="translate(-5.974 -3.817)" fill="#fff" fill-rule="evenodd"/>
            <path id="Fill-69" d="M57.651,16.718c0,1.476-1.426,1.605-2.732,1.605-.451,0-1.163-.1-1.163-.967,0-.574.789-.959,1.748-.959h2.146Zm2.334-2.53c0-1.6-1.73-2.561-4.285-2.561a12.349,12.349,0,0,0-3.488.7c-.053.334-.219,1.385-.253,1.605a19.339,19.339,0,0,1,3.741-.707c1.279,0,1.951.433,1.951,1.059v.675s-1.58-.153-2.146-.153c-2.55,0-4.093.9-4.093,2.551,0,2.087,2.323,2.543,3.508,2.543a4.156,4.156,0,0,0,2.828-.776l.135.625h2.343a4.866,4.866,0,0,1-.24-1.425Z" transform="translate(-16.194 -3.807)" fill="#fff" fill-rule="evenodd"/>
            <path id="Fill-70" d="M6.444,7.764c2.747,0,4.453.857,5.4,2.211l-2.454.945A3.308,3.308,0,0,0,6.475,9.677H6.414a3.336,3.336,0,0,0-2.879,1.181,3.8,3.8,0,0,0-.724,2.325v.149h0a3.932,3.932,0,0,0,.726,2.3,3.339,3.339,0,0,0,2.879,1.181h.061a3.331,3.331,0,0,0,2.889-1.2l2.48.943c-.952,1.335-2.677,2.153-5.388,2.153H6.444c-2.41,0-4.026-.631-5.017-1.718A5.346,5.346,0,0,1,.068,13.28v-.1A5.322,5.322,0,0,1,1.425,9.506c.991-1.084,2.608-1.744,5.019-1.742" transform="translate(-0.068 -2.594)" fill="#fff" fill-rule="evenodd"/>
            <path id="Fill-71" d="M107.437,17.414v-9.2H105.1v9.2a4.04,4.04,0,0,0,.248,1.264h2.342a4.313,4.313,0,0,1-.25-1.264" transform="translate(-33.056 -2.737)" fill="#fff" fill-rule="evenodd"/>
            <path id="Fill-72" d="M95.928,15.1c.01-1.225.923-1.871,2.534-1.871.268,0,1.322.133,1.774.192-.021-.2-.183-1.193-.25-1.6a10.478,10.478,0,0,0-1.524-.189,3.669,3.669,0,0,0-2.569.878l-.2-.719H93.341a4.587,4.587,0,0,1,.247,1.256v6.7h2.34Z" transform="translate(-29.364 -3.807)" fill="#fff" fill-rule="evenodd"/>
            <path id="Fill-73" d="M40.392,18.335c-1.985,0-2.532-1.127-2.532-2.561.042-1.525.547-2.536,2.532-2.536,1.8,0,2.146,1.122,2.146,2.536,0,1.434-.349,2.561-2.146,2.561m0-6.695a4.763,4.763,0,0,0-2.59.85s-.125-.471-.177-.688H35.271a5.13,5.13,0,0,1,.251,1.436v9.049H37.86V19.136a4.343,4.343,0,0,0,2.532.784c3.922,0,4.488-1.857,4.488-4.146,0-2.266-.566-4.134-4.488-4.134" transform="translate(-11.125 -3.811)" fill="#fff" fill-rule="evenodd"/>
            <path id="Fill-74" d="M156.555,12.052v1.8a6.186,6.186,0,0,0-2.926-.743,3.067,3.067,0,0,0-1.261.2.644.644,0,0,0-.425.6c0,.376.61.679,1.82.915l.092.019.717.138a4.023,4.023,0,0,1,2,.862,2.109,2.109,0,0,1,.631,1.61,2.022,2.022,0,0,1-.965,1.838,5.5,5.5,0,0,1-2.9.608,13.648,13.648,0,0,1-1.765-.117,15.606,15.606,0,0,1-1.824-.372V17.593a8.389,8.389,0,0,0,1.679.6,6.863,6.863,0,0,0,1.653.211,3.243,3.243,0,0,0,1.326-.215.678.678,0,0,0,.452-.62.706.706,0,0,0-.319-.608,5.281,5.281,0,0,0-1.52-.447l-.692-.131a4.324,4.324,0,0,1-2.078-.833,1.934,1.934,0,0,1-.655-1.526,1.974,1.974,0,0,1,.993-1.769,5.142,5.142,0,0,1,2.8-.639A12.673,12.673,0,0,1,155,11.72a10.9,10.9,0,0,1,1.556.332" transform="translate(-47.031 -3.803)" fill="#fff" fill-rule="evenodd"/>
            <path id="Fill-75" d="M113.024,10.1a1.887,1.887,0,0,0,1.041-.2.882.882,0,0,0,.28-.75.873.873,0,0,0-.268-.727,2.7,2.7,0,0,0-2.082.009.894.894,0,0,0-.273.754.845.845,0,0,0,.261.719,1.917,1.917,0,0,0,1.041.2m1.172,7.314v-6.7h-2.335v6.7a3.915,3.915,0,0,0,.252,1.264h2.334a4.271,4.271,0,0,1-.252-1.264" transform="translate(-35.137 -2.736)" fill="#fff" fill-rule="evenodd"/>
            <path id="Fill-76" d="M87.977,10.1a1.89,1.89,0,0,0,1.041-.2.886.886,0,0,0,.284-.75.88.88,0,0,0-.273-.727,2.688,2.688,0,0,0-2.079.009.9.9,0,0,0-.275.754.843.843,0,0,0,.265.719,1.886,1.886,0,0,0,1.036.2m1.176,7.314v-6.7H86.814v6.7a3.883,3.883,0,0,0,.256,1.264H89.4a4.293,4.293,0,0,1-.249-1.264" transform="translate(-27.27 -2.736)" fill="#fff" fill-rule="evenodd"/>
            <path id="Fill-79" d="M166.567,14.918v.755a35.089,35.089,0,0,1,7.671-1.963,23.228,23.228,0,0,0-7.671,1.208" transform="translate(-52.364 -4.459)" fill="#fff" fill-rule="evenodd"/>
            <path id="Fill-80" d="M180.655,11.472a9.684,9.684,0,0,0-2.068-1.17c.275-.017.56-.061.883-.078a7.589,7.589,0,0,1,1.614,1.386Zm-5.664-3.141a10.355,10.355,0,0,0-2.126-.5c.322-.071.637-.132,1-.176a7.307,7.307,0,0,1,1.868.79Zm-8.425-1.621a17.094,17.094,0,0,1,2.347.322l-1.51.192c-.257.011-.546.034-.837.062v.338a20.152,20.152,0,0,1,3.4-.344,39.819,39.819,0,0,1,17.781-.135,41.306,41.306,0,0,0-21.182,2.138v.582a22.615,22.615,0,0,1,4.473-1.042,15.271,15.271,0,0,1,5.928.333,38.574,38.574,0,0,1,12.4,1.02,42.15,42.15,0,0,0-22.8,2.956V13.6A23.938,23.938,0,0,1,175,11.284a11.91,11.91,0,0,1,6.665,1.261,36.843,36.843,0,0,1,9.009.891V.226H166.566Z" transform="translate(-52.363 -0.226)" fill="#fff" fill-rule="evenodd"/>
            <path id="Fill-81" d="M166.567,20.164v1.459a35.409,35.409,0,0,1,12.311-3.341,22.93,22.93,0,0,0-12.311,1.882" transform="translate(-52.364 -5.827)" fill="#fff" fill-rule="evenodd"/>
            <path id="Fill-82" d="M185.069,22.3a7.194,7.194,0,0,0-2.938-2.5c.384-.046.866-.059,1.226-.076a1.975,1.975,0,0,1,.366.354,9.286,9.286,0,0,1,1.953,2.889Zm-18.5,1.645v.606c.291-.165.582-.322.857-.469a25.908,25.908,0,0,1,6.493-2.455,18.645,18.645,0,0,1,5.886-.495c3.466.31,5.954,1.815,7.153,4.413a11.853,11.853,0,0,1,.949,3.728l-.416-1.031a5.208,5.208,0,0,0-.523-1.517,7.907,7.907,0,0,0-4.952-3.669,16.471,16.471,0,0,0-7.792-.133,30.381,30.381,0,0,0-7.656,2.669v4.526h.241a20.645,20.645,0,0,1,4.768-2.568c4.379-1.873,8.638-2.44,11.835-1.6a6.029,6.029,0,0,1,4.505,4.164h2.757V19.627C186.729,19.18,176.217,18.457,166.567,23.945Z" transform="translate(-52.364 -6.225)" fill="#fff" fill-rule="evenodd"/>
            <path id="Fill-83" d="M183.835,31.245a16.447,16.447,0,0,0-7.165-.093,23.554,23.554,0,0,0-7.274,2.574H187.7a6.629,6.629,0,0,0-3.869-2.481" transform="translate(-53.252 -9.831)" fill="#fff" fill-rule="evenodd"/>
          </g>
        </g>
      </g>
    </g>
  </g>
</svg>
