<svg xmlns="http://www.w3.org/2000/svg" xmlns:xlink="http://www.w3.org/1999/xlink" width="610" height="383" viewBox="0 0 610 383">
  <defs>
    <clipPath id="clip-path">
      <path id="Path_135095" data-name="Path 135095" d="M-5008.012,1998.7c-41.762-42.032-137.984-59.438-142.512-170.8s-198.366-115.225-257.386-6.82-246.8,113.024-157,290.5l539.938-1.366S-4966.249,2040.733-5008.012,1998.7Z" fill="#ebf3fa"/>
    </clipPath>
  </defs>
  <g id="t1-i1" transform="translate(-810 -397)">
    <rect id="Rectangle_32220" data-name="Rectangle 32220" width="610" height="383" transform="translate(810 397)" fill="none"/>
    <g id="Group_92341" data-name="Group 92341" transform="translate(6410.357 -1331.583)">
      <g id="Group_92314" data-name="Group 92314">
        <path id="Path_135093" data-name="Path 135093" d="M-5008.012,1998.7c-41.762-42.032-137.984-59.438-142.512-170.8s-198.366-115.225-257.386-6.82-246.8,113.024-157,290.5l539.938-1.366S-4966.249,2040.733-5008.012,1998.7Z" fill="#ebf3fa"/>
        <g id="Group_92313" data-name="Group 92313" clip-path="url(#clip-path)">
          <g id="Group_92312" data-name="Group 92312">
            <g id="Group_92308" data-name="Group 92308">
              <rect id="Rectangle_32221" data-name="Rectangle 32221" width="2.375" height="77.294" transform="translate(-5349.927 1740.509)" fill="#699ff0"/>
              <rect id="Rectangle_32222" data-name="Rectangle 32222" width="2.375" height="77.294" transform="translate(-5218.756 1740.509)" fill="#699ff0"/>
            </g>
            <rect id="Rectangle_32223" data-name="Rectangle 32223" width="159.504" height="90.988" transform="translate(-5362.906 1815.426)" fill="#466aa5"/>
            <g id="Group_92309" data-name="Group 92309">
              <rect id="Rectangle_32224" data-name="Rectangle 32224" width="8.769" height="14.493" transform="translate(-5353.147 1831.245)" fill="#fff"/>
              <rect id="Rectangle_32225" data-name="Rectangle 32225" width="8.769" height="14.493" transform="translate(-5341.699 1831.245)" fill="#fff"/>
              <rect id="Rectangle_32226" data-name="Rectangle 32226" width="116.19" height="1.827" transform="translate(-5330.677 1843.911)" fill="#fff"/>
              <rect id="Rectangle_32227" data-name="Rectangle 32227" width="116.19" height="1.827" transform="translate(-5330.677 1839.709)" fill="#fff"/>
              <rect id="Rectangle_32228" data-name="Rectangle 32228" width="102.397" height="1.827" transform="translate(-5330.677 1835.264)" fill="#fff"/>
              <rect id="Rectangle_32229" data-name="Rectangle 32229" width="92.593" height="1.827" transform="translate(-5330.677 1831.245)" fill="#fff"/>
            </g>
            <g id="Group_92310" data-name="Group 92310">
              <rect id="Rectangle_32230" data-name="Rectangle 32230" width="8.769" height="14.493" transform="translate(-5353.147 1854.994)" fill="#fff"/>
              <rect id="Rectangle_32231" data-name="Rectangle 32231" width="8.769" height="14.493" transform="translate(-5341.699 1854.994)" fill="#fff"/>
              <rect id="Rectangle_32232" data-name="Rectangle 32232" width="116.19" height="1.827" transform="translate(-5330.677 1867.661)" fill="#fff"/>
              <rect id="Rectangle_32233" data-name="Rectangle 32233" width="116.19" height="1.827" transform="translate(-5330.677 1863.459)" fill="#fff"/>
              <rect id="Rectangle_32234" data-name="Rectangle 32234" width="102.397" height="1.827" transform="translate(-5330.677 1859.013)" fill="#fff"/>
              <rect id="Rectangle_32235" data-name="Rectangle 32235" width="92.593" height="1.827" transform="translate(-5330.677 1854.994)" fill="#fff"/>
            </g>
            <g id="Group_92311" data-name="Group 92311">
              <rect id="Rectangle_32236" data-name="Rectangle 32236" width="8.769" height="14.493" transform="translate(-5353.147 1878.744)" fill="#fff"/>
              <rect id="Rectangle_32237" data-name="Rectangle 32237" width="8.769" height="14.493" transform="translate(-5341.699 1878.744)" fill="#fff"/>
              <rect id="Rectangle_32238" data-name="Rectangle 32238" width="116.19" height="1.827" transform="translate(-5330.677 1891.41)" fill="#fff"/>
              <rect id="Rectangle_32239" data-name="Rectangle 32239" width="116.19" height="1.827" transform="translate(-5330.677 1887.208)" fill="#fff"/>
              <rect id="Rectangle_32240" data-name="Rectangle 32240" width="102.397" height="1.827" transform="translate(-5330.677 1882.763)" fill="#fff"/>
              <rect id="Rectangle_32241" data-name="Rectangle 32241" width="92.593" height="1.827" transform="translate(-5330.677 1878.744)" fill="#fff"/>
            </g>
            <rect id="Rectangle_32242" data-name="Rectangle 32242" width="78.739" height="16.822" transform="translate(-5353.147 1798.604)" fill="#f1a34f"/>
            <rect id="Rectangle_32243" data-name="Rectangle 32243" width="13.154" height="13.154" transform="translate(-5290.12 1800.248)" fill="#fff"/>
            <path id="Path_135094" data-name="Path 135094" d="M-5285.954,1803.158h0a.688.688,0,0,0,.2.486l3.126,3.126-3.126,3.126a.685.685,0,0,0-.2.485v.111a.686.686,0,0,0,1.172.485l3.3-3.294a1.216,1.216,0,0,0,0-1.716l-3.3-3.294A.686.686,0,0,0-5285.954,1803.158Z" fill="#f1a34f"/>
          </g>
        </g>
      </g>
      <g id="Group_92317" data-name="Group 92317">
        <g id="Group_92315" data-name="Group 92315">
          <path id="Path_135096" data-name="Path 135096" d="M-5018.766,2107.966s-7.27-8.31-9.327-12.094l-5.656-10.445-7.4,1.831,9.4,13.317,9.817,8.306Z" fill="#ffb27d"/>
          <path id="Path_135097" data-name="Path 135097" d="M-5065.585,1903.873a9.574,9.574,0,0,0-5.186-.992,2.421,2.421,0,0,1,1.094-.519,8.037,8.037,0,0,0-2.869.748c-12.348-4.758-14.289,13.423-14.029,17.648s-4.149,5.6-10.574,8.93c-12.257,6.35-13.334,14.853-13.334,14.853.1.056.195.121.3.194.608-1.031,1.861-2.965,2.916-3.257a43.582,43.582,0,0,0-1.7,4.136c3.616,2.751,10.381,8.846,15.095,13.168a6.915,6.915,0,0,1,.322-2.677l.582,3.507c2.523,2.319,4.263,3.951,4.263,3.951-.312-3.413,15.437-21.426,23.654-26.821,2-2.945,2.711-8.147,2.765-8.556a22.47,22.47,0,0,1-1.682,7.741C-5057.007,1929.523-5061.058,1906.445-5065.585,1903.873Z" fill="#163560"/>
          <path id="Path_135098" data-name="Path 135098" d="M-5065.534,1937.01c.041.019-3.968,2.1-6.983,1.275-2.836-.773-4.689-4.45-4.65-4.458,1.2-.239,1.548-1.89,1.522-8.982l.543.107,9.13,1.808s-.208,2.873-.214,5.58C-5066.192,1934.612-5066.055,1936.768-5065.534,1937.01Z" fill="#9c5f33"/>
          <path id="Path_135099" data-name="Path 135099" d="M-5075.859,1906.85a7.3,7.3,0,0,1,10.158-.245S-5068.991,1906.036-5075.859,1906.85Z" fill="#a8d29f"/>
          <path id="Path_135100" data-name="Path 135100" d="M-5076.045,1923.958a26.855,26.855,0,0,1-3.32-7.847c-.459-2.583.857-12.155,10.476-10.777a13.079,13.079,0,0,1,5.42,2.049c2.089,1.411,5.1,4.456,1.732,12.809l-.875,2.822Z" fill="#163560"/>
          <path id="Path_135101" data-name="Path 135101" d="M-5029.584,2092.222l-4.84.148-5.238.16a103.393,103.393,0,0,1-18.886-35.066c-.159-.5-.325-1.01-.5-1.524-3.715-10.831-11.415-24.425-15.473-36.73-.645-1.961-1.225-3.8-1.746-5.551-.166-.56-.329-1.109-.483-1.65a130.5,130.5,0,0,1-4.654-24.5l29.3.234A546.246,546.246,0,0,0-5029.584,2092.222Z" fill="#80bdcc"/>
          <path id="Path_135102" data-name="Path 135102" d="M-5054.162,1990.831a39.372,39.372,0,0,1-27.456,1.682c-.176-.055.985-57.636,5.213-59.222.973,1.212,3.854,2.424,6.433,2.366,2.97-.066,3.933-1.337,3.779-2.725,3.165,1.761,5.691,3.425,5.691,3.425C-5057.812,1941.029-5054.162,1990.831-5054.162,1990.831Z" fill="#f1a34f"/>
          <path id="Path_135103" data-name="Path 135103" d="M-5081.406,1972.46c-1.282,1.812-3.737,12.831-9.847,14.216,3.149-7.853,5.539-11.3,5.912-13.711a59.541,59.541,0,0,0,.363-13.569c2.045-3.585,3.572-6.042,3.572-6.042.16-.58,3.25-10.133,4.24-1.594S-5079.976,1970.432-5081.406,1972.46Z" fill="#5f9aa8"/>
          <path id="Path_135104" data-name="Path 135104" d="M-5064.266,1929.323s-12.088.2-12.1-7.33-1.574-12.575,6.143-13.02,9.22,2.425,9.834,4.938S-5061.122,1929.077-5064.266,1929.323Z" fill="#ab7041"/>
          <path id="Path_135105" data-name="Path 135105" d="M-5064.714,1908.788s-3.309,8.834-8.388,10.14-7.282-.055-7.282-.055a14.38,14.38,0,0,0,4.7-8.5S-5067.21,1904.584-5064.714,1908.788Z" fill="#163560"/>
          <path id="Path_135106" data-name="Path 135106" d="M-5065.534,1909.505s2.472,1.973,3.074,3.89.874,5.864,2.024,5.73c0,0,2.494-6-.309-9.4C-5063.716,1906.123-5065.534,1909.505-5065.534,1909.505Z" fill="#163560"/>
          <path id="Path_135107" data-name="Path 135107" d="M-5015.627,1941.819a7.546,7.546,0,0,1,8.455-5.274c.775.243,3.039,1.146,1.592,3.57-1.067,1.787-1.529.865-3.207,3.266s-3.5,2.943-5.58,2.656Z" fill="#ab7041"/>
          <path id="Path_135108" data-name="Path 135108" d="M-5073.322,2106.722c-.411-2.263-1.194-6.175-1.194-6.175l.181-13.882h-8.431l3.155,13.287a13.537,13.537,0,0,1-.648,5.549s-.81,3.689,2.823,3.757S-5072.911,2108.984-5073.322,2106.722Z" fill="#ffb27d"/>
          <path id="Path_135109" data-name="Path 135109" d="M-5072.979,2111.063h-7.556a20.332,20.332,0,0,1,.276-5.557c4.112,3.986,6.687-.1,6.687-.1C-5072.958,2106.964-5072.971,2110.481-5072.979,2111.063Z" fill="#233862"/>
          <path id="Path_135110" data-name="Path 135110" d="M-5015.238,2111.089h-9.315a15.548,15.548,0,0,1-2.525-4.167,4.5,4.5,0,0,0-3.034-2.077v6.244h-1.93l-1.772-6.641c-1.187-2.235-.278-4.244.557-6.009.971,0,3.765.663,8.715,6.377a6.416,6.416,0,0,0,5.2,2.487.486.486,0,0,0,.074.04C-5016.473,2108.631-5015.543,2110.209-5015.238,2111.089Z" fill="#233862"/>
          <path id="Path_135111" data-name="Path 135111" d="M-5015.627,1941.819s-7.934,4.436-10.769,5.715c-1.615.73-5.333,2.47-7.953,3.7a4.09,4.09,0,0,1-4.846-1.044c-4.3-5.025-15.5-15.923-27-17.259,0,0,6.993,17.276,7.2,20.772s.823,57.176.823,57.176-.412,2.468,4.319,1.44,5.964-2.057,5.964-2.057-4.524-33.112-3.291-44.63a25.653,25.653,0,0,0-.488-7.458,58.921,58.921,0,0,0,15.3,6.156,85.87,85.87,0,0,0,14.67-8.913c2.66-1.948,7.333-9.381,7.333-9.381Z" fill="#a8d29f"/>
          <path id="Path_135112" data-name="Path 135112" d="M-5034.424,2092.37l-5.238.16a103.393,103.393,0,0,1-18.886-35.066c-.159-.5-.325-1.01-.5-1.524-3.715-10.831-11.415-24.425-15.473-36.73-.645-1.961-1.225-3.8-1.746-5.551-.166-.56-.329-1.109-.483-1.65l4.315-3.274s12.955,20.978,16.965,40.72C-5051.987,2066.6-5038.035,2087.239-5034.424,2092.37Z" fill="#5f9aa8"/>
          <path id="Path_135113" data-name="Path 135113" d="M-5071.987,2051.294c.074,9.6-.411,31.673-1.661,40.811h-4.64c-2.565,0-3.844-.037-3.844-.037-3.137-15.888-5.368-29.035-6.993-40.363-1.333-9.3-2.517-17.266-3.428-24.127-.918-6.9-1.555-12.685-1.784-17.57q-.053-1.154-.076-2.244t-.012-2.129l25.318-2.468C-5069.426,2019.989-5072.028,2045.714-5071.987,2051.294Z" fill="#80bdcc"/>
          <path id="Path_135114" data-name="Path 135114" d="M-5078.288,2092.1c-2.565,0-3.844-.037-3.844-.037-3.137-15.888-5.368-29.035-6.993-40.363-1.333-9.3-2.517-17.266-3.428-24.127-.918-6.9-1.555-12.685-1.784-17.57l9.29,5.465s-5.929,2.091-3.667,17.928S-5081.437,2089.863-5078.288,2092.1Z" fill="#5f9aa8"/>
          <path id="Path_135115" data-name="Path 135115" d="M-5077.093,2009.852s-1.782,6.443-7.952,5.62-14.945-4.525-14.945-4.525,2.638-8.331,5.915-19.277c.035-.115.068-.232.1-.349,3.869-12.925,8.6-29.378,10.948-40.083.05-.228.1-.454.147-.676a66.33,66.33,0,0,0,1.258-7.347l5.214-9.924s7.537,17.122,7.949,21.441S-5077.093,2009.852-5077.093,2009.852Z" fill="#a8d29f"/>
          <path id="Path_135116" data-name="Path 135116" d="M-5083.254,1954.089l6.849-20.8c-.018.009-8.625,2.526-12.909,4.69,0,0-2.677,3.452-4.333,11.414,0,0-1.75,19.118,2.157,26.11,0,0,12.341,2.468,32.085-4.319v-4.524s-21.6,1.131-26.017,1.645Z" fill="#ab7041"/>
          <path id="Path_135117" data-name="Path 135117" d="M-5077.96,1963.782c-.272,6.9-1.878,20.2-16.011,27.539,3.869-12.925,8.6-29.378,10.948-40.083C-5080.46,1955.172-5077.82,1960.143-5077.96,1963.782Z" fill="#82b378"/>
          <path id="Path_135118" data-name="Path 135118" d="M-5076.4,1933.291s-12.617.875-15.633,7.593-3.976,29.068-.137,35.65c0,0,5.286,1.5,14.634-.243l.345-.066s2.982-7.3.309-8.741c0,0-7.884.412-7.061-2.193S-5076.4,1933.291-5076.4,1933.291Z" fill="#a8d29f"/>
          <path id="Path_135119" data-name="Path 135119" d="M-5061.619,1967.865a10.8,10.8,0,0,0,2.087-4.214c.367-2.129,1.505-3.707,4.475-4.1s4.246-.432,4.238.4-2.426,6.681-6.687,10.171S-5061.619,1967.865-5061.619,1967.865Z" fill="#ab7041"/>
        </g>
        <rect id="Rectangle_32244" data-name="Rectangle 32244" width="32.958" height="23.228" rx="9.991" transform="translate(-5099.99 1994.237)" fill="#2b478b"/>
        <g id="Group_92316" data-name="Group 92316">
          <path id="Path_135120" data-name="Path 135120" d="M-5106.167,2004.245v5.106a8.113,8.113,0,0,0,8.113,8.113h16.732a8.112,8.112,0,0,0,8.113-8.113V2004.7l-16.479,3.029Z" fill="#699dee"/>
          <path id="Path_135121" data-name="Path 135121" d="M-5073.209,2002.35a8.112,8.112,0,0,0-8.113-8.113h-16.732a8.113,8.113,0,0,0-8.113,8.113l16.479,3.5Z" fill="#699dee"/>
          <path id="Path_135122" data-name="Path 135122" d="M-5089.687,2005.85l-16.479-3.5v1.9l16.479,3.483,16.479-3.029v-2.349Z" fill="#2b478b"/>
        </g>
        <path id="Path_135123" data-name="Path 135123" d="M-5079.245,1967.481c-.523-1.129-3.8-.677-3.8-.677,7.611,1.823,12.42,35.546,12.42,35.546h1.519C-5071.915,1980.047-5078.722,1968.61-5079.245,1967.481Z" fill="#2b478b"/>
        <path id="Path_135124" data-name="Path 135124" d="M-5102.021,1995.273l7.982-25.017.558,2.8-6.957,21.533Z" fill="#2b478b"/>
      </g>
      <g id="Group_92319" data-name="Group 92319">
        <path id="Path_135125" data-name="Path 135125" d="M-5409.042,1970.26s-3.068-1.02-4.55-.714-6.08,2.453-6.182,2.913a1.683,1.683,0,0,0,0,.791h10.732s2.4-.467,2.808-1.881S-5409.042,1970.26-5409.042,1970.26Z" fill="#ffb27d"/>
        <path id="Path_135126" data-name="Path 135126" d="M-5369,2105.488a2.059,2.059,0,0,1-1.343,1.783.015.015,0,0,1-.011,0c-1.43.627-3.826.485-6.416.136-.332-.044-.63-.08-.9-.1-.07-.007-.14-.013-.208-.017s-.109-.008-.161-.012c-2.579-.17-2.377.625-7.306.6-5.618-.03-7.518-1.922-7.776-2.728-.216-.685,2.244-1.215,4.994-1.827l.4-.089c.366-.081.734-.167,1.1-.25,3.278-.769,6.525-1.74,7.6-4.89,1.139-3.341.869-13.254.869-13.254h9.95s-2.612,10.952-2.338,14.108c.148,1.685.954,2.164,1.265,3.624.022.1.043.2.061.307A9.8,9.8,0,0,1-5369,2105.488Z" fill="#ad7041"/>
        <g id="Group_92318" data-name="Group 92318">
          <path id="Path_135127" data-name="Path 135127" d="M-5357.423,1998.344c-.839,4.714-2.037,9.585-3.078,14.651-1.672,8.147-2.933,16.8-1.642,26.12a32.539,32.539,0,0,1,.275,3.946c.251,16.47-7.109,46.318-7.109,46.318a13,13,0,0,1-5.348.7,16.989,16.989,0,0,1-4.372-1.2s-.7-18.506-.738-43.394c-.03-18.04-3.572-41.793-4.288-55.75a178.8,178.8,0,0,1,.507-19.7s14.67-11.8,19.939-5.761C-5358.071,1970.237-5354.281,1980.709-5357.423,1998.344Z" fill="#415da5"/>
        </g>
        <path id="Path_135128" data-name="Path 135128" d="M-5362.143,2039.115a32.539,32.539,0,0,1,.275,3.946c-10.986-15.918-13.416-50.627-13.416-50.627l12.067,5.856s1.323,6.509,2.716,14.7C-5362.173,2021.142-5363.434,2029.8-5362.143,2039.115Z" fill="#355493"/>
        <path id="Path_135129" data-name="Path 135129" d="M-5337.261,2105.488a2.058,2.058,0,0,1-1.343,1.783.015.015,0,0,1-.012,0c-1.429.627-3.826.485-6.416.136-.331-.044-.63-.08-.9-.1-.07-.007-.14-.013-.209-.017-.054-.005-.108-.008-.161-.012-2.579-.17-2.377.625-7.305.6-5.618-.03-7.518-1.922-7.776-2.728-.216-.685,2.243-1.215,4.994-1.827l.4-.089c.366-.081.734-.167,1.1-.25,3.279-.769,6.525-1.74,7.6-4.89,1.139-3.341-.488-13.1-.488-13.1l9.217-.77s-.572,11.121-.3,14.277c.149,1.686,1,2.612,1.316,4.072.022.1.043.2.061.307A9.8,9.8,0,0,1-5337.261,2105.488Z" fill="#ad7041"/>
        <path id="Path_135130" data-name="Path 135130" d="M-5338.561,2090.221a22.343,22.343,0,0,1-4.075,1.463,19.6,19.6,0,0,1-5.25-.325,240.39,240.39,0,0,0-5.011-31.02,290.359,290.359,0,0,0-15-47.523c-1.457-3.441-7.462-19.728-8.481-23.838-3.082-12.418.012-11.081.012-11.081l26.936-3.16s3.318,1.7,4.846,19.242c.458,5.251.514,27.928,1.2,32.227a48.13,48.13,0,0,0,2.313,9.655C-5336.059,2048.143-5338.561,2090.221-5338.561,2090.221Z" fill="#415da5"/>
        <path id="Path_135131" data-name="Path 135131" d="M-5337.261,2105.488a2.058,2.058,0,0,1-1.343,1.783.015.015,0,0,1-.012,0c-1.51.54-3.87.424-6.41.12-.332-.039-.631-.068-.9-.088-.07-.007-.14-.013-.209-.017-.054-.005-.108-.008-.161-.012-2.579-.17-2.377.625-7.305.6-5.618-.03-7.518-1.922-7.776-2.728-.216-.685,2.243-1.215,4.994-1.827a16.589,16.589,0,0,0,8.487,1.5c3.783-.363,7.645-1.878,10.359-2.256.022.1.043.2.061.307A9.8,9.8,0,0,1-5337.261,2105.488Z" fill="#b84c42"/>
        <path id="Path_135132" data-name="Path 135132" d="M-5369,2105.488a2.059,2.059,0,0,1-1.343,1.783.015.015,0,0,1-.011,0c-1.511.54-3.871.424-6.41.12-.333-.039-.631-.068-.9-.088-.07-.007-.14-.013-.208-.017s-.109-.008-.161-.012c-2.579-.17-2.377.625-7.306.6-5.618-.03-7.518-1.922-7.776-2.728-.216-.685,2.244-1.215,4.994-1.827a16.591,16.591,0,0,0,8.487,1.5c3.783-.363,7.646-1.878,10.359-2.256.022.1.043.2.061.307A9.8,9.8,0,0,1-5369,2105.488Z" fill="#b84c42"/>
        <path id="Path_135133" data-name="Path 135133" d="M-5379.775,1894.084c-.91-7.431,1.41-19.32,16.24-17.42s19.5,16.474,16.512,22.954,4.306,8.043,6.6,15.012c1.968,5.986,2.654,13.419,5.838,16.755,10.266,10.755-9.856,27.294-21.987,23.807-22.095-6.353-24.941-7.3-24.157-24.662.4-8.9,7.323-12.341,2.929-14.915C-5388.419,1909.4-5377.717,1910.9-5379.775,1894.084Z" fill="#a53d38"/>
        <path id="Path_135134" data-name="Path 135134" d="M-5357.984,1913.541l-4.078,10.554-8.827.432-4.4-6.585c4.986-3.78,4.775-11.016,4.531-13.543-.056-.569-.112-.9-.112-.9l11.034-3.359c.133,2.917.3,5.2.472,6.982C-5358.742,1913.392-5357.984,1913.541-5357.984,1913.541Z" fill="#ffb27d"/>
        <path id="Path_135135" data-name="Path 135135" d="M-5375.317,1913.161c.567,0,10.2-1.96,26.461,2.2,0,0-8.907,40.809-5.881,48.5a81.245,81.245,0,0,1,4.176,14.518l-32.826.407s.459-26.4-1.054-35.744S-5375.317,1913.161-5375.317,1913.161Z" fill="#ffb27d"/>
        <path id="Path_135136" data-name="Path 135136" d="M-5351.117,1958.68c.48,5.4,5.527,17.746,4.436,20.375-1.145,2.761-2.734,4.16-6.212,4.958a64.256,64.256,0,0,1-10.354,1.051c-9.889.491-20.487-.751-21.929-5.453-.691-2.256-.424-10.987-.058-15.017.757-8.341-.83-20.309-1.062-28.054-.191-6.46,3.705-21.16,3.705-21.16s1.757-1.109,7.274-2.219c0,0,.58,7.635,4.564,8.292,6.89,1.138,12.442-5.174,14.064-7.715,0,0,7.913,2,10.235,4.645,2.2,2.506-.81,21.077-1.478,22.859-.578,1.528-1.124,3.02-1.6,4.519A31.522,31.522,0,0,0-5351.117,1958.68Z" fill="#b2cbfd"/>
        <path id="Path_135137" data-name="Path 135137" d="M-5322.942,1970.286s3.068-1.011,4.55-.707,6.08,2.431,6.182,2.887a1.654,1.654,0,0,1,0,.784h-10.732s-2.4-.462-2.808-1.864S-5322.942,1970.286-5322.942,1970.286Z" fill="#ffb27d"/>
        <path id="Path_135138" data-name="Path 135138" d="M-5359.359,1907.823c-4.026-2.7-9.086-2.832-11.394-2.724-.056-.57-.112-.9-.112-.9l11.034-3.359C-5359.7,1903.757-5359.534,1906.038-5359.359,1907.823Z" fill="#e8945b"/>
        <path id="Path_135139" data-name="Path 135139" d="M-5373.746,1904.249s13.209,2.653,14.735-5.6,4.257-13.466-4.112-15.509-10.594.8-11.773,3.433S-5377.142,1903.347-5373.746,1904.249Z" fill="#ffb27d"/>
        <path id="Path_135140" data-name="Path 135140" d="M-5356.454,1883.689c-2.235-2.514-5.46-3-7.81-2.963,1.417-1.718-4.282-5.483-10.8.938-2.808,2.767-2.384,8.205-.88,11.361,0,0,2.309-6.762,6.512-8.237a9.185,9.185,0,0,0,2.64-1.526,18.149,18.149,0,0,0,3.612,5.368c4.345,4.749,3.5,14.352,3.5,14.352S-5352.548,1888.083-5356.454,1883.689Z" fill="#a53d38"/>
        <path id="Path_135141" data-name="Path 135141" d="M-5369.63,1900.19s-.354.979-2.84.534c0,0-2.088-.372-1.9-1.471A6.811,6.811,0,0,1-5369.63,1900.19Z" fill="#fff"/>
        <path id="Path_135142" data-name="Path 135142" d="M-5333.39,1950.529c-5-19.284-7.738-30.294-11.832-33.625-3.621-2.947-11.428-3.217-11.428-3.217a39.852,39.852,0,0,0,.272,6.951l-9.6,18.3a80.446,80.446,0,0,0-6.669,20.386c-1.321-10.576-2.632-20.386-2.632-20.386a110.782,110.782,0,0,1-1.629-11.984c1.157-4.466,1.036-9.128,1.58-13.8l-.6.034c-1.9.133-7.809.736-10.824,3.21-4.094,3.362-5.012,18.122-11.832,33.923,0,0-8.263,13.894-10.894,19.406a4.681,4.681,0,0,0,1.479,1.321,7.751,7.751,0,0,0,2.16.769s14.907-14.679,15.887-17c.322-.763,2.125-3.44,4.364-7.378h0s.6,20.974-.708,30.024a4.692,4.692,0,0,0,2.328,4.76c9.207,5.2,36.787,19.366,41.919,5.608.575-1.542-9.5-27.744-8.124-33.416.441-1.814,1.024-5.952,1.612-10.739,3.158,6.056,6.127,10.31,6.55,11.3.979,2.3,15.886,16.851,15.886,16.851a7.835,7.835,0,0,0,2.161-.763,4.669,4.669,0,0,0,1.478-1.309C-5325.126,1964.3-5333.39,1950.529-5333.39,1950.529Z" fill="#699dee"/>
        <path id="Path_135143" data-name="Path 135143" d="M-5357.17,1913.632l-8.813,25.309,8.812-8.332-.666-2.59a6.188,6.188,0,0,0,2.847-.35c.821-.531,2.735-13.471,2.735-13.471s-1.793-.3-2.388-.369C-5355.277,1913.756-5357.17,1913.632-5357.17,1913.632Z" fill="#3b76ca"/>
        <path id="Path_135144" data-name="Path 135144" d="M-5375.333,1913.161s-1.856,20.006.049,25.78c0,0-5.454-8.635-4.432-10.424l1.976-1.3s-3.815-.495-3.1-2.687,3.781-11.083,3.781-11.083Z" fill="#3b76ca"/>
      </g>
      <g id="Group_92320" data-name="Group 92320">
        <path id="Path_135145" data-name="Path 135145" d="M-5229.024,2111.147h-304.353v-69.009l304.353-.688Z" fill="#699ff0"/>
        <rect id="Rectangle_32245" data-name="Rectangle 32245" width="304.353" height="18.047" transform="translate(-5533.377 1986.257)" fill="#699ff0"/>
      </g>
      <rect id="Rectangle_32246" data-name="Rectangle 32246" width="325.193" height="13.008" rx="5.595" transform="translate(-5218.804 1986.257) rotate(180)" fill="#466aa5"/>
      <g id="Group_92321" data-name="Group 92321">
        <rect id="Rectangle_32247" data-name="Rectangle 32247" width="4.196" height="7.551" rx="0.74" transform="translate(-5360.177 1940.906) rotate(-86.477)" fill="#2b478b"/>
        <rect id="Rectangle_32248" data-name="Rectangle 32248" width="1.978" height="2.651" transform="translate(-5359.037 1937.51) rotate(3.523)" fill="#e9f2ff"/>
        <path id="Path_135146" data-name="Path 135146" d="M-5353.622,1938.508l-2.458-.152a.333.333,0,0,1-.31-.351h0a.332.332,0,0,1,.351-.31l2.457.151a.333.333,0,0,1,.311.351h0A.333.333,0,0,1-5353.622,1938.508Z" fill="#e9f2ff"/>
        <path id="Path_135147" data-name="Path 135147" d="M-5353.474,1939.434l-2.867-.177a.126.126,0,0,1-.118-.133h0a.127.127,0,0,1,.134-.119l2.867.177a.127.127,0,0,1,.118.134h0A.127.127,0,0,1-5353.474,1939.434Z" fill="#e9f2ff"/>
        <path id="Path_135148" data-name="Path 135148" d="M-5353.5,1939.843l-2.867-.176a.127.127,0,0,1-.118-.134h0a.126.126,0,0,1,.134-.118l2.867.176a.127.127,0,0,1,.118.134h0A.126.126,0,0,1-5353.5,1939.843Z" fill="#e9f2ff"/>
      </g>
      <path id="Path_135149" data-name="Path 135149" d="M-5231.814,2041.45l-298.773.688V2004.3h298.773Z" fill="#afcdfb" opacity="0.9"/>
      <path id="Path_135150" data-name="Path 135150" d="M-5371.809,1877.29l2.179-6.388s13.086-1.361,17.483,4.607c0,0,.526,3.688-.758,5.691,0,0-11.909-2.5-16.044-.876Z" fill="#699dee"/>
      <path id="Path_135151" data-name="Path 135151" d="M-5366.2,1872.63s9.555.628,13.115,3.088a41.967,41.967,0,0,0-10.888-.995,71.582,71.582,0,0,1,11.927,3.051,14.164,14.164,0,0,0-.1-2.265c-4.4-5.968-17.483-4.607-17.483-4.607l-2.179,6.388,2.86,3.034S-5367.908,1873.781-5366.2,1872.63Z" fill="#3b76ca"/>
      <g id="Group_92324" data-name="Group 92324">
        <g id="Group_92322" data-name="Group 92322">
          <path id="Path_135152" data-name="Path 135152" d="M-5426.524,1973.25h-30.684l-11.136-19.829h30.684Z" fill="#699ff0"/>
          <path id="Path_135153" data-name="Path 135153" d="M-5437.66,1953.421h-30.684l11.136,19.829h.366l18.431-19.2,10.94,19.2h.947Z" fill="#466aa5"/>
        </g>
        <g id="Group_92323" data-name="Group 92323">
          <path id="Path_135154" data-name="Path 135154" d="M-5294.457,1973.25h-30.684l-11.136-19.829h30.684Z" fill="#699ff0"/>
          <path id="Path_135155" data-name="Path 135155" d="M-5305.592,1953.421h-30.684l11.136,19.829h.366l18.431-19.2,10.94,19.2h.948Z" fill="#466aa5"/>
        </g>
      </g>
      <g id="Group_92326" data-name="Group 92326">
        <path id="Path_135156" data-name="Path 135156" d="M-5453.15,1969.583c-1.189-.559-3.519.241-4.884.809-.638.264-1.064.478-1.064.478l-1.409,2.686h13.047C-5447.933,1972.13-5451.524,1970.349-5453.15,1969.583Z" fill="#ffb27d"/>
        <path id="Path_135157" data-name="Path 135157" d="M-5458.034,1970.392c-1.55-1.835-18.671-6.468-20.277-7.6s-2.075-15.586-2.075-15.586c-1.832-17.967-10.636-23.788-10.773-23.878h0s.091,2.433.24,6.123c.309,7.671.873,20.77,1.415,28.714a27.307,27.307,0,0,0,2.335,9.693,20.469,20.469,0,0,0,1.061,2,15.873,15.873,0,0,0,3,3.7h22.669a5.683,5.683,0,0,0,2.434-3.134A.254.254,0,0,0-5458.034,1970.392Z" fill="#e58638"/>
        <g id="Group_92325" data-name="Group 92325">
          <path id="Path_135158" data-name="Path 135158" d="M-5494.111,1896.742s-1.164-16.607-22.73-10.319c-4.893,1.427-4.257,16.2,7.594,21.825Z" fill="#2b478b"/>
          <path id="Path_135159" data-name="Path 135159" d="M-5502.733,1918.666s8.442,1.528,11.572,4.658,10.518,12.366,5.87,43.159c0,0-.372,9.28-10.808,10.175S-5502.733,1918.666-5502.733,1918.666Z" fill="#ee9849"/>
          <path id="Path_135160" data-name="Path 135160" d="M-5522.134,1995.243c1.452,10.1,11.191,36.369,10.907,45.446-.224,7.153-.106,23.679.839,34.657a67.486,67.486,0,0,0,.956,7.413c.838,4.049,1.912,8.712,2.49,11.651,1.287,6.6.614,10.447,1.665,13.988,1.157,3.872,14.436,3.164,10.435.815a11.743,11.743,0,0,1-4.533-4.923c-3.73-8.357,1.5-44.4,3.057-58.289.2-1.735.343-3.116.4-4.061.519-8.581,6.41-65.752,6.41-65.752C-5503.812,1968.232-5523.574,1985.138-5522.134,1995.243Z" fill="#d9935c"/>
          <path id="Path_135161" data-name="Path 135161" d="M-5522.134,1995.243c1.452,10.1,11.191,36.369,10.907,45.446-.224,7.153-.106,23.679.839,34.657l14.07-29.345c.2-1.735.343-3.116.4-4.061.519-8.581,6.558-65.774,6.558-65.774C-5503.665,1968.21-5523.574,1985.138-5522.134,1995.243Z" fill="#cb8757"/>
          <path id="Path_135162" data-name="Path 135162" d="M-5491.1,1978.045s-12.287,56.48-13.683,64.96-12.585,48.409-10.147,58.414c1.439,5.9,3.947,7.648,3.947,7.648.591,1.082-9.128,3.231-9.913-.91-1-5.258-1.206-12.639-2.666-25.151-2.513-21.544,2.472-33.8,3.681-42.807s-4.058-37.623-1.135-47.4C-5515.9,1975.679-5504.5,1968.662-5491.1,1978.045Z" fill="#d9935c"/>
          <path id="Path_135163" data-name="Path 135163" d="M-5487.789,2027.881a36.577,36.577,0,0,1-7.064,2.038.047.047,0,0,1-.02,0,61.949,61.949,0,0,1-7.506.936,94.792,94.792,0,0,1-10.14.1l-.9-10.459-.944,3.786-1.616,6.483c-1.5-.1-2.84-.226-3.977-.344-2.442-.251-3.933-.481-3.933-.481-2.751-22.691.546-36.994,4.276-45.443v0a38.575,38.575,0,0,1,3.5-6.349c.586-.851,1.132-1.555,1.61-2.124.391-.465.737-.838,1.023-1.132a9.985,9.985,0,0,1,.883-.823c1.273.489,2.527.9,3.75,1.247.873.248,1.732.46,2.572.642a.265.265,0,0,0,.041.009q.865.189,1.7.334c.207.037.414.072.618.1q.986.157,1.924.263a41.981,41.981,0,0,0,8.9.09,28.718,28.718,0,0,0,3.582-.56c.1-.023.149-.037.149-.037l.017.578.3,9.864Z" fill="#2c3a64"/>
          <path id="Path_135164" data-name="Path 135164" d="M-5508.966,2111.147h-11.612c-.9-1.628-2.09-6.5-3-7.519-.065-.071-.137-.155-.21-.25l-.093,7.769h-1.044a87.019,87.019,0,0,0-.723-10.7c-.621-1.185-1.065-2.334-.871-2.819.4-1.009,4.122-3.252,4.122-3.252s2.752,13.763,4.052,14.091a20.933,20.933,0,0,0,7.108.384,4.169,4.169,0,0,1,2.084,1.435A1.114,1.114,0,0,1-5508.966,2111.147Z" fill="#2c3a64"/>
          <path id="Path_135165" data-name="Path 135165" d="M-5493.423,2111.147h-11.612c-.886-1.607-2.063-6.378-2.971-7.475l-.09,7.475h-1.044c0-.22-.009-.512-.015-.863a88.632,88.632,0,0,0-.6-9.2c-.794-1.391-1.45-2.887-1.22-3.46.4-1.009,4.037-3.232,4.037-3.232s.015.122.055.32c0,.029.011.059.017.09s.015.08.023.124.013.061.019.094c.529,2.662,2.683,13.106,4.023,13.443a20.941,20.941,0,0,0,7.343.352l.013,0S-5493.137,2109.937-5493.423,2111.147Z" fill="#2c3a64"/>
          <path id="Path_135166" data-name="Path 135166" d="M-5487.17,1967.855c-.388,2.128-.783,3.962-1.119,5.4l-.07.3c-.471,1.985-.806,3.131-.806,3.131l-.176.057c-.027.011-.053.019-.08.028-.05.017-.1.032-.149.047q-1.2.386-2.347.671a31.472,31.472,0,0,1-11.236.8,28.511,28.511,0,0,1-4.59-.912c-.306-.088-.6-.177-.884-.271-.014,0-.028-.008-.04-.012-.732-.239-1.388-.488-1.961-.729a17.4,17.4,0,0,1-2.852-1.466l-.006-.005a7.563,7.563,0,0,0,.381-1.336,26.136,26.136,0,0,0,.409-3.753c.133-2.574.093-5.792-.047-9.329,0-.1-.008-.206-.011-.309-.18-4.436-.511-9.355-.854-14.131-.263-3.669-.532-7.251-.747-10.466-.066-.986-.128-1.936-.18-2.844-.3-5.071-.382-8.809.069-9.79.684-1.489,2.806-2.393,5.063-2.941.324-.078.651-.151.976-.215.044-.009-.1-.365-.052-.374.312-.06.808.232,1.115.185.13-.022.26-.042.389-.06a37.39,37.39,0,0,1,4.211-.376c.068,0,.1,0,.1,0a27.912,27.912,0,0,1,3.46,2.137c.154.109,2.143-1.185,2.3-1.066a17.852,17.852,0,0,1,6.344,8.917c1.733,5.632,4.282,8.418,4.814,13.976A93.415,93.415,0,0,1-5487.17,1967.855Z" fill="#a8d29f"/>
          <path id="Path_135167" data-name="Path 135167" d="M-5521.111,1977.7c4.321.885,11.215.436,16.326-1.027a17.72,17.72,0,0,0,4.332-1.783c4.568-2.809,6.787-23.608,6-31.482s-14.022-24.006-14.022-24.006c-3.246,2.408-4.676,8.012-6.623,15.366C-5519.789,1952.464-5521.111,1977.7-5521.111,1977.7Z" fill="#ee9849"/>
          <path id="Path_135168" data-name="Path 135168" d="M-5521.111,1977.7c4.321.885,11.215.436,16.326-1.027a25.893,25.893,0,0,0,4.178-9.9c2.326-11.474-6.846-23.927-14.5-32C-5519.789,1952.464-5521.111,1977.7-5521.111,1977.7Z" fill="#e58638"/>
          <rect id="Rectangle_32249" data-name="Rectangle 32249" width="25.045" height="18.201" rx="2.824" transform="matrix(0.585, -0.811, 0.811, 0.585, -5520.728, 1971.535)" fill="#a53d38"/>
          <path id="Path_135169" data-name="Path 135169" d="M-5502.621,1968.1s4.975-.5,5.59.336.056,4.081-2.739,4.416-5.982-1.956-5.982-1.956Z" fill="#da935b"/>
          <path id="Path_135170" data-name="Path 135170" d="M-5508.479,1919.4s-8.844,1.041-12.681,9.009-7.968,28.478-6.935,30.4,13.428,12.247,23.609,13.575c0,0,2.213-2.8,2.066-5.312,0,0-13.723-8.558-14.9-10.919s10.476-21.985,10.328-25.379S-5508.479,1919.4-5508.479,1919.4Z" fill="#ee9849"/>
          <path id="Path_135171" data-name="Path 135171" d="M-5498.506,1893.446s5.186.637,5.482,6.624c0,0,2.271-9.49-5.946-9.3S-5498.506,1893.446-5498.506,1893.446Z" fill="#2b478b"/>
          <path id="Path_135172" data-name="Path 135172" d="M-5496.9,1920.221c0-.007-.468-5.008-.359-6.3v0c.059-.662.126-1.053.126-1.053l-.126-.038-10.387-3.164c0,.082-.006.166-.011.248-.132,2.807-.294,4.984-.468,6.675-.021.221-.044.433-.067.637-.1.859-.194,1.577-.29,2.176a42.357,42.357,0,0,0,5.048,1.883c3.727,1.084,5.341.651,6.032,0C-5496.818,1920.74-5496.884,1920.305-5496.9,1920.221Z" fill="#ffb27d"/>
          <path id="Path_135173" data-name="Path 135173" d="M-5498.076,1912.832v1.093s-5.983.068-10.044,2.665c.173-1.689.334-3.867.468-6.675Z" fill="#e8945b"/>
          <path id="Path_135174" data-name="Path 135174" d="M-5495.207,1913.583s-12.587,2.528-14.04-5.335-4.057-12.831,3.918-14.777,10.1.764,11.218,3.271S-5491.971,1912.723-5495.207,1913.583Z" fill="#ffb27d"/>
          <path id="Path_135175" data-name="Path 135175" d="M-5499.479,1891.727s3.558,4.458-2.934,8.534-6,12.229-4.269,14.522c0,0-12.924-12.611-6.937-20.126S-5499.479,1891.727-5499.479,1891.727Z" fill="#2b478b"/>
        </g>
      </g>
      <g id="Group_92334" data-name="Group 92334">
        <g id="Group_92327" data-name="Group 92327">
          <path id="Path_135176" data-name="Path 135176" d="M-5264.794,2092.013a5.179,5.179,0,0,1-5.18,5.179,5.179,5.179,0,0,1-5.18-5.179,5.181,5.181,0,0,1,5.18-5.181A5.181,5.181,0,0,1-5264.794,2092.013Z" fill="#66a357"/>
          <path id="Path_135177" data-name="Path 135177" d="M-5262.754,2092.013a5.181,5.181,0,0,1-5.181,5.179,5.18,5.18,0,0,1-5.18-5.179,5.181,5.181,0,0,1,5.18-5.181A5.182,5.182,0,0,1-5262.754,2092.013Z" fill="#a8d29f"/>
        </g>
        <g id="Group_92328" data-name="Group 92328">
          <circle id="Ellipse_4100" data-name="Ellipse 4100" cx="5.18" cy="5.18" r="5.18" transform="translate(-5240.641 2100.635)" fill="#66a357"/>
          <circle id="Ellipse_4101" data-name="Ellipse 4101" cx="5.18" cy="5.18" r="5.18" transform="translate(-5238.602 2100.635)" fill="#a8d29f"/>
        </g>
        <path id="Path_135178" data-name="Path 135178" d="M-5274.043,2086.4l5.732,5.33a6.684,6.684,0,0,0,1.981,1.274l38.6,16.051,7.172-5.161Z" fill="#66a357"/>
        <g id="Group_92329" data-name="Group 92329">
          <path id="Path_135179" data-name="Path 135179" d="M-5192.779,2028.527l-1.837-1.269c8.461-12.247,24.818-36.374,26.165-40.029.849-2.3.855-4.227.017-5.718-1.344-2.391-4.477-3.03-4.509-3.036l-.118-.029-8.569-2.648c-9.814-3.91-14.013,3.8-14.187,4.125l-.059.1-22.9,34.6-1.862-1.233,22.876-34.563a13.246,13.246,0,0,1,4.035-4.306c2.528-1.7,6.813-3.223,12.885-.818l8.392,2.589a9.435,9.435,0,0,1,5.956,4.1c1.184,2.09,1.232,4.649.143,7.6C-5168.136,1992.832-5191.773,2027.072-5192.779,2028.527Z" fill="#66a357"/>
        </g>
        <path id="Path_135180" data-name="Path 135180" d="M-5195.366,2019.824l18.963,13.019s4.995,5.047-.739,15.131c-5.045,8.872-32.061,59.211-32.061,59.211s-5.624,10.474-27.526-2.635Z" fill="#66a357"/>
        <path id="Path_135181" data-name="Path 135181" d="M-5190.028,2039.135l-30.649,56.205a14.356,14.356,0,0,1-5.088,5.365,14.391,14.391,0,0,1-13.139,1.015l-19.284-8.111-.478-.2-12.077-5.08a14.435,14.435,0,0,1-3.3-1.934c-.23-.179-.453-.365-.67-.556a14.462,14.462,0,0,1-4.737-12.616,14.362,14.362,0,0,1,2.08-5.8l32.723-52.323a14.406,14.406,0,0,1,16.591-6.082l3.536,1.128.843.271h0l.708.227,11.821,3.773,1.451.464,11.406,3.643a14.39,14.39,0,0,1,4.738,2.563c.089.073.178.146.265.223l.54.487A14.408,14.408,0,0,1-5190.028,2039.135Z" fill="#a8d29f"/>
        <path id="Path_135182" data-name="Path 135182" d="M-5225.765,2100.705a14.391,14.391,0,0,1-13.139,1.015l-19.284-8.111-.478-.2-12.077-5.08a14.435,14.435,0,0,1-3.3-1.934c-.23-.179-.453-.365-.67-.556-3.578-3.168-6.225-10.273-4-15.657,0,0,40.913,16.877,48.855,21.83C-5225.765,2094.567-5225.765,2098.2-5225.765,2100.705Z" fill="#82b378"/>
        <g id="Group_92333" data-name="Group 92333">
          <g id="Group_92330" data-name="Group 92330">
            <path id="Path_135183" data-name="Path 135183" d="M-5222.969,2010.641c-.106.015-11.353,1.634-14.569,5.908-3.306,4.393-35.839,58.155-36.167,58.7a14.426,14.426,0,0,0,.209,11.558l-.549-.408c-.23-.179-.453-.365-.67-.556a12.947,12.947,0,0,1,.333-11c1.342-2.22,32.885-54.34,36.212-58.765,2.917-3.875,11.053-5.5,13.648-5.932l.843.271h0Z" fill="#66a357"/>
          </g>
          <g id="Group_92331" data-name="Group 92331">
            <path id="Path_135184" data-name="Path 135184" d="M-5209.7,2014.878a18.881,18.881,0,0,0-12.133,8.371c-4.675,7.536-34.517,64.037-34.817,64.6l-.022.042-.029.033c-.022.026-2.058,2.894-1.006,5.884l-.484-.2-.478-.2a6.822,6.822,0,0,1,1.34-5.962c.924-1.747,30.188-57.138,34.825-64.614a19.644,19.644,0,0,1,11.353-8.42Z" fill="#66a357"/>
          </g>
          <g id="Group_92332" data-name="Group 92332">
            <path id="Path_135185" data-name="Path 135185" d="M-5192.748,2021.8a16.375,16.375,0,0,0-4.72,1.389,17.976,17.976,0,0,0-7.584,6.857c-4.673,7.533-33.439,64.263-33.73,64.833l-.021.045-.032.036c-.021.025-1.717,3.524-.665,6.514l-1.215-.511c-.667-2.606.945-6.114,1.251-6.481.919-1.813,29.1-57.377,33.741-64.852a18,18,0,0,1,12.17-8.541c.089.073.178.146.265.223Z" fill="#66a357"/>
          </g>
        </g>
      </g>
      <g id="man">
        <g id="Group_92335" data-name="Group 92335">
          <path id="Path_135186" data-name="Path 135186" d="M-5182.765,2091.679s-4.114,3.814-3.311,6.523,4.515,4.516,5.017,7.828,2.509,5.117,4.315,5.117h8.612s1.33-2.33-1.882-3.032-4.422-4.594-4.221-8.207a64.65,64.65,0,0,0-.3-8.43l-6.824-1.6Z" fill="#233862"/>
          <path id="Path_135187" data-name="Path 135187" d="M-5108.171,2111.141h-22.868a2.039,2.039,0,0,1-.446-.134c-1.524-.762-1.048-6.593-.864-8.4.035-.335.061-.532.061-.532s8.029-6.421,9.132-1.5c.034.153.076.3.12.452,1.388,4.6,7.621,6.692,11.22,7.274C-5109.071,2108.744-5108.357,2110.339-5108.171,2111.141Z" fill="#233862"/>
          <path id="Path_135188" data-name="Path 135188" d="M-5112.771,1979.486s-1.219,15.212-2.652,33.5c-1.948,24.84-4.29,55.352-4.522,61.133-.4,10.037-2.008,26.092-2.008,26.092s-3.812,3.814-11.44,2.207a262.672,262.672,0,0,1-8.74-47.169q-.045-.6-.09-1.2c-1.807-24.686-4.615-76.669-4.615-76.669Z" fill="#2b478b"/>
          <path id="Path_135189" data-name="Path 135189" d="M-5112.771,1979.486s-1.219,15.212-2.652,33.5l-26.71,42.263q-.045-.6-.09-1.2c-1.807-24.686-4.615-76.669-4.615-76.669Z" fill="#233862"/>
          <path id="Path_135190" data-name="Path 135190" d="M-5118.339,1981.293s-21.977,55.092-36.428,80.983-18.966,33.116-18.966,33.116-8.279-3.311-9.032-5.569c0,0,5.526-49.983,15.2-62.168,5.468-6.885,11.891-27.546,12.192-34.772s1.957-21.525,1.957-21.525Z" fill="#2b478b"/>
        </g>
        <path id="Path_135191" data-name="Path 135191" d="M-5096.114,1966.083l1.256,2.5s6.388.893,4.63,7.551c0,0-.948,2.74-2.709,1.873s-.894-.793-3.419-1.96-3.985-3.408-3.421-5.464l-.4-2.18Z" fill="#ffb27d"/>
        <path id="Path_135192" data-name="Path 135192" d="M-5129.611,1896.251a64.331,64.331,0,0,0,1.007-9.189l-11.15-8.986c.414,12.357-7.5,18.3-7.5,18.3s14.859,7.314,23.448,4.6A20.567,20.567,0,0,0-5129.611,1896.251Z" fill="#ffb27d"/>
        <path id="Path_135193" data-name="Path 135193" d="M-5125.977,1886.858s-14.185,2.357-15.517-6.5-4.059-14.517,4.942-16.4,11.272,1.235,12.435,4.083S-5122.321,1886.017-5125.977,1886.858Z" fill="#ffb27d"/>
        <path id="Path_135194" data-name="Path 135194" d="M-5141.4,1880.97s.286-11.864,13.211-13.768c8.853-1.3,3.492-8.7,2.48-9.874,0,0-6.768,1.292-13.695,2.812C-5153.942,1863.331-5142.937,1879.2-5141.4,1880.97Z" fill="#233862"/>
        <path id="Path_135195" data-name="Path 135195" d="M-5097.6,1969.563a24.245,24.245,0,0,0,3.305-4.478s-16.118-20.025-17.428-22.1-11.1-35.384-11.1-35.384l-24.753-5.014s20.661,42.626,24.084,47.823c5.656,8.587,22.577,21.368,22.577,21.368A10.178,10.178,0,0,0-5097.6,1969.563Z" fill="#a53d38"/>
        <path id="Path_135196" data-name="Path 135196" d="M-5111.823,1980.753a1.389,1.389,0,0,1-.9.344c-3.225-.044-12.629,1.748-20.587.93-6.708-.644-12.646-2.631-19.022-5.489-.847-.379-2.8-1.42-2.752-2.366.029-1.036.132-2.539.261-4.432a237.066,237.066,0,0,0,.471-30.962c-.138-2.432-.21-4.844-.219-7.219-.066-17.7,3.384-33.356,10.436-38.625.6-.431,4.361,1.464,7.759,3.14a11.365,11.365,0,0,0,8.3.913l3.91,2.829c3.613,3.354,7.57,7.913,9.289,14.836,1.464,5.891,2.323,16.515,2.8,27.524.215,4.989.388,10.021.432,14.795v.171c.041.473.041.99.041,1.464C-5111.436,1970.861-5111.609,1980.58-5111.823,1980.753Z" fill="#b64c41"/>
        <path id="Path_135197" data-name="Path 135197" d="M-5154.826,1969.74a237.066,237.066,0,0,0,.471-30.962c-.138-2.432-.21-4.844-.219-7.219,2.938-7.127,5.339-12.295,5.339-12.295h7.4S-5136.4,1956.347-5154.826,1969.74Z" fill="#a53d38"/>
        <g id="Group_92336" data-name="Group 92336">
          <path id="Path_135198" data-name="Path 135198" d="M-5169.233,1972.045l-1.406,2.423s2.754,5.832-3.779,8.011c0,0-2.811.709-3.051-1.239s.174-1.183-.234-3.934.666-5.2,2.7-5.856l1.6-1.533Z" fill="#ffb27d"/>
          <path id="Path_135199" data-name="Path 135199" d="M-5172.96,1972.707a24.281,24.281,0,0,0,5.557.31s7.917-24.456,8.936-26.69,23.515-28.675,23.515-28.675l-9.372-23.453s-24.332,40.643-26.8,46.354c-4.083,9.437-5.5,30.6-5.5,30.6A10.2,10.2,0,0,0-5172.96,1972.707Z" fill="#b64c41"/>
        </g>
      </g>
      <path id="Path_135200" data-name="Path 135200" d="M-5129.177,1893.426a17.556,17.556,0,0,0-8.612-7.883,15.866,15.866,0,0,0,9.185,1.519S-5128.9,1891.515-5129.177,1893.426Z" fill="#e8945b"/>
      <g id="Group_92340" data-name="Group 92340">
        <path id="Path_135201" data-name="Path 135201" d="M-5543.49,2063.562h-14.09a9.432,9.432,0,0,1-9.421-9.422v-50.561a9.432,9.432,0,0,1,9.421-9.422h14.09a9.433,9.433,0,0,1,9.421,9.422v50.561A9.433,9.433,0,0,1-5543.49,2063.562Zm-14.09-66.892a6.917,6.917,0,0,0-6.909,6.909v50.561a6.917,6.917,0,0,0,6.909,6.909h14.09a6.916,6.916,0,0,0,6.908-6.909v-50.561a6.916,6.916,0,0,0-6.908-6.909Z" fill="#d86713"/>
        <g id="Group_92337" data-name="Group 92337">
          <path id="Path_135202" data-name="Path 135202" d="M-5540.606,2102.755h-2.143a4.414,4.414,0,0,0-4.414,4.414,4.414,4.414,0,0,0,4.414,4.414h2.143a4.415,4.415,0,0,0,4.415-4.414A4.415,4.415,0,0,0-5540.606,2102.755Z" fill="#d86713"/>
          <circle id="Ellipse_4102" data-name="Ellipse 4102" cx="4.414" cy="4.414" r="4.414" transform="translate(-5545.02 2102.755)" fill="#f1a34f"/>
        </g>
        <g id="Group_92338" data-name="Group 92338">
          <path id="Path_135203" data-name="Path 135203" d="M-5567.824,2102.755h-2.144a4.414,4.414,0,0,0-4.414,4.414,4.414,4.414,0,0,0,4.414,4.414h2.144a4.414,4.414,0,0,0,4.414-4.414A4.414,4.414,0,0,0-5567.824,2102.755Z" fill="#d86713"/>
          <circle id="Ellipse_4103" data-name="Ellipse 4103" cx="4.414" cy="4.414" r="4.414" transform="translate(-5572.239 2102.755)" fill="#f1a34f"/>
        </g>
        <rect id="Rectangle_32250" data-name="Rectangle 32250" width="56.789" height="81.652" rx="24.427" transform="translate(-5576.893 2022.735)" fill="#d86713"/>
        <rect id="Rectangle_32251" data-name="Rectangle 32251" width="56.789" height="81.652" rx="24.427" transform="translate(-5588.827 2022.735)" fill="#f1a34f"/>
        <g id="Group_92339" data-name="Group 92339" opacity="0.4">
          <path id="Path_135204" data-name="Path 135204" d="M-5557.4,2092.456H-5584.4a14.89,14.89,0,0,0-4,.549,14.894,14.894,0,0,0,14.471,11.382h27.008a14.88,14.88,0,0,0,4-.549A14.894,14.894,0,0,0-5557.4,2092.456Z" fill="#d86713"/>
        </g>
        <path id="Path_135205" data-name="Path 135205" d="M-5540.018,2023.572h1.343v-.837h-27.333a15.752,15.752,0,0,0-10.675,14.89V2089.5a15.753,15.753,0,0,0,10.675,14.891h27.333v-.838h-1.343a14.069,14.069,0,0,1-14.053-14.053v-51.871A14.07,14.07,0,0,1-5540.018,2023.572Zm-7.049,79.977h-13.888a14.068,14.068,0,0,1-14.053-14.053v-51.871a14.069,14.069,0,0,1,14.053-14.053h13.888a15.742,15.742,0,0,0-8.679,14.053V2089.5A15.741,15.741,0,0,0-5547.067,2103.549Z" fill="#d86713"/>
      </g>
      <path id="Path_135206" data-name="Path 135206" d="M-4991.04,2111.583h-608.634a.683.683,0,0,1-.683-.683h0a.683.683,0,0,1,.683-.683h608.634a.683.683,0,0,1,.683.683h0A.683.683,0,0,1-4991.04,2111.583Z" fill="#283250"/>
    </g>
  </g>
</svg>
