<svg xmlns="http://www.w3.org/2000/svg" xmlns:xlink="http://www.w3.org/1999/xlink" width="190" height="462" viewBox="0 0 190 462">
  <defs>
    <clipPath id="clip-path">
      <rect id="Rectangle_12167" data-name="Rectangle 12167" width="190" height="462" transform="translate(180 2087)" fill="none" stroke="#707070" stroke-width="1"/>
    </clipPath>
    <linearGradient id="linear-gradient" x1="0.379" y1="0.559" x2="1.027" y2="0.73" gradientUnits="objectBoundingBox">
      <stop offset="0" stop-color="#f6bc9f"/>
      <stop offset="1" stop-color="#e25526"/>
    </linearGradient>
  </defs>
  <g id="t1-i3" transform="translate(-180 -2087)" clip-path="url(#clip-path)">
    <g id="Group_57096" data-name="Group 57096" transform="translate(-99.867 858)">
      <g id="Group_57095" data-name="Group 57095" transform="translate(212.867 1321.623)">
        <path id="Path_103291" data-name="Path 103291" d="M201.612,410.964c-.742,1.566,19.74,33.894,57.26,30.117l2.763-9.944s-33.738,4.508-54.993-22.874Z" transform="translate(-13.2 -165.476)" fill="#f6bc9f"/>
        <path id="Path_103292" data-name="Path 103292" d="M135.981,384.012l100.041,128.7-27.107,23.753L151.2,460.238Z" transform="translate(-38.127 -174.69)" fill="#e9946f"/>
        <path id="Path_103293" data-name="Path 103293" d="M137.872,384.791l47.068,61.728-23.533,22.81S126.582,431.715,137.872,384.791Z" transform="translate(-38.265 -174.394)" fill="#514e78"/>
        <path id="Path_103294" data-name="Path 103294" d="M161.439,385.114,207.448,492.9H173.287l19.723,53.312L73.5,546.259s-18.047-79.964,46-168.018Z" transform="translate(-62.755 -176.882)" fill="#52668a"/>
        <path id="Path_103295" data-name="Path 103295" d="M149.067,386.724l14.393,33.717s-43.839,19.029-59.74-35.8l3.408-10.639Z" transform="translate(-50.384 -178.492)" fill="#f6bc9f"/>
        <path id="Path_103296" data-name="Path 103296" d="M152.638,280.03l-5.023,162.025L106.19,418.609l8.547-146.62Z" transform="translate(-49.446 -217.25)" fill="#f6bc9f"/>
        <path id="Path_103297" data-name="Path 103297" d="M146.4,367.035s-20.194-13.384-23.954-31.058l-6.911,37.2,29.4,16.4Z" transform="translate(-45.896 -192.939)" fill="#e67f69"/>
        <path id="Path_103298" data-name="Path 103298" d="M195.474,550.213,171.361,385.728s51.019,2.129,46.973-37.913l8.56,3.109s-1.494,30.363-23.23,38.5c0,0,22.573,5.815,29.5-30.3l11.015,6.68s-6.084,28.429-38.454,28.742c0,0,31.894-2.093,41-22.415l6.679,9.222s-26.318,30.805-58.433,23.464L230.037,543.03Z" transform="translate(-24.685 -188.442)" fill="#e9946f"/>
        <path id="Path_103299" data-name="Path 103299" d="M166.134,544.067l39.775-142.379s46.552,20.99,57.718-17.676l6.785,6.072s-12.7,27.622-35.9,27.067c0,0,18.778,13.807,38.664-17.124l7.732,10.307s-16.242,24.113-46.4,12.342c0,0,30.378,9.942,46.4-5.525L283.67,428.2s-35.906,18.781-62.97,0l-19.985,115.87Z" transform="translate(-26.671 -174.69)" fill="#f6bc9f"/>
        <path id="Path_103300" data-name="Path 103300" d="M115.848,398.685l117.3,139.808H185.524L80.769,438.59Z" transform="translate(-59.104 -169.115)" fill="#f6bc9f"/>
        <path id="Path_103301" data-name="Path 103301" d="M113.448,394.266,163.3,448.871l-33.1,49.663L78.115,449.128S94.481,404.94,113.448,394.266Z" transform="translate(-60.112 -170.794)" fill="#52668a"/>
        <path id="Path_103302" data-name="Path 103302" d="M160.925,237.546s64.949-5.378,31.411,79.17C192.337,316.716,135.3,261.367,160.925,237.546Z" transform="translate(-31.165 -230.362)" fill="#3c2a34"/>
        <path id="Path_103303" data-name="Path 103303" d="M180.909,243.384l40.36,104.372L199.706,343.8l3.229,17.3s-32.492,13.912-41-10.845c0,0-4.207,44.344,46.385,32.937l4.305,22.479s-87.769,25.476-95.3-44.572-4.8-78.249-4.8-78.249L171.033,248.8Z" transform="translate(-47.225 -228.118)" fill="#f6bc9f"/>
        <path id="Path_103304" data-name="Path 103304" d="M156.136,334.347s6.753-15.985,9.146-15.508,4.305,11,4.305,11,1.435-13.894,5.262-11.015S181,334.372,181,334.372,166.175,339.375,156.136,334.347Z" transform="translate(-30.47 -199.604)" fill="#e86f52"/>
        <path id="Path_103305" data-name="Path 103305" d="M182.424,345.949s5.931,10.251-5.477,9.294a17.69,17.69,0,0,1-15-10.478S172.235,347.74,182.424,345.949Z" transform="translate(-28.262 -189.601)" fill="#e86f52"/>
        <path id="Path_103306" data-name="Path 103306" d="M161.61,280.594s17.439,27.879.6,27.767c-6.15-.04-15.158-22.162-15.158-22.162s12.248,15.665,15.158,15.128C167.606,300.335,161.61,280.594,161.61,280.594Z" transform="translate(-33.922 -213.981)" fill="#3c2a34"/>
        <path id="Path_103307" data-name="Path 103307" d="M150.69,312.513a10.028,10.028,0,1,1-10.028-10.027A10.028,10.028,0,0,1,150.69,312.513Z" transform="translate(-40.159 -205.663)" fill="#e67f69"/>
        <path id="Path_103308" data-name="Path 103308" d="M143.9,347.249l6.235,119.217L68.157,441.643S32.355,185.21,204.531,240C204.531,240,143.9,285.051,143.9,347.249Z" transform="translate(-65.069 -232.321)" fill="#3c2a34"/>
        <path id="Path_103309" data-name="Path 103309" d="M108.982,402l39.9,47.376A160.762,160.762,0,0,1,108.982,402Z" transform="translate(-48.385 -167.855)" fill="#514e78"/>
        <path id="Path_103310" data-name="Path 103310" d="M86.994,436.333l46.292,40.044S110.075,471.752,86.994,436.333Z" transform="translate(-56.739 -154.812)" fill="#514e78"/>
        <path id="Path_103311" data-name="Path 103311" d="M123.02,459.091" transform="translate(-43.051 -146.165)" fill="#f6bc9f"/>
        <path id="Path_103312" data-name="Path 103312" d="M146.359,437.267l-16.52,36.707,41.351,49.861L118.5,475.179Z" transform="translate(-44.769 -154.457)" fill="#e9946f"/>
        <path id="Path_103313" data-name="Path 103313" d="M179.994,243.509s-15.16,58.1-57.136,94.631C122.859,338.14,82.089,235.427,179.994,243.509Z" transform="translate(-46.311 -228.243)" fill="#3c2a34"/>
        <path id="Path_103314" data-name="Path 103314" d="M132.887,322.695a13.349,13.349,0,1,1-13.348-13.347A13.349,13.349,0,0,1,132.887,322.695Z" transform="translate(-49.446 -203.056)" fill="#f6bc9f"/>
        <path id="Path_103315" data-name="Path 103315" d="M163.7,275.252s-9.868-8.805-16.685,8.06Z" transform="translate(-33.936 -216.883)" fill="#3c2a34"/>
        <path id="Path_103316" data-name="Path 103316" d="M139.1,236.718s-34.551,9.626-58.332,81.334C80.769,318.052,87.823,249.384,139.1,236.718Z" transform="translate(-59.104 -230.65)" fill="#6d584f"/>
        <path id="Path_103317" data-name="Path 103317" d="M174.5,275.851l23.035,59.571-21.563-3.955Z" transform="translate(-23.493 -215.783)" opacity="0.5" fill="url(#linear-gradient)"/>
        <path id="Path_103318" data-name="Path 103318" d="M127.492,326.139s.163-13.463-19.656-6.548C107.836,319.592,124.209,319.662,127.492,326.139Z" transform="translate(-48.82 -199.915)" fill="#e67f69"/>
        <path id="Path_103319" data-name="Path 103319" d="M171.361,243.384s20.526,21.252,15.85,49.379C187.211,292.763,203.412,257.019,171.361,243.384Z" transform="translate(-24.685 -228.118)" fill="#6d584f"/>
        <path id="Path_103320" data-name="Path 103320" d="M126.967,300.716l1.866,38.864S112.86,311.67,126.967,300.716Z" transform="translate(-43.763 -206.336)" fill="#3c2a34"/>
      </g>
      <path id="Path_103321" data-name="Path 103321" d="M76.892,98.768C76.892,71,63.058,52.29-.787,56.844c-33.35,2.378-50.821,17.672-50.821,39.473S-36.02,135.58-.787,135.791c17.762.106,31.87-.794,42.92-2.833a41.857,41.857,0,0,1-10.657,25.9S42.79,156.982,55,137.831a31.988,31.988,0,0,0,4.085-9.91C71.922,121.984,76.892,112.491,76.892,98.768Z" transform="translate(392.975 1174.171)" fill="#ffcc05"/>
    </g>
  </g>
</svg>
