<svg xmlns="http://www.w3.org/2000/svg" width="150" height="150" viewBox="0 0 150 150">
  <g id="t1-ic3" transform="translate(5865 4997)">
    <rect id="Rectangle_12820" data-name="Rectangle 12820" width="150" height="150" rx="13" transform="translate(-5865 -4997)" fill="#da291c"/>
    <g id="_da291cff" data-name="#da291cff" transform="translate(-6031.1 -5302.72)">
      <path id="Path_135998" data-name="Path 135998" d="M1085.612,374.59a13.259,13.259,0,0,1,3.3-9.87,50.87,50.87,0,0,0,4.565,12.324,48.382,48.382,0,0,0,6.094,9.127.127.127,0,1,1-.042.249,21.815,21.815,0,0,1-6.741-1.544,11.956,11.956,0,0,1-4.865-3.669A11.742,11.742,0,0,1,1085.612,374.59Z" transform="translate(-805.66 0)" fill="#fff"/>
      <path id="Path_135999" data-name="Path 135999" d="M464.322,394.635a2.5,2.5,0,0,1,2.562.59,2.307,2.307,0,0,1,.637,1.934,2.378,2.378,0,0,1-1.4,1.838,2.468,2.468,0,0,1-2.62-.385,2.341,2.341,0,0,1,.817-3.977Z" transform="translate(-255.707 -26.296)" fill="#fff"/>
      <path id="Path_136000" data-name="Path 136000" d="M181.443,397.669c1.027-.015,2.055,0,3.081-.007q4.32,10.8,8.642,21.59c-1.49,0-2.982.013-4.472-.007-.677-1.763-1.389-3.511-2.063-5.274-2.434-.028-4.868,0-7.3-.013-.645,1.763-1.308,3.519-1.946,5.285-1.427.023-2.856.012-4.283.006q4.166-10.792,8.343-21.58m1.568,6.213c-.671,2.217-1.576,4.354-2.347,6.536,1.534.009,3.067,0,4.6,0C184.52,408.24,183.692,406.086,183.011,403.883Z" transform="translate(0 -29.085)" fill="#fff"/>
      <path id="Path_136001" data-name="Path 136001" d="M519.906,448.216a11.481,11.481,0,0,1,7.6-1.694,5.518,5.518,0,0,1,3.524,1.612,5.694,5.694,0,0,1,1.253,3.745c.013,2.539,0,5.079.007,7.618a10.675,10.675,0,0,0,.35,2.823c-.811,0-1.624,0-2.435,0a1.8,1.8,0,0,1-1.186-.349,2.26,2.26,0,0,1-.56-.891,6.619,6.619,0,0,1-5.65,1.42,4.8,4.8,0,0,1-3-1.994,5.162,5.162,0,0,1,.286-6.079,6.529,6.529,0,0,1,3.956-1.87c1.322-.215,2.672-.089,3.994-.262a2.506,2.506,0,0,0-.76-1.946,4.01,4.01,0,0,0-3.071-.516,8.816,8.816,0,0,0-2.878,1.108c-.493-.9-.961-1.812-1.426-2.726m5.249,7.285a2.289,2.289,0,0,0-1.81,1,1.871,1.871,0,0,0,1.535,2.68,4.034,4.034,0,0,0,3.131-.816c-.006-1,0-2,0-3C527.055,455.41,526.1,455.383,525.155,455.5Z" transform="translate(-305.363 -72.15)" fill="#fff"/>
      <path id="Path_136002" data-name="Path 136002" d="M660.663,448.286a8.809,8.809,0,0,1,4.71-1.844,5.117,5.117,0,0,1,3.666,1.063,5.027,5.027,0,0,1,1.664,3.065,15.222,15.222,0,0,1,.126,2.713c0,3-.007,6.008.006,9.013-1.4.033-2.811,0-4.216.016-.022-3.129,0-6.259-.013-9.388a3.726,3.726,0,0,0-.62-2.244,1.914,1.914,0,0,0-1.663-.576,6.673,6.673,0,0,0-3.442,1.506q0,5.349,0,10.7-2.107.007-4.214,0-.005-7.766,0-15.53a8.145,8.145,0,0,1,2.9.241A2.127,2.127,0,0,1,660.663,448.286Z" transform="translate(-426.95 -72.139)" fill="#fff"/>
      <path id="Path_136003" data-name="Path 136003" d="M799.889,446.621a9.172,9.172,0,0,1,6.318.955c-.047,1.157-.1,2.312-.141,3.469a6.575,6.575,0,0,0-4.3-1.28,4.046,4.046,0,0,0-2.85,1.489,5.176,5.176,0,0,0-1.024,3.786,4.756,4.756,0,0,0,1.494,3.2,4.26,4.26,0,0,0,3.2.9,8.058,8.058,0,0,0,3.19-1.089q.543,1.5,1.1,2.987a10.7,10.7,0,0,1-4.36,1.521,8.178,8.178,0,0,1-5.962-1.384,7.567,7.567,0,0,1-2.784-4.913A8.934,8.934,0,0,1,795,449.919,7.694,7.694,0,0,1,799.889,446.621Z" transform="translate(-547.895 -72.146)" fill="#fff"/>
      <path id="Path_136004" data-name="Path 136004" d="M915.584,448.048a11.45,11.45,0,0,1,7.39-1.5,5.423,5.423,0,0,1,3.468,1.639,5.739,5.739,0,0,1,1.218,3.718c.011,1.869,0,3.738,0,5.608a18.454,18.454,0,0,0,.343,4.818c-.749.006-1.5,0-2.247,0a2.183,2.183,0,0,1-1.266-.274,2.458,2.458,0,0,1-.68-.948l-.025.056a7.451,7.451,0,0,1-2.363,1.225,6.009,6.009,0,0,1-5.245-.8,4.945,4.945,0,0,1,1.972-8.746,22.422,22.422,0,0,1,5.237-.5,2.464,2.464,0,0,0-.629-1.892,3.441,3.441,0,0,0-2.617-.678,7.965,7.965,0,0,0-3.449,1.186c-.455-.939-1-1.833-1.413-2.793.075-.032.226-.095.3-.128m3.745,7.847a1.749,1.749,0,0,0-.573,2.319,1.891,1.891,0,0,0,1.389.964,4.06,4.06,0,0,0,3.236-.786c0-1,0-2.006,0-3.007C922.032,455.488,920.575,455.253,919.33,455.894Z" transform="translate(-654.449 -72.164)" fill="#fff"/>
      <path id="Path_136005" data-name="Path 136005" d="M318.78,449.26c1.4.048,2.805.007,4.208.021,1.24,3.344,2.432,6.706,3.7,10.038q1.87-5.019,3.743-10.038h4.211c-1.96,4.746-3.943,9.483-5.911,14.227a9.9,9.9,0,0,0-.488,1.268,10.385,10.385,0,0,1-2.072-.012,2.289,2.289,0,0,1-1.708-1.522q-2.8-6.8-5.58-13.6A2.839,2.839,0,0,1,318.78,449.26Z" transform="translate(-128.624 -74.642)" fill="#fff"/>
      <path id="Path_136006" data-name="Path 136006" d="M465.191,449.395c1.4,0,2.793.007,4.19,0,.056,2.132.008,4.266.025,6.4q0,4.568,0,9.137c-1.4,0-2.809,0-4.214,0Q465.194,457.159,465.191,449.395Z" transform="translate(-257.893 -74.757)" fill="#fff"/>
      <path id="Path_136007" data-name="Path 136007" d="M1139.667,550.5c.055-.067.114-.132.174-.2a22.458,22.458,0,0,1,4.709.829,4.135,4.135,0,0,1,2.9,2.424,10.821,10.821,0,0,0-3.067-.232c-.644,0-1.288,0-1.932,0a28.974,28.974,0,0,0,11.172,6.758,16.152,16.152,0,0,1-3.519.121,18.358,18.358,0,0,1-6.726-1.562c-1.92-.85-3.621-2.1-5.468-3.087a12.681,12.681,0,0,0-4.181-1.412c-.667-.11-1.348-.1-2.013-.221a1.431,1.431,0,0,1-1.078-.594c3.933-.027,7.867.018,11.8-.022-.722-.663-1.4-1.369-2.065-2.088A5.043,5.043,0,0,0,1139.667,550.5Z" transform="translate(-845.433 -163.853)" fill="#fff"/>
    </g>
  </g>
</svg>
