<svg xmlns="http://www.w3.org/2000/svg" width="295" height="510" viewBox="0 0 295 510">
  <g id="t2-i4" transform="translate(-285 -2311)">
    <path id="Path_135487" data-name="Path 135487" d="M0-155.333H229a66,66,0,0,1,66,66V91H0Z" transform="translate(285 2699)" fill="#ffdc72" opacity="0.5"/>
    <g id="Group_92476" data-name="Group 92476" transform="translate(4068.396 70.894)">
      <g id="Group_92431" data-name="Group 92431" transform="translate(-3752.396 2727.737)" opacity="0.25">
        <g id="Group_92430" data-name="Group 92430">
          <g id="Group_92429" data-name="Group 92429">
            <path id="Path_135445" data-name="Path 135445" d="M-3584.031,2713.916c0,6.177-37.689,11.184-84.182,11.184s-84.183-5.008-84.183-11.184,37.69-11.185,84.183-11.185S-3584.031,2707.738-3584.031,2713.916Z" transform="translate(3752.396 -2702.731)" fill="#231f20"/>
          </g>
        </g>
      </g>
      <path id="Path_135446" data-name="Path 135446" d="M-3636.017,2344.191c6.1,3.991,22.821,45.079,33.679,70.775l43.686,22.018s-3.276,9.453-2.978,9.867c-22.7-2.81-47.635-13.611-51.045-15.52-4.4-2.465-35.638-57.856-35.638-57.856Z" transform="translate(5.626 5.626)" fill="#fab57a"/>
      <path id="Path_135447" data-name="Path 135447" d="M-3597.628,2417.34l-4.71-2.374c-10.858-25.7-27.583-66.784-33.679-70.775l-12.3,29.284s24.794,43.966,33.309,55.282C-3608.648,2426.09-3603.079,2421.5-3597.628,2417.34Z" transform="translate(5.626 5.626)" fill="#e58052"/>
      <path id="Path_135448" data-name="Path 135448" d="M-3617.069,2408.661c2.711-2.575,6.086-4.933,8.843-7.69-10.288-24.453-22.719-53.457-27.792-56.78l-12.3,29.284s13.972,24.775,24.545,41.925C-3621.581,2413.108-3619.366,2410.844-3617.069,2408.661Z" transform="translate(5.626 5.626)" fill="#5038a1"/>
      <path id="Path_135449" data-name="Path 135449" d="M-3548.128,2430.667c-1.822.143-2.7.749-4.624.955a5.427,5.427,0,0,0-1.064.243c5.414,1.185,25.771,5.94,23.794,12.168-4.081,12.857-27.7,6.507-27.7,6.507-12.694-1.1-13.217-5.714-12.38-12.3a11.152,11.152,0,0,1,.838-3.079c1.124-1.78,3.478-5.186,6.073-6.416,3.423-1.622,16.782-2.5,18.507-2.918S-3541.567,2430.151-3548.128,2430.667Z" transform="translate(9.84 10.037)" fill="#fab57a"/>
      <path id="Path_135450" data-name="Path 135450" d="M-3628.617,2413.329s15.152-24.772,19.74-21.1c1.7,1.362,7.488,16.678,7.488,16.678s-14.976,14.975-20.081,14.975S-3628.617,2413.329-3628.617,2413.329Z" transform="translate(6.691 8.202)" fill="#e6e7e8"/>
      <path id="Path_135451" data-name="Path 135451" d="M-3689.067,2692.944s16.746-68.911,24.667-85.544,8.316-27.722,13.465-36.435,26.477-77.625,20.141-102.179l-40.792,28.911-6.675,68.119s-2.772,22.97-5.147,27.326-8.318,19.406-11.486,34.456,6.225,35.644-4.468,47.92-1.585,14.258-4.357,24.555-7.128,22.178-2.377,24.951,16.238,3.563,17.03-.4S-3692.235,2704.825-3689.067,2692.944Z" transform="translate(2.388 12.36)" fill="#e78052"/>
      <path id="Path_135452" data-name="Path 135452" d="M-3631.638,2451.73c1.153,9.962,2.066,30.695.322,36.122-3.565,11.089-33.268,19.406-33.268,19.406s1.189,8.713,1.98,22.97,3.565,40.792,1.584,47.525,1.81,67.326,4.978,81.584,7.751,30.495,11.315,43.169,10.693,22.574,11.486,26.534-6.337,3.96-17.031,2.772-10.3-9.109-10.692-16.238-8.317-9.9-8.714-14.257,2.377-14.258,2.377-21.386-19.462-73.267-17.482-100.99-15.049-41.585-20.2-75.643c-3.785-25.041,5.419-45.534,10.475-53.425C-3688.928,2445.157-3647.388,2443.051-3631.638,2451.73Z" transform="translate(2.515 11.117)" fill="#fab57a"/>
      <path id="Path_135453" data-name="Path 135453" d="M-3688.042,2554.507c-4.845-14.815-13.512-28.543-16.938-51.209-3.785-25.041,5.419-45.534,10.475-53.425,5.577-4.716,47.117-6.822,62.866,1.856.626,5.408,1.178,13.981,1.276,21.567,2.181,19.488-3.591,58.316-14.413,81.378C-3655.694,2551.373-3678.25,2550.559-3688.042,2554.507Z" transform="translate(2.515 11.117)" fill="#8c6df2"/>
      <path id="Path_135454" data-name="Path 135454" d="M-3643.729,2466.509c-8.045,2.713-17.5,2.669-25.819,1.761-10.532-1.149-20.686-4.13-30.624-7.727a65.5,65.5,0,0,1,5.359-10.67c5.577-4.716,47.117-6.822,62.866,1.856.256,2.2.5,4.942.7,7.913C-3635.271,2462.213-3639.213,2464.986-3643.729,2466.509Z" transform="translate(2.823 11.117)" fill="#5038a1"/>
      <path id="Path_135455" data-name="Path 135455" d="M-3670.438,2678.744c.72.432,1.434.878,2.126,1.361,6.646,4.642,7.523,10.745,10.838,17.486,3.852,7.83,10.637,8.083,17.91,9.312,2.223,4.325,4.087,7.632,4.468,9.545.793,3.96-6.336,3.96-17.03,2.772s-10.3-9.109-10.692-16.238a11.4,11.4,0,0,0-3.338-7.077c-1.216,6.035.617,20.983.617,20.983h-3.661a211.531,211.531,0,0,0-2.331-28.163C-3671.735,2686.486-3671.1,2682.781-3670.438,2678.744Z" transform="translate(4.369 23.709)" fill="#12263f"/>
      <path id="Path_135456" data-name="Path 135456" d="M-3703.72,2689.317a15.365,15.365,0,0,0,.537-3.637,17.762,17.762,0,0,0-3.183,5.941,2.831,2.831,0,0,1-1.672-2.229,54.462,54.462,0,0,0,3.394-12.9c-.187-2.383.343-5.027,2.929-8.717.664,3.678,2.625,7.266,2.985,11.24s-.365,7.612-1.095,11.471c-.4,2.134-.951,4.776-.195,6.933,1.434,4.091,5.761,4.857,10.169,4.774.493,5.4,1.153,9.835.783,11.681-.791,3.96-12.276,3.168-17.028.4S-3706.492,2699.615-3703.72,2689.317Z" transform="translate(2.388 23.117)" fill="#12263f"/>
      <path id="Path_135457" data-name="Path 135457" d="M-3698.643,2267.227s-21.865,42.679-6.009,57.892,26.784,16.928,35.783,16.928,30-13.5,30.427-21.643,3.292-27.93-8.96-53.177Z" transform="translate(2.269 1.466)" fill="#2f1c0d"/>
      <path id="Path_135458" data-name="Path 135458" d="M-3665.511,2325.433s4.929-6.106,10.178-4.178,11.678,7.928,17.571,7.285c0,0-4.715,7.071-12.214,4.928S-3665.511,2325.433-3665.511,2325.433Z" transform="translate(4.696 4.366)" fill="#5038a1"/>
      <path id="Path_135459" data-name="Path 135459" d="M-3692.34,2425.487c-.979-7.05-24.319-76.344-24.319-76.344s24.5-13.649,26.878-14.642c8.578-3.579,1.186-25.713,1.186-25.713l22.466.8,6.413,22.1s23.715,12.189,26.607,13.689.32.4-.161,11.817c-.315,7.475,4.688,16.541,4.889,27.432s-7.914,25.154-7.914,25.158c3.233,24.87,12.353,43.349,12.353,45.921-.021,7.052-14.447,9.83-30.771,10.213-1.311.031-3.962-5.1-3.962-5.1s-2.856,5.128-4.286,5.1c-18.9-.411-37.562-3.517-37.564-6.549C-3700.525,2459.364-3691.359,2432.538-3692.34,2425.487Z" transform="translate(1.932 3.712)" fill="#8c6df2"/>
      <path id="Path_135460" data-name="Path 135460" d="M-3670.968,2356.43c-2.554-2.328-5.451-4.173-7.649-6.892-3.708-4.592-8.278-10.459-11.137-15.961,6.18-5.435-.281-24.789-.281-24.789l22.466.8,6.413,22.1,3.247,1.669c-1.108,9.5-3.184,20.8-7.646,28.94C-3665.653,2362.186-3669.5,2357.762-3670.968,2356.43Z" transform="translate(3.371 3.712)" fill="#fab57a"/>
      <path id="Path_135461" data-name="Path 135461" d="M-3689.753,2333.577a60.131,60.131,0,0,0,3.344,5.56c10.427,5.933,19.49,6.791,27.432,1.79.435-2.589.785-5.142,1.07-7.576l-3.247-1.669-6.413-22.1-22.466-.8S-3683.574,2328.142-3689.753,2333.577Z" transform="translate(3.371 3.712)" fill="#e68052"/>
      <path id="Path_135462" data-name="Path 135462" d="M-3663.363,2327.082s10.507,4.456,17.239,19.286c3.717,8.188-.755.916-.755.916l-2.8-4.9s-16.111,16.667-17.188,18.929l4.334-30.064Z" transform="translate(4.623 4.701)" fill="#e6e7e8"/>
      <path id="Path_135463" data-name="Path 135463" d="M-3687.378,2321.54s-1.206,1.377-1.206,2.035,1.607,2.125,1.286,3.112-.75,2.45-.108,3.546,1.715,5.666,15.215,6.1,12.695-3.65,11.73-5.076a4.956,4.956,0,0,1-.16-4.5c.482-.658-.562-1.972-1.366-2.41S-3676.933,2326.475-3687.378,2321.54Z" transform="translate(3.449 4.402)" fill="#8c6df2"/>
      <path id="Path_135464" data-name="Path 135464" d="M-3687.465,2327.435s-4.941,4.894-5.547,6.738c-.779,2.374-.215,17.993-.215,17.993l8.3-6.357,7,4.525,12.488,10.926S-3685.526,2335.624-3687.465,2327.435Z" transform="translate(3.188 4.72)" fill="#e6e7e8"/>
      <path id="Path_135465" data-name="Path 135465" d="M-3659.006,2375.288a72.471,72.471,0,0,1,16.071.214s-6.643-8.57-9.856-9.643S-3659.006,2375.288-3659.006,2375.288Z" transform="translate(5.048 6.793)" fill="#e6e7e8"/>
      <g id="Group_92432" data-name="Group 92432" transform="translate(-3656.699 2380.354)">
        <path id="Path_135466" data-name="Path 135466" d="M-3640.623,2376.9c-13.089-2.467-20.1-.227-20.165-.2l-.818-2.439c.3-.1,7.631-2.493,21.461.116Z" transform="translate(3661.607 -2373.162)" fill="#5038a1"/>
      </g>
      <g id="Group_92433" data-name="Group 92433" transform="translate(-3690.813 2370.277)">
        <path id="Path_135467" data-name="Path 135467" d="M-3683.364,2365.571l-1.554-1.969h-9.043c0,.07-.01.141-.01.213,0,1.907,1.231,3.468,2.736,3.468h15.741c1.505,0,2.736-1.561,2.736-3.468,0-.072-.005-.143-.01-.213h-9.044Z" transform="translate(3693.971 -2363.602)" fill="#ffe177"/>
      </g>
      <g id="Group_92467" data-name="Group 92467" transform="translate(-3698.607 2251.375)">
        <g id="Group_92457" data-name="Group 92457" transform="translate(0 11.898)">
          <g id="Group_92456" data-name="Group 92456">
            <g id="Group_92435" data-name="Group 92435" transform="translate(48.706 26.895)">
              <g id="Group_92434" data-name="Group 92434">
                <path id="Path_135468" data-name="Path 135468" d="M-3654.628,2294.188c-1.3,4.379-.119,8.6,2.641,9.416s6.052-2.067,7.353-6.447.12-8.6-2.639-9.417S-3653.326,2289.807-3654.628,2294.188Z" transform="translate(3655.157 -2287.601)" fill="#e78052"/>
              </g>
            </g>
            <g id="Group_92437" data-name="Group 92437" transform="translate(0 26.285)">
              <g id="Group_92436" data-name="Group 92436">
                <path id="Path_135469" data-name="Path 135469" d="M-3701.056,2296.312c.994,4.46,4.076,7.569,6.887,6.943s4.282-4.749,3.291-9.208-4.077-7.569-6.887-6.944S-3702.048,2291.851-3701.056,2296.312Z" transform="translate(3701.365 -2287.022)" fill="#e78052"/>
              </g>
            </g>
            <g id="Group_92439" data-name="Group 92439" transform="translate(5.938)">
              <g id="Group_92438" data-name="Group 92438">
                <path id="Path_135470" data-name="Path 135470" d="M-3671.481,2262.087c22.548.242,23.681,21.414,23.736,23.966,0,.154,0,.3-.013.457-.161,2.355-1.711,24.12-3.926,28.257-1.837,3.431-15.268,14.509-20.658,14.509s-18.3-11.478-20.064-14.947c-2.126-4.184-3.208-25.979-3.319-28.335-.007-.155-.008-.3,0-.458C-3695.618,2282.987-3694.03,2261.844-3671.481,2262.087Z" transform="translate(3695.732 -2262.085)" fill="#fbbe7d"/>
              </g>
            </g>
            <path id="Path_135471" data-name="Path 135471" d="M-3691.906,2272.6h0c.009-.016.02-.031.031-.048q.567-.955,1.252-1.887c.126-.171.274-.334.407-.5.339-.432.69-.858,1.073-1.272.215-.233.447-.456.676-.682.343-.337.7-.665,1.072-.984.275-.233.554-.462.847-.684.387-.294.8-.57,1.219-.842.316-.206.624-.416.959-.606.523-.3,1.089-.564,1.661-.824a25.956,25.956,0,0,1,11.231-2.178c22.548.242,23.68,21.414,23.736,23.966,0,.154,0,.3-.013.457-.021.305-.066.944-.131,1.817a151.665,151.665,0,0,0-18.363-8.92c-6.723-2.621-13.016-3.8-19.67-5.328a79.887,79.887,0,0,1-9.6,15.638c-.109-1.855-.178-3.229-.2-3.722-.007-.155-.008-.3,0-.458A29.705,29.705,0,0,1-3691.906,2272.6Z" transform="translate(3701.67 -2262.085)" fill="#e78052"/>
            <g id="Group_92450" data-name="Group 92450" transform="translate(17.104 30.676)">
              <g id="Group_92444" data-name="Group 92444">
                <g id="Group_92443" data-name="Group 92443">
                  <g id="Group_92442" data-name="Group 92442">
                    <g id="Group_92441" data-name="Group 92441">
                      <g id="Group_92440" data-name="Group 92440">
                        <path id="Path_135472" data-name="Path 135472" d="M-3682.463,2291.2c1.58-.159,2.947,1.543,3.054,3.8s-1.089,4.22-2.669,4.381-2.947-1.543-3.053-3.8S-3684.043,2291.358-3682.463,2291.2Z" transform="translate(3685.138 -2291.188)" fill="#231f20"/>
                      </g>
                    </g>
                  </g>
                </g>
              </g>
              <g id="Group_92449" data-name="Group 92449" transform="translate(20.649 0.222)">
                <g id="Group_92448" data-name="Group 92448">
                  <g id="Group_92447" data-name="Group 92447">
                    <g id="Group_92446" data-name="Group 92446">
                      <g id="Group_92445" data-name="Group 92445">
                        <path id="Path_135473" data-name="Path 135473" d="M-3662.874,2291.409c1.58-.159,2.948,1.543,3.055,3.8s-1.089,4.22-2.669,4.38-2.947-1.543-3.054-3.8S-3664.454,2291.568-3662.874,2291.409Z" transform="translate(3665.548 -2291.399)" fill="#231f20"/>
                      </g>
                    </g>
                  </g>
                </g>
              </g>
            </g>
            <g id="Group_92455" data-name="Group 92455" transform="translate(29.457 39.795)">
              <g id="Group_92454" data-name="Group 92454">
                <g id="Group_92453" data-name="Group 92453">
                  <g id="Group_92452" data-name="Group 92452">
                    <g id="Group_92451" data-name="Group 92451">
                      <path id="Path_135474" data-name="Path 135474" d="M-3672.573,2304.636c.381.634.358.521.1,1a5.531,5.531,0,0,1-.861.909c-.561.59,1.871.461,2.3.007.358-.377,1.223-1,1.4-1.5.213-.6-.218-.836-.648-1.2a7.507,7.507,0,0,1-2.42-3.926C-3672.857,2299.3-3673.871,2302.479-3672.573,2304.636Z" transform="translate(3673.419 -2299.839)" fill="#e78052"/>
                    </g>
                  </g>
                </g>
              </g>
            </g>
          </g>
          <path id="Path_135475" data-name="Path 135475" d="M-3663.373,2310.358a61.68,61.68,0,0,0-19.093,0s4.878,8.223,9.477,8.223S-3663.373,2310.358-3663.373,2310.358Z" transform="translate(3702.387 -2259.516)" fill="#fff"/>
        </g>
        <path id="Path_135476" data-name="Path 135476" d="M-3669.148,2252.1c-22.687-6.226-24.743,11.924-24.743,11.924s-3.711,1.364-5.33,4.094-.846,17.278,3.6,22.682c3.4-4.823,8.5-19,8.5-19s14.288-.436,39.629,18.333C-3642.192,2273.4-3648.612,2257.733-3669.148,2252.1Z" transform="translate(3701.439 -2250.797)" fill="#3e2511"/>
        <g id="Group_92466" data-name="Group 92466" transform="translate(10.448 32.712)">
          <g id="Group_92461" data-name="Group 92461">
            <g id="Group_92460" data-name="Group 92460">
              <g id="Group_92459" data-name="Group 92459">
                <g id="Group_92458" data-name="Group 92458">
                  <path id="Path_135477" data-name="Path 135477" d="M-3676.291,2283.715c-.146-.021-.295-.049-.44-.084-8.786-1.9-13.254,2.729-13.135,2.52a2.318,2.318,0,0,1-1.346.6c-.342-.026-.324-.361.079-.747.011.216,3.914-5.718,14.417-3.782C-3676,2282.389-3675.761,2283.795-3676.291,2283.715Z" transform="translate(3691.453 -2281.832)" fill="#3e2511"/>
                </g>
              </g>
            </g>
          </g>
          <g id="Group_92465" data-name="Group 92465" transform="translate(24.01 2.028)">
            <g id="Group_92464" data-name="Group 92464">
              <g id="Group_92463" data-name="Group 92463">
                <g id="Group_92462" data-name="Group 92462">
                  <path id="Path_135478" data-name="Path 135478" d="M-3668.35,2285.719a3.261,3.261,0,0,0,.4-.085c7.846-2.021,12.68,2.125,12.532,1.98a2.308,2.308,0,0,0,1.377.52c.339-.045.293-.38-.139-.743.042.144-4.487-5.308-13.97-3.112C-3668.8,2284.455-3668.824,2285.8-3668.35,2285.719Z" transform="translate(3668.675 -2283.757)" fill="#3e2511"/>
                </g>
              </g>
            </g>
          </g>
        </g>
      </g>
      <g id="Group_92469" data-name="Group 92469" transform="translate(-3696.55 2240.106)">
        <g id="Group_92468" data-name="Group 92468">
          <path id="Path_135479" data-name="Path 135479" d="M-3672.262,2240.126a8.608,8.608,0,0,0-1.355.015,8.633,8.633,0,0,0-1.357-.015c-14.414.964-26.016,26.034-24.264,28.567,1.445,2.09,19.372,7.213,25.621,7.141,6.248.072,24.175-5.051,25.62-7.141C-3646.246,2266.16-3657.847,2241.089-3672.262,2240.126Z" transform="translate(3699.414 -2240.106)" fill="#8c6df2"/>
        </g>
      </g>
      <g id="Group_92470" data-name="Group 92470" transform="translate(-3682.251 2240.106)">
        <path id="Path_135480" data-name="Path 135480" d="M-3662.854,2244.66a18.244,18.244,0,0,0-10.14-4.535,8.625,8.625,0,0,0-1.357.015,8.631,8.631,0,0,0-1.357-.015,18.247,18.247,0,0,0-10.141,4.535c4.5,2.735,8.96,4.746,11.5,4.677C-3671.815,2249.407-3667.354,2247.4-3662.854,2244.66Z" transform="translate(3685.848 -2240.106)" fill="#5038a1"/>
      </g>
      <g id="Group_92471" data-name="Group 92471" transform="translate(-3693.621 2257.282)">
        <path id="Path_135481" data-name="Path 135481" d="M-3673.725,2265.954h-.113c-4.567,0-16.121-6.032-21.6-9.553q-.647,1.137-1.2,2.229c6.091,3.936,17.656,9.9,22.779,9.9h.146c5.149,0,16.717-5.96,22.809-9.9q-.553-1.093-1.2-2.229C-3657.579,2259.922-3669.138,2265.954-3673.725,2265.954Z" transform="translate(3696.635 -2256.401)" fill="#ffe177"/>
      </g>
      <path id="Path_135482" data-name="Path 135482" d="M-3652.8,2507.084l-15.915-4.88c3.612,6.9,5.895,15.429,7.639,24.613C-3659.251,2519.336-3657,2512.268-3652.8,2507.084Z" transform="translate(4.523 14.167)" fill="#5038a1"/>
      <path id="Path_135483" data-name="Path 135483" d="M-3702.612,2432.965s-12.731-7-21.006-14-21.643-11.459-21.006,0,24.3,28.307,42.07,28.158Z" transform="translate(0.419 9.288)" fill="#e58052"/>
      <g id="Group_92475" data-name="Group 92475" transform="translate(-3706.815 2423.94)">
        <g id="Group_92474" data-name="Group 92474">
          <g id="Group_92473" data-name="Group 92473">
            <g id="Group_92472" data-name="Group 92472">
              <path id="Path_135484" data-name="Path 135484" d="M-3704.472,2446.98c-4.692-3.318-5.623-8.184-3.828-13.037,2.089-2.161,15.577-15.657,15.577-15.657l10.143-3.772s6.976,2.315,7.848,4.2-2.864,2.135-2.864,2.135l-5.133-.934a52.118,52.118,0,0,0-6.28,1.78c-1.593.725-3.615,4.031-3.615,4.031a16.551,16.551,0,0,1,4.325-1.091c1.436.031,7.562,2.165,7.562,2.165s5.769,3.686,6.587,5.34-2.476,2.893-4.414,1.446-3.25-2.25-3.25-2.25l-6.157-1.2-5.488.707,7.075,2.369,6.152,3.454s3.037,1.881,3.947,3.426-1.662,1.953-1.662,1.953l-4.708-1.445-6.584-2.509-6.412-1.038,7.337,2.784s4.21,2.9,4.587,3.982-1.57,1.845-1.57,1.845l-6.293-2.634C-3698.759,2441.541-3701.91,2447.042-3704.472,2446.98Z" transform="translate(3709.153 -2414.513)" fill="#fab57a"/>
            </g>
          </g>
        </g>
      </g>
      <path id="Path_135485" data-name="Path 135485" d="M-3715.146,2347.074s-30.433,32.744-29.478,72.528l11.458.955,29.918-42.861S-3695.535,2349.022-3715.146,2347.074Z" transform="translate(0.419 5.782)" fill="#8c6df2"/>
      <path id="Path_135486" data-name="Path 135486" d="M-3723.966,2405.844s-24.029-7.823-25.886-2.653c-.989,2.75,4,26.75,8.221,23.5-.042-2.5,10.294-11.3,13.464-10.5C-3723.537,2417.355-3723.966,2405.844-3723.966,2405.844Z" transform="translate(0.13 8.72)" fill="#e6e7e8"/>
    </g>
  </g>
</svg>
