<svg xmlns="http://www.w3.org/2000/svg" width="820" height="342.597" viewBox="0 0 820 342.597">
  <g id="t2-i1" transform="translate(4082.537 -3356.926)">
    <path id="Path_135490" data-name="Path 135490" d="M-3218.3,3400.164V3655.88a43.365,43.365,0,0,1-43.238,43.238h-693.787a43.364,43.364,0,0,1-38.662-23.925,42.962,42.962,0,0,1-4.576-19.313V3400.164a43.365,43.365,0,0,1,43.238-43.239h693.787A43.365,43.365,0,0,1-3218.3,3400.164Z" transform="translate(-48.974 0)" fill="#d2e4ff" opacity="0.4"/>
    <g id="Group_92492" data-name="Group 92492" transform="translate(-3735.636 3438.379)">
      <path id="Path_135491" data-name="Path 135491" d="M-2915.714,3552.976l-12.683,28.082-.35-.07-37.861-7.621s17.769-.877,19.685-2.285c1.8-1.326,21.052-17.294,26.5-18.634a2.221,2.221,0,0,1,.841-.074Z" transform="translate(3084.807 -3552.359)" fill="#e58638"/>
      <path id="Path_135492" data-name="Path 135492" d="M-3034.548,3602.666c-.885.132-3.53.475-7.155.878-10.421,1.161-28.939,2.832-37,1.507-7.233-1.189-45.478-7.559-71.92-12.193a42.787,42.787,0,0,1,22.593-13.531c30.815,5.265,71.109,12.234,76.214,13.544,8.4,2.157,19.57,4.38,19.57,4.38s.062.269.113.69C-3031.968,3599.31-3031.923,3602.27-3034.548,3602.666Z" transform="translate(3192.129 -3568.087)" fill="#e58638"/>
      <path id="Path_135493" data-name="Path 135493" d="M-3092.626,3593.235c-.885.132-3.53.475-7.155.878-10.422,1.161-28.939,2.832-37,1.507-7.232-1.189-45.478-7.56-71.92-12.193-13.277-2.326-23.58-4.216-25.482-4.791-5.687-1.721-17.376-6.981-15.894-9.367s6.16-2.319,7.6-3.134l.061-.036c.338-.19.894-.507,1.69-.865,2.848-1.275,8.776-3.057,18.8-1.42,0,0,15.936,2.686,35.817,6.083,30.815,5.265,71.109,12.234,76.214,13.544,8.4,2.157,19.57,4.38,19.57,4.38s.062.269.113.69C-3090.046,3589.879-3090,3592.838-3092.626,3593.235Z" transform="translate(3250.207 -3558.656)" fill="#afcdfb"/>
      <path id="Path_135494" data-name="Path 135494" d="M-2888.8,3628.248c-.885.133-3.53.476-7.154.879a10.358,10.358,0,0,0-4.767-5.935l14.334.332C-2886.22,3624.892-2886.174,3627.852-2888.8,3628.248Z" transform="translate(3046.38 -3593.67)" fill="#739af0"/>
      <g id="Group_92490" data-name="Group 92490" transform="translate(7.791 6.578)">
        <g id="Group_92488" data-name="Group 92488">
          <g id="Group_92485" data-name="Group 92485" transform="translate(21.682 4.366)">
            <path id="Path_135495" data-name="Path 135495" d="M-3120.347,3588.81a.438.438,0,0,0-.505.356l-.08.456a.44.44,0,0,0,.356.506.438.438,0,0,0,.506-.356l.08-.457A.438.438,0,0,0-3120.347,3588.81Z" transform="translate(3145.342 -3584.558)" fill="#699ff0"/>
            <path id="Path_135496" data-name="Path 135496" d="M-3109.92,3590.623a.439.439,0,0,0-.505.356l-.08.456a.439.439,0,0,0,.356.506.439.439,0,0,0,.506-.355l.079-.456A.439.439,0,0,0-3109.92,3590.623Z" transform="translate(3139.26 -3585.616)" fill="#699ff0"/>
            <path id="Path_135497" data-name="Path 135497" d="M-3125.679,3587.882a.438.438,0,0,0-.506.356l-.079.457a.438.438,0,0,0,.356.505.438.438,0,0,0,.506-.356l.08-.456A.439.439,0,0,0-3125.679,3587.882Z" transform="translate(3148.451 -3584.017)" fill="#699ff0"/>
            <path id="Path_135498" data-name="Path 135498" d="M-3131.012,3586.954a.439.439,0,0,0-.506.356l-.08.456a.439.439,0,0,0,.356.506.438.438,0,0,0,.506-.356l.079-.456A.439.439,0,0,0-3131.012,3586.954Z" transform="translate(3151.562 -3583.476)" fill="#699ff0"/>
            <path id="Path_135499" data-name="Path 135499" d="M-3136.344,3586.027a.438.438,0,0,0-.506.356l-.079.456a.438.438,0,0,0,.356.506.438.438,0,0,0,.505-.356l.08-.456A.439.439,0,0,0-3136.344,3586.027Z" transform="translate(3154.671 -3582.935)" fill="#699ff0"/>
            <path id="Path_135500" data-name="Path 135500" d="M-3141.677,3585.1h0a.44.44,0,0,0-.506.356l-.079.456a.438.438,0,0,0,.356.506h0a.439.439,0,0,0,.506-.356l.079-.456A.439.439,0,0,0-3141.677,3585.1Z" transform="translate(3157.782 -3582.394)" fill="#699ff0"/>
            <path id="Path_135501" data-name="Path 135501" d="M-3147.009,3584.171a.439.439,0,0,0-.506.356l-.079.456a.439.439,0,0,0,.355.506.438.438,0,0,0,.506-.356l.08-.456A.439.439,0,0,0-3147.009,3584.171Z" transform="translate(3160.891 -3581.853)" fill="#699ff0"/>
            <path id="Path_135502" data-name="Path 135502" d="M-3152.342,3583.244a.439.439,0,0,0-.506.356l-.079.456a.438.438,0,0,0,.356.506.439.439,0,0,0,.506-.356l.079-.457A.439.439,0,0,0-3152.342,3583.244Z" transform="translate(3164.002 -3581.312)" fill="#699ff0"/>
            <path id="Path_135503" data-name="Path 135503" d="M-3157.674,3582.316a.439.439,0,0,0-.506.356l-.079.456a.439.439,0,0,0,.356.506.438.438,0,0,0,.506-.356l.079-.456A.438.438,0,0,0-3157.674,3582.316Z" transform="translate(3167.112 -3580.771)" fill="#699ff0"/>
            <path id="Path_135504" data-name="Path 135504" d="M-3163.007,3581.388a.439.439,0,0,0-.506.356l-.08.456a.439.439,0,0,0,.356.506.44.44,0,0,0,.506-.356l.079-.456A.439.439,0,0,0-3163.007,3581.388Z" transform="translate(3170.222 -3580.229)" fill="#699ff0"/>
            <path id="Path_135505" data-name="Path 135505" d="M-3168.233,3580.479a.439.439,0,0,0-.506.356l-.079.456a.439.439,0,0,0,.356.506.439.439,0,0,0,.506-.356l.08-.456A.439.439,0,0,0-3168.233,3580.479Z" transform="translate(3173.27 -3579.699)" fill="#699ff0"/>
            <path id="Path_135506" data-name="Path 135506" d="M-3173.566,3579.552a.439.439,0,0,0-.505.356l-.08.456a.439.439,0,0,0,.356.506.44.44,0,0,0,.506-.356l.079-.456A.439.439,0,0,0-3173.566,3579.552Z" transform="translate(3176.38 -3579.159)" fill="#699ff0"/>
            <path id="Path_135507" data-name="Path 135507" d="M-3178.9,3578.624a.438.438,0,0,0-.506.356l-.079.456a.438.438,0,0,0,.356.506.439.439,0,0,0,.506-.356l.079-.456A.439.439,0,0,0-3178.9,3578.624Z" transform="translate(3179.49 -3578.617)" fill="#699ff0"/>
          </g>
          <path id="Path_135508" data-name="Path 135508" d="M-3227.406,3568.909l-2.416-.768c-.8.357-1.353.675-1.69.865l3.7,1.178a.672.672,0,0,0,.212.031.672.672,0,0,0,.628-.465A.672.672,0,0,0-3227.406,3568.909Z" transform="translate(3231.513 -3568.141)" fill="#699ff0"/>
          <g id="Group_92486" data-name="Group 92486" transform="translate(60.316 9.99)">
            <path id="Path_135509" data-name="Path 135509" d="M-3085.261,3596.76a.845.845,0,0,1-.147-.013l-.675-.117a.853.853,0,0,1-.554-.352.852.852,0,0,1-.144-.64l.49-2.816a.859.859,0,0,1,.992-.7l.676.118a.854.854,0,0,1,.554.352.849.849,0,0,1,.144.64l-.49,2.816A.859.859,0,0,1-3085.261,3596.76Zm-.135-.08a.791.791,0,0,0,.913-.642l.49-2.816a.784.784,0,0,0-.133-.589.785.785,0,0,0-.509-.324l-.676-.118a.79.79,0,0,0-.913.642l-.49,2.816a.784.784,0,0,0,.133.589.783.783,0,0,0,.51.324Z" transform="translate(3086.795 -3592.111)" fill="#699ff0"/>
          </g>
          <g id="Group_92487" data-name="Group 92487" transform="translate(64.732 10.758)">
            <path id="Path_135510" data-name="Path 135510" d="M-3074.667,3598.6a.868.868,0,0,1-.147-.013l-.676-.118a.858.858,0,0,1-.7-.992l.489-2.816a.858.858,0,0,1,.992-.7l.676.118a.859.859,0,0,1,.7.991l-.49,2.816A.858.858,0,0,1-3074.667,3598.6Zm-.136-.08a.789.789,0,0,0,.912-.642l.49-2.816a.79.79,0,0,0-.642-.912l-.676-.118a.79.79,0,0,0-.912.642l-.49,2.816a.79.79,0,0,0,.642.913Z" transform="translate(3076.2 -3593.954)" fill="#699ff0"/>
          </g>
        </g>
        <g id="Group_92489" data-name="Group 92489" transform="translate(54.686 10.108)">
          <path id="Path_135511" data-name="Path 135511" d="M-2951.554,3618.173a.439.439,0,0,0-.506.356l-.079.456a.439.439,0,0,0,.355.506.439.439,0,0,0,.506-.356l.08-.456A.439.439,0,0,0-2951.554,3618.173Z" transform="translate(3013.895 -3607.424)" fill="#699ff0"/>
          <path id="Path_135512" data-name="Path 135512" d="M-2956.887,3617.245a.438.438,0,0,0-.506.356l-.079.456a.439.439,0,0,0,.356.506.438.438,0,0,0,.505-.356l.08-.456A.438.438,0,0,0-2956.887,3617.245Z" transform="translate(3017.005 -3606.883)" fill="#699ff0"/>
          <path id="Path_135513" data-name="Path 135513" d="M-2962.219,3616.317a.439.439,0,0,0-.505.356l-.079.456a.438.438,0,0,0,.356.506.438.438,0,0,0,.506-.356l.079-.456A.438.438,0,0,0-2962.219,3616.317Z" transform="translate(3020.115 -3606.342)" fill="#699ff0"/>
          <path id="Path_135514" data-name="Path 135514" d="M-2967.552,3615.39a.439.439,0,0,0-.506.356l-.08.456a.439.439,0,0,0,.356.506.439.439,0,0,0,.506-.356l.079-.456A.439.439,0,0,0-2967.552,3615.39Z" transform="translate(3023.225 -3605.801)" fill="#699ff0"/>
          <path id="Path_135515" data-name="Path 135515" d="M-2972.885,3614.462a.438.438,0,0,0-.506.356l-.08.456a.439.439,0,0,0,.356.506.439.439,0,0,0,.506-.356l.079-.456A.438.438,0,0,0-2972.885,3614.462Z" transform="translate(3026.335 -3605.26)" fill="#699ff0"/>
          <path id="Path_135516" data-name="Path 135516" d="M-2978.217,3613.534a.439.439,0,0,0-.506.356l-.079.456a.438.438,0,0,0,.356.506.439.439,0,0,0,.506-.356l.08-.456A.439.439,0,0,0-2978.217,3613.534Z" transform="translate(3029.445 -3604.719)" fill="#699ff0"/>
          <path id="Path_135517" data-name="Path 135517" d="M-2983.549,3612.607a.438.438,0,0,0-.506.356l-.079.456a.438.438,0,0,0,.355.506.439.439,0,0,0,.506-.356l.079-.456A.439.439,0,0,0-2983.549,3612.607Z" transform="translate(3032.555 -3604.178)" fill="#699ff0"/>
          <path id="Path_135518" data-name="Path 135518" d="M-2988.882,3611.679a.439.439,0,0,0-.506.356l-.079.456a.438.438,0,0,0,.355.506.439.439,0,0,0,.506-.356l.08-.456A.439.439,0,0,0-2988.882,3611.679Z" transform="translate(3035.665 -3603.637)" fill="#699ff0"/>
          <path id="Path_135519" data-name="Path 135519" d="M-2994.215,3610.752a.438.438,0,0,0-.506.356l-.079.456a.44.44,0,0,0,.356.506.439.439,0,0,0,.506-.356l.079-.456A.438.438,0,0,0-2994.215,3610.752Z" transform="translate(3038.775 -3603.096)" fill="#699ff0"/>
          <path id="Path_135520" data-name="Path 135520" d="M-3057.05,3599.821a.438.438,0,0,0-.506.356l-.079.456a.439.439,0,0,0,.356.506.438.438,0,0,0,.505-.356l.08-.456A.439.439,0,0,0-3057.05,3599.821Z" transform="translate(3075.422 -3596.721)" fill="#699ff0"/>
          <path id="Path_135521" data-name="Path 135521" d="M-3062.382,3598.893a.439.439,0,0,0-.506.356l-.08.456a.439.439,0,0,0,.356.506h0a.438.438,0,0,0,.506-.356l.079-.456A.439.439,0,0,0-3062.382,3598.893Z" transform="translate(3078.532 -3596.18)" fill="#699ff0"/>
          <path id="Path_135522" data-name="Path 135522" d="M-3067.715,3597.965a.439.439,0,0,0-.506.356l-.079.457a.438.438,0,0,0,.356.505.438.438,0,0,0,.506-.355l.079-.457A.438.438,0,0,0-3067.715,3597.965Z" transform="translate(3081.642 -3595.639)" fill="#699ff0"/>
          <path id="Path_135523" data-name="Path 135523" d="M-3073.048,3597.038a.438.438,0,0,0-.506.356l-.08.456a.439.439,0,0,0,.356.506.439.439,0,0,0,.506-.356l.079-.457A.438.438,0,0,0-3073.048,3597.038Z" transform="translate(3084.752 -3595.098)" fill="#699ff0"/>
          <path id="Path_135524" data-name="Path 135524" d="M-3078.38,3596.11a.439.439,0,0,0-.506.356l-.079.456a.438.438,0,0,0,.356.506.438.438,0,0,0,.506-.356l.079-.456A.439.439,0,0,0-3078.38,3596.11Z" transform="translate(3087.862 -3594.557)" fill="#699ff0"/>
          <path id="Path_135525" data-name="Path 135525" d="M-3083.713,3595.182a.438.438,0,0,0-.505.356l-.08.456a.439.439,0,0,0,.356.506.439.439,0,0,0,.506-.356l.079-.456A.439.439,0,0,0-3083.713,3595.182Z" transform="translate(3090.972 -3594.016)" fill="#699ff0"/>
          <path id="Path_135526" data-name="Path 135526" d="M-3089.045,3594.255a.438.438,0,0,0-.506.356l-.079.456a.439.439,0,0,0,.355.506.439.439,0,0,0,.506-.356l.079-.456A.438.438,0,0,0-3089.045,3594.255Z" transform="translate(3094.082 -3593.475)" fill="#699ff0"/>
          <path id="Path_135527" data-name="Path 135527" d="M-3094.378,3593.327a.439.439,0,0,0-.506.356l-.079.456a.439.439,0,0,0,.356.506.438.438,0,0,0,.506-.356l.08-.456A.439.439,0,0,0-3094.378,3593.327Z" transform="translate(3097.192 -3592.934)" fill="#699ff0"/>
          <path id="Path_135528" data-name="Path 135528" d="M-3099.711,3592.4a.439.439,0,0,0-.506.356l-.08.456a.438.438,0,0,0,.356.506.439.439,0,0,0,.506-.355l.079-.457A.439.439,0,0,0-3099.711,3592.4Z" transform="translate(3100.302 -3592.393)" fill="#699ff0"/>
          <path id="Path_135529" data-name="Path 135529" d="M-3009.89,3608.025a.438.438,0,0,0-.505.356l-.08.456a.438.438,0,0,0,.356.506.438.438,0,0,0,.506-.356l.08-.456A.439.439,0,0,0-3009.89,3608.025Z" transform="translate(3047.917 -3601.506)" fill="#699ff0"/>
          <path id="Path_135530" data-name="Path 135530" d="M-3015.222,3607.1a.439.439,0,0,0-.506.356l-.079.457a.439.439,0,0,0,.356.506.439.439,0,0,0,.506-.356l.079-.456A.439.439,0,0,0-3015.222,3607.1Z" transform="translate(3051.027 -3600.965)" fill="#699ff0"/>
          <path id="Path_135531" data-name="Path 135531" d="M-3020.555,3606.169a.439.439,0,0,0-.506.356l-.079.456a.439.439,0,0,0,.356.506.439.439,0,0,0,.506-.356l.08-.456A.439.439,0,0,0-3020.555,3606.169Z" transform="translate(3054.137 -3600.424)" fill="#699ff0"/>
          <path id="Path_135532" data-name="Path 135532" d="M-3025.887,3605.242a.438.438,0,0,0-.505.356l-.079.456a.438.438,0,0,0,.356.506.439.439,0,0,0,.506-.356l.079-.457A.439.439,0,0,0-3025.887,3605.242Z" transform="translate(3057.247 -3599.883)" fill="#699ff0"/>
          <path id="Path_135533" data-name="Path 135533" d="M-3031.22,3604.314a.438.438,0,0,0-.506.356l-.079.456a.438.438,0,0,0,.356.506.438.438,0,0,0,.505-.356l.08-.456A.439.439,0,0,0-3031.22,3604.314Z" transform="translate(3060.357 -3599.342)" fill="#699ff0"/>
          <path id="Path_135534" data-name="Path 135534" d="M-3036.553,3603.386a.439.439,0,0,0-.506.356l-.08.456a.439.439,0,0,0,.356.506.438.438,0,0,0,.505-.355l.08-.456A.438.438,0,0,0-3036.553,3603.386Z" transform="translate(3063.468 -3598.801)" fill="#699ff0"/>
          <path id="Path_135535" data-name="Path 135535" d="M-3041.885,3602.459a.438.438,0,0,0-.506.356l-.079.456a.439.439,0,0,0,.356.506.438.438,0,0,0,.506-.356l.08-.457A.439.439,0,0,0-3041.885,3602.459Z" transform="translate(3066.577 -3598.26)" fill="#699ff0"/>
          <path id="Path_135536" data-name="Path 135536" d="M-3047.218,3601.531a.438.438,0,0,0-.506.356l-.08.457a.439.439,0,0,0,.356.505.438.438,0,0,0,.506-.356l.079-.456A.438.438,0,0,0-3047.218,3601.531Z" transform="translate(3069.688 -3597.719)" fill="#699ff0"/>
          <path id="Path_135537" data-name="Path 135537" d="M-3052.55,3600.6a.439.439,0,0,0-.506.356l-.079.457a.438.438,0,0,0,.356.505.438.438,0,0,0,.506-.355l.079-.456A.439.439,0,0,0-3052.55,3600.6Z" transform="translate(3072.798 -3597.177)" fill="#699ff0"/>
        </g>
      </g>
      <path id="Path_135538" data-name="Path 135538" d="M-3082.333,3619.44a1.565,1.565,0,0,0,.707-2.745,8.871,8.871,0,0,0-4.069-2c-3.351-.548-2.261,4.795-1.152,5.022A17.02,17.02,0,0,0-3082.333,3619.44Z" transform="translate(3155.573 -3588.693)" fill="#739af0"/>
      <path id="Path_135539" data-name="Path 135539" d="M-3106.357,3607.252l-1.217,7a32.8,32.8,0,0,1-9.184-.24,26.21,26.21,0,0,1-6.88-1.876,8.862,8.862,0,0,1-1.149-.6l1.275-7.333a3.577,3.577,0,0,1,1.308-.315c4.455-.382,15.178,3.009,15.178,3.009Z" transform="translate(3177.06 -3582.392)" fill="#739af0"/>
      <path id="Path_135540" data-name="Path 135540" d="M-3122.2,3603.926l-1.435,8.248a8.823,8.823,0,0,1-1.149-.6l1.275-7.333A3.587,3.587,0,0,1-3122.2,3603.926Z" transform="translate(3177.06 -3582.433)" fill="#e58638"/>
      <g id="Group_92491" data-name="Group 92491" transform="translate(68.454 14.194)">
        <path id="Path_135541" data-name="Path 135541" d="M-3041.618,3586.44s-5.344,7.7-6.344,8.853a7.471,7.471,0,0,1-3.086,1.727l-.012,0-13.218,2.6s-16.171-2.725-19.686-3.4h0c-.319-.062-.534-.107-.623-.13-1.063-.29-1.545-.722-1.323-1s25.284.151,28.057.216l.08,0c2.7.05,2.987-.618,2.987-.618l10.764-7.84a1.283,1.283,0,0,1,.617-.32A6.1,6.1,0,0,1-3041.618,3586.44Z" transform="translate(3085.964 -3586.414)" fill="#739af0"/>
        <path id="Path_135542" data-name="Path 135542" d="M-3043.406,3586.711c-2.9,2.252-10.936,8.461-11.688,8.861-.81.431-23.335.742-28.87.826h0c-.319-.062-.534-.107-.623-.13-1.063-.29-1.545-.722-1.323-1s25.284.151,28.057.216,3.066-.616,3.066-.616l10.764-7.84A1.281,1.281,0,0,1-3043.406,3586.711Z" transform="translate(3085.964 -3586.587)" fill="#e58638"/>
        <path id="Path_135543" data-name="Path 135543" d="M-3002.171,3586.44s-5.344,7.7-6.345,8.853a7.47,7.47,0,0,1-3.085,1.727l-.012,0a28.753,28.753,0,0,1-6.714-1.706c2.7.05,2.987-.618,2.987-.618l10.764-7.84a1.284,1.284,0,0,1,.617-.32A6.1,6.1,0,0,1-3002.171,3586.44Z" transform="translate(3046.517 -3586.414)" fill="#2b478b"/>
      </g>
      <path id="Path_135544" data-name="Path 135544" d="M-2928.748,3581.112l-37.861-7.621s17.769-.877,19.685-2.285c1.8-1.326,21.052-17.294,26.5-18.634-5.015,4.711-16.661,16.077-16.388,19.778C-2936.547,3575.874-2931.351,3579.5-2928.748,3581.112Z" transform="translate(3084.807 -3552.483)" fill="#d86713"/>
      <path id="Path_135545" data-name="Path 135545" d="M-2901.65,3619.546c.142-.124,12.817-1.9,20.922.344l-8.073,2.913-12.616-2.195S-2902.362,3620.165-2901.65,3619.546Z" transform="translate(3047.077 -3591.086)" fill="#2b478b"/>
    </g>
    <path id="Path_135546" data-name="Path 135546" d="M-3285.788,3521.092c-105.933-3.681-90.774-173.686-245.721-88.371-40.135,22.1-93.555-36.457-164.8,29.193-17.4,16.031-36.849,31.385-88.832,12.945-143.362-50.855-152,253.1-97.627,253.73s627.1.547,627.1.547,25.183,2.1,49.693-27.739C-3155.838,3640.371-3205.971,3523.866-3285.788,3521.092Z" transform="translate(-98.5 -30.252)" fill="#d2e4ff" opacity="0.6"/>
    <g id="Group_92493" data-name="Group 92493" transform="translate(-4047.538 3356.926)" opacity="0.8">
      <path id="Path_135547" data-name="Path 135547" d="M-2644.873,3356.926l-233.232,342h-58.659l242.348-342Z" transform="translate(3379.304 -3356.926)" fill="#f8fbff" opacity="0.7"/>
      <path id="Path_135548" data-name="Path 135548" d="M-2903.981,3356.926l-233.232,342h-13.692l232.7-342Z" transform="translate(3504.195 -3356.926)" fill="#f8fbff" opacity="0.7"/>
      <path id="Path_135549" data-name="Path 135549" d="M-3608.809,3356.926l-233.232,342H-3900.7l242.348-342Z" transform="translate(3941.489 -3356.926)" fill="#f8fbff" opacity="0.7"/>
      <path id="Path_135550" data-name="Path 135550" d="M-3774.88,3356.926l-219.108,321.268a43.7,43.7,0,0,1-4.576-19.495V3499.466l111.878-142.54Z" transform="translate(3998.564 -3356.926)" fill="#f8fbff" opacity="0.7"/>
    </g>
    <rect id="Rectangle_32267" data-name="Rectangle 32267" width="13.411" height="340.26" transform="translate(-3850.245 3356.926)" fill="#cae0fc"/>
    <rect id="Rectangle_32268" data-name="Rectangle 32268" width="13.411" height="340.26" transform="translate(-3455.832 3356.926)" fill="#cae0fc"/>
    <path id="Rectangle_32269" data-name="Rectangle 32269" d="M143.786,0h0a0,0,0,0,1,0,0V235.66a0,0,0,0,1,0,0H0a0,0,0,0,1,0,0V143.786A143.786,143.786,0,0,1,143.786,0Z" transform="translate(-4047.534 3463.458)" fill="#98bdf4"/>
    <g id="Group_92494" data-name="Group 92494" transform="translate(-3771.673 3586.494)">
      <rect id="Rectangle_32270" data-name="Rectangle 32270" width="56.407" height="112.984" transform="translate(0 0)" fill="#d2e4ff"/>
      <rect id="Rectangle_32271" data-name="Rectangle 32271" width="56.407" height="23.168" transform="translate(0 23.226)" fill="#98bdf4"/>
      <rect id="Rectangle_32272" data-name="Rectangle 32272" width="56.407" height="23.168" transform="translate(0 66.715)" fill="#98bdf4"/>
    </g>
    <path id="Path_135551" data-name="Path 135551" d="M-3545.1,3612.354h-90.243v235.667h141.635V3663.746A51.392,51.392,0,0,0-3545.1,3612.354Z" transform="translate(-260.812 -148.97)" fill="#afcdfb"/>
    <path id="Path_135552" data-name="Path 135552" d="M-3769.49,3612.342v235.674h-123.717V3663.73c0-28.384,20.094-51.388,44.886-51.388Z" transform="translate(-110.42 -148.963)" fill="#afcdfb"/>
    <path id="Rectangle_32273" data-name="Rectangle 32273" d="M0,0H58.278A36.208,36.208,0,0,1,94.485,36.208V214.193a0,0,0,0,1,0,0H0a0,0,0,0,1,0,0V0A0,0,0,0,1,0,0Z" transform="translate(-3896.156 3484.487)" fill="#739af0"/>
    <path id="Path_135553" data-name="Path 135553" d="M-3653.919,3662.988a8.321,8.321,0,0,0-8.321,8.321V3877.18h94.485V3662.988Z" transform="translate(-245.125 -178.501)" fill="#739af0"/>
    <path id="Path_135554" data-name="Path 135554" d="M-3836.476,3935.672v100.7h-56.731v-84c6.608-4.315,25.306-16.476,27.068-17.064Z" transform="translate(-110.42 -337.323)" fill="#77a7ed"/>
    <path id="Path_135555" data-name="Path 135555" d="M-3438.8,3662.943h-8.158V3877.18h15.969V3670.755A7.812,7.812,0,0,0-3438.8,3662.943Z" transform="translate(-370.679 -178.474)" fill="#4a75cb" opacity="0.5"/>
    <g id="Group_92498" data-name="Group 92498" transform="translate(-3372.311 3549.19)">
      <path id="Path_135556" data-name="Path 135556" d="M-2360.705,3888.665c-.282-.87-.5-1.5-.6-1.815-.048-.145-.075-.222-.075-.222a2.773,2.773,0,0,0-.228.26c-.876,1.1-3.883,5.816-1.623,16.741.332,1.607.778,3.35,1.362,5.233,0,0-8.326-1.469-10.677-3.036-.1-.245-1.322-3.869-2.253-4.359s-2.645-1.029-3.036-.833a4.3,4.3,0,0,0,0,4.359,14.268,14.268,0,0,0,4.015,2.792s9.306,7.444,15.771,7.248C-2352.649,3914.87-2358.6,3895.144-2360.705,3888.665Z" transform="translate(2378.45 -3858.122)" fill="#d9935c"/>
      <path id="Path_135557" data-name="Path 135557" d="M-2254.993,4004.195a11.47,11.47,0,0,1-.459-2.2,19.383,19.383,0,0,1-9.844,1.176,13.611,13.611,0,0,0-.055,4.334c5.289,1.42,11.154-1.69,11.154-1.69A12.745,12.745,0,0,1-2254.993,4004.195Z" transform="translate(2312.587 -3925.403)" fill="#a8d29f"/>
      <path id="Path_135558" data-name="Path 135558" d="M-2289.411,3916.5c-.211.515-1.133.972-2.459,1.3l-.379.09a22.381,22.381,0,0,1-11.266-.606c-3.921-1.453-6.766-22.178-7.975-32.8-.019-.163-.037-.322-.053-.48-.389-3.438-.593-5.7-.593-5.7s2.252-3.525,10.971-2.351,9.6,4.114,10.381,9.4S-2288.726,3914.837-2289.411,3916.5Z" transform="translate(2339.782 -3851.755)" fill="#466aa5"/>
      <path id="Path_135559" data-name="Path 135559" d="M-2291.42,3922.071a22.386,22.386,0,0,1-11.265-.607c-3.921-1.453-6.766-22.177-7.975-32.8-.018-.163-.037-.322-.053-.48.889-3.08,1.561-5.047,1.561-5.047s10.946-1.322,13.076,1.983C-2294.214,3888.007-2291.96,3915.251-2291.42,3922.071Z" transform="translate(2338.952 -3855.932)" fill="#2b478b"/>
      <path id="Path_135560" data-name="Path 135560" d="M-2304.314,3920.96a5.906,5.906,0,0,1-1.5-2.143c-1.99-4.945-4.286-14.562-5.044-16.332-.276-.644-.8-3.681-1.5-7.593-1.244-7.02-3.015-16.861-4.788-20.76a3,3,0,0,0-1.622-1.2,28.159,28.159,0,0,0-6.367-1.412c-.858-.687-2.041-3.638-2.025-8.133l-.384.075-6.457,1.279s.147,2.032.151,3.947c0,1.6-.092,3.108-.453,3.3-.465.042-.739.07-.739.07s-5.385,7.478-5.838,14.433,4.312,9.976-.036,23.875c-4.439,14.194,25.726,5.243,24.07,1.528-3-6.724-4.433-8.625-4.482-10.741-.036-1.487.612-3.079,1.881-6.52.113.414.223.824.333,1.228.718,2.668,1.334,5.05,1.585,6.24.77,3.655,9.237,17.7,9.237,17.7h0s.257.171.556,1.026,2.694,5.388,3.721,5.388,1.24-1.54,1.454-2.523S-2303.5,3921.473-2304.314,3920.96Z" transform="translate(2356.827 -3844.568)" fill="#d9935c"/>
      <path id="Path_135561" data-name="Path 135561" d="M-2312.259,3819.057c-1.433-.876-3.721.171-3.721.171.791-1.112,3.678-.748,3.678-.748-5.765-1.227-6.955,2.469-7.049,2.8-4.171-3.764-10.848,4.259-10.848,4.259l9.582,12.7s.874-2.021,2.029-1.39c1.8.984,5.282-3,4.169-8.232a13.811,13.811,0,0,0-.426-1.558,3.1,3.1,0,0,0,1.2.3c1.048,0,2.63-2.673,2.844-3.571S-2310.827,3819.934-2312.259,3819.057Z" transform="translate(2350.317 -3818.232)" fill="#233862"/>
      <path id="Path_135562" data-name="Path 135562" d="M-2323.7,3864.849s.147,2.032.151,3.947c3.614-.1,5.524-3.4,6.306-5.226Z" transform="translate(2346.526 -3844.674)" fill="#cb7d45"/>
      <path id="Path_135563" data-name="Path 135563" d="M-2322.266,3843.316a18.994,18.994,0,0,0,2.349-5.551c.324-1.826-.606-8.6-7.41-7.623a9.253,9.253,0,0,0-3.834,1.45c-1.477,1-3.609,3.152-1.225,9.061l.619,2Z" transform="translate(2352.217 -3825.122)" fill="#233862"/>
      <path id="Path_135564" data-name="Path 135564" d="M-2330.58,3850.8s8.55.141,8.556-5.185,1.114-8.894-4.345-9.21-6.522,1.716-6.956,3.493S-2332.8,3850.626-2330.58,3850.8Z" transform="translate(2352.199 -3828.812)" fill="#d9935c"/>
      <path id="Path_135565" data-name="Path 135565" d="M-2324.966,4046.781a84.5,84.5,0,0,1-5.389,15.117l-2.819-.2a79.735,79.735,0,0,0,1.3-15.465,64.756,64.756,0,0,0-3.28-20.568c-8.436-24.094-7.073-41.63-7.073-41.63l15.865,1.856.739.087c.066,7.286.254,17.178.418,24.914.146,6.957.274,12.168.274,12.168C-2321.878,4029.634-2322.986,4038.906-2324.966,4046.781Z" transform="translate(2357.377 -3914.934)" fill="#aa413e"/>
      <path id="Path_135566" data-name="Path 135566" d="M-2310.963,3930.555c-1.6,4.426-2.427,6.231-2.388,7.9-5.108-7.908-14.333-9.1-14.333-9.1l17.519-2A16.466,16.466,0,0,1-2310.963,3930.555Z" transform="translate(2348.85 -3881.874)" fill="#cb7d45"/>
      <path id="Path_135567" data-name="Path 135567" d="M-2305.041,4040.74a39.034,39.034,0,0,1-4.929,16.031l-1.347.979s-1.275-6.859-2.177-15.019c-.86-7.756-2.038-15.963-3.371-18.469-5.291-9.935-6.883-47.44-6.883-47.44l16.085-.8c1.617,2.72,2.323,7.18,2.49,12.252.423,12.8-2.586,29.49-3.035,31.9a.008.008,0,0,1,0,.006.844.844,0,0,0,.106.54C-2304.9,4027.061-2304.44,4034.309-2305.041,4040.74Z" transform="translate(2346.554 -3910.259)" fill="#b64c41"/>
      <path id="Path_135568" data-name="Path 135568" d="M-2325.148,3842.063c3.593.924,5.151-.039,5.151-.039a9.1,9.1,0,0,0-3.327-6.011c-4.438-3.422-7.5-1.51-7.684-1.229-.56-.482-1.559-.834-2.881.768-1.982,2.4-.218,6.649-.218,6.649.813.1,1.006-2.7,1.432-4.053a6.7,6.7,0,0,1,1.864-2.485c.168.617,1.889,6.6,6.187,8.583a19.951,19.951,0,0,1-3.433-4.193A6.11,6.11,0,0,0-2325.148,3842.063Z" transform="translate(2353.018 -3827.427)" fill="#233862"/>
      <path id="Path_135569" data-name="Path 135569" d="M-2357.18,4178.624l-.017.018h-.883a1.526,1.526,0,0,1,.234-.018Z" transform="translate(2366.577 -4028.419)" fill="#283250"/>
      <path id="Path_135570" data-name="Path 135570" d="M-2318.941,3928.439a3.826,3.826,0,0,1-.1,1.286c-.343,1.076-1.518,1.567-4.359,1.274-1.737-.181-2.511-3.091-2.856-5.574q-1.565,5.329-4.391,5.965c-2.755.613-16.651,2.3-17.561-4.3-1-7.265,2-20.13,2.16-27.066a34.3,34.3,0,0,1-.5-6.428c.116-4.941,1.566-7.71,2.681-8.826a3.811,3.811,0,0,1,1.9-.611c.648-.11,1.545-.238,2.818-.406a4.777,4.777,0,0,1,.508-.04c-.235.42-3.382,5.186-3.137,6.411.257,1.283,11.418.128,12.188-.577s1.988-6.109,1.988-6.109,3.952.432,5.886,1.838l-.021.025a1.623,1.623,0,0,1,.508.535c2.063,3.927,4.123,13.839,5.572,20.909a10.291,10.291,0,0,1-7.531,1.1C-2321.949,3915.987-2319.126,3924.729-2318.941,3928.439Z" transform="translate(2360.939 -3856.259)" fill="#ffb74d"/>
      <path id="Path_135571" data-name="Path 135571" d="M-2336.562,3884.189l-.019.029c-.378.6-6.309,10.078-6.877,16.241a34.314,34.314,0,0,1-.5-6.428c.762-2.329,2.614-7.5,4.581-9.437A13.069,13.069,0,0,1-2336.562,3884.189Z" transform="translate(2358.348 -3856.699)" fill="#466aa5"/>
      <g id="Group_92495" data-name="Group 92495" transform="translate(0 40.621)">
        <path id="Path_135572" data-name="Path 135572" d="M-2369.69,3923.338l-2.489-7.475a.249.249,0,0,0-.314-.157l-3.92,1.305a.249.249,0,0,0-.157.314l2.489,7.475a.248.248,0,0,0,.314.157l3.92-1.306A.248.248,0,0,0-2369.69,3923.338Z" transform="translate(2377.369 -3915.694)" fill="#f1a34f"/>
        <path id="Path_135573" data-name="Path 135573" d="M-2371.687,3923.9l-2.367-7.11a.44.44,0,0,0-.557-.279l-3.555,1.184a.441.441,0,0,0-.279.557l2.368,7.111a.441.441,0,0,0,.557.279l3.556-1.184A.441.441,0,0,0-2371.687,3923.9Z" transform="translate(2378.468 -3916.155)" fill="#d86713"/>
      </g>
      <path id="Path_135574" data-name="Path 135574" d="M-2290.693,4131.3a39.037,39.037,0,0,1-4.929,16.03l-1.371,1.248s-1.25-7.128-2.152-15.288A14.437,14.437,0,0,0-2290.693,4131.3Z" transform="translate(2332.206 -4000.818)" fill="#d9935c"/>
      <path id="Path_135575" data-name="Path 135575" d="M-2312.189,4133.816a84.517,84.517,0,0,1-5.389,15.117l-2.82-.2a79.723,79.723,0,0,0,1.3-15.465C-2318.139,4133.754-2316.164,4134.244-2312.189,4133.816Z" transform="translate(2344.601 -4001.969)" fill="#d9935c"/>
      <g id="Group_92496" data-name="Group 92496" transform="translate(15.977 142.803)">
        <path id="Path_135576" data-name="Path 135576" d="M-2327.465,4167.389h-1.8c-.6-.1-1.048-.27-1.666-.35a1.668,1.668,0,0,0-1.458.35l-.017.018h-7.646c-.192-.274-.008-.912.173-1.379a1.089,1.089,0,0,1,.716-.654,8.243,8.243,0,0,0,3.874-1.769c.824-.745,3.977-2.737,3.977-2.737l.017,0c.069,0,.4.1,1.833,1.313.742.625,2.005-.882,2.005-.882a1.79,1.79,0,0,1,.414.562,1.9,1.9,0,0,1,.165,1.174,7.6,7.6,0,0,0,.548,2.836c.178.524.328.9.328.9S-2325.917,4167.2-2327.465,4167.389Z" transform="translate(2340.134 -4160.864)" fill="#233862"/>
        <path id="Path_135577" data-name="Path 135577" d="M-2314.7,4161.857a5.7,5.7,0,0,1-1.939.978c-.812.106-2.331-1.967-2.331-1.967l.017,0c.069,0,.4.1,1.833,1.313.742.625,2.006-.882,2.006-.882A1.8,1.8,0,0,1-2314.7,4161.857Z" transform="translate(2327.79 -4160.864)" fill="#466aa5"/>
        <path id="Path_135578" data-name="Path 135578" d="M-2327.465,4174.39h-1.8c-.6-.095-1.048-.27-1.666-.35a1.668,1.668,0,0,0-1.458.35l-.017.018h-7.646c-.192-.274-.008-.911.173-1.379.232-.206.3.9.426,1.073a34.119,34.119,0,0,0,6.59-.192,3.689,3.689,0,0,1,2.887-.353,6.961,6.961,0,0,0,3.645-.688c.178.524.328.9.328.9S-2325.917,4174.2-2327.465,4174.39Z" transform="translate(2340.134 -4167.864)" fill="#466aa5"/>
      </g>
      <g id="Group_92497" data-name="Group 92497" transform="translate(25.582 142.803)">
        <path id="Path_135579" data-name="Path 135579" d="M-2304.418,4167.389h-1.8c-.6-.1-1.048-.27-1.667-.35a1.666,1.666,0,0,0-1.457.35l-.017.018h-7.646c-.192-.274-.007-.912.174-1.379a1.087,1.087,0,0,1,.716-.654,8.245,8.245,0,0,0,3.873-1.769c.823-.745,3.977-2.737,3.977-2.737l.017,0c.07,0,.4.1,1.833,1.313.742.625,2.006-.882,2.006-.882a1.794,1.794,0,0,1,.414.562,1.9,1.9,0,0,1,.165,1.174,7.612,7.612,0,0,0,.548,2.836c.178.524.329.9.329.9S-2302.87,4167.2-2304.418,4167.389Z" transform="translate(2317.088 -4160.864)" fill="#233862"/>
        <path id="Path_135580" data-name="Path 135580" d="M-2291.653,4161.857a5.7,5.7,0,0,1-1.938.978c-.812.106-2.332-1.967-2.332-1.967l.017,0c.07,0,.4.1,1.833,1.313.741.625,2.005-.882,2.005-.882A1.79,1.79,0,0,1-2291.653,4161.857Z" transform="translate(2304.744 -4160.864)" fill="#466aa5"/>
        <path id="Path_135581" data-name="Path 135581" d="M-2304.418,4174.39h-1.8c-.6-.095-1.048-.27-1.667-.35a1.666,1.666,0,0,0-1.457.35l-.017.018h-7.646c-.192-.274-.007-.911.174-1.379.232-.206.3.9.426,1.073a34.12,34.12,0,0,0,6.591-.192,3.69,3.69,0,0,1,2.887-.353,6.961,6.961,0,0,0,3.645-.688c.178.524.329.9.329.9S-2302.87,4174.2-2304.418,4174.39Z" transform="translate(2317.088 -4167.864)" fill="#466aa5"/>
      </g>
      <path id="Path_135582" data-name="Path 135582" d="M-2292.953,3951.883c-1.909-.638-4.358-2.333-7.3-6.134-7.787-10.064-.661-21.891.294-22.112s2.753,7.652,2.753,7.652C-2295.961,3939.431-2293.138,3948.173-2292.953,3951.883Z" transform="translate(2334.951 -3879.703)" fill="#ffb74d" style="mix-blend-mode: multiply;isolation: isolate"/>
      <path id="Path_135583" data-name="Path 135583" d="M-2299.986,3881.693a22.142,22.142,0,0,0-8.424,16.652,12.845,12.845,0,0,0,9.6,13.615l-.661-3.575s-8.252-2.987-6.1-12a26.4,26.4,0,0,1,8.62-13.909Z" transform="translate(2337.623 -3855.244)" fill="#466aa5"/>
      <path id="Path_135584" data-name="Path 135584" d="M-2377.528,3921.749s.735-1.518,2.082-.906.76,2.914-.025,3.722a7.908,7.908,0,0,0-1,1.175Z" transform="translate(2377.92 -3877.991)" fill="#d9935c"/>
    </g>
    <g id="Group_92500" data-name="Group 92500" transform="translate(-3427.88 3544.747)">
      <path id="Path_135585" data-name="Path 135585" d="M-2494.963,3959.7s-1.3,1.479-.539,2.4,2.106,1.714,3.379.832,1.616-4.163.881-4.163A27.046,27.046,0,0,0-2494.963,3959.7Z" transform="translate(2502.433 -3895.752)" fill="#cb8757"/>
      <path id="Path_135586" data-name="Path 135586" d="M-2492.148,3927.512s-3.722,12.146-2.938,13.909,3.319,1.44,4.745-.651S-2492.148,3927.512-2492.148,3927.512Z" transform="translate(2502.115 -3877.523)" fill="#aa413e"/>
      <path id="Path_135587" data-name="Path 135587" d="M-2482.584,3862.477s-5.738,1.039-7.866,3.167-7.149,8.406-3.99,29.337c0,0,.254,6.308,7.347,6.916S-2482.584,3862.477-2482.584,3862.477Z" transform="translate(2502.268 -3839.593)" fill="#b64c41"/>
      <path id="Path_135588" data-name="Path 135588" d="M-2472.86,3853.375a14.681,14.681,0,0,0,.016-2.68v0c-.038-.449-.084-.715-.084-.715l.084-.027,6.892-2.1.17-.052c.1,2.244.232,3.905.37,5.14a18.634,18.634,0,0,0,.463,2.759h-8.381A11.323,11.323,0,0,0-2472.86,3853.375Z" transform="translate(2489.363 -3831.033)" fill="#d9935c"/>
      <path id="Path_135589" data-name="Path 135589" d="M-2478.632,3815.552s.792-11.289,15.451-7.015c3.326.97,2.894,11.013-5.162,14.836Z" transform="translate(2492.455 -3807.571)" fill="#2b478b"/>
      <path id="Path_135590" data-name="Path 135590" d="M-2463.965,3967.282c-.986,6.869-7.606,24.722-7.414,30.892.152,4.863.072,16.1-.569,23.559a46,46,0,0,1-.65,5.039c-.57,2.752-1.3,5.922-1.693,7.92-.875,4.485-.417,7.1-1.132,9.508-.786,2.631-9.813,2.15-7.093.553a7.988,7.988,0,0,0,3.081-3.346c2.536-5.681-1.019-30.179-2.078-39.622-.136-1.18-.233-2.119-.273-2.761-.353-5.833-4.357-44.7-4.357-44.7C-2476.418,3948.921-2462.985,3960.413-2463.965,3967.282Z" transform="translate(2496.836 -3892.344)" fill="#d9935c"/>
      <path id="Path_135591" data-name="Path 135591" d="M-2464.1,3967.263c-.987,6.868-7.607,24.721-7.415,30.892.153,4.863.073,16.1-.569,23.559l-9.565-19.948c-.136-1.179-.232-2.118-.273-2.76-.353-5.833-4.458-44.71-4.458-44.71C-2476.659,3948.888-2463.126,3960.395-2464.1,3967.263Z" transform="translate(2496.976 -3892.326)" fill="#cb8757"/>
      <path id="Path_135592" data-name="Path 135592" d="M-2483.55,3955.339s8.352,38.393,9.3,44.157,8.555,32.906,6.9,39.707c-.978,4.012-2.683,5.2-2.683,5.2-.4.735,6.205,2.2,6.739-.619.677-3.574.819-8.591,1.812-17.1,1.708-14.644-1.68-22.978-2.5-29.1s2.758-25.574.772-32.223C-2466.691,3953.73-2474.435,3948.96-2483.55,3955.339Z" transform="translate(2495.324 -3892.092)" fill="#d9935c"/>
      <path id="Path_135593" data-name="Path 135593" d="M-2464.407,3990.824s-2.175.337-5.376.562l-1.741-6.981-.61,7.109c-5.144.209-11.859-.048-16.81-2.094l1.067-35.153a28,28,0,0,0,15.8-1.422S-2460.863,3961.6-2464.407,3990.824Z" transform="translate(2498.469 -3892.298)" fill="#b64c41"/>
      <path id="Path_135594" data-name="Path 135594" d="M-2443.086,4153.21a58.935,58.935,0,0,0-.492,7.338h-.708l-.064-5.346c-.051.064-.1.12-.142.17-.632.706-1.464,4.139-2.08,5.175h-7.834a.73.73,0,0,1,.108-.65v0a3.642,3.642,0,0,1,1.248-1,14.247,14.247,0,0,0,5-.239c1.046-.262,2.815-9.554,2.815-9.554s2.467,1.5,2.74,2.186A3.329,3.329,0,0,1-2443.086,4153.21Z" transform="translate(2478.348 -4006.76)" fill="#aa413e"/>
      <path id="Path_135595" data-name="Path 135595" d="M-2468.67,4153.645a59.873,59.873,0,0,0-.412,6.251v0c0,.273-.009.494-.011.65h-.708l-.062-5.145c-.63.76-1.45,4.123-2.057,5.145h-7.835c-.3-.846,1.356-1.65,1.356-1.65a14.247,14.247,0,0,0,5-.239c1.046-.262,2.815-9.554,2.815-9.554s2.466,1.5,2.74,2.186C-2467.687,4151.682-2468.133,4152.7-2468.67,4153.645Z" transform="translate(2493.131 -4006.76)" fill="#aa413e"/>
      <path id="Path_135596" data-name="Path 135596" d="M-2473.718,3901.4s-6.586,4.546-16.533,1.221c0,0-3.4-11.627-2.328-22.821.719-7.511,4.979-13.424,8.146-15.75.5.442,1.376,1.206,7.871-.369,0,0,2.979,1.25,3.51,2.4C-2471.92,3868.54-2475.717,3896.516-2473.718,3901.4Z" transform="translate(2500.711 -3840.295)" fill="#e7f0fd"/>
      <path id="Path_135597" data-name="Path 135597" d="M-2462.523,3905.074c-2.937.6-5.2-1.469-8.674-2.464a12.04,12.04,0,0,1-2.945-1.212c-3.105-1.91-4.614-16.048-4.076-21.4s10.091-16.319,10.091-16.319c2.207,1.637,2.619,5.447,3.943,10.445C-2461,3886.153-2462.523,3905.074-2462.523,3905.074Z" transform="translate(2492.276 -3840.295)" fill="#b64c41"/>
      <path id="Path_135598" data-name="Path 135598" d="M-2456.873,3919.69a10.917,10.917,0,0,1-8.674-2.464,17.6,17.6,0,0,1-2.841-6.732c-1.581-7.8,4.654-16.265,9.854-21.753C-2455.349,3900.769-2456.873,3919.69-2456.873,3919.69Z" transform="translate(2486.626 -3854.91)" fill="#aa413e"/>
      <path id="Path_135599" data-name="Path 135599" d="M-2465.39,3847.924c-.786,1.316-3.266,4.956-6.908,5.523a14.683,14.683,0,0,0,.016-2.68h0c-.038-.449-.083-.715-.083-.715l.083-.027Z" transform="translate(2488.801 -3831.105)" fill="#cb7d45"/>
      <path id="Path_135600" data-name="Path 135600" d="M-2478.921,3834.425s8.556,1.719,9.544-3.626,2.758-8.722-2.663-10.045-6.862.52-7.625,2.224S-2481.121,3833.841-2478.921,3834.425Z" transform="translate(2493.49 -3814.996)" fill="#d9935c"/>
      <path id="Path_135601" data-name="Path 135601" d="M-2466.679,3819.215a7.281,7.281,0,0,0-8.328-2.519,12.185,12.185,0,0,0-1.63-.122c-5.585-.13-4.042,6.321-4.042,6.321a4.477,4.477,0,0,1,3.727-4.5l.122-.036c-.312,1.134-.2,2.95,2.534,4.668,4.413,2.771,4.074,8.313,2.9,9.871C-2471.395,3832.9-2462.61,3824.323-2466.679,3819.215Z" transform="translate(2493.763 -3812.651)" fill="#2b478b"/>
      <path id="Path_135602" data-name="Path 135602" d="M-2493.557,3971.674c-.7-2.946-1.482-4.481-2.405-4.694a.936.936,0,0,0-.771.172c-.716.511-1.322,2.08-1.852,4.8-.381,1.951-.574,3.791-.576,3.81l.585.06c0-.018.192-1.832.568-3.757.647-3.313,1.291-4.2,1.617-4.431a.344.344,0,0,1,.3-.078c1.245.288,2.325,5.287,2.713,8.37l.583-.073C-2492.8,3975.828-2493.063,3973.765-2493.557,3971.674Z" transform="translate(2504.428 -3900.528)" fill="#233862"/>
      <g id="Group_92499" data-name="Group 92499" transform="translate(0 74.378)">
        <path id="Path_135603" data-name="Path 135603" d="M-2490.921,3997.649l-1.279-8.485a3.683,3.683,0,0,0-3.642-3.134h-9.062a1.482,1.482,0,0,0-1.481,1.482v10.358a1.481,1.481,0,0,0,1.481,1.481h12.518A1.482,1.482,0,0,0-2490.921,3997.649Z" transform="translate(2508.642 -3986.03)" fill="#233862"/>
        <path id="Path_135604" data-name="Path 135604" d="M-2500.254,3986.03h-7.978a1.591,1.591,0,0,0-1.561,1.287l-1.976,10.14a1.591,1.591,0,0,0,1.561,1.9h8.537a1.59,1.59,0,0,0,1.576-1.371l1.417-10.14A1.591,1.591,0,0,0-2500.254,3986.03Z" transform="translate(2511.799 -3986.03)" fill="#2b478b"/>
      </g>
      <path id="Path_135605" data-name="Path 135605" d="M-2489.469,3964.808s-3.7.969-3.917,1.734a2.576,2.576,0,0,0,3.143,2.433c2.093-.507,3.764-3,3.764-3Z" transform="translate(2501.074 -3899.275)" fill="#da935b"/>
      <path id="Path_135606" data-name="Path 135606" d="M-2472.746,3863.68a11.219,11.219,0,0,1,8.06,6.125c2.608,5.416-2.245,24.759-2.946,26.063s-8.849,11.733-15.77,12.635c0,0-2.941-1.038-2.84-2.743,0,0,11.343-11.227,12.146-12.831s-.318-19.213-.217-21.52A54.86,54.86,0,0,1-2472.746,3863.68Z" transform="translate(2496.895 -3840.295)" fill="#b64c41"/>
    </g>
    <g id="Group_92502" data-name="Group 92502" transform="translate(-3891.36 3523.431)">
      <path id="Path_135607" data-name="Path 135607" d="M-3545.647,3758.295s-7.085-5.781-8.933,3c-1.389,6.6,6.373,6.355,6.373,6.355Z" transform="translate(3583.543 -3756.428)" fill="#9e3732"/>
      <path id="Path_135608" data-name="Path 135608" d="M-3536.64,3759.328a9.337,9.337,0,0,0-10.434-.525c-5.63,3.378-1.077,16.679,2.389,17.423s12.323-12.469,12.323-12.469S-3532.613,3762.591-3536.64,3759.328Z" transform="translate(3580.617 -3757.01)" fill="#b64c41"/>
      <path id="Path_135609" data-name="Path 135609" d="M-3451.619,3928.541a9.562,9.562,0,0,1,3.429-.538c1.117.232,4.583,1.849,4.66,2.2a1.266,1.266,0,0,1,0,.6h-8.09s-1.809-.352-2.117-1.417S-3451.619,3928.541-3451.619,3928.541Z" transform="translate(3524.648 -3856.468)" fill="#ffb27d"/>
      <path id="Path_135610" data-name="Path 135610" d="M-3521.879,4152.157a1.55,1.55,0,0,0,1.012,1.344.016.016,0,0,0,.009,0c1.077.472,2.884.365,4.837.1.25-.033.475-.06.677-.079.052,0,.106-.01.157-.013l.121-.01c1.944-.127,1.792.472,5.507.453,4.235-.022,5.667-1.449,5.861-2.057.163-.515-1.691-.916-3.764-1.376l-.3-.067c-.275-.061-.553-.125-.829-.188-2.471-.58-4.919-1.312-5.728-3.687-.859-2.518-.656-9.991-.656-9.991h-7.5s1.969,8.255,1.763,10.634c-.112,1.27-.72,1.631-.954,2.732-.017.077-.033.155-.046.231A7.371,7.371,0,0,0-3521.879,4152.157Z" transform="translate(3564.724 -3978.146)" fill="#ffb27d"/>
      <g id="Group_92501" data-name="Group 92501" transform="translate(33.256 66.264)">
        <path id="Path_135611" data-name="Path 135611" d="M-3543.187,3942.4c.633,3.554,1.536,7.226,2.321,11.045,1.26,6.141,2.211,12.665,1.237,19.689a24.528,24.528,0,0,0-.208,2.975c-.188,12.416,5.359,34.916,5.359,34.916a9.8,9.8,0,0,0,4.032.525,12.793,12.793,0,0,0,3.3-.9s.525-13.95.557-32.711c.022-13.6,2.693-31.5,3.232-42.026a134.654,134.654,0,0,0-.382-14.85s-11.058-8.892-15.03-4.343C-3542.7,3921.208-3545.556,3929.1-3543.187,3942.4Z" transform="translate(3544.049 -3915.417)" fill="#415da5"/>
      </g>
      <path id="Path_135612" data-name="Path 135612" d="M-3535.176,4004.649a24.431,24.431,0,0,0-.208,2.975c8.282-12,10.113-38.164,10.113-38.164l-9.1,4.415s-1,4.907-2.047,11.085C-3535.154,3991.1-3534.2,3997.625-3535.176,4004.649Z" transform="translate(3572.852 -3880.672)" fill="#355493"/>
      <path id="Path_135613" data-name="Path 135613" d="M-3578.472,4151.505a1.55,1.55,0,0,0,1.012,1.344.014.014,0,0,0,.009,0c1.078.472,2.884.365,4.837.1.25-.033.475-.061.676-.079.053-.005.105-.01.157-.013l.122-.01c1.944-.128,1.792.472,5.507.453,4.235-.022,5.667-1.449,5.862-2.057.163-.516-1.691-.916-3.765-1.377l-.3-.067c-.276-.061-.553-.125-.83-.188-2.471-.58-4.918-1.312-5.728-3.687-.858-2.518.368-9.875.368-9.875l-6.948-.582s.431,8.384.225,10.763c-.112,1.271-.757,1.969-.992,3.07-.017.077-.032.155-.046.231A7.379,7.379,0,0,0-3578.472,4151.505Z" transform="translate(3597.391 -3977.494)" fill="#ffb27d"/>
      <path id="Path_135614" data-name="Path 135614" d="M-3576.757,4024.506a16.859,16.859,0,0,0,3.072,1.1,14.768,14.768,0,0,0,3.958-.245,181.141,181.141,0,0,1,3.777-23.383,218.8,218.8,0,0,1,11.3-35.824c1.1-2.594,5.625-14.871,6.393-17.97,2.323-9.362-.009-8.353-.009-8.353l-20.3-2.383s-2.5,1.285-3.653,14.505c-.345,3.959-.387,21.052-.907,24.293a36.266,36.266,0,0,1-1.744,7.279C-3578.643,3992.787-3576.757,4024.506-3576.757,4024.506Z" transform="translate(3596.655 -3862.004)" fill="#415da5"/>
      <path id="Path_135615" data-name="Path 135615" d="M-3578.472,4170.861a1.55,1.55,0,0,0,1.012,1.344l.009,0a11.952,11.952,0,0,0,4.833.09c.25-.03.476-.052.681-.067.053-.005.105-.01.157-.013l.122-.009c1.944-.128,1.792.471,5.507.452,4.235-.022,5.667-1.448,5.862-2.057.163-.516-1.691-.916-3.765-1.377a12.5,12.5,0,0,1-6.4,1.135c-2.852-.273-5.763-1.416-7.809-1.7-.017.077-.032.154-.046.231A7.379,7.379,0,0,0-3578.472,4170.861Z" transform="translate(3597.391 -3996.851)" fill="#b84c42"/>
      <path id="Path_135616" data-name="Path 135616" d="M-3521.067,4170.861a1.55,1.55,0,0,0,1.012,1.344.015.015,0,0,0,.009,0,11.949,11.949,0,0,0,4.832.09c.251-.03.476-.052.681-.067.052-.005.106-.01.157-.013l.121-.009c1.944-.128,1.792.471,5.507.452,4.235-.022,5.667-1.448,5.861-2.057.164-.516-1.691-.916-3.764-1.377a12.5,12.5,0,0,1-6.4,1.135c-2.852-.273-5.763-1.416-7.808-1.7-.017.077-.033.154-.046.231A7.369,7.369,0,0,0-3521.067,4170.861Z" transform="translate(3563.911 -3996.851)" fill="#b84c42"/>
      <path id="Path_135617" data-name="Path 135617" d="M-3537.529,3812.346c-.147,0-1.095-.173-2.77-.275a12.55,12.55,0,0,1-.61-2.576,16.83,16.83,0,0,1-.06-3.754c.041-.429.084-.677.084-.677l-8.319-2.532c-.1,2.2-.223,3.918-.354,5.264-.389,3.948-.852,4.674-.994,4.807a67.947,67.947,0,0,0-6.925,1.4s6.714,30.763,4.433,36.561a61.249,61.249,0,0,0-3.148,10.944l24.745.307s-.346-19.9.794-26.945S-3537.529,3812.346-3537.529,3812.346Z" transform="translate(3585.136 -3783.316)" fill="#ffb27d"/>
      <path id="Path_135618" data-name="Path 135618" d="M-3529.333,3809.495c-6.288-.136-8.3-6.964-8.3-6.964l8.319,2.532s-.043.249-.084.677A16.834,16.834,0,0,0-3529.333,3809.495Z" transform="translate(3573.56 -3783.316)" fill="#e8945b"/>
      <path id="Path_135619" data-name="Path 135619" d="M-3559.142,3860.394c-.362,4.072-4.167,13.377-3.343,15.359.862,2.081,2.06,3.135,4.682,3.738a48.4,48.4,0,0,0,7.8.792c7.456.371,15.444-.566,16.531-4.11.521-1.7.32-8.282.044-11.321-.571-6.288.626-15.31.8-21.147.144-4.869-2.793-15.951-2.793-15.951s-1.325-.837-5.483-1.673c0,0-.437,5.756-3.442,6.251-5.193.857-9.378-3.9-10.6-5.816,0,0-5.965,1.506-7.715,3.5-1.658,1.889.61,15.889,1.114,17.231.436,1.152.847,2.277,1.206,3.407A23.767,23.767,0,0,1-3559.142,3860.394Z" transform="translate(3588.505 -3797.05)" fill="#e9f3fe"/>
      <path id="Path_135620" data-name="Path 135620" d="M-3615.716,3928.594a9.641,9.641,0,0,0-3.43-.532c-1.117.229-4.583,1.833-4.661,2.176a1.243,1.243,0,0,0,0,.591h8.09s1.808-.348,2.117-1.4S-3615.716,3928.594-3615.716,3928.594Z" transform="translate(3623.84 -3856.503)" fill="#ffb27d"/>
      <path id="Path_135621" data-name="Path 135621" d="M-3529.767,3786.962s-9.958,2-11.107-4.22-3.21-10.151,3.1-11.69,7.987.6,8.875,2.588S-3527.207,3786.282-3529.767,3786.962Z" transform="translate(3576.189 -3764.65)" fill="#ffb27d"/>
      <path id="Path_135622" data-name="Path 135622" d="M-3519.9,3801.526s.267.738,2.141.4c0,0,1.574-.281,1.429-1.11A5.134,5.134,0,0,0-3519.9,3801.526Z" transform="translate(3563.222 -3782.274)" fill="#fff"/>
      <path id="Path_135623" data-name="Path 135623" d="M-3567.344,3861.437a60.721,60.721,0,0,0-5.028-15.368l-5.175-10.774c.214-1.737-1.77-6.515-1.861-8.262,0,0-5.886.2-8.615,2.425-3.086,2.511-5.152,10.811-8.919,25.347,0,0-6.229,10.383-8.212,14.5a3.52,3.52,0,0,0,1.115.987,5.876,5.876,0,0,0,1.629.575s11.237-10.969,11.976-12.7c.318-.748,2.557-3.956,4.938-8.521l0,.032c.441,3.595.879,6.7,1.211,8.065,1.04,4.274-6.47,24-6.124,25.189.124.426,2.731.632,6.134.635,6.114.006,14.8-.639,16.282-1.826C-3566.756,3880.75-3565.833,3870.641-3567.344,3861.437Z" transform="translate(3612.942 -3797.606)" fill="#415da5"/>
      <path id="Path_135624" data-name="Path 135624" d="M-3547.624,3826.919l6.643,19.078-6.642-6.28.5-1.952a4.661,4.661,0,0,1-2.146-.264c-.619-.4-2.062-10.155-2.062-10.155a8.855,8.855,0,0,1,1.847-.385A16.927,16.927,0,0,1-3547.624,3826.919Z" transform="translate(3581.551 -3797.534)" fill="#2b478b"/>
      <path id="Path_135625" data-name="Path 135625" d="M-3497.82,3854.1c-5.141-11.912-5.833-23.038-8.918-25.573-2.73-2.24-8.616-2.446-8.616-2.446v0l-.012,0,.01.05c.692,3.974,1.375,6.084,1.193,10.347a60.7,60.7,0,0,1-1.228,9.036s-4.716,36.179-4.013,36.24c5.335.462,12.823-4.926,12.823-4.926-1.618-4.354-1.036-24.9-1.036-24.9l.072.126c1.654,2.9,2.979,4.868,3.218,5.436.738,1.75,11.976,12.815,11.976,12.815a5.84,5.84,0,0,0,1.628-.581c.073-.042.143-.085.208-.129a3.458,3.458,0,0,0,.907-.867C-3491.59,3864.57-3497.82,3854.1-3497.82,3854.1Z" transform="translate(3562.973 -3797.05)" fill="#415da5"/>
      <path id="Path_135626" data-name="Path 135626" d="M-3509.639,3826.08s1.4,15.081-.037,19.433c0,0,4.111-6.509,3.341-7.857l-1.49-.982s2.876-.373,2.337-2.026l-2.761-8.459a2.932,2.932,0,0,0-.633-.109Z" transform="translate(3557.258 -3797.05)" fill="#2b478b"/>
      <path id="Path_135627" data-name="Path 135627" d="M-3558.244,3893.836c0,4.6-2.819,16.341-5.408,21.413-3.4,0-6.011-.209-6.134-.635-.347-1.192,7.164-20.915,6.124-25.189-.332-1.364-.77-4.47-1.21-8.065C-3562.571,3884-3558.244,3889.523-3558.244,3893.836Z" transform="translate(3592.322 -3829.291)" fill="#2b478b"/>
      <path id="Path_135628" data-name="Path 135628" d="M-3474.431,3892.92c-.066.044-.135.087-.209.129a5.845,5.845,0,0,1-1.628.581s-11.238-11.065-11.976-12.815c-.239-.569-1.564-2.536-3.219-5.436-.272-2.15-.926-7.8.2-9.164,1.371-1.666,4.7,12.342,5.778,13.908C-3484.611,3881.394-3476.76,3889.216-3474.431,3892.92Z" transform="translate(3546.89 -3820.377)" fill="#2b478b"/>
      <path id="Path_135629" data-name="Path 135629" d="M-3530.04,3763.363c-4.912-4.84-7.745-4.677-9.863-3.184-1.353.954-3.333,4.246-4.047,5.244-1.407,1.97,1.8,11.485,1.8,11.485a10.9,10.9,0,0,1-.1-2.542c.3,1.406.61,2.373.61,2.373a33.913,33.913,0,0,1,5.27-8.125,16.236,16.236,0,0,0,2.149-2.871c3.128,1.158,4.846,6.184,4.846,6.184C-3528.244,3769.548-3527.924,3765.449-3530.04,3763.363Z" transform="translate(3577.455 -3758.076)" fill="#b64c41"/>
    </g>
    <g id="Group_92503" data-name="Group 92503" transform="translate(-3770.283 3614.051)">
      <path id="Path_135630" data-name="Path 135630" d="M-3297.358,3992.752a52.565,52.565,0,0,1-35.978-14.275l4.542-4.367-2.271,2.183,2.266-2.189a41.978,41.978,0,0,0,9.277,6.645,45.956,45.956,0,0,0,24.919,5.621c21.042-1.228,30.444-12.4,30.537-12.516l4.871,4c-.449.547-11.275,13.423-35.041,14.81Q-3295.823,3992.753-3297.358,3992.752Z" transform="translate(3333.336 -3973.854)" fill="#b64c41"/>
    </g>
    <g id="Group_92506" data-name="Group 92506" transform="translate(-3507.217 3534.747)">
      <path id="Path_135631" data-name="Path 135631" d="M-2611.842,3903.834c-.11-2.828-3.93-4.224-3.93-4.224-1.86-1.126-1.752-14.319-2.435-22.089a38.277,38.277,0,0,0-.573-4.417c-1.091-4.911-1.422-22.281-4.7-25.01s-10.877-3.88-10.877-3.88,2.448,13.107,5.119,26.8c2.9,14.882,9.967,29.105,10.579,29.662l.006.005a12.135,12.135,0,0,0,3.208,3.815c1.1.735.514,2.2,1.836,2.351C-2611.851,3907.041-2611.784,3905.309-2611.842,3903.834Z" transform="translate(2662.611 -3818.942)" fill="#d9935c"/>
      <path id="Path_135632" data-name="Path 135632" d="M-2649.512,3831.723l-.006,1.075s.292,3.362-3.847,3.853-7.276-1.311-7.164-3.906a30.472,30.472,0,0,0,.81-5.05,11.682,11.682,0,0,0-.147-2.013l8.022-.16,2.363.386Z" transform="translate(2677.879 -3808.04)" fill="#d9935c"/>
      <path id="Path_135633" data-name="Path 135633" d="M-2648.55,3825.908l-.031,5.815a6.783,6.783,0,0,1-2.892.638c-3.687,0-6.07-2.7-7.315-4.666a11.632,11.632,0,0,0-.147-2.013l8.021-.16Z" transform="translate(2676.948 -3808.04)" fill="#cb7d45"/>
      <path id="Path_135634" data-name="Path 135634" d="M-2650.776,3809.5s-10.274,2.075-11.468-4.343-3.324-10.473,3.185-12.069,8.243.615,9.162,2.66S-2648.134,3808.793-2650.776,3809.5Z" transform="translate(2679.642 -3788.805)" fill="#d9935c"/>
      <path id="Path_135635" data-name="Path 135635" d="M-2634.353,3844.215s1.412,7.554,3.26,17.182c.585,3.055,1.216,6.318,1.859,9.616,2.617,5.129,4.862,8.616,5.556,7.96,1.415-1.336,3.9-1.5,5.472-1.451a38.277,38.277,0,0,0-.573-4.417c-.086-.388-.167-.854-.246-1.384-.915-6.179-1.434-21.114-4.449-23.626C-2626.75,3845.367-2634.353,3844.215-2634.353,3844.215Z" transform="translate(2662.611 -3818.942)" fill="#739af0"/>
      <path id="Path_135636" data-name="Path 135636" d="M-2613.208,3890.963c1.415-1.336,3.9-1.5,5.472-1.451a38.334,38.334,0,0,0-.573-4.417c-.086-.388-.167-.854-.246-1.384l-7.845-18.938S-2613.9,3891.619-2613.208,3890.963Z" transform="translate(2652.141 -3830.932)" fill="#4a75cb"/>
      <path id="Path_135637" data-name="Path 135637" d="M-2663.894,4168.375a19.681,19.681,0,0,0-1.314-4.85c-.89-1.779-6.548-.647-6.548-.647s-1.132.97-1.374,5.5Z" transform="translate(2685.226 -4004.585)" fill="#233862"/>
      <path id="Path_135638" data-name="Path 135638" d="M-2605.941,4163.561c-1.33-.811-.559-6.7-.559-6.7s6.2-4.956,7.047-1.162,5.886,5.5,8.751,5.963c1.977.321,2.106,1.251,2.3,1.9Z" transform="translate(2646.496 -3999.771)" fill="#233862"/>
      <path id="Path_135639" data-name="Path 135639" d="M-2648.347,4006.653a28.687,28.687,0,0,1,.454,3.347c.576,11.233,9.457,36.918,11.045,37.518,2.458.927,6.328-1.044,8.353-1.689a1.737,1.737,0,0,0,1.219-1.973c-4.4-20.216-6.014-49.328-6.6-66.563a78.223,78.223,0,0,0-1.787-14.678s-21.658-5.779-21.787,1.531C-2657.567,3970.614-2650.279,3995.982-2648.347,4006.653Z" transform="translate(2676.084 -3886.73)" fill="#2b478b"/>
      <path id="Path_135640" data-name="Path 135640" d="M-2648.347,4006.653l14.469-29.361a78.223,78.223,0,0,0-1.787-14.678s-21.658-5.779-21.787,1.531C-2657.567,3970.614-2650.279,3995.982-2648.347,4006.653Z" transform="translate(2676.084 -3886.73)" fill="#233862"/>
      <path id="Path_135641" data-name="Path 135641" d="M-2658.039,3965.69l-11.45,82.983s-5.028,1.212-8.939.242c0,0-3.352-44.134-3.072-54.8s-2.406-28.55.612-30.522S-2658.039,3965.69-2658.039,3965.69Z" transform="translate(2690.595 -3888.249)" fill="#2b478b"/>
      <path id="Path_135642" data-name="Path 135642" d="M-2682.87,3894.278a1.711,1.711,0,0,0,1.684,1.778l18.042.275,13.252.2c.621.011-1.341-4.954-1.381-37.327-.01-7.224-11.193-15-11.4-15l0,0c0,1.04-1.639,2.961-4.165,3.126-3,.2-6.674-1.295-6.674-3.021a8.022,8.022,0,0,0-.908,1.172c-1.5,2.18-4.51,7.5-6.435,16.749-1.519,7.307-.935,17.078-2.028,29.684C-2682.965,3892.832-2682.847,3893.64-2682.87,3894.278Z" transform="translate(2690.932 -3818.939)" fill="#ffb74d"/>
      <path id="Path_135643" data-name="Path 135643" d="M-2682.228,3896.156a36.721,36.721,0,0,0,6.885,2A67.848,67.848,0,0,0-2662,3899.5c8.77.056,12.091-2.967,12.091-2.967.621.011-1.341-4.954-1.381-37.327-.01-7.224-11.193-15-11.4-15l0,0s.288,9.62-2.622,12.448c0,0-4.082-3.152-9.376-12.125-1.5,2.18-4.259,8.448-6.183,17.7a50.1,50.1,0,0,0-.82,6.144c-.51,6.385-.4,14.181-1.208,23.54-.08.91.037,1.719.014,2.357C-2682.93,3895.24-2683.189,3896.142-2682.228,3896.156Z" transform="translate(2690.955 -3818.939)" fill="#739af0"/>
      <path id="Path_135644" data-name="Path 135644" d="M-2682.228,3921.5a36.735,36.735,0,0,0,6.885,2c1.411-2.152,3.19-6.037,3.436-12.158.417-10.352-9.417-23.684-9.417-23.684l-.375,6.063c-.51,6.385-.4,14.181-1.208,23.54-.08.91.037,1.719.014,2.357C-2682.93,3920.58-2683.189,3921.482-2682.228,3921.5Z" transform="translate(2690.955 -3844.28)" fill="#4a75cb"/>
      <rect id="Rectangle_32274" data-name="Rectangle 32274" width="26.55" height="19.356" rx="5.331" transform="matrix(0.5, -0.866, 0.866, 0.5, 6.688, 60.529)" fill="#b64c41"/>
      <path id="Path_135645" data-name="Path 135645" d="M-2669.544,3875.481c-.294-.809-3.178-1.859-4.178-1.859s-3.529,2.367-3.588,2.422c-.727-.033-7.869-.377-13.177-1.154a33.422,33.422,0,0,1-3.652-.7c-1.217-.326,4.824-15.638,7.873-24.643.728-2.148,1.284-3.938,1.532-5.079,0,0-.532.086-1.369.251-2.373.468-7.195,1.569-9.248,3.121-2.776,2.1-9.707,25.77-5.456,34.919a51.718,51.718,0,0,0,9.3-.268,89.42,89.42,0,0,0,16-3.211,2.4,2.4,0,0,0,.426,0,37.065,37.065,0,0,0,5.121-1.212C-2669.132,3877.745-2669.25,3876.29-2669.544,3875.481Z" transform="translate(2702.153 -3819.088)" fill="#d9935c"/>
      <path id="Path_135646" data-name="Path 135646" d="M-2700.807,3883.063a51.747,51.747,0,0,0,9.3-.268,11.113,11.113,0,0,1,1.019-7.6,33.475,33.475,0,0,1-3.652-.7c-1.217-.326,4.824-15.638,7.873-24.644.244-2.911.372-4.859.372-4.859l-.21.031c-2.373.468-7.195,1.569-9.248,3.121C-2698.128,3850.243-2705.058,3873.914-2700.807,3883.063Z" transform="translate(2702.153 -3819.396)" fill="#739af0"/>
      <path id="Path_135647" data-name="Path 135647" d="M-2657.158,3855.306s-8.165-3.6-8.285-3.88a6.458,6.458,0,0,1,.97-3.112s-3.92.364-4.163-.121a32.978,32.978,0,0,1-.323-4.527,6.251,6.251,0,0,1,3.557-1.778s1.769,4.388,2.425,5.7A40.474,40.474,0,0,0-2657.158,3855.306Z" transform="translate(2682.794 -3817.585)" fill="#4a75cb"/>
      <path id="Path_135648" data-name="Path 135648" d="M-2638.7,3848.216a27.236,27.236,0,0,1-1.94,7.113s4.264-2.971,4.628-3.941-1.031-2.849-1.031-2.849,2.546-.061,2.606-.909a27.312,27.312,0,0,0-.788-4.183s-2.083-1.579-2.688-1.518Z" transform="translate(2666.28 -3817.608)" fill="#4a75cb"/>
      <path id="Path_135649" data-name="Path 135649" d="M-2651.867,3785.751a21.541,21.541,0,0,1-6.244-1.69c-2.742-1.192-6.2.121-7.326.712a1.671,1.671,0,0,1,.274-.676,1.509,1.509,0,0,0-.578.857c-.052.038-.076.065-.062.074a1.931,1.931,0,0,0-.939.061s.257-.037.349.128a.154.154,0,0,0,.041.045c-4.279,2.067-4.674,8.829-3.3,10.394a34.329,34.329,0,0,1,3.642,6.121,3.63,3.63,0,0,0,.423-2.657c-.3-1.657,1.129-1.657,2.937-2.41s.3-2.861,1.882-4.141,7.379-.527,7.3-1.505C-2651.31,3790.281-2651.867,3785.972-2651.867,3785.751Z" transform="translate(2683.61 -3783.578)" fill="#233862"/>
      <path id="Path_135650" data-name="Path 135650" d="M-2651.647,3909.413a1.077,1.077,0,0,0-1.077,1.078,1.077,1.077,0,0,0,1.077,1.077,1.077,1.077,0,0,0,1.078-1.077A1.078,1.078,0,0,0-2651.647,3909.413Z" transform="translate(2673.325 -3856.967)" fill="#ed6058"/>
      <g id="Group_92505" data-name="Group 92505" transform="translate(31.669 82.754)">
        <path id="Path_135651" data-name="Path 135651" d="M-2543.849,4164.77a2.813,2.813,0,0,0,1.479,3.693,2.813,2.813,0,0,0,3.692-1.48,2.813,2.813,0,0,0-1.479-3.693A2.814,2.814,0,0,0-2543.849,4164.77Z" transform="translate(2578.291 -4087.653)" fill="#ba7b1b"/>
        <path id="Path_135652" data-name="Path 135652" d="M-2544.465,4164.77a2.814,2.814,0,0,0,1.479,3.693,2.814,2.814,0,0,0,3.693-1.48,2.814,2.814,0,0,0-1.48-3.693A2.814,2.814,0,0,0-2544.465,4164.77Z" transform="translate(2578.65 -4087.653)" fill="#ffb74d"/>
        <path id="Path_135653" data-name="Path 135653" d="M-2598.022,4164.77a2.813,2.813,0,0,0,1.479,3.693,2.813,2.813,0,0,0,3.692-1.48,2.813,2.813,0,0,0-1.479-3.693A2.814,2.814,0,0,0-2598.022,4164.77Z" transform="translate(2609.885 -4087.653)" fill="#ba7b1b"/>
        <path id="Path_135654" data-name="Path 135654" d="M-2598.638,4164.77a2.814,2.814,0,0,0,1.48,3.693,2.813,2.813,0,0,0,3.692-1.48,2.813,2.813,0,0,0-1.479-3.693A2.814,2.814,0,0,0-2598.638,4164.77Z" transform="translate(2610.245 -4087.653)" fill="#ffb74d"/>
        <path id="Path_135655" data-name="Path 135655" d="M-2572.163,4162.524l-4,1.437a3.6,3.6,0,0,1-1.261.213l-22.7-.232-2.478-4.108Z" transform="translate(2612.421 -4085.771)" fill="#ba7b1b"/>
        <path id="Path_135656" data-name="Path 135656" d="M-2601.01,3988.889c-.059-.535-.826-5.989-7.352-6.167l-4.742-.5a5.126,5.126,0,0,0-3.85.776,4.777,4.777,0,0,0-1.7,3.765c-.113,2.2,2.658,16.462,3.924,22.835l-8.487,1.7s-3.572,1.453-2.863,7.711c.624,5.507,3.357,36.407,3.357,36.407s.57,6.43,14.3,4.565l-2.55-51.132-2.572.514c-1.656-8.314-4-20.668-3.9-22.535a3.649,3.649,0,0,1,1.213-2.858,3.971,3.971,0,0,1,2.9-.553l4.862.517.048,0c5.735.145,6.185,4.888,6.2,5.088l0,.032,4.047,22.2,1.193-.218Z" transform="translate(2626.168 -3982.131)" fill="#ba7b1b"/>
        <path id="Path_135657" data-name="Path 135657" d="M-2606.031,4054.641l3.294,34.6a7.79,7.79,0,0,0,1.394,3.765,7.812,7.812,0,0,0,6.342,3.313l11.36.07.281,0,7.114.044a7.847,7.847,0,0,0,2.061-.26c.154-.041.3-.085.454-.135a7.85,7.85,0,0,0,5.059-5.286,7.78,7.78,0,0,0,.2-3.342l-5.158-33.11a7.822,7.822,0,0,0-6.983-6.58l-2.007-.192-.479-.045h0l-.4-.038-6.707-.642-.823-.078-6.472-.618a7.821,7.821,0,0,0-2.913.268c-.06.018-.12.035-.18.055l-.374.128A7.823,7.823,0,0,0-2606.031,4054.641Z" transform="translate(2614.445 -4019.427)" fill="#ffb74d"/>
        <path id="Path_135658" data-name="Path 135658" d="M-2594.733,4153.1a7.812,7.812,0,0,0,6.342,3.313l11.359.07.281,0,7.114.044a7.87,7.87,0,0,0,2.061-.26c.154-.041.3-.086.454-.135,2.463-.817,5.3-3.8,5.342-6.961,0,0-24.029-.314-29.052.461C-2593.422,4150.039-2594.2,4151.85-2594.733,4153.1Z" transform="translate(2607.834 -4079.519)" fill="#ffb74d" opacity="0.4" style="mix-blend-mode: multiply;isolation: isolate"/>
        <g id="Group_92504" data-name="Group 92504" transform="translate(13.476 26.956)">
          <path id="Path_135659" data-name="Path 135659" d="M-2539.97,4092.407c-.2-1.4-4.808-34.151-5.524-37.071-.628-2.558-4.343-5.107-5.546-5.877l-.479-.045h0l-.4-.038c.05.031,5.319,3.241,6.011,6.062.712,2.9,5.469,36.686,5.516,37.028a7.832,7.832,0,0,1-2.573,5.725l.361-.086c.154-.041.3-.085.454-.135A7.03,7.03,0,0,0-2539.97,4092.407Z" transform="translate(2569.391 -4048.306)" fill="#ba7b1b"/>
          <path id="Path_135660" data-name="Path 135660" d="M-2565.3,4054.356a10.665,10.665,0,0,0-3.869-6.628l-.823-.078a10.255,10.255,0,0,1,4.268,6.771c.724,4.76,3.552,39.34,3.58,39.688l0,.025.007.022a3.846,3.846,0,0,1-.755,3.152h.285l.281,0a3.7,3.7,0,0,0,.6-3.262C-2561.8,4092.981-2564.579,4059.078-2565.3,4054.356Z" transform="translate(2579.928 -4047.299)" fill="#ba7b1b"/>
          <path id="Path_135661" data-name="Path 135661" d="M-2589.031,4053.671a9.776,9.776,0,0,0-4.25-6.863c-.06.017-.12.035-.18.055l-.374.128a8.9,8.9,0,0,1,2.06,1.7,9.768,9.768,0,0,1,2.321,5.043c.724,4.759,2.966,39.223,2.989,39.57v.027l.008.025a5.241,5.241,0,0,1-1.059,3.394l.716,0a5.574,5.574,0,0,0,.76-3.5C-2586.112,4092.152-2588.312,4058.394-2589.031,4053.671Z" transform="translate(2593.835 -4046.808)" fill="#ba7b1b"/>
        </g>
      </g>
    </g>
    <g id="Group_92509" data-name="Group 92509" transform="translate(-3679.929 3525.895)">
      <g id="man">
        <g id="Group_92507" data-name="Group 92507" transform="translate(12.476 77.642)">
          <path id="Path_135662" data-name="Path 135662" d="M-2976.82,4147.919c-.547,1.843-3.075,3.075-3.415,5.33a4.112,4.112,0,0,1-2.1,3.3h-6.782c-.161-.43-.366-1.5,1.363-1.88,2.188-.48,3.01-3.13,2.875-5.589a32.023,32.023,0,0,1,.021-3.224c.069-1.41.184-2.515.184-2.515l4.647-1.094.487.627.469.6S-2976.273,4146.073-2976.82,4147.919Z" transform="translate(3029.814 -4061.55)" fill="#233862"/>
          <path id="Path_135663" data-name="Path 135663" d="M-3070.66,4164.977h-15.954a2.728,2.728,0,0,1,2.431-1.756c2.45-.395,6.695-1.822,7.642-4.953.03-.1.058-.2.081-.308.751-3.349,6.216,1.025,6.216,1.025s.016.133.039.359C-3070.083,4160.516-3069.782,4164.2-3070.66,4164.977Z" transform="translate(3086.614 -4069.978)" fill="#233862"/>
          <path id="Path_135664" data-name="Path 135664" d="M-3079.221,3959.9s.83,10.358,1.806,22.809c1.326,16.914,2.921,37.689,3.079,41.624.273,6.834,1.367,17.766,1.367,17.766s2.6,2.6,7.79,1.5a178.812,178.812,0,0,0,5.951-32.118c.021-.271.041-.543.062-.815,1.23-16.81,3.143-52.2,3.143-52.2Z" transform="translate(3082.302 -3954.365)" fill="#2b478b"/>
          <path id="Path_135665" data-name="Path 135665" d="M-3079.221,3959.9s.83,10.358,1.806,22.809l18.186,28.776c.021-.271.041-.543.062-.815,1.23-16.81,3.143-52.2,3.143-52.2Z" transform="translate(3082.302 -3954.365)" fill="#233862"/>
          <path id="Path_135666" data-name="Path 135666" d="M-3070.124,3955.393s14.964,37.513,24.8,55.141,12.915,22.549,12.915,22.549,5.637-2.255,6.15-3.792c0,0-3.763-34.033-10.352-42.33-3.723-4.688-8.1-18.756-8.3-23.676s-1.333-14.657-1.333-14.657Z" transform="translate(3076.996 -3948.629)" fill="#2b478b"/>
        </g>
        <path id="Path_135667" data-name="Path 135667" d="M-3112.332,3940.011l-.855,1.705a3.829,3.829,0,0,0-3.152,5.142s.645,1.866,1.844,1.275.608-.541,2.328-1.335,2.713-2.32,2.33-3.721l.275-1.484Z" transform="translate(3116.548 -3865.961)" fill="#ab7041"/>
        <path id="Path_135668" data-name="Path 135668" d="M-3057.237,3808.61a43.958,43.958,0,0,1-.686-6.257l7.593-6.119c-.282,8.414,5.109,12.459,5.109,12.459s-10.117,4.98-15.966,3.136A14.017,14.017,0,0,1-3057.237,3808.61Z" transform="translate(3084.26 -3782.107)" fill="#9c5f33"/>
        <path id="Path_135669" data-name="Path 135669" d="M-3060.283,3788.222s9.658,1.6,10.565-4.426,2.764-9.885-3.365-11.164-7.675.841-8.468,2.781S-3062.772,3787.649-3060.283,3788.222Z" transform="translate(3084.833 -3768.115)" fill="#ab7041"/>
        <path id="Path_135670" data-name="Path 135670" d="M-3049.812,3778.436a10,10,0,0,0-9-9.374c-6.029-.888-2.378-5.925-1.688-6.723,0,0,4.608.879,9.324,1.914C-3041.273,3766.426-3048.766,3777.235-3049.812,3778.436Z" transform="translate(3084.864 -3762.339)" fill="#233862"/>
        <path id="Path_135671" data-name="Path 135671" d="M-3107.149,3881.879a16.523,16.523,0,0,1-2.25-3.049s10.974-13.635,11.866-15.049,7.556-24.093,7.556-24.093l16.855-3.415s-14.069,29.024-16.4,32.562c-3.851,5.847-15.373,14.55-15.373,14.55A6.932,6.932,0,0,1-3107.149,3881.879Z" transform="translate(3112.379 -3805.459)" fill="#5038a1"/>
        <path id="Path_135672" data-name="Path 135672" d="M-3081.041,3880.1a.947.947,0,0,0,.615.234c2.2-.03,8.6,1.19,14.017.634a40.381,40.381,0,0,0,12.952-3.738c.577-.259,1.9-.967,1.873-1.611-.019-.706-.09-1.729-.177-3.018a161.409,161.409,0,0,1-.32-21.081c.094-1.656.143-3.3.149-4.916.044-12.052-2.323-22.82-7.125-26.407-.41-.294-2.951,1.1-5.265,2.245a9.572,9.572,0,0,1-6.295.762l-2.02,1.786a20.185,20.185,0,0,0-6.325,10.1c-1,4.011-1.581,11.245-1.9,18.741-.146,3.4-.264,6.823-.294,10.074v.116c-.028.322-.028.674-.028,1C-3081.3,3873.363-3081.186,3879.98-3081.041,3880.1Z" transform="translate(3095.953 -3796.058)" fill="#8c6df2"/>
        <path id="Path_135673" data-name="Path 135673" d="M-3023.61,3897.892a161.449,161.449,0,0,1-.321-21.082c.094-1.656.143-3.3.149-4.915-2-4.853-3.635-8.372-3.635-8.372h-5.042S-3036.156,3888.772-3023.61,3897.892Z" transform="translate(3067.802 -3821.351)" fill="#5038a1"/>
        <g id="Group_92508" data-name="Group 92508" transform="translate(36.235 79.873)">
          <path id="Path_135674" data-name="Path 135674" d="M-2982.55,3976.881l-3.915-12.6a7.223,7.223,0,0,0-9.015-4.74l-29.065,9.033a7.224,7.224,0,0,0-4.74,9.016l3.914,12.6a7.224,7.224,0,0,0,9.016,4.74l29.065-9.033A7.224,7.224,0,0,0-2982.55,3976.881Z" transform="translate(3029.609 -3957.037)" fill="#e39520"/>
          <path id="Path_135675" data-name="Path 135675" d="M-2973.32,3972.772l-3.96-12.743a7.25,7.25,0,0,0-9.048-4.757l-9.99,3.1-.844-2.717a2.391,2.391,0,0,0-2.987-1.572l-.57.177-5.2,1.615-2.912.906a2.375,2.375,0,0,0-1.4,1.17,2.363,2.363,0,0,0-.168,1.818l.844,2.716-5.788,1.8a6.433,6.433,0,0,0-.647.237l-.007,0s0,0,0,0l-.03.014a7.249,7.249,0,0,0-4.068,8.793l3.959,12.743a7.257,7.257,0,0,0,7.506,5.056h0a7.085,7.085,0,0,0,1.538-.3l.014-.005,29-9.013A7.248,7.248,0,0,0-2973.32,3972.772Zm-34.809-10.725-.843-2.717a.889.889,0,0,1,.585-1.115l2.829-.88,4.835-1.5,1.016-.315a.887.887,0,0,1,.265-.041.891.891,0,0,1,.85.627l.846,2.717Z" transform="translate(3024.252 -3953.981)" fill="#ffb74d"/>
        </g>
        <path id="Path_135676" data-name="Path 135676" d="M-2986.979,3947.724l.958,1.65a3.829,3.829,0,0,0,2.573,5.454s1.914.483,2.078-.844-.118-.8.159-2.678-.454-3.541-1.835-3.987l-1.091-1.044Z" transform="translate(3040.981 -3869.614)" fill="#ab7041"/>
        <path id="Path_135677" data-name="Path 135677" d="M-3017.1,3876.031a16.52,16.52,0,0,1-3.784.21s-5.391-16.652-6.084-18.173-16.011-19.525-16.011-19.525l6.381-15.969s16.567,27.674,18.25,31.563c2.78,6.426,3.745,20.833,3.745,20.833A6.945,6.945,0,0,1-3017.1,3876.031Z" transform="translate(3073.644 -3797.469)" fill="#8c6df2"/>
      </g>
    </g>
    <g id="Group_92510" data-name="Group 92510" transform="translate(-3773.013 3600.834)">
      <path id="Path_135678" data-name="Path 135678" d="M-3332.492,3943.906v94.913a1.857,1.857,0,0,1-1.929,1.763h-3.536a1.857,1.857,0,0,1-1.929-1.763v-94.913a1.857,1.857,0,0,1,1.929-1.763h3.536A1.857,1.857,0,0,1-3332.492,3943.906Z" transform="translate(3339.886 -3942.143)" fill="#739af0"/>
      <path id="Path_135679" data-name="Path 135679" d="M-3335.626,3943.906v94.913a1.857,1.857,0,0,1-1.929,1.763h-.4a1.857,1.857,0,0,1-1.929-1.763v-94.913a1.857,1.857,0,0,1,1.929-1.763h.4A1.857,1.857,0,0,1-3335.626,3943.906Z" transform="translate(3339.886 -3942.143)" fill="#4a75cb" opacity="0.5"/>
      <path id="Path_135680" data-name="Path 135680" d="M-3161.259,3943.906v94.913a1.857,1.857,0,0,1-1.929,1.763h-3.59a1.85,1.85,0,0,1-1.875-1.762v-94.913a1.85,1.85,0,0,1,1.875-1.762c.018,0,.036,0,.053,0h3.537A1.857,1.857,0,0,1-3161.259,3943.906Z" transform="translate(3240.02 -3942.143)" fill="#739af0"/>
      <path id="Path_135681" data-name="Path 135681" d="M-3164.9,3943.909v94.913a1.851,1.851,0,0,1-1.875,1.762,1.85,1.85,0,0,1-1.875-1.762v-94.913a1.85,1.85,0,0,1,1.875-1.762A1.851,1.851,0,0,1-3164.9,3943.909Z" transform="translate(3240.02 -3942.145)" fill="#4a75cb" opacity="0.5"/>
    </g>
    <g id="Group_92511" data-name="Group 92511" transform="translate(-3995.918 3597.975)">
      <path id="Path_135682" data-name="Path 135682" d="M-3669.63,3985.56a2.761,2.761,0,0,0-2.674-2.107h-78.474c-.063,0-.124-.009-.187-.009h-86.379a3.006,3.006,0,0,0-2.906,2.129,2.172,2.172,0,0,0-.091.616v65.623c0,7.032,6.267,12.833,13.9,12.833h78.2a.224.224,0,0,0,.056-.012h65.8a12.872,12.872,0,0,0,12.834-12.834v-65.6A2.708,2.708,0,0,0-3669.63,3985.56Z" transform="translate(3854.666 -3963.371)" fill="#ffb74d"/>
      <path id="Path_135683" data-name="Path 135683" d="M-3669.562,3986.19v9.107l-85.32,14.318-85.46,14.375v-37.8a2.33,2.33,0,0,1,.084-.616,2.817,2.817,0,0,1,2.69-2.129h133.121l34.745,2.129A1.637,1.637,0,0,1-3669.562,3986.19Z" transform="translate(3854.666 -3963.371)" fill="#ffb74d" opacity="0.4" style="mix-blend-mode: multiply;isolation: isolate"/>
      <path id="Path_135684" data-name="Path 135684" d="M-3668.845,3935.282h-200.5a5.381,5.381,0,0,0-5.366,5.366v13.918a5.516,5.516,0,0,0,5.5,5.5h200.225a5.737,5.737,0,0,0,5.72-5.72v-13.481A5.6,5.6,0,0,0-3668.845,3935.282Z" transform="translate(3874.709 -3935.282)" fill="#e39520"/>
    </g>
    <g id="Group_92512" data-name="Group 92512" transform="translate(-3563.737 3533.055)">
      <path id="Path_135685" data-name="Path 135685" d="M-2811.938,4163.837a3.146,3.146,0,0,1-.536,1.779h-15.092c.087-.455.5-1.611,2.394-1.877,2.381-.336,6.58-1.66,7.35-4.787s5.817,1.083,5.817,1.083A23.517,23.517,0,0,1-2811.938,4163.837Z" transform="translate(2831.816 -4000.136)" fill="#233862"/>
      <path id="Path_135686" data-name="Path 135686" d="M-2780.01,4165.617h-15.657a3.592,3.592,0,0,1,2.333-1.779,4.268,4.268,0,0,1,.5-.1c2.384-.336,6.58-1.66,7.352-4.787s5.817,1.083,5.817,1.083S-2779.215,4164.408-2780.01,4165.617Z" transform="translate(2813.212 -4000.136)" fill="#233862"/>
      <path id="Path_135687" data-name="Path 135687" d="M-2804.812,3973.693s-.012.564-.034,1.581c-.141,6.552-.7,31.884-1.232,46.007-.022.514-.041,1.011-.06,1.495-.01.255-.021.512-.03.766a152.988,152.988,0,0,1-2.181,18.86c-1.193,6.819-2.405,11.463-2.405,11.463a11.272,11.272,0,0,1-7.5-.809s-1.226-10.582-1.693-16.988c-.153-2.078-.9-9.17-1.841-17.8-.729-6.671-1.571-14.261-2.344-21.163-.041-.368-.08-.736-.122-1.1-1.248-11.159-2.281-20.25-2.281-20.25l8.043-.766Z" transform="translate(2831.214 -3892.765)" fill="#2b478b"/>
      <path id="Path_135688" data-name="Path 135688" d="M-2808.35,4044.224l-13.437-24.13c-.729-6.671-1.571-14.261-2.344-21.164-.041-.368-.08-.735-.122-1.1-1.248-11.159-2.281-20.249-2.281-20.249l8.043-.766,13.645.279Z" transform="translate(2831.214 -3894.586)" fill="#233862"/>
      <path id="Path_135689" data-name="Path 135689" d="M-2822.968,3975.671s7.519,37.165,13.645,55.1,6.2,22.92,6.2,22.92,5.621,1.219,8.1-.2c0,0,1.416-34-2.292-43.034-2.452-5.973-4.327-18.686-3.689-23.264s1.232-13.762,1.232-13.762Z" transform="translate(2829.135 -3892.615)" fill="#2b478b"/>
      <path id="Path_135690" data-name="Path 135690" d="M-2804.237,3836.3l8.36-2.358a33.411,33.411,0,0,1-1.912-7.095,10.594,10.594,0,0,1,.437-5.6c.042-.1.089-.19.137-.281.318-.6.125-.868-.3-.935a4.8,4.8,0,0,0-2.883.937,61.7,61.7,0,0,1-5.822,3.27l-.01,0s-.007.034-.017.1v.006c-.026.162-.077.5-.127.98C-2806.609,3827.566-2806.809,3832.75-2804.237,3836.3Z" transform="translate(2819.532 -3803.14)" fill="#d9935c"/>
      <path id="Path_135691" data-name="Path 135691" d="M-2809.572,3906.664c-1.777,1.258-4.577,1.712-7.662,1.664a41.956,41.956,0,0,1-10.775-1.755,25.364,25.364,0,0,1-4.264-1.641c-4.761-2.484-4.085-5.788-3.971-18.158.116-12.626,7.886-28.945,9.285-31.677,2.49-4.863,13.663-3.069,13.663-3.069,2.451,1.175,3.323,5.092,3.561,10.208.265,5.684-.25,12.85-.25,19.385a73.822,73.822,0,0,0,1.762,14.14C-2807.262,3900.907-2806.767,3904.676-2809.572,3906.664Z" transform="translate(2836.934 -3821.619)" fill="#ffb74d"/>
      <path id="Path_135692" data-name="Path 135692" d="M-2798.48,3900.621c-2.15,4.531-6.384,9.629-9.01,12.565a41.938,41.938,0,0,1-10.775-1.755c-1.341-3.21-1.928-8.569-.689-17.415.944-6.744,7.83-33.874,7.83-33.874,5.56-.725,9.017,2.3,11.133,6.953.266,5.684-.25,12.85-.25,19.385A73.819,73.819,0,0,0-2798.48,3900.621Z" transform="translate(2827.19 -3826.477)" fill="#ffb74d" opacity="0.4" style="mix-blend-mode: multiply;isolation: isolate"/>
      <path id="Path_135693" data-name="Path 135693" d="M-2811.291,4000.34h-5.048v-1.569a4.727,4.727,0,0,0-4.722-4.722h-4.177a4.728,4.728,0,0,0-4.723,4.722v1.569h-5.048a2.762,2.762,0,0,0-2.754,2.754v12.853a2.763,2.763,0,0,0,2.754,2.755h23.718a2.762,2.762,0,0,0,2.754-2.755v-12.853A2.762,2.762,0,0,0-2811.291,4000.34Zm-16.8-1.569a2.853,2.853,0,0,1,2.851-2.85h4.177a2.853,2.853,0,0,1,2.85,2.85v1.569h-9.878Z" transform="translate(2837.763 -3904.636)" fill="#d6716b"/>
      <path id="Path_135694" data-name="Path 135694" d="M-2808.774,3984.575s-2.907,5.608-1.454,7.788,6.646-.623,7.061-1.869,0-7.269,0-7.269Z" transform="translate(2821.941 -3898.324)" fill="#da935b"/>
      <path id="Path_135695" data-name="Path 135695" d="M-2799.41,3868.649s-1.082,15.431-1.068,21.815-5.067,23.364-5.067,23.364a35.3,35.3,0,0,1-4.681.1,5.393,5.393,0,0,1-2.426-.894s1.116-20.062-1.013-27.751-2.241-23.133-2.241-23.133,1.183-3.334,8.261-2.282C-2799.247,3861.116-2799.41,3868.649-2799.41,3868.649Z" transform="translate(2825.015 -3826.26)" fill="#ffb74d"/>
      <path id="Path_135696" data-name="Path 135696" d="M-2802.907,3835.448s1.905,6.023,1.529,7.1c0,0-10.334,1.392-14.528,5.48,0,0,1.363-5.87,3.04-7.338S-2802.907,3835.448-2802.907,3835.448Z" transform="translate(2825.015 -3812.137)" fill="#ffdc72"/>
      <path id="Path_135697" data-name="Path 135697" d="M-2806.5,3825.335h.127c.937-.007,6.778.012,8.418,1.4a.938.938,0,0,0,.168.116,10.6,10.6,0,0,1,.437-5.6c-.06-.469-.116-.889-.164-1.216a4.8,4.8,0,0,0-2.883.937,61.7,61.7,0,0,1-5.822,3.27l-.026.1,0,.006Z" transform="translate(2819.53 -3803.14)" fill="#cb8757"/>
      <path id="Path_135698" data-name="Path 135698" d="M-2817.642,3809.554s9.661,1.849,10.72-4.185,3.019-9.859-3.1-11.295-7.729.656-8.573,2.584S-2820.128,3808.917-2817.642,3809.554Z" transform="translate(2827.036 -3787.73)" fill="#d9935c"/>
      <path id="Path_135699" data-name="Path 135699" d="M-2807.614,3799.78s-.5-.383,1.453-3.347,2.884-2.151,2.908-5.31,1.2-5.056-2.467-7.113-3.082-3.961-5.282-4.417-5.4,1.356-7.286.975-7.8,7.314-4.013,9.135a6.02,6.02,0,0,0,2.995-.675c1.235-.762,5.77-1.532,6.3-.154S-2809.6,3798.714-2807.614,3799.78Z" transform="translate(2829.468 -3779.519)" fill="#233862"/>
    </g>
    <g id="Group_92513" data-name="Group 92513" transform="translate(-3615.204 3589.608)">
      <path id="Path_135700" data-name="Path 135700" d="M-2921.84,3981.459s6.864-3.124,12.057-.391,2.018,25.291-5.408,27.478h0S-2931.132,4027.923-2921.84,3981.459Z" transform="translate(2939.962 -3952.965)" fill="#233862"/>
      <path id="Path_135701" data-name="Path 135701" d="M-2954.034,3979.457a38.006,38.006,0,0,1,.319-7.423s-2.332-.12-3.637,2.953c-2.706,6.369-1.53,20.116-1.367,22.084,0,0-.929,3.908.451,10.667a11.583,11.583,0,0,1-.643,1.352.766.766,0,0,0-.067.087h0a.8.8,0,0,0-.011.866l.894,1.417a.791.791,0,0,0,.337.3h0a.789.789,0,0,0,.139.049l1.107.262.109-3.773s-.009,0-.013,0C-2956.035,4004.6-2953.724,3981.881-2954.034,3979.457Zm-2.86,29.111-.023-.031.046.028C-2956.882,4008.568-2956.891,4008.571-2956.894,4008.568Z" transform="translate(2960.003 -3948.349)" fill="#a05f32"/>
      <path id="Path_135702" data-name="Path 135702" d="M-2911.441,4168.747l-.882,3.184h-7.452S-2921.994,4167.86-2911.441,4168.747Z" transform="translate(2937.175 -4063.002)" fill="#233862"/>
      <path id="Path_135703" data-name="Path 135703" d="M-2949.785,4168.747l-.882,3.184h-7.452S-2960.338,4167.86-2949.785,4168.747Z" transform="translate(2959.537 -4063.002)" fill="#233862"/>
      <path id="Path_135704" data-name="Path 135704" d="M-2930.965,3919.83c-.929-1.439-2.235-1.5-3.49-2.72a8.075,8.075,0,0,0-5.135-1.9c-5.608,0-10.464,3.433-9.357,9.255.352,1.85.055,3.307,1.554,5.469,1.872,2.7,4.147,4.865,7.8,4.865a6.993,6.993,0,0,0,5.135-1.861c.815-.77,1.983-.865,2.7-1.7,1.449-1.693,1.341-3.924,1.872-6.23A6.283,6.283,0,0,0-2930.965,3919.83Z" transform="translate(2954.167 -3915.207)" fill="#2b478b"/>
      <path id="Path_135705" data-name="Path 135705" d="M-2937.368,3951.169s1.23,4.755-1.257,6.778l6.989,3.572.921-4.624a22.776,22.776,0,0,1-.958-8.643Z" transform="translate(2948.055 -3934.48)" fill="#a05f32"/>
      <path id="Path_135706" data-name="Path 135706" d="M-2940.044,3943.593s7.154.872,7.307-4.168-2.829-8.3-4.819-8.267c-3.969.074-4.624,1.678-5.083,3.348S-2943.337,3943.238-2940.044,3943.593Z" transform="translate(2950.551 -3924.51)" fill="#af7041"/>
      <path id="Path_135707" data-name="Path 135707" d="M-2954.393,4052.39l14.138,1.169s1.66,24.8-7.629,47.783a13.632,13.632,0,0,1-4.236.442,11.249,11.249,0,0,1-3.686-.593Z" transform="translate(2958.075 -3995.215)" fill="#233862"/>
      <path id="Path_135708" data-name="Path 135708" d="M-2921.982,4055.808s4.35,16.9.823,47.739a16.048,16.048,0,0,1-4.631.575,20.526,20.526,0,0,1-4.965-.574l-4.6-40.039c-.175-1.186-2.492-7.412-2.492-7.412Z" transform="translate(2947.603 -3997.208)" fill="#2b478b"/>
      <path id="Path_135709" data-name="Path 135709" d="M-2935.308,3980.1l.925-7.593c-.14-.2-.252-.364-.393-.533-1.625-1.989-7.873-2.858-9.134-3-.056.056-2.942,2.438-5.016,2.157-1.765-.224-2.069-1.161-2.013-2.169a19.229,19.229,0,0,0-5.786,1.792c-3.768,1.412-4.525,13.931-4.525,13.931a20.434,20.434,0,0,1,4.162.505l-.467,18.556c8.994,3.923,21.939,1.4,21.939,1.4l-.028-.112-.869-14.85.813-6.781Z" transform="translate(2961.25 -3946.557)" fill="#739af0"/>
      <path id="Path_135710" data-name="Path 135710" d="M-2935.635,3953.429s-.156.628-1.722.513c0,0-1.315-.1-1.267-.789A4.235,4.235,0,0,1-2935.635,3953.429Z" transform="translate(2948.055 -3937.251)" fill="#fff"/>
      <path id="Path_135711" data-name="Path 135711" d="M-2913.178,4019.381c.612.765,3.626,1.034,5.436.48l-.882-14.829,1.214-10.087-1.172-.545s-5.148,4.13-4.546,7.421S-2913.965,4018.4-2913.178,4019.381Z" transform="translate(2933.355 -3961.394)" fill="#4a75cb"/>
      <path id="Path_135712" data-name="Path 135712" d="M-2905.748,3980.87s-4.338,1.376-5.882,2.668a2.871,2.871,0,0,1-.374.276l-5.568-10.678-1.036-2.045-.953-1.933-.084-.168a1.273,1.273,0,0,1,.224.028,31.975,31.975,0,0,1,3.363.56,21.581,21.581,0,0,1,2.914.841h.028a6.561,6.561,0,0,1,2.606,1.569c.14.168.253.336.393.532A68.529,68.529,0,0,1-2905.748,3980.87Z" transform="translate(2936.986 -3946.574)" fill="#739af0"/>
      <path id="Path_135713" data-name="Path 135713" d="M-2915.922,4001.783s-19.361-20.706-7-29.869a13.064,13.064,0,0,1,2.549-1.514,21.62,21.62,0,0,1,2.914.841,9.348,9.348,0,0,0-4.427,2.718c-3,3.334-4.4,10.424,5.8,25.189Z" transform="translate(2941.303 -3947.397)" fill="#2b478b"/>
      <path id="Path_135714" data-name="Path 135714" d="M-2934.321,3930.279s6.114,0,4.708,4.193c-.885,2.646,2.059,3.057,2.059,3.057a29.5,29.5,0,0,0,1.417-4.24c.107-.848-.2-2.8-.888-3.3C-2928.495,3928.9-2934.321,3930.279-2934.321,3930.279Z" transform="translate(2945.544 -3923.584)" fill="#2b478b"/>
      <path id="Path_135715" data-name="Path 135715" d="M-2910.656,3997.59c-1.889.583-4.909,1.775-5.777,2.628.961,2.209,1.594,3.75,1.594,3.75a41.787,41.787,0,0,0-6.393-.763h0c-.219-.016-1.99-.6-1.99-.6a3.4,3.4,0,0,0-3.473-3.263s-1.44.009-1.145.992.326.556.712,1.954a3.156,3.156,0,0,0,2.46,2.523c5.135,4.317,12.2,4.352,14.335,4.253a.849.849,0,0,0,.791-.654A18.174,18.174,0,0,0-2910.656,3997.59Z" transform="translate(2941.789 -3963.254)" fill="#a05f32"/>
    </g>
    <g id="Group_92516" data-name="Group 92516" transform="translate(-3985.896 3496.423)">
      <rect id="Rectangle_32275" data-name="Rectangle 32275" width="66.897" height="85.549" transform="translate(0 0.731)" fill="#98bdf4"/>
      <rect id="Rectangle_32276" data-name="Rectangle 32276" width="66.897" height="20.063" transform="translate(0 0)" fill="#f1a34f"/>
      <g id="Group_92514" data-name="Group 92514" transform="translate(5.487 27.961)">
        <rect id="Rectangle_32277" data-name="Rectangle 32277" width="25.218" height="5.822" rx="2.911" fill="#739af0"/>
        <rect id="Rectangle_32278" data-name="Rectangle 32278" width="25.218" height="5.822" rx="2.911" transform="translate(0 13.752)" fill="#739af0"/>
        <rect id="Rectangle_32279" data-name="Rectangle 32279" width="25.218" height="5.821" rx="2.911" transform="translate(0 27.504)" fill="#739af0"/>
        <rect id="Rectangle_32280" data-name="Rectangle 32280" width="25.218" height="5.822" rx="2.911" transform="translate(0 41.256)" fill="#739af0"/>
        <rect id="Rectangle_32281" data-name="Rectangle 32281" width="25.218" height="5.822" rx="2.911" transform="translate(29.538)" fill="#739af0"/>
        <rect id="Rectangle_32282" data-name="Rectangle 32282" width="25.218" height="5.822" rx="2.911" transform="translate(29.538 13.752)" fill="#739af0"/>
        <rect id="Rectangle_32283" data-name="Rectangle 32283" width="25.218" height="5.821" rx="2.911" transform="translate(29.538 27.504)" fill="#739af0"/>
        <rect id="Rectangle_32284" data-name="Rectangle 32284" width="25.218" height="5.822" rx="2.911" transform="translate(29.538 41.256)" fill="#739af0"/>
      </g>
      <g id="Group_92515" data-name="Group 92515" transform="translate(5.312 6.763)">
        <rect id="Rectangle_32285" data-name="Rectangle 32285" width="25.218" height="6.855" rx="3.427" fill="#d86713"/>
        <rect id="Rectangle_32286" data-name="Rectangle 32286" width="25.218" height="6.855" rx="3.427" transform="translate(29.888)" fill="#d86713"/>
      </g>
    </g>
    <path id="Path_135716" data-name="Path 135716" d="M-2348.408,3609.06a14,14,0,0,1,3.374-.7l-5.254-9.349,1.371-.339c1.371-.339,9.7,5.418,10.43,5.864.6.361,4.934.267,6.55.219,1.153-.312,2.4-.647,3.708-1-.677-.8-1.376-1.635-1.376-1.635a2.213,2.213,0,0,1,.647-.021.463.463,0,0,1,.232.1l1.95,1.174c4.655-1.242,9.933-2.635,14.6-3.862,7.044-1.851,12.692-3.322,12.692-3.322a11.746,11.746,0,0,1,6.808-.085c.3.1.508.2.635.258l.023.011c.544.248,2.224.075,2.834.887s-3.43,3.074-5.421,3.873c-.666.267-4.312,1.273-9.014,2.531-1.258.336-2.592.691-3.965,1.054l.229.859a3.165,3.165,0,0,1-.394.252,9.442,9.442,0,0,1-2.416.893,11.865,11.865,0,0,1-3.3.377l-.073-.273a7.787,7.787,0,0,1-1.313-.007.557.557,0,0,1-.292-.115c-6.478,1.694-12.366,3.214-13.968,3.624-2.858.732-9.573.717-13.358.63h-.026c-1.065-.025-1.895-.055-2.338-.076l-.238-.013a1.015,1.015,0,0,1-.428-.116,1.32,1.32,0,0,1-.574-1.066Z" transform="translate(-1010.278 -139.229)" fill="#4a75cb" opacity="0.1"/>
    <rect id="Rectangle_32287" data-name="Rectangle 32287" width="820" height="0.987" rx="0.494" transform="translate(-4082.537 3698.536)" fill="#283250"/>
  </g>
</svg>
