<svg xmlns="http://www.w3.org/2000/svg" width="37" height="35" viewBox="0 0 37 35">
  <g id="US-flag" transform="translate(-180 -403)">
    <rect id="Rectangle_12150" data-name="Rectangle 12150" width="37" height="35" transform="translate(180 403)" fill="#fff" opacity="0"/>
    <g id="united-states" transform="translate(186.044 407.701)">
      <g id="Group_57305" data-name="Group 57305" transform="translate(0 1.891)">
        <rect id="Rectangle_12249" data-name="Rectangle 12249" width="24.578" height="1.89" transform="translate(0 3.781)" fill="#f5f5f5"/>
        <path id="Path_103949" data-name="Path 103949" d="M28.067,39.385H6.056a5.367,5.367,0,0,0-1.043,1.891h24.1A5.367,5.367,0,0,0,28.067,39.385Z" transform="translate(-4.772 -39.385)" fill="#f5f5f5"/>
        <rect id="Rectangle_12250" data-name="Rectangle 12250" width="24.578" height="1.89" transform="translate(0 7.562)" fill="#f5f5f5"/>
        <rect id="Rectangle_12251" data-name="Rectangle 12251" width="24.578" height="1.89" transform="translate(0 11.344)" fill="#f5f5f5"/>
        <rect id="Rectangle_12252" data-name="Rectangle 12252" width="24.578" height="1.89" transform="translate(0 15.125)" fill="#f5f5f5"/>
        <path id="Path_103950" data-name="Path 103950" d="M29.11,433.231H5.013a5.365,5.365,0,0,0,1.043,1.891H28.067A5.365,5.365,0,0,0,29.11,433.231Z" transform="translate(-4.772 -414.324)" fill="#f5f5f5"/>
      </g>
      <g id="Group_57306" data-name="Group 57306" transform="translate(0 0)">
        <path id="Path_103951" data-name="Path 103951" d="M44.654,0H30.829a5.364,5.364,0,0,0-4.093,1.891H48.747A5.364,5.364,0,0,0,44.654,0Z" transform="translate(-25.453 0)" fill="#ff4b55"/>
        <rect id="Rectangle_12253" data-name="Rectangle 12253" width="24.578" height="1.89" transform="translate(0 7.563)" fill="#ff4b55"/>
        <path id="Path_103952" data-name="Path 103952" d="M24.578,80.365a5.374,5.374,0,0,0-.241-1.6H.241A5.374,5.374,0,0,0,0,80.365v.3H24.578Z" transform="translate(0 -74.989)" fill="#ff4b55"/>
        <rect id="Rectangle_12254" data-name="Rectangle 12254" width="24.578" height="1.89" transform="translate(0 11.344)" fill="#ff4b55"/>
        <path id="Path_103953" data-name="Path 103953" d="M24.578,394.141v-.3H0v.3a5.375,5.375,0,0,0,.241,1.6h24.1A5.375,5.375,0,0,0,24.578,394.141Z" transform="translate(0 -374.94)" fill="#ff4b55"/>
        <path id="Path_103954" data-name="Path 103954" d="M48.747,472.615H26.736a5.364,5.364,0,0,0,4.093,1.891H44.654A5.364,5.364,0,0,0,48.747,472.615Z" transform="translate(-25.453 -449.927)" fill="#ff4b55"/>
        <rect id="Rectangle_12255" data-name="Rectangle 12255" width="24.578" height="1.89" transform="translate(0 15.125)" fill="#ff4b55"/>
      </g>
      <path id="Path_103955" data-name="Path 103955" d="M13.234,0H5.377A5.377,5.377,0,0,0,0,5.377v7.858H13.234Z" transform="translate(0 0)" fill="#41479b"/>
      <g id="Group_57307" data-name="Group 57307" transform="translate(1.248 1.152)">
        <path id="Path_103956" data-name="Path 103956" d="M29.7,28.3a.043.043,0,0,0,.067.048l.262-.187.262.187a.043.043,0,0,0,.067-.048l-.1-.307.259-.191a.043.043,0,0,0-.025-.078l-.322,0-.055-.165a5.4,5.4,0,0,0-.4.382l.075.056Z" transform="translate(-29.522 -27.381)" fill="#f5f5f5"/>
        <path id="Path_103957" data-name="Path 103957" d="M26.547,77.166l.1.306.322,0a.043.043,0,0,1,.025.078l-.259.191.1.307a.043.043,0,0,1-.067.048l-.262-.187-.262.187a.043.043,0,0,1-.067-.048l.1-.307-.259-.191a.043.043,0,0,1,.025-.078l.322,0,.1-.306A.044.044,0,0,1,26.547,77.166Z" transform="translate(-25.997 -74.585)" fill="#f5f5f5"/>
        <path id="Path_103958" data-name="Path 103958" d="M26.547,136.1l.1.306.322,0a.043.043,0,0,1,.025.078l-.259.191.1.307a.043.043,0,0,1-.067.048l-.262-.187-.262.187a.043.043,0,0,1-.067-.048l.1-.307-.259-.191a.043.043,0,0,1,.025-.078l.322,0,.1-.306A.044.044,0,0,1,26.547,136.1Z" transform="translate(-25.997 -130.689)" fill="#f5f5f5"/>
        <path id="Path_103959" data-name="Path 103959" d="M26.547,190.245l.1.306.322,0a.043.043,0,0,1,.025.078l-.259.191.1.307a.043.043,0,0,1-.067.048l-.262-.187-.262.187a.043.043,0,0,1-.067-.048l.1-.307-.259-.191a.043.043,0,0,1,.025-.078l.322,0,.1-.306A.044.044,0,0,1,26.547,190.245Z" transform="translate(-25.997 -182.236)" fill="#f5f5f5"/>
        <path id="Path_103960" data-name="Path 103960" d="M26.547,239.517l.1.306.322,0A.043.043,0,0,1,27,239.9l-.259.191.1.307a.043.043,0,0,1-.067.048l-.262-.187-.262.187a.043.043,0,0,1-.067-.048l.1-.307-.259-.191a.043.043,0,0,1,.025-.078l.322,0,.1-.306A.044.044,0,0,1,26.547,239.517Z" transform="translate(-25.997 -229.143)" fill="#f5f5f5"/>
        <path id="Path_103961" data-name="Path 103961" d="M52.413,49.192l.1.306.322,0a.043.043,0,0,1,.025.078l-.259.191.1.307a.043.043,0,0,1-.067.048l-.262-.187-.262.187a.043.043,0,0,1-.067-.048l.1-.307-.259-.191a.043.043,0,0,1,.025-.078l.322,0,.1-.306A.043.043,0,0,1,52.413,49.192Z" transform="translate(-50.621 -47.954)" fill="#f5f5f5"/>
        <path id="Path_103962" data-name="Path 103962" d="M52.411,108.125l.1.306.322,0a.043.043,0,0,1,.025.078l-.259.191.1.307a.043.043,0,0,1-.067.048l-.262-.187-.262.187a.043.043,0,0,1-.067-.048l.1-.307-.259-.191a.043.043,0,0,1,.025-.078l.322,0,.1-.306A.044.044,0,0,1,52.411,108.125Z" transform="translate(-50.62 -104.058)" fill="#f5f5f5"/>
        <path id="Path_103963" data-name="Path 103963" d="M52.411,164.117l.1.306.322,0a.043.043,0,0,1,.025.078l-.259.191.1.307a.043.043,0,0,1-.067.048l-.262-.187-.262.187a.043.043,0,0,1-.067-.048l.1-.307-.259-.191a.043.043,0,0,1,.025-.078l.322,0,.1-.306A.044.044,0,0,1,52.411,164.117Z" transform="translate(-50.62 -157.362)" fill="#f5f5f5"/>
        <path id="Path_103964" data-name="Path 103964" d="M52.411,214.4l.1.306.322,0a.043.043,0,0,1,.025.078l-.259.191.1.307a.043.043,0,0,1-.067.048l-.262-.187-.262.187a.043.043,0,0,1-.067-.048l.1-.307-.259-.191a.043.043,0,0,1,.025-.078l.322,0,.1-.306A.044.044,0,0,1,52.411,214.4Z" transform="translate(-50.62 -205.23)" fill="#f5f5f5"/>
        <path id="Path_103965" data-name="Path 103965" d="M78.274,24.03l.1.306.322,0a.043.043,0,0,1,.025.078l-.259.191.1.307a.043.043,0,0,1-.067.048l-.262-.187-.262.187a.043.043,0,0,1-.067-.048l.1-.307-.259-.191a.043.043,0,0,1,.025-.078l.322,0,.1-.306A.044.044,0,0,1,78.274,24.03Z" transform="translate(-75.241 -24)" fill="#f5f5f5"/>
        <path id="Path_103966" data-name="Path 103966" d="M78.274,77.166l.1.306.322,0a.043.043,0,0,1,.025.078l-.259.191.1.307a.043.043,0,0,1-.067.048l-.262-.187-.262.187a.043.043,0,0,1-.067-.048l.1-.307-.259-.191a.043.043,0,0,1,.025-.078l.322,0,.1-.306A.044.044,0,0,1,78.274,77.166Z" transform="translate(-75.241 -74.585)" fill="#f5f5f5"/>
        <path id="Path_103967" data-name="Path 103967" d="M78.274,136.1l.1.306.322,0a.043.043,0,0,1,.025.078l-.259.191.1.307a.043.043,0,0,1-.067.048l-.262-.187-.262.187a.043.043,0,0,1-.067-.048l.1-.307-.259-.191a.043.043,0,0,1,.025-.078l.322,0,.1-.306A.044.044,0,0,1,78.274,136.1Z" transform="translate(-75.241 -130.689)" fill="#f5f5f5"/>
        <path id="Path_103968" data-name="Path 103968" d="M78.274,190.245l.1.306.322,0a.043.043,0,0,1,.025.078l-.259.191.1.307a.043.043,0,0,1-.067.048l-.262-.187-.262.187a.043.043,0,0,1-.067-.048l.1-.307-.259-.191a.043.043,0,0,1,.025-.078l.322,0,.1-.306A.044.044,0,0,1,78.274,190.245Z" transform="translate(-75.241 -182.236)" fill="#f5f5f5"/>
        <path id="Path_103969" data-name="Path 103969" d="M78.274,239.517l.1.306.322,0a.043.043,0,0,1,.025.078l-.259.191.1.307a.043.043,0,0,1-.067.048l-.262-.187-.262.187a.043.043,0,0,1-.067-.048l.1-.307-.259-.191a.043.043,0,0,1,.025-.078l.322,0,.1-.306A.044.044,0,0,1,78.274,239.517Z" transform="translate(-75.241 -229.143)" fill="#f5f5f5"/>
        <path id="Path_103970" data-name="Path 103970" d="M104.136,49.192l.1.306.322,0a.043.043,0,0,1,.025.078l-.259.191.1.307a.043.043,0,0,1-.067.048l-.262-.187-.262.187a.043.043,0,0,1-.067-.048l.1-.307-.259-.191a.043.043,0,0,1,.025-.078l.322,0,.1-.306A.044.044,0,0,1,104.136,49.192Z" transform="translate(-99.862 -47.954)" fill="#f5f5f5"/>
        <path id="Path_103971" data-name="Path 103971" d="M104.136,108.125l.1.306.322,0a.043.043,0,0,1,.025.078l-.259.191.1.307a.043.043,0,0,1-.067.048l-.262-.187-.262.187a.043.043,0,0,1-.067-.048l.1-.307-.259-.191a.043.043,0,0,1,.025-.078l.322,0,.1-.306A.044.044,0,0,1,104.136,108.125Z" transform="translate(-99.862 -104.058)" fill="#f5f5f5"/>
        <path id="Path_103972" data-name="Path 103972" d="M104.136,164.117l.1.306.322,0a.043.043,0,0,1,.025.078l-.259.191.1.307a.043.043,0,0,1-.067.048l-.262-.187-.262.187a.043.043,0,0,1-.067-.048l.1-.307-.259-.191a.043.043,0,0,1,.025-.078l.322,0,.1-.306A.044.044,0,0,1,104.136,164.117Z" transform="translate(-99.862 -157.362)" fill="#f5f5f5"/>
        <path id="Path_103973" data-name="Path 103973" d="M104.136,214.4l.1.306.322,0a.043.043,0,0,1,.025.078l-.259.191.1.307a.043.043,0,0,1-.067.048l-.262-.187-.262.187a.043.043,0,0,1-.067-.048l.1-.307-.259-.191a.043.043,0,0,1,.025-.078l.322,0,.1-.306A.044.044,0,0,1,104.136,214.4Z" transform="translate(-99.862 -205.23)" fill="#f5f5f5"/>
        <path id="Path_103974" data-name="Path 103974" d="M130,24.03l.1.306.322,0a.043.043,0,0,1,.025.078l-.259.191.1.307a.043.043,0,0,1-.067.048l-.262-.187-.262.187a.043.043,0,0,1-.067-.048l.1-.307-.259-.191a.043.043,0,0,1,.025-.078l.322,0,.1-.306A.044.044,0,0,1,130,24.03Z" transform="translate(-124.484 -24)" fill="#f5f5f5"/>
        <path id="Path_103975" data-name="Path 103975" d="M130,77.166l.1.306.322,0a.043.043,0,0,1,.025.078l-.259.191.1.307a.043.043,0,0,1-.067.048l-.262-.187-.262.187a.043.043,0,0,1-.067-.048l.1-.307-.259-.191a.043.043,0,0,1,.025-.078l.322,0,.1-.306A.043.043,0,0,1,130,77.166Z" transform="translate(-124.485 -74.585)" fill="#f5f5f5"/>
        <path id="Path_103976" data-name="Path 103976" d="M130,136.1l.1.306.322,0a.043.043,0,0,1,.025.078l-.259.191.1.307a.043.043,0,0,1-.067.048l-.262-.187-.262.187a.043.043,0,0,1-.067-.048l.1-.307-.259-.191a.043.043,0,0,1,.025-.078l.322,0,.1-.306A.044.044,0,0,1,130,136.1Z" transform="translate(-124.484 -130.689)" fill="#f5f5f5"/>
        <path id="Path_103977" data-name="Path 103977" d="M130,190.245l.1.306.322,0a.043.043,0,0,1,.025.078l-.259.191.1.307a.043.043,0,0,1-.067.048l-.262-.187-.262.187a.043.043,0,0,1-.067-.048l.1-.307-.259-.191a.043.043,0,0,1,.025-.078l.322,0,.1-.306A.044.044,0,0,1,130,190.245Z" transform="translate(-124.484 -182.236)" fill="#f5f5f5"/>
        <path id="Path_103978" data-name="Path 103978" d="M130,239.517l.1.306.322,0a.043.043,0,0,1,.025.078l-.259.191.1.307a.043.043,0,0,1-.067.048l-.262-.187-.262.187a.043.043,0,0,1-.067-.048l.1-.307-.259-.191a.043.043,0,0,1,.025-.078l.322,0,.1-.306A.044.044,0,0,1,130,239.517Z" transform="translate(-124.484 -229.143)" fill="#f5f5f5"/>
        <path id="Path_103979" data-name="Path 103979" d="M155.862,49.192l.1.306.322,0a.043.043,0,0,1,.025.078l-.259.191.1.307a.043.043,0,0,1-.067.048l-.262-.187-.262.187a.043.043,0,0,1-.067-.048l.1-.307-.259-.191a.043.043,0,0,1,.025-.078l.322,0,.1-.306A.044.044,0,0,1,155.862,49.192Z" transform="translate(-149.104 -47.954)" fill="#f5f5f5"/>
        <path id="Path_103980" data-name="Path 103980" d="M155.862,108.125l.1.306.322,0a.043.043,0,0,1,.025.078l-.259.191.1.307a.043.043,0,0,1-.067.048l-.262-.187-.262.187a.043.043,0,0,1-.067-.048l.1-.307-.259-.191a.043.043,0,0,1,.025-.078l.322,0,.1-.306A.044.044,0,0,1,155.862,108.125Z" transform="translate(-149.104 -104.058)" fill="#f5f5f5"/>
        <path id="Path_103981" data-name="Path 103981" d="M155.862,164.117l.1.306.322,0a.043.043,0,0,1,.025.078l-.259.191.1.307a.043.043,0,0,1-.067.048l-.262-.187-.262.187a.043.043,0,0,1-.067-.048l.1-.307-.259-.191a.043.043,0,0,1,.025-.078l.322,0,.1-.306A.044.044,0,0,1,155.862,164.117Z" transform="translate(-149.104 -157.362)" fill="#f5f5f5"/>
        <path id="Path_103982" data-name="Path 103982" d="M155.862,214.4l.1.306.322,0a.043.043,0,0,1,.025.078l-.259.191.1.307a.043.043,0,0,1-.067.048l-.262-.187-.262.187a.043.043,0,0,1-.067-.048l.1-.307-.259-.191a.043.043,0,0,1,.025-.078l.322,0,.1-.306A.044.044,0,0,1,155.862,214.4Z" transform="translate(-149.104 -205.23)" fill="#f5f5f5"/>
        <path id="Path_103983" data-name="Path 103983" d="M181.724,24.03l.1.306.322,0a.043.043,0,0,1,.025.078l-.259.191.1.307a.043.043,0,0,1-.067.048l-.262-.187-.262.187a.043.043,0,0,1-.067-.048l.1-.307-.259-.191a.043.043,0,0,1,.025-.078l.322,0,.1-.306A.044.044,0,0,1,181.724,24.03Z" transform="translate(-173.725 -24)" fill="#f5f5f5"/>
        <path id="Path_103984" data-name="Path 103984" d="M181.724,77.166l.1.306.322,0a.043.043,0,0,1,.025.078l-.259.191.1.307a.043.043,0,0,1-.067.048l-.262-.187-.262.187a.043.043,0,0,1-.067-.048l.1-.307-.259-.191a.043.043,0,0,1,.025-.078l.322,0,.1-.306A.044.044,0,0,1,181.724,77.166Z" transform="translate(-173.725 -74.585)" fill="#f5f5f5"/>
        <path id="Path_103985" data-name="Path 103985" d="M181.724,136.1l.1.306.322,0a.043.043,0,0,1,.025.078l-.259.191.1.307a.043.043,0,0,1-.067.048l-.262-.187-.262.187a.043.043,0,0,1-.067-.048l.1-.307-.259-.191a.043.043,0,0,1,.025-.078l.322,0,.1-.306A.044.044,0,0,1,181.724,136.1Z" transform="translate(-173.725 -130.689)" fill="#f5f5f5"/>
        <path id="Path_103986" data-name="Path 103986" d="M181.724,190.245l.1.306.322,0a.043.043,0,0,1,.025.078l-.259.191.1.307a.043.043,0,0,1-.067.048l-.262-.187-.262.187a.043.043,0,0,1-.067-.048l.1-.307-.259-.191a.043.043,0,0,1,.025-.078l.322,0,.1-.306A.044.044,0,0,1,181.724,190.245Z" transform="translate(-173.725 -182.236)" fill="#f5f5f5"/>
        <path id="Path_103987" data-name="Path 103987" d="M181.724,239.517l.1.306.322,0a.043.043,0,0,1,.025.078l-.259.191.1.307a.043.043,0,0,1-.067.048l-.262-.187-.262.187a.043.043,0,0,1-.067-.048l.1-.307-.259-.191a.043.043,0,0,1,.025-.078l.322,0,.1-.306A.044.044,0,0,1,181.724,239.517Z" transform="translate(-173.725 -229.143)" fill="#f5f5f5"/>
        <path id="Path_103988" data-name="Path 103988" d="M207.588,49.192l.1.306.322,0a.043.043,0,0,1,.025.078l-.259.191.1.307a.043.043,0,0,1-.067.048l-.262-.187-.262.187a.043.043,0,0,1-.067-.048l.1-.307-.259-.191a.043.043,0,0,1,.025-.078l.322,0,.1-.306A.044.044,0,0,1,207.588,49.192Z" transform="translate(-198.347 -47.954)" fill="#f5f5f5"/>
        <path id="Path_103989" data-name="Path 103989" d="M207.588,108.125l.1.306.322,0a.043.043,0,0,1,.025.078l-.259.191.1.307a.043.043,0,0,1-.067.048l-.262-.187-.262.187a.043.043,0,0,1-.067-.048l.1-.307-.259-.191a.043.043,0,0,1,.025-.078l.322,0,.1-.306A.044.044,0,0,1,207.588,108.125Z" transform="translate(-198.347 -104.058)" fill="#f5f5f5"/>
        <path id="Path_103990" data-name="Path 103990" d="M207.588,164.117l.1.306.322,0a.043.043,0,0,1,.025.078l-.259.191.1.307a.043.043,0,0,1-.067.048l-.262-.187-.262.187a.043.043,0,0,1-.067-.048l.1-.307-.259-.191a.043.043,0,0,1,.025-.078l.322,0,.1-.306A.044.044,0,0,1,207.588,164.117Z" transform="translate(-198.347 -157.362)" fill="#f5f5f5"/>
        <path id="Path_103991" data-name="Path 103991" d="M207.588,214.4l.1.306.322,0a.043.043,0,0,1,.025.078l-.259.191.1.307a.043.043,0,0,1-.067.048l-.262-.187-.262.187a.043.043,0,0,1-.067-.048l.1-.307-.259-.191a.043.043,0,0,1,.025-.078l.322,0,.1-.306A.044.044,0,0,1,207.588,214.4Z" transform="translate(-198.347 -205.23)" fill="#f5f5f5"/>
        <path id="Path_103992" data-name="Path 103992" d="M233.451,24.03l.1.306.322,0a.043.043,0,0,1,.025.078l-.259.191.1.307a.043.043,0,0,1-.067.048l-.262-.187-.262.187a.043.043,0,0,1-.067-.048l.1-.307-.259-.191a.043.043,0,0,1,.025-.078l.322,0,.1-.306A.044.044,0,0,1,233.451,24.03Z" transform="translate(-222.969 -24)" fill="#f5f5f5"/>
        <path id="Path_103993" data-name="Path 103993" d="M233.451,77.166l.1.306.322,0a.043.043,0,0,1,.025.078l-.259.191.1.307a.043.043,0,0,1-.067.048l-.262-.187-.262.187a.043.043,0,0,1-.067-.048l.1-.307-.259-.191a.043.043,0,0,1,.025-.078l.322,0,.1-.306A.044.044,0,0,1,233.451,77.166Z" transform="translate(-222.969 -74.585)" fill="#f5f5f5"/>
        <path id="Path_103994" data-name="Path 103994" d="M233.451,136.1l.1.306.322,0a.043.043,0,0,1,.025.078l-.259.191.1.307a.043.043,0,0,1-.067.048l-.262-.187-.262.187a.043.043,0,0,1-.067-.048l.1-.307-.259-.191a.043.043,0,0,1,.025-.078l.322,0,.1-.306A.044.044,0,0,1,233.451,136.1Z" transform="translate(-222.969 -130.689)" fill="#f5f5f5"/>
        <path id="Path_103995" data-name="Path 103995" d="M233.451,190.245l.1.306.322,0a.043.043,0,0,1,.025.078l-.259.191.1.307a.043.043,0,0,1-.067.048l-.262-.187-.262.187a.043.043,0,0,1-.067-.048l.1-.307-.259-.191a.043.043,0,0,1,.025-.078l.322,0,.1-.306A.044.044,0,0,1,233.451,190.245Z" transform="translate(-222.969 -182.236)" fill="#f5f5f5"/>
        <path id="Path_103996" data-name="Path 103996" d="M233.451,239.517l.1.306.322,0a.043.043,0,0,1,.025.078l-.259.191.1.307a.043.043,0,0,1-.067.048l-.262-.187-.262.187a.043.043,0,0,1-.067-.048l.1-.307-.259-.191a.043.043,0,0,1,.025-.078l.322,0,.1-.306A.044.044,0,0,1,233.451,239.517Z" transform="translate(-222.969 -229.143)" fill="#f5f5f5"/>
      </g>
    </g>
  </g>
</svg>
