<svg xmlns="http://www.w3.org/2000/svg" xmlns:xlink="http://www.w3.org/1999/xlink" width="37" height="35" viewBox="0 0 37 35">
  <defs>
    <clipPath id="clip-path">
      <rect id="Rectangle_32441" data-name="Rectangle 32441" width="25" height="26" rx="5" transform="translate(-8069 -9831)" fill="#fff" opacity="0.78"/>
    </clipPath>
  </defs>
  <g id="ES-flag" transform="translate(8069 9837)">
    <g id="Mask_Group_55" data-name="Mask Group 55" transform="translate(6 -1)" clip-path="url(#clip-path)">
      <g id="spain" transform="translate(-8072 -9831.134)">
        <path id="Path_136074" data-name="Path 136074" d="M2.073,0H35.689a2.076,2.076,0,0,1,2.073,2.073V24.194a2.081,2.081,0,0,1-2.073,2.073H2.073A2.07,2.07,0,0,1,0,24.2V2.073A2.081,2.081,0,0,1,2.073,0Z" transform="translate(-4)" fill="#c52026"/>
        <path id="Path_136075" data-name="Path 136075" d="M0,23.061H37.769V8.72H0Z" transform="translate(-4 -2.754)" fill="#ffc60b"/>
        <path id="Path_136076" data-name="Path 136076" d="M9.95,14.635h1.28V14.3H9.95Z" transform="translate(-3.142 -4.516)" fill="#c8b32f"/>
        <path id="Path_136077" data-name="Path 136077" d="M11.246,14.652H9.934v-.368h1.312Zm-1.28-.033h1.247v-.3H9.966Z" transform="translate(-3.142 -4.516)"/>
        <path id="Path_136078" data-name="Path 136078" d="M10.15,15.051a.025.025,0,0,1,.021-.007h.958a.041.041,0,0,1,.027.007.078.078,0,0,1,.007-.151c-.007,0-.021.007-.027.007h-.958a.041.041,0,0,1-.027-.007h.007a.08.08,0,0,1,.055.075.1.1,0,0,1-.062.075Z" transform="translate(-3.205 -4.705)" fill="#c8b32f"/>
        <path id="Path_136079" data-name="Path 136079" d="M11.156,15.067H11.15l-.011-.005h-.97l-.012.006a.016.016,0,0,1-.018-.027.038.038,0,0,1,.02-.011.083.083,0,0,0,.038-.056.061.061,0,0,0-.03-.049.043.043,0,0,1-.027-.011.016.016,0,0,1,.012-.028h.013l.012.006h.96l.009,0c.016-.005.034,0,.035.01a.016.016,0,0,1-.013.018.064.064,0,0,0-.048.059.061.061,0,0,0,.032.054.038.038,0,0,1,.018.009.016.016,0,0,1-.012.028Zm-.95-.039H11.1a.091.091,0,0,1,0-.1h-.89a.092.092,0,0,1,.016.052A.128.128,0,0,1,10.206,15.027Z" transform="translate(-3.205 -4.705)"/>
        <path id="Path_136080" data-name="Path 136080" d="M10.152,15.11h.958a.049.049,0,1,1,0,.1h-.958a.055.055,0,0,1-.062-.048.066.066,0,0,1,.062-.048Z" transform="translate(-3.186 -4.771)" fill="#c8b32f"/>
        <path id="Path_136081" data-name="Path 136081" d="M10.152,15.094h.958a.065.065,0,1,1,0,.128h-.958a.071.071,0,0,1-.078-.064A.082.082,0,0,1,10.152,15.094Zm.958.1c.025,0,.045-.014.045-.032s-.02-.032-.045-.032h-.958a.05.05,0,0,0-.046.036c0,.014.02.028.046.028Z" transform="translate(-3.186 -4.771)"/>
        <path id="Path_136082" data-name="Path 136082" d="M10.152,14.79h.958c.034,0,.062.021.062.041s-.027.041-.062.041h-.958c-.034,0-.062-.021-.062-.041a.069.069,0,0,1,.062-.041Z" transform="translate(-3.186 -4.67)" fill="#c8b32f"/>
        <path id="Path_136083" data-name="Path 136083" d="M10.152,14.774h.958c.042,0,.078.026.078.057s-.036.057-.078.057h-.958c-.042,0-.078-.026-.078-.057v-.005A.085.085,0,0,1,10.152,14.774Zm.958.082c.028,0,.045-.016.045-.025s-.017-.025-.045-.025h-.958a.055.055,0,0,0-.045.027.047.047,0,0,0,.045.022Z" transform="translate(-3.186 -4.67)"/>
        <path id="Path_136084" data-name="Path 136084" d="M11.366,22.993a.551.551,0,0,1-.226-.048.518.518,0,0,0-.219-.048.551.551,0,0,0-.226.048.526.526,0,0,1-.226.048.459.459,0,0,1-.226-.055.518.518,0,0,0-.219-.048.494.494,0,0,0-.219.048.551.551,0,0,1-.226.048v.137a.526.526,0,0,0,.226-.048.518.518,0,0,1,.219-.048.543.543,0,0,1,.219.048.526.526,0,0,0,.226.048.551.551,0,0,0,.226-.048.526.526,0,0,1,.226-.048.494.494,0,0,1,.219.048.551.551,0,0,0,.226.048v-.13Z" transform="translate(-3.025 -7.228)" fill="#265eac"/>
        <path id="Path_136085" data-name="Path 136085" d="M10.025,22.874a.538.538,0,0,1,.226.05.444.444,0,0,0,.219.053.514.514,0,0,0,.219-.046.569.569,0,0,1,.233-.05.538.538,0,0,1,.226.05.536.536,0,0,0,.219.046h.016v.163h-.016a.569.569,0,0,1-.232-.049.483.483,0,0,0-.212-.046.514.514,0,0,0-.219.046.569.569,0,0,1-.233.05.548.548,0,0,1-.233-.05.527.527,0,0,0-.212-.046.5.5,0,0,0-.212.046.548.548,0,0,1-.233.05H9.564v-.169H9.58a.536.536,0,0,0,.219-.046A.515.515,0,0,1,10.025,22.874Zm.445.135a.475.475,0,0,1-.234-.057.5.5,0,0,0-.211-.046.483.483,0,0,0-.212.046A.569.569,0,0,1,9.6,23v.1a.506.506,0,0,0,.2-.046.538.538,0,0,1,.226-.05.561.561,0,0,1,.226.049.514.514,0,0,0,.219.046.536.536,0,0,0,.219-.046.547.547,0,0,1,.232-.049.516.516,0,0,1,.226.05.535.535,0,0,0,.2.046v-.1a.568.568,0,0,1-.216-.049.5.5,0,0,0-.212-.046.536.536,0,0,0-.219.046A.547.547,0,0,1,10.469,23.009Z" transform="translate(-3.025 -7.228)"/>
        <path id="Path_136086" data-name="Path 136086" d="M11.366,23.2a.551.551,0,0,1-.226-.048.518.518,0,0,0-.219-.048.551.551,0,0,0-.226.048.526.526,0,0,1-.226.048.551.551,0,0,1-.226-.048.518.518,0,0,0-.219-.048.494.494,0,0,0-.219.048.551.551,0,0,1-.226.048v.137a.526.526,0,0,0,.226-.048.518.518,0,0,1,.219-.048.543.543,0,0,1,.219.048.522.522,0,0,0,.226.055.551.551,0,0,0,.226-.048.526.526,0,0,1,.226-.048.494.494,0,0,1,.219.048.551.551,0,0,0,.226.048V23.2Z" transform="translate(-3.025 -7.294)" fill="#cdcccb"/>
        <path id="Path_136087" data-name="Path 136087" d="M10.025,23.084a.539.539,0,0,1,.226.05.536.536,0,0,0,.219.046.514.514,0,0,0,.219-.046.569.569,0,0,1,.233-.05.539.539,0,0,1,.226.05.536.536,0,0,0,.219.046h.016v.176h-.016a.569.569,0,0,1-.232-.049.483.483,0,0,0-.212-.046.514.514,0,0,0-.219.046.569.569,0,0,1-.233.05.544.544,0,0,1-.233-.056.527.527,0,0,0-.212-.046.5.5,0,0,0-.212.046.548.548,0,0,1-.233.05H9.564v-.169H9.58a.536.536,0,0,0,.219-.046A.515.515,0,0,1,10.025,23.084Zm.445.128a.569.569,0,0,1-.232-.049.5.5,0,0,0-.212-.046.483.483,0,0,0-.212.046.569.569,0,0,1-.217.049v.1a.506.506,0,0,0,.2-.046.538.538,0,0,1,.226-.05.561.561,0,0,1,.226.049.512.512,0,0,0,.219.053.536.536,0,0,0,.219-.046.547.547,0,0,1,.232-.049.516.516,0,0,1,.226.05.535.535,0,0,0,.2.046v-.111a.568.568,0,0,1-.216-.049.5.5,0,0,0-.212-.046.536.536,0,0,0-.219.046A.547.547,0,0,1,10.469,23.212Z" transform="translate(-3.025 -7.294)"/>
        <path id="Path_136088" data-name="Path 136088" d="M11.366,23.393a.551.551,0,0,1-.226-.048.518.518,0,0,0-.219-.048.551.551,0,0,0-.226.048.526.526,0,0,1-.226.048.459.459,0,0,1-.226-.055.518.518,0,0,0-.219-.048.494.494,0,0,0-.219.048.551.551,0,0,1-.226.048v.137a.527.527,0,0,0,.226-.048.518.518,0,0,1,.219-.048.449.449,0,0,1,.219.048.526.526,0,0,0,.226.048.551.551,0,0,0,.226-.048.526.526,0,0,1,.226-.048.494.494,0,0,1,.219.048.551.551,0,0,0,.226.048v-.13Z" transform="translate(-3.025 -7.354)" fill="#265eac"/>
        <path id="Path_136089" data-name="Path 136089" d="M10.025,23.274a.538.538,0,0,1,.226.05.444.444,0,0,0,.219.053.514.514,0,0,0,.219-.046.569.569,0,0,1,.233-.05.538.538,0,0,1,.226.05.536.536,0,0,0,.219.046h.016v.163h-.016a.569.569,0,0,1-.232-.049.483.483,0,0,0-.212-.046.514.514,0,0,0-.219.046.569.569,0,0,1-.233.05.548.548,0,0,1-.233-.05.434.434,0,0,0-.212-.046.5.5,0,0,0-.212.046.548.548,0,0,1-.233.05H9.564v-.169H9.58a.536.536,0,0,0,.219-.046A.515.515,0,0,1,10.025,23.274Zm.445.135a.475.475,0,0,1-.234-.057.5.5,0,0,0-.211-.046.483.483,0,0,0-.212.046A.569.569,0,0,1,9.6,23.4v.1a.506.506,0,0,0,.2-.046.538.538,0,0,1,.226-.05.465.465,0,0,1,.227.05.514.514,0,0,0,.218.046.536.536,0,0,0,.219-.046.547.547,0,0,1,.232-.049.516.516,0,0,1,.226.05.535.535,0,0,0,.2.046v-.1a.568.568,0,0,1-.216-.049.5.5,0,0,0-.212-.046.536.536,0,0,0-.219.046A.547.547,0,0,1,10.469,23.409Z" transform="translate(-3.025 -7.354)"/>
        <path id="Path_136090" data-name="Path 136090" d="M11.366,23.736a.551.551,0,0,1-.226-.048.518.518,0,0,0-.219-.048.551.551,0,0,0-.226.048.526.526,0,0,1-.226.048.459.459,0,0,1-.226-.055.518.518,0,0,0-.219-.048.416.416,0,0,0-.219.048.551.551,0,0,1-.226.048v-.137a.441.441,0,0,0,.226-.055.518.518,0,0,1,.219-.048.449.449,0,0,1,.219.048.526.526,0,0,0,.226.048.551.551,0,0,0,.226-.048.526.526,0,0,1,.226-.048.494.494,0,0,1,.219.048.551.551,0,0,0,.226.048v.151Z" transform="translate(-3.025 -7.417)" fill="#cdcccb"/>
        <path id="Path_136091" data-name="Path 136091" d="M11.382,23.753h-.016a.569.569,0,0,1-.232-.049.5.5,0,0,0-.212-.046.536.536,0,0,0-.219.046.547.547,0,0,1-.232.049.475.475,0,0,1-.234-.057.5.5,0,0,0-.211-.046.4.4,0,0,0-.21.045.569.569,0,0,1-.234.05H9.564v-.169H9.58a.424.424,0,0,0,.217-.052.538.538,0,0,1,.228-.05.465.465,0,0,1,.227.05.514.514,0,0,0,.218.046.536.536,0,0,0,.219-.046.547.547,0,0,1,.232-.049.516.516,0,0,1,.226.05.536.536,0,0,0,.219.046h.016Zm-1.357-.135a.538.538,0,0,1,.226.05.444.444,0,0,0,.219.053.514.514,0,0,0,.219-.046.569.569,0,0,1,.233-.05.538.538,0,0,1,.226.05.535.535,0,0,0,.2.046V23.6a.568.568,0,0,1-.216-.049.483.483,0,0,0-.212-.046.514.514,0,0,0-.219.046.569.569,0,0,1-.233.05.548.548,0,0,1-.233-.05.434.434,0,0,0-.212-.046.5.5,0,0,0-.212.046.445.445,0,0,1-.217.056v.1a.536.536,0,0,0,.2-.046A.424.424,0,0,1,10.025,23.617Z" transform="translate(-3.025 -7.417)"/>
        <path id="Path_136092" data-name="Path 136092" d="M11.366,23.939a.551.551,0,0,1-.226-.048.518.518,0,0,0-.219-.048.551.551,0,0,0-.226.048.526.526,0,0,1-.226.048.551.551,0,0,1-.226-.048.518.518,0,0,0-.219-.048.494.494,0,0,0-.219.048.551.551,0,0,1-.226.048V23.8a.441.441,0,0,0,.226-.055.518.518,0,0,1,.219-.048.543.543,0,0,1,.219.048.522.522,0,0,0,.226.055.551.551,0,0,0,.226-.048.526.526,0,0,1,.226-.048.494.494,0,0,1,.219.048.459.459,0,0,0,.226.048v.137Z" transform="translate(-3.025 -7.484)" fill="#265eac"/>
        <path id="Path_136093" data-name="Path 136093" d="M11.382,23.956h-.016a.569.569,0,0,1-.232-.049.5.5,0,0,0-.212-.046.536.536,0,0,0-.219.046.547.547,0,0,1-.232.049.569.569,0,0,1-.232-.049.5.5,0,0,0-.212-.046.483.483,0,0,0-.212.046.569.569,0,0,1-.233.05H9.564v-.169H9.58a.424.424,0,0,0,.217-.052.538.538,0,0,1,.228-.05.561.561,0,0,1,.226.049.512.512,0,0,0,.219.053.536.536,0,0,0,.219-.046.547.547,0,0,1,.232-.049.516.516,0,0,1,.226.05.444.444,0,0,0,.219.046h.016Zm-1.357-.128a.538.538,0,0,1,.226.05.536.536,0,0,0,.219.046.514.514,0,0,0,.219-.046.569.569,0,0,1,.233-.05.539.539,0,0,1,.226.05.535.535,0,0,0,.2.046v-.1a.46.46,0,0,1-.217-.05.482.482,0,0,0-.211-.046.514.514,0,0,0-.219.046.569.569,0,0,1-.233.05.544.544,0,0,1-.233-.056.527.527,0,0,0-.212-.046.5.5,0,0,0-.212.046.445.445,0,0,1-.217.056v.1a.536.536,0,0,0,.2-.046A.515.515,0,0,1,10.025,23.827Z" transform="translate(-3.025 -7.484)"/>
        <path id="Path_136094" data-name="Path 136094" d="M10.077,22.21c0,.014.007.021.007.034a.16.16,0,0,1-.164.151h1.314a.16.16,0,0,1-.164-.151.062.062,0,0,1,.007-.034h-1Z" transform="translate(-3.132 -7.013)" fill="#c8b32f"/>
        <path id="Path_136095" data-name="Path 136095" d="M10.077,22.194h1a.016.016,0,0,1,.015.024.046.046,0,0,0-.005.027.143.143,0,0,0,.148.134.016.016,0,1,1,0,.033H9.92a.016.016,0,1,1,0-.033.143.143,0,0,0,.148-.134.036.036,0,0,0,0-.012.066.066,0,0,1,0-.022A.016.016,0,0,1,10.077,22.194Zm.977.033H10.1a.06.06,0,0,1,0,.018.164.164,0,0,1-.075.134h1.1a.164.164,0,0,1-.075-.134A.131.131,0,0,1,11.054,22.226Z" transform="translate(-3.132 -7.013)"/>
        <path id="Path_136096" data-name="Path 136096" d="M10.152,22.08h.958c.034,0,.062.021.062.041a.055.055,0,0,1-.062.048h-.958a.055.055,0,0,1-.062-.048.069.069,0,0,1,.062-.041Z" transform="translate(-3.186 -6.972)" fill="#c8b32f"/>
        <path id="Path_136097" data-name="Path 136097" d="M10.152,22.064h.958c.042,0,.078.026.078.057a.071.071,0,0,1-.078.064h-.958a.071.071,0,0,1-.078-.064v-.005A.085.085,0,0,1,10.152,22.064Zm.958.089c.025,0,.045-.014.045-.032s-.017-.025-.045-.025h-.958a.055.055,0,0,0-.045.027c0,.016.021.029.045.029Z" transform="translate(-3.186 -6.972)"/>
        <path id="Path_136098" data-name="Path 136098" d="M9.93,22.815h1.307V22.48H9.93Z" transform="translate(-3.136 -7.099)" fill="#c8b32f"/>
        <path id="Path_136099" data-name="Path 136099" d="M11.253,22.832H9.914v-.368h1.339ZM9.946,22.8h1.274v-.3H9.946Z" transform="translate(-3.136 -7.099)"/>
        <path id="Path_136100" data-name="Path 136100" d="M9.685,20.35c-.13.075-.219.151-.205.192s.048.062.109.1c.1.068.151.178.1.233a.337.337,0,0,0-.007-.527Z" transform="translate(-2.993 -6.426)" fill="#ac1f23"/>
        <path id="Path_136101" data-name="Path 136101" d="M9.686,20.33l.009.006a.354.354,0,0,1,.007.553l-.023-.023a.062.062,0,0,0,.013-.05.262.262,0,0,0-.113-.158c-.065-.043-.108-.072-.116-.113-.02-.059.1-.146.213-.209Zm.04.491a.309.309,0,0,0,.073-.2.314.314,0,0,0-.115-.247c-.161.095-.194.15-.188.167s.047.057.1.094a.292.292,0,0,1,.127.181S9.725,20.818,9.725,20.821Z" transform="translate(-2.993 -6.426)"/>
        <path id="Path_136102" data-name="Path 136102" d="M10.2,19.891h.931V15.32H10.2Z" transform="translate(-3.221 -4.838)" fill="#cdcccb"/>
        <path id="Path_136103" data-name="Path 136103" d="M10.184,15.3h.963v4.6h-.963Zm.931.033h-.9v4.538h.9Z" transform="translate(-3.221 -4.838)"/>
        <path id="Path_136104" data-name="Path 136104" d="M11.781,17.5a3.045,3.045,0,0,0-.944-.157,2.623,2.623,0,0,0-.445.041c-.554.1-.985.315-.951.5V17.9s-.212-.472-.212-.486c-.034-.2.431-.452,1.054-.554a2.585,2.585,0,0,1,.547-.041,2.856,2.856,0,0,1,.951.13V17.5Z" transform="translate(-2.914 -5.31)" fill="#ac1f23"/>
        <path id="Path_136105" data-name="Path 136105" d="M9.441,17.917a.016.016,0,0,1-.015-.01c-.214-.475-.214-.488-.214-.492a.178.178,0,0,1,.039-.133,1.766,1.766,0,0,1,1.028-.438,2.613,2.613,0,0,1,.551-.041,2.887,2.887,0,0,1,.956.131.016.016,0,0,1,.01.015V17.5a.016.016,0,0,1-.022.015,3.064,3.064,0,0,0-.939-.156,2.6,2.6,0,0,0-.441.041,1.6,1.6,0,0,0-.91.382.13.13,0,0,0-.028.1V17.9a.016.016,0,0,1-.013.016Zm1.3-1.083a2.667,2.667,0,0,0-.46.043,1.767,1.767,0,0,0-1.007.424.149.149,0,0,0-.033.111c0,.018.1.241.182.418a.2.2,0,0,1,.031-.063,1.623,1.623,0,0,1,.931-.4,2.629,2.629,0,0,1,.448-.041,3.185,3.185,0,0,1,.928.15V16.96a2.9,2.9,0,0,0-.935-.125Z" transform="translate(-2.914 -5.31)"/>
        <path id="Path_136106" data-name="Path 136106" d="M9.988,18.445c-.26-.021-.438-.089-.458-.2-.014-.089.068-.185.226-.267.075.007.151.014.233.014v.452Z" transform="translate(-3.009 -5.678)" fill="#ac1f23"/>
        <path id="Path_136107" data-name="Path 136107" d="M10,18.463H9.986c-.284-.022-.452-.1-.473-.212-.015-.1.068-.2.234-.284l0,0h0c.074.007.15.014.231.014H10ZM9.758,18c-.148.078-.225.168-.213.248s.176.161.426.183V18.01C9.9,18.009,9.826,18,9.758,18Z" transform="translate(-3.009 -5.678)"/>
        <path id="Path_136108" data-name="Path 136108" d="M11.57,18.15a.725.725,0,0,1,.342.116l.007.007c.027.062-.116.185-.349.328V18.15Z" transform="translate(-3.653 -5.731)" fill="#ac1f23"/>
        <path id="Path_136109" data-name="Path 136109" d="M11.554,18.131l.019,0a.723.723,0,0,1,.35.12l.011.012c.011.025.045.1-.355.349l-.025.015Zm.351.151,0,0a.667.667,0,0,0-.314-.109v.4C11.838,18.414,11.916,18.319,11.9,18.282Z" transform="translate(-3.653 -5.731)"/>
        <path id="Path_136110" data-name="Path 136110" d="M9.349,19.438c-.027-.075.226-.219.582-.349.164-.062.294-.116.465-.192.493-.219.862-.472.814-.561L11.2,18.33a3.142,3.142,0,0,1,.068.472c.041.082-.287.328-.746.547a6.43,6.43,0,0,1-.6.233c-.26.089-.52.26-.493.322l-.082-.465Z" transform="translate(-2.952 -5.788)" fill="#ac1f23"/>
        <path id="Path_136111" data-name="Path 136111" d="M9.431,19.92a.016.016,0,0,1-.015-.01.04.04,0,0,1,0-.016l-.08-.453c-.046-.126.485-.328.592-.367.168-.063.3-.118.464-.191.489-.217.8-.44.808-.525a.078.078,0,0,0-.006-.016h0a.016.016,0,0,1,.021-.025l0,0h0l.005.005a.054.054,0,0,1,.009.03c.025.1.054.408.057.443a.061.061,0,0,1,0,.044,1.868,1.868,0,0,1-.754.523c-.141.067-.45.184-.6.233a.967.967,0,0,0-.483.294l0,.009a.016.016,0,0,1-.011.018Zm1.778-1.509a2.449,2.449,0,0,1-.806.5c-.163.072-.3.129-.466.192-.4.145-.591.277-.572.328l.072.41a1.3,1.3,0,0,1,.482-.276,6.436,6.436,0,0,0,.6-.232,1.839,1.839,0,0,0,.737-.5.029.029,0,0,0,0-.022.016.016,0,0,1,0-.006S11.232,18.544,11.209,18.411Z" transform="translate(-2.952 -5.788)"/>
        <path id="Path_136112" data-name="Path 136112" d="M9.959,17.222,10,17.209c.034-.014.068.007.089.048a.071.071,0,0,1-.027.089l-.041.021-.062-.144Zm.068.171c.116-.041.192-.089.151-.178-.021-.055-.082-.068-.171-.034l-.157.055.137.349a.334.334,0,0,1,.048-.021.127.127,0,0,1,.048-.014l-.055-.157Z" transform="translate(-3.11 -5.419)" fill="#c8b32f"/>
        <path id="Path_136113" data-name="Path 136113" d="M10.6,17.04c-.014.007-.034.007-.048.014s-.034.007-.048.007l.082.363.253-.048c0-.007-.007-.014-.007-.021v-.021a1.49,1.49,0,0,1-.151.041L10.6,17.04Z" transform="translate(-3.316 -5.381)" fill="#c8b32f"/>
        <path id="Path_136114" data-name="Path 136114" d="M11.257,17.323c.048-.13.1-.253.164-.383-.014,0-.021.007-.027.007h-.034a1.9,1.9,0,0,1-.109.274,2.378,2.378,0,0,1-.137-.26c-.021,0-.041.007-.062.007H10.99c.075.116.144.239.212.356.007,0,.021-.007.027-.007s.014.007.027.007Z" transform="translate(-3.47 -5.349)" fill="#c8b32f"/>
        <path id="Path_136115" data-name="Path 136115" d="M12.021,17.051A.3.3,0,0,1,12.048,17a.162.162,0,0,0-.1-.034c-.1-.014-.164.034-.171.1-.014.13.192.116.178.205a.067.067,0,0,1-.082.048c-.048-.007-.082-.027-.089-.068h-.014a.472.472,0,0,1-.027.068.258.258,0,0,0,.109.034c.1.014.185-.027.192-.1.014-.123-.192-.13-.185-.205,0-.027.027-.048.082-.048a.094.094,0,0,1,.075.055Z" transform="translate(-3.707 -5.358)" fill="#c8b32f"/>
        <path id="Path_136116" data-name="Path 136116" d="M22.46,14.635h1.28V14.3H22.46Z" transform="translate(-7.092 -4.516)" fill="#c8b32f"/>
        <path id="Path_136117" data-name="Path 136117" d="M23.756,14.652H22.444v-.368h1.312Zm-1.28-.033h1.247v-.3H22.476Z" transform="translate(-7.092 -4.516)"/>
        <path id="Path_136118" data-name="Path 136118" d="M23.663,15.051a.025.025,0,0,0-.021-.007h-.958a.041.041,0,0,0-.027.007.078.078,0,0,0-.007-.151c.007,0,.021.007.027.007h.958a.041.041,0,0,0,.027-.007h-.007a.08.08,0,0,0-.055.075.1.1,0,0,0,.062.075Z" transform="translate(-7.152 -4.705)" fill="#c8b32f"/>
        <path id="Path_136119" data-name="Path 136119" d="M23.663,15.067h-.006l-.012-.006h-.97l-.011.005a.016.016,0,0,1-.018-.027.038.038,0,0,1,.018-.009.061.061,0,0,0,.032-.054.064.064,0,0,0-.048-.059.016.016,0,0,1,0-.032.062.062,0,0,1,.019,0l.009,0h.96l.012-.006h.013a.016.016,0,0,1,.012.028.043.043,0,0,1-.027.011.061.061,0,0,0-.03.053.082.082,0,0,0,.037.053.038.038,0,0,1,.02.011.016.016,0,0,1-.012.028Zm-.951-.039h.894a.122.122,0,0,1-.021-.049.1.1,0,0,1,.016-.055h-.89a.091.091,0,0,1,0,.1Z" transform="translate(-7.152 -4.705)"/>
        <path id="Path_136120" data-name="Path 136120" d="M22.672,15.11h.958a.049.049,0,1,1,0,.1h-.958a.049.049,0,1,1,0-.1Z" transform="translate(-7.14 -4.771)" fill="#c8b32f"/>
        <path id="Path_136121" data-name="Path 136121" d="M22.672,15.094h.958a.065.065,0,1,1,0,.128h-.958a.065.065,0,1,1,0-.128Zm.958.1c.025,0,.045-.014.045-.032s-.02-.032-.045-.032h-.958c-.025,0-.045.014-.045.032s.02.032.045.032Z" transform="translate(-7.14 -4.771)"/>
        <path id="Path_136122" data-name="Path 136122" d="M22.672,14.79h.958c.034,0,.062.021.062.041s-.027.041-.062.041h-.958c-.034,0-.062-.021-.062-.041s.027-.041.062-.041Z" transform="translate(-7.14 -4.67)" fill="#c8b32f"/>
        <path id="Path_136123" data-name="Path 136123" d="M22.672,14.774h.958c.042,0,.078.026.078.057s-.036.057-.078.057h-.958c-.042,0-.078-.026-.078-.057S22.629,14.774,22.672,14.774Zm.958.082c.028,0,.045-.016.045-.025s-.017-.025-.045-.025h-.958c-.028,0-.045.016-.045.025s.017.025.045.025Z" transform="translate(-7.14 -4.67)"/>
        <path id="Path_136124" data-name="Path 136124" d="M22.09,22.993a.551.551,0,0,0,.226-.048.518.518,0,0,1,.219-.048.551.551,0,0,1,.226.048.526.526,0,0,0,.226.048.459.459,0,0,0,.226-.055.518.518,0,0,1,.219-.048.494.494,0,0,1,.219.048.526.526,0,0,0,.226.048v.137a.527.527,0,0,1-.226-.048.518.518,0,0,0-.219-.048.543.543,0,0,0-.219.048.526.526,0,0,1-.226.048.551.551,0,0,1-.226-.048.526.526,0,0,0-.226-.048.494.494,0,0,0-.219.048.526.526,0,0,1-.226.048v-.13Z" transform="translate(-6.975 -7.228)" fill="#265eac"/>
        <path id="Path_136125" data-name="Path 136125" d="M23.431,22.874a.516.516,0,0,1,.226.05.514.514,0,0,0,.219.046h.016v.169h-.016a.548.548,0,0,1-.233-.05.5.5,0,0,0-.212-.046.528.528,0,0,0-.212.046.547.547,0,0,1-.232.049.569.569,0,0,1-.232-.049.514.514,0,0,0-.219-.046.483.483,0,0,0-.212.046.548.548,0,0,1-.233.05h-.016v-.163h.016a.536.536,0,0,0,.219-.046.538.538,0,0,1,.226-.049.569.569,0,0,1,.232.049.514.514,0,0,0,.219.046.443.443,0,0,0,.218-.053A.539.539,0,0,1,23.431,22.874ZM23.86,23a.541.541,0,0,1-.217-.049.483.483,0,0,0-.212-.046.5.5,0,0,0-.212.046.475.475,0,0,1-.233.056.548.548,0,0,1-.233-.05.536.536,0,0,0-.219-.046.5.5,0,0,0-.212.046.569.569,0,0,1-.217.049v.1a.506.506,0,0,0,.2-.046.516.516,0,0,1,.226-.05.548.548,0,0,1,.233.05.536.536,0,0,0,.219.046.514.514,0,0,0,.219-.046.561.561,0,0,1,.226-.05.538.538,0,0,1,.226.05.506.506,0,0,0,.2.046Z" transform="translate(-6.975 -7.228)"/>
        <path id="Path_136126" data-name="Path 136126" d="M22.09,23.2a.551.551,0,0,0,.226-.048.518.518,0,0,1,.219-.048.551.551,0,0,1,.226.048.526.526,0,0,0,.226.048.551.551,0,0,0,.226-.048.518.518,0,0,1,.219-.048.494.494,0,0,1,.219.048.526.526,0,0,0,.226.048v.137a.527.527,0,0,1-.226-.048.518.518,0,0,0-.219-.048.543.543,0,0,0-.219.048.522.522,0,0,1-.226.055.551.551,0,0,1-.226-.048.551.551,0,0,0-.226-.048.494.494,0,0,0-.219.048.526.526,0,0,1-.226.048V23.2Z" transform="translate(-6.975 -7.294)" fill="#cdcccb"/>
        <path id="Path_136127" data-name="Path 136127" d="M22.535,23.084a.569.569,0,0,1,.232.049.514.514,0,0,0,.219.046.536.536,0,0,0,.219-.046.538.538,0,0,1,.226-.049.516.516,0,0,1,.226.05.514.514,0,0,0,.219.046h.016v.169h-.016a.548.548,0,0,1-.233-.05.5.5,0,0,0-.212-.046.528.528,0,0,0-.212.046.544.544,0,0,1-.232.056.569.569,0,0,1-.232-.049.536.536,0,0,0-.219-.046.483.483,0,0,0-.212.046.548.548,0,0,1-.233.05h-.016v-.176h.016a.536.536,0,0,0,.219-.046A.538.538,0,0,1,22.535,23.084Zm.452.128a.548.548,0,0,1-.233-.05.536.536,0,0,0-.219-.046.5.5,0,0,0-.212.046.569.569,0,0,1-.217.049v.111a.506.506,0,0,0,.2-.046.516.516,0,0,1,.226-.05.569.569,0,0,1,.232.049.536.536,0,0,0,.219.046.511.511,0,0,0,.219-.053.561.561,0,0,1,.226-.05.538.538,0,0,1,.226.05.506.506,0,0,0,.2.046v-.1a.541.541,0,0,1-.217-.049.483.483,0,0,0-.212-.046.5.5,0,0,0-.212.046A.569.569,0,0,1,22.986,23.212Z" transform="translate(-6.975 -7.294)"/>
        <path id="Path_136128" data-name="Path 136128" d="M22.09,23.393a.551.551,0,0,0,.226-.048.518.518,0,0,1,.219-.048.551.551,0,0,1,.226.048.526.526,0,0,0,.226.048.459.459,0,0,0,.226-.055.518.518,0,0,1,.219-.048.494.494,0,0,1,.219.048.526.526,0,0,0,.226.048v.137a.527.527,0,0,1-.226-.048.518.518,0,0,0-.219-.048.449.449,0,0,0-.219.048.526.526,0,0,1-.226.048.551.551,0,0,1-.226-.048.526.526,0,0,0-.226-.048.494.494,0,0,0-.219.048.526.526,0,0,1-.226.048v-.13Z" transform="translate(-6.975 -7.354)" fill="#265eac"/>
        <path id="Path_136129" data-name="Path 136129" d="M23.431,23.274a.516.516,0,0,1,.226.05.514.514,0,0,0,.219.046h.016v.169h-.016a.548.548,0,0,1-.233-.05.5.5,0,0,0-.212-.046.433.433,0,0,0-.211.046.548.548,0,0,1-.234.05.569.569,0,0,1-.232-.049.514.514,0,0,0-.219-.046.483.483,0,0,0-.212.046.548.548,0,0,1-.233.05h-.016v-.163h.016a.536.536,0,0,0,.219-.046.538.538,0,0,1,.226-.049.569.569,0,0,1,.232.049.514.514,0,0,0,.219.046.443.443,0,0,0,.218-.053A.539.539,0,0,1,23.431,23.274Zm.428.128a.541.541,0,0,1-.217-.049.483.483,0,0,0-.212-.046.5.5,0,0,0-.212.046.475.475,0,0,1-.233.056.548.548,0,0,1-.233-.05.536.536,0,0,0-.219-.046.5.5,0,0,0-.212.046.569.569,0,0,1-.217.049v.1a.506.506,0,0,0,.2-.046.516.516,0,0,1,.226-.05.548.548,0,0,1,.233.05.536.536,0,0,0,.219.046.514.514,0,0,0,.219-.046.465.465,0,0,1,.226-.05.538.538,0,0,1,.226.05.506.506,0,0,0,.2.046Z" transform="translate(-6.975 -7.354)"/>
        <path id="Path_136130" data-name="Path 136130" d="M22.09,23.736a.551.551,0,0,0,.226-.048.518.518,0,0,1,.219-.048.551.551,0,0,1,.226.048.526.526,0,0,0,.226.048.459.459,0,0,0,.226-.055.518.518,0,0,1,.219-.048.416.416,0,0,1,.219.048.442.442,0,0,0,.226.048v-.137a.441.441,0,0,1-.226-.055.518.518,0,0,0-.219-.048.449.449,0,0,0-.219.048.526.526,0,0,1-.226.048.551.551,0,0,1-.226-.048.526.526,0,0,0-.226-.048.494.494,0,0,0-.219.048.526.526,0,0,1-.226.048v.151Z" transform="translate(-6.975 -7.417)" fill="#cdcccb"/>
        <path id="Path_136131" data-name="Path 136131" d="M22.986,23.753a.548.548,0,0,1-.233-.05.536.536,0,0,0-.219-.046.5.5,0,0,0-.212.046.569.569,0,0,1-.233.05h-.016v-.183h.016a.514.514,0,0,0,.219-.046.516.516,0,0,1,.226-.05.548.548,0,0,1,.233.05.536.536,0,0,0,.219.046.514.514,0,0,0,.219-.046.465.465,0,0,1,.226-.05.539.539,0,0,1,.226.05.425.425,0,0,0,.219.053h.016v.169h-.016a.454.454,0,0,1-.234-.05.4.4,0,0,0-.21-.045.5.5,0,0,0-.212.046A.475.475,0,0,1,22.986,23.753Zm-.452-.128a.569.569,0,0,1,.232.049.515.515,0,0,0,.219.046.443.443,0,0,0,.218-.053.539.539,0,0,1,.227-.05.426.426,0,0,1,.228.05.405.405,0,0,0,.2.045v-.1a.446.446,0,0,1-.218-.057.5.5,0,0,0-.21-.045.433.433,0,0,0-.211.046.548.548,0,0,1-.234.05.569.569,0,0,1-.232-.049.514.514,0,0,0-.219-.046.483.483,0,0,0-.212.046.541.541,0,0,1-.217.049v.118a.536.536,0,0,0,.2-.046A.538.538,0,0,1,22.535,23.624Z" transform="translate(-6.975 -7.417)"/>
        <path id="Path_136132" data-name="Path 136132" d="M22.09,23.939a.551.551,0,0,0,.226-.048.518.518,0,0,1,.219-.048.551.551,0,0,1,.226.048.526.526,0,0,0,.226.048.551.551,0,0,0,.226-.048.518.518,0,0,1,.219-.048.494.494,0,0,1,.219.048.527.527,0,0,0,.226.048V23.8a.441.441,0,0,1-.226-.055.432.432,0,0,0-.219-.048.543.543,0,0,0-.219.048.522.522,0,0,1-.226.055.551.551,0,0,1-.226-.048.526.526,0,0,0-.226-.048.494.494,0,0,0-.219.048.442.442,0,0,1-.226.048v.137Z" transform="translate(-6.975 -7.484)" fill="#265eac"/>
        <path id="Path_136133" data-name="Path 136133" d="M23.892,23.956h-.016a.548.548,0,0,1-.233-.05.483.483,0,0,0-.212-.046.5.5,0,0,0-.212.046.569.569,0,0,1-.233.05.548.548,0,0,1-.233-.05.536.536,0,0,0-.219-.046.5.5,0,0,0-.212.046.569.569,0,0,1-.233.05h-.016v-.169h.016a.424.424,0,0,0,.217-.045.516.516,0,0,1,.228-.05.548.548,0,0,1,.233.05.536.536,0,0,0,.219.046.511.511,0,0,0,.219-.053.562.562,0,0,1,.226-.05.444.444,0,0,1,.228.05.424.424,0,0,0,.217.052h.016Zm-1.357-.128a.569.569,0,0,1,.232.049.514.514,0,0,0,.219.046.536.536,0,0,0,.219-.046.538.538,0,0,1,.226-.049.516.516,0,0,1,.226.05.506.506,0,0,0,.2.046v-.1a.446.446,0,0,1-.218-.057.413.413,0,0,0-.21-.045.528.528,0,0,0-.212.046.544.544,0,0,1-.232.056.569.569,0,0,1-.232-.049.514.514,0,0,0-.219-.046.483.483,0,0,0-.212.046.436.436,0,0,1-.217.049v.1a.536.536,0,0,0,.2-.046A.538.538,0,0,1,22.535,23.827Z" transform="translate(-6.975 -7.484)"/>
        <path id="Path_136134" data-name="Path 136134" d="M23.6,22.21c0,.014-.007.021-.007.034a.16.16,0,0,0,.164.151H22.44a.16.16,0,0,0,.164-.151.062.062,0,0,0-.007-.034h1Z" transform="translate(-7.086 -7.013)" fill="#c8b32f"/>
        <path id="Path_136135" data-name="Path 136135" d="M22.6,22.194h1a.016.016,0,0,1,.016.016.066.066,0,0,1,0,.022.036.036,0,0,0,0,.012.143.143,0,0,0,.148.134.016.016,0,1,1,0,.033H22.44a.016.016,0,1,1,0-.033.143.143,0,0,0,.148-.134.046.046,0,0,0-.005-.027.016.016,0,0,1,.015-.024Zm.979.033H22.62a.131.131,0,0,1,0,.018.164.164,0,0,1-.075.134h1.1a.164.164,0,0,1-.075-.134A.06.06,0,0,1,23.576,22.226Z" transform="translate(-7.086 -7.013)"/>
        <path id="Path_136136" data-name="Path 136136" d="M22.672,22.08h.958c.034,0,.062.021.062.041a.055.055,0,0,1-.062.048h-.958a.055.055,0,0,1-.062-.048c0-.021.027-.041.062-.041Z" transform="translate(-7.14 -6.972)" fill="#c8b32f"/>
        <path id="Path_136137" data-name="Path 136137" d="M22.672,22.064h.958c.042,0,.078.026.078.057a.071.071,0,0,1-.078.064h-.958a.071.071,0,0,1-.078-.064C22.594,22.09,22.629,22.064,22.672,22.064Zm.958.089c.025,0,.045-.014.045-.032s-.017-.025-.045-.025h-.958c-.028,0-.045.016-.045.025s.02.032.045.032Z" transform="translate(-7.14 -6.972)"/>
        <path id="Path_136138" data-name="Path 136138" d="M22.44,22.815h1.307V22.48H22.44Z" transform="translate(-7.086 -7.099)" fill="#c8b32f"/>
        <path id="Path_136139" data-name="Path 136139" d="M23.763,22.832H22.424v-.368h1.339ZM22.456,22.8h1.274v-.3H22.456Z" transform="translate(-7.086 -7.099)"/>
        <path id="Path_136140" data-name="Path 136140" d="M24.45,20.35c.13.075.219.151.205.192s-.048.062-.109.1c-.1.068-.151.178-.1.233a.328.328,0,0,1-.123-.26.294.294,0,0,1,.13-.267Z" transform="translate(-7.679 -6.426)" fill="#ac1f23"/>
        <path id="Path_136141" data-name="Path 136141" d="M24.449,20.331l.009.005c.108.063.233.15.213.211-.008.039-.051.068-.116.111a.262.262,0,0,0-.112.158.062.062,0,0,0,.013.05l-.023.023a.346.346,0,0,1-.129-.273.311.311,0,0,1,.137-.28Zm-.04.49s0-.006,0-.009a.291.291,0,0,1,.126-.181c.057-.038.1-.065.1-.093s-.027-.074-.188-.169a.276.276,0,0,0-.115.246A.31.31,0,0,0,24.409,20.821Z" transform="translate(-7.679 -6.426)"/>
        <path id="Path_136142" data-name="Path 136142" d="M22.72,19.891h.931V15.32H22.72Z" transform="translate(-7.174 -4.838)" fill="#cdcccb"/>
        <path id="Path_136143" data-name="Path 136143" d="M22.7,15.3h.963v4.6H22.7Zm.931.033h-.9v4.538h.9Z" transform="translate(-7.174 -4.838)"/>
        <path id="Path_136144" data-name="Path 136144" d="M21.32,17.5a3.045,3.045,0,0,1,.944-.157,2.623,2.623,0,0,1,.445.041c.561.1.985.315.951.5V17.9s.212-.472.212-.486c.034-.2-.431-.452-1.054-.554a2.585,2.585,0,0,0-.547-.041,2.856,2.856,0,0,0-.951.13V17.5Z" transform="translate(-6.732 -5.31)" fill="#ac1f23"/>
        <path id="Path_136145" data-name="Path 136145" d="M23.66,17.917h0a.016.016,0,0,1-.013-.016v-.014a.134.134,0,0,0-.028-.1,1.592,1.592,0,0,0-.91-.381,2.6,2.6,0,0,0-.442-.041,3.063,3.063,0,0,0-.938.156A.016.016,0,0,1,21.3,17.5v-.554a.016.016,0,0,1,.01-.015,2.889,2.889,0,0,1,.957-.131l.084,0a2.7,2.7,0,0,1,.466.043,1.765,1.765,0,0,1,1.028.438.18.18,0,0,1,.039.135s0,.014-.213.49A.016.016,0,0,1,23.66,17.917Zm-1.4-.587a2.63,2.63,0,0,1,.448.041,1.618,1.618,0,0,1,.931.394.2.2,0,0,1,.031.065c.079-.177.178-.4.182-.418a.149.149,0,0,0-.033-.111,1.767,1.767,0,0,0-1.007-.424,2.577,2.577,0,0,0-.544-.041,2.9,2.9,0,0,0-.935.125v.519A3.184,3.184,0,0,1,22.264,17.33Z" transform="translate(-6.732 -5.31)"/>
        <path id="Path_136146" data-name="Path 136146" d="M24.08,18.445c.26-.021.438-.089.458-.2.014-.089-.068-.185-.226-.267-.075.007-.151.014-.233.014v.452Z" transform="translate(-7.604 -5.678)" fill="#ac1f23"/>
        <path id="Path_136147" data-name="Path 136147" d="M24.064,18.463v-.486h.016c.081,0,.157-.007.231-.014h0l0,0c.166.087.249.187.234.284-.021.115-.19.19-.473.212Zm.033-.453v.418c.25-.022.409-.09.426-.184s-.065-.169-.213-.247C24.241,18,24.171,18.009,24.1,18.01Z" transform="translate(-7.604 -5.678)"/>
        <path id="Path_136148" data-name="Path 136148" d="M22.547,18.15a.725.725,0,0,0-.342.116l-.007.007c-.027.062.116.185.349.328V18.15Z" transform="translate(-7.009 -5.731)" fill="#ac1f23"/>
        <path id="Path_136149" data-name="Path 136149" d="M22.564,18.131v.5l-.025-.015c-.4-.247-.366-.324-.355-.349l0,0,.007-.007a.722.722,0,0,1,.351-.121Zm-.033.441v-.4a.665.665,0,0,0-.315.109l0,0C22.2,18.319,22.279,18.414,22.531,18.572Z" transform="translate(-7.009 -5.731)"/>
        <path id="Path_136150" data-name="Path 136150" d="M24.041,19.438c.027-.075-.226-.219-.582-.349-.164-.062-.3-.116-.465-.192-.493-.219-.862-.472-.814-.561l.007-.007a3.142,3.142,0,0,0-.068.472c-.048.082.287.328.746.547a6.43,6.43,0,0,0,.6.233c.26.089.52.26.493.322l.082-.465Z" transform="translate(-6.983 -5.788)" fill="#ac1f23"/>
        <path id="Path_136151" data-name="Path 136151" d="M23.958,19.92h0a.016.016,0,0,1-.011-.018l0-.009a.967.967,0,0,0-.483-.294c-.154-.049-.463-.166-.6-.233a1.814,1.814,0,0,1-.756-.523.059.059,0,0,1,0-.044c0-.037.032-.343.057-.442a.052.052,0,0,1,.006-.026l.007-.008h0l0,0h0l0,0a.016.016,0,0,1,.021.025h0a.079.079,0,0,0-.006.016c.01.085.32.308.808.525.17.078.309.133.464.191.107.039.638.241.591.37l-.079.45a.04.04,0,0,1,0,.016A.016.016,0,0,1,23.958,19.92Zm-1.778-1.509c-.023.132-.046.389-.047.392a.016.016,0,0,1,0,.007.026.026,0,0,0,0,.021,1.822,1.822,0,0,0,.739.5c.139.066.446.183.6.232a1.3,1.3,0,0,1,.482.276l.072-.407c.019-.054-.175-.186-.571-.331-.156-.059-.3-.114-.466-.192A2.448,2.448,0,0,1,22.181,18.411Z" transform="translate(-6.983 -5.788)"/>
        <path id="Path_136152" data-name="Path 136152" d="M22.031,17.347c.034-.137.082-.26.123-.4-.007,0-.021.007-.027.007H22.1a1.894,1.894,0,0,1-.082.281c-.055-.082-.116-.164-.164-.246-.021.007-.041.007-.062.014s-.041.007-.062.007c.082.109.164.226.239.342.007,0,.021-.007.027-.007Z" transform="translate(-6.862 -5.352)" fill="#c8b32f"/>
        <path id="Path_136153" data-name="Path 136153" d="M22.643,16.947h-.048a.116.116,0,0,1-.048-.007l-.007.369.26.007c0-.007-.007-.014-.007-.021a.025.025,0,0,1,.007-.021c-.048,0-.1.007-.157.007v-.335Z" transform="translate(-7.117 -5.349)" fill="#c8b32f"/>
        <path id="Path_136154" data-name="Path 136154" d="M23.176,17.018l.123.021v-.021A.025.025,0,0,1,23.306,17l-.349-.027v.021a.025.025,0,0,1-.007.021h.13l-.027.328H23.1c.021,0,.034.007.048.007l.027-.328Z" transform="translate(-7.247 -5.359)" fill="#c8b32f"/>
        <path id="Path_136155" data-name="Path 136155" d="M23.668,17.095c.041.007.089.014.089.062,0,.014,0,.021-.007.027-.014.055-.055.068-.123.055l.041-.144Zm-.178.308c.014,0,.034.007.048.007a.127.127,0,0,1,.048.014l.041-.171h.007a.71.71,0,0,0,.027.068l.055.13c.021.007.041.007.062.014a.2.2,0,0,0,.062.014l-.021-.041c-.027-.055-.055-.116-.082-.171.062,0,.116-.021.123-.075a.087.087,0,0,0-.041-.089.3.3,0,0,0-.1-.034l-.137-.027-.089.363Z" transform="translate(-7.417 -5.381)" fill="#c8b32f"/>
        <path id="Path_136156" data-name="Path 136156" d="M24.222,17.518l.123-.075-.014.137-.109-.062Zm.1.089a.421.421,0,0,1-.021.123.2.2,0,0,1,.055.027l.048.027.034-.417c-.007,0-.014-.007-.021-.014s-.014-.007-.021-.014l-.369.233c.007.007.021.007.027.014a.052.052,0,0,0,.027.014c.034-.027.062-.048.1-.075l.137.082Z" transform="translate(-7.588 -5.475)" fill="#c8b32f"/>
        <path id="Path_136157" data-name="Path 136157" d="M15.827,22.513a4.882,4.882,0,0,1-2.121-.493A1.361,1.361,0,0,1,12.94,20.8V18.9H18.7v1.909a1.369,1.369,0,0,1-.766,1.218,4.892,4.892,0,0,1-2.107.486Z" transform="translate(-4.086 -5.968)" fill="#cdcccb"/>
        <path id="Path_136158" data-name="Path 136158" d="M15.827,22.535A4.877,4.877,0,0,1,13.7,22.04a1.375,1.375,0,0,1-.779-1.238V18.878h5.8v1.931a1.391,1.391,0,0,1-.778,1.237A4.894,4.894,0,0,1,15.827,22.535Zm-2.866-3.613V20.8a1.332,1.332,0,0,0,.754,1.2,4.791,4.791,0,0,0,4.209.007,1.347,1.347,0,0,0,.754-1.2V18.922Z" transform="translate(-4.086 -5.968)"/>
        <path id="Path_136159" data-name="Path 136159" d="M15.811,20.806a1.442,1.442,0,0,1-2.881,0V18.89h2.881v1.916Z" transform="translate(-4.083 -5.965)" fill="#ac1f23"/>
        <path id="Path_136160" data-name="Path 136160" d="M16.677,21.616A1.282,1.282,0,0,0,17,20.884l.007-2.094H16.67l.007,2.826Z" transform="translate(-5.264 -5.933)" fill="#c8b32f"/>
        <path id="Path_136161" data-name="Path 136161" d="M16.655,21.663l-.007-2.9h.379l-.007,2.116a1.3,1.3,0,0,1-.329.749Zm.037-2.851.007,2.753a1.372,1.372,0,0,0,.278-.684l.007-2.069Z" transform="translate(-5.264 -5.933)"/>
        <path id="Path_136162" data-name="Path 136162" d="M17.14,17.415h2.887v-3.2H17.14Z" transform="translate(-5.412 -4.49)" fill="#cdcccb"/>
        <path id="Path_136163" data-name="Path 136163" d="M13.85,21.893a1.273,1.273,0,0,0,.349.157l-.007-3.271h-.335v3.113Z" transform="translate(-4.373 -5.93)" fill="#c8b32f"/>
        <path id="Path_136164" data-name="Path 136164" d="M14.221,22.077l-.026-.005a1.032,1.032,0,0,1-.3-.129l-.054-.03,0-.019h-.01V18.758h.379Zm-.342-.193.037.021a1.083,1.083,0,0,0,.262.118L14.17,18.8h-.292Z" transform="translate(-4.373 -5.93)"/>
        <path id="Path_136165" data-name="Path 136165" d="M12.93,20.753a1.44,1.44,0,0,0,.328.9V18.81h-.322l-.007,1.943Z" transform="translate(-4.083 -5.94)" fill="#c8b32f"/>
        <path id="Path_136166" data-name="Path 136166" d="M13.258,21.671a.021.021,0,0,1-.016-.008,1.458,1.458,0,0,1-.333-.909l.007-1.944a.021.021,0,0,1,.021-.021h.322a.021.021,0,0,1,.021.021v2.84a.021.021,0,0,1-.014.02Zm-.3-2.84-.007,1.922a1.414,1.414,0,0,0,.287.836V18.831Z" transform="translate(-4.083 -5.94)"/>
        <path id="Path_136167" data-name="Path 136167" d="M14.79,22.129a1.369,1.369,0,0,0,.335,0V18.79H14.79v3.339Z" transform="translate(-4.67 -5.933)" fill="#c6b52f"/>
        <path id="Path_136168" data-name="Path 136168" d="M14.968,22.161a1.719,1.719,0,0,1-.18-.01l-.02,0V18.768h.379v3.38l-.019,0A1.2,1.2,0,0,1,14.968,22.161Zm-.156-.052a1.331,1.331,0,0,0,.292,0v-3.3h-.292Z" transform="translate(-4.67 -5.933)"/>
        <path id="Path_136169" data-name="Path 136169" d="M15.72,22.061a1.3,1.3,0,0,0,.349-.151V18.79h-.335l-.014,3.271Z" transform="translate(-4.964 -5.933)" fill="#c8b32f"/>
        <path id="Path_136170" data-name="Path 136170" d="M15.7,22.088l.014-3.319h.379v3.154l-.011.006a1.342,1.342,0,0,1-.356.153Zm.057-3.276-.013,3.221a1.348,1.348,0,0,0,.305-.135V18.812Z" transform="translate(-4.964 -5.933)"/>
        <path id="Path_136171" data-name="Path 136171" d="M12.93,17.415h2.881v-3.2H12.93Z" transform="translate(-4.083 -4.49)" fill="#ac1f23"/>
        <path id="Path_136172" data-name="Path 136172" d="M12.908,14.2h2.924v5.133a1.464,1.464,0,0,1-2.924,0Zm2.881.044H12.952v3.152h2.837Zm0,3.2H12.952v1.894a1.42,1.42,0,0,0,2.837,0Z" transform="translate(-4.083 -4.49)"/>
        <path id="Path_136173" data-name="Path 136173" d="M20.027,18.89v1.916a1.446,1.446,0,0,1-2.887,0V18.89Z" transform="translate(-5.412 -5.965)" fill="#ac1f23"/>
        <path id="Path_136174" data-name="Path 136174" d="M17.118,18.868h2.931v1.938a1.468,1.468,0,0,1-2.931,0Zm2.887.044H17.162v1.894a1.424,1.424,0,0,0,2.844,0Z" transform="translate(-5.412 -5.965)"/>
        <path id="Path_136175" data-name="Path 136175" d="M18.671,21.914l-.1-.027v-.26l.1-.027v.315Zm.1,0,.1-.027v-.26l-.1-.027v.315Zm-.116.465a.063.063,0,0,1,.068-.062.068.068,0,0,1,.068.062.063.063,0,0,1-.068.062.068.068,0,0,1-.068-.062Zm.7-1.307-.027.1h-.274l-.027-.1Zm-1.266,0,.027.1h.274l.027-.1Zm1.2.52.055-.082-.178-.2-.1.041.219.239Zm-.075.062-.1.041-.178-.2.055-.082.219.239Zm.13.561a.964.964,0,0,1-.287.151l.075.068a1.134,1.134,0,0,0,.239-.123l-.027-.1Zm-.048-.082a.888.888,0,0,1-.287.151l-.021-.1a.723.723,0,0,0,.239-.123l.068.068Zm.328-.821-.1.021s-.007.164-.007.13a1.254,1.254,0,0,0-.014.13l.1.034a1.222,1.222,0,0,0,.014-.157v-.157Zm.089.322.1-.021.014-.253-.1-.034v.144a1.328,1.328,0,0,1-.014.164Zm-.123.267a.073.073,0,0,0-.1-.007.058.058,0,0,0-.007.089.073.073,0,0,0,.1.007.064.064,0,0,0,.007-.089Zm-.369.281.048.082a.951.951,0,0,0,.219-.185.174.174,0,0,0,.151-.027.138.138,0,0,0,.021-.205l-.007-.007a.811.811,0,0,0,.075-.287h-.1a.725.725,0,0,1-.062.246.333.333,0,0,0-.082.007l-.246-.274-.075.062.246.274a.134.134,0,0,0,.007.164,1.082,1.082,0,0,1-.2.151Zm-1.081-.588-.055-.082.178-.2.1.041-.219.239Zm.075.062.1.041.178-.2-.055-.082-.219.239Zm-.13.561a.964.964,0,0,0,.287.151l-.075.068a1.134,1.134,0,0,1-.239-.123l.027-.1Zm.048-.082a.888.888,0,0,0,.287.151l.021-.1a.723.723,0,0,1-.239-.123l-.068.068Zm-.328-.821.1.021a.793.793,0,0,1,0,.13,1.254,1.254,0,0,1,.014.13l-.1.034a.613.613,0,0,1-.014-.157v-.157Zm-.082.322-.1-.021-.014-.253.1-.034v.144a.446.446,0,0,0,.014.164Zm.123.267a.073.073,0,0,1,.1-.007.058.058,0,0,1,.007.089.073.073,0,0,1-.1.007.058.058,0,0,1-.007-.089Zm.363.281-.048.082a.951.951,0,0,1-.219-.185.17.17,0,0,1-.151-.027.133.133,0,0,1-.014-.205l.007-.007a.811.811,0,0,1-.075-.287h.1a.725.725,0,0,0,.062.246.168.168,0,0,1,.082.007l.246-.274.075.062-.246.274a.134.134,0,0,1-.007.164,1.323,1.323,0,0,0,.192.151Zm.657.137a1.151,1.151,0,0,0,.219-.062l.048.082a1.134,1.134,0,0,1-.26.075.156.156,0,0,1-.3,0,.958.958,0,0,1-.274-.075l.048-.082a.9.9,0,0,0,.233.062.15.15,0,0,1,.089-.082v-.4h.1v.4a.16.16,0,0,1,.1.082Zm.4-1.321v.075h.267a.139.139,0,0,0,.1.089v.233h.1v-.233a.154.154,0,0,0,.109-.144V20.99h-.1a.041.041,0,0,1,.007.027.063.063,0,0,1-.068.062.068.068,0,0,1-.068-.062c0-.014,0-.021.007-.027L19.266,21ZM19.1,21v.075h-.239c-.007.007-.007.021-.014.027l.274.315-.075.062-.274-.315c-.007,0-.007,0-.014.007v.52h-.1v-.52c-.007,0-.007,0-.014-.007l-.287.315-.075-.062.287-.315c-.007-.007-.007-.021-.014-.027h-.246V21Zm-1.293,0a.041.041,0,0,1,.007.027.069.069,0,0,1-.137,0c0-.014,0-.021.007-.027h-.1v.027a.154.154,0,0,0,.109.144V21.4h.1v-.233a.139.139,0,0,0,.1-.089h.267V21Z" transform="translate(-5.554 -6.628)" fill="#c8b32f"/>
        <path id="Path_136176" data-name="Path 136176" d="M18.77,19.684l.1.027v.26l-.1.027v-.315Zm-.1,0-.1.027v.26l.1.027v-.315Zm.356-.3.027-.1h.274l.027.1Zm0,.089.027.1h.274l.027-.1Zm-.376-.048a.063.063,0,0,1,.068-.062.068.068,0,0,1,.068.062.063.063,0,0,1-.068.062.059.059,0,0,1-.068-.062Zm.965,0a.063.063,0,0,1,.068-.062.068.068,0,0,1,.068.062.063.063,0,0,1-.068.062.059.059,0,0,1-.068-.062Zm-.26,1.02-.027-.1h-.274l-.027.1Zm-.937-1.061-.027-.1h-.274l-.027.1Zm0,.089-.027.1h-.274l-.027-.1Zm-.725-.048a.063.063,0,0,1,.068-.062.068.068,0,0,1,.068.062.063.063,0,0,1-.068.062.059.059,0,0,1-.068-.062Zm.4,1.02.027-.1h.274l.027.1ZM19.3,19.9l.062.082-.171.2-.1-.041L19.3,19.9Zm-.075-.062-.1-.041-.171.2.062.082.205-.239Zm-1.1.068-.055.082.178.2.1-.041-.219-.239Zm.075-.055.1-.041.178.2-.055.082-.219-.239Zm1.526-.055.1.027v.253l-.1.027V19.8Zm-.1,0-.1.027v.253l.1.027V19.8Zm-1.82,0,.1.027v.253l-.1.034V19.8Zm-.1,0-.1.027v.253l.1.027V19.8Zm1.061-.233v.192h-.1v-.192a.145.145,0,0,1-.1-.1h-.239v-.089h.239a.162.162,0,0,1,.3,0h.239v.089h-.239a.175.175,0,0,1-.1.1Zm.958,0v.315h-.1v-.315c-.007,0-.014-.007-.021-.007l-.363.4-.075-.055.369-.417c0-.007-.007-.014-.007-.021H19.27v-.089h.267a.157.157,0,0,1,.151-.1.153.153,0,0,1,.157.151.17.17,0,0,1-.116.137Zm-1.909,0,.363.4.075-.062-.363-.4c.007-.014.014-.021.014-.034h.267v-.089h-.267a.157.157,0,0,0-.151-.1.153.153,0,0,0-.157.151.148.148,0,0,0,.1.144v.315h.1v-.322Zm1.8.889a.073.073,0,0,1,.123,0h.1a.149.149,0,0,0-.109-.109v-.315h-.1v.315a.159.159,0,0,0-.1.1h-.26v.014Zm-1.293,0v-.014h.246c0-.007.007-.014.014-.021l-.3-.335.075-.062.294.328c.007,0,.007-.007.014-.007v-.438h.1v.438c.007,0,.014,0,.014.007l.287-.328.075.062-.294.328a.116.116,0,0,1,.014.034H19.1v.007Zm-.725,0a.149.149,0,0,1,.109-.109v-.315h.1v.315a.159.159,0,0,1,.1.1h.26v.014h-.356a.073.073,0,0,0-.123,0Z" transform="translate(-5.558 -6.088)" fill="#c8b32f"/>
        <path id="Path_136177" data-name="Path 136177" d="M18.719,22a.16.16,0,0,1-.16-.118,1.077,1.077,0,0,1-.189-.043l-.073.066-.006,0a1.146,1.146,0,0,1-.242-.124l-.007,0,.028-.1a1.078,1.078,0,0,1-.135-.126.183.183,0,0,1-.154-.031.151.151,0,0,1-.06-.11.146.146,0,0,1,.045-.112h0a.852.852,0,0,1-.062-.194l-.1-.02-.015-.27.1-.032v-.144a.159.159,0,0,1,0-.3v-.212l-.1-.026v-.277l.1-.026v-.212a.16.16,0,0,1-.1-.151.165.165,0,0,1,.168-.161.167.167,0,0,1,.158.1h.162l.027-.1h.29l.027.1h.142a.173.173,0,0,1,.316,0h.135l.027-.1h.29l.027.1h.169a.167.167,0,0,1,.158-.1.165.165,0,0,1,.168.161.18.18,0,0,1-.116.145v.217l.1.027V20.1l-.1.027v.21a.159.159,0,0,1,0,.3v.142l.1.034-.015.27-.1.02a.851.851,0,0,1-.062.194h0a.15.15,0,0,1,.039.113.157.157,0,0,1-.061.109.187.187,0,0,1-.154.031,1.078,1.078,0,0,1-.135.126l.028.1-.007,0a1.146,1.146,0,0,1-.242.124l-.006,0-.074-.067a1.082,1.082,0,0,1-.174.044A.16.16,0,0,1,18.719,22Zm-.33-.178a1.1,1.1,0,0,0,.181.04h.008l0,.008a.145.145,0,0,0,.28,0l0-.007h.008a1.044,1.044,0,0,0,.166-.041h0l.017-.007.063-.023-.037-.063-.026.01-.041.014-.012,0h0a1.24,1.24,0,0,1-.133.032l-.009,0,0-.008a.149.149,0,0,0-.1-.076l-.008,0v-.4h-.067v.085l-.007,0V21.7l-.007,0a.14.14,0,0,0-.083.077l0,.007h-.007a.658.658,0,0,1-.148-.032h0l-.012,0-.066-.024h0l-.037.063.063.023.018.006Zm.042-.088a.655.655,0,0,0,.138.031.158.158,0,0,1,.084-.078V21.38l-.1-.026v-.277l.089-.024v-.41h0l-.2.224.06.09-.189.211-.1-.041-.18.2a.144.144,0,0,1-.006.162c.033.03.068.06.1.087l.066-.066.008.006a.708.708,0,0,0,.236.121l.01,0Zm.34-.048a.173.173,0,0,1,.1.078,1.214,1.214,0,0,0,.124-.03l-.02-.1.01,0a.708.708,0,0,0,.236-.121l.008-.006.069.069c.038-.028.073-.059.107-.09a.144.144,0,0,1-.006-.162l-.182-.2-.1.043-.189-.211.05-.075-.21-.241h0v.4l.116.031v.277l-.109.029Zm-.828-.162,0,.005a.954.954,0,0,0,.207.177l.034-.059a.668.668,0,0,1-.065-.048l-.009-.008,0,0c-.038-.029-.074-.062-.109-.093L18,21.491l.007-.008a.122.122,0,0,0,.006-.151l-.005-.007.245-.272-.058-.047-.058.064h0l-.186.207-.006,0a.322.322,0,0,0-.079-.007h-.007l0-.006a.736.736,0,0,1-.062-.24h-.074v.011a.582.582,0,0,0,.012.058l0,.017h0a.835.835,0,0,0,.062.188l0,.007-.012.012a.125.125,0,0,0-.039.1.13.13,0,0,0,.052.094.162.162,0,0,0,.141.025Zm1.293.123.034.059a.954.954,0,0,0,.207-.177l0-.005.007,0a.165.165,0,0,0,.141-.026.135.135,0,0,0,.052-.093.128.128,0,0,0-.033-.1l-.012-.012,0-.007A.833.833,0,0,0,19.7,21.1l0-.011c0-.023.006-.047.008-.07h-.069a.736.736,0,0,1-.062.24l0,.008-.009,0a.166.166,0,0,0-.077.007l-.006,0-.19-.211,0,0-.055-.06-.054.044.245.272-.005.007a.122.122,0,0,0,.006.151l.007.008-.008.007c-.036.032-.074.066-.114.1h0l-.01.007A.667.667,0,0,1,19.236,21.649Zm-1.365-.4a.339.339,0,0,1,.071.006l.181-.2-.054-.082.189-.211.088.038.223-.238,0-.009,0-.006h-.143l-.027.1H18.1l-.029-.1H17.9a.167.167,0,0,1-.092.086v.139l.109.022v.009c0,.019,0,.114,0,.134s.011.126.011.126v.009l-.106.035A.692.692,0,0,0,17.871,21.247Zm1.433-.2.185.206a.19.19,0,0,1,.072-.007.691.691,0,0,0,.045-.146l-.119-.04v-.009a.871.871,0,0,1,.015-.141c0-.026,0-.081.005-.118v-.009l.1-.019v0h.014v-.138a.151.151,0,0,1-.093-.086h-.167l-.029.1h-.29l-.025-.089h-.152l0,.006,0,.009.207.238.1-.045.189.211Zm-.622.1h.06v-.52h.011a.016.016,0,0,1,.014-.007h0l.215.247,0-.007.059.064.05-.041-.273-.314.007-.007a.03.03,0,0,0,0-.009.043.043,0,0,1,.009-.018l0,0h.156l0-.007h.079v-.06h-.239V20.45a.035.035,0,0,0-.007-.019l-.006-.01,0-.007.292-.325-.055-.045-.046.054,0,0-.253.29v-.025h-.014V19.92h-.074v.438h-.011a.015.015,0,0,1-.014.007h0l-.291-.324-.052.043.059.062-.009,0,.245.273-.007.007s-.01.01-.01.013v.01h-.245v.067h.24l0,0a.043.043,0,0,1,.009.018.03.03,0,0,0,0,.009l.007.007-.23.246.008,0-.071.077.051.042.288-.316.008.008,0,0h.011l0,.01v.414l.014,0Zm.958-.306.074.011V20.62l.007,0a.138.138,0,0,0,0-.267l-.007,0v-.312H19.64v.312l-.008,0a.147.147,0,0,0-.1.09l0,.007h-.173l0,.007h-.086v.06h.264l0,.007a.129.129,0,0,0,.088.082l.008,0Zm-1.923-.067v.077l.067-.01v-.231l.007,0a.142.142,0,0,0,.089-.082l0-.007h.264v-.06h-.079l0-.007h-.179l0-.007a.147.147,0,0,0-.1-.09l-.008,0v-.312h-.067v.092l-.007,0v.221l-.007,0a.138.138,0,0,0,0,.267l.007,0v.152Zm1.148-.331h.144l.029-.1h.29l.025.089h.165a.169.169,0,0,1,.1-.093v-.208l-.109-.029v-.277l.109-.029v-.214l-.006,0-.3.331.061.082-.182.211-.1-.044-.237.265,0,0A.07.07,0,0,1,18.865,20.439Zm-.446-.007h.141a.048.048,0,0,1,.007-.01l-.236-.263-.087.037-.189-.2.055-.082-.3-.333h0v.212l.109.029V20.1l-.109.029v.208a.169.169,0,0,1,.1.093h.171l.025-.089h.29Zm.01-.342.224.25h0V20l-.1-.027V19.7l.109-.029v-.091a.155.155,0,0,1-.1-.093h-.141l-.027.1H18.1l-.027-.1h-.16a.07.07,0,0,1-.009.019l0,0,.3.331.1-.041.189.211Zm.342.247h0l.23-.262L18.944,20l.182-.211.1.041.305-.339v0l0,0h-.168l-.027.1h-.29l-.027-.1h-.135a.189.189,0,0,1-.1.093v.093l.1.027v.277L18.771,20Zm-.645-.441.055.058.057-.046-.36-.4,0-.007.006-.01a.035.035,0,0,0,.007-.019v-.011h.267v-.067H17.9l0-.007a.145.145,0,0,0-.14-.1.143.143,0,0,0-.146.14.136.136,0,0,0,.1.133l.007,0v.221l.007,0v.092h.067v-.322h.036l.3.336h0Zm1.061.006.057.047.056-.064h0l.3-.336h0a.034.034,0,0,1,.015,0l.005,0h.01v.314h.074V19.56l.007,0a.158.158,0,0,0,.109-.128.143.143,0,0,0-.147-.138.145.145,0,0,0-.14.1l0,.007h-.264v.067h.267v.011l0,.005a.034.034,0,0,1,0,.015v0Zm-.505-.154h.074V19.56l.007,0a.165.165,0,0,0,.1-.09l0-.007H19.1v-.067h-.236l0-.007a.151.151,0,0,0-.28,0l0,.007H18.34v.067h.237l0,.008a.133.133,0,0,0,.1.088l.008,0Z" transform="translate(-5.554 -6.088)" fill="#c8b32f"/>
        <path id="Path_136178" data-name="Path 136178" d="M19.01,20.971a.158.158,0,1,1,.157.151.149.149,0,0,1-.157-.151Z" transform="translate(-6.003 -6.574)" fill="#008f6f"/>
        <path id="Path_136179" data-name="Path 136179" d="M19.056,15.277v-.034l.007-.021a.569.569,0,0,1-.144-.007.428.428,0,0,1-.137-.068c-.048-.041-.062-.062-.1-.068a.225.225,0,0,0-.137.021.236.236,0,0,1,.1.075.262.262,0,0,0,.109.089c.034.007.151,0,.185.007s.109.007.109.007Z" transform="translate(-5.858 -4.76)" fill="#da4546"/>
        <path id="Path_136180" data-name="Path 136180" d="M19.073,15.295l-.018,0s-.068-.007-.108-.007-.152,0-.188-.007a.273.273,0,0,1-.119-.1.222.222,0,0,0-.095-.07L18.51,15.1l.032-.018a.242.242,0,0,1,.108-.026.22.22,0,0,1,.039,0,.145.145,0,0,1,.074.046l.03.027a.41.41,0,0,0,.131.065.343.343,0,0,0,.085.008l.053,0,.024,0-.014.041Zm-.12-.041c.026,0,.065,0,.087,0V15.24h-.031a.367.367,0,0,1-.094-.009.442.442,0,0,1-.142-.071l-.032-.028a.117.117,0,0,0-.058-.038.205.205,0,0,0-.092.006.243.243,0,0,1,.074.064.249.249,0,0,0,.1.083.753.753,0,0,0,.087,0,.653.653,0,0,1,.1,0Z" transform="translate(-5.858 -4.76)"/>
        <path id="Path_136181" data-name="Path 136181" d="M19.255,15.069a.57.57,0,0,0,.007.082c.007.041-.014.068-.007.089s.007.041.014.055a.308.308,0,0,1,.014.055.3.3,0,0,1-.041-.034.247.247,0,0,1-.034-.027.531.531,0,0,1,.007.062.145.145,0,0,0,.027.068.727.727,0,0,1,.062.075.579.579,0,0,1,.007.089s-.027-.041-.048-.048-.075-.034-.075-.034a.166.166,0,0,1,.048.089.271.271,0,0,1-.021.089.2.2,0,0,0-.048-.062c-.027-.027-.062-.055-.062-.055a.4.4,0,0,1,.027.109c0,.048-.007.144-.007.144a.221.221,0,0,0-.048-.055c-.021-.021-.048-.034-.062-.048a.166.166,0,0,1,.034.068.677.677,0,0,0,.109.267c.055.075.137.219.315.171s.109-.287.075-.4a1.216,1.216,0,0,1-.055-.281c0-.041.034-.171.027-.192a.465.465,0,0,1,.007-.192.6.6,0,0,1,.055-.137.52.52,0,0,0,.027-.075.467.467,0,0,0,.007-.082.89.89,0,0,1,.041.082.491.491,0,0,1,.007.089.149.149,0,0,1,.055-.1.931.931,0,0,0,.123-.082.2.2,0,0,1,.021-.027.433.433,0,0,1-.034.151c-.021.027-.1.123-.1.123a.278.278,0,0,1,.068-.014h.048a.494.494,0,0,0-.082.1c-.048.068-.027.075-.062.13s-.062.055-.1.089c-.062.048-.027.246-.021.281a2.369,2.369,0,0,1,.116.335.315.315,0,0,1-.089.274.61.61,0,0,1-.2.068.175.175,0,0,0-.075.164.138.138,0,0,0,.068.144c.027.027.068.014.075.034a.063.063,0,0,0,.027.041.042.042,0,0,1,.014.048,1.079,1.079,0,0,0-.068.109,1.163,1.163,0,0,0-.048.144c0,.014-.007.055.014.075,0,0,.055.062.014.075-.021.007-.041-.014-.055-.014-.034.007-.048.027-.055.027S19.3,17.2,19.3,17.17s0-.041-.007-.041-.021.014-.021.027,0,.055-.014.055-.034-.027-.048-.034-.048-.014-.048-.027a.079.079,0,0,1,.041-.055c.021-.007.041-.014.027-.027a.026.026,0,0,0-.041,0c-.014.014-.048,0-.041-.014a.386.386,0,0,1,.007-.048c0-.007-.027-.027.007-.048s.048.014.082.007a.1.1,0,0,0,.062-.034.075.075,0,0,0-.014-.089c-.021-.027-.048-.027-.055-.048s-.021-.055-.021-.055a.325.325,0,0,1,0,.082c-.007.007,0,.048,0,.048a.526.526,0,0,0-.041-.048.212.212,0,0,1-.034-.075v.075c0,.021.027.041.014.048s-.048-.041-.062-.048a.259.259,0,0,1-.055-.062.284.284,0,0,1-.027-.082A.2.2,0,0,1,19,16.588a.337.337,0,0,0,.027-.062h-.082c-.041,0-.075-.014-.089.014a.291.291,0,0,0,.014.164c.021.075.034.116.027.13s-.034.048-.041.048a.076.076,0,0,1-.055,0,.16.16,0,0,0-.075-.014h-.075a.2.2,0,0,0-.068-.021c-.014.007-.048.021-.034.041s-.014.041-.027.041a.308.308,0,0,1-.055-.014c-.021-.007-.055,0-.048-.027a.228.228,0,0,1,.021-.041c.007-.021.014-.027,0-.027a.087.087,0,0,0-.041.007c-.014.007-.027.027-.041.021a.066.066,0,0,1-.027-.062c0-.034-.041-.068,0-.068s.082.027.089.007.007-.027-.014-.041-.041-.027-.021-.041.034-.021.041-.034.021-.048.041-.034,0,.041.034.082a.107.107,0,0,0,.116.048c.062-.007.075-.014.075-.034s-.007-.048-.007-.062.007-.055.007-.055a.076.076,0,0,0-.034.034c-.014,0-.034.027-.034.027a.378.378,0,0,1-.007-.062.386.386,0,0,1,.007-.048.31.31,0,0,0-.014-.055.308.308,0,0,1-.014.055.236.236,0,0,0-.007.062.091.091,0,0,1-.027-.089c.007-.041-.007-.1.007-.116s.041-.1.116-.1h.157a.95.95,0,0,0,.116-.021s-.171-.089-.205-.116a.481.481,0,0,1-.116-.123.3.3,0,0,1-.034-.089.183.183,0,0,0-.062.014.3.3,0,0,0-.068.055.464.464,0,0,0-.041.062s.007-.055.007-.068a.386.386,0,0,0-.007-.048.247.247,0,0,1-.055.1.64.64,0,0,0-.082.068s.007-.041.007-.048S18.31,16,18.31,16a.119.119,0,0,1-.068.048c-.041.007-.1.007-.109.034s.014.062,0,.082-.034.027-.034.027a.076.076,0,0,0-.048-.021.149.149,0,0,0-.041.007s-.021-.021-.014-.041.041-.041.027-.048-.034,0-.048.014-.048.014-.048-.014.014-.041,0-.062,0-.027.014-.034.062,0,.068-.014-.014-.027-.048-.034-.048-.027-.034-.048l.034-.034c.007-.014.014-.041.041-.027s.027.048.055.055a.227.227,0,0,0,.123-.014,1.013,1.013,0,0,1,.089-.055.632.632,0,0,0,.089-.062.521.521,0,0,1-.062-.048.523.523,0,0,0-.062-.062.513.513,0,0,0-.109-.034.424.424,0,0,1-.1-.027l.048-.021c.014-.007.034-.034.048-.027h.014a.393.393,0,0,1-.082-.007.253.253,0,0,0-.075-.034.386.386,0,0,0-.048.007.248.248,0,0,1,.082-.034.349.349,0,0,1,.062-.007s-.055-.014-.068-.034a.617.617,0,0,1-.034-.062c-.007-.014-.014-.034-.034-.034s-.048.021-.068.021-.034-.014-.034-.041,0-.014-.007-.034-.034-.048-.007-.055.075.007.082-.007-.027-.034-.048-.048-.055-.027-.034-.041a.29.29,0,0,0,.048-.034c.014-.014.021-.055.041-.041s.048.075.068.068.021-.048.014-.068,0-.048.014-.048.027.027.055.027.062-.007.062.014-.021.041-.034.062a.084.084,0,0,0-.014.089.2.2,0,0,0,.068.082.69.69,0,0,1,.1.048.959.959,0,0,0,.123.082.456.456,0,0,1,.048.021.152.152,0,0,1,.062-.014.608.608,0,0,0,.157-.007c.034-.014.075-.034.062-.068s-.082-.055-.075-.075.034-.027.075-.027.1.007.116-.055.014-.1-.048-.109-.109-.014-.116-.062-.021-.055-.007-.068.034-.021.082-.021a.906.906,0,0,0,.109-.014c.014-.014.021-.041.034-.055a.309.309,0,0,1,.089-.021,1.274,1.274,0,0,1,.157.1,1.111,1.111,0,0,1,.137.137Z" transform="translate(-5.625 -4.683)" fill="#eb71a9"/>
        <path id="Path_136182" data-name="Path 136182" d="M19.316,17.227h-.005a.038.038,0,0,1-.03-.028c0,.016-.011.029-.027.029a.067.067,0,0,1-.04-.023.1.1,0,0,0-.015-.013l-.013-.005c-.02-.007-.044-.015-.044-.037a.1.1,0,0,1,.035-.061.049.049,0,0,1-.046-.018.025.025,0,0,1,0-.02.2.2,0,0,1,.005-.036.08.08,0,0,0,0-.009.035.035,0,0,1-.009-.033.048.048,0,0,1,.024-.029.063.063,0,0,1,.06,0,.042.042,0,0,0,.027.006.089.089,0,0,0,.053-.03.06.06,0,0,0-.014-.066.087.087,0,0,0-.029-.024.1.1,0,0,1-.017-.012.039.039,0,0,1,0,.011l0,0s0,.018,0,.034l-.029.012a.515.515,0,0,0-.04-.046l0-.005.007.012a.038.038,0,0,1,.008.03.022.022,0,0,1-.009.012l0,0H19.15c-.012,0-.023-.01-.045-.031a.211.211,0,0,0-.022-.019l-.01-.008a.235.235,0,0,1-.052-.061.317.317,0,0,1-.029-.086.2.2,0,0,1-.005-.1.235.235,0,0,0,.019-.038h-.059c-.02,0-.039,0-.055,0s-.017,0-.02.008a.287.287,0,0,0,.015.153l.01.036c.017.061.025.089.016.105,0,0-.027.046-.048.055h0a.091.091,0,0,1-.069,0,.143.143,0,0,0-.068-.012l-.083,0a.2.2,0,0,0-.058-.019c-.016.008-.023.013-.025.016a.046.046,0,0,1,0,.047.05.05,0,0,1-.041.019.113.113,0,0,1-.033-.007l-.025-.007-.017,0a.051.051,0,0,1-.039-.016.033.033,0,0,1,0-.028.147.147,0,0,1,.016-.033l.006-.011v0a.051.051,0,0,0-.02,0l-.011.008a.043.043,0,0,1-.045.013.081.081,0,0,1-.036-.076.082.082,0,0,0-.01-.031c-.006-.014-.013-.029,0-.041a.035.035,0,0,1,.031-.013.19.19,0,0,1,.047.009.149.149,0,0,0,.027.006c0-.011,0-.012-.008-.019s-.036-.024-.036-.043a.03.03,0,0,1,.016-.026l.021-.015c.01-.007.012-.008.014-.013l0,0,0-.006c.008-.014.02-.035.041-.035a.031.031,0,0,1,.017.006.04.04,0,0,1,.024.044.054.054,0,0,0,.013.041.091.091,0,0,0,.1.042c.061-.007.061-.013.061-.018a.262.262,0,0,0,0-.028.3.3,0,0,1,0-.033s0,0,0,0h-.011a.086.086,0,0,0-.021.021l-.022.029-.007-.036s0-.007,0-.017l-.026-.021a.107.107,0,0,1-.033-.105.309.309,0,0,0,0-.055c0-.032,0-.056.01-.069l0-.009a.144.144,0,0,1,.123-.091h.157a.5.5,0,0,0,.069-.011,1.806,1.806,0,0,1-.168-.1.5.5,0,0,1-.121-.129.263.263,0,0,1-.032-.079.184.184,0,0,0-.043.011.29.29,0,0,0-.063.051.421.421,0,0,0-.038.058l-.03-.01c0-.012,0-.028,0-.042a.141.141,0,0,1-.033.043.636.636,0,0,0-.081.067l-.036.036.008-.05s.006-.038.007-.045,0-.005,0-.009a.105.105,0,0,1-.043.019l-.029,0c-.021,0-.064.008-.067.018a.085.085,0,0,0,0,.033.072.072,0,0,1,0,.055c-.008.024-.04.033-.044.034l-.009,0-.007-.006a.06.06,0,0,0-.036-.016.133.133,0,0,0-.036.006l-.01,0L18,16.189a.061.061,0,0,1-.018-.058A.1.1,0,0,1,18,16.109l0,0a.05.05,0,0,0-.013.009.051.051,0,0,1-.062,0,.038.038,0,0,1-.013-.03.127.127,0,0,1,0-.029c0-.012,0-.016,0-.023-.013-.037,0-.05.02-.058a.236.236,0,0,1,.055-.007.1.1,0,0,0-.031-.01.063.063,0,0,1-.05-.033.041.041,0,0,1,.005-.04l.036-.038c.005-.012.015-.035.04-.035a.047.047,0,0,1,.021.005.082.082,0,0,1,.033.034c.007.011.011.017.018.019a.071.071,0,0,0,.026,0,.273.273,0,0,0,.085-.017l.026-.017a.36.36,0,0,1,.065-.039.439.439,0,0,0,.067-.045.409.409,0,0,1-.046-.037l-.017-.018a.333.333,0,0,0-.041-.041.518.518,0,0,0-.1-.032.414.414,0,0,1-.1-.029l-.038-.015.038-.015.047-.02h0a.056.056,0,0,1-.021,0l-.014-.008a.186.186,0,0,0-.054-.025.35.35,0,0,0-.045.007l-.012-.03a.263.263,0,0,1,.088-.037A.061.061,0,0,1,18,15.441a.635.635,0,0,1-.035-.063l0-.006c-.007-.015-.01-.02-.017-.02a.089.089,0,0,0-.028.009.108.108,0,0,1-.041.012.051.051,0,0,1-.051-.057c0-.009,0-.013,0-.015a.068.068,0,0,1-.006-.014l0-.006c-.009-.015-.021-.035-.014-.053a.03.03,0,0,1,.022-.018.177.177,0,0,1,.047,0h.013a.289.289,0,0,0-.032-.024l-.013-.008c-.018-.01-.035-.02-.035-.037a.026.026,0,0,1,.014-.023l.016-.01a.161.161,0,0,0,.03-.022.076.076,0,0,0,.009-.016c.007-.015.017-.033.036-.033a.03.03,0,0,1,.017.005.145.145,0,0,1,.031.035.2.2,0,0,0,.023.029.082.082,0,0,0,0-.046A.068.068,0,0,1,17.986,15a.028.028,0,0,1,.023-.013.045.045,0,0,1,.028.014.043.043,0,0,0,.026.013H18.1c.037,0,.044.017.044.031a.1.1,0,0,1-.026.056l-.011.015a.069.069,0,0,0-.013.073.186.186,0,0,0,.061.075l.033.014a.322.322,0,0,1,.072.035.924.924,0,0,0,.119.08.421.421,0,0,1,.043.018.171.171,0,0,1,.061-.012l.079,0a.232.232,0,0,0,.073-.007c.055-.022.057-.037.052-.047a.144.144,0,0,0-.035-.029c-.025-.018-.048-.034-.041-.057s.054-.039.091-.039h.024c.042,0,.069-.007.076-.042a.136.136,0,0,0,0-.064c0-.009-.01-.019-.04-.026l-.029-.006c-.048-.009-.093-.018-.1-.069l-.007-.022c-.008-.027-.013-.042,0-.06a.123.123,0,0,1,.094-.025l.056-.006a.353.353,0,0,0,.044-.005.124.124,0,0,0,.012-.021.119.119,0,0,1,.02-.032.281.281,0,0,1,.1-.025h0l0,0a1.278,1.278,0,0,1,.16.1,1.118,1.118,0,0,1,.14.14l0,0v.006a.558.558,0,0,0,.007.079.148.148,0,0,1,0,.062.056.056,0,0,0,0,.024.211.211,0,0,1,.007.03.1.1,0,0,0,.006.023.3.3,0,0,1,.015.059l.006.037-.031-.021a.318.318,0,0,1-.044-.036h0c0,.008,0,.017,0,.023a.129.129,0,0,0,.025.059.225.225,0,0,0,.022.026.234.234,0,0,1,.04.051.553.553,0,0,1,.009.1v.054l-.03-.045a.131.131,0,0,0-.039-.041l-.019-.008a.1.1,0,0,1,.013.047.285.285,0,0,1-.022.1l-.014.032-.016-.031a.189.189,0,0,0-.043-.056l-.018-.017a.242.242,0,0,1,.01.059c0,.048-.007.141-.007.145l0,.051-.027-.044a.206.206,0,0,0-.044-.05l0,0,0,.008,0,.014a.646.646,0,0,0,.1.247l.014.02a.28.28,0,0,0,.219.154.247.247,0,0,0,.064-.009.127.127,0,0,0,.084-.062.477.477,0,0,0-.02-.314,1.241,1.241,0,0,1-.055-.285.678.678,0,0,1,.015-.1.551.551,0,0,0,.013-.09.477.477,0,0,1,.007-.2.586.586,0,0,1,.05-.128l.013-.03a.344.344,0,0,0,.019-.053.455.455,0,0,0,.006-.078V14.8l.031.055a.85.85,0,0,1,.042.085.108.108,0,0,1,0,.019.137.137,0,0,1,.033-.034c.02-.015.043-.028.063-.04a.252.252,0,0,0,.056-.038.214.214,0,0,1,.023-.03l.03-.03,0,.043a.426.426,0,0,1-.037.159c-.013.017-.046.056-.071.086l.023,0h.094l-.036.029a.49.49,0,0,0-.079.092.2.2,0,0,0-.035.071.2.2,0,0,1-.026.059.186.186,0,0,1-.07.068.3.3,0,0,0-.036.025c-.043.034-.033.177-.015.265,0,.006.013.036.026.067a1.237,1.237,0,0,1,.091.272v.019a.311.311,0,0,1-.1.267.364.364,0,0,1-.162.06.206.206,0,0,0-.038.009c-.009,0-.068.037-.068.151,0,.084.023.1.051.122l.011.009a.068.068,0,0,0,.04.017c.015,0,.035.006.041.025s.012.028.019.032l0,0a.059.059,0,0,1,.018.065.182.182,0,0,1-.027.042.282.282,0,0,0-.042.068,1.317,1.317,0,0,0-.047.139s0,.005,0,.009,0,.042.009.054.04.047.032.077a.036.036,0,0,1-.025.025.067.067,0,0,1-.049-.008l-.012,0a.088.088,0,0,0-.035.018A.032.032,0,0,1,19.316,17.227Zm-.027-.115c.023,0,.023.024.023.057a.088.088,0,0,0,0,.022s0,0,0,0a.118.118,0,0,1,.051-.025.058.058,0,0,1,.029.008.054.054,0,0,0,.02.007l.008,0c0-.008-.011-.031-.025-.046a.1.1,0,0,1-.018-.078v-.008a1.13,1.13,0,0,1,.049-.15.3.3,0,0,1,.046-.076.2.2,0,0,0,.022-.033.025.025,0,0,0-.008-.03.082.082,0,0,1-.033-.049l-.016,0a.1.1,0,0,1-.056-.024l-.009-.007c-.031-.024-.064-.048-.064-.148a.192.192,0,0,1,.084-.179.158.158,0,0,1,.048-.013.338.338,0,0,0,.147-.054.279.279,0,0,0,.083-.241v-.02a1.406,1.406,0,0,0-.088-.26c-.017-.041-.025-.063-.028-.072-.005-.025-.046-.241.026-.3a.325.325,0,0,1,.039-.027.155.155,0,0,0,.06-.057.173.173,0,0,0,.022-.05.234.234,0,0,1,.04-.08.687.687,0,0,1,.056-.07H19.8a.264.264,0,0,0-.063.013l-.056.019.038-.045s.082-.1.1-.122a.259.259,0,0,0,.025-.089.475.475,0,0,1-.052.033c-.02.012-.041.024-.061.038a.134.134,0,0,0-.048.084l-.032,0a.445.445,0,0,0-.006-.084.263.263,0,0,0-.012-.027.2.2,0,0,1,0,.026.373.373,0,0,1-.02.058l-.015.033a.557.557,0,0,0-.048.122.454.454,0,0,0-.007.182.3.3,0,0,1-.012.106.691.691,0,0,0-.014.091,1.2,1.2,0,0,0,.054.276.475.475,0,0,1,.017.339.16.16,0,0,1-.1.078.28.28,0,0,1-.073.01.311.311,0,0,1-.246-.168l-.014-.02a.677.677,0,0,1-.109-.259l0-.013a.2.2,0,0,0-.028-.059h0l0,0,0-.008.009-.018h.009c.009,0,.014.007.018.013l.017.011a.272.272,0,0,1,.039.031.161.161,0,0,1,.023.021c0-.031,0-.073,0-.1a.385.385,0,0,0-.026-.1l-.023-.057.048.039s.035.028.063.056a.156.156,0,0,1,.032.035.2.2,0,0,0,.008-.051.146.146,0,0,0-.043-.077l.019-.026c.015.007.057.028.073.033a.073.073,0,0,1,.025.016.33.33,0,0,0,0-.039.277.277,0,0,0-.033-.039.251.251,0,0,1-.026-.03.164.164,0,0,1-.03-.077.518.518,0,0,0-.007-.059l-.008-.05.036.036a.234.234,0,0,0,.032.025l.006.006,0-.005a.116.116,0,0,1-.009-.032.181.181,0,0,0-.006-.025.075.075,0,0,1,0-.042.119.119,0,0,0,0-.049.581.581,0,0,1-.007-.079,1.1,1.1,0,0,0-.131-.13,1.264,1.264,0,0,0-.15-.092.263.263,0,0,0-.077.017.161.161,0,0,0-.012.021.119.119,0,0,1-.02.032l0,0a.188.188,0,0,1-.058.009l-.056.006c-.048,0-.063.006-.073.016s0,.017,0,.027l.008.025c0,.028.023.034.074.044l.03.006a.076.076,0,0,1,.064.048.157.157,0,0,1,0,.081.1.1,0,0,1-.108.068H18.7c-.036,0-.056.006-.06.016l.029.02a.141.141,0,0,1,.046.043c.022.054-.045.081-.07.091a.249.249,0,0,1-.085.01l-.079,0a.137.137,0,0,0-.054.012l-.007,0-.007,0a.442.442,0,0,0-.046-.02.976.976,0,0,1-.128-.085.3.3,0,0,0-.064-.031l-.036-.015a.214.214,0,0,1-.076-.089.1.1,0,0,1,.017-.108l.01-.014a.09.09,0,0,0,.02-.035h-.045a.073.073,0,0,1-.047-.021l-.006,0a.04.04,0,0,0,0,.025c.009.026,0,.076-.022.088l0,0h-.007c-.02,0-.036-.022-.052-.044a.146.146,0,0,0-.022-.027s0,.01-.005.015a.091.091,0,0,1-.015.024.19.19,0,0,1-.035.027l-.009.006.014.009.014.009c.02.013.054.039.056.057v.008l0,0c-.008.015-.027.015-.035.015l-.04,0-.017,0a.146.146,0,0,0,.012.022l.006.01,0,.012c0,.007,0,.01,0,.03s.013.025.018.025a.089.089,0,0,0,.028-.009.108.108,0,0,1,.041-.012.053.053,0,0,1,.046.038l0,0a.609.609,0,0,0,.033.06.136.136,0,0,0,.059.027l0,.032a.338.338,0,0,0-.058.007l-.01,0a.38.38,0,0,1,.042.022l.012.007a.2.2,0,0,0,.05,0h.025v.033h-.02a.1.1,0,0,0-.015.012.1.1,0,0,1-.019.014l-.01,0a.216.216,0,0,0,.051.012.505.505,0,0,1,.117.036.248.248,0,0,1,.05.048l.016.017a.509.509,0,0,0,.059.046l.019.012-.017.014a.573.573,0,0,1-.094.064.409.409,0,0,0-.057.035l-.03.019a.261.261,0,0,1-.137.014.062.062,0,0,1-.036-.033A.053.053,0,0,0,18,15.85l-.006,0s-.008.01-.01.015l-.006.011-.034.034a.007.007,0,0,0,0,.006s.01.011.026.014a.084.084,0,0,1,.059.032.028.028,0,0,1,0,.025c-.008.017-.031.018-.054.019l-.022,0-.007,0a.019.019,0,0,0,0,.01.052.052,0,0,1,0,.045.1.1,0,0,0,0,.022c0,.009.017.005.02,0a.078.078,0,0,1,.05-.021.03.03,0,0,1,.018.005l.006,0,0,.012c0,.014-.008.026-.021.041a.111.111,0,0,0-.011.014.022.022,0,0,0,.005.015.155.155,0,0,1,.035,0,.088.088,0,0,1,.051.018.028.028,0,0,0,.016-.014.051.051,0,0,0,0-.035.11.11,0,0,1,0-.046c.008-.032.052-.038.095-.043l.028,0a.1.1,0,0,0,.058-.041l.03.011s-.007.045-.007.053,0,0,0,0a.527.527,0,0,1,.05-.039.226.226,0,0,0,.048-.093h.032a.379.379,0,0,1,.007.051v0l.006-.007a.314.314,0,0,1,.073-.058A.2.2,0,0,1,18.6,15.9h.013l0,.013a.28.28,0,0,0,.031.083.472.472,0,0,0,.112.119c.028.022.157.091.2.115l.039.02-.043.01a.9.9,0,0,1-.12.021h-.157a.113.113,0,0,0-.095.074l-.008.014a.126.126,0,0,0,0,.047.321.321,0,0,1,0,.063.075.075,0,0,0,0,.033.062.062,0,0,1,0-.015.277.277,0,0,0,.012-.05l.032,0a.283.283,0,0,1,.015.06.424.424,0,0,0-.007.048.247.247,0,0,0,0,.027l.011-.007a.1.1,0,0,1,.039-.035l.029-.014-.005.032c0,.015-.007.043-.007.052a.262.262,0,0,0,0,.028.3.3,0,0,1,0,.033c0,.038-.034.044-.09.05a.121.121,0,0,1-.131-.054.086.086,0,0,1-.021-.062c0-.013,0-.013-.007-.016s-.012.012-.014.017l-.007.011a.062.062,0,0,1-.024.024l-.02.014a.17.17,0,0,0,.02.015.043.043,0,0,1,.02.06.028.028,0,0,1-.029.019.151.151,0,0,1-.036-.007.166.166,0,0,0-.039-.007l0,.008a.107.107,0,0,1,.013.044c0,.03.012.044.018.047l.01-.009a.09.09,0,0,1,.017-.012.1.1,0,0,1,.048-.009.024.024,0,0,1,.021.009.029.029,0,0,1,0,.028l0,.011-.008.015a.113.113,0,0,0-.012.026l.015,0,.023,0,.026.007c.021.006.034.006.038,0s0-.006,0-.014a.028.028,0,0,1,0-.023c.005-.019.027-.029.041-.036l.011,0a.207.207,0,0,1,.072.021h.072a.173.173,0,0,1,.083.015.087.087,0,0,0,.04,0l0,0a.192.192,0,0,0,.031-.039.367.367,0,0,0-.018-.082l-.01-.036a.312.312,0,0,1-.013-.176.049.049,0,0,1,.049-.026c.015,0,.034,0,.055,0h.1l-.007.021a.348.348,0,0,1-.029.065.234.234,0,0,0,.008.073l0,.007a.283.283,0,0,0,.026.075.209.209,0,0,0,.045.051l0,0a.151.151,0,0,1,.022.019.041.041,0,0,1,0-.005v-.075l.032,0a.187.187,0,0,0,.03.068l.012.012a.026.026,0,0,1,0-.009.373.373,0,0,0,0-.072l.032-.007c0,.011.014.042.02.053s.007.01.016.015a.112.112,0,0,1,.037.03.09.09,0,0,1,.014.108.121.121,0,0,1-.072.041.072.072,0,0,1-.047-.008c-.012-.005-.019-.008-.03,0s-.009.008-.009.008,0,.007,0,.01a.028.028,0,0,1,.006.016.082.082,0,0,1,0,.016.161.161,0,0,0,0,.032h0l.009,0c.028-.022.048-.021.068,0a.026.026,0,0,1,.009.025c0,.016-.023.023-.042.029a.067.067,0,0,0-.03.039.082.082,0,0,1,.022.006l.017.007a.11.11,0,0,1,.023.018l.013.011a.188.188,0,0,0,0-.035A.039.039,0,0,1,19.289,17.113Z" transform="translate(-5.625 -4.683)"/>
        <path id="Path_136183" data-name="Path 136183" d="M19.041,15.1a.116.116,0,0,0-.014-.034.024.024,0,0,0-.007-.014s.048,0,.048.014-.014.014-.021.021l-.007.014Z" transform="translate(-6.006 -4.752)"/>
        <path id="Path_136184" data-name="Path 136184" transform="translate(-6.006 -4.752)"/>
        <path id="Path_136185" data-name="Path 136185" d="M19.387,14.987l-.007-.027a.14.14,0,0,1,.062.014.17.17,0,0,1,.055.062c-.007.007-.034-.014-.048-.021h-.027c-.014,0-.021-.007-.021-.014v-.021l-.014.007Z" transform="translate(-6.12 -4.724)"/>
        <path id="Path_136186" data-name="Path 136186" transform="translate(-6.12 -4.724)"/>
        <path id="Path_136187" data-name="Path 136187" transform="translate(-6.249 -4.869)"/>
        <path id="Path_136188" data-name="Path 136188" d="M18.11,15.046a.105.105,0,0,0,.048.021h.048a.368.368,0,0,0,.007-.055.105.105,0,0,0-.075-.082s.021.041.007.062a.1.1,0,0,1-.034.055Z" transform="translate(-5.719 -4.714)" fill="#da4546"/>
        <path id="Path_136189" data-name="Path 136189" transform="translate(-5.719 -4.714)"/>
        <path id="Path_136190" data-name="Path 136190" d="M17.844,15.171a.1.1,0,0,0-.075-.041.151.151,0,0,0-.089.048.283.283,0,0,1,.068.007.086.086,0,0,1,.027.048.15.15,0,0,0,.041-.034.1.1,0,0,0,.027-.027Z" transform="translate(-5.583 -4.778)" fill="#da4546"/>
        <path id="Path_136191" data-name="Path 136191" transform="translate(-5.583 -4.778)"/>
        <path id="Path_136192" data-name="Path 136192" d="M17.789,15.45a.142.142,0,0,0-.068.034.114.114,0,0,0-.021.082s.027-.034.055-.034a.528.528,0,0,1,.068.007.212.212,0,0,1-.014-.048.111.111,0,0,0-.021-.041Z" transform="translate(-5.589 -4.879)" fill="#da4546"/>
        <path id="Path_136193" data-name="Path 136193" transform="translate(-5.589 -4.879)"/>
        <path id="Path_136194" data-name="Path 136194" d="M19.05,15.427l.021-.027.021.027Z" transform="translate(-6.015 -4.863)"/>
        <path id="Path_136195" data-name="Path 136195" transform="translate(-6.015 -4.863)"/>
        <path id="Path_136196" data-name="Path 136196" d="M19.12,15.427l.021-.027.027.027Z" transform="translate(-6.038 -4.863)"/>
        <path id="Path_136197" data-name="Path 136197" transform="translate(-6.038 -4.863)"/>
        <path id="Path_136198" data-name="Path 136198" d="M19.09,15.17l.048.014L19.1,15.2Z" transform="translate(-6.028 -4.79)"/>
        <path id="Path_136199" data-name="Path 136199" transform="translate(-6.028 -4.79)"/>
        <path id="Path_136200" data-name="Path 136200" d="M19.17,15.19l.041.007-.027.027Z" transform="translate(-6.053 -4.797)"/>
        <path id="Path_136201" data-name="Path 136201" transform="translate(-6.053 -4.797)"/>
        <path id="Path_136202" data-name="Path 136202" d="M19.187,16.2l-.017-.047s-.027-.075-.04-.1a.086.086,0,0,1-.009-.02l0,.006a.157.157,0,0,1-.062.048.149.149,0,0,0-.044.031l-.024.024v-.015a.2.2,0,0,1-.054.041l-.014.006c-.015.006-.03.012-.037,0s-.009-.017.1-.091c0-.022-.007-.052-.01-.067a.172.172,0,0,1,0-.041.191.191,0,0,1-.026.023.247.247,0,0,1-.109.05.159.159,0,0,0-.055.018l-.023-.022a.211.211,0,0,0,.032-.087v-.005a.047.047,0,0,0,0-.028c-.127.1-.139.091-.148.087l-.009,0v-.011c0-.018.029-.033.029-.033a.352.352,0,0,0,.064-.045l0,0h.007l.045-.024a.093.093,0,0,1,.011-.052.154.154,0,0,1-.036.007.11.11,0,0,1-.04-.009l-.04-.013a.091.091,0,0,0-.074.017l-.027.022v-.034a.131.131,0,0,1,.024-.071.125.125,0,0,1,.07-.047l.009.031a.1.1,0,0,0-.052.033.094.094,0,0,0-.012.023.109.109,0,0,1,.071,0l.041.013a.08.08,0,0,0,.03.007.329.329,0,0,0,.07-.019l.059-.022-.041.048a.111.111,0,0,0-.031.068l0,.021a.1.1,0,0,1,0,.053.179.179,0,0,1-.016.062l.025-.005a.218.218,0,0,0,.1-.045.36.36,0,0,0,.052-.052l.036-.043L19,15.927A.284.284,0,0,0,19,16a.671.671,0,0,1,.011.067.113.113,0,0,1,.03-.017.13.13,0,0,0,.046-.035c0-.007.013-.039.018-.057l.032,0a.221.221,0,0,0,.018.068c.008.015.019.043.028.066a.128.128,0,0,1,.023-.034.14.14,0,0,0,.036-.05.349.349,0,0,0-.007-.045l.031-.01.021.048-.012.005h0c0,.025-.035.062-.046.073a.178.178,0,0,0-.03.061Z" transform="translate(-5.87 -4.964)"/>
        <path id="Path_136203" data-name="Path 136203" d="M17.977,16.29a.083.083,0,0,0-.068-.021.118.118,0,0,0-.068.055.368.368,0,0,1,.055-.007.077.077,0,0,1,.034.027.1.1,0,0,0,.027-.027c.014,0,.021-.027.021-.027Z" transform="translate(-5.633 -5.137)" fill="#da4546"/>
        <path id="Path_136204" data-name="Path 136204" transform="translate(-5.633 -5.137)"/>
        <path id="Path_136205" data-name="Path 136205" d="M17.923,16.55a.089.089,0,0,0-.068.021.153.153,0,0,0-.034.075.068.068,0,0,1,.055-.021.135.135,0,0,1,.048.014.3.3,0,0,0,.007-.034.089.089,0,0,0-.007-.055Z" transform="translate(-5.627 -5.226)" fill="#da4546"/>
        <path id="Path_136206" data-name="Path 136206" transform="translate(-5.627 -5.226)"/>
        <path id="Path_136207" data-name="Path 136207" d="M18.09,16.78a.149.149,0,0,0,.021.075.109.109,0,0,0,.062.034.135.135,0,0,1-.014-.048c-.007-.021.021-.041.021-.041a.072.072,0,0,0-.041-.021Z" transform="translate(-5.712 -5.299)" fill="#da4546"/>
        <path id="Path_136208" data-name="Path 136208" transform="translate(-5.712 -5.299)"/>
        <path id="Path_136209" data-name="Path 136209" d="M18.641,17.354a.1.1,0,0,0-.068-.034.143.143,0,0,0-.082.041s.048-.007.062.014l.027.041s.021-.014.034-.021a.405.405,0,0,1,.027-.041Z" transform="translate(-5.839 -5.469)" fill="#da4546"/>
        <path id="Path_136210" data-name="Path 136210" transform="translate(-5.839 -5.469)"/>
        <path id="Path_136211" data-name="Path 136211" d="M18.479,17.61a.114.114,0,0,0-.082.021.12.12,0,0,0-.027.075s.034-.034.062-.034a.15.15,0,0,1,.062.021.243.243,0,0,1-.007-.048.139.139,0,0,0-.007-.034Z" transform="translate(-5.801 -5.56)" fill="#da4546"/>
        <path id="Path_136212" data-name="Path 136212" transform="translate(-5.801 -5.56)"/>
        <path id="Path_136213" data-name="Path 136213" d="M18.693,17.86a.064.064,0,0,0-.007.068.146.146,0,0,0,.062.041.064.064,0,0,1-.007-.048.155.155,0,0,1,.041-.048l-.089-.014Z" transform="translate(-5.898 -5.64)" fill="#da4546"/>
        <path id="Path_136214" data-name="Path 136214" transform="translate(-5.898 -5.64)"/>
        <path id="Path_136215" data-name="Path 136215" d="M19.683,17.958a.1.1,0,0,0-.075.007c-.027.014-.048.082-.048.082a.151.151,0,0,1,.075-.034l.055.014a.1.1,0,0,0,0-.048.069.069,0,0,0-.007-.021Z" transform="translate(-6.176 -5.669)" fill="#da4546"/>
        <path id="Path_136216" data-name="Path 136216" transform="translate(-6.176 -5.669)"/>
        <path id="Path_136217" data-name="Path 136217" d="M19.759,18.21s-.034.034-.021.068.034.062.034.062,0-.048.014-.062a.1.1,0,0,1,.062-.021.213.213,0,0,0-.041-.027.334.334,0,0,1-.048-.021Z" transform="translate(-6.232 -5.75)" fill="#da4546"/>
        <path id="Path_136218" data-name="Path 136218" transform="translate(-6.232 -5.75)"/>
        <path id="Path_136219" data-name="Path 136219" d="M20.027,18.283a.067.067,0,0,0,.014.075.18.18,0,0,0,.062.034s-.027-.048-.021-.068a.071.071,0,0,1,.034-.041.436.436,0,0,0-.048-.014c0-.007-.041.014-.041.014Z" transform="translate(-6.322 -5.768)" fill="#da4546"/>
        <path id="Path_136220" data-name="Path 136220" transform="translate(-6.322 -5.768)"/>
        <path id="Path_136221" data-name="Path 136221" d="M17.161,22.893a.233.233,0,0,1,.178.233.27.27,0,0,1-.3.239.276.276,0,0,1-.308-.239.206.206,0,0,1,.178-.226l-.014-.027a.5.5,0,0,1-.034-.041.218.218,0,0,1,.068,0,.169.169,0,0,1,.041.027A.2.2,0,0,1,17,22.817a.078.078,0,0,1,.041-.027.154.154,0,0,1,.034.034.322.322,0,0,1,.014.034.22.22,0,0,1,.048-.027l.048-.014a.269.269,0,0,1-.014.041c-.007.007-.007.034-.007.034Z" transform="translate(-5.283 -7.196)" fill="#ffd791"/>
        <path id="Path_136222" data-name="Path 136222" d="M17.043,22.766l.008.006a.158.158,0,0,1,.041.042l0,.011a.162.162,0,0,1,.03-.015c.021-.007.05-.014.05-.014l.035-.009-.009.035a.279.279,0,0,1-.015.046l0,.006s0,0,0,0a.253.253,0,0,1,.177.248.29.29,0,0,1-.323.261.3.3,0,0,1-.33-.261.234.234,0,0,1,.165-.243c-.014-.015-.03-.037-.031-.038l-.022-.03.037-.005a.366.366,0,0,1,.045,0,.109.109,0,0,1,.034,0l.028.016a.147.147,0,0,1,.018-.024.093.093,0,0,1,.051-.033Zm.032.128-.01-.029a.287.287,0,0,0-.013-.031.1.1,0,0,0-.019-.019.047.047,0,0,0-.019.015.185.185,0,0,0-.026.039l-.014.027-.021-.021a.153.153,0,0,0-.035-.023H16.9l.006.007,0,.006.029.057-.033,0a.185.185,0,0,0-.157.2c0,.122.126.218.286.218s.279-.094.279-.218a.211.211,0,0,0-.162-.212l-.016,0v-.016a.089.089,0,0,1,.008-.043l-.007,0a.193.193,0,0,0-.042.024Z" transform="translate(-5.283 -7.196)"/>
        <path id="Path_136223" data-name="Path 136223" d="M16.837,23.761a1.8,1.8,0,0,0-.328-.178,1.357,1.357,0,0,0-.328-.007,1.283,1.283,0,0,1,.1.082.554.554,0,0,0,.2.109.711.711,0,0,0,.356-.007Z" transform="translate(-5.109 -7.442)" fill="#008f6f"/>
        <path id="Path_136224" data-name="Path 136224" d="M16.642,23.81a.662.662,0,0,1-.166-.02.571.571,0,0,1-.208-.115,1.271,1.271,0,0,0-.1-.08l-.054-.04h.067l.057,0c.033,0,.073,0,.117,0a.766.766,0,0,1,.159.015,1.774,1.774,0,0,1,.336.181l.038.025-.043.014A.723.723,0,0,1,16.642,23.81Zm-.4-.214a.7.7,0,0,1,.057.048.533.533,0,0,0,.188.1.621.621,0,0,0,.156.019.734.734,0,0,0,.141-.014,1.44,1.44,0,0,0-.28-.148.725.725,0,0,0-.148-.013C16.313,23.591,16.273,23.594,16.241,23.6Z" transform="translate(-5.109 -7.442)"/>
        <path id="Path_136225" data-name="Path 136225" d="M17.24,23.787a.613.613,0,0,1,.3-.171.771.771,0,0,1,.369.034s-.055.027-.089.048a.4.4,0,0,1-.239.089c-.123,0-.26-.014-.287-.007a.369.369,0,0,0-.055.007Z" transform="translate(-5.444 -7.454)" fill="#008f6f"/>
        <path id="Path_136226" data-name="Path 136226" d="M17.176,23.822l.048-.05a.628.628,0,0,1,.314-.178.792.792,0,0,1,.12-.009.81.81,0,0,1,.249.041l.062.019-.049.025s-.054.027-.087.047l-.018.012a.391.391,0,0,1-.233.08c-.057,0-.116,0-.168-.005l-.091,0h-.029a.337.337,0,0,0-.05.006Zm.147-.066.093,0c.051,0,.11.005.166.005a.346.346,0,0,0,.208-.072l.02-.013.042-.024a.721.721,0,0,0-.194-.027.75.75,0,0,0-.114.009.513.513,0,0,0-.239.119Z" transform="translate(-5.444 -7.454)"/>
        <path id="Path_136227" data-name="Path 136227" d="M17.126,23.394a.307.307,0,0,1-.1-.212.281.281,0,0,1,.1-.212.3.3,0,0,1,.089.212.253.253,0,0,1-.089.212Z" transform="translate(-5.378 -7.253)" fill="#ac1f23"/>
        <path id="Path_136228" data-name="Path 136228" d="M17.125,23.424l-.015-.015a.325.325,0,0,1-.1-.228.3.3,0,0,1,.1-.228l.015-.014.015.015a.32.32,0,0,1,.1.228.272.272,0,0,1-.1.228Z" transform="translate(-5.378 -7.253)"/>
        <path id="Path_136229" data-name="Path 136229" d="M17.09,23.907a.735.735,0,0,0,.041-.164c0-.062-.007-.123-.007-.123h.048a.519.519,0,0,1,.021.123c0,.055-.007.137-.007.137s-.034.007-.041.007a.185.185,0,0,1-.055.021Z" transform="translate(-5.397 -7.459)" fill="#008f6f"/>
        <path id="Path_136230" data-name="Path 136230" transform="translate(-5.397 -7.459)"/>
        <path id="Path_136231" data-name="Path 136231" d="M14.965,15.284h0Zm-.4-.315h0Zm-.411.315h0Zm.506-.171v0Zm0,.212v0Zm0,.315v0Zm0,.212v0Zm0,.424v0Zm0-.212v0Zm0,.438v0Zm.411-1.177v0Zm-.2.212v0Zm.4,0v0Zm-.1.1v0Zm-.212,0v0Zm-.2,0v0Zm.109.109v0Zm.2,0v0Zm.2,0v0Zm-.1.1v0Zm-.212,0v0Zm-.2,0v0Zm.109.109v0Zm-.109.1v0Zm0,.212v0Zm.109.226v0Zm-.109,0v0Zm.2,0v0Zm.212,0v0Zm-.3.2v0Zm.089,0v0Zm.411.123v0Zm-.2,0v0Zm-.1-.322v0Zm0,.2v0Zm0,.226v0Zm0,.212v0Zm.1-.1v0Zm.2-.109v0Zm-.1,0v0Zm0,.212v0Zm0-1.943h0Zm-.1.13h0Zm-.91,0v0Zm.2.212v0Zm-.4,0v0Zm.1.1v0Zm.212,0v0Zm.2,0v0Zm-.1.109v0Zm-.2,0v0Zm-.205,0v0Zm.1.1v0Zm.212,0v0Zm.2,0v0Zm-.1.109v0Zm.1.1v0Zm0,.212v0Zm-.1.226v0Zm.1,0v0Zm-.2,0v0Zm-.212,0v0Zm.308.2v0Zm-.1,0v0Zm-.411.123v0Zm.2,0v0Zm.109-.322v0Zm0,.2v0Zm0,.226v0Zm0,.212v0Zm-.109-.1v0Zm-.2-.109v0Zm.1,0v0Zm0,.212v0Zm0-1.943h0Zm.1.13h0Zm.308-.452h0Zm.1.13h0Zm0,.109h0Zm0,.1h0Zm0,.109h0Zm-.411.1h0Zm-.2.109h0Zm0,.1h0Zm0,.109h0Zm0,.1h0Zm.1.109h0Zm0,.1h0Zm0,.109h0Zm0,.1h0Zm0,.109h0Zm0,.116h0Zm0,.109h0Zm-.212.089h0Zm0,.123h0Zm0,.1h0Zm0,.109h0Zm0,.1h0Zm.363-2.012h-.055v-.055h-.1v.212h.1v.144h-.2v.424h.1V16.7H13.85v.438h1.628V16.7h-.212v-.848h.109v-.424h-.2v-.144h.1v-.212h-.1v.055h-.055v-.055h-.1v.055h-.068v-.055h-.1v.212h.1v.144h-.2v-.465h.1V14.75h-.1V14.8h-.055V14.75h-.1V14.8h-.041V14.75h-.1v.212h.1v.465h-.2v-.144h.1v-.212h-.1v.055h-.055v-.055h-.1v.055Z" transform="translate(-4.373 -4.658)" fill="#c8b32f"/>
        <path id="Path_136232" data-name="Path 136232" d="M14.447,14.731h.141l0,.055v-.055h.134v.055h.016v-.055h.141v.251h-.1v.427h.16V15.3h-.1v-.251h.134v.055h.03v-.055h.134v.055h.016v-.055h.134V15.3h-.1v.105h.2v.463h-.109v.81H15.5v.477H13.831v-.477h.212v-.81h-.1v-.463h.2V15.3h-.1v-.251h.134v.055h.016v-.055h.141v.055h.016v-.055h.134V15.3h-.1v.105h.16v-.427h-.1Zm.1.039h-.064v.174h.1v.5h-.237v-.182h.1v-.174h-.057v.055H14.3v-.055h-.064v.055h-.093v-.055h-.057v.174h.1v.182h-.2v.386h.1v.887h-.212v.4h1.59v-.4h-.212v-.887h.109v-.386h-.2v-.182h.1v-.174H15.2v.055H15.1v-.055h-.057v.055h-.107v-.055h-.057v.174h.1v.182h-.237v-.5h.1v-.174h-.064v.055h-.093v-.055h-.057v.055h-.08Z" transform="translate(-4.373 -4.658)"/>
        <path id="Path_136233" data-name="Path 136233" d="M15.187,18.013v-.281c0-.055-.027-.212-.281-.212s-.267.157-.267.212v.281Z" transform="translate(-4.623 -5.532)" fill="#c8b32f"/>
        <path id="Path_136234" data-name="Path 136234" d="M15.207,18.032h-.586v-.3c0-.039.014-.231.286-.231s.3.193.3.231Zm-.547-.039h.509v-.261c0-.045-.019-.193-.261-.193s-.248.148-.248.193Z" transform="translate(-4.623 -5.532)"/>
        <path id="Path_136235" data-name="Path 136235" d="M14.72,17.781l-.13-.014a.2.2,0,0,1,.055-.157l.116.1a.115.115,0,0,0-.041.075Z" transform="translate(-4.607 -5.561)" fill="#c8b32f"/>
        <path id="Path_136236" data-name="Path 136236" transform="translate(-4.607 -5.561)"/>
        <path id="Path_136237" data-name="Path 136237" d="M15.291,17.781l.13-.014a.2.2,0,0,0-.055-.157l-.116.1a.115.115,0,0,1,.041.075Z" transform="translate(-4.816 -5.561)" fill="#c8b32f"/>
        <path id="Path_136238" data-name="Path 136238" transform="translate(-4.816 -5.561)"/>
        <path id="Path_136239" data-name="Path 136239" d="M15.041,17.594l.068-.116a.322.322,0,0,0-.116-.027.254.254,0,0,0-.1.027l.068.116Z" transform="translate(-4.702 -5.51)" fill="#c8b32f"/>
        <path id="Path_136240" data-name="Path 136240" transform="translate(-4.702 -5.51)"/>
        <path id="Path_136241" data-name="Path 136241" d="M14.617,16.978v-.294a.136.136,0,0,0-.144-.144.14.14,0,0,0-.144.144v.294Z" transform="translate(-4.525 -5.223)" fill="#c8b32f"/>
        <path id="Path_136242" data-name="Path 136242" d="M14.637,17h-.326v-.314a.16.16,0,0,1,.163-.163.156.156,0,0,1,.163.163Z" transform="translate(-4.525 -5.223)"/>
        <path id="Path_136243" data-name="Path 136243" d="M15.35,16.978v-.294a.144.144,0,1,1,.287,0v.294Z" transform="translate(-4.847 -5.223)" fill="#c8b32f"/>
        <path id="Path_136244" data-name="Path 136244" d="M15.657,17h-.326v-.314a.163.163,0,1,1,.326,0Z" transform="translate(-4.847 -5.223)"/>
        <path id="Path_136245" data-name="Path 136245" d="M15.086,16.007l.027-.267H14.86l.014.267Z" transform="translate(-4.692 -4.97)" fill="#c8b32f"/>
        <path id="Path_136246" data-name="Path 136246" d="M15.1,16.026h-.248l-.016-.305h.295Z" transform="translate(-4.692 -4.97)"/>
        <path id="Path_136247" data-name="Path 136247" d="M15.467,16.007l-.027-.267h.267l-.027.267Z" transform="translate(-4.876 -4.97)" fill="#c8b32f"/>
        <path id="Path_136248" data-name="Path 136248" d="M15.7,16.026H15.45l-.031-.305h.31Z" transform="translate(-4.876 -4.97)"/>
        <path id="Path_136249" data-name="Path 136249" d="M14.5,16.007l.014-.267H14.26l.027.267Z" transform="translate(-4.503 -4.97)" fill="#c8b32f"/>
        <path id="Path_136250" data-name="Path 136250" d="M14.518,16.026H14.27l-.031-.305h.295Z" transform="translate(-4.503 -4.97)"/>
        <path id="Path_136251" data-name="Path 136251" d="M15.146,18.06v-.233a.164.164,0,0,0-.185-.157.159.159,0,0,0-.171.157v.239h.356V18.06Z" transform="translate(-4.67 -5.58)" fill="#3a57a7"/>
        <path id="Path_136252" data-name="Path 136252" d="M14.6,16.963V16.71a.119.119,0,0,0-.116-.13.123.123,0,0,0-.116.13v.253Z" transform="translate(-4.538 -5.235)" fill="#3a57a7"/>
        <path id="Path_136253" data-name="Path 136253" d="M15.39,16.963V16.71a.119.119,0,0,1,.116-.13.128.128,0,0,1,.123.13v.253Z" transform="translate(-4.86 -5.235)" fill="#3a57a7"/>
        <path id="Path_136254" data-name="Path 136254" d="M19.756,14.763h-.014a.1.1,0,0,1-.014.021.042.042,0,0,1-.048.007.025.025,0,0,1-.007-.021.021.021,0,0,1-.027,0,.032.032,0,0,1-.007-.048l.007-.007v-.021l-.021.007-.007.014c-.014.014-.034.021-.041.007a.021.021,0,0,1-.007-.014l-.007.007c-.034.007-.041-.062-.041-.075l-.007.014a.545.545,0,0,1,.007.075l-.014.068a.711.711,0,0,1,.308.233A.252.252,0,0,1,19.886,15a.234.234,0,0,1,.075-.014l.014-.014c-.021,0-.089.007-.089-.027a.024.024,0,0,1,.007-.014s-.014,0-.014-.007-.014-.027,0-.041l.014-.007v-.021h-.021l-.007.007a.033.033,0,0,1-.048,0c-.007-.007-.007-.014-.007-.027h-.027a.032.032,0,0,1-.007-.048c.007-.007.014-.021.021-.021l-.041-.007Z" transform="translate(-6.161 -4.623)" fill="#c8b32f"/>
        <path id="Path_136255" data-name="Path 136255" d="M19.514,14.635l.021,0c0,.019.009.065.025.065l.022-.023v.026a.013.013,0,0,0,0,.006l0,0a.034.034,0,0,0,.021-.011l.007-.015.039-.013v.04l-.01.01a.027.027,0,0,0,0,.02.015.015,0,0,0,.008.01c.008.006.012,0,.015,0l.019-.019v.026c0,.007,0,.009,0,.013a.034.034,0,0,0,.032-.007.085.085,0,0,0,.012-.018l0-.006h.02l.043.007,0,.022s0,.005,0,.008l-.008.01a.027.027,0,0,0,0,.02.016.016,0,0,0,.006.009h.035v.011c0,.014,0,.016,0,.02a.023.023,0,0,0,.032,0l.01-.01H19.9v.038l-.02.01a.024.024,0,0,0,0,.016.008.008,0,0,0,0,.006l.006.005h.028l-.018.018a.015.015,0,0,0,0,.006c0,.018.045.017.068.017H20L19.966,15h0a.225.225,0,0,0-.071.013.25.25,0,0,0-.067.027l-.009.006-.006-.009a.626.626,0,0,0-.134-.134.632.632,0,0,0-.168-.094l-.009,0,.016-.078a.554.554,0,0,0-.007-.071v0Zm.046.092a.033.033,0,0,1-.026-.013c0,.005,0,.01,0,.015l-.012.061a.662.662,0,0,1,.165.094.693.693,0,0,1,.134.131.248.248,0,0,1,.063-.024l.028-.008c-.019,0-.037-.014-.037-.036a.023.023,0,0,1,0-.007.017.017,0,0,1-.006-.007.03.03,0,0,1-.012-.019.043.043,0,0,1,.013-.036l.01-.006v0h-.005l0,0a.045.045,0,0,1-.063,0,.034.034,0,0,1-.01-.024h-.022a.037.037,0,0,1-.019-.024.049.049,0,0,1,.008-.04l.006-.007-.019,0h-.005a.088.088,0,0,1-.013.017.054.054,0,0,1-.06.009.041.041,0,0,1-.01-.015.032.032,0,0,1-.027-.008.033.033,0,0,1-.016-.022.047.047,0,0,1,0-.034c-.024.024-.05.023-.059.005H19.56Z" transform="translate(-6.161 -4.623)"/>
        <path id="Path_136256" data-name="Path 136256" d="M19.688,14.878c0-.007.007-.007.014,0s.007.007,0,.014h-.014c-.007-.007-.007-.014,0-.014Z" transform="translate(-6.215 -4.696)"/>
        <path id="Path_136257" data-name="Path 136257" transform="translate(-6.215 -4.696)"/>
        <path id="Path_136258" data-name="Path 136258" d="M19.759,14.931l-.021-.014s-.007-.007,0-.007h.007l.021.014.021.014s.007.007,0,.007h-.014l-.014-.014Z" transform="translate(-6.232 -4.708)"/>
        <path id="Path_136259" data-name="Path 136259" transform="translate(-6.232 -4.708)"/>
        <path id="Path_136260" data-name="Path 136260" d="M19.611,14.834l-.014-.007a.007.007,0,0,1-.007-.007H19.6l.014.007.014.007.007.007h-.007l-.014-.007Z" transform="translate(-6.186 -4.68)"/>
        <path id="Path_136261" data-name="Path 136261" transform="translate(-6.186 -4.68)"/>
        <path id="Path_136262" data-name="Path 136262" d="M19.53,14.788c0-.007.007-.007.014,0s.007.007,0,.014H19.53v-.014Z" transform="translate(-6.167 -4.668)"/>
        <path id="Path_136263" data-name="Path 136263" transform="translate(-6.167 -4.668)"/>
        <path id="Path_136264" data-name="Path 136264" d="M19.844,15V14.99H19.83V15c0,.007.014,0,.014,0Z" transform="translate(-6.262 -4.733)"/>
        <path id="Path_136265" data-name="Path 136265" transform="translate(-6.262 -4.733)"/>
        <path id="Path_136266" data-name="Path 136266" d="M19.894,15.051l.014.014h.007v-.007l-.007-.014-.014-.014H19.88v.007Z" transform="translate(-6.278 -4.746)"/>
        <path id="Path_136267" data-name="Path 136267" transform="translate(-6.278 -4.746)"/>
        <path id="Path_136268" data-name="Path 136268" d="M19.974,15.121v-.014c-.007-.007-.014-.007-.014,0v.014Z" transform="translate(-6.303 -4.769)"/>
        <path id="Path_136269" data-name="Path 136269" transform="translate(-6.303 -4.769)"/>
        <path id="Path_136270" data-name="Path 136270" d="M19.731,14.62H19.7l-.007.055.007.007H19.7l.041-.027Z" transform="translate(-6.218 -4.617)" fill="#c8b32f"/>
        <path id="Path_136271" data-name="Path 136271" transform="translate(-6.218 -4.617)"/>
        <path id="Path_136272" data-name="Path 136272" d="M19.617,14.654l-.007.034.055.007.007-.007v-.007l-.027-.041Z" transform="translate(-6.192 -4.623)" fill="#c8b32f"/>
        <path id="Path_136273" data-name="Path 136273" transform="translate(-6.192 -4.623)"/>
        <path id="Path_136274" data-name="Path 136274" d="M19.752,14.734l-.034.021-.027-.041V14.7H19.7l.055.007Z" transform="translate(-6.218 -4.642)" fill="#c8b32f"/>
        <path id="Path_136275" data-name="Path 136275" transform="translate(-6.218 -4.642)"/>
        <path id="Path_136276" data-name="Path 136276" d="M19.678,14.7c.007-.007.014-.014.021-.007s.014.014.007.021a.025.025,0,0,1-.021.007c-.014-.007-.014-.014-.007-.021Z" transform="translate(-6.212 -4.637)" fill="#c8b32f"/>
        <path id="Path_136277" data-name="Path 136277" transform="translate(-6.212 -4.637)"/>
        <path id="Path_136278" data-name="Path 136278" d="M19.474,14.586a.269.269,0,0,0-.014-.041.128.128,0,0,0-.021-.027.043.043,0,0,1,.048.007c.021.021,0,.048,0,.048s-.007.014-.014.014Z" transform="translate(-6.139 -4.583)" fill="#c8b32f"/>
        <path id="Path_136279" data-name="Path 136279" transform="translate(-6.139 -4.583)"/>
        <path id="Path_136280" data-name="Path 136280" d="M19.552,14.634l-.021.021-.041-.034v-.007l.007-.007.048-.007Z" transform="translate(-6.154 -4.61)" fill="#c8b32f"/>
        <path id="Path_136281" data-name="Path 136281" transform="translate(-6.154 -4.61)"/>
        <path id="Path_136282" data-name="Path 136282" d="M19.488,14.614A.015.015,0,0,1,19.5,14.6c.007,0,.007.014.007.021a.015.015,0,0,1-.014.014c-.014-.007-.014-.014-.007-.021Z" transform="translate(-6.152 -4.61)" fill="#c8b32f"/>
        <path id="Path_136283" data-name="Path 136283" transform="translate(-6.152 -4.61)"/>
        <path id="Path_136284" data-name="Path 136284" d="M19.918,14.74h-.034l-.014.048v.007h.014l.048-.021Z" transform="translate(-6.274 -4.654)" fill="#c8b32f"/>
        <path id="Path_136285" data-name="Path 136285" transform="translate(-6.274 -4.654)"/>
        <path id="Path_136286" data-name="Path 136286" d="M19.8,14.757l-.007.034.055.014.007-.007v-.007l-.021-.041Z" transform="translate(-6.249 -4.658)" fill="#c8b32f"/>
        <path id="Path_136287" data-name="Path 136287" transform="translate(-6.249 -4.658)"/>
        <path id="Path_136288" data-name="Path 136288" d="M19.925,14.851l-.034.014-.021-.041V14.81h.007l.048.014Z" transform="translate(-6.274 -4.677)" fill="#c8b32f"/>
        <path id="Path_136289" data-name="Path 136289" transform="translate(-6.274 -4.677)"/>
        <path id="Path_136290" data-name="Path 136290" d="M19.85,14.808a.015.015,0,1,1,0,.021v-.021Z" transform="translate(-6.268 -4.674)" fill="#c8b32f"/>
        <path id="Path_136291" data-name="Path 136291" transform="translate(-6.268 -4.674)"/>
        <path id="Path_136292" data-name="Path 136292" d="M20.085,14.894v.027l-.048.021-.007-.007v-.007l.021-.048Z" transform="translate(-6.325 -4.699)" fill="#c8b32f"/>
        <path id="Path_136293" data-name="Path 136293" transform="translate(-6.325 -4.699)"/>
        <path id="Path_136294" data-name="Path 136294" d="M20.068,15.008l-.027.007-.021-.048V14.96h.014l.048.021Z" transform="translate(-6.322 -4.724)" fill="#c8b32f"/>
        <path id="Path_136295" data-name="Path 136295" transform="translate(-6.322 -4.724)"/>
        <path id="Path_136296" data-name="Path 136296" d="M19.964,14.9l-.014.027.048.021H20l.007-.007-.021-.048Z" transform="translate(-6.3 -4.702)" fill="#c8b32f"/>
        <path id="Path_136297" data-name="Path 136297" transform="translate(-6.3 -4.702)"/>
        <path id="Path_136298" data-name="Path 136298" d="M20.028,14.968a.015.015,0,1,0-.021,0,.013.013,0,0,0,.021,0Z" transform="translate(-6.316 -4.718)" fill="#c8b32f"/>
        <path id="Path_136299" data-name="Path 136299" transform="translate(-6.316 -4.718)"/>
        <path id="Path_136300" data-name="Path 136300" d="M20.16,15.116a.181.181,0,0,1,.048.007.048.048,0,0,1,.027.014.054.054,0,0,0-.014-.048c-.021-.014-.048.014-.048.014s-.014.007-.014.014Z" transform="translate(-6.366 -4.763)" fill="#c8b32f"/>
        <path id="Path_136301" data-name="Path 136301" transform="translate(-6.366 -4.763)"/>
        <path id="Path_136302" data-name="Path 136302" d="M20.1,15.06l-.014.027.041.027.007-.007h.007l-.007-.048Z" transform="translate(-6.344 -4.756)" fill="#c8b32f"/>
        <path id="Path_136303" data-name="Path 136303" transform="translate(-6.344 -4.756)"/>
        <path id="Path_136304" data-name="Path 136304" d="M20.159,15.128c.007-.007.014-.014.007-.021a.013.013,0,0,0-.021,0c-.007.007-.014.014-.007.021a.013.013,0,0,0,.021,0Z" transform="translate(-6.358 -4.769)" fill="#c8b32f"/>
        <path id="Path_136305" data-name="Path 136305" transform="translate(-6.358 -4.769)"/>
        <path id="Path_136306" data-name="Path 136306" d="M20.049,17.437H17.118V14.2h2.931Zm-2.887-.044h2.844V14.242H17.162Z" transform="translate(-5.412 -4.49)"/>
      </g>
    </g>
    <rect id="Rectangle_32442" data-name="Rectangle 32442" width="37" height="35" transform="translate(-8069 -9837)" fill="#fff" opacity="0"/>
  </g>
</svg>
