<svg xmlns="http://www.w3.org/2000/svg" width="110" height="110" viewBox="0 0 110 110">
  <g id="ic2" transform="translate(6160 -7199)">
    <rect id="Rectangle_32161" data-name="Rectangle 32161" width="110" height="110" rx="13" transform="translate(-6160 7199)" fill="#5038a1"/>
    <g id="maleta" transform="translate(-6230.631 7214)">
      <path id="Path_135082" data-name="Path 135082" d="M143.687,20.242h-5.668V10.113a1.717,1.717,0,0,0,.512-1.224V5.426A5.432,5.432,0,0,0,133.1,0H118.4a5.432,5.432,0,0,0-5.426,5.426V8.889a1.718,1.718,0,0,0,.512,1.224V20.243h-5.669a6.192,6.192,0,0,0-6.185,6.185V69.269a6.2,6.2,0,0,0,4.086,5.817v1.52A3.4,3.4,0,0,0,109.111,80h1.407a3.4,3.4,0,0,0,3.394-3.394V75.453H137.59v1.153A3.4,3.4,0,0,0,140.984,80h1.407a3.4,3.4,0,0,0,3.394-3.394v-1.52a6.2,6.2,0,0,0,4.086-5.817V26.427a6.192,6.192,0,0,0-6.185-6.185Zm-9.634,0V10.612h1.622v9.631ZM119.793,10.113a1.717,1.717,0,0,0,.512-1.224V7.334H131.2V8.889a1.717,1.717,0,0,0,.512,1.224V20.242H119.793V10.113Zm-4.478-4.687A3.086,3.086,0,0,1,118.4,2.344H133.1a3.086,3.086,0,0,1,3.082,3.082V8.268H133.54V6.747a1.759,1.759,0,0,0-1.757-1.757H119.719a1.759,1.759,0,0,0-1.757,1.757V8.268h-2.647V5.426Zm.512,5.186h1.622v9.631h-1.622Zm-4.26,65.994a1.051,1.051,0,0,1-1.05,1.05h-1.407a1.051,1.051,0,0,1-1.05-1.05V75.453h3.507Zm30.823,1.05h-1.407a1.051,1.051,0,0,1-1.05-1.05V75.453h3.507v1.153A1.051,1.051,0,0,1,142.391,77.656Zm5.137-8.387a3.845,3.845,0,0,1-3.841,3.841H107.815a3.845,3.845,0,0,1-3.841-3.841V26.427a3.845,3.845,0,0,1,3.841-3.841h35.871a3.845,3.845,0,0,1,3.841,3.841Z" transform="translate(0)" fill="#fff"/>
      <path id="Path_135083" data-name="Path 135083" d="M150.873,178.609a3.979,3.979,0,0,0-3.974,3.974v22.78a1.172,1.172,0,1,0,2.344,0v-22.78a1.631,1.631,0,1,1,3.261,0V215.91a1.631,1.631,0,0,1-3.261,0v-5.065a1.172,1.172,0,1,0-2.344,0v5.065a3.974,3.974,0,0,0,7.949,0V182.583A3.979,3.979,0,0,0,150.873,178.609Z" transform="translate(-38.195 -150.701)" fill="#fff"/>
      <path id="Path_135084" data-name="Path 135084" d="M234.538,178.609a3.979,3.979,0,0,0-3.974,3.974V215.91a3.974,3.974,0,0,0,7.949,0V182.583A3.979,3.979,0,0,0,234.538,178.609Zm1.63,37.3a1.631,1.631,0,1,1-3.261,0V182.583a1.631,1.631,0,0,1,3.261,0Z" transform="translate(-108.787 -150.701)" fill="#fff"/>
      <path id="Path_135085" data-name="Path 135085" d="M318.2,178.609a3.979,3.979,0,0,0-3.974,3.974v4.63a1.172,1.172,0,0,0,2.344,0v-4.63a1.631,1.631,0,1,1,3.261,0V215.91a1.631,1.631,0,1,1-3.261,0V192.695a1.172,1.172,0,0,0-2.344,0V215.91a3.974,3.974,0,1,0,7.949,0V182.583A3.979,3.979,0,0,0,318.2,178.609Z" transform="translate(-179.38 -150.701)" fill="#fff"/>
    </g>
  </g>
</svg>
