<svg xmlns="http://www.w3.org/2000/svg" width="110" height="110" viewBox="0 0 110 110">
  <g id="ic3" transform="translate(6160 -7505)">
    <rect id="Rectangle_32163" data-name="Rectangle 32163" width="110" height="110" rx="13" transform="translate(-6160 7505)" fill="#5038a1"/>
    <g id="suitcase" transform="translate(-6145 7520)">
      <g id="Group_92667" data-name="Group 92667" transform="translate(0 17.333)">
        <g id="Group_92666" data-name="Group 92666">
          <path id="Path_136008" data-name="Path 136008" d="M36,110.933H6.667A6.674,6.674,0,0,0,0,117.6v42.667a6.674,6.674,0,0,0,6.667,6.667H24v-2.667H6.667a4,4,0,0,1-4-4V117.6a4,4,0,0,1,4-4H36a4,4,0,0,1,4,4v1.333h2.667V117.6A6.674,6.674,0,0,0,36,110.933Z" transform="translate(0 -110.933)" fill="#fff"/>
        </g>
      </g>
      <g id="Group_92669" data-name="Group 92669" transform="translate(9.333)">
        <g id="Group_92668" data-name="Group 92668">
          <path id="Path_136009" data-name="Path 136009" d="M79.733,0h-16a4,4,0,1,0,0,8h16a4,4,0,1,0,0-8Zm0,5.333h-16a1.333,1.333,0,1,1,0-2.667h16a1.333,1.333,0,1,1,0,2.667Z" transform="translate(-59.733)" fill="#fff"/>
        </g>
      </g>
      <g id="Group_92671" data-name="Group 92671" transform="translate(14.667 6.667)">
        <g id="Group_92670" data-name="Group 92670">
          <rect id="Rectangle_32426" data-name="Rectangle 32426" width="2.667" height="12" fill="#fff"/>
        </g>
      </g>
      <g id="Group_92673" data-name="Group 92673" transform="translate(25.333 6.667)">
        <g id="Group_92672" data-name="Group 92672">
          <rect id="Rectangle_32427" data-name="Rectangle 32427" width="2.667" height="12" fill="#fff"/>
        </g>
      </g>
      <g id="Group_92675" data-name="Group 92675" transform="translate(8 40)">
        <g id="Group_92674" data-name="Group 92674">
          <rect id="Rectangle_32428" data-name="Rectangle 32428" width="2.667" height="24" fill="#fff"/>
        </g>
      </g>
      <g id="Group_92677" data-name="Group 92677" transform="translate(24 25.333)">
        <g id="Group_92676" data-name="Group 92676">
          <rect id="Rectangle_32429" data-name="Rectangle 32429" width="2.667" height="10.667" fill="#fff"/>
        </g>
      </g>
      <g id="Group_92679" data-name="Group 92679" transform="translate(1.333 70.667)">
        <g id="Group_92678" data-name="Group 92678">
          <path id="Path_136010" data-name="Path 136010" d="M13.2,452.267a4.667,4.667,0,1,0,4.667,4.667A4.672,4.672,0,0,0,13.2,452.267Zm0,6.667a2,2,0,1,1,2-2A2,2,0,0,1,13.2,458.934Z" transform="translate(-8.533 -452.267)" fill="#fff"/>
        </g>
      </g>
      <g id="Group_92681" data-name="Group 92681" transform="translate(16 25.333)">
        <g id="Group_92680" data-name="Group 92680">
          <rect id="Rectangle_32430" data-name="Rectangle 32430" width="2.667" height="38.667" fill="#fff"/>
        </g>
      </g>
      <g id="Group_92683" data-name="Group 92683" transform="translate(0 29.332)">
        <g id="Group_92682" data-name="Group 92682">
          <path id="Path_136011" data-name="Path 136011" d="M14.572,195.23l-2.667-6.667a1.332,1.332,0,0,0-.728-.736,1.318,1.318,0,0,0-1.036.007l-9.333,4A1.331,1.331,0,0,0,0,193.059v8a1.332,1.332,0,0,0,1.333,1.333,1.317,1.317,0,0,0,.543-.116l12-5.333A1.334,1.334,0,0,0,14.572,195.23ZM2.667,199.007v-5.069l7.269-3.115,1.683,4.205Z" transform="translate(0 -187.725)" fill="#fff"/>
        </g>
      </g>
      <g id="Group_92685" data-name="Group 92685" transform="translate(8 25.333)">
        <g id="Group_92684" data-name="Group 92684">
          <rect id="Rectangle_32431" data-name="Rectangle 32431" width="2.667" height="6.667" fill="#fff"/>
        </g>
      </g>
      <g id="Group_92687" data-name="Group 92687" transform="translate(32 25.333)">
        <g id="Group_92686" data-name="Group 92686">
          <rect id="Rectangle_32432" data-name="Rectangle 32432" width="2.667" height="10.667" fill="#fff"/>
        </g>
      </g>
      <g id="Group_92689" data-name="Group 92689" transform="translate(32 70.667)">
        <g id="Group_92688" data-name="Group 92688">
          <path id="Path_136012" data-name="Path 136012" d="M209.467,452.267a4.667,4.667,0,1,0,4.667,4.667A4.672,4.672,0,0,0,209.467,452.267Zm0,6.667a2,2,0,1,1,2-2A2,2,0,0,1,209.467,458.934Z" transform="translate(-204.8 -452.267)" fill="#fff"/>
        </g>
      </g>
      <g id="Group_92691" data-name="Group 92691" transform="translate(20 33.333)">
        <g id="Group_92690" data-name="Group 92690">
          <path id="Path_136013" data-name="Path 136013" d="M181.333,213.333H134.667A6.674,6.674,0,0,0,128,220v26.667a6.674,6.674,0,0,0,6.667,6.667h46.667A6.674,6.674,0,0,0,188,246.666V220A6.675,6.675,0,0,0,181.333,213.333Zm4,33.333a4,4,0,0,1-4,4H134.667a4,4,0,0,1-4-4V220a4,4,0,0,1,4-4h46.667a4,4,0,0,1,4,4v26.667Z" transform="translate(-128 -213.333)" fill="#fff"/>
        </g>
      </g>
      <g id="Group_92693" data-name="Group 92693" transform="translate(42.667 28)">
        <g id="Group_92692" data-name="Group 92692">
          <path id="Path_136014" data-name="Path 136014" d="M286.4,179.2h-12a1.333,1.333,0,0,0-1.333,1.333v5.333h2.667v-4h9.333v4h2.667v-5.333A1.333,1.333,0,0,0,286.4,179.2Z" transform="translate(-273.067 -179.2)" fill="#fff"/>
        </g>
      </g>
      <g id="Group_92695" data-name="Group 92695" transform="translate(37.333 22.667)">
        <g id="Group_92694" data-name="Group 92694">
          <path id="Path_136015" data-name="Path 136015" d="M257.6,145.067h-12a6.674,6.674,0,0,0-6.667,6.667v5.333H241.6v-5.333a4,4,0,0,1,4-4h12a4,4,0,0,1,4,4v5.333h2.667v-5.333A6.674,6.674,0,0,0,257.6,145.067Z" transform="translate(-238.933 -145.067)" fill="#fff"/>
        </g>
      </g>
      <g id="Group_92697" data-name="Group 92697" transform="translate(39.999 38.699)">
        <g id="Group_92696" data-name="Group 92696">
          <path id="Path_136016" data-name="Path 136016" d="M271.746,257.535l-6.667-9.333a1.381,1.381,0,0,0-2.169,0l-6.667,9.333a1.332,1.332,0,0,0,1.085,2.108h13.333a1.333,1.333,0,0,0,1.084-2.108Zm-11.827-.559L264,251.271l4.075,5.705Z" transform="translate(-255.994 -247.675)" fill="#fff"/>
        </g>
      </g>
      <g id="Group_92699" data-name="Group 92699" transform="translate(58.801 51.968)">
        <g id="Group_92698" data-name="Group 92698">
          <path id="Path_136017" data-name="Path 136017" d="M386.274,333.064c-4.195-1.367-8.528.364-9.667,3.855a6.129,6.129,0,0,0,.837,5.333,8.882,8.882,0,0,0,4.695,3.483,9.388,9.388,0,0,0,2.9.468c3.129,0,5.889-1.643,6.765-4.323C392.948,338.387,390.466,334.432,386.274,333.064Zm3,7.989c-.683,2.1-3.513,3.057-6.305,2.147a6.216,6.216,0,0,1-3.293-2.411,3.522,3.522,0,0,1-.533-3.043h0c.508-1.559,2.2-2.489,4.188-2.489a6.82,6.82,0,0,1,2.115.343C388.238,336.513,389.954,338.959,389.271,341.053Z" transform="translate(-376.324 -332.596)" fill="#fff"/>
        </g>
      </g>
      <g id="Group_92701" data-name="Group 92701" transform="translate(21.333 70.667)">
        <g id="Group_92700" data-name="Group 92700">
          <path id="Path_136018" data-name="Path 136018" d="M141.2,452.267a4.667,4.667,0,1,0,4.667,4.667A4.672,4.672,0,0,0,141.2,452.267Zm0,6.667a2,2,0,1,1,2-2A2,2,0,0,1,141.2,458.934Z" transform="translate(-136.533 -452.267)" fill="#fff"/>
        </g>
      </g>
      <g id="Group_92703" data-name="Group 92703" transform="translate(69.333 70.667)">
        <g id="Group_92702" data-name="Group 92702">
          <path id="Path_136019" data-name="Path 136019" d="M448.4,452.267a4.667,4.667,0,1,0,4.667,4.667A4.672,4.672,0,0,0,448.4,452.267Zm0,6.667a2,2,0,1,1,2-2A2,2,0,0,1,448.4,458.934Z" transform="translate(-443.733 -452.267)" fill="#fff"/>
        </g>
      </g>
      <g id="Group_92705" data-name="Group 92705" transform="translate(32 61.333)">
        <g id="Group_92704" data-name="Group 92704">
          <rect id="Rectangle_32433" data-name="Rectangle 32433" width="2.667" height="10.667" fill="#fff"/>
        </g>
      </g>
      <g id="Group_92707" data-name="Group 92707" transform="translate(26.667 33.333)">
        <g id="Group_92706" data-name="Group 92706">
          <path id="Path_136020" data-name="Path 136020" d="M177.334,213.333H172a1.334,1.334,0,0,0-1.333,1.333v16h2.667V216H176v17.333h2.667V214.666A1.334,1.334,0,0,0,177.334,213.333Z" transform="translate(-170.667 -213.333)" fill="#fff"/>
        </g>
      </g>
      <g id="Group_92709" data-name="Group 92709" transform="translate(26.667 57.333)">
        <g id="Group_92708" data-name="Group 92708">
          <rect id="Rectangle_32434" data-name="Rectangle 32434" width="2.667" height="14.667" fill="#fff"/>
        </g>
      </g>
      <g id="Group_92711" data-name="Group 92711" transform="translate(70.667 62.667)">
        <g id="Group_92710" data-name="Group 92710">
          <rect id="Rectangle_32435" data-name="Rectangle 32435" width="2.667" height="9.333" fill="#fff"/>
        </g>
      </g>
      <g id="Group_92713" data-name="Group 92713" transform="translate(65.333 33.333)">
        <g id="Group_92712" data-name="Group 92712">
          <path id="Path_136021" data-name="Path 136021" d="M424.8,213.333h-5.333a1.333,1.333,0,0,0-1.333,1.333v18.667H420.8V216h2.667v20h2.667V214.666A1.333,1.333,0,0,0,424.8,213.333Z" transform="translate(-418.134 -213.333)" fill="#fff"/>
        </g>
      </g>
      <g id="Group_92715" data-name="Group 92715" transform="translate(65.333 64)">
        <g id="Group_92714" data-name="Group 92714">
          <rect id="Rectangle_32436" data-name="Rectangle 32436" width="2.667" height="8" fill="#fff"/>
        </g>
      </g>
      <g id="Group_92717" data-name="Group 92717" transform="translate(20.647 45.513)">
        <g id="Group_92716" data-name="Group 92716">
          <path id="Path_136022" data-name="Path 136022" d="M149.5,300.619l-16-9.333-1.344,2.305,14.92,8.7-1.464,2.927-12.1-7.259-1.372,2.287,13.333,8a1.341,1.341,0,0,0,.687.191,1.324,1.324,0,0,0,.373-.053,1.338,1.338,0,0,0,.82-.684l2.667-5.333A1.336,1.336,0,0,0,149.5,300.619Z" transform="translate(-132.138 -291.286)" fill="#fff"/>
        </g>
      </g>
    </g>
  </g>
</svg>
