<svg xmlns="http://www.w3.org/2000/svg" width="110" height="110" viewBox="0 0 110 110">
  <g id="ic4" transform="translate(6160 -7817)">
    <rect id="Rectangle_32165" data-name="Rectangle 32165" width="110" height="110" rx="13" transform="translate(-6160 7817)" fill="#5038a1"/>
    <g id="XMLID_14_" transform="translate(-6145 7807.792)">
      <g id="XMLID_139_" transform="translate(0 28.208)">
        <path id="XMLID_142_" d="M78.812,41.574a5.037,5.037,0,0,0-3.861-1.8H71.369a9,9,0,0,0-7.84-4.557h-.741v-5.45a1.562,1.562,0,0,0-1.563-1.563A10.575,10.575,0,0,0,50.663,38.771v4.883a9.009,9.009,0,0,1-4.9,8.036l-5.1,2.632A1.563,1.563,0,1,0,42.1,57.1l5.1-2.632a12.123,12.123,0,0,0,6.588-10.813V38.771A7.451,7.451,0,0,1,59.663,31.5v5.285a1.563,1.563,0,0,0,1.563,1.563h2.3a5.885,5.885,0,0,1,5.432,3.6A1.562,1.562,0,0,0,70.4,42.9h4.551a1.923,1.923,0,0,1,1.9,2.25l-.578,3.354a4.414,4.414,0,0,1-4.359,3.672H64.953l-.048,0-.048,0a1.563,1.563,0,0,0-1.563,1.563v7.64A41.8,41.8,0,0,1,60.122,77.4a1.564,1.564,0,0,0-.067.991l3.843,14.7a1.563,1.563,0,0,0,.382.684l1.373,1.438a.626.626,0,0,1-.453,1.059H59.995L53.28,78.87V71.644a1.563,1.563,0,0,0-3.125,0v7.517a1.561,1.561,0,0,0,.1.563l6.386,16.545h-5.5a10.221,10.221,0,0,0-10.086-8.643H39.3l-.7-4.139a10.794,10.794,0,0,0-8.451-8.814L27.2,74.046a1.562,1.562,0,1,0-.648,3.057l2.956.627a7.686,7.686,0,0,1,6.017,6.276l.61,3.619H26.5a1.563,1.563,0,1,0,0,3.125h14.56a7.092,7.092,0,0,1,6.906,5.518H26.248A14.193,14.193,0,0,1,12.071,82.091a15.532,15.532,0,0,1,8.441-13.855L29.6,63.545a1.562,1.562,0,0,0-1.433-2.777l-9.092,4.691a18.727,18.727,0,0,0-6.254,5.208A12.136,12.136,0,0,1,18.734,57.6a2.543,2.543,0,0,0,1.217-2.9A2.772,2.772,0,0,0,17.3,52.628h-.041A17.492,17.492,0,0,0,9.3,85.572a17.332,17.332,0,0,0,16.95,13.821H65.2a3.751,3.751,0,0,0,2.713-6.342l-1.094-1.145L63.21,78.1a44.9,44.9,0,0,0,3.208-16.719V55.3h5.491a7.532,7.532,0,0,0,7.438-6.266l.578-3.355a5.036,5.036,0,0,0-1.114-4.11ZM3.127,69.826A14.369,14.369,0,0,1,15.7,55.842a15.267,15.267,0,0,0-6.26,12.31,15.084,15.084,0,0,0,1.245,6.04,18.716,18.716,0,0,0-1.732,7.477A14.44,14.44,0,0,1,3.127,69.826Z" transform="translate(0 -28.208)" fill="#fff"/>
        <path id="XMLID_143_" d="M402.306,119.725a1.562,1.562,0,1,0-1.1.458A1.575,1.575,0,0,0,402.306,119.725Z" transform="translate(-337.195 -103.175)" fill="#fff"/>
        <path id="XMLID_144_" d="M216.421,217.981a1.558,1.558,0,1,0-1.106-.456A1.575,1.575,0,0,0,216.421,217.981Z" transform="translate(-181.286 -185.694)" fill="#fff"/>
      </g>
    </g>
  </g>
</svg>
