<svg xmlns="http://www.w3.org/2000/svg" xmlns:xlink="http://www.w3.org/1999/xlink" width="295" height="308.001" viewBox="0 0 295 308.001">
  <defs>
    <clipPath id="clip-path">
      <path id="Path_103947" data-name="Path 103947" d="M346.332,340.156c-15.05-14.163-54.343-31.869-54.343-31.869S290.119,324,277.95,324s-15.937-15.714-15.937-15.714-16.378,9.3-29.878,15.714-26.779,16.82-32.09,32.311-7.746,45.812-7.746,45.812H366.843S361.381,354.32,346.332,340.156Z" transform="translate(-192.299 -308.287)" fill="#5038a1"/>
    </clipPath>
  </defs>
  <g id="t1-i5" transform="translate(-180 -4191)">
    <path id="Path_104000" data-name="Path 104000" d="M210,0H439a66,66,0,0,1,66,66V91H210Z" transform="translate(-30 4407.911)" fill="#ffdc72"/>
    <g id="Group_92521" data-name="Group 92521" transform="translate(30.701 4081.099)">
      <path id="Path_103927" data-name="Path 103927" d="M232.071,212.162s1,34.176,1.659,49.944,14.938,34.69,43.488,33.029,30.059-29.929,31.371-38.674c1.494-9.959,1.494-34.814,1.494-34.814s-14.275-4.524-16.6-19.463c0,0-26.225,11.921-39.172-6.82C254.312,195.365,246.346,210.853,232.071,212.162Z" transform="translate(3.163 6.797)" fill="#c6896b"/>
      <path id="Path_103928" data-name="Path 103928" d="M328.654,211.549a16.462,16.462,0,0,0-8.41-12.172s1.328-19.033-11.73-25.008-17.04.885-42.491-5.975a230.76,230.76,0,0,0-25.451-6.861,24.606,24.606,0,0,0-28.992,22.353c-1.549,16.6,10.844,29.434,10.844,29.434s0,17.263,4.426,30.32c.757,2.23,3.64,4.092,7.943,5.621-.547-16.015-1.082-34.373-1.082-34.373,14.275-1.309,22.241-16.8,22.241-16.8,12.947,18.742,39.172,6.82,39.172,6.82,2.324,14.938,16.6,19.463,16.6,19.463s0,17.833-.909,29.34a20.4,20.4,0,0,0,6.367-1.664C325.777,246.959,329.76,220.18,328.654,211.549Z" transform="translate(1.523 4.073)" fill="#66341f"/>
      <path id="Path_103929" data-name="Path 103929" d="M233.722,231.981c-3.818-1.779-9.89-1.139-12.978,6.2,0,0-2.158,7.635,1.162,13.278s9.95,6.674,12.693,5.661h0C234.322,250.2,234,240.7,233.722,231.981Z" transform="translate(2.207 9.643)" fill="#c6896b"/>
      <path id="Path_103930" data-name="Path 103930" d="M316.652,238.18c-2.922-6.942-8.513-7.888-12.341-6.462-.18,7.619-.553,16.749-1.326,21.9-.137.917-.279,2.056-.451,3.349a1.01,1.01,0,0,0,.263.154c2.743,1.013,9.374-.017,12.693-5.661S316.652,238.18,316.652,238.18Z" transform="translate(8.767 9.643)" fill="#c6896b"/>
      <path id="Path_103931" data-name="Path 103931" d="M223.768,242.017a7.332,7.332,0,0,1,.772-2.754,4.956,4.956,0,0,1,2.177-2.214,6.468,6.468,0,0,1,.809-.293,7.177,7.177,0,0,1,.859-.087,7.472,7.472,0,0,1,.868.082,2.807,2.807,0,0,1,.964.413,3.705,3.705,0,0,1,1.167,1.4,7.266,7.266,0,0,1,.558,1.476,17.393,17.393,0,0,1,.35,5.72,22.134,22.134,0,0,1-1.11,5.484c-.223-1.864-.337-3.687-.48-5.486a32.589,32.589,0,0,0-.728-5.19,3.888,3.888,0,0,0-.894-1.847.936.936,0,0,0-.271-.167c-.126-.041-.328-.062-.492-.1-.171-.018-.336,0-.511-.013-.164.036-.34.037-.51.087C225.909,238.922,224.7,240.438,223.768,242.017Z" transform="translate(2.503 10.082)" fill="#824e3a"/>
      <path id="Path_103932" data-name="Path 103932" d="M313.455,242.082a17.469,17.469,0,0,0-1.008-2.593,3.7,3.7,0,0,0-1.475-1.771,1.349,1.349,0,0,0-.841-.079.756.756,0,0,0-.612.352,5.917,5.917,0,0,0-.838,2.128,47.611,47.611,0,0,0-.763,5.365c-.182,1.842-.351,3.7-.638,5.6a24.286,24.286,0,0,1-.952-5.632,20.847,20.847,0,0,1,.37-5.8,6.479,6.479,0,0,1,1.4-2.965,2.953,2.953,0,0,1,.86-.607,2.842,2.842,0,0,1,1-.215,2.984,2.984,0,0,1,.964.078,3.07,3.07,0,0,1,.879.424,4.375,4.375,0,0,1,1.589,2.8A8.68,8.68,0,0,1,313.455,242.082Z" transform="translate(9.064 10.016)" fill="#824e3a"/>
      <path id="Path_103933" data-name="Path 103933" d="M268.8,232.588a13.575,13.575,0,0,1,.261,5.034,20.807,20.807,0,0,1-1.217,4.951,20.549,20.549,0,0,1-1.058,2.329,21.5,21.5,0,0,1-1.281,2.21c-.447.727-1,1.375-1.493,2.065-.528.664-1.125,1.27-1.682,1.9l.221-.69a8.708,8.708,0,0,0,.464,1.935,10.092,10.092,0,0,0,.924,1.881,9.852,9.852,0,0,0,1.338,1.683,13.545,13.545,0,0,0,1.7,1.462,8.675,8.675,0,0,1-2.121-.923,8.283,8.283,0,0,1-1.84-1.5,8.439,8.439,0,0,1-1.4-1.973,7.886,7.886,0,0,1-.842-2.368l-.057-.33.277-.361c.981-1.274,1.968-2.533,2.81-3.885a37.706,37.706,0,0,0,2.334-4.156,35.15,35.15,0,0,0,1.7-4.473A25.289,25.289,0,0,0,268.8,232.588Z" transform="translate(5.441 9.757)" fill="#824e3a"/>
      <path id="Path_103934" data-name="Path 103934" d="M253.427,238.791c0,3.85-1.821,6.972-4.067,6.972s-4.067-3.122-4.067-6.972,1.82-6.972,4.067-6.972S253.427,234.94,253.427,238.791Z" transform="translate(4.215 9.696)" fill="#59313e"/>
      <path id="Path_103935" data-name="Path 103935" d="M287.868,238.791c0,3.85-1.821,6.972-4.067,6.972s-4.067-3.122-4.067-6.972,1.821-6.972,4.067-6.972S287.868,234.94,287.868,238.791Z" transform="translate(6.954 9.696)" fill="#59313e"/>
      <path id="Path_103936" data-name="Path 103936" d="M251.24,217.481s-5.754-1.107-8.742,2.544,1.218,4.095,5.091,2.988,5.754-.664,6.639-1.882S253.449,217.633,251.24,217.481Z" transform="translate(3.912 8.543)" fill="#66341f"/>
      <path id="Path_103937" data-name="Path 103937" d="M283.91,217.481s5.754-1.107,8.742,2.544-1.217,4.095-5.09,2.988-5.754-.664-6.639-1.882S281.7,217.633,283.91,217.481Z" transform="translate(7.029 8.543)" fill="#66341f"/>
      <path id="Path_103938" data-name="Path 103938" d="M284.144,286.316l-.016-.008a35.877,35.877,0,0,1-8.882,1.6,51.064,51.064,0,0,1-16.586-1.59l0,0s3.974,15.089-1.78,23.719c0,0,3.768,15.714,15.937,15.714s14.039-15.714,14.039-15.714S283.3,304.2,284.144,286.316Z" transform="translate(5.136 14.029)" fill="#c6896b"/>
      <path id="Path_103939" data-name="Path 103939" d="M346.332,340.156c-15.05-14.163-54.343-31.869-54.343-31.869S290.119,324,277.95,324s-15.937-15.714-15.937-15.714-16.378,9.3-29.878,15.714-26.779,16.82-32.09,32.311-7.746,45.812-7.746,45.812H366.843S361.381,354.32,346.332,340.156Z" transform="translate(0 15.777)" fill="#ffb74d"/>
      <path id="Path_103940" data-name="Path 103940" d="M283.946,294.982c-.093-2.51-.087-5.384.067-8.666l-.016-.008a35.877,35.877,0,0,1-8.882,1.6,51.064,51.064,0,0,1-16.586-1.59l0,0A25.744,25.744,0,0,1,259.8,295C264.934,297.421,271.734,298.859,283.946,294.982Z" transform="translate(5.267 14.029)" fill="#9e664d"/>
      <path id="Path_103941" data-name="Path 103941" d="M278.636,256.242s-2.987,4.426-10.512,3.762-9.137,7.967-1.968,12.393,17.793-1.217,19.895-8.521S282.842,251.705,278.636,256.242Z" transform="translate(5.507 11.499)" fill="#932047"/>
      <path id="Path_103942" data-name="Path 103942" d="M278.347,256.242s-2.987,4.426-10.512,3.762a7.716,7.716,0,0,0-2.649.2l1.321,4.022s6.64,1.107,12.173-2.442c3.614-2.319,4.673-5.1,4.977-6.752C282.125,254.088,280.138,254.31,278.347,256.242Z" transform="translate(5.796 11.499)" fill="#fff"/>
      <path id="Path_103943" data-name="Path 103943" d="M285.247,263.356a12.091,12.091,0,0,0,.432-2.3c-1.449-.1-4.224.176-7.846,2.808a15.566,15.566,0,0,0-6.193,9.555C277.611,273.149,283.709,268.7,285.247,263.356Z" transform="translate(6.31 12.02)" fill="#ed8470"/>
      <g id="Group_57302" data-name="Group 57302" transform="translate(192.299 324.064)">
        <g id="Group_57301" data-name="Group 57301" clip-path="url(#clip-path)">
          <g id="Group_57300" data-name="Group 57300" transform="translate(26.269 2.626)">
            <g id="Group_57297" data-name="Group 57297" transform="translate(37.301)">
              <path id="Path_103944" data-name="Path 103944" d="M273.511,331.426c-16.824,0-22.254-19.862-22.307-20.067a.509.509,0,1,1,.985-.259c.053.2,5.5,20.131,22.378,19.28,16.852-.854,18.9-19.019,18.918-19.2a.516.516,0,0,1,.558-.456.509.509,0,0,1,.456.558c-.019.192-2.163,19.22-19.879,20.116C274.244,331.417,273.873,331.426,273.511,331.426Z" transform="translate(-251.186 -310.72)" fill="#5038a1"/>
            </g>
            <g id="Group_57298" data-name="Group 57298" transform="translate(0 60.603)">
              <path id="Path_103945" data-name="Path 103945" d="M220.04,403.806a.511.511,0,0,1-.508-.483c-.009-.172-.928-17.321-2.9-35.9a.509.509,0,1,1,1.013-.107c1.971,18.61,2.892,35.784,2.9,35.956a.509.509,0,0,1-.481.535Z" transform="translate(-216.633 -366.858)" fill="#5038a1"/>
            </g>
            <g id="Group_57299" data-name="Group 57299" transform="translate(120.796 60.603)">
              <path id="Path_103946" data-name="Path 103946" d="M329.041,400.018h-.023a.51.51,0,0,1-.487-.532c.008-.155.733-15.758,3.144-32.192a.509.509,0,1,1,1.007.148c-2.4,16.384-3.125,31.935-3.133,32.09A.509.509,0,0,1,329.041,400.018Z" transform="translate(-328.53 -366.858)" fill="#5038a1"/>
            </g>
          </g>
        </g>
      </g>
      <path id="Path_103948" data-name="Path 103948" d="M324.534,191.966s10.623-6.639,4.2-15.713-16.149-3.1-33.193-9.738-26.118-27.221-4.651-44.483,69.049-15.05,90.737,0,13.5,40.942-13.943,50.459c-18.986,6.583-19.7,3.983-19.7,3.983S342.461,189.31,324.534,191.966Z" transform="translate(6.842)" fill="#5038a1"/>
      <path id="Path_135998" data-name="Path 135998" d="M4.975-7.035l2.041-8.8H9.748L6.249-3.7H3.7L.226-15.833H2.942ZM10.286-8.5a4.895,4.895,0,0,1,.966-3.216,3.284,3.284,0,0,1,2.674-1.166,3.3,3.3,0,0,1,2.691,1.166,4.923,4.923,0,0,1,.966,3.233v.575a4.9,4.9,0,0,1-.958,3.216,3.289,3.289,0,0,1-2.683,1.158,3.305,3.305,0,0,1-2.7-1.162,4.92,4.92,0,0,1-.962-3.228Zm2.366.592q0,2.416,1.291,2.416,1.191,0,1.283-2.016l.008-.991a3.793,3.793,0,0,0-.342-1.829,1.064,1.064,0,0,0-.966-.6,1.037,1.037,0,0,0-.937.6A3.833,3.833,0,0,0,12.652-8.5Zm9.827,2.416q1.025,0,1.041-1.333h2.216a3.312,3.312,0,0,1-.908,2.383,3.081,3.081,0,0,1-2.3.908,3.287,3.287,0,0,1-2.658-1.083,4.89,4.89,0,0,1-.933-3.191v-.717a5.046,5.046,0,0,1,.9-3.241,3.233,3.233,0,0,1,2.67-1.116,3.055,3.055,0,0,1,2.349.921,3.745,3.745,0,0,1,.875,2.612H23.52a2.364,2.364,0,0,0-.25-1.166.856.856,0,0,0-.8-.408.953.953,0,0,0-.883.437,3.729,3.729,0,0,0-.283,1.7v.916a7.356,7.356,0,0,0,.108,1.537,1.158,1.158,0,0,0,.358.642A1.092,1.092,0,0,0,22.479-5.494ZM31.522-3.7a3.3,3.3,0,0,1-.2-.7,2.015,2.015,0,0,1-1.716.866,2.54,2.54,0,0,1-1.879-.75,2.635,2.635,0,0,1-.746-1.941,2.729,2.729,0,0,1,.9-2.191,3.953,3.953,0,0,1,2.6-.791h.717v-.725A1.358,1.358,0,0,0,31-10.793a.747.747,0,0,0-.608-.25q-.883,0-.883,1.033H27.148a2.61,2.61,0,0,1,.937-2.062,3.489,3.489,0,0,1,2.37-.812,3.2,3.2,0,0,1,2.3.771,2.893,2.893,0,0,1,.812,2.2v4.241A4.437,4.437,0,0,0,33.9-3.844V-3.7ZM30.131-5.386a1.315,1.315,0,0,0,.667-.158,1.121,1.121,0,0,0,.408-.375V-7.794h-.567a1.209,1.209,0,0,0-.946.383,1.472,1.472,0,0,0-.346,1.025Q29.348-5.386,30.131-5.386ZM42.474-7.919a6.188,6.188,0,0,1-.7,3.287,2.421,2.421,0,0,1-2.2,1.1,2.169,2.169,0,0,1-1.883-1.058l-.075.891H35.442V-16.5H37.8v4.516a2.085,2.085,0,0,1,1.758-.9,2.426,2.426,0,0,1,2.2,1.087,6.019,6.019,0,0,1,.717,3.187ZM40.116-8.51a4.414,4.414,0,0,0-.275-1.912,1.007,1.007,0,0,0-.958-.487,1.136,1.136,0,0,0-1.083.675v4.107a1.127,1.127,0,0,0,1.1.633,1,1,0,0,0,.937-.442,3.866,3.866,0,0,0,.279-1.716Zm8.377,3.982a2.322,2.322,0,0,1-1.966.991,2.208,2.208,0,0,1-1.883-.854A4.094,4.094,0,0,1,44-6.877v-5.84H46.36v5.9q.017,1.316.875,1.316A1.216,1.216,0,0,0,48.4-6.2v-6.515h2.374V-3.7H48.56ZM55.1-3.7H52.738V-16.5H55.1Zm6.278,0a3.3,3.3,0,0,1-.2-.7,2.015,2.015,0,0,1-1.716.866,2.54,2.54,0,0,1-1.879-.75,2.635,2.635,0,0,1-.746-1.941,2.729,2.729,0,0,1,.9-2.191,3.953,3.953,0,0,1,2.6-.791h.717v-.725a1.358,1.358,0,0,0-.208-.858.747.747,0,0,0-.608-.25q-.883,0-.883,1.033H57.008a2.61,2.61,0,0,1,.937-2.062,3.489,3.489,0,0,1,2.37-.812,3.2,3.2,0,0,1,2.3.771,2.893,2.893,0,0,1,.812,2.2v4.241a4.437,4.437,0,0,0,.333,1.825V-3.7ZM59.99-5.386a1.315,1.315,0,0,0,.667-.158,1.121,1.121,0,0,0,.408-.375V-7.794H60.5a1.209,1.209,0,0,0-.946.383,1.472,1.472,0,0,0-.346,1.025Q59.207-5.386,59.99-5.386Zm9.76-5.057-.783-.067a1.287,1.287,0,0,0-1.308.85V-3.7H65.293v-9.015h2.224l.067.975a1.708,1.708,0,0,1,1.541-1.141,1.651,1.651,0,0,1,.65.108Zm4.27,2.816,1.2-5.091h2.516L74.77-2.353Q74.1-.062,72.262-.062A3.49,3.49,0,0,1,71.3-.22V-2.062l.275.008a1.356,1.356,0,0,0,.829-.212A1.33,1.33,0,0,0,72.82-3L73-3.611l-2.6-9.106h2.533Z" transform="translate(304.032 152.887)" fill="#fff"/>
    </g>
  </g>
</svg>
