<svg xmlns="http://www.w3.org/2000/svg" width="505" height="407.353" viewBox="0 0 505 407.353">
  <g id="t1-i2" transform="translate(3000.054 -5393.718)">
    <path id="Path_135718" data-name="Path 135718" d="M-2557.557,5423.323c-139-76.721-306.263,13.062-377.6,72.892-73.007,61.233-77.95,160.294-46.662,235.792,15.3,36.911,31.013,34.318,31.013,34.318s357.434-.678,391.376-.678C-2502.8,5765.647-2449.424,5483.008-2557.557,5423.323Z" fill="#eefaff"/>
    <rect id="Rectángulo_32288" data-name="Rectángulo 32288" width="505" height="34.708" transform="translate(-3000.054 5766.364)" fill="#64a0bd" opacity="0.5"/>
    <g id="Group_92531" data-name="Group 92531">
      <g id="Group_92523" data-name="Group 92523">
        <rect id="Rectangle_32289" data-name="Rectangle 32289" width="7.408" height="29.819" transform="translate(-2697.694 5394.071)" fill="#82345d"/>
        <rect id="Rectangle_32290" data-name="Rectangle 32290" width="7.408" height="29.819" transform="translate(-2580.749 5394.071)" fill="#82345d"/>
      </g>
      <rect id="Rectangle_32291" data-name="Rectangle 32291" width="158.847" height="73.614" transform="translate(-2714.312 5422.986)" fill="#68234e"/>
      <rect id="Rectangle_32292" data-name="Rectangle 32292" width="150.74" height="66.582" transform="translate(-2710.258 5426.502)" fill="#82345d"/>
      <g id="Group_92524" data-name="Group 92524">
        <rect id="Rectangle_32293" data-name="Rectangle 32293" width="8.422" height="3.86" transform="translate(-2702.646 5433.181)" fill="#64a0bd"/>
        <rect id="Rectangle_32294" data-name="Rectangle 32294" width="49.146" height="3.86" transform="translate(-2689.544 5433.181)" fill="#64a0bd"/>
        <rect id="Rectangle_32295" data-name="Rectangle 32295" width="30.336" height="3.86" transform="translate(-2627.528 5433.181)" fill="#64a0bd"/>
        <rect id="Rectangle_32296" data-name="Rectangle 32296" width="12.898" height="3.86" transform="translate(-2593.567 5433.181)" fill="#e08c2f"/>
        <rect id="Rectangle_32297" data-name="Rectangle 32297" width="12.898" height="3.86" transform="translate(-2577.044 5433.181)" fill="#64a0bd"/>
      </g>
      <g id="Group_92525" data-name="Group 92525">
        <rect id="Rectangle_32298" data-name="Rectangle 32298" width="8.422" height="3.86" transform="translate(-2702.646 5441.136)" fill="#64a0bd"/>
        <rect id="Rectangle_32299" data-name="Rectangle 32299" width="38.503" height="3.86" transform="translate(-2689.544 5441.136)" fill="#64a0bd"/>
        <rect id="Rectangle_32300" data-name="Rectangle 32300" width="30.336" height="3.86" transform="translate(-2627.528 5441.136)" fill="#64a0bd"/>
        <rect id="Rectangle_32301" data-name="Rectangle 32301" width="12.898" height="3.86" transform="translate(-2593.567 5441.136)" fill="#64a0bd"/>
        <rect id="Rectangle_32302" data-name="Rectangle 32302" width="12.898" height="3.86" transform="translate(-2577.044 5441.136)" fill="#64a0bd"/>
      </g>
      <g id="Group_92526" data-name="Group 92526">
        <rect id="Rectangle_32303" data-name="Rectangle 32303" width="8.422" height="3.86" transform="translate(-2702.646 5449.09)" fill="#64a0bd"/>
        <rect id="Rectangle_32304" data-name="Rectangle 32304" width="35.795" height="3.86" transform="translate(-2689.544 5449.09)" fill="#64a0bd"/>
        <rect id="Rectangle_32305" data-name="Rectangle 32305" width="30.336" height="3.86" transform="translate(-2627.528 5449.09)" fill="#64a0bd"/>
        <rect id="Rectangle_32306" data-name="Rectangle 32306" width="12.898" height="3.86" transform="translate(-2593.567 5449.09)" fill="#64a0bd"/>
        <rect id="Rectangle_32307" data-name="Rectangle 32307" width="12.898" height="3.86" transform="translate(-2577.044 5449.09)" fill="#64a0bd"/>
      </g>
      <g id="Group_92527" data-name="Group 92527">
        <rect id="Rectangle_32308" data-name="Rectangle 32308" width="8.422" height="3.86" transform="translate(-2702.646 5457.044)" fill="#64a0bd"/>
        <rect id="Rectangle_32309" data-name="Rectangle 32309" width="49.146" height="3.86" transform="translate(-2689.544 5457.044)" fill="#64a0bd"/>
        <rect id="Rectangle_32310" data-name="Rectangle 32310" width="30.336" height="3.86" transform="translate(-2627.528 5457.044)" fill="#64a0bd"/>
        <rect id="Rectangle_32311" data-name="Rectangle 32311" width="12.898" height="3.86" transform="translate(-2593.567 5457.044)" fill="#64a0bd"/>
        <rect id="Rectangle_32312" data-name="Rectangle 32312" width="12.898" height="3.86" transform="translate(-2577.044 5457.044)" fill="#64a0bd"/>
      </g>
      <g id="Group_92528" data-name="Group 92528">
        <rect id="Rectangle_32313" data-name="Rectangle 32313" width="8.422" height="3.86" transform="translate(-2702.646 5464.999)" fill="#64a0bd"/>
        <rect id="Rectangle_32314" data-name="Rectangle 32314" width="24.573" height="3.86" transform="translate(-2689.544 5464.999)" fill="#64a0bd"/>
        <rect id="Rectangle_32315" data-name="Rectangle 32315" width="30.336" height="3.86" transform="translate(-2627.528 5464.999)" fill="#64a0bd"/>
        <rect id="Rectangle_32316" data-name="Rectangle 32316" width="12.898" height="3.86" transform="translate(-2593.567 5464.999)" fill="#e08c2f"/>
        <rect id="Rectangle_32317" data-name="Rectangle 32317" width="12.898" height="3.86" transform="translate(-2577.044 5464.999)" fill="#64a0bd"/>
      </g>
      <g id="Group_92529" data-name="Group 92529">
        <rect id="Rectangle_32318" data-name="Rectangle 32318" width="8.422" height="3.86" transform="translate(-2702.646 5472.953)" fill="#64a0bd"/>
        <rect id="Rectangle_32319" data-name="Rectangle 32319" width="49.146" height="3.86" transform="translate(-2689.544 5472.953)" fill="#64a0bd"/>
        <rect id="Rectangle_32320" data-name="Rectangle 32320" width="30.336" height="3.86" transform="translate(-2627.528 5472.953)" fill="#64a0bd"/>
        <rect id="Rectangle_32321" data-name="Rectangle 32321" width="12.898" height="3.86" transform="translate(-2593.567 5472.953)" fill="#64a0bd"/>
        <rect id="Rectangle_32322" data-name="Rectangle 32322" width="12.898" height="3.86" transform="translate(-2577.044 5472.953)" fill="#64a0bd"/>
      </g>
      <g id="Group_92530" data-name="Group 92530">
        <rect id="Rectangle_32323" data-name="Rectangle 32323" width="8.422" height="3.86" transform="translate(-2702.646 5480.907)" fill="#64a0bd"/>
        <rect id="Rectangle_32324" data-name="Rectangle 32324" width="40.07" height="3.86" transform="translate(-2689.544 5480.907)" fill="#64a0bd"/>
        <rect id="Rectangle_32325" data-name="Rectangle 32325" width="30.336" height="3.86" transform="translate(-2627.528 5480.907)" fill="#64a0bd"/>
        <rect id="Rectangle_32326" data-name="Rectangle 32326" width="12.898" height="3.86" transform="translate(-2593.567 5480.907)" fill="#64a0bd"/>
        <rect id="Rectangle_32327" data-name="Rectangle 32327" width="12.898" height="3.86" transform="translate(-2577.044 5480.907)" fill="#64a0bd"/>
      </g>
    </g>
    <g id="Group_92551" data-name="Group 92551">
      <g id="Group_92547" data-name="Group 92547">
        <g id="Group_92546" data-name="Group 92546">
          <path id="Path_135719" data-name="Path 135719" d="M-2705.594,5523.716a10.047,10.047,0,0,1,5.215,1.739c2.483,1.738-3.832,7.2-3.832,7.2l-2.824-6.179Z" fill="#d6dfed"/>
          <g id="Group_92535" data-name="Group 92535">
            <path id="Path_135720" data-name="Path 135720" d="M-2749.171,5610.279l-42.4-3.827.963-9.653,42.183-4.555a9.051,9.051,0,0,1,9.339,9.713h0A9.051,9.051,0,0,1-2749.171,5610.279Z" fill="#f88764"/>
            <g id="Group_92534" data-name="Group 92534">
              <g id="Group_92533" data-name="Group 92533">
                <g id="Group_92532" data-name="Group 92532">
                  <path id="Path_135721" data-name="Path 135721" d="M-2814.876,5600.167c.07.54.443.823,1.074,1h0l.023.008a17.038,17.038,0,0,0,2.52.333c.663.063,1.582.122,2.533.173.436.025.876.046,1.3.067.9.045,1.736.081,2.325.1l.839.034a4.06,4.06,0,0,0,.626-.205,1.959,1.959,0,0,0,1.379-1.532.131.131,0,0,0,0-.039c.029-.865,1.206-1.486,1.006-1.645l0,0a.262.262,0,0,0-.121-.033,2.278,2.278,0,0,0-.38.01h-.006l-2.907.407-2.784.389-3.661-.362S-2815.012,5599.1-2814.876,5600.167Z" fill="#f88764"/>
                  <path id="Path_135722" data-name="Path 135722" d="M-2802.686,5606.84c.359-1-.7-2.1-2.1-2.294l-6.1-.854s-3.851-.668-4.034.35,1.078,1.385,3.1,2.06,6.663,1.93,6.663,1.93,1.987.058,2.455-1.156Z" fill="#f88764"/>
                  <path id="Path_135723" data-name="Path 135723" d="M-2804.2,5609.656c.445-.831-.337-1.882-1.546-2.195l-5.23-1.355s-3.287-.968-3.58-.106.766,1.3,2.453,2.093,5.586,2.342,5.586,2.342,1.733.251,2.3-.749Z" fill="#f88764"/>
                  <path id="Path_135724" data-name="Path 135724" d="M-2802.092,5603.722c.237-1.135-1.091-2.214-2.668-2.276l-6.823-.269s-4.329-.312-4.371.82,1.4,1.394,3.729,1.912,7.611,1.382,7.611,1.382,2.189-.152,2.513-1.528Z" fill="#f88764"/>
                </g>
                <path id="Path_135725" data-name="Path 135725" d="M-2809.231,5593.437s-.177,2.787,3.875,3.52c3.4.617,4.038,1.256,4.157,1.445a.193.193,0,0,1,.026.058h-.071l0,0-.5-.023h-.006l-2.907.407a20.8,20.8,0,0,0-.394,2.592l0,.048c-.013.119-.026.242-.036.366-.082.834-.154,1.725-.229,2.624-.013.132-.023.268-.033.4q-.015.145-.027.294c-.068.732-.137,1.456-.225,2.142-.008.062-.017.125-.023.186v0c-.019.132-.037.262-.056.388v0a12.873,12.873,0,0,1-.563,2.5c-.019.052.214.069.623.052h.009c1.541-.061,5.56-.543,8.16-.871a11.516,11.516,0,0,0,4.484-1.55c.926-.561.293-.054,1.739-.961a7.462,7.462,0,0,0,1.525-3.936c-.293-3.016-.9-6.322-.9-6.322a11.759,11.759,0,0,0-7.174-2.5c-.173-.012-.35-.016-.53-.021C-2802.337,5594.193-2809.231,5593.437-2809.231,5593.437Z" fill="#f88764"/>
                <path id="Path_135726" data-name="Path 135726" d="M-2807.715,5602.248l-6.168-.617a.466.466,0,0,1-.416-.51.466.466,0,0,1,.509-.416l6.069.608,3.573-.4a.466.466,0,0,1,.514.41.466.466,0,0,1-.41.514Z" fill="#f0643f"/>
                <path id="Path_135727" data-name="Path 135727" d="M-2807.644,5605.437l-.059-.014-6.478-1.435a.466.466,0,0,1-.354-.555.463.463,0,0,1,.555-.353l6.418,1.422,3.493-.153a.468.468,0,0,1,.485.444.465.465,0,0,1-.444.485Z" fill="#f0643f"/>
                <path id="Path_135728" data-name="Path 135728" d="M-2807.6,5607.776l-5.926-1.679a.466.466,0,0,1-.321-.575.466.466,0,0,1,.574-.32l5.8,1.644,3.5-.005h0a.465.465,0,0,1,.465.464.465.465,0,0,1-.464.466Z" fill="#f0643f"/>
              </g>
              <path id="Path_135729" data-name="Path 135729" d="M-2801.165,5605.327a.429.429,0,0,1-.2-.047.431.431,0,0,1-.187-.581,6.981,6.981,0,0,1,7.453-3.785.43.43,0,0,1,.331.511.428.428,0,0,1-.512.332,6.027,6.027,0,0,0-6.505,3.335A.43.43,0,0,1-2801.165,5605.327Z" fill="#f0643f"/>
              <path id="Path_135730" data-name="Path 135730" d="M-2798.056,5601.972a.429.429,0,0,1-.268-.093,5.712,5.712,0,0,1-1.663-3.222.431.431,0,0,1,.361-.491.431.431,0,0,1,.492.36,4.916,4.916,0,0,0,1.347,2.677.432.432,0,0,1,.069.606A.428.428,0,0,1-2798.056,5601.972Z" fill="#f0643f"/>
            </g>
          </g>
          <g id="Group_92536" data-name="Group 92536">
            <path id="Path_135731" data-name="Path 135731" d="M-2750,5609.7a8.21,8.21,0,0,0,3.185.644c3.446,0,7.353-3.942,8.509-7.435l4.759-14.374,5.179-15.644-18.725-6.507-2.663,9.421-6.83,23.594C-2757.451,5603.3-2753.686,5608.157-2750,5609.7Z" fill="#f88764"/>
            <path id="Path_135732" data-name="Path 135732" d="M-2725.928,5530.131l-3.92,48.991-1.5,4.207-.016.044-6.566,18.409c-2.414-8.234-16.329-10.892-16.329-10.892s.924-4.407,2.41-10.671c.22-.936.456-1.911.7-2.921,2.237-9.209,5.414-21.154,8.611-29.371C-2736.646,5532.781-2725.928,5530.131-2725.928,5530.131Z" fill="#fff"/>
            <path id="Path_135733" data-name="Path 135733" d="M-2731.346,5583.329l-.02.044-2.182,5.162-18.3-8.316c.22-.936.456-1.911.7-2.921,3.208.161,14.367,1.077,19.8,6.031Z" fill="#d6dfed"/>
            <path id="Path_135734" data-name="Path 135734" d="M-2752.487,5578.768s12.806.48,19.647,8.742l-5.092,14.27s-.717-7-16.327-10.891Z" fill="#fff"/>
          </g>
          <g id="Group_92537" data-name="Group 92537">
            <path id="Path_135735" data-name="Path 135735" d="M-2757.732,5783.912h42.3c-.1-5.652-3.2-12.248-3.2-12.248s5.341-49.31,6.283-58.1a39.463,39.463,0,0,0-2.039-16.515l-20.731-2.173,2.606,73.256s-.015,4.475-12.735,8.245S-2757.732,5783.912-2757.732,5783.912Z" fill="#f88764"/>
            <rect id="Rectangle_32328" data-name="Rectangle 32328" width="42.298" height="4.24" transform="translate(-2757.731 5783.913)" fill="#82345d"/>
            <path id="Path_135736" data-name="Path 135736" d="M-2757.732,5783.912h17.9a10.24,10.24,0,0,0-5.417-7.536C-2757.968,5780.143-2757.732,5783.912-2757.732,5783.912Z" fill="#82345d"/>
          </g>
          <g id="Group_92538" data-name="Group 92538">
            <path id="Path_135737" data-name="Path 135737" d="M-2737.056,5783.912h42.3c-.1-5.652-3.2-12.248-3.2-12.248s5.341-49.31,6.283-58.1a39.442,39.442,0,0,0-2.039-16.515l-20.6,1.6,2.472,69.486s-.015,4.475-12.735,8.245S-2737.056,5783.912-2737.056,5783.912Z" fill="#f88764"/>
            <path id="Path_135738" data-name="Path 135738" d="M-2724.572,5776.725a.349.349,0,0,1-.335-.25.35.35,0,0,1,.236-.434c12.213-3.619,12.484-7.873,12.485-7.916l-2.483-69.8,20.931-1.623a.347.347,0,0,1,.374.321.349.349,0,0,1-.321.375l-20.263,1.57,2.46,69.153c0,.206-.163,4.792-12.985,8.591A.338.338,0,0,1-2724.572,5776.725Z" fill="#f0643f"/>
            <rect id="Rectangle_32329" data-name="Rectangle 32329" width="42.298" height="4.24" transform="translate(-2737.056 5783.913)" fill="#82345d"/>
            <path id="Path_135739" data-name="Path 135739" d="M-2737.056,5783.912h17.9a10.237,10.237,0,0,0-5.417-7.536C-2737.293,5780.143-2737.056,5783.912-2737.056,5783.912Z" fill="#82345d"/>
          </g>
          <path id="Path_135740" data-name="Path 135740" d="M-2682.225,5540.983s-5.139,17.63-8.23,31.168c-.633,2.768-1.179,5.367-1.58,7.6-2.355,13.188-2.583,32.442-2.583,32.442a47.083,47.083,0,0,1-16.373,5.1c-.35.035-.7.059-1.057.078-.394.02-.779.036-1.156.036a30.548,30.548,0,0,1-14.56-3.57l-6.661-31.33a26.673,26.673,0,0,1-11.67-12.133,115.548,115.548,0,0,0,6.409-17.78c2.328-8.934,3.272-12.169,6.8-17.116a15.918,15.918,0,0,1,4.537-4.006,31.794,31.794,0,0,1,3.566-1.9c.209-.1.417-.189.617-.276.6-.259,1.16-.483,1.652-.672.267-.1.511-.189.731-.267.079-.028.153-.055.224-.079.641-.224,1.026-.338,1.026-.338h15.594a17.022,17.022,0,0,1,5.678.971c.767.279,1.647.629,2.607,1.05a46.114,46.114,0,0,1,6.153,3.236A26.579,26.579,0,0,1-2682.225,5540.983Z" fill="#fff"/>
          <path id="Path_135741" data-name="Path 135741" d="M-2690.455,5572.151c-.633,2.768-1.179,5.367-1.58,7.6-2.355,13.188-2.583,32.442-2.583,32.442a47.083,47.083,0,0,1-16.373,5.1l-2.213.114a30.548,30.548,0,0,1-14.56-3.57l-6.661-31.33a26.673,26.673,0,0,1-11.67-12.133,115.548,115.548,0,0,0,6.409-17.78c2.328-8.934,3.272-12.169,6.8-17.116a15.918,15.918,0,0,1,4.537-4.006,31.794,31.794,0,0,1,3.566-1.9c.209-.1.417-.189.617-.276.6-.259,1.16-.483,1.652-.672.267-.1.511-.189.731-.267.079-.028.153-.055.224-.079.641-.224,1.026-.338,1.026-.338l14.647-.708a24.239,24.239,0,0,1,6.491,1.628c.044.016.091.031.134.051.767.279,1.647.629,2.607,1.05a46.114,46.114,0,0,1,6.153,3.236s-7.325.448-6.8,20.064C-2696.993,5564.83-2693.376,5569.922-2690.455,5572.151Z" fill="#203154"/>
          <path id="Path_135742" data-name="Path 135742" d="M-2690.455,5572.151c-.542,2.371-1.022,4.62-1.4,6.617-2.222-5.04-4.054-9.5-4.042-10.478.008-.692-.35-4.022-.791-8.458C-2695.48,5566.874-2692.751,5570.4-2690.455,5572.151Z" fill="#203154"/>
          <path id="Path_135743" data-name="Path 135743" d="M-2694.617,5612.2s6.725,7.46,12.392,28.816,7.511,51.821,7.511,51.821-19.3,9.736-42.313,7.224-31.935-8.166-31.935-8.166,8.62-58.732,21.2-78.046Z" fill="#203154"/>
          <path id="Path_135744" data-name="Path 135744" d="M-2694.617,5612.2s-10.52,8.093-33.148,1.649l-.6-2.834s9.423,2.313,16.875,2.024,17.139-4.46,17.139-4.46Z" fill="#61aec6"/>
          <g id="Group_92539" data-name="Group 92539">
            <path id="Path_135745" data-name="Path 135745" d="M-2670.9,5610.545l-44.033,9.539-1.51-9.533,40.4-17.306a9.051,9.051,0,0,1,11.986,6.155h0A9.051,9.051,0,0,1-2670.9,5610.545Z" fill="#f88764"/>
            <path id="Path_135746" data-name="Path 135746" d="M-2728.183,5609.516l6.61-.51a6.581,6.581,0,0,1,2.917.75l2.209.795,3.419-1.465,3.675,8.281s-3.051,1.232-3.737,2.63c-1.2,2.443-4.927,4.8-7.063,6.5-.222.177-2.213,1.907-3.372,1.175l-.034-.022a1.816,1.816,0,0,1-.644-1.972,2.37,2.37,0,0,1-2.509-.1l-.036-.03a2.075,2.075,0,0,1-.462-2.3,2.261,2.261,0,0,1-2.067-.581l-.035-.037a2.392,2.392,0,0,1,.032-2.959,2.337,2.337,0,0,1-2.227-.843l-.027-.04a2.4,2.4,0,0,1,1.216-3.342l1.357-.842,2.722-1.45-2.287-.326s-5.713,2.162-6.424-1.328Z" fill="#f88764"/>
          </g>
          <path id="Path_135747" data-name="Path 135747" d="M-2696.651,5529.97s-12.728,10.643-25.86,13.985a11.728,11.728,0,0,1-3.417-8.54,16.387,16.387,0,0,1,1.148-5.834c.209-.1.417-.189.617-.276.6-.259,1.16-.483,1.652-.672.267-.1.511-.189.731-.267.079-.028.153-.055.224-.079.641-.224,1.026-.338,1.026-.338l14.647-.708a24.239,24.239,0,0,1,6.491,1.628c.044.016.091.031.134.051C-2698.491,5529.2-2697.611,5529.549-2696.651,5529.97Z" fill="#f88764"/>
          <path id="Path_135748" data-name="Path 135748" d="M-2707.24,5515.7s9.991-6.6,10.671-11.391-3.593-5.654-1.537-13.063,3.689-14.76.073-17.665-11.708,3.428-11.708,3.428-12.068-9.832-24.324-10.137-14.246,5.233-13.225,9.5,4.5,7.853,2.836,9.625-7.1-.344-6.552,4.985,13.522,10.705,11.6,15.172-11.737,3.11-8.574,8.967,10.314,9.427,5.188,13.027c0,0,9.818-.66,12.856-8.214S-2707.24,5515.7-2707.24,5515.7Z" fill="#c4711e"/>
          <g id="Group_92540" data-name="Group 92540">
            <path id="Path_135749" data-name="Path 135749" d="M-2722.266,5515.55l.11,10.927.039,3.945s.842,3.584,6.543,3.788,10.78-4.635,10.78-4.635l-2.27-19.772-.4-3.475C-2710.389,5502.341-2722.266,5515.55-2722.266,5515.55Z" fill="#f88764"/>
            <path id="Path_135750" data-name="Path 135750" d="M-2722.266,5515.55l.11,10.927c3.319-1.089,9.664-3.608,12.163-8.479,2.415-4.707,2.529-11.67,2.529-11.67C-2710.389,5502.341-2722.266,5515.55-2722.266,5515.55Z" fill="#f0643f"/>
          </g>
          <path id="Path_135751" data-name="Path 135751" d="M-2779.228,5642.836l.094-.083A.268.268,0,0,0-2779.228,5642.836Z" fill="#f88764"/>
          <g id="Group_92541" data-name="Group 92541">
            <path id="Path_135752" data-name="Path 135752" d="M-2693.292,5567.35l1.949,5.288,2.394,6.489,7.654,22.746a8.671,8.671,0,0,0,8.13,5.671,8.653,8.653,0,0,0,2.588-.4,8.664,8.664,0,0,0,5.938-9.856c-.813-4.363-2.778-14.373-4.59-21.706-.709-2.874-1.507-5.942-2.4-9.177-1.345-4.885-2.907-10.152-4.707-15.7Z" fill="#f88764"/>
            <path id="Path_135753" data-name="Path 135753" d="M-2691.343,5572.638l2.394,6.489a28.666,28.666,0,0,1,6.007-3.543,16.964,16.964,0,0,1,13.713,0c-.709-2.874-1.507-5.942-2.4-9.177-2.052-.96-3.921-1.807-3.921-1.807Z" fill="#f0643f"/>
            <path id="Path_135754" data-name="Path 135754" d="M-2663.765,5595.609s-7.557-6.575-20.347,0c0,0-1.239-2.6-2.914-6.213-.7-1.5-1.471-3.181-2.265-4.915-.857-1.887-1.738-3.837-2.563-5.713a38.958,38.958,0,0,1-3.373-10.166,62.338,62.338,0,0,1-1.46-8.77c-.2-2-.409-4.219-.613-6.523v-.039c-.523-19.616,6.8-20.064,6.8-20.064a46.429,46.429,0,0,0-6.141-3.232c.464.137,15.4,4.738,20.567,19.651,2.54,7.321,5.5,18.315,7.884,27.716.621,2.465,1.207,4.82,1.734,6.967C-2664.834,5590.922-2663.765,5595.609-2663.765,5595.609Z" fill="#fff"/>
            <path id="Path_135755" data-name="Path 135755" d="M-2666.454,5584.308c-5.1,1.64-14.808,4.569-20.572,5.088-.7-1.5-1.471-3.181-2.265-4.915,7.235-7.246,16.994-7.439,21.1-7.14C-2667.567,5579.806-2666.981,5582.161-2666.454,5584.308Z" fill="#d6dfed"/>
            <path id="Path_135756" data-name="Path 135756" d="M-2689.081,5585.923l4.967,9.685s6.47-3.336,11.6-2.91a19.834,19.834,0,0,1,8.752,2.91l-2.3-14.321s-3.96-2.832-11.837-1.533A20.759,20.759,0,0,0-2689.081,5585.923Z" fill="#fff"/>
          </g>
          <path id="Path_135757" data-name="Path 135757" d="M-2722.512,5543.955l6.387-7.66,2.595,4.348S-2719.522,5543.459-2722.512,5543.955Z" fill="#d6dfed"/>
          <path id="Path_135758" data-name="Path 135758" d="M-2700.379,5525.455s-8.852,8.371-15.746,10.84l4.074,8.4s12.236-6.825,15.412-14.722Z" fill="#fff"/>
          <path id="Path_135759" data-name="Path 135759" d="M-2722.663,5526.477s-3.226,1.574-4.377,4.032.834,10.342,4.528,13.446c0,0-3.893-9.064-2.427-12.416s3.383-3.252,3.383-3.252Z" fill="#d6dfed"/>
          <path id="Path_135760" data-name="Path 135760" d="M-2724.824,5536.9l-4.113,4.447s-1.739-8.1,0-10.507a12.239,12.239,0,0,1,4.476-3.6S-2727.136,5529.847-2724.824,5536.9Z" fill="#fff"/>
          <g id="Group_92542" data-name="Group 92542">
            <path id="Path_135761" data-name="Path 135761" d="M-2722.266,5525.579l2.8,2.319s12.583-4.442,13.705-6.774c0,0,2.283,3.678.709,6.177l-14.4,3.99-2.807-2.748A4.392,4.392,0,0,1-2722.266,5525.579Z" fill="#ca1a3f"/>
            <path id="Path_135762" data-name="Path 135762" d="M-2719.019,5527.9s-3.451.978-3.094,2.95a4.559,4.559,0,0,0,2.321,2.936l2.464-3.173Z" fill="#ca1a3f"/>
            <path id="Path_135763" data-name="Path 135763" d="M-2722.94,5557.61s-6.2-11.06-4.4-14.988,5.724-10.2,5.724-10.2,1.915-1.44,2.635,0-1.279,7-1.279,7a62.209,62.209,0,0,0-.414,7.955C-2720.464,5549.654-2721.487,5553.992-2722.94,5557.61Z" fill="#ca1a3f"/>
            <path id="Path_135764" data-name="Path 135764" d="M-2719.528,5531.944s4.435,2.081,2.368,8.133-6.317,6.822-6.317,6.822l1.314-4.652s3.354-2.441,3.562-4.512a3.5,3.5,0,0,0-1.9-3.654Z" fill="#ca1a3f"/>
          </g>
          <g id="Group_92543" data-name="Group 92543">
            <path id="Path_135765" data-name="Path 135765" d="M-2717.277,5553.9l-1.545,7.435,13.9,1.932.693-8.377Z" fill="#fff"/>
            <path id="Path_135766" data-name="Path 135766" d="M-2713.038,5560.6l-4.124-.68.75-4.2,4.24.375Z" fill="#d6dfed"/>
            <rect id="Rectangle_32330" data-name="Rectangle 32330" width="5.026" height="0.918" transform="matrix(0.997, 0.082, -0.082, 0.997, -2711.024, 5556.328)" fill="#d6dfed"/>
            <rect id="Rectangle_32331" data-name="Rectangle 32331" width="5.026" height="0.576" transform="translate(-2711.311 5558.473) rotate(6.221)" fill="#d6dfed"/>
            <rect id="Rectangle_32332" data-name="Rectangle 32332" width="5.026" height="0.576" transform="translate(-2711.311 5559.465) rotate(6.221)" fill="#d6dfed"/>
          </g>
          <g id="Group_92545" data-name="Group 92545">
            <path id="Path_135767" data-name="Path 135767" d="M-2709.124,5487.564s-2.3,2.074-6.8-2.207-16.12-13.443-20.809-8.885-1,10.667-2.676,13.226-4.932.741-4.353,3.612,11.186,9.892,17.316,6.81S-2711.559,5493.158-2709.124,5487.564Z" fill="#9b5013"/>
            <path id="Path_135768" data-name="Path 135768" d="M-2735.174,5491.634c-.784,9.368,1.31,24.288,7.364,31.35,0,0,13.209-1.213,16.982-6.97s3.793-15.129,3.793-15.129-5.074-6.359-2.669-12.157c.026-.062.047-.11.06-.14.052-.122.11-.246.169-.367a1.426,1.426,0,0,1-.111.113c-.483.451-2.508,1.941-6.362-.339-4.465-2.643-11.894-6.754-16.5-4.425C-2733.877,5484.3-2734.819,5487.4-2735.174,5491.634Z" fill="#f88764"/>
            <path id="Path_135769" data-name="Path 135769" d="M-2723.648,5501.644c.074,1.427.887,2.546,1.817,2.5s1.623-1.244,1.55-2.672-.887-2.545-1.817-2.5S-2723.721,5500.217-2723.648,5501.644Z" fill="#563828"/>
            <path id="Path_135770" data-name="Path 135770" d="M-2733.736,5502.273c.16,1.319.986,2.305,1.846,2.2s1.427-1.258,1.267-2.578-.986-2.305-1.846-2.2S-2733.9,5500.953-2733.736,5502.273Z" fill="#563828"/>
            <path id="Path_135771" data-name="Path 135771" d="M-2717.205,5495.276a13.608,13.608,0,0,0-4.387-1.6c-3.369-.526-4.017-2.342-3.361-3.079S-2718.074,5491.333-2717.205,5495.276Z" fill="#9b5013"/>
            <path id="Path_135772" data-name="Path 135772" d="M-2735.307,5497.27s.662-.966,2.976-1.531c3.311-.808,2.448-1.566,1.732-2.244S-2734.775,5493.267-2735.307,5497.27Z" fill="#9b5013"/>
            <path id="Path_135773" data-name="Path 135773" d="M-2728.583,5510.054a12.1,12.1,0,0,1-3.415-.619l-.3-.1,2.671-9.877a.336.336,0,0,1,.414-.238.339.339,0,0,1,.238.414l-2.5,9.261c.787.233,2.936.788,4.169.285a.335.335,0,0,1,.439.184.336.336,0,0,1-.184.44A4.125,4.125,0,0,1-2728.583,5510.054Z" fill="#f0643f"/>
            <path id="Path_135774" data-name="Path 135774" d="M-2727.872,5515.326a.337.337,0,0,1-.337-.33.337.337,0,0,1,.33-.345,7.545,7.545,0,0,0,7.419-5.7.335.335,0,0,1,.4-.256.336.336,0,0,1,.257.4,8.34,8.34,0,0,1-8.063,6.23Z" fill="#f0643f"/>
            <path id="Path_135775" data-name="Path 135775" d="M-2706.582,5470.381c-1.635-.789-3.487,4.337-3.487,4.337s-1.664-6.964-5.229-7.16,5.557,10.712,5.557,10.712S-2702.32,5472.438-2706.582,5470.381Z" fill="#c4711e"/>
            <g id="Group_92544" data-name="Group 92544">
              <path id="Path_135776" data-name="Path 135776" d="M-2706.722,5500.794s2.752-3.1,5.793-.795-.569,10.747-5.684,9.86S-2706.722,5500.794-2706.722,5500.794Z" fill="#f88764"/>
              <path id="Path_135777" data-name="Path 135777" d="M-2706.6,5507.016a.339.339,0,0,1-.115-.02.337.337,0,0,1-.2-.433,4.238,4.238,0,0,1,2.356-2.841,2.681,2.681,0,0,1,2.17.258.338.338,0,0,1,.1.467.337.337,0,0,1-.465.1,2.037,2.037,0,0,0-1.6-.182,3.643,3.643,0,0,0-1.929,2.43A.338.338,0,0,1-2706.6,5507.016Z" fill="#f0643f"/>
              <path id="Path_135778" data-name="Path 135778" d="M-2704.211,5506.309a.35.35,0,0,1-.1-.015l-1.784-.566a.338.338,0,0,1-.22-.423.337.337,0,0,1,.424-.22l1.784.565a.338.338,0,0,1,.22.424A.339.339,0,0,1-2704.211,5506.309Z" fill="#f0643f"/>
            </g>
          </g>
        </g>
      </g>
      <g id="Group_92548" data-name="Group 92548">
        <rect id="Rectangle_32333" data-name="Rectangle 32333" width="239.357" height="91.267" transform="translate(-2877.87 5617.718)" fill="#64a0bd"/>
        <rect id="Rectangle_32334" data-name="Rectangle 32334" width="29.831" height="170.827" transform="translate(-2651.314 5617.718)" fill="#4f8ba3"/>
        <rect id="Rectangle_32335" data-name="Rectangle 32335" width="226.556" height="1.481" transform="translate(-2877.87 5635.346)" fill="#4f8ba3"/>
        <path id="Path_135779" data-name="Path 135779" d="M-2663.172,5688.9h-205.014a1.573,1.573,0,0,1-1.573-1.573,1.573,1.573,0,0,1,1.573-1.572h205.014a1.572,1.572,0,0,1,1.573,1.572A1.573,1.573,0,0,1-2663.172,5688.9Z" fill="#4f8ba3"/>
        <rect id="Rectangle_32336" data-name="Rectangle 32336" width="226.555" height="27.733" transform="translate(-2877.87 5647.738)" fill="#7fc6e2"/>
        <path id="Path_135780" data-name="Path 135780" d="M-2877.87,5708.985h226.556l9.259,79.561h-227.775Z" fill="#579cb2"/>
        <path id="Path_135781" data-name="Path 135781" d="M-2689.446,5777.513h-135.2l-5.809-57.5h134.315Zm-132.353-3.145h128.82l-5.959-51.205h-128.035Z" fill="#4f8ba3"/>
        <path id="Path_135782" data-name="Path 135782" d="M-2663.172,5746.148h-19.839a1.573,1.573,0,0,1-1.573-1.572,1.573,1.573,0,0,1,1.573-1.573h19.839a1.573,1.573,0,0,1,1.573,1.573A1.572,1.572,0,0,1-2663.172,5746.148Z" fill="#4f8ba3"/>
        <path id="Path_135783" data-name="Path 135783" d="M-2661.206,5754.289h-19.84a1.572,1.572,0,0,1-1.572-1.572,1.572,1.572,0,0,1,1.572-1.573h19.84a1.573,1.573,0,0,1,1.573,1.573A1.572,1.572,0,0,1-2661.206,5754.289Z" fill="#4f8ba3"/>
        <path id="Path_135784" data-name="Path 135784" d="M-2841.919,5746.148h-19.84a1.572,1.572,0,0,1-1.572-1.572,1.573,1.573,0,0,1,1.572-1.573h19.84a1.573,1.573,0,0,1,1.573,1.573A1.573,1.573,0,0,1-2841.919,5746.148Z" fill="#4f8ba3"/>
        <path id="Path_135785" data-name="Path 135785" d="M-2839.953,5754.289h-19.84a1.572,1.572,0,0,1-1.572-1.572,1.573,1.573,0,0,1,1.572-1.573h19.84a1.573,1.573,0,0,1,1.573,1.573A1.573,1.573,0,0,1-2839.953,5754.289Z" fill="#4f8ba3"/>
        <path id="Path_135786" data-name="Path 135786" d="M-2727.189,5617.718h-63.542l-2.459-15.564h63.542Z" fill="#376b8a"/>
      </g>
      <g id="Group_92549" data-name="Group 92549">
        <rect id="Rectangle_32337" data-name="Rectangle 32337" width="134.846" height="29.277" transform="translate(-2637.757 5759.269)" fill="#64a0bd"/>
        <rect id="Rectangle_32338" data-name="Rectangle 32338" width="29.277" height="43.068" transform="translate(-2532.947 5745.478)" fill="#64a0bd"/>
        <rect id="Rectangle_32339" data-name="Rectangle 32339" width="32.746" height="43.068" transform="translate(-2527.8 5745.478)" fill="#4f8ba3"/>
      </g>
      <g id="Group_92550" data-name="Group 92550">
        <path id="Path_135787" data-name="Path 135787" d="M-2570.9,5714.593h-19.965a18.215,18.215,0,0,1-18.2-18.195v-28.217a11.914,11.914,0,0,1,11.9-11.9h32.556a11.914,11.914,0,0,1,11.9,11.9V5696.4A18.216,18.216,0,0,1-2570.9,5714.593Zm-26.26-54.058a7.654,7.654,0,0,0-7.645,7.646V5696.4a13.956,13.956,0,0,0,13.94,13.94h19.965a13.957,13.957,0,0,0,13.941-13.94v-28.217a7.654,7.654,0,0,0-7.645-7.646Z" fill="#e08c2f"/>
        <rect id="Rectangle_32340" data-name="Rectangle 32340" width="87.7" height="89.161" rx="24.625" transform="translate(-2624.732 5670.108)" fill="#f7a53e"/>
        <path id="Path_135788" data-name="Path 135788" d="M-2554.136,5751.113H-2607.3a7.657,7.657,0,0,1-7.648-7.648v-34.879a7.657,7.657,0,0,1,7.648-7.647h53.167a7.656,7.656,0,0,1,7.647,7.647v34.879A7.656,7.656,0,0,1-2554.136,5751.113Zm-53.167-48.175a5.655,5.655,0,0,0-5.649,5.648v34.879a5.655,5.655,0,0,0,5.649,5.649h53.167a5.655,5.655,0,0,0,5.649-5.649v-34.879a5.655,5.655,0,0,0-5.649-5.648Z" fill="#e08c2f"/>
        <path id="Path_135789" data-name="Path 135789" d="M-2554.136,5696.368H-2607.3a7.657,7.657,0,0,1-7.648-7.648v-5.563a7.657,7.657,0,0,1,7.648-7.648h53.167a7.656,7.656,0,0,1,7.647,7.648v5.563A7.656,7.656,0,0,1-2554.136,5696.368Zm-53.167-18.86a5.655,5.655,0,0,0-5.649,5.649v5.563a5.655,5.655,0,0,0,5.649,5.649h53.167a5.655,5.655,0,0,0,5.649-5.649v-5.563a5.655,5.655,0,0,0-5.649-5.649Z" fill="#e08c2f"/>
        <rect id="Rectangle_32341" data-name="Rectangle 32341" width="56.91" height="1.665" transform="translate(-2608.633 5708.153)" fill="#e08c2f"/>
        <rect id="Rectangle_32342" data-name="Rectangle 32342" width="56.91" height="1.665" transform="translate(-2608.633 5681.568)" fill="#e08c2f"/>
      </g>
    </g>
    <g id="Group_92575" data-name="Group 92575">
      <g id="Group_92559" data-name="Group 92559">
        <g id="Group_92552" data-name="Group 92552">
          <path id="Path_135790" data-name="Path 135790" d="M-2892.526,5635.848c-.7.093-.1.795-.853.8-.064,0-.128,0-.192,0-3.18-.077-8.754-.569-10.267-1.162-.024-.011-.048-.019-.069-.029l-.186-.2h0l-9.624-10.475,0,0-3.018-3.287-.338-.369-10.068-10.957-3.951-4.3a9.465,9.465,0,0,1-2.5-6.414,9.406,9.406,0,0,1,.2-1.96c.018-.09.04-.181.061-.271a9.485,9.485,0,0,1,5.273-6.39l6.119-2.8,5.561,8.76,1.768,2.787,4.494,7.081Z" fill="#f88764"/>
        </g>
        <path id="Path_135791" data-name="Path 135791" d="M-2895.368,5631.864l-5.014,3.694a6.866,6.866,0,0,1,1.454,2.759,24.458,24.458,0,0,0,2.148,6.573l9.771-4.3.577.257-1.016-2-1.489-1.348,1.335.077s2.52,4.416,4.332,3.151l-2.834-5.2-5.59-2.3a4.487,4.487,0,0,0-2.032-.327l-.732.091Z" fill="#f88764"/>
        <g id="Group_92557" data-name="Group 92557">
          <path id="Path_135792" data-name="Path 135792" d="M-2864.071,5694.618h-43.878v-57.174h43.878Zm-41.751-2.127h39.623v-52.92h-39.623Z" fill="#6d1b20"/>
          <rect id="Rectangle_32343" data-name="Rectangle 32343" width="76.587" height="103.978" rx="35.526" transform="translate(-2924.297 5675.471)" fill="#f7a53e"/>
          <path id="Path_135793" data-name="Path 135793" d="M-2885.572,5734.935h-.863a16.1,16.1,0,0,1-16.079-16.078v-41.3a16.1,16.1,0,0,1,16.079-16.078h.863a16.1,16.1,0,0,1,16.078,16.078v41.3A16.1,16.1,0,0,1-2885.572,5734.935Zm-.863-68.875a11.512,11.512,0,0,0-11.5,11.5v41.3a11.512,11.512,0,0,0,11.5,11.5h.863a11.513,11.513,0,0,0,11.5-11.5v-41.3a11.513,11.513,0,0,0-11.5-11.5Z" fill="#f7a53e"/>
          <g id="Group_92555" data-name="Group 92555">
            <g id="Group_92553" data-name="Group 92553">
              <circle id="Ellipse_4196" data-name="Ellipse 4196" cx="5.977" cy="5.977" r="5.977" transform="translate(-2920.966 5779.449)" fill="#6d1b20"/>
              <path id="Path_135794" data-name="Path 135794" d="M-2917.9,5775.67v9.405a2.918,2.918,0,0,0,2.918,2.918h0a2.919,2.919,0,0,0,2.063-.855l7.628-7.742Z" fill="#f7a53e"/>
              <path id="Path_135795" data-name="Path 135795" d="M-2916.7,5785.425a1.711,1.711,0,0,1,1.711-1.711,1.712,1.712,0,0,1,1.712,1.711,1.712,1.712,0,0,1-1.712,1.712A1.711,1.711,0,0,1-2916.7,5785.425Z" fill="#6d1b20"/>
            </g>
            <g id="Group_92554" data-name="Group 92554">
              <circle id="Ellipse_4197" data-name="Ellipse 4197" cx="5.977" cy="5.977" r="5.977" transform="translate(-2862.994 5779.449)" fill="#6d1b20"/>
              <path id="Path_135796" data-name="Path 135796" d="M-2854.108,5775.67v9.405a2.919,2.919,0,0,1-2.918,2.918h0a2.919,2.919,0,0,1-2.063-.855l-7.628-7.742Z" fill="#f7a53e"/>
              <path id="Path_135797" data-name="Path 135797" d="M-2855.306,5785.425a1.711,1.711,0,0,0-1.712-1.711,1.711,1.711,0,0,0-1.711,1.711,1.711,1.711,0,0,0,1.711,1.712A1.712,1.712,0,0,0-2855.306,5785.425Z" fill="#6d1b20"/>
            </g>
          </g>
          <g id="Group_92556" data-name="Group 92556">
            <rect id="Rectangle_32344" data-name="Rectangle 32344" width="5.85" height="84.033" rx="2.714" transform="translate(-2909.671 5685.045)" fill="#e08c2f"/>
            <rect id="Rectangle_32345" data-name="Rectangle 32345" width="5.85" height="84.033" rx="2.714" transform="translate(-2895.843 5685.045)" fill="#e08c2f"/>
            <rect id="Rectangle_32346" data-name="Rectangle 32346" width="5.85" height="84.033" rx="2.714" transform="translate(-2882.015 5685.045)" fill="#e08c2f"/>
            <rect id="Rectangle_32347" data-name="Rectangle 32347" width="5.85" height="84.033" rx="2.714" transform="translate(-2868.187 5685.045)" fill="#e08c2f"/>
          </g>
          <rect id="Rectangle_32348" data-name="Rectangle 32348" width="51.856" height="6.382" rx="2.961" transform="translate(-2912.204 5635.316)" fill="#6d1b20"/>
        </g>
        <g id="Group_92558" data-name="Group 92558">
          <path id="Path_135798" data-name="Path 135798" d="M-2886.944,5642.789a1.878,1.878,0,0,0-.291-2.783l-3.875-3.2s-2.38-2.128-3.043-1.347.04,1.6,1.122,2.994,3.713,4.331,3.713,4.331,1.378.857,2.345.027Z" fill="#f88764"/>
          <path id="Path_135799" data-name="Path 135799" d="M-2892.679,5646.167a1.872,1.872,0,0,0,.4-2.737l-2.866-4.119s-1.721-2.687-2.534-2.124-.351,1.54.328,3.167,2.439,5.157,2.439,5.157,1.087,1.2,2.2.672Z" fill="#f88764"/>
          <path id="Path_135800" data-name="Path 135800" d="M-2895.765,5646.337a1.653,1.653,0,0,0,.65-2.346l-2.025-3.943s-1.192-2.555-1.957-2.159-.474,1.3-.066,2.808,1.541,4.8,1.541,4.8.808,1.177,1.827.85Z" fill="#f88764"/>
          <path id="Path_135801" data-name="Path 135801" d="M-2889.374,5645.261a2.071,2.071,0,0,0,.07-3.054l-3.684-4.159s-2.24-2.731-3.052-2.011-.175,1.734.786,3.434,3.357,5.35,3.357,5.35,1.348,1.178,2.49.461Z" fill="#f88764"/>
        </g>
      </g>
      <ellipse id="Ellipse_4198" data-name="Ellipse 4198" cx="36.938" cy="7.526" rx="36.938" ry="7.526" transform="translate(-2970.171 5504.841) rotate(-35.992)" fill="#68234e"/>
      <g id="Group_92574" data-name="Group 92574">
        <g id="Group_92562" data-name="Group 92562">
          <g id="Group_92561" data-name="Group 92561">
            <path id="Path_135802" data-name="Path 135802" d="M-2918.248,5746.911l6.617,30.175,11.447-2.824-2.529-30.343Z" fill="#f88764"/>
            <g id="Group_92560" data-name="Group 92560">
              <path id="Path_135803" data-name="Path 135803" d="M-2875.6,5791.417h-22.494l-6.456-3.035-.961,3.035h-9.687c.024-5.33,2.529-13.362,2.529-13.362.966-1.852,4.261-3.143,7.25-3.963a46.661,46.661,0,0,1,5.414-1.137,90.656,90.656,0,0,0,13.409,6.063,38.109,38.109,0,0,0,4.493,1.16C-2874.16,5782.33-2875.6,5791.417-2875.6,5791.417Z" fill="#82345d"/>
              <path id="Path_135804" data-name="Path 135804" d="M-2886.594,5779.018a5.025,5.025,0,0,1-4.119,1.814c-5.946.075-12.107-4.537-14.7-6.74a58.41,58.41,0,0,1,6.326-1.27A58.8,58.8,0,0,0-2886.594,5779.018Z" fill="#68234e"/>
            </g>
          </g>
          <path id="Path_135805" data-name="Path 135805" d="M-2914.961,5620.985a121.858,121.858,0,0,1,5.816,25.287c1.264,12.643,8.345,101.9,8.345,101.9a29.8,29.8,0,0,1-17.954,2.528l-17.7-87.237,6.644-41.544Z" fill="#46989d"/>
        </g>
        <g id="Group_92565" data-name="Group 92565">
          <g id="Group_92564" data-name="Group 92564">
            <path id="Path_135806" data-name="Path 135806" d="M-2964.621,5745.673l-.815,26.339-2.187,6.505h12.2l6.322-29.079Z" fill="#f88764"/>
            <g id="Group_92563" data-name="Group 92563">
              <path id="Path_135807" data-name="Path 135807" d="M-2930.686,5791.417h-22.494l-6.457-3.035-.96,3.035h-9.687c.023-5.33,2.529-13.362,2.529-13.362.965-1.852,4.261-3.143,7.249-3.963a46.717,46.717,0,0,1,5.414-1.137,90.656,90.656,0,0,0,13.409,6.063,38.084,38.084,0,0,0,4.494,1.16C-2929.249,5782.33-2930.686,5791.417-2930.686,5791.417Z" fill="#82345d"/>
              <path id="Path_135808" data-name="Path 135808" d="M-2941.683,5779.018a5.023,5.023,0,0,1-4.118,1.814c-5.946.075-12.108-4.537-14.705-6.74a58.47,58.47,0,0,1,6.326-1.27A58.8,58.8,0,0,0-2941.683,5779.018Z" fill="#68234e"/>
            </g>
          </g>
          <path id="Path_135809" data-name="Path 135809" d="M-2948.338,5616.687a45.188,45.188,0,0,0-13.4,22.252c-1.449,5.8-3.614,59.916-3.614,59.916l-1.443,51.343s8.85,5.31,18.459,2.528l21.746-104.432s4.551-2.275,5.31-6.827,0-19.545,0-19.545Z" fill="#46989d"/>
          <path id="Path_135810" data-name="Path 135810" d="M-2947.967,5752.8l-.743-.154,21.784-104.612.164-.082c.044-.022,4.389-2.249,5.106-6.55.743-4.459,0-19.314,0-19.464l.758-.038c.031.614.752,15.087,0,19.626-.707,4.244-4.494,6.546-5.349,7.017Z" fill="#348989"/>
        </g>
        <path id="Path_135811" data-name="Path 135811" d="M-2915.972,5573.194s-2.023-1.517-22.505-3.54c-12.989-1.282-26.791,1.4-35.15,3.535-.19-.258-8.522-11.828-2.02-29.579,0,0-11.5,14.109-2.084,30.7-2.367.688-3.732,1.163-3.732,1.163-13.908-25.792-3.54-39.7,10.873-46.273s16.941-19.218,17.194-29.08,2.276-13.148,5.563-15.93,6.322,2.276,6.322,2.276c20.482-17.953,33.63-12.643,37.423-6.827s-5.31,17.447-5.31,17.447c.506-3.034-1.517-6.574-1.517-6.574s-9.861,9.608-9.861,34.389c0,9.874,15.171,20.735,17.7,27.562S-2915.972,5573.194-2915.972,5573.194Z" fill="#6d1b20"/>
        <path id="Path_135812" data-name="Path 135812" d="M-2903.691,5486.44v0c-1.5,5.267-5.707,10.638-5.707,10.638.506-3.034-1.517-6.574-1.517-6.574a26.607,26.607,0,0,0-4.673,7.338l-5.166-3.682a22.028,22.028,0,0,0,1.495-2.392c2.528-4.8,6.574-11.126,11.378-11.379,3.639-.192,4.17,3.378,4.213,5.123v.018A7.928,7.928,0,0,1-2903.691,5486.44Z" fill="#490a11"/>
        <path id="Path_135813" data-name="Path 135813" d="M-2923.3,5523.886a21.669,21.669,0,0,0,4.046,12.9c2.794,4.037,11.109,10.4,6.186,20.5s-16.048-7.349-17.565-18.475S-2923.3,5523.886-2923.3,5523.886Z" fill="#490a11"/>
        <path id="Path_135814" data-name="Path 135814" d="M-2903.691,5486.44l.023-.9A7.928,7.928,0,0,1-2903.691,5486.44Z" fill="#6d1b20"/>
        <g id="Group_92566" data-name="Group 92566">
          <path id="Path_135815" data-name="Path 135815" d="M-2900.8,5575.217s-2.023,7.333-10.115,13.149a55.6,55.6,0,0,0-4.046,32.872s-18.459,3.287-32.872-4.551c0,0,4.8-12.391,5.058-20.735s-5.563-51.837-5.563-51.837l8.091-4.8,4.984-20.646.326-1.353s3.614,7.626,10.656,9.123a57.8,57.8,0,0,0-.526,5.758c-.132,3.14-.008,6.885,1,9.394.883,2.205,4.6,7.391,8.85,13.126C-2909.466,5562.129-2903.081,5571.225-2900.8,5575.217Z" fill="#f7a53e"/>
          <path id="Path_135816" data-name="Path 135816" d="M-2914.961,5554.713s-1.517,2.3-8.344,1.287c-10.506-1.556-16.942-16.689-16.942-16.689l5.31-22s3.614,7.626,10.656,9.123c0,0-1.553,10.095.47,15.152C-2922.928,5543.792-2919.211,5548.978-2914.961,5554.713Z" fill="#f88764"/>
          <path id="Path_135817" data-name="Path 135817" d="M-2924.281,5526.435a57.8,57.8,0,0,0-.526,5.758c-2.979-.713-5.8-2.058-7.348-4.514a26,26,0,0,1-3.108-9.014l.326-1.353S-2931.323,5524.938-2924.281,5526.435Z" fill="#f0643f"/>
        </g>
        <path id="Path_135818" data-name="Path 135818" d="M-2934.937,5517.312s-4.551,16.942,2.782,30.6,5.057,29.079,5.057,29.079h-2.782s-1.643-33.757-15.532-34.609C-2963.906,5541.243-2934.937,5517.312-2934.937,5517.312Z" fill="#6d1b20"/>
        <path id="Path_135819" data-name="Path 135819" d="M-2985.927,5577.272c-.077-.112-7.674-11.427-6.407-24.356,1.7-17.291,22.52-24.01,22.73-24.076l.3.965c-.2.064-20.4,6.589-22.026,23.21-1.232,12.568,6.161,23.578,6.236,23.688Z" fill="#6d1b20"/>
        <path id="Path_135820" data-name="Path 135820" d="M-2934.4,5611.655l-.032,24.249h-4.552l.126-23.332Z" fill="#82345d"/>
        <g id="Group_92567" data-name="Group 92567">
          <path id="Path_135821" data-name="Path 135821" d="M-2936.96,5562.574c-.194.954-.505,2.521-.9,4.519-.65,3.3-1.523,7.775-2.458,12.58-2.63,13.528-5.748,29.681-5.748,29.681l-11.7-1.856a4.48,4.48,0,0,1-3.747-4.934c.582-5.039,1.606-13.869,2.685-22.772.458-3.768.923-7.548,1.371-11.061.948-7.461,1.8-13.7,2.283-16.018,1.517-7.333,6.828-8.6,6.828-8.6C-2941.258,5541.84-2934.431,5550.184-2936.96,5562.574Z" fill="#f88764"/>
          <path id="Path_135822" data-name="Path 135822" d="M-2937.857,5567.093c-.65,3.3-1.523,7.775-2.458,12.58-9.809,2.617-16.09,1.016-18.505.119.458-3.768.923-7.548,1.371-11.061l15.182-5.4A37.781,37.781,0,0,1-2937.857,5567.093Z" fill="#f0643f"/>
          <path id="Path_135823" data-name="Path 135823" d="M-2961.487,5572.942s3.014,4.277,13.149,5.057a37.452,37.452,0,0,0,11.884-1.012s7-31.724-8.471-34.515C-2958.832,5539.962-2961.487,5572.942-2961.487,5572.942Z" fill="#f7a53e"/>
          <path id="Path_135824" data-name="Path 135824" d="M-2945.638,5578.48c-.878,0-1.792-.031-2.73-.1-10.2-.784-13.3-5.036-13.429-5.217l.619-.438c.03.041,3.07,4.145,12.869,4.9a37.989,37.989,0,0,0,11.532-.94c.463-2.26,4.031-20.824-1.765-29.524a9.575,9.575,0,0,0-6.45-4.312l.135-.746a10.307,10.307,0,0,1,6.947,4.638c6.325,9.5,2.013,29.486,1.826,30.332l-.048.221-.218.062A37.728,37.728,0,0,1-2945.638,5578.48Z" fill="#e08c2f"/>
        </g>
        <path id="Path_135825" data-name="Path 135825" d="M-2903.691,5486.445s.615-6.3-4.19-6.051-8.85,6.575-11.378,11.379-10.494,15.045-17.321,15.551-9.483-7.207-9.483-7.207l26.8-21.493h12.9l2.781,3.287Z" fill="#6d1b20"/>
        <path id="Path_135826" data-name="Path 135826" d="M-2903.693,5486.443l.023-.983A8.642,8.642,0,0,1-2903.693,5486.443Z" fill="#6d1b20"/>
        <g id="Group_92568" data-name="Group 92568">
          <path id="Path_135827" data-name="Path 135827" d="M-2912.434,5508.713c0,1.368-.023,2.642-.059,3.822q-.029.736-.059,1.427a.2.2,0,0,0,0,.047c-.472,9.673-2.15,12.657-2.15,12.657s-14.163,1.773-18.461-5.056c-2.858-4.534-3.57-11.533-3.743-14.269.11,0,.22-.008.331-.016a7.688,7.688,0,0,0,1.317-.212s.023,0,.067-.016c6.483-1.628,13.576-10.844,15.935-15.322.13-.248.264-.5.405-.755a15.287,15.287,0,0,1,2.941,3.566,24.472,24.472,0,0,1,3.3,10.521A35.729,35.729,0,0,1-2912.434,5508.713Z" fill="#f88764"/>
          <path id="Path_135828" data-name="Path 135828" d="M-2915.914,5494.586c-3.1.165-5.5,2.622-9.542,6.924a21.586,21.586,0,0,1-9.739,5.587c6.483-1.628,13.576-10.844,15.935-15.322.13-.248.264-.5.405-.755A15.287,15.287,0,0,1-2915.914,5494.586Z" fill="#f0643f"/>
          <path id="Path_135829" data-name="Path 135829" d="M-2919.259,5506.818c0,1.327-.68,2.4-1.517,2.4s-1.518-1.075-1.518-2.4.68-2.4,1.518-2.4S-2919.259,5505.492-2919.259,5506.818Z"/>
          <path id="Path_135830" data-name="Path 135830" d="M-2908.007,5510.864a8.976,8.976,0,0,1-3.275,2.711h0a6.058,6.058,0,0,1-2.152.561q-.189.015-.387.015l.068-.862.691-8.746Z" fill="#f88764"/>
          <path id="Path_135831" data-name="Path 135831" d="M-2918.627,5499.991s-2.908-.885-5.942,2.908c0,0,3.413-1.644,5.436-1.391S-2917.869,5499.991-2918.627,5499.991Z" fill="#6d1b20"/>
          <path id="Path_135832" data-name="Path 135832" d="M-2914.329,5517.186c-5.689,1.39-8.976-1.644-8.976-1.644s1.256,3.621,3.666,4.425C-2918.121,5520.473-2914.961,5519.841-2914.329,5517.186Z" fill="#fff"/>
          <path id="Path_135833" data-name="Path 135833" d="M-2908.007,5510.864a8.976,8.976,0,0,1-3.275,2.711h0a10.505,10.505,0,0,1-2.152.561,5.735,5.735,0,0,1-1.651.015s.541-.369,1.332-.862C-2912.01,5512.2-2909.051,5510.515-2908.007,5510.864Z" fill="#f0643f"/>
        </g>
        <g id="Group_92571" data-name="Group 92571">
          <rect id="Rectangle_32349" data-name="Rectangle 32349" width="16.88" height="25.47" transform="matrix(0.866, 0.5, -0.5, 0.866, -2893.859, 5585.295)" fill="#6d1b20"/>
          <path id="Path_135834" data-name="Path 135834" d="M-2902.318,5605.055l-48.064,9.889a9.372,9.372,0,0,1-1.709.193c-.066,0-.134,0-.2,0a9.479,9.479,0,0,1-4.164-.963,9.529,9.529,0,0,1-2.289-1.571,9.482,9.482,0,0,1-2.971-8l.749-6.688,15.457-.392h0l.733-.018,41.444-1.049Z" fill="#f88764"/>
          <path id="Path_135835" data-name="Path 135835" d="M-2944.712,5597.36l-.061.147-6.81,16.669s-.192.379-.508.961c-.066,0-.134,0-.2,0a9.479,9.479,0,0,1-4.164-.963c2.746-13.141,8.777-16.029,10.946-16.651h0A4.53,4.53,0,0,1-2944.712,5597.36Z" fill="#f0643f"/>
          <g id="Group_92570" data-name="Group 92570">
            <g id="Group_92569" data-name="Group 92569">
              <path id="Path_135836" data-name="Path 135836" d="M-2893.91,5602.5c.319-.907,1.7-1.173,2.815-.614l4.839,2.421s3.13,1.435,2.677,2.264-1.562.466-3.394-.054-5.858-1.923-5.858-1.923-1.451-.948-1.09-2.061Z" fill="#f88764"/>
              <path id="Path_135837" data-name="Path 135837" d="M-2895.7,5608.16c.025-.937,1.238-1.5,2.456-1.21l5.27,1.241s3.37.679,3.2,1.572-1.325.791-3.2.7-6.076-.54-6.076-.54-1.648-.584-1.645-1.729Z" fill="#f88764"/>
              <path id="Path_135838" data-name="Path 135838" d="M-2895.349,5610.952c-.1-.823.875-1.436,1.966-1.307l4.719.554s3,.253,2.968,1.053-1.042.826-2.677.935-5.324.141-5.324.141-1.5-.345-1.648-1.347Z" fill="#f88764"/>
              <path id="Path_135839" data-name="Path 135839" d="M-2895.19,5605.415c.167-1.006,1.6-1.467,2.912-1.016l5.678,1.951s3.649,1.124,3.323,2.065-1.592.7-3.666.38-6.679-1.291-6.679-1.291-1.746-.821-1.574-2.052Z" fill="#f88764"/>
            </g>
            <path id="Path_135840" data-name="Path 135840" d="M-2902.4,5596.082a10.558,10.558,0,0,1,7.121.385c3.325,1.216,9.219,2.787,9.219,2.787s-.744,2.343-4.3,1.655-3.907-.1-3.907-.1l2.779.942c-.063,2.186-2.358,7.731-2.415,10.451,0,.243-4.369-2.078-6.945-3.47a10.076,10.076,0,0,1-3.181-2.7c-.584-.753-.223-.135-1.12-1.34-4.273,2.808-3.709-3.044-6.439-4.806,2.432-1.208,1.064-.621,3.926-1.911C-2906.153,5597.3-2902.4,5596.082-2902.4,5596.082Z" fill="#f88764"/>
            <path id="Path_135841" data-name="Path 135841" d="M-2884.749,5607.47a.514.514,0,0,1-.066-.005l-5.852-.954-3.242-1.9a.408.408,0,0,1-.145-.559.408.408,0,0,1,.559-.146l3.11,1.827,5.7.928a.409.409,0,0,1,.337.47A.409.409,0,0,1-2884.749,5607.47Z" fill="#f0643f"/>
            <path id="Path_135842" data-name="Path 135842" d="M-2885.3,5609.487h-.025l-6.419-.385-3.277-1.676a.408.408,0,0,1-.177-.55.41.41,0,0,1,.55-.178l3.124,1.6,6.248.375a.409.409,0,0,1,.384.433A.408.408,0,0,1-2885.3,5609.487Z" fill="#f0643f"/>
            <path id="Path_135843" data-name="Path 135843" d="M-2886.538,5611h-5.992l-3.339-1.554a.409.409,0,0,1-.2-.543.408.408,0,0,1,.543-.2l3.175,1.477h5.811a.41.41,0,0,1,.409.409A.409.409,0,0,1-2886.538,5611Z" fill="#f0643f"/>
          </g>
        </g>
        <g id="Group_92572" data-name="Group 92572">
          <path id="Path_135844" data-name="Path 135844" d="M-2935.7,5506.945s-3.54-3.035-6.575,0,2.276,11.884,7.839,10.114S-2935.7,5506.945-2935.7,5506.945Z" fill="#f88764"/>
          <path id="Path_135845" data-name="Path 135845" d="M-2934.936,5513.9a.379.379,0,0,1-.336-.2c-.756-1.428-1.607-2.241-2.529-2.414a2.243,2.243,0,0,0-1.742.448.378.378,0,0,1-.535-.04.38.38,0,0,1,.039-.535,3.027,3.027,0,0,1,2.378-.619c1.161.219,2.19,1.162,3.059,2.8a.377.377,0,0,1-.157.512A.383.383,0,0,1-2934.936,5513.9Z" fill="#f0643f"/>
          <path id="Path_135846" data-name="Path 135846" d="M-2937.7,5513.475a.379.379,0,0,1-.343-.217.379.379,0,0,1,.18-.5l1.9-.9a.381.381,0,0,1,.506.18.38.38,0,0,1-.181.505l-1.9.9A.373.373,0,0,1-2937.7,5513.475Z" fill="#f0643f"/>
        </g>
        <g id="Group_92573" data-name="Group 92573">
          <path id="Path_135847" data-name="Path 135847" d="M-2968.719,5634.261h48.4l3.866,25.13a9.573,9.573,0,0,1-9.462,11.029h-37.592a9.573,9.573,0,0,1-9.439-11.17Z" fill="#82345d"/>
          <path id="Path_135848" data-name="Path 135848" d="M-2943.871,5597.484s-12.559-2.543-11.8,38.42h5.815s-1.32-35.111,10.845-38.543Z" fill="#82345d"/>
          <path id="Path_135849" data-name="Path 135849" d="M-2970.19,5642.951h51.205l.737,4.788H-2971Z" fill="#68234e"/>
        </g>
      </g>
      <path id="Path_135850" data-name="Path 135850" d="M-2924.012,5473.612c-1.351,4.3-5.64,9.632-11.744,14.066-6.52,4.736-13.375,7.183-17.9,6.776-2.883-4.144,1.259-12.188,9.307-18.037,8.1-5.884,17.1-7.316,20.087-3.194C-2924.174,5473.348-2924.091,5473.479-2924.012,5473.612Z" fill="#68234e"/>
      <path id="Path_135851" data-name="Path 135851" d="M-2906.548,5471.489c-6.372,1.606-17.442,7.574-29.082,16.028-12.457,9.048-22.007,18.357-24.89,23.823-2.664.673-4.5.581-5.227-.411-2.444-3.361,8.957-15.807,25.463-27.8s31.867-18.979,34.309-15.617C-2905.376,5468.341-2905.609,5469.713-2906.548,5471.489Z" fill="#82345d"/>
    </g>
  </g>
</svg>
