<svg xmlns="http://www.w3.org/2000/svg" width="400" height="362" viewBox="0 0 400 362">
  <g id="t1-i9" transform="translate(-180 -13583)">
    <rect id="Rectangle_32367" data-name="Rectangle 32367" width="400" height="362" transform="translate(180 13583)" fill="none"/>
    <g id="Group_92601" data-name="Group 92601" transform="translate(676.823 11472.465)">
      <path id="Path_135969" data-name="Path 135969" d="M-286.918,2127.858c-25.665,10.182-50.063,31.984-69.28,52.31-40.019,42.328-26.327,51.227-75.7,86.764-28.773,20.711-41.627,38.227-52.8,61.655-31.4,65.807,6,136.885,84.365,136.885h193.7s37.472.9,64.817-34.271c92.679-119.214,34.328-374.53-145.1-303.343" fill="#eaf1f9" fill-rule="evenodd"/>
      <rect id="Rectangle_32368" data-name="Rectangle 32368" width="396.223" height="0.846" transform="translate(-495.823 2465.472)" fill="#000446"/>
      <g id="Group_92599" data-name="Group 92599">
        <path id="Path_135970" data-name="Path 135970" d="M-156.9,2317.2a2.144,2.144,0,0,0,1.365.491h14.856a2.144,2.144,0,0,0,1.365-.491h.66a3.559,3.559,0,0,1,2.521,1.05,3.559,3.559,0,0,1,1.051,2.521V2395.6h-26.113v-74.831a3.565,3.565,0,0,1,1.047-2.524,3.57,3.57,0,0,1,2.524-1.047Zm16.221-3.81h-14.856a2.136,2.136,0,0,0-1.3.441h-.789a6.911,6.911,0,0,0-4.9,2.037l-.006.007a6.912,6.912,0,0,0-2.038,4.9v78.2h32.85v-78.2a6.921,6.921,0,0,0-2.037-4.9,6.918,6.918,0,0,0-4.9-2.037h-.725A2.134,2.134,0,0,0-140.677,2313.388Z" fill="#36256b" fill-rule="evenodd"/>
        <path id="Path_135971" data-name="Path 135971" d="M-149.128,2308.548c2.106.93,3.441,2.555,5.725,3.422a11.669,11.669,0,0,0,3.03.857c1.168.067.426,1.334-.246,1.63-1.9.839-3.853.268-3.867.416-.013.672,1.334,3,1.2,3.124-3.36,3.024-8.922,2.311-10.058,1.643-.872-.512.323-3.45-4.222-8.54-6.5-6.969-29.529-31.859-34.918-41.1-2.59-3.985-1.535-1.016-7.649-10.861-5.443-8.765-11.106-13.093-4.484-18.189,6.982-5.372,12.125-2.332,16.554,3.96,4.978,9.71,3.481,6,10.028,18.317.176,2.038,23.653,35.587,26.929,42.555a19.848,19.848,0,0,0,1.976,2.765" fill="#f4b1b1" fill-rule="evenodd"/>
        <path id="Path_135972" data-name="Path 135972" d="M-289.53,2163.712l-1.333-.658-9.111,2.474.156,29.6,10.52-1.841Z" fill="#1f3e7a" fill-rule="evenodd"/>
        <path id="Path_135973" data-name="Path 135973" d="M-297.862,2165.911l-1.356.246v4.421l1.356-.246Z" fill="#fff" fill-rule="evenodd"/>
        <path id="Path_135974" data-name="Path 135974" d="M-258.54,2225.011c-6.031,13.237-14.862,28.69-32.124,31.261-12.064,1.8-10.264-34.693-8.27-50.888.262-4.034,1.535-6.015-1.259-9.714-2.572-3.408-1.094-16.976.922-16.238,1.061.79.521,6.506,1.326,6.8.453.163,1.668-4.674,2.163-4.2.536.514-.009,6.227.436,7.115.227-.546,2.993-4.984,3.325-3.742.266-.437-1.412,5.981-1.07,5.883.391-.112,3.724-2.136,3.863-1.44.115.575-1.145,3.851-1.386,5.648-.518,3.847.1,7.7.642,11.518,1.434,9.148,2.687,25.75,4.521,25.621,1.992-.14,12.4-23.6,24.636-28.047,1.452-.935,6.521,14.032,2.275,20.427" fill="#f4b1b1"/>
        <path id="Path_135975" data-name="Path 135975" d="M-163.37,2369.372H-183.4a3.787,3.787,0,0,0-3.788,3.787v88.209a3.787,3.787,0,0,0,3.788,3.787h20.026a3.786,3.786,0,0,0,3.787-3.787v-88.209a3.787,3.787,0,0,0-3.787-3.787" fill="#5038a1" fill-rule="evenodd"/>
        <path id="Path_135976" data-name="Path 135976" d="M-171.891,2369.372h57.71a3.788,3.788,0,0,1,3.788,3.787v88.209a3.787,3.787,0,0,1-3.788,3.787h-57.71a3.787,3.787,0,0,1-3.788-3.787v-88.209a3.787,3.787,0,0,1,3.788-3.787" fill="#8c6df2" fill-rule="evenodd"/>
        <path id="Path_135977" data-name="Path 135977" d="M-143.291,2407.912h0c13.7,0,24.825.728,24.825,1.627v44.093c0,.9-11.122,1.626-24.825,1.626s-24.825-.728-24.825-1.626v-44.093c0-.9,11.112-1.627,24.825-1.627" fill="#5038a1" fill-rule="evenodd"/>
        <path id="Path_135978" data-name="Path 135978" d="M-118.466,2451.887v1.745c0,.9-11.121,1.626-24.825,1.626s-24.825-.728-24.825-1.626v-44.093c0-.305.7-.522,2.915-.766l-.189,43.1s26.681.943,36.126.589,8.422-.391,10.8-.576" fill="#36256b" fill-rule="evenodd"/>
        <path id="Path_135979" data-name="Path 135979" d="M-281.381,2297.3c-4.174,28.008,1.216,97.747,4.407,149.526l-.5-.048s-.4,4.471-3.831,6.341-9.414,3.334-11.444,5.276c-1.464,1.4-7.069,9.333,12.99,8.805,14.25-.375,17.647-1.368,19.172-3.68.214-.323,12.847-112.564,14.329-121.485,2.545,11.37,31.356,108.36,31.348,108.421-.237,1.717-2.516,6.272-5.056,9.107-.777,2.781-2.637,7.675,11.178,7.556s10.978-3.769,12.457-6.01c-6.13-57.656-16.839-151.208-19.93-166.55l-.009.005c-2.463-98.689-54.9-73.257-50.183-13.51.533,6.751-12.556,6.937-14.929,16.246" fill="#12263f" fill-rule="evenodd"/>
        <path id="Path_135980" data-name="Path 135980" d="M-258.25,2225.3c-4.89,10.734-12.7,28.981-27.986,29.983,3.609-5.6,3.772-20.124.056-23.242,1.155.618,14.511-25.474,24.783-29.2,1.453-.935,7.394,16.067,3.147,22.463" fill="#ffb74d"/>
        <path id="Path_135981" data-name="Path 135981" d="M-206.061,2211.683c5.749,8.572-13.159,46.333-8.363,89.88-26.89,4.619-51.843,3.075-67.9-2.039.752-17.744,1.6-81.817,20.929-96.684,19.13-5.361,47.459-2.9,55.336,8.843" fill="#ffb74d"/>
        <path id="Path_135982" data-name="Path 135982" d="M-209.563,2242.693c-2.64,14.993-7.057,38.935-4.862,58.87q-1.411.243-2.815.46c-6.389-19.44-2.053-46.619,2.216-66.245Z" fill="#ffb74d" fill-rule="evenodd" style="mix-blend-mode: multiply;isolation: isolate"/>
        <path id="Path_135983" data-name="Path 135983" d="M-252.048,2200.93a56.681,56.681,0,0,1,24.036.136c1.884,5.329-4.467,15.559-20.32,14.045-4.324-.731-8.545-9.773-3.716-14.181" fill="#ffb74d" style="mix-blend-mode: multiply;isolation: isolate"/>
        <path id="Path_135984" data-name="Path 135984" d="M-256.451,2187.774c1.89,3.763,4.54,6.665,7.493,8.08l-.1,5.47-.8.677c-3.117,3.339.258,10.2,3.807,9.984,8.975.443,15.864-6.917,13.167-10.912l-1.172-1.306-.259-7.74c.464-.026,3.834-1.942,4.837-2.25s2.475-2.241,2.574-4.282-3.055-1.38-3.055-1.38c3.82-5.228,8.146-9.5,2.537-14.205s-18.493-7.454-18.493-7.454l-7.755-2.688c.987,2.675.288,10.946-1.7,16.521-1.785,5-3.618,6.432-1.081,11.485" fill="#f4b1b1" fill-rule="evenodd"/>
        <path id="Path_135985" data-name="Path 135985" d="M-237.966,2193.1s-4.386,7.522-7.989,8.2-1.761.178-3.1.018l.1-5.47c2.483.4,4.912.2,10.992-2.752" fill="#e98385" fill-rule="evenodd"/>
        <path id="Path_135986" data-name="Path 135986" d="M-227.843,2306.344c2.327,3.866,8.431,8.246,14.343,6.713.11.7.258,1.376.328,2.1-6.351,2.678-15.579-2.724-17.043-8.3Z" fill="#ffdc72" fill-rule="evenodd"/>
        <path id="Path_135987" data-name="Path 135987" d="M-252.3,2171.742c6.367,3.262,13.7-.608,17.407,3.759,1.837,2.163,1.652,5.281-.4,10.1-.606,1.419-1.415,2.463.981,1.353,1.1-.509,2.912-1.221,3.531-.721,1.378,1.112.683,3.452-.416,4.205-.49.337-1.419.839-1.419.839,8.564-1.624,12.133-9.351,12.012-15.572a26.479,26.479,0,0,0-.676-5.652,6.187,6.187,0,0,0,.271-1.819,5.9,5.9,0,0,0-4.076-5.7,5.747,5.747,0,0,0-5.584-4.973,5.412,5.412,0,0,0-2.371.545l-.283-.074a5.965,5.965,0,0,0-5.166-2.955,5.973,5.973,0,0,0-4.019,1.542,8.164,8.164,0,0,0-6.561-3.474c-4.7,0-8.509,4.284-8.509,9.568a9.92,9.92,0,0,0,3.761,7.94,9.515,9.515,0,0,0,1.522,1.091" fill="#12263f" fill-rule="evenodd"/>
        <path id="Path_135988" data-name="Path 135988" d="M-219.777,2223.71c.442-9.405,4.438-21.561,11.851-14.278,10.359,10.179,17.857,32.136,25.464,42.276.734.978-.984,1.753-.985,1.749a2.418,2.418,0,0,0-1.954-1.376c-1.641,0-5.8,2.761-13.41,7.083a1.337,1.337,0,0,0-.39,1.48l-1.384-.405c-7.181-6.247-19.644-26.89-19.192-36.529" fill="#ffb74d"/>
        <path id="Path_135989" data-name="Path 135989" d="M-185.26,2455.887a4.639,4.639,0,0,1,4.64,4.639,4.64,4.64,0,0,1-4.64,4.64,4.64,4.64,0,0,1-4.639-4.64,4.639,4.639,0,0,1,4.639-4.639" fill="#36256b" fill-rule="evenodd"/>
        <path id="Path_135990" data-name="Path 135990" d="M-186.847,2455.887a4.639,4.639,0,0,1,4.639,4.639,4.64,4.64,0,0,1-4.639,4.64,4.64,4.64,0,0,1-4.64-4.64,4.639,4.639,0,0,1,4.64-4.639" fill="#12263f" fill-rule="evenodd"/>
      </g>
      <g id="Group_92600" data-name="Group 92600">
        <path id="Path_135991" data-name="Path 135991" d="M-474.22,2222.952h145.459a18.552,18.552,0,0,1,18.5,18.5v207.17a16.9,16.9,0,0,1-16.853,16.853h-147.1Z" fill="#3d7dda" fill-rule="evenodd"/>
        <path id="Path_135992" data-name="Path 135992" d="M-474.052,2225.161h142.811a18.215,18.215,0,0,1,18.16,18.16v203.4a16.594,16.594,0,0,1-16.546,16.546H-474.052Z" fill="#fff"/>
        <path id="Path_135993" data-name="Path 135993" d="M-486.981,2222.952h145.459a18.552,18.552,0,0,1,18.5,18.5v207.17a16.9,16.9,0,0,1-16.853,16.853h-147.1Z" fill="#5b94ea" fill-rule="evenodd"/>
        <path id="Path_135994" data-name="Path 135994" d="M-341.057,2277.153h-3.795v-16.6h-5.223v-3.034h14.237v3.034h-5.219Zm-22.247-10.9h4.4a4.264,4.264,0,0,0,2.847-.8,2.765,2.765,0,0,0,.933-2.214,2.629,2.629,0,0,0-.918-2.091,3.793,3.793,0,0,0-2.577-.8H-363.3Zm11.766,10.9h-3.74l-3.049-8.07H-363.3v8.07h-3.534v-19.631h8.511q3.551,0,5.219,1.6a5.48,5.48,0,0,1,1.669,4.148,5.187,5.187,0,0,1-3.54,5.2Zm-26.994-2.548a4.063,4.063,0,0,0,3.235-1.581q1.324-1.582,1.325-5.738a10.768,10.768,0,0,0-1.094-5.3,3.634,3.634,0,0,0-3.393-1.919q-4.549,0-4.545,7.319a10.144,10.144,0,0,0,1.158,5.385A3.693,3.693,0,0,0-378.532,2274.6Zm-.03,2.852a7.178,7.178,0,0,1-6.092-2.935,11.858,11.858,0,0,1-2.174-7.251,11.08,11.08,0,0,1,2.312-7.167,7.457,7.457,0,0,1,6.112-2.887,7.216,7.216,0,0,1,6.047,2.887,11.444,11.444,0,0,1,2.224,7.211,11.186,11.186,0,0,1-2.307,7.344A7.559,7.559,0,0,1-378.562,2277.457Zm-21.344-11.119h4.187a3.539,3.539,0,0,0,2.5-.8,2.785,2.785,0,0,0,.864-2.145,2.961,2.961,0,0,0-.8-2.072,3.867,3.867,0,0,0-2.887-.859h-3.868Zm0,10.815h-3.534v-19.631h8.035a6.777,6.777,0,0,1,5.1,1.733,5.721,5.721,0,0,1,1.659,4.089,5.66,5.66,0,0,1-1.8,4.359,6.432,6.432,0,0,1-4.56,1.669h-4.9Zm-22.419-4.733,3.436-.731q.619,2.916,4.747,2.916a4.814,4.814,0,0,0,2.9-.746,2.221,2.221,0,0,0,1.012-1.856,2.623,2.623,0,0,0-.457-1.487,3.306,3.306,0,0,0-1.973-1.071l-3.751-.981a9.329,9.329,0,0,1-2.847-1.139,4.5,4.5,0,0,1-1.478-1.806,5.738,5.738,0,0,1-.554-2.489,5.168,5.168,0,0,1,1.959-4.222,7.667,7.667,0,0,1,5-1.591,9.175,9.175,0,0,1,4.525,1.11,4.982,4.982,0,0,1,2.539,3.137l-3.368.834q-.773-2.231-3.623-2.228a3.976,3.976,0,0,0-2.523.687,2.15,2.15,0,0,0-.869,1.758q0,1.679,2.73,2.356l3.338.834q3.033.759,4.069,2.248a5.633,5.633,0,0,1,1.036,3.29,5.407,5.407,0,0,1-2.18,4.55,9.077,9.077,0,0,1-5.645,1.664,10.385,10.385,0,0,1-5.11-1.227A5.971,5.971,0,0,1-422.325,2272.42Zm-16.828,0,3.436-.731q.62,2.916,4.748,2.916a4.813,4.813,0,0,0,2.895-.746,2.221,2.221,0,0,0,1.012-1.856,2.623,2.623,0,0,0-.457-1.487,3.306,3.306,0,0,0-1.973-1.071l-3.751-.981a9.31,9.31,0,0,1-2.846-1.139,4.491,4.491,0,0,1-1.478-1.806,5.725,5.725,0,0,1-.555-2.489,5.168,5.168,0,0,1,1.959-4.222,7.667,7.667,0,0,1,5-1.591,9.179,9.179,0,0,1,4.526,1.11,4.983,4.983,0,0,1,2.538,3.137l-3.367.834q-.774-2.231-3.623-2.228a3.977,3.977,0,0,0-2.524.687,2.15,2.15,0,0,0-.869,1.758q0,1.679,2.73,2.356l3.338.834q3.033.759,4.069,2.248a5.633,5.633,0,0,1,1.036,3.29,5.408,5.408,0,0,1-2.179,4.55,9.08,9.08,0,0,1-5.646,1.664,10.385,10.385,0,0,1-5.11-1.227A5.975,5.975,0,0,1-439.153,2272.42Zm-6.6-2.773-2.862-8.762-2.862,8.762Zm6.3,7.506h-3.78l-1.571-4.673h-7.55l-1.536,4.673h-3.019l6.514-19.631h4.354Zm-28.217-10.815h4.187a3.541,3.541,0,0,0,2.5-.8,2.785,2.785,0,0,0,.864-2.145,2.961,2.961,0,0,0-.8-2.072,3.867,3.867,0,0,0-2.887-.859h-3.868Zm0,10.815h-3.534v-19.631h8.035a6.777,6.777,0,0,1,5.1,1.733,5.721,5.721,0,0,1,1.659,4.089,5.663,5.663,0,0,1-1.8,4.359,6.434,6.434,0,0,1-4.56,1.669h-4.9Z" fill="#fff" fill-rule="evenodd"/>
        <path id="Path_135995" data-name="Path 135995" d="M-425.769,2376.21a55.328,55.328,0,0,0-13.508,4.834q1.373,1.668,2.9,3.2a44.319,44.319,0,0,0,19.771,11.462,37.1,37.1,0,0,1-5.507-8.886,63.487,63.487,0,0,1-3.659-10.61m55.04,4.834a55.41,55.41,0,0,0-13.506-4.834,63.464,63.464,0,0,1-3.661,10.61,37.1,37.1,0,0,1-5.507,8.886,44.334,44.334,0,0,0,19.771-11.462Q-372.1,2382.716-370.729,2381.044Zm-12.942-49.14a54.928,54.928,0,0,0,14.311-5.455,44.621,44.621,0,0,0-4.272-4.949,44.332,44.332,0,0,0-19.771-11.461,37.07,37.07,0,0,1,5.508,8.886A65.994,65.994,0,0,1-383.671,2331.9Zm-56.974-5.455a54.928,54.928,0,0,0,14.311,5.455,66.038,66.038,0,0,1,4.224-12.979,37.107,37.107,0,0,1,5.508-8.886,44.323,44.323,0,0,0-19.773,11.461A44.8,44.8,0,0,0-440.645,2326.449Zm33.345,7.84v-25.433c-5.006,1.519-8.658,7.629-10.635,11.971a61.249,61.249,0,0,0-3.911,12.026A93.519,93.519,0,0,0-407.3,2334.289Zm-13.967,41.008a58.522,58.522,0,0,0,3.332,9.62c1.976,4.343,5.628,10.452,10.635,11.971v-22.923A93.956,93.956,0,0,0-421.267,2375.3Zm18.563-1.332v22.923c5.007-1.519,8.66-7.627,10.636-11.971a58.805,58.805,0,0,0,3.332-9.62A94.1,94.1,0,0,0-402.7,2373.965Zm0-65.109v25.433a93.518,93.518,0,0,0,14.545-1.436,61.465,61.465,0,0,0-3.909-12.026C-394.045,2316.485-397.7,2310.376-402.7,2308.856Zm35.891,21.423a57.44,57.44,0,0,1-15.981,6.142,98.716,98.716,0,0,1,1.306,14.152H-360.7A44.161,44.161,0,0,0-366.813,2330.279Zm-35.891,20.294h16.618a94.622,94.622,0,0,0-1.2-13.21,98.31,98.31,0,0,1-15.416,1.523Zm-21.215,0H-407.3v-11.687a98.347,98.347,0,0,1-15.418-1.523A94.616,94.616,0,0,0-423.919,2350.573Zm-25.391,0h20.794a98.717,98.717,0,0,1,1.3-14.152,57.554,57.554,0,0,1-15.98-6.143A44.164,44.164,0,0,0-449.31,2350.573Zm20.794,4.6H-449.31a44.128,44.128,0,0,0,7.278,22.143,59.068,59.068,0,0,1,15.256-5.583A97.107,97.107,0,0,1-428.516,2355.171Zm6.235,15.643a98.005,98.005,0,0,1,14.981-1.445v-14.2h-16.619A92.709,92.709,0,0,0-422.281,2370.814Zm34.556,0a92.6,92.6,0,0,0,1.639-15.643H-402.7v14.2A98.114,98.114,0,0,1-387.725,2370.814Zm27.03-15.643h-20.793a97.131,97.131,0,0,1-1.742,16.561,59.151,59.151,0,0,1,15.258,5.582A44.12,44.12,0,0,0-360.7,2355.171ZM-405,2303.91a48.813,48.813,0,0,1,34.621,14.341,48.813,48.813,0,0,1,14.339,34.621,48.815,48.815,0,0,1-14.339,34.621A48.814,48.814,0,0,1-405,2401.832a48.815,48.815,0,0,1-34.622-14.339,48.815,48.815,0,0,1-14.339-34.621,48.813,48.813,0,0,1,14.339-34.621A48.812,48.812,0,0,1-405,2303.91Z" fill="#fff"/>
        <path id="Path_135996" data-name="Path 135996" d="M-389.864,2435.722v1.161a2.769,2.769,0,0,1-2.761,2.76h-21.88a2.768,2.768,0,0,1-2.761-2.76v-1.161Zm-24.641-6.878h21.88a2.77,2.77,0,0,1,2.761,2.761v1.161h-27.4V2431.6A2.769,2.769,0,0,1-414.505,2428.844Z" fill="#fff" fill-rule="evenodd"/>
        <rect id="Rectangle_32369" data-name="Rectangle 32369" width="110.173" height="52.05" transform="translate(-460.124 2170.902)" fill="#ffb74d"/>
        <path id="Path_135997" data-name="Path 135997" d="M-453.129,2145.836h110.173l-7,25.066H-460.124Z" fill="#ffdc72" fill-rule="evenodd"/>
        <rect id="Rectangle_32370" data-name="Rectangle 32370" width="4.664" height="27.014" transform="translate(-445.259 2195.938)" fill="#fff"/>
        <rect id="Rectangle_32371" data-name="Rectangle 32371" width="4.664" height="27.014" transform="translate(-431.415 2195.938)" fill="#fff"/>
        <rect id="Rectangle_32372" data-name="Rectangle 32372" width="4.664" height="27.014" transform="translate(-417.571 2195.938)" fill="#fff"/>
        <rect id="Rectangle_32373" data-name="Rectangle 32373" width="4.664" height="27.014" transform="translate(-403.726 2195.938)" fill="#fff"/>
        <rect id="Rectangle_32374" data-name="Rectangle 32374" width="4.664" height="27.014" transform="translate(-367.44 2195.938)" fill="#fff"/>
      </g>
    </g>
  </g>
</svg>
