<svg xmlns="http://www.w3.org/2000/svg" width="190" height="560.354" viewBox="0 0 190 560.354">
  <g id="t1-i8" transform="translate(-285 -11455.646)">
    <path id="Path_135488" data-name="Path 135488" d="M0-155.333H124a66,66,0,0,1,66,66V91H0Z" transform="translate(285 11880.989)" fill="#ffdc72" opacity="0.5"/>
    <g id="Group_92479" data-name="Group 92479" transform="translate(3756.444 9227.079)">
      <g id="Group_92386" data-name="Group 92386" transform="translate(-3471.444 2764.342)" opacity="0.25">
        <g id="Group_92385" data-name="Group 92385">
          <g id="Group_92384" data-name="Group 92384">
            <path id="Path_135403" data-name="Path 135403" d="M-3286.455,2703.48c0,6.788-41.41,12.29-92.493,12.29s-92.5-5.5-92.5-12.29,41.412-12.289,92.5-12.289S-3286.455,2696.694-3286.455,2703.48Z" transform="translate(3471.445 -2691.191)" fill="#231f20"/>
          </g>
        </g>
      </g>
      <ellipse id="Ellipse_4104" data-name="Ellipse 4104" cx="13.114" cy="20.458" rx="13.114" ry="20.458" transform="translate(-3404.242 2284.799)" fill="#603913"/>
      <path id="Path_135404" data-name="Path 135404" d="M-3348.864,2332.465c7.542,4.938,26.617,53.442,30.856,91.346,0,0-13.439,5.422-17.658,3.061-5.446-3.048-23.779-62.624-23.779-62.624Z" transform="translate(17.71 16.428)" fill="#8c6df2"/>
      <path id="Path_135405" data-name="Path 135405" d="M-3342.846,2392.341c-1.714-10.317-4.386-20.489-6.91-30.634-1.29-5.188-2.264-10.7-4.36-15.615l-5.327,16s9.734,31.625,17.123,49.969C-3342.258,2405.184-3341.865,2398.242-3342.846,2392.341Z" transform="translate(17.71 18.583)" fill="#5038a1"/>
      <path id="Path_135406" data-name="Path 135406" d="M-3340.274,2420.258c-.82-.758-10.241-7.417-4.238-19.069s10.947-12.008,10.947-12.008,20.129,12.714,16.6,22.249S-3330.74,2429.087-3340.274,2420.258Z" transform="translate(19.756 25.396)" fill="#e6e7e8"/>
      <path id="Path_135407" data-name="Path 135407" d="M-3425.985,2334.96c-8.077,6.006-26.142,76.241-26.37,96.114-.067,5.837,16.245,16.245,20.482,7.768s24.061-76.278,24.061-76.278Z" transform="translate(3.019 16.823)" fill="#8c6df2"/>
      <path id="Path_135408" data-name="Path 135408" d="M-3439.221,2486.615s5.587,10.808,6.505,13.513,3.554,14.244,3.554,14.244-2.533,1.707-5.646-3.01-2.849-7.667-4.875-6.133-2.268,14.361-2.688,15.867-1.646,9.325-3.917,9.4-2.046-.538-2.046-.538-2.522,1.206-2.444-.436c.028-.558-1.9-13.76-3.674-16.87s.291-19.113-.122-21.552a27.814,27.814,0,0,1,.623-10.676l14.28,3.1Z" transform="translate(2.572 39.823)" fill="#fab57a"/>
      <path id="Path_135409" data-name="Path 135409" d="M-3452.034,2417.951l-2.354,74.4c3.824,2.869,8.79,2.968,14.553,1.132l8.519-70.818Z" transform="translate(2.697 29.945)" fill="#fab57a"/>
      <path id="Path_135410" data-name="Path 135410" d="M-3433.664,2442.644l2.131-19.983-20.718-4.709-.77,24.366C-3446.566,2442.291-3440.114,2442.423-3433.664,2442.644Z" transform="translate(2.914 29.945)" fill="#e58052"/>
      <path id="Path_135411" data-name="Path 135411" d="M-3456.624,2414.3c8.475-1.06,28.251,7.416,30.371,10.594s-2.825,15.538-2.825,15.538l-27.546-2.472Z" transform="translate(2.344 29.354)" fill="#e6e7e8"/>
      <path id="Path_135412" data-name="Path 135412" d="M-3306.916,2346.087s-3.282,75.189-23.313,78.45c0,0-5.246,1.561-10.6-5.771-7.323-4.54,20.423-63.076,22.02-73.845Z" transform="translate(20.46 18.397)" fill="#fab57a"/>
      <path id="Path_135413" data-name="Path 135413" d="M-3400.83,2703.537s18.4-75.714,27.1-93.991,9.138-30.46,14.8-40.033,29.091-85.288,22.128-112.266l-44.819,31.765-7.334,74.845s-3.046,25.238-5.656,30.024-9.138,21.322-12.619,37.858,6.839,39.162-4.91,52.652-1.741,15.665-4.787,26.979-7.832,24.368-2.61,27.414,17.841,3.917,18.711-.434S-3404.312,2716.591-3400.83,2703.537Z" transform="translate(7.84 36.159)" fill="#e78052"/>
      <path id="Path_135414" data-name="Path 135414" d="M-3337.964,2440.778c1.268,10.945,2.271,33.726.353,39.689-3.916,12.184-36.552,21.322-36.552,21.322s1.305,9.573,2.176,25.238,3.916,44.82,1.741,52.216,1.988,73.975,5.47,89.64,8.516,33.506,12.432,47.43,11.749,24.8,12.619,29.155-6.963,4.352-18.711,3.046-11.314-10.008-11.749-17.84-9.138-10.879-9.573-15.666,2.611-15.665,2.611-23.5-21.384-80.5-19.208-110.961-16.536-45.69-22.193-83.112c-4.158-27.514,5.955-50.03,11.51-58.7C-3400.909,2433.557-3355.268,2431.243-3337.964,2440.778Z" transform="translate(8.21 32.521)" fill="#fab57a"/>
      <path id="Path_135415" data-name="Path 135415" d="M-3399.936,2553.7c-5.324-16.278-14.846-31.36-18.611-56.265-4.158-27.514,5.955-50.03,11.51-58.7,6.129-5.181,51.769-7.5,69.074,2.04.689,5.942,1.294,15.362,1.4,23.7,2.395,21.413-3.947,64.074-15.837,89.412C-3364.394,2550.26-3389.176,2549.366-3399.936,2553.7Z" transform="translate(8.21 32.521)" fill="#8c6df2"/>
      <path id="Path_135416" data-name="Path 135416" d="M-3351.811,2457.017c-8.838,2.981-19.222,2.932-28.368,1.935-11.572-1.262-22.727-4.538-33.647-8.49a72.139,72.139,0,0,1,5.888-11.724c6.129-5.181,51.769-7.5,69.074,2.04.28,2.419.544,5.43.769,8.7C-3342.517,2452.3-3346.848,2455.344-3351.811,2457.017Z" transform="translate(9.111 32.521)" fill="#5038a1"/>
      <path id="Path_135417" data-name="Path 135417" d="M-3383.98,2667.205c.792.475,1.575.964,2.336,1.5,7.3,5.1,8.266,11.806,11.909,19.212,4.232,8.6,11.687,8.879,19.679,10.231,2.443,4.752,4.489,8.386,4.909,10.487.87,4.352-6.963,4.352-18.711,3.046s-11.314-10.009-11.749-17.84a12.525,12.525,0,0,0-3.668-7.776c-1.335,6.629.677,23.054.677,23.054h-4.021a232.329,232.329,0,0,0-2.562-30.944C-3385.4,2675.712-3384.709,2671.64-3383.98,2667.205Z" transform="translate(13.634 69.358)" fill="#12263f"/>
      <path id="Path_135418" data-name="Path 135418" d="M-3416.931,2679.905a16.8,16.8,0,0,0,.589-4,19.537,19.537,0,0,0-3.5,6.527,3.11,3.11,0,0,1-1.836-2.448,59.838,59.838,0,0,0,3.729-14.176c-.206-2.618.375-5.523,3.218-9.577.73,4.041,2.884,7.983,3.28,12.349s-.4,8.364-1.2,12.6c-.443,2.345-1.045,5.248-.213,7.617,1.575,4.495,6.329,5.337,11.173,5.247.541,5.933,1.266,10.806.861,12.834-.87,4.351-13.489,3.48-18.711.434S-3419.976,2691.219-3416.931,2679.905Z" transform="translate(7.84 67.623)" fill="#12263f"/>
      <path id="Path_135419" data-name="Path 135419" d="M-3379.165,2314.344s5.415-6.71,11.183-4.591,12.831,8.71,19.3,8c0,0-5.179,7.769-13.419,5.414S-3379.165,2314.344-3379.165,2314.344Z" transform="translate(14.592 12.771)" fill="#5038a1"/>
      <path id="Path_135420" data-name="Path 135420" d="M-3403.592,2425.471c-1.077-7.746-26.72-83.882-26.72-83.882s26.917-15,29.532-16.087c9.425-3.932,1.3-28.252,1.3-28.252l24.683.877,7.046,24.276s26.057,13.393,29.234,15.042.353.434-.176,12.984c-.347,8.213,5.151,18.175,5.37,30.14s-8.7,27.637-8.7,27.642c3.553,27.326,13.572,47.629,13.572,50.455-.023,7.748-15.873,10.8-33.808,11.221-1.441.034-4.354-5.6-4.354-5.6s-3.137,5.634-4.708,5.6c-20.766-.453-41.27-3.866-41.272-7.2C-3412.585,2462.692-3402.515,2433.218-3403.592,2425.471Z" transform="translate(6.504 10.86)" fill="#8c6df2"/>
      <path id="Path_135421" data-name="Path 135421" d="M-3382.738,2349.594c-2.809-2.557-5.991-4.584-8.4-7.572-4.075-5.045-9.1-11.492-12.237-17.536,6.789-5.971-.308-27.237-.308-27.237l24.683.877,7.046,24.276,3.567,1.834c-1.216,10.434-3.5,22.852-8.4,31.8C-3376.9,2355.92-3381.128,2351.059-3382.738,2349.594Z" transform="translate(10.714 10.86)" fill="#fab57a"/>
      <path id="Path_135422" data-name="Path 135422" d="M-3403.379,2324.486a66.124,66.124,0,0,0,3.672,6.109c11.456,6.519,21.415,7.462,30.14,1.965.478-2.844.864-5.649,1.176-8.323l-3.567-1.834-7.046-24.276-24.683-.877S-3396.591,2318.515-3403.379,2324.486Z" transform="translate(10.714 10.86)" fill="#e68052"/>
      <path id="Path_135423" data-name="Path 135423" d="M-3376.67,2315.543s11.543,4.9,18.94,21.189c4.083,9-.829,1.007-.829,1.007l-3.077-5.387s-17.7,18.312-18.886,20.8l4.763-33.032Z" transform="translate(14.377 13.752)" fill="#e6e7e8"/>
      <path id="Path_135424" data-name="Path 135424" d="M-3400.912,2310s-1.325,1.514-1.325,2.236,1.767,2.334,1.413,3.419-.824,2.69-.118,3.9,1.883,6.225,16.715,6.708,13.949-4.011,12.89-5.576a5.441,5.441,0,0,1-.177-4.944c.53-.723-.617-2.167-1.5-2.649S-3389.436,2315.424-3400.912,2310Z" transform="translate(10.944 12.876)" fill="#8c6df2"/>
      <path id="Path_135425" data-name="Path 135425" d="M-3400.53,2315.9s-5.428,5.376-6.094,7.4c-.857,2.608-.236,19.769-.236,19.769l9.114-6.985,7.695,4.972,13.721,12S-3398.4,2324.893-3400.53,2315.9Z" transform="translate(10.178 13.809)" fill="#e6e7e8"/>
      <path id="Path_135426" data-name="Path 135426" d="M-3372.659,2364.688a79.519,79.519,0,0,1,17.657.235s-7.3-9.418-10.829-10.595S-3372.659,2364.688-3372.659,2364.688Z" transform="translate(15.621 19.872)" fill="#e6e7e8"/>
      <g id="Group_92387" data-name="Group 92387" transform="translate(-3360.052 2382.661)">
        <path id="Path_135427" data-name="Path 135427" d="M-3352.2,2365.732c-14.383-2.709-22.08-.248-22.157-.224l-.9-2.679c.335-.114,8.385-2.74,23.582.127Z" transform="translate(3375.261 -2361.623)" fill="#5038a1"/>
      </g>
      <g id="Group_92388" data-name="Group 92388" transform="translate(-3397.533 2371.59)">
        <path id="Path_135428" data-name="Path 135428" d="M-3395.97,2354.227l-1.707-2.163h-9.938c0,.077-.01.155-.01.234,0,2.1,1.353,3.809,3.006,3.809h17.3c1.653,0,3.005-1.714,3.005-3.809,0-.079-.006-.156-.01-.234h-9.937Z" transform="translate(3407.625 -2352.063)" fill="#ffdc72"/>
      </g>
      <g id="Group_92422" data-name="Group 92422" transform="translate(-3406.097 2240.948)">
        <g id="Group_92412" data-name="Group 92412" transform="translate(0 13.074)">
          <g id="Group_92411" data-name="Group 92411">
            <g id="Group_92390" data-name="Group 92390" transform="translate(53.515 29.55)">
              <g id="Group_92389" data-name="Group 92389">
                <path id="Path_135429" data-name="Path 135429" d="M-3368.229,2283.3c-1.43,4.813-.132,9.445,2.9,10.345s6.65-2.27,8.079-7.082.132-9.446-2.9-10.346S-3366.8,2278.486-3368.229,2283.3Z" transform="translate(3368.811 -2276.062)" fill="#e78052"/>
              </g>
            </g>
            <g id="Group_92392" data-name="Group 92392" transform="translate(0 28.88)">
              <g id="Group_92391" data-name="Group 92391">
                <path id="Path_135430" data-name="Path 135430" d="M-3414.679,2285.689c1.091,4.9,4.479,8.317,7.566,7.629s4.707-5.218,3.615-10.119-4.479-8.316-7.566-7.628S-3415.77,2280.789-3414.679,2285.689Z" transform="translate(3415.02 -2275.483)" fill="#e78052"/>
              </g>
            </g>
            <g id="Group_92394" data-name="Group 92394" transform="translate(6.525)">
              <g id="Group_92393" data-name="Group 92393">
                <path id="Path_135431" data-name="Path 135431" d="M-3382.741,2250.549c24.775.266,26.019,23.527,26.08,26.331,0,.17,0,.333-.014.5-.176,2.586-1.88,26.5-4.314,31.047-2.018,3.768-16.776,15.942-22.7,15.942s-20.11-12.611-22.046-16.422c-2.336-4.6-3.523-28.543-3.646-31.133-.008-.17-.01-.333,0-.5C-3409.26,2273.511-3407.516,2250.282-3382.741,2250.549Z" transform="translate(3409.386 -2250.547)" fill="#fbbe7d"/>
              </g>
            </g>
            <path id="Path_135432" data-name="Path 135432" d="M-3405.181,2262.1h0a.605.605,0,0,1,.032-.052,24.582,24.582,0,0,1,1.377-2.073c.139-.189.3-.367.446-.554.373-.474.76-.942,1.179-1.4.236-.256.491-.5.743-.749.375-.371.766-.731,1.178-1.082.3-.257.609-.508.931-.753.424-.322.877-.625,1.339-.924.346-.226.685-.456,1.054-.667.574-.326,1.2-.618,1.825-.906a28.512,28.512,0,0,1,12.339-2.391c24.775.265,26.019,23.527,26.08,26.331,0,.17,0,.333-.014.5-.022.333-.072,1.037-.145,2a166.467,166.467,0,0,0-20.176-9.8c-7.385-2.881-14.3-4.177-21.61-5.854a87.819,87.819,0,0,1-10.552,17.182c-.119-2.038-.194-3.548-.22-4.089-.008-.17-.01-.333,0-.5A32.615,32.615,0,0,1-3405.181,2262.1Z" transform="translate(3415.91 -2250.547)" fill="#e78052"/>
            <g id="Group_92405" data-name="Group 92405" transform="translate(18.794 33.705)">
              <g id="Group_92399" data-name="Group 92399">
                <g id="Group_92398" data-name="Group 92398">
                  <g id="Group_92397" data-name="Group 92397">
                    <g id="Group_92396" data-name="Group 92396">
                      <g id="Group_92395" data-name="Group 92395">
                        <path id="Path_135433" data-name="Path 135433" d="M-3395.853,2279.661c1.736-.175,3.239,1.7,3.355,4.18s-1.2,4.637-2.931,4.812-3.239-1.7-3.355-4.179S-3397.588,2279.835-3395.853,2279.661Z" transform="translate(3398.792 -2279.649)" fill="#3e2511"/>
                      </g>
                    </g>
                  </g>
                </g>
              </g>
              <g id="Group_92404" data-name="Group 92404" transform="translate(22.686 0.243)">
                <g id="Group_92403" data-name="Group 92403">
                  <g id="Group_92402" data-name="Group 92402">
                    <g id="Group_92401" data-name="Group 92401">
                      <g id="Group_92400" data-name="Group 92400">
                        <path id="Path_135434" data-name="Path 135434" d="M-3376.263,2279.871c1.736-.175,3.24,1.7,3.355,4.18s-1.2,4.638-2.932,4.813-3.238-1.7-3.355-4.179S-3378,2280.046-3376.263,2279.871Z" transform="translate(3379.203 -2279.859)" fill="#3e2511"/>
                      </g>
                    </g>
                  </g>
                </g>
              </g>
            </g>
            <g id="Group_92410" data-name="Group 92410" transform="translate(32.365 43.724)">
              <g id="Group_92409" data-name="Group 92409">
                <g id="Group_92408" data-name="Group 92408">
                  <g id="Group_92407" data-name="Group 92407">
                    <g id="Group_92406" data-name="Group 92406">
                      <path id="Path_135435" data-name="Path 135435" d="M-3386.143,2293.571c.419.694.394.572.109,1.1a5.992,5.992,0,0,1-.947,1c-.615.649,2.057.507,2.529.008.394-.414,1.344-1.094,1.54-1.651.235-.664-.24-.919-.711-1.324a8.244,8.244,0,0,1-2.66-4.313C-3386.456,2287.71-3387.57,2291.2-3386.143,2293.571Z" transform="translate(3387.073 -2288.301)" fill="#e78052"/>
                    </g>
                  </g>
                </g>
              </g>
            </g>
          </g>
          <path id="Path_135436" data-name="Path 135436" d="M-3375.143,2298.893a67.712,67.712,0,0,0-20.977,0s5.358,9.034,10.411,9.034S-3375.143,2298.893-3375.143,2298.893Z" transform="translate(3418.008 -2243.031)" fill="#fff"/>
        </g>
        <path id="Path_135437" data-name="Path 135437" d="M-3379.757,2240.686c-24.926-6.84-27.186,13.1-27.186,13.1s-4.078,1.5-5.857,4.5-.93,18.984,3.958,24.922c3.741-5.3,9.342-20.872,9.342-20.872s15.7-.478,43.541,20.145C-3350.14,2264.092-3357.193,2246.879-3379.757,2240.686Z" transform="translate(3415.236 -2239.258)" fill="#754c29"/>
        <g id="Group_92421" data-name="Group 92421" transform="translate(11.48 35.943)">
          <g id="Group_92416" data-name="Group 92416">
            <g id="Group_92415" data-name="Group 92415">
              <g id="Group_92414" data-name="Group 92414">
                <g id="Group_92413" data-name="Group 92413">
                  <path id="Path_135438" data-name="Path 135438" d="M-3388.448,2272.362c-.161-.023-.324-.053-.483-.093-9.654-2.093-14.563,3-14.434,2.768a2.54,2.54,0,0,1-1.478.66c-.375-.029-.355-.4.087-.821.011.236,4.3-6.283,15.84-4.156C-3388.127,2270.9-3387.865,2272.448-3388.448,2272.362Z" transform="translate(3405.107 -2270.293)" fill="#3e2511"/>
                </g>
              </g>
            </g>
          </g>
          <g id="Group_92420" data-name="Group 92420" transform="translate(26.38 2.228)">
            <g id="Group_92419" data-name="Group 92419">
              <g id="Group_92418" data-name="Group 92418">
                <g id="Group_92417" data-name="Group 92417">
                  <path id="Path_135439" data-name="Path 135439" d="M-3381.973,2274.374a3.594,3.594,0,0,0,.434-.094c8.622-2.221,13.932,2.334,13.771,2.176a2.536,2.536,0,0,0,1.511.571c.373-.05.322-.418-.152-.817.046.157-4.931-5.833-15.351-3.42C-3382.461,2272.984-3382.492,2274.461-3381.973,2274.374Z" transform="translate(3382.328 -2272.217)" fill="#3e2511"/>
                </g>
              </g>
            </g>
          </g>
        </g>
      </g>
      <g id="Group_92423" data-name="Group 92423" transform="translate(-3403.836 2228.567)">
        <path id="Path_135440" data-name="Path 135440" d="M-3383.234,2228.588a9.548,9.548,0,0,0-1.49.017,9.551,9.551,0,0,0-1.491-.017c-15.837,1.06-28.585,28.6-26.658,31.388,1.587,2.3,21.284,7.924,28.149,7.846,6.865.078,26.563-5.55,28.149-7.846C-3354.651,2257.192-3367.4,2229.648-3383.234,2228.588Z" transform="translate(3413.067 -2228.567)" fill="#8c6df2"/>
      </g>
      <g id="Group_92424" data-name="Group 92424" transform="translate(-3388.126 2228.567)">
        <path id="Path_135441" data-name="Path 135441" d="M-3374.237,2233.57c-3.4-2.787-7.173-4.716-11.142-4.982a9.548,9.548,0,0,0-1.49.017,9.551,9.551,0,0,0-1.491-.017c-3.969.266-7.743,2.2-11.142,4.982,4.945,3.006,9.846,5.216,12.633,5.14C-3384.083,2238.787-3379.182,2236.577-3374.237,2233.57Z" transform="translate(3399.502 -2228.567)" fill="#5038a1"/>
      </g>
      <g id="Group_92425" data-name="Group 92425" transform="translate(-3400.618 2247.438)">
        <path id="Path_135442" data-name="Path 135442" d="M-3385.116,2255.358h-.125c-5.018,0-17.711-6.628-23.728-10.5-.472.834-.915,1.649-1.319,2.448,6.692,4.325,19.4,10.875,25.028,10.875h.16c5.657,0,18.368-6.549,25.061-10.875-.406-.8-.847-1.614-1.319-2.448C-3367.377,2248.73-3380.077,2255.358-3385.116,2255.358Z" transform="translate(3410.288 -2244.861)" fill="#ffe177"/>
      </g>
      <path id="Path_135443" data-name="Path 135443" d="M-3364.886,2496.027l-17.484-5.363c3.969,7.583,6.475,16.954,8.393,27.044C-3371.969,2509.489-3369.494,2501.722-3364.886,2496.027Z" transform="translate(14.085 41.443)" fill="#5038a1"/>
      <path id="Path_135444" data-name="Path 135444" d="M-3328.188,2329.446c.6,2.02,1.5,2.864,2.193,4.985a6.159,6.159,0,0,0,.532,1.141c.029-6.392.482-30.5,7.984-29.774,15.488,1.5,14.021,29.675,14.021,29.675,1.821,14.584-3.254,19.086-10.881,19.728a12.817,12.817,0,0,1-3.675-.2c-2.28-.838-6.688-2.671-8.7-5.3-2.656-3.468-6.863-21.124-7.756-22.969S-3330.351,2322.169-3328.188,2329.446Z" transform="translate(21.642 12.209)" fill="#fab57a"/>
    </g>
  </g>
</svg>
