<svg xmlns="http://www.w3.org/2000/svg" width="610" height="300" viewBox="0 0 610 300">
  <g id="t2-i3" transform="translate(-495 -1311)">
    <rect id="Rectangle_32181" data-name="Rectangle 32181" width="610" height="300" transform="translate(495 1311)" fill="none"/>
    <g id="Group_92383" data-name="Group 92383" transform="translate(5786.731 -1175.073)">
      <g id="Group_92382" data-name="Group 92382" transform="translate(-5279.731 2486.121)">
        <g id="Group_92350" data-name="Group 92350" transform="translate(95.022 7.272)">
          <path id="Path_135207" data-name="Path 135207" d="M-5123.682,2498.252l7.53,21.7.264-.029,28.619-3.114s-13.132-1.845-14.46-3.018c-1.251-1.106-14.467-14.253-18.424-15.614a1.669,1.669,0,0,0-.619-.112Z" transform="translate(5123.682 -2498.063)" fill="#8bc0cc"/>
          <path id="Path_135208" data-name="Path 135208" d="M-5114.431,2533.954c.648.158,2.589.59,5.252,1.133,7.659,1.562,21.293,4.046,27.368,3.6,5.449-.4,34.269-2.556,54.21-4.22a31.9,31.9,0,0,0-15.863-11.562c-23.23,1.838-53.611,4.3-57.489,4.935-6.378,1.037-14.822,1.937-14.822,1.937s-.064.2-.13.5C-5116.121,2531.29-5116.353,2533.483-5114.431,2533.954Z" transform="translate(5120.696 -2507.78)" fill="#e58638"/>
          <path id="Path_135209" data-name="Path 135209" d="M-5114.431,2532.533c.648.158,2.589.59,5.252,1.133,7.659,1.562,21.293,4.047,27.368,3.6,5.449-.4,34.269-2.556,54.21-4.22,10.012-.835,17.787-1.546,19.237-1.845,4.338-.9,13.368-4.015,12.429-5.886s-4.418-2.135-5.433-2.837l-.043-.03a13.854,13.854,0,0,0-1.2-.756c-2.029-1.138-6.31-2.86-13.86-2.317,0,0-12.01.923-27,2.109-23.23,1.838-53.611,4.3-57.489,4.935-6.378,1.037-14.822,1.937-14.822,1.937s-.064.2-.13.5C-5116.121,2529.869-5116.353,2532.063-5114.431,2532.533Z" transform="translate(5120.696 -2506.359)" fill="#bcecf7"/>
          <path id="Path_135210" data-name="Path 135210" d="M-5114.431,2538.691c.648.158,2.589.59,5.252,1.133a7.718,7.718,0,0,1,3.937-4.086l-10.663-.716C-5116.12,2536.026-5116.354,2538.22-5114.431,2538.691Z" transform="translate(5120.696 -2512.517)" fill="#8bc0cc"/>
          <g id="Group_92348" data-name="Group 92348" transform="translate(30.768 15.337)">
            <g id="Group_92346" data-name="Group 92346" transform="translate(37.592)">
              <g id="Group_92343" data-name="Group 92343" transform="translate(12.177 1.862)">
                <path id="Path_135211" data-name="Path 135211" d="M-4985.741,2528.792a.327.327,0,0,1,.352.3l.028.344a.327.327,0,0,1-.3.351.327.327,0,0,1-.352-.3l-.028-.343A.328.328,0,0,1-4985.741,2528.792Z" transform="translate(4989.317 -2527.279)" fill="#49adb7"/>
                <path id="Path_135212" data-name="Path 135212" d="M-4991.123,2529.234a.327.327,0,0,1,.352.3l.028.344a.327.327,0,0,1-.3.351.327.327,0,0,1-.352-.3l-.029-.344A.328.328,0,0,1-4991.123,2529.234Z" transform="translate(4991.422 -2527.452)" fill="#49adb7"/>
                <path id="Path_135213" data-name="Path 135213" d="M-4982.988,2528.566a.327.327,0,0,1,.351.3l.028.344a.327.327,0,0,1-.3.351.327.327,0,0,1-.352-.3l-.028-.344A.328.328,0,0,1-4982.988,2528.566Z" transform="translate(4988.241 -2527.191)" fill="#49adb7"/>
                <path id="Path_135214" data-name="Path 135214" d="M-4980.236,2528.34a.327.327,0,0,1,.352.3l.028.344a.326.326,0,0,1-.3.352.327.327,0,0,1-.352-.3l-.029-.344A.327.327,0,0,1-4980.236,2528.34Z" transform="translate(4987.165 -2527.103)" fill="#49adb7"/>
                <path id="Path_135215" data-name="Path 135215" d="M-4977.484,2528.114a.327.327,0,0,1,.352.3l.028.344a.328.328,0,0,1-.3.352.327.327,0,0,1-.351-.3l-.029-.344A.328.328,0,0,1-4977.484,2528.114Z" transform="translate(4986.088 -2527.014)" fill="#49adb7"/>
                <path id="Path_135216" data-name="Path 135216" d="M-4974.732,2527.888h0a.327.327,0,0,1,.352.3l.028.344a.327.327,0,0,1-.3.351h0a.326.326,0,0,1-.352-.3l-.028-.344A.327.327,0,0,1-4974.732,2527.888Z" transform="translate(4985.012 -2526.926)" fill="#49adb7"/>
                <path id="Path_135217" data-name="Path 135217" d="M-4971.98,2527.662a.327.327,0,0,1,.352.3l.028.344a.327.327,0,0,1-.3.351.327.327,0,0,1-.352-.3l-.028-.344A.327.327,0,0,1-4971.98,2527.662Z" transform="translate(4983.936 -2526.837)" fill="#49adb7"/>
                <path id="Path_135218" data-name="Path 135218" d="M-4969.228,2527.435a.327.327,0,0,1,.352.3l.028.344a.327.327,0,0,1-.3.351.328.328,0,0,1-.352-.3l-.027-.345A.327.327,0,0,1-4969.228,2527.435Z" transform="translate(4982.859 -2526.749)" fill="#49adb7"/>
                <path id="Path_135219" data-name="Path 135219" d="M-4966.475,2527.209a.327.327,0,0,1,.351.3l.028.344a.327.327,0,0,1-.3.352.328.328,0,0,1-.353-.3l-.028-.344A.327.327,0,0,1-4966.475,2527.209Z" transform="translate(4981.783 -2526.66)" fill="#49adb7"/>
                <path id="Path_135220" data-name="Path 135220" d="M-4963.723,2526.983a.327.327,0,0,1,.351.3l.028.344a.327.327,0,0,1-.3.352.328.328,0,0,1-.352-.3l-.028-.344A.328.328,0,0,1-4963.723,2526.983Z" transform="translate(4980.707 -2526.572)" fill="#49adb7"/>
                <path id="Path_135221" data-name="Path 135221" d="M-4961.026,2526.761a.327.327,0,0,1,.352.3l.028.344a.326.326,0,0,1-.3.351.327.327,0,0,1-.351-.3l-.028-.343A.327.327,0,0,1-4961.026,2526.761Z" transform="translate(4979.651 -2526.485)" fill="#49adb7"/>
                <path id="Path_135222" data-name="Path 135222" d="M-4958.274,2526.535a.327.327,0,0,1,.352.3l.028.344a.327.327,0,0,1-.3.351.327.327,0,0,1-.351-.3l-.028-.344A.327.327,0,0,1-4958.274,2526.535Z" transform="translate(4978.576 -2526.397)" fill="#49adb7"/>
                <path id="Path_135223" data-name="Path 135223" d="M-4955.522,2526.309a.327.327,0,0,1,.352.3l.028.344a.326.326,0,0,1-.3.352.326.326,0,0,1-.351-.3l-.028-.344A.327.327,0,0,1-4955.522,2526.309Z" transform="translate(4977.5 -2526.308)" fill="#49adb7"/>
              </g>
              <path id="Path_135224" data-name="Path 135224" d="M-4933.035,2523.658l1.846-.408a14,14,0,0,1,1.2.756l-2.826.626a.5.5,0,0,1-.159.008.5.5,0,0,1-.436-.388A.5.5,0,0,1-4933.035,2523.658Z" transform="translate(4980.918 -2523.25)" fill="#49adb7"/>
              <g id="Group_92344" data-name="Group 92344" transform="translate(3.329 3.385)">
                <path id="Path_135225" data-name="Path 135225" d="M-5005.2,2532.25a.59.59,0,0,0,.11,0l.51-.042a.633.633,0,0,0,.434-.223.635.635,0,0,0,.15-.465l-.175-2.124a.639.639,0,0,0-.689-.584l-.509.042a.634.634,0,0,0-.435.224.637.637,0,0,0-.15.465l.175,2.124A.639.639,0,0,0-5005.2,2532.25Zm.105-.05a.59.59,0,0,1-.634-.538l-.174-2.123a.583.583,0,0,1,.139-.428.581.581,0,0,1,.4-.206l.509-.042a.59.59,0,0,1,.635.538l.174,2.123a.579.579,0,0,1-.138.428.579.579,0,0,1-.4.207Z" transform="translate(5005.952 -2528.808)" fill="#49adb7"/>
              </g>
              <g id="Group_92345" data-name="Group 92345" transform="translate(0 3.658)">
                <path id="Path_135226" data-name="Path 135226" d="M-5010.664,2532.7a.635.635,0,0,0,.11,0l.51-.042a.64.64,0,0,0,.585-.689l-.174-2.124a.64.64,0,0,0-.689-.585l-.51.042a.64.64,0,0,0-.585.689l.174,2.123A.64.64,0,0,0-5010.664,2532.7Zm.106-.051a.589.589,0,0,1-.634-.538l-.175-2.124a.588.588,0,0,1,.538-.634l.51-.042a.589.589,0,0,1,.634.538l.173,2.124a.588.588,0,0,1-.537.634Z" transform="translate(5011.419 -2529.257)" fill="#49adb7"/>
              </g>
            </g>
            <g id="Group_92347" data-name="Group 92347" transform="translate(0 3.907)">
              <path id="Path_135227" data-name="Path 135227" d="M-5072.855,2535.951a.327.327,0,0,1,.352.3l.028.344a.326.326,0,0,1-.3.352.327.327,0,0,1-.352-.3l-.028-.344A.327.327,0,0,1-5072.855,2535.951Z" transform="translate(5073.154 -2532.124)" fill="#49adb7"/>
              <path id="Path_135228" data-name="Path 135228" d="M-5070.1,2535.725a.326.326,0,0,1,.352.3l.028.344a.327.327,0,0,1-.3.352.327.327,0,0,1-.352-.3l-.027-.344A.326.326,0,0,1-5070.1,2535.725Z" transform="translate(5072.078 -2532.035)" fill="#49adb7"/>
              <path id="Path_135229" data-name="Path 135229" d="M-5067.351,2535.5a.327.327,0,0,1,.351.3l.028.344a.327.327,0,0,1-.3.351.326.326,0,0,1-.352-.3l-.029-.344A.328.328,0,0,1-5067.351,2535.5Z" transform="translate(5071.002 -2531.947)" fill="#49adb7"/>
              <path id="Path_135230" data-name="Path 135230" d="M-5064.6,2535.272a.327.327,0,0,1,.352.3l.028.344a.327.327,0,0,1-.3.351.328.328,0,0,1-.353-.3l-.027-.344A.327.327,0,0,1-5064.6,2535.272Z" transform="translate(5069.926 -2531.858)" fill="#49adb7"/>
              <path id="Path_135231" data-name="Path 135231" d="M-5061.848,2535.046a.326.326,0,0,1,.352.3l.029.344a.327.327,0,0,1-.3.351.327.327,0,0,1-.352-.3l-.029-.344A.328.328,0,0,1-5061.848,2535.046Z" transform="translate(5068.85 -2531.77)" fill="#49adb7"/>
              <path id="Path_135232" data-name="Path 135232" d="M-5059.095,2534.82a.327.327,0,0,1,.352.3l.028.344a.327.327,0,0,1-.3.352.326.326,0,0,1-.351-.3l-.028-.344A.327.327,0,0,1-5059.095,2534.82Z" transform="translate(5067.773 -2531.681)" fill="#49adb7"/>
              <path id="Path_135233" data-name="Path 135233" d="M-5056.343,2534.594a.327.327,0,0,1,.352.3l.028.344a.327.327,0,0,1-.3.352.327.327,0,0,1-.352-.3l-.027-.344A.326.326,0,0,1-5056.343,2534.594Z" transform="translate(5066.697 -2531.593)" fill="#49adb7"/>
              <path id="Path_135234" data-name="Path 135234" d="M-5053.59,2534.368a.328.328,0,0,1,.352.3l.028.344a.327.327,0,0,1-.3.352.328.328,0,0,1-.352-.3l-.028-.344A.327.327,0,0,1-5053.59,2534.368Z" transform="translate(5065.621 -2531.505)" fill="#49adb7"/>
              <path id="Path_135235" data-name="Path 135235" d="M-5050.838,2534.142a.326.326,0,0,1,.351.3l.028.344a.327.327,0,0,1-.3.351.325.325,0,0,1-.35-.3l-.029-.344A.327.327,0,0,1-5050.838,2534.142Z" transform="translate(5064.544 -2531.416)" fill="#49adb7"/>
              <path id="Path_135236" data-name="Path 135236" d="M-5018.408,2531.477a.326.326,0,0,1,.351.3l.028.344a.327.327,0,0,1-.3.352.328.328,0,0,1-.352-.3l-.028-.344A.327.327,0,0,1-5018.408,2531.477Z" transform="translate(5051.862 -2530.374)" fill="#49adb7"/>
              <path id="Path_135237" data-name="Path 135237" d="M-5015.656,2531.25a.327.327,0,0,1,.351.3l.029.344a.327.327,0,0,1-.3.352h0a.327.327,0,0,1-.352-.3l-.028-.344A.327.327,0,0,1-5015.656,2531.25Z" transform="translate(5050.786 -2530.285)" fill="#49adb7"/>
              <path id="Path_135238" data-name="Path 135238" d="M-5012.9,2531.024a.328.328,0,0,1,.352.3l.028.344a.327.327,0,0,1-.3.351.326.326,0,0,1-.351-.3l-.029-.344A.328.328,0,0,1-5012.9,2531.024Z" transform="translate(5049.71 -2530.197)" fill="#49adb7"/>
              <path id="Path_135239" data-name="Path 135239" d="M-5010.152,2530.8a.327.327,0,0,1,.352.3l.028.344a.327.327,0,0,1-.3.352.326.326,0,0,1-.351-.3l-.029-.344A.327.327,0,0,1-5010.152,2530.8Z" transform="translate(5048.633 -2530.109)" fill="#49adb7"/>
              <path id="Path_135240" data-name="Path 135240" d="M-5007.4,2530.572a.327.327,0,0,1,.352.3l.028.344a.327.327,0,0,1-.3.351.327.327,0,0,1-.352-.3l-.028-.344A.327.327,0,0,1-5007.4,2530.572Z" transform="translate(5047.557 -2530.02)" fill="#49adb7"/>
              <path id="Path_135241" data-name="Path 135241" d="M-5004.647,2530.346a.327.327,0,0,1,.352.3l.028.344a.327.327,0,0,1-.3.352.327.327,0,0,1-.352-.3l-.028-.344A.327.327,0,0,1-5004.647,2530.346Z" transform="translate(5046.48 -2529.932)" fill="#49adb7"/>
              <path id="Path_135242" data-name="Path 135242" d="M-5001.9,2530.121a.326.326,0,0,1,.352.3l.028.344a.328.328,0,0,1-.3.352.328.328,0,0,1-.352-.3l-.028-.344A.327.327,0,0,1-5001.9,2530.121Z" transform="translate(5045.404 -2529.844)" fill="#49adb7"/>
              <path id="Path_135243" data-name="Path 135243" d="M-4999.144,2529.894a.327.327,0,0,1,.352.3l.028.344a.327.327,0,0,1-.3.352.327.327,0,0,1-.352-.3l-.029-.344A.327.327,0,0,1-4999.144,2529.894Z" transform="translate(5044.328 -2529.755)" fill="#49adb7"/>
              <path id="Path_135244" data-name="Path 135244" d="M-4996.392,2529.667a.327.327,0,0,1,.352.3l.028.344a.326.326,0,0,1-.3.352.327.327,0,0,1-.352-.3l-.028-.344A.327.327,0,0,1-4996.392,2529.667Z" transform="translate(5043.251 -2529.666)" fill="#49adb7"/>
              <path id="Path_135245" data-name="Path 135245" d="M-5042.748,2533.477a.327.327,0,0,1,.351.3l.029.344a.327.327,0,0,1-.3.352.328.328,0,0,1-.352-.3l-.028-.344A.327.327,0,0,1-5042.748,2533.477Z" transform="translate(5061.38 -2531.156)" fill="#49adb7"/>
              <path id="Path_135246" data-name="Path 135246" d="M-5040,2533.25a.328.328,0,0,1,.352.3l.028.344a.327.327,0,0,1-.3.352.327.327,0,0,1-.352-.3l-.029-.344A.328.328,0,0,1-5040,2533.25Z" transform="translate(5060.305 -2531.067)" fill="#49adb7"/>
              <path id="Path_135247" data-name="Path 135247" d="M-5037.244,2533.024a.328.328,0,0,1,.352.3l.028.344a.327.327,0,0,1-.3.351.327.327,0,0,1-.352-.3l-.029-.344A.328.328,0,0,1-5037.244,2533.024Z" transform="translate(5059.229 -2530.979)" fill="#49adb7"/>
              <path id="Path_135248" data-name="Path 135248" d="M-5034.492,2532.8a.327.327,0,0,1,.352.3l.028.344a.327.327,0,0,1-.3.351.326.326,0,0,1-.351-.3l-.028-.343A.327.327,0,0,1-5034.492,2532.8Z" transform="translate(5058.152 -2530.891)" fill="#49adb7"/>
              <path id="Path_135249" data-name="Path 135249" d="M-5031.739,2532.572a.327.327,0,0,1,.351.3l.028.344a.327.327,0,0,1-.3.352.327.327,0,0,1-.351-.3l-.028-.344A.327.327,0,0,1-5031.739,2532.572Z" transform="translate(5057.076 -2530.802)" fill="#49adb7"/>
              <path id="Path_135250" data-name="Path 135250" d="M-5028.987,2532.346a.327.327,0,0,1,.352.3l.027.344a.326.326,0,0,1-.3.352.327.327,0,0,1-.352-.3l-.028-.344A.328.328,0,0,1-5028.987,2532.346Z" transform="translate(5056 -2530.714)" fill="#49adb7"/>
              <path id="Path_135251" data-name="Path 135251" d="M-5026.235,2532.12a.327.327,0,0,1,.351.3l.028.344a.327.327,0,0,1-.3.352.326.326,0,0,1-.351-.3l-.028-.344A.327.327,0,0,1-5026.235,2532.12Z" transform="translate(5054.922 -2530.625)" fill="#49adb7"/>
              <path id="Path_135252" data-name="Path 135252" d="M-5023.483,2531.895a.326.326,0,0,1,.352.3l.029.344a.326.326,0,0,1-.3.351.326.326,0,0,1-.351-.3l-.029-.344A.327.327,0,0,1-5023.483,2531.895Z" transform="translate(5053.847 -2530.537)" fill="#49adb7"/>
              <path id="Path_135253" data-name="Path 135253" d="M-5020.731,2531.667a.328.328,0,0,1,.352.3l.028.344a.327.327,0,0,1-.3.351.326.326,0,0,1-.351-.3l-.028-.344A.327.327,0,0,1-5020.731,2531.667Z" transform="translate(5052.771 -2530.448)" fill="#49adb7"/>
            </g>
          </g>
          <path id="Path_135254" data-name="Path 135254" d="M-5010.692,2543.561a1.166,1.166,0,0,1-.34-2.085,6.6,6.6,0,0,1,3.154-1.21c2.524-.181,1.356,3.711.518,3.806A12.7,12.7,0,0,1-5010.692,2543.561Z" transform="translate(5079.827 -2514.565)" fill="#8bc0cc"/>
          <path id="Path_135255" data-name="Path 135255" d="M-5006.407,2537.788l.434,5.274a24.462,24.462,0,0,0,6.833.439,19.5,19.5,0,0,0,5.234-.931,6.581,6.581,0,0,0,.893-.368l-.454-5.529a2.672,2.672,0,0,0-.95-.322c-3.282-.583-11.47,1.214-11.47,1.214Z" transform="translate(5077.819 -2512.991)" fill="#8bc0cc"/>
          <path id="Path_135256" data-name="Path 135256" d="M-4986.716,2536.427l.511,6.218a6.59,6.59,0,0,0,.894-.368l-.454-5.529A2.667,2.667,0,0,0-4986.716,2536.427Z" transform="translate(5070.118 -2513.066)" fill="#1c3a3e"/>
          <g id="Group_92349" data-name="Group 92349" transform="translate(40.876 14.069)">
            <path id="Path_135257" data-name="Path 135257" d="M-5056.554,2521.168s3.45,6.078,4.116,7a5.564,5.564,0,0,0,2.175,1.489l.008,0,9.638,2.822s12.188-.937,14.843-1.2h0c.241-.024.4-.043.471-.055.81-.144,1.2-.432,1.05-.651s-18.78-1.586-20.844-1.724l-.059,0c-2.008-.145-2.176-.66-2.176-.66l-7.464-6.543a.956.956,0,0,0-.437-.279A4.553,4.553,0,0,0-5056.554,2521.168Z" transform="translate(5056.554 -2521.168)" fill="#8bc0cc"/>
            <path id="Path_135258" data-name="Path 135258" d="M-5054.384,2521.484c2,1.867,7.55,7.015,8.082,7.363.572.375,17.272,2.119,21.376,2.553h0c.241-.024.4-.043.471-.055.81-.144,1.2-.432,1.05-.651s-18.78-1.586-20.844-1.725-2.234-.663-2.234-.663l-7.464-6.543A.954.954,0,0,0-5054.384,2521.484Z" transform="translate(5055.706 -2521.292)" fill="#1c3a3e"/>
            <path id="Path_135259" data-name="Path 135259" d="M-5056.554,2521.168s3.45,6.078,4.116,7a5.564,5.564,0,0,0,2.175,1.489l.008,0a21.446,21.446,0,0,0,5.1-.815c-2.008-.145-2.176-.66-2.176-.66l-7.464-6.543a.956.956,0,0,0-.437-.279A4.553,4.553,0,0,0-5056.554,2521.168Z" transform="translate(5056.554 -2521.168)" fill="#1c3a3e"/>
          </g>
          <path id="Path_135260" data-name="Path 135260" d="M-5113.622,2520l28.618-3.114s-13.132-1.845-14.46-3.018c-1.251-1.106-14.467-14.253-18.424-15.614,3.407,3.834,11.289,13.054,10.838,15.783C-5107.48,2516.632-5111.583,2518.978-5113.622,2520Z" transform="translate(5121.417 -2498.136)" fill="#8bc0cc"/>
          <path id="Path_135261" data-name="Path 135261" d="M-5107.891,2533.984c-.1-.1-9.388-2.272-15.554-1.15l5.8,2.7,9.512-.782S-5107.4,2534.491-5107.891,2533.984Z" transform="translate(5123.589 -2511.535)" fill="#1c3a3e"/>
        </g>
        <g id="Group_92353" data-name="Group 92353" transform="translate(94.716 183.115)">
          <g id="Group_92351" data-name="Group 92351" transform="translate(2.23 15.595)">
            <path id="Path_135262" data-name="Path 135262" d="M-5075.491,2834.748a62.023,62.023,0,0,0,42.453-16.845l-5.359-5.153,2.68,2.576-2.673-2.583a49.629,49.629,0,0,1-10.947,7.841,54.227,54.227,0,0,1-29.4,6.633c-24.83-1.449-35.924-14.636-36.033-14.769l-5.748,4.716c.531.646,13.3,15.839,41.347,17.476Q-5077.3,2834.749-5075.491,2834.748Z" transform="translate(5120.523 -2812.449)" fill="#333"/>
          </g>
          <g id="Group_92352" data-name="Group 92352">
            <path id="Path_135263" data-name="Path 135263" d="M-5124.185,2788.919v112a2.192,2.192,0,0,0,2.276,2.081h4.173c.021,0,.042,0,.062,0a2.184,2.184,0,0,0,2.214-2.079v-112a2.184,2.184,0,0,0-2.214-2.079c-.021,0-.042,0-.062,0h-4.173A2.191,2.191,0,0,0-5124.185,2788.919Z" transform="translate(5124.185 -2786.838)" fill="#8bc0cc"/>
            <path id="Path_135264" data-name="Path 135264" d="M-5117.123,2788.92v112a2.185,2.185,0,0,0,2.211,2.079,2.184,2.184,0,0,0,2.214-2.079v-112a2.183,2.183,0,0,0-2.214-2.079A2.184,2.184,0,0,0-5117.123,2788.92Z" transform="translate(5121.423 -2786.839)" fill="#49adb7"/>
          </g>
        </g>
        <path id="Rectangle_32253" data-name="Rectangle 32253" d="M0,0H163.291a0,0,0,0,1,0,0V297.588a0,0,0,0,1,0,0h0A163.291,163.291,0,0,1,0,134.3V0A0,0,0,0,1,0,0Z" transform="translate(582.073 297.689) rotate(180)" fill="#98bdf4"/>
        <path id="Path_135265" data-name="Path 135265" d="M-4836.569,2486.449h113.958v297.6h-178.854v-232.7A64.9,64.9,0,0,1-4836.569,2486.449Z" transform="translate(5131.802 -2486.25)" fill="#bcecf7"/>
        <path id="Path_135266" data-name="Path 135266" d="M-4641.43,2486.121v297.606h137.949V2551.013c0-35.843-25.374-64.892-56.681-64.892Z" transform="translate(5030.109 -2486.121)" fill="#bcecf7"/>
        <path id="Rectangle_32254" data-name="Rectangle 32254" d="M0,0H119.315a0,0,0,0,1,0,0V235.456A35.024,35.024,0,0,1,84.291,270.48H0a0,0,0,0,1,0,0V0A0,0,0,0,1,0,0Z" transform="translate(409.195 297.796) rotate(180)" fill="#8bc0cc"/>
        <path id="Path_135267" data-name="Path 135267" d="M-4671.949,2530.981a10.508,10.508,0,0,1,10.507,10.508V2801.46h-119.314V2530.981Z" transform="translate(5084.596 -2503.665)" fill="#8bc0cc"/>
        <path id="Path_135268" data-name="Path 135268" d="M-4532.535,2765.727v127.167h71.64V2786.815c-8.345-5.449-31.957-20.805-34.182-21.548Z" transform="translate(4987.523 -2595.287)" fill="#77a7ed"/>
        <path id="Path_135269" data-name="Path 135269" d="M-4793.82,2530.889h10.3v270.535h-20.166V2540.754A9.864,9.864,0,0,1-4793.82,2530.889Z" transform="translate(5093.563 -2503.629)" fill="#49adb7"/>
        <g id="Group_92355" data-name="Group 92355" transform="translate(300.658 76.359)">
          <path id="Path_135270" data-name="Path 135270" d="M-4712.355,2613.922a11.791,11.791,0,0,1,13.177-.664c7.109,4.265,1.359,21.062-3.018,22s-15.562-15.745-15.562-15.745S-4717.44,2618.043-4712.355,2613.922Z" transform="translate(4759.301 -2611.52)" fill="#501506"/>
          <path id="Path_135271" data-name="Path 135271" d="M-4775.722,2759.649s-2.92-.971-4.331-.679-5.788,2.334-5.885,2.772a1.6,1.6,0,0,0,0,.753h10.216s2.284-.444,2.673-1.791S-4775.722,2759.649-4775.722,2759.649Z" transform="translate(4785.981 -2669.162)" fill="#fcbdb6"/>
          <path id="Path_135272" data-name="Path 135272" d="M-4721.289,2958.9a1.96,1.96,0,0,1-1.278,1.7.016.016,0,0,1-.011,0c-1.361.6-3.642.461-6.108.129-.315-.042-.6-.077-.854-.1-.067-.006-.134-.012-.2-.016l-.153-.012c-2.455-.162-2.263.594-6.954.571-5.348-.028-7.157-1.829-7.4-2.6-.206-.651,2.136-1.156,4.753-1.738.127-.028.253-.058.382-.085.349-.077.7-.158,1.048-.237,3.121-.733,6.211-1.656,7.232-4.655,1.085-3.18.828-12.617.828-12.617h9.472s-2.486,10.425-2.226,13.43c.142,1.6.909,2.061,1.2,3.45.022.1.042.195.059.292A9.349,9.349,0,0,1-4721.289,2958.9Z" transform="translate(4769.666 -2739.682)" fill="#fcbdb6"/>
          <g id="Group_92354" data-name="Group 92354" transform="translate(34.253 83.152)">
            <path id="Path_135273" data-name="Path 135273" d="M-4704.585,2782.144c-.8,4.487-1.94,9.124-2.931,13.947-1.591,7.755-2.792,15.993-1.562,24.863a30.978,30.978,0,0,1,.261,3.756c.239,15.679-6.767,44.092-6.767,44.092a12.38,12.38,0,0,1-5.091.663,16.169,16.169,0,0,1-4.161-1.14s-.664-17.616-.7-41.307c-.028-17.173-3.4-39.784-4.081-53.07a169.928,169.928,0,0,1,.482-18.753s13.964-11.229,18.98-5.483C-4705.2,2755.387-4701.595,2765.356-4704.585,2782.144Z" transform="translate(4729.73 -2748.075)" fill="#24555e"/>
          </g>
          <path id="Path_135274" data-name="Path 135274" d="M-4703.85,2839.221a30.868,30.868,0,0,1,.261,3.756c-10.458-15.151-12.771-48.192-12.771-48.192l11.487,5.575s1.26,6.2,2.585,14C-4703.878,2822.113-4705.079,2830.351-4703.85,2839.221Z" transform="translate(4758.754 -2683.19)" fill="#355493"/>
          <path id="Path_135275" data-name="Path 135275" d="M-4671.673,2958.518a1.96,1.96,0,0,1-1.277,1.7.019.019,0,0,1-.012,0c-1.36.6-3.643.461-6.108.129-.316-.042-.6-.076-.854-.1-.066-.006-.133-.012-.2-.016l-.153-.012c-2.455-.162-2.263.594-6.954.571-5.348-.028-7.156-1.829-7.4-2.6-.206-.651,2.135-1.156,4.754-1.738.126-.028.252-.058.381-.085.349-.077.7-.158,1.048-.237,3.121-.733,6.211-1.656,7.234-4.655,1.083-3.18-.465-12.471-.465-12.471l8.774-.733s-.544,10.587-.284,13.591c.141,1.6.956,2.487,1.252,3.876q.032.146.058.292A9.329,9.329,0,0,1-4671.673,2958.518Z" transform="translate(4750.262 -2739.304)" fill="#fcbdb6"/>
          <path id="Path_135276" data-name="Path 135276" d="M-4682.9,2877.052a21.314,21.314,0,0,1-3.879,1.392,18.65,18.65,0,0,1-5-.31,228.8,228.8,0,0,0-4.77-29.528,276.238,276.238,0,0,0-14.274-45.238c-1.386-3.275-7.1-18.779-8.072-22.691-2.934-11.822.011-10.549.011-10.549l25.64-3.009s3.159,1.624,4.614,18.317c.436,5,.489,26.585,1.145,30.677a45.766,45.766,0,0,0,2.2,9.191C-4680.521,2837-4682.9,2877.052-4682.9,2877.052Z" transform="translate(4760.255 -2672.37)" fill="#24555e"/>
          <path id="Path_135277" data-name="Path 135277" d="M-4671.673,2969.736a1.96,1.96,0,0,1-1.277,1.7.019.019,0,0,1-.012,0c-1.437.513-3.685.4-6.1.115-.316-.038-.6-.066-.86-.085-.066-.006-.133-.012-.2-.016s-.1-.007-.153-.012c-2.455-.162-2.263.594-6.954.571-5.348-.028-7.156-1.829-7.4-2.6-.206-.652,2.135-1.156,4.754-1.739a15.8,15.8,0,0,0,8.079,1.432c3.6-.345,7.277-1.788,9.86-2.147q.032.146.058.292A9.329,9.329,0,0,1-4671.673,2969.736Z" transform="translate(4750.262 -2750.523)" fill="#b84c42"/>
          <path id="Path_135278" data-name="Path 135278" d="M-4721.289,2969.736a1.96,1.96,0,0,1-1.278,1.7.016.016,0,0,1-.011,0c-1.438.513-3.685.4-6.1.115-.316-.038-.6-.066-.86-.085-.067-.006-.134-.012-.2-.016s-.1-.007-.153-.012c-2.455-.162-2.263.594-6.954.571-5.348-.028-7.157-1.829-7.4-2.6-.206-.652,2.136-1.156,4.753-1.739a15.8,15.8,0,0,0,8.08,1.432c3.6-.345,7.278-1.788,9.86-2.147q.033.146.059.292A9.349,9.349,0,0,1-4721.289,2969.736Z" transform="translate(4769.666 -2750.523)" fill="#b84c42"/>
          <path id="Path_135279" data-name="Path 135279" d="M-4722.08,2662.9c.185,0,1.382-.219,3.5-.348a15.886,15.886,0,0,0,.771-3.252,21.338,21.338,0,0,0,.076-4.74c-.052-.542-.105-.855-.105-.855l10.5-3.2c.126,2.777.282,4.948.448,6.648.491,4.986,1.076,5.9,1.254,6.07a85.632,85.632,0,0,1,8.745,1.771s-8.479,38.847-5.6,46.169a77.41,77.41,0,0,1,3.975,13.82l-31.248.387s.437-25.131-1-34.026S-4722.08,2662.9-4722.08,2662.9Z" transform="translate(4764.442 -2626.766)" fill="#fcbdb6"/>
          <path id="Path_135280" data-name="Path 135280" d="M-4709.422,2659.3c7.94-.172,10.475-8.794,10.475-8.794l-10.5,3.2s.054.313.105.855A21.332,21.332,0,0,1-4709.422,2659.3Z" transform="translate(4756.053 -2626.766)" fill="#f9a6a0"/>
          <path id="Path_135281" data-name="Path 135281" d="M-4700.091,2714.19c.457,5.142,5.262,16.892,4.223,19.4-1.09,2.628-2.6,3.96-5.913,4.72a61.336,61.336,0,0,1-9.856,1c-9.414.468-19.5-.716-20.875-5.19-.658-2.148-.4-10.459-.056-14.3.721-7.94-.79-19.333-1.011-26.7-.183-6.149,3.526-20.143,3.526-20.143s1.674-1.056,6.925-2.113c0,0,.552,7.268,4.345,7.894,6.559,1.083,11.844-4.926,13.388-7.344,0,0,7.532,1.9,9.743,4.421,2.094,2.386-.771,20.065-1.407,21.76-.55,1.455-1.069,2.875-1.521,4.3A30.016,30.016,0,0,0-4700.091,2714.19Z" transform="translate(4765.49 -2634.726)" fill="#e9f3fe"/>
          <path id="Path_135282" data-name="Path 135282" d="M-4636.273,2759.694s2.921-.962,4.331-.673,5.788,2.314,5.886,2.748a1.582,1.582,0,0,1,0,.747h-10.216s-2.284-.44-2.673-1.774S-4636.273,2759.694-4636.273,2759.694Z" transform="translate(4728.493 -2669.183)" fill="#fcbdb6"/>
          <path id="Path_135283" data-name="Path 135283" d="M-4715.356,2643.6s12.574,2.525,14.026-5.329,4.053-12.819-3.914-14.763-10.085.764-11.208,3.268S-4718.589,2642.739-4715.356,2643.6Z" transform="translate(4759.214 -2615.948)" fill="#fcbdb6"/>
          <path id="Path_135284" data-name="Path 135284" d="M-4710.424,2649.948s-.337.932-2.7.509c0,0-1.988-.355-1.8-1.4A6.482,6.482,0,0,1-4710.424,2649.948Z" transform="translate(4758.2 -2626.162)" fill="#fff"/>
          <path id="Path_135285" data-name="Path 135285" d="M-4712.883,2715.128a76.665,76.665,0,0,1,6.348-19.407l6.535-13.605c-.271-2.193,2.235-8.227,2.35-10.433,0,0,7.432.257,10.878,3.062,3.9,3.172,6.506,13.652,11.264,32.008,0,0,7.866,13.111,10.37,18.312a4.442,4.442,0,0,1-1.407,1.247,7.434,7.434,0,0,1-2.058.726s-14.189-13.852-15.122-16.041c-.4-.946-3.229-5-6.235-10.76l0,.04c-.557,4.54-1.109,8.462-1.529,10.185-1.313,5.4,8.172,30.3,7.734,31.808-.156.538-3.449.8-7.747.8-7.72.007-18.687-.807-20.561-2.306C-4713.626,2739.516-4714.791,2726.751-4712.883,2715.128Z" transform="translate(4757.782 -2635.048)" fill="#24555e"/>
          <path id="Path_135286" data-name="Path 135286" d="M-4693.43,2671.588l-8.389,24.092,8.388-7.931-.635-2.465a5.886,5.886,0,0,0,2.711-.334c.781-.505,2.6-12.823,2.6-12.823a11.2,11.2,0,0,0-2.332-.486A21.38,21.38,0,0,0-4693.43,2671.588Z" transform="translate(4753.067 -2635.006)" fill="#1c3a3e"/>
          <path id="Path_135287" data-name="Path 135287" d="M-4759.458,2706.239c6.492-15.041,7.366-29.092,11.261-32.292,3.448-2.83,10.88-3.089,10.88-3.089v0l.015,0-.013.063c-.874,5.018-1.736,7.683-1.506,13.066a76.637,76.637,0,0,0,1.551,11.411s5.955,45.686,5.066,45.763c-6.736.583-16.191-6.22-16.191-6.22,2.042-5.5,1.308-31.442,1.308-31.445l-.09.159c-2.089,3.663-3.763,6.147-4.066,6.865-.931,2.21-15.122,16.183-15.122,16.183a7.384,7.384,0,0,1-2.056-.733c-.093-.054-.18-.108-.264-.163a4.355,4.355,0,0,1-1.145-1.094C-4767.325,2719.464-4759.458,2706.239-4759.458,2706.239Z" transform="translate(4779.665 -2634.725)" fill="#24555e"/>
          <path id="Path_135288" data-name="Path 135288" d="M-4719.858,2670.859s-1.766,19.045.047,24.54c0,0-5.192-8.22-4.218-9.922l1.881-1.24s-3.632-.472-2.951-2.558l3.487-10.682a3.683,3.683,0,0,1,.8-.138Z" transform="translate(4762.205 -2634.726)" fill="#1c3a3e"/>
          <path id="Path_135289" data-name="Path 135289" d="M-4688.357,2734.393c0,5.809,3.561,20.635,6.83,27.04,4.3,0,7.591-.264,7.747-.8.438-1.5-9.047-26.411-7.734-31.808.42-1.721.973-5.644,1.529-10.184C-4682.893,2721.966-4688.357,2728.946-4688.357,2734.393Z" transform="translate(4747.803 -2653.411)" fill="#1c3a3e"/>
          <path id="Path_135290" data-name="Path 135290" d="M-4767.95,2739.326c.083.056.171.11.263.164a7.384,7.384,0,0,0,2.056.733s14.192-13.973,15.123-16.183c.3-.718,1.977-3.2,4.066-6.865.343-2.714,1.168-9.848-.252-11.571-1.731-2.1-5.937,15.584-7.3,17.562C-4755.094,2724.771-4765.009,2734.649-4767.95,2739.326Z" transform="translate(4778.93 -2648.246)" fill="#1c3a3e"/>
          <path id="Path_135291" data-name="Path 135291" d="M-4717.273,2618.29c6.2-6.113,9.78-5.906,12.454-4.021,1.709,1.2,4.21,5.361,5.11,6.622,1.778,2.488-2.274,14.5-2.274,14.5a13.762,13.762,0,0,0,.13-3.209c-.378,1.776-.77,3-.77,3a42.8,42.8,0,0,0-6.654-10.26,20.519,20.519,0,0,1-2.714-3.626c-3.949,1.463-6.118,7.809-6.118,7.809C-4719.542,2626.1-4719.945,2620.923-4717.273,2618.29Z" transform="translate(4759.878 -2612.138)" fill="#501506"/>
        </g>
        <g id="Group_92358" data-name="Group 92358" transform="translate(178.838 182.208)">
          <g id="Group_92356" data-name="Group 92356" transform="translate(2.23 15.595)">
            <path id="Path_135292" data-name="Path 135292" d="M-4937.345,2833.258a62.02,62.02,0,0,0,42.453-16.845l-5.359-5.153,2.679,2.576-2.673-2.583a49.544,49.544,0,0,1-10.947,7.841,54.223,54.223,0,0,1-29.4,6.633c-24.83-1.448-35.923-14.636-36.033-14.769l-5.747,4.716c.53.645,13.3,15.839,41.347,17.475Q-4939.154,2833.26-4937.345,2833.258Z" transform="translate(4982.376 -2810.959)" fill="#333"/>
          </g>
          <g id="Group_92357" data-name="Group 92357">
            <path id="Path_135293" data-name="Path 135293" d="M-4847.744,2787.428v112a2.192,2.192,0,0,0,2.276,2.081h4.173a2.191,2.191,0,0,0,2.275-2.081v-112a2.191,2.191,0,0,0-2.275-2.081h-4.173A2.192,2.192,0,0,0-4847.744,2787.428Z" transform="translate(4931.955 -2785.348)" fill="#8bc0cc"/>
            <path id="Path_135294" data-name="Path 135294" d="M-4841.67,2787.428v112a2.192,2.192,0,0,0,2.276,2.081h.475a2.191,2.191,0,0,0,2.275-2.081v-112a2.191,2.191,0,0,0-2.275-2.081h-.475A2.192,2.192,0,0,0-4841.67,2787.428Z" transform="translate(4929.58 -2785.348)" fill="#49adb7"/>
            <path id="Path_135295" data-name="Path 135295" d="M-4986.038,2787.428v112a2.191,2.191,0,0,0,2.275,2.081h4.173c.021,0,.042,0,.063,0a2.184,2.184,0,0,0,2.214-2.079v-112a2.183,2.183,0,0,0-2.214-2.079c-.021,0-.042,0-.062,0h-4.173A2.191,2.191,0,0,0-4986.038,2787.428Z" transform="translate(4986.038 -2785.348)" fill="#8bc0cc"/>
            <path id="Path_135296" data-name="Path 135296" d="M-4978.977,2787.43v112a2.184,2.184,0,0,0,2.211,2.079,2.184,2.184,0,0,0,2.214-2.079v-112a2.184,2.184,0,0,0-2.214-2.079A2.184,2.184,0,0,0-4978.977,2787.43Z" transform="translate(4983.277 -2785.349)" fill="#49adb7"/>
          </g>
        </g>
        <g id="Group_92359" data-name="Group 92359" transform="translate(263.712 169.959)">
          <path id="Path_135297" data-name="Path 135297" d="M-4825.311,2809.532a3.487,3.487,0,0,1,3.376-2.66h113.608c.079,0,.157-.011.236-.011h90.8a3.794,3.794,0,0,1,3.67,2.689c.077.248,8.822.531,8.822.778V2893.2c0,8.881-7.915,16.206-17.548,16.206h-89.183a.268.268,0,0,1-.071-.016h-97.6a16.254,16.254,0,0,1-16.206-16.207v-82.835A3.45,3.45,0,0,1-4825.311,2809.532Z" transform="translate(4838.345 -2781.513)" fill="#ffdc72"/>
          <path id="Path_135298" data-name="Path 135298" d="M-4839.607,2765.233H-4604.7a6.8,6.8,0,0,1,6.776,6.776v17.575a6.964,6.964,0,0,1-6.945,6.944h-234.562a7.244,7.244,0,0,1-7.223-7.223v-17.024A7.069,7.069,0,0,1-4839.607,2765.233Z" transform="translate(4846.655 -2765.233)" fill="#ffb74d"/>
        </g>
        <g id="Group_92360" data-name="Group 92360" transform="translate(322.048 148.415)">
          <path id="Path_135299" data-name="Path 135299" d="M-4701.23,2751.4h-41.3l-7.3-21.551h41.3Z" transform="translate(4750.456 -2729.853)" fill="#333"/>
          <path id="Path_135300" data-name="Path 135300" d="M-4702.247,2751.4h-41.3l-7.3-21.551h41.3Z" transform="translate(4750.854 -2729.853)" fill="#333"/>
        </g>
        <g id="Group_92361" data-name="Group 92361" transform="translate(344.495 73.585)">
          <path id="Path_135301" data-name="Path 135301" d="M-4713.991,2614.609l1.188-6.615s12.679-3.3,17.9,1.917c0,0,1.07,3.552.105,5.716,0,0-12.1-.676-15.926,1.54Z" transform="translate(4713.991 -2606.965)" fill="#1c3a3e"/>
          <path id="Path_135302" data-name="Path 135302" d="M-4709.172,2609.182s9.5-.812,13.374,1.077a41.749,41.749,0,0,0-10.867.651,71.21,71.21,0,0,1,12.2,1.217,14.1,14.1,0,0,0-.434-2.215c-5.223-5.217-17.9-1.917-17.9-1.917l-1.188,6.615,3.27,2.559S-4710.676,2610.57-4709.172,2609.182Z" transform="translate(4713.991 -2606.965)" fill="#24555e"/>
        </g>
        <g id="Group_92362" data-name="Group 92362" transform="translate(356.326 133.144)">
          <rect id="Rectangle_32255" data-name="Rectangle 32255" width="4.592" height="8.263" rx="1.33" transform="translate(0 4.538) rotate(-81.267)" fill="#fff"/>
          <rect id="Rectangle_32256" data-name="Rectangle 32256" width="2.164" height="2.901" transform="matrix(0.988, 0.152, -0.152, 0.988, 1.58, 0.951)" fill="#e9f2ff"/>
          <path id="Path_135303" data-name="Path 135303" d="M-4684.348,2708.279l-2.663-.409a.363.363,0,0,1-.3-.414h0a.363.363,0,0,1,.413-.3l2.663.409a.363.363,0,0,1,.3.414h0A.364.364,0,0,1-4684.348,2708.279Z" transform="translate(4691.729 -2705.703)" fill="#e9f2ff"/>
          <path id="Path_135304" data-name="Path 135304" d="M-4684.4,2710.2l-3.106-.477a.139.139,0,0,1-.116-.158h0a.139.139,0,0,1,.158-.115l3.107.477a.138.138,0,0,1,.115.158h0A.139.139,0,0,1-4684.4,2710.2Z" transform="translate(4691.847 -2706.604)" fill="#e9f2ff"/>
          <path id="Path_135305" data-name="Path 135305" d="M-4684.507,2710.933l-3.107-.477a.139.139,0,0,1-.116-.158h0a.139.139,0,0,1,.158-.115l3.107.477a.139.139,0,0,1,.115.158h0A.138.138,0,0,1-4684.507,2710.933Z" transform="translate(4691.891 -2706.888)" fill="#e9f2ff"/>
        </g>
        <rect id="Rectangle_32257" data-name="Rectangle 32257" width="93.642" height="12.334" transform="translate(307.436 22.754)" fill="#ff7b69"/>
        <rect id="Rectangle_32258" data-name="Rectangle 32258" width="2.183" height="12.334" transform="translate(401.077 22.754)" fill="#ff4b42"/>
        <rect id="Rectangle_32259" data-name="Rectangle 32259" width="7.504" height="8.223" transform="translate(310.044 24.882)" fill="#fff"/>
        <rect id="Rectangle_32260" data-name="Rectangle 32260" width="78.27" height="8.223" transform="translate(319.763 24.882)" fill="#fff"/>
        <g id="Group_92363" data-name="Group 92363" transform="translate(192.984 111.82)">
          <path id="Path_135306" data-name="Path 135306" d="M-4915.138,2748.066s11.729-5.34,20.6-.669,3.449,43.222-9.241,46.959h0S-4931.019,2827.47-4915.138,2748.066Z" transform="translate(4946.108 -2699.37)" fill="#49adb7"/>
          <path id="Path_135307" data-name="Path 135307" d="M-4951.628,2748.912c-.578-4.51.546-12.686.546-12.686s-3.984-.205-6.214,5.046c-4.624,10.884-2.616,34.377-2.336,37.74,0,0-1.587,6.679.771,18.231a19.865,19.865,0,0,1-1.1,2.31,1.239,1.239,0,0,0-.115.149h0a1.365,1.365,0,0,0-.02,1.479l1.528,2.421a1.36,1.36,0,0,0,.577.5h0a1.369,1.369,0,0,0,.237.083l1.892.448.187-6.447c0-.005-.011-.005-.021,0C-4955.043,2791.848-4951.1,2753.052-4951.628,2748.912Zm-4.888,49.75-.04-.052.081.047C-4956.494,2798.665-4956.51,2798.667-4956.516,2798.662Z" transform="translate(4961.828 -2695.75)" fill="#fcbdb6"/>
          <path id="Path_135308" data-name="Path 135308" d="M-4899.945,2966.558l-1.507,5.441h-12.736S-4917.98,2965.043-4899.945,2966.558Z" transform="translate(4943.923 -2785.743)" fill="#333"/>
          <path id="Path_135309" data-name="Path 135309" d="M-4944.8,2966.558-4946.3,2972h-12.736S-4962.831,2965.043-4944.8,2966.558Z" transform="translate(4961.463 -2785.743)" fill="#333"/>
          <path id="Path_135310" data-name="Path 135310" d="M-4915.749,2686.494c.832-3.608-.194-6.272-1.85-8.837-1.588-2.46-3.819-2.566-5.963-4.65a13.8,13.8,0,0,0-8.776-3.251c-9.583,0-17.882,5.867-15.99,15.816.6,3.161.093,5.652,2.656,9.347,3.2,4.612,7.087,8.314,13.334,8.314a11.954,11.954,0,0,0,8.776-3.181c1.392-1.316,3.388-1.478,4.614-2.91C-4916.473,2694.248-4916.658,2690.435-4915.749,2686.494Z" transform="translate(4957.25 -2669.756)" fill="#12263f"/>
          <path id="Path_135311" data-name="Path 135311" d="M-4934.193,2713.393s2.1,8.127-2.149,11.584l11.945,6.105,1.573-7.9a38.926,38.926,0,0,1-1.637-14.77Z" transform="translate(4952.457 -2684.873)" fill="#f9a6a0"/>
          <path id="Path_135312" data-name="Path 135312" d="M-4936.458,2709.665s12.226,1.49,12.487-7.123-4.835-14.193-8.236-14.129c-6.782.127-7.9,2.868-8.688,5.722S-4942.086,2709.058-4936.458,2709.665Z" transform="translate(4954.415 -2677.052)" fill="#fcbdb6"/>
          <path id="Path_135313" data-name="Path 135313" d="M-4954.023,2830.218l24.16,2s2.838,42.375-13.037,81.658l-13.538-.258Z" transform="translate(4960.315 -2732.508)" fill="#ffb74d"/>
          <path id="Path_135314" data-name="Path 135314" d="M-4908.316,2834.217s7.434,28.878,1.405,81.582l-16.4,0-7.866-68.424c-.3-2.027-4.11-4.848-4.11-4.848l-.148-7.819Z" transform="translate(4952.102 -2734.072)" fill="#ffdc72"/>
          <path id="Path_135315" data-name="Path 135315" d="M-4918.473,2751.675l1.581-12.976c-.24-.335-.432-.622-.671-.91-2.777-3.4-13.455-4.883-15.61-5.123a2.4,2.4,0,0,1-.4.507c-1.963,1.772-4.629,3.659-8.172,3.18-3.017-.382-3.509-1.963-3.414-3.687a33.642,33.642,0,0,0-9.914,3.042c-6.44,2.414-7.734,23.807-7.734,23.807.855-.255,5.129.493,7.112.864l-.8,31.712c15.371,6.7,37.494,2.394,37.494,2.394l-.048-.192-1.485-25.378,1.389-11.588Z" transform="translate(4962.806 -2694.358)" fill="#1f416b"/>
          <path id="Path_135316" data-name="Path 135316" d="M-4931.23,2714.694s-.266,1.074-2.943.876c0,0-2.248-.166-2.164-1.348A7.233,7.233,0,0,1-4931.23,2714.694Z" transform="translate(4952.456 -2687.046)" fill="#fff"/>
          <path id="Path_135317" data-name="Path 135317" d="M-4906.446,2805.078c1.045,1.309,6.2,1.769,9.291.821l-1.508-25.342,2.074-17.238-2-.93s-8.8,7.057-7.769,12.681S-4907.792,2803.4-4906.446,2805.078Z" transform="translate(4940.927 -2705.982)" fill="#12263f"/>
          <path id="Path_135318" data-name="Path 135318" d="M-4890.392,2752.968a76.615,76.615,0,0,0-9.72,4.357,4.506,4.506,0,0,0-1.2.91l-9.29-18.483-1.772-3.5-1.629-3.3-.143-.288s.128.009.383.048a54.728,54.728,0,0,1,5.745.957,36.935,36.935,0,0,1,4.981,1.437h.047a11.208,11.208,0,0,1,4.453,2.681c.24.288.432.575.671.91C-4894.749,2743.152-4890.392,2752.968-4890.392,2752.968Z" transform="translate(4943.775 -2694.358)" fill="#1f416b"/>
          <path id="Path_135319" data-name="Path 135319" d="M-4903.786,2787.947s-33.088-35.386-11.971-51.044a22.312,22.312,0,0,1,4.357-2.587,36.968,36.968,0,0,1,4.98,1.437,15.965,15.965,0,0,0-7.565,4.645c-5.124,5.7-6.27,17.954,11.16,43.19Z" transform="translate(4947.161 -2695.004)" fill="#49adb7"/>
          <path id="Path_135320" data-name="Path 135320" d="M-4931.307,2686.1s10.448-.006,8.047,7.167c-1.513,4.521,3.519,5.224,3.519,5.224l2.421-7.247-1.517-5.645-6.792-3.3Z" transform="translate(4950.488 -2674.661)" fill="#12263f"/>
          <path id="Path_135321" data-name="Path 135321" d="M-4894.463,2766.118c-3.229,1-8.1,3.167-9.589,4.627,1.643,3.775,2.565,6.272,2.565,6.272-1.234-.549-7.618-1.067-10.927-1.3-.375-.027-3.4-1.02-3.4-1.02s-.024-5.167-5.935-5.576c0,0-2.461.015-1.957,1.7s.558.95,1.217,3.338,2.376,4.2,4.2,4.312c8.774,7.378,20.856,7.437,24.5,7.268a1.451,1.451,0,0,0,1.351-1.117C-4891.055,2778.619-4892,2772.4-4894.463,2766.118Z" transform="translate(4947.542 -2707.441)" fill="#fcbdb6"/>
        </g>
        <g id="Group_92381" data-name="Group 92381" transform="translate(4.201 47.06)">
          <g id="Group_92364" data-name="Group 92364" transform="translate(34.47 108.471)">
            <path id="Path_135322" data-name="Path 135322" d="M-5212.734,2942.649s-4.2,3.9-3.384,6.665,4.614,4.614,5.127,8,2.563,5.229,4.409,5.229h8.8s1.359-2.381-1.922-3.1-4.518-4.694-4.314-8.385a65.924,65.924,0,0,0-.307-8.614l-6.973-1.64Z" transform="translate(5216.224 -2819.466)" fill="#333"/>
            <path id="Path_135323" data-name="Path 135323" d="M-5125.152,2967.814a9.957,9.957,0,0,0,2.59.378h21.281c-.1-.683-.655-2.642-3.773-3.148-3.674-.6-10.043-2.733-11.466-7.432-.044-.153-.085-.307-.121-.464-1.128-5.024-9.331,1.539-9.331,1.539s-.024.2-.061.542C-5126.222,2961.071-5126.709,2967.034-5125.152,2967.814Z" transform="translate(5181.04 -2825.117)" fill="#333"/>
            <path id="Path_135324" data-name="Path 135324" d="M-5115.4,2753.8s-1.246,15.544-2.71,34.229c-1.991,25.382-4.383,56.56-4.621,62.466-.409,10.256-2.052,26.662-2.052,26.662s-3.895,3.9-11.689,2.255a268.348,268.348,0,0,1-8.93-48.2c-.031-.406-.062-.816-.093-1.225-1.846-25.225-4.715-78.342-4.715-78.342Z" transform="translate(5190.406 -2745.49)" fill="#1f416b"/>
            <path id="Path_135325" data-name="Path 135325" d="M-5115.4,2753.8s-1.246,15.544-2.71,34.229l-27.292,43.184c-.031-.406-.062-.816-.093-1.225-1.846-25.225-4.715-78.342-4.715-78.342Z" transform="translate(5190.406 -2745.49)" fill="#12263f"/>
            <path id="Path_135326" data-name="Path 135326" d="M-5144.662,2751.69s-22.456,56.295-37.222,82.75-19.38,33.838-19.38,33.838-8.459-3.384-9.229-5.691c0,0,5.646-51.074,15.535-63.524,5.587-7.035,12.151-28.147,12.458-35.531s2-21.994,2-21.994Z" transform="translate(5213.983 -2741.539)" fill="#1f416b"/>
          </g>
          <path id="Path_135327" data-name="Path 135327" d="M-5033,2745.415s7.924,3.8,8.991,4.779,3.7,5.769,3.5,6.13-.6.473-1.314-.024-2.733-2.572-2.808-2.187,5.379,6.8,4.415,8.161-6.432.957-9.554-1.263-6.239-10.383-6.708-10.828C-5040.459,2746.4-5033,2745.415-5033,2745.415Z" transform="translate(5180.858 -2634.583)" fill="#fcbdb6"/>
          <path id="Path_135328" data-name="Path 135328" d="M-5060.12,2703.676c2.2-1.914,2.258-2.4,2.258-2.4s-14.052-24.3-15.27-26.636-8.749-38.83-8.749-38.83l-26.036-7.549s18.339,47.421,21.542,53.281c5.292,9.685,22.569,23.938,22.569,23.938A8.127,8.127,0,0,0-5060.12,2703.676Z" transform="translate(5208.339 -2588.768)" fill="#ffb74d"/>
          <path id="Path_135329" data-name="Path 135329" d="M-5086.137,2604.863s9.163,16.122,18.119,18.225c0,0-.373-5.414-2.554-9.119.894-1.053,1.677-2.021,2.355-2.887a53.8,53.8,0,0,0,3.326-4.657l-3.039-8.171-2.062-5.544a26.6,26.6,0,0,1-3.222,4.644A21.924,21.924,0,0,1-5086.137,2604.863Z" transform="translate(5199.821 -2574.865)" fill="#fcbdb6"/>
          <path id="Path_135330" data-name="Path 135330" d="M-5064.964,2600.333s-1.094,8.079,5,13.729a53.8,53.8,0,0,0,3.326-4.657l-3.039-8.171A17.376,17.376,0,0,0-5064.964,2600.333Z" transform="translate(5191.57 -2577.845)" fill="#f9a6a0"/>
          <path id="Path_135331" data-name="Path 135331" d="M-5054.211,2600.231s-13.69-5.337-10.235-13.811,4.014-14.87,12.9-11.821,9.255,6.972,8.79,10.08S-5050.562,2601.4-5054.211,2600.231Z" transform="translate(5191.557 -2567.48)" fill="#fcbdb6"/>
          <path id="Path_135332" data-name="Path 135332" d="M-5164.128,2693.952c5.521,7.938,46.814,18.546,46.32,13.053a59.9,59.9,0,0,1,.006-10.838q.157-1.768.439-3.744a86.381,86.381,0,0,1,9.1-27.258c.417-.806.849-1.617,1.3-2.44a83.216,83.216,0,0,0,5.724-12.861c2.861-8.268,4.019-16.178,2.571-21.348a.277.277,0,0,0-.022-.071c-8.629-3.991-11.974-19.467-11.974-19.467s-29.445,5.285-45.941,44.532c0,0-1.584,4.31-3.393,10.159-2.2,7.094-4.731,16.447-5.17,23.119C-5165.383,2689.955-5165.12,2692.521-5164.128,2693.952Z" transform="translate(5230.756 -2581.227)" fill="#ffdc72"/>
          <path id="Path_135333" data-name="Path 135333" d="M-5068.515,2566.6c-.1-.189-.375-.392-1.054-.6a2.847,2.847,0,0,1,1.378-.051c.384-.937,1.318-2.535,3.07-2.548a2.16,2.16,0,0,0-1.375,1.268c2.4-1.522,6.853-1.964,17.964,1.737,14.644,4.878,7.328,13.379,5.108,14.061s-6.306-3.692-9.981-4.29-5.663,4.522-7.064,4.947-.6-.741-2.071-1.907-2.31,1.578-2.278,3.506-2.828,3.755-2.828,3.755l-1.678-3.078c-1.678-3.078-1.222-14.25.381-16.261Z" transform="translate(5193.661 -2563.404)" fill="#12263f"/>
          <path id="Path_135334" data-name="Path 135334" d="M-5165.125,2702.669c35.53-10.718,41.182-53.079,41.182-53.079s-20.229,15.46-36.012,29.96C-5162.154,2686.644-5164.687,2696-5165.125,2702.669Z" transform="translate(5230.711 -2597.109)" fill="#ffb74d"/>
          <g id="Group_92371" data-name="Group 92371" transform="translate(124.297 109.323)">
            <path id="Path_135335" data-name="Path 135335" d="M-5068.708,2770.96l7.39,7.383.1-.064,11.092-6.958s-5.74,1.854-6.517,1.637c-.731-.2-8.749-2.959-10.639-2.73a.76.76,0,0,0-.275.077Z" transform="translate(5068.708 -2753.605)" fill="#49adb7"/>
            <path id="Path_135336" data-name="Path 135336" d="M-5056.91,2774.822c.3-.064,1.177-.273,2.375-.579,3.444-.882,9.516-2.573,11.914-3.961,2.15-1.244,13.514-7.851,21.342-12.492a14.511,14.511,0,0,0-8.787-1.581c-9.14,5.366-21.081,12.408-22.542,13.436-2.4,1.691-5.68,3.736-5.68,3.736s.013.093.047.233C-5058.129,2774.068-5057.79,2775.012-5056.91,2774.822Z" transform="translate(5064.633 -2748.079)" fill="#e58638"/>
            <path id="Path_135337" data-name="Path 135337" d="M-5056.91,2769.681c.3-.064,1.177-.273,2.375-.579,3.444-.882,9.516-2.573,11.914-3.96,2.15-1.244,13.514-7.851,21.342-12.492,3.931-2.33,6.971-4.165,7.505-4.576,1.6-1.228,4.672-4.3,3.916-4.876s-2.231,0-2.786-.082l-.023,0a6.371,6.371,0,0,0-.64-.072,11.022,11.022,0,0,0-6.131,1.8s-4.73,2.763-10.627,6.224c-9.14,5.366-21.081,12.408-22.542,13.436-2.4,1.691-5.68,3.736-5.68,3.736s.013.093.047.233C-5058.129,2768.926-5057.79,2769.87-5056.91,2769.681Z" transform="translate(5064.633 -2742.937)" fill="#8bc0cc"/>
            <path id="Path_135338" data-name="Path 135338" d="M-5056.879,2784.908c.3-.064,1.177-.273,2.375-.579a3.514,3.514,0,0,1,.8-2.454l-4.505,1.825C-5058.1,2784.154-5057.759,2785.1-5056.879,2784.908Z" transform="translate(5064.603 -2758.165)" fill="#49adb7"/>
            <g id="Group_92369" data-name="Group 92369" transform="translate(17.183 0.102)" opacity="0.5">
              <g id="Group_92365" data-name="Group 92365" transform="translate(0 17.313)">
                <path id="Path_135339" data-name="Path 135339" d="M-5040.187,2777.06h0a.149.149,0,0,0,.052-.2l-.08-.135a.148.148,0,0,0-.2-.052h0a.149.149,0,0,0-.053.2l.08.135A.149.149,0,0,0-5040.187,2777.06Z" transform="translate(5040.49 -2773.536)" fill="#49adb7"/>
                <path id="Path_135340" data-name="Path 135340" d="M-5039.106,2776.421h0a.148.148,0,0,0,.053-.2l-.08-.135a.15.15,0,0,0-.2-.052h0a.149.149,0,0,0-.052.2l.08.135A.149.149,0,0,0-5039.106,2776.421Z" transform="translate(5040.067 -2773.286)" fill="#49adb7"/>
                <path id="Path_135341" data-name="Path 135341" d="M-5038.024,2775.782h0a.149.149,0,0,0,.052-.2l-.08-.135a.149.149,0,0,0-.2-.052h0a.149.149,0,0,0-.052.2l.08.135A.149.149,0,0,0-5038.024,2775.782Z" transform="translate(5039.645 -2773.036)" fill="#49adb7"/>
                <path id="Path_135342" data-name="Path 135342" d="M-5036.943,2775.142h0a.149.149,0,0,0,.052-.2l-.08-.135a.15.15,0,0,0-.2-.052h0a.149.149,0,0,0-.052.2l.08.135A.149.149,0,0,0-5036.943,2775.142Z" transform="translate(5039.222 -2772.786)" fill="#49adb7"/>
                <path id="Path_135343" data-name="Path 135343" d="M-5035.862,2774.5h0a.149.149,0,0,0,.052-.2l-.08-.135a.15.15,0,0,0-.2-.052h0a.15.15,0,0,0-.052.2l.081.135A.148.148,0,0,0-5035.862,2774.5Z" transform="translate(5038.799 -2772.536)" fill="#49adb7"/>
                <path id="Path_135344" data-name="Path 135344" d="M-5034.781,2773.864h0a.148.148,0,0,0,.052-.2l-.08-.135a.15.15,0,0,0-.2-.052h0a.148.148,0,0,0-.052.2l.08.135A.148.148,0,0,0-5034.781,2773.864Z" transform="translate(5038.376 -2772.286)" fill="#49adb7"/>
                <path id="Path_135345" data-name="Path 135345" d="M-5033.7,2773.225h0a.148.148,0,0,0,.052-.2l-.08-.135a.15.15,0,0,0-.2-.052h0a.149.149,0,0,0-.052.2l.08.135A.148.148,0,0,0-5033.7,2773.225Z" transform="translate(5037.953 -2772.036)" fill="#49adb7"/>
                <path id="Path_135346" data-name="Path 135346" d="M-5032.618,2772.586h0a.149.149,0,0,0,.051-.2l-.08-.135a.149.149,0,0,0-.2-.052h0a.15.15,0,0,0-.052.2l.08.135A.149.149,0,0,0-5032.618,2772.586Z" transform="translate(5037.53 -2771.786)" fill="#49adb7"/>
                <path id="Path_135347" data-name="Path 135347" d="M-5031.537,2771.947h0a.148.148,0,0,0,.052-.2l-.08-.135a.148.148,0,0,0-.2-.052h0a.149.149,0,0,0-.052.2l.08.135A.148.148,0,0,0-5031.537,2771.947Z" transform="translate(5037.107 -2771.536)" fill="#49adb7"/>
              </g>
              <g id="Group_92366" data-name="Group 92366" transform="translate(13.025 9.614)">
                <path id="Path_135348" data-name="Path 135348" d="M-5018.8,2764.417h0a.148.148,0,0,0,.052-.2l-.08-.135a.149.149,0,0,0-.2-.052h0a.149.149,0,0,0-.052.2l.08.135A.149.149,0,0,0-5018.8,2764.417Z" transform="translate(5019.101 -2760.893)" fill="#49adb7"/>
                <path id="Path_135349" data-name="Path 135349" d="M-5017.716,2763.778h0a.148.148,0,0,0,.052-.2l-.08-.135a.148.148,0,0,0-.2-.052h0a.149.149,0,0,0-.052.2l.08.135A.15.15,0,0,0-5017.716,2763.778Z" transform="translate(5018.678 -2760.643)" fill="#49adb7"/>
                <path id="Path_135350" data-name="Path 135350" d="M-5016.635,2763.138h0a.148.148,0,0,0,.052-.2l-.08-.135a.149.149,0,0,0-.2-.052h0a.149.149,0,0,0-.052.2l.08.135A.149.149,0,0,0-5016.635,2763.138Z" transform="translate(5018.255 -2760.393)" fill="#49adb7"/>
                <path id="Path_135351" data-name="Path 135351" d="M-5015.554,2762.5h0a.149.149,0,0,0,.052-.2l-.08-.135a.149.149,0,0,0-.2-.052h0a.149.149,0,0,0-.053.2l.081.135A.148.148,0,0,0-5015.554,2762.5Z" transform="translate(5017.833 -2760.143)" fill="#49adb7"/>
                <path id="Path_135352" data-name="Path 135352" d="M-5014.473,2761.86h0a.149.149,0,0,0,.053-.2l-.08-.135a.149.149,0,0,0-.2-.053h0a.149.149,0,0,0-.052.2l.08.135A.149.149,0,0,0-5014.473,2761.86Z" transform="translate(5017.409 -2759.893)" fill="#49adb7"/>
                <path id="Path_135353" data-name="Path 135353" d="M-5013.391,2761.221h0a.149.149,0,0,0,.052-.2l-.08-.135a.148.148,0,0,0-.2-.052h0a.149.149,0,0,0-.052.2l.08.135A.15.15,0,0,0-5013.391,2761.221Z" transform="translate(5016.987 -2759.643)" fill="#49adb7"/>
                <path id="Path_135354" data-name="Path 135354" d="M-5012.31,2760.582h0a.148.148,0,0,0,.052-.2l-.08-.135a.148.148,0,0,0-.2-.052h0a.148.148,0,0,0-.052.2l.08.135A.149.149,0,0,0-5012.31,2760.582Z" transform="translate(5016.564 -2759.393)" fill="#49adb7"/>
                <path id="Path_135355" data-name="Path 135355" d="M-5011.229,2759.943h0a.149.149,0,0,0,.052-.2l-.08-.135a.149.149,0,0,0-.2-.053h0a.149.149,0,0,0-.052.2l.081.136A.149.149,0,0,0-5011.229,2759.943Z" transform="translate(5016.141 -2759.143)" fill="#49adb7"/>
                <path id="Path_135356" data-name="Path 135356" d="M-5010.148,2759.3h0a.149.149,0,0,0,.052-.2l-.08-.135a.15.15,0,0,0-.2-.052h0a.149.149,0,0,0-.052.2l.08.135A.149.149,0,0,0-5010.148,2759.3Z" transform="translate(5015.718 -2758.893)" fill="#49adb7"/>
              </g>
              <g id="Group_92367" data-name="Group 92367" transform="translate(14.537)">
                <path id="Path_135357" data-name="Path 135357" d="M-5005.964,2756.831h0a.149.149,0,0,0,.052-.2l-.08-.135a.149.149,0,0,0-.2-.052h0a.149.149,0,0,0-.052.2l.081.135A.148.148,0,0,0-5005.964,2756.831Z" transform="translate(5012.569 -2748.312)" fill="#49adb7"/>
                <path id="Path_135358" data-name="Path 135358" d="M-5008.078,2758.081h0a.149.149,0,0,0,.052-.2l-.08-.135a.149.149,0,0,0-.2-.052h0a.149.149,0,0,0-.053.2l.08.135A.149.149,0,0,0-5008.078,2758.081Z" transform="translate(5013.396 -2748.801)" fill="#49adb7"/>
                <path id="Path_135359" data-name="Path 135359" d="M-5004.883,2756.192h0a.149.149,0,0,0,.052-.2l-.08-.135a.15.15,0,0,0-.2-.052h0a.148.148,0,0,0-.052.2l.081.135A.148.148,0,0,0-5004.883,2756.192Z" transform="translate(5012.147 -2748.062)" fill="#49adb7"/>
                <path id="Path_135360" data-name="Path 135360" d="M-5003.8,2755.553h0a.149.149,0,0,0,.052-.2l-.079-.135a.149.149,0,0,0-.2-.052h0a.148.148,0,0,0-.052.2l.08.135A.148.148,0,0,0-5003.8,2755.553Z" transform="translate(5011.724 -2747.812)" fill="#49adb7"/>
                <path id="Path_135361" data-name="Path 135361" d="M-5002.721,2754.913h0a.148.148,0,0,0,.052-.2l-.08-.135a.15.15,0,0,0-.2-.052h0a.149.149,0,0,0-.052.2l.08.135A.148.148,0,0,0-5002.721,2754.913Z" transform="translate(5011.301 -2747.562)" fill="#49adb7"/>
                <path id="Path_135362" data-name="Path 135362" d="M-5001.639,2754.274h0a.149.149,0,0,0,.052-.2l-.08-.135a.149.149,0,0,0-.2-.052h0a.149.149,0,0,0-.052.2l.08.135A.149.149,0,0,0-5001.639,2754.274Z" transform="translate(5010.878 -2747.312)" fill="#49adb7"/>
                <path id="Path_135363" data-name="Path 135363" d="M-5000.558,2753.635h0a.149.149,0,0,0,.052-.2l-.081-.135a.148.148,0,0,0-.2-.052h0a.148.148,0,0,0-.052.2l.08.135A.148.148,0,0,0-5000.558,2753.635Z" transform="translate(5010.456 -2747.063)" fill="#49adb7"/>
                <path id="Path_135364" data-name="Path 135364" d="M-4999.477,2753h0a.147.147,0,0,0,.052-.2l-.079-.135a.15.15,0,0,0-.2-.052h0a.149.149,0,0,0-.052.2l.08.135A.149.149,0,0,0-4999.477,2753Z" transform="translate(5010.033 -2746.813)" fill="#49adb7"/>
                <path id="Path_135365" data-name="Path 135365" d="M-4998.4,2752.357h0a.148.148,0,0,0,.052-.2l-.08-.135a.149.149,0,0,0-.2-.052h0a.15.15,0,0,0-.052.2l.081.135A.148.148,0,0,0-4998.4,2752.357Z" transform="translate(5009.61 -2746.563)" fill="#49adb7"/>
                <path id="Path_135366" data-name="Path 135366" d="M-4997.314,2751.718h0a.147.147,0,0,0,.052-.2l-.08-.135a.149.149,0,0,0-.2-.052h0a.15.15,0,0,0-.051.2l.08.135A.148.148,0,0,0-4997.314,2751.718Z" transform="translate(5009.187 -2746.313)" fill="#49adb7"/>
                <path id="Path_135367" data-name="Path 135367" d="M-4996.255,2751.092h0a.149.149,0,0,0,.052-.2l-.08-.135a.15.15,0,0,0-.2-.052h0a.149.149,0,0,0-.052.2l.081.135A.149.149,0,0,0-4996.255,2751.092Z" transform="translate(5008.772 -2746.068)" fill="#49adb7"/>
                <path id="Path_135368" data-name="Path 135368" d="M-4995.174,2750.453h0a.149.149,0,0,0,.052-.2l-.08-.136a.15.15,0,0,0-.2-.052h0a.147.147,0,0,0-.051.2l.079.135A.149.149,0,0,0-4995.174,2750.453Z" transform="translate(5008.35 -2745.818)" fill="#49adb7"/>
                <path id="Path_135369" data-name="Path 135369" d="M-4994.093,2749.814h0a.149.149,0,0,0,.053-.2l-.08-.135a.148.148,0,0,0-.2-.052h0a.147.147,0,0,0-.052.2l.08.135A.148.148,0,0,0-4994.093,2749.814Z" transform="translate(5007.927 -2745.568)" fill="#49adb7"/>
                <path id="Path_135370" data-name="Path 135370" d="M-4985.618,2743.958a.228.228,0,0,0,.255.072.227.227,0,0,0,.063-.035l1.032-.817a6.356,6.356,0,0,0-.64-.072l-.674.533A.228.228,0,0,0-4985.618,2743.958Z" transform="translate(5004.513 -2743.105)" fill="#49adb7"/>
                <rect id="Rectangle_32261" data-name="Rectangle 32261" width="0.791" height="1.527" rx="0.395" transform="translate(2.765 11.565) rotate(149.428)" fill="#49adb7"/>
                <rect id="Rectangle_32262" data-name="Rectangle 32262" width="0.791" height="1.527" rx="0.395" transform="translate(1.457 12.339) rotate(149.42)" fill="#49adb7"/>
              </g>
              <g id="Group_92368" data-name="Group 92368" transform="translate(7.202 13.056)">
                <path id="Path_135371" data-name="Path 135371" d="M-5028.359,2770.069h0a.149.149,0,0,0,.052-.2l-.08-.135a.148.148,0,0,0-.2-.053h0a.149.149,0,0,0-.052.2l.08.135A.15.15,0,0,0-5028.359,2770.069Z" transform="translate(5028.663 -2766.544)" fill="#49adb7"/>
                <path id="Path_135372" data-name="Path 135372" d="M-5027.278,2769.43h0a.149.149,0,0,0,.052-.2l-.08-.135a.149.149,0,0,0-.2-.052h0a.149.149,0,0,0-.052.2l.081.135A.148.148,0,0,0-5027.278,2769.43Z" transform="translate(5028.24 -2766.295)" fill="#49adb7"/>
                <path id="Path_135373" data-name="Path 135373" d="M-5026.2,2768.791h0a.149.149,0,0,0,.052-.2l-.08-.135a.15.15,0,0,0-.2-.052h0a.149.149,0,0,0-.051.2l.08.135A.148.148,0,0,0-5026.2,2768.791Z" transform="translate(5027.817 -2766.045)" fill="#49adb7"/>
                <path id="Path_135374" data-name="Path 135374" d="M-5025.115,2768.151h0a.149.149,0,0,0,.052-.2l-.08-.135a.149.149,0,0,0-.2-.053h0a.149.149,0,0,0-.052.2l.08.135A.149.149,0,0,0-5025.115,2768.151Z" transform="translate(5027.394 -2765.795)" fill="#49adb7"/>
                <path id="Path_135375" data-name="Path 135375" d="M-5024.034,2767.512h0a.148.148,0,0,0,.052-.2l-.08-.135a.148.148,0,0,0-.2-.052h0a.15.15,0,0,0-.053.2l.08.134A.148.148,0,0,0-5024.034,2767.512Z" transform="translate(5026.971 -2765.545)" fill="#49adb7"/>
                <path id="Path_135376" data-name="Path 135376" d="M-5022.953,2766.873h0a.148.148,0,0,0,.052-.2l-.081-.135a.148.148,0,0,0-.2-.052h0a.149.149,0,0,0-.052.2l.08.135A.148.148,0,0,0-5022.953,2766.873Z" transform="translate(5026.549 -2765.295)" fill="#49adb7"/>
                <path id="Path_135377" data-name="Path 135377" d="M-5021.872,2766.234h0a.149.149,0,0,0,.052-.2l-.08-.136a.149.149,0,0,0-.2-.052h0a.148.148,0,0,0-.052.2l.08.136A.147.147,0,0,0-5021.872,2766.234Z" transform="translate(5026.125 -2765.045)" fill="#49adb7"/>
                <path id="Path_135378" data-name="Path 135378" d="M-5020.791,2765.595h0a.149.149,0,0,0,.053-.2l-.08-.135a.15.15,0,0,0-.2-.052h0a.15.15,0,0,0-.052.2l.081.135A.148.148,0,0,0-5020.791,2765.595Z" transform="translate(5025.703 -2764.795)" fill="#49adb7"/>
                <path id="Path_135379" data-name="Path 135379" d="M-5019.71,2764.956h0a.149.149,0,0,0,.052-.2l-.08-.135a.148.148,0,0,0-.2-.052h0a.149.149,0,0,0-.053.2l.081.135A.148.148,0,0,0-5019.71,2764.956Z" transform="translate(5025.28 -2764.545)" fill="#49adb7"/>
              </g>
            </g>
            <path id="Path_135380" data-name="Path 135380" d="M-5013.26,2766.953a.531.531,0,0,1-.554-.786,3,3,0,0,1,1.051-1.121c1-.576,1.292,1.249.967,1.454A5.75,5.75,0,0,1-5013.26,2766.953Z" transform="translate(5047.269 -2751.54)" fill="#1c3a3e"/>
            <path id="Path_135381" data-name="Path 135381" d="M-5012.7,2762.739l1.225,2.071a11.123,11.123,0,0,0,2.884-1.177,8.854,8.854,0,0,0,1.956-1.42,2.957,2.957,0,0,0,.293-.328l-1.284-2.172a1.222,1.222,0,0,0-.453.057c-1.458.413-4.452,2.774-4.452,2.774Z" transform="translate(5046.804 -2749.496)" fill="#1c3a3e"/>
            <path id="Path_135382" data-name="Path 135382" d="M-5005.11,2759.77l1.444,2.443a3.046,3.046,0,0,0,.292-.328l-1.284-2.172A1.222,1.222,0,0,0-5005.11,2759.77Z" transform="translate(5043.836 -2749.496)" fill="#49adb7"/>
            <path id="Path_135383" data-name="Path 135383" d="M-5055.134,2781.276a20.47,20.47,0,0,0-6.593,2.618l2.909-.045,3.737-2.209S-5054.835,2781.387-5055.134,2781.276Z" transform="translate(5065.978 -2757.93)" fill="#1c3a3e"/>
            <g id="Group_92370" data-name="Group 92370" transform="translate(19.482 12.349)">
              <path id="Path_135384" data-name="Path 135384" d="M-5036.715,2765.786s2.619,1.8,3.074,2.046a2.531,2.531,0,0,0,1.185.177h0l4.5-.76s4.8-2.8,5.834-3.44h0c.093-.058.156-.1.181-.116.3-.219.4-.414.3-.474s-8,3.081-8.871,3.433l-.025.01c-.851.34-1.021.163-1.021.163l-4.353-1.2a.438.438,0,0,0-.234-.028A2.087,2.087,0,0,0-5036.715,2765.786Z" transform="translate(5036.715 -2763.218)" fill="#49adb7"/>
              <path id="Path_135385" data-name="Path 135385" d="M-5035.764,2765.6c1.19.366,4.483,1.372,4.769,1.408.309.04,7.488-2.563,9.253-3.2h0c.093-.058.157-.1.182-.116.3-.219.4-.414.3-.474s-8,3.081-8.871,3.433-1.045.173-1.045.173l-4.354-1.2A.436.436,0,0,0-5035.764,2765.6Z" transform="translate(5036.343 -2763.218)" fill="#49adb7"/>
              <path id="Path_135386" data-name="Path 135386" d="M-5036.715,2767.314s2.619,1.8,3.074,2.046a2.533,2.533,0,0,0,1.185.177h0a9.735,9.735,0,0,0,1.924-1.346c-.851.34-1.021.162-1.021.162l-4.353-1.2a.438.438,0,0,0-.234-.028A2.087,2.087,0,0,0-5036.715,2767.314Z" transform="translate(5036.715 -2764.746)" fill="#49adb7"/>
            </g>
            <path id="Path_135387" data-name="Path 135387" d="M-5060.646,2778.465l11.294-7.067s-5.832,1.9-6.617,1.691c-.74-.2-8.848-2.906-10.765-2.662,2.178.88,7.288,3.059,7.641,4.268C-5058.757,2775.845-5060,2777.635-5060.646,2778.465Z" transform="translate(5067.937 -2753.682)" fill="#8bc0cc"/>
          </g>
          <g id="Group_92379" data-name="Group 92379" transform="translate(0 115.24)">
            <g id="Group_92372" data-name="Group 92372" transform="translate(44.395 126.757)">
              <path id="Path_135388" data-name="Path 135388" d="M-5190.849,2963.689a4.729,4.729,0,0,1-2.487,6.208,4.729,4.729,0,0,1-6.208-2.487,4.728,4.728,0,0,1,2.487-6.208A4.728,4.728,0,0,1-5190.849,2963.689Z" transform="translate(5199.926 -2960.819)" fill="#49adb7"/>
              <path id="Path_135389" data-name="Path 135389" d="M-5189.472,2963.689a4.729,4.729,0,0,1-2.487,6.208,4.729,4.729,0,0,1-6.208-2.487,4.728,4.728,0,0,1,2.487-6.208A4.729,4.729,0,0,1-5189.472,2963.689Z" transform="translate(5199.388 -2960.819)" fill="#49adb7"/>
            </g>
            <g id="Group_92373" data-name="Group 92373" transform="translate(17.426 126.757)">
              <path id="Path_135390" data-name="Path 135390" d="M-5235.136,2963.689a4.73,4.73,0,0,1-2.487,6.208,4.729,4.729,0,0,1-6.208-2.487,4.728,4.728,0,0,1,2.487-6.208A4.729,4.729,0,0,1-5235.136,2963.689Z" transform="translate(5244.214 -2960.819)" fill="#49adb7"/>
              <path id="Path_135391" data-name="Path 135391" d="M-5233.76,2963.689a4.729,4.729,0,0,1-2.487,6.208,4.729,4.729,0,0,1-6.208-2.487,4.729,4.729,0,0,1,2.488-6.208A4.728,4.728,0,0,1-5233.76,2963.689Z" transform="translate(5243.676 -2960.819)" fill="#49adb7"/>
            </g>
            <g id="Group_92374" data-name="Group 92374" transform="translate(28.369)">
              <path id="Path_135392" data-name="Path 135392" d="M-5197.423,2803.946l-2-.406c2.7-13.316,7.767-39.441,7.585-42.993-.116-2.238-.8-3.855-2.04-4.8a6.683,6.683,0,0,0-4.874-.929l-.109.018-8.144.856c-9.642.243-10.4,8.217-10.425,8.557l-.014.1-6.8,37.271-2.006-.366,6.787-37.225a12.1,12.1,0,0,1,1.84-5.063c1.51-2.336,4.561-5.151,10.521-5.314l7.972-.841a8.617,8.617,0,0,1,6.473,1.3c1.744,1.33,2.7,3.46,2.85,6.331C-5189.56,2765.136-5197.1,2802.363-5197.423,2803.946Z" transform="translate(5226.244 -2752.655)" fill="#49adb7"/>
            </g>
            <path id="Path_135393" data-name="Path 135393" d="M-5194.074,2830.531l-20.593-4.116-4.027,80.763-38.1,3.367,6.724,2.416a6.1,6.1,0,0,0,2.121.358l36.279-.372q.944.01,1.819-.018h.061c14.193-.484,14.881-8.221,14.881-8.221s4.6-51.951,5.643-61.21C-5188.07,2832.975-5194.074,2830.531-5194.074,2830.531Z" transform="translate(5266.559 -2781.5)" fill="#49adb7"/>
            <path id="Path_135394" data-name="Path 135394" d="M-5209.524,2840.639l-5.538,58.18a13.107,13.107,0,0,1-2.343,6.33,13.135,13.135,0,0,1-10.663,5.571l-19.1.119-.472,0-11.961.074a13.187,13.187,0,0,1-3.465-.437q-.387-.1-.763-.226a13.2,13.2,0,0,1-8.506-8.888,13.082,13.082,0,0,1-.338-5.618l8.673-55.668a13.15,13.15,0,0,1,11.74-11.062l3.374-.323.8-.075h0l.675-.064,11.276-1.079,1.384-.131,10.882-1.04a13.152,13.152,0,0,1,4.9.45c.1.029.2.059.3.092l.629.215A13.151,13.151,0,0,1-5209.524,2840.639Z" transform="translate(5272.833 -2781.434)" fill="#8bc0cc"/>
            <path id="Path_135395" data-name="Path 135395" d="M-5217.391,2951.518a13.135,13.135,0,0,1-10.664,5.57l-19.1.119-.472,0-11.961.074a13.181,13.181,0,0,1-3.465-.437q-.387-.1-.763-.226c-4.141-1.374-8.914-6.386-8.982-11.7,0,0,40.4-.529,48.845.775C-5219.6,2946.367-5218.293,2949.413-5217.391,2951.518Z" transform="translate(5272.818 -2827.802)" fill="#49adb7" opacity="0.5"/>
            <g id="Group_92378" data-name="Group 92378" transform="translate(5.292 45.321)">
              <g id="Group_92375" data-name="Group 92375" transform="translate(0 1.799)">
                <path id="Path_135396" data-name="Path 135396" d="M-5244.006,2830.038c-.083.052-8.941,5.449-10.106,10.191-1.2,4.875-9.194,61.681-9.274,62.254a13.165,13.165,0,0,0,4.327,9.625l-.607-.146q-.387-.1-.763-.226a11.818,11.818,0,0,1-3.671-9.352c.329-2.345,8.085-57.418,9.288-62.327,1.056-4.3,7.3-8.587,9.325-9.88l.8-.076h0Z" transform="translate(5264.142 -2830.038)" fill="#49adb7"/>
              </g>
              <g id="Group_92376" data-name="Group 92376" transform="translate(18.644 0.589)">
                <path id="Path_135397" data-name="Path 135397" d="M-5219.373,2828.051a17.242,17.242,0,0,0-7.175,11.383c-1.218,8-5.973,66.143-6.02,66.728l0,.042-.013.039a6.467,6.467,0,0,0,1.269,5.3l-.479,0-.472,0a6.226,6.226,0,0,1-1.018-5.485c.148-1.8,4.815-58.8,6.024-66.737a17.934,17.934,0,0,1,6.5-11.145Z" transform="translate(5233.525 -2828.051)" fill="#49adb7"/>
              </g>
              <g id="Group_92377" data-name="Group 92377" transform="translate(36.337)">
                <path id="Path_135398" data-name="Path 135398" d="M-5191.3,2827.391a14.933,14.933,0,0,0-3.463,2.86,16.423,16.423,0,0,0-3.9,8.479c-1.217,8-4.987,65.945-5.025,66.528l0,.046-.014.041c-.009.03-.175,3.575,1.781,5.707l-1.2.008c-1.495-1.948-1.4-5.471-1.277-5.889.12-1.853,3.82-58.609,5.027-66.549a16.433,16.433,0,0,1,7.147-11.539c.1.029.2.059.3.092Z" transform="translate(5204.468 -2827.083)" fill="#49adb7"/>
              </g>
            </g>
          </g>
          <g id="Group_92380" data-name="Group 92380" transform="translate(47.035 104.887)">
            <path id="Path_135399" data-name="Path 135399" d="M-5186.781,2737.717s-3.726-4.443-4.538-.293c-.095.49-4.113,5.887-4.267,8.834s3.619,4.368,4.9,4.434c1.027.053,1.282-1.564,1.488-2.266h0a3.2,3.2,0,0,1,2.762-2.366l.14-.015c.055-.2.1-.37.122-.509C-5185.979,2744.439-5186.781,2737.717-5186.781,2737.717Z" transform="translate(5195.59 -2735.653)" fill="#fcbdb6"/>
            <path id="Path_135400" data-name="Path 135400" d="M-5184.928,2756.465a3.177,3.177,0,0,0-.207.892c-.025.672.94.633,1.259.615a4.712,4.712,0,0,0,.913-1.713Z" transform="translate(5191.501 -2743.711)" fill="#fcbdb6"/>
          </g>
          <path id="Path_135401" data-name="Path 135401" d="M-5186.857,2694.75c2.819,1.292,3.865-.026,3.865-.026s16.42-27.419,18.149-29.624,32.04-15.212,32.04-15.212,12.336-4.715,12.823-12.2c.424-6.5-3.268-10.5-7.31-12.907a13.648,13.648,0,0,0-15.344.991c-9.942,7.721-29.653,23.254-32.826,27.466-7.06,9.375-14.886,38.759-14.886,38.759A9.763,9.763,0,0,0-5186.857,2694.75Z" transform="translate(5240.574 -2586.664)" fill="#ffdc72"/>
        </g>
        <path id="Path_135402" data-name="Path 135402" d="M-5278.992,2977.392H-4693.8c.407,0,.739-.462.739-1.027h0c0-.565-.333-1.028-.739-1.028h-585.188c-.406,0-.739.463-.739,1.028h0C-5279.731,2976.93-5279.4,2977.392-5278.992,2977.392Z" transform="translate(5279.731 -2677.44)" fill="#1c3a3e"/>
      </g>
    </g>
  </g>
</svg>
