<svg xmlns="http://www.w3.org/2000/svg" xmlns:xlink="http://www.w3.org/1999/xlink" width="295" height="336.165" viewBox="0 0 295 336.165">
  <defs>
    <clipPath id="clip-path">
      <path id="Path_103901" data-name="Path 103901" d="M24.221,341.84c4.779-14.771,30.4-24.99,48.774-30.546-3.938,6.237-7.595,11.587-8.335,13.955-1.728,5.53-1.382,7.95-1.382,7.95s8.3,10.369,13.135,12.1,53.227-30.07,68.781-48.389c0,0,17.281,4.147,23.964,22.121s16.359,80.187,16.359,80.187H13.135S16.617,365.343,24.221,341.84Z" transform="translate(-13.135 -296.907)" fill="none"/>
    </clipPath>
    <clipPath id="clip-path-2">
      <path id="Path_103912" data-name="Path 103912" d="M163.526,173.895s17.627,21.429,16.245,57.721-7.259,73.273-11.751,83.3L86.1,351.2s-1.382,8.641,0,15.9c0,0,8.123-3.976,12.615,1.382s1.211,23.675-19.528,25.576S39.962,369.7,38.58,348.784s13.135-40.611,15.553-46.314,7.654-13.536,7.37-30.7-3.426-66.431-3.426-66.431-8.091-2.582-5.671-17.1S74.438,157.26,97.337,153.33C120.5,149.355,142.961,151.083,163.526,173.895Z" transform="translate(-38.487 -151.656)" fill="none"/>
    </clipPath>
  </defs>
  <g id="t2-i5" transform="translate(-1020 -2878.835)">
    <path id="Path_135489" data-name="Path 135489" d="M505,0H276a66,66,0,0,0-66,66V91H505Z" transform="translate(810 3124)" fill="#ffb74d"/>
    <g id="Group_92482" data-name="Group 92482" transform="translate(1048 2878.835)">
      <path id="Path_103898" data-name="Path 103898" d="M23.471,341.84c4.779-14.771,30.4-24.99,48.774-30.546-3.938,6.237-7.595,11.587-8.335,13.955-1.728,5.53-1.382,7.95-1.382,7.95s8.3,10.369,13.135,12.1,53.227-30.07,68.781-48.389c0,0,17.281,4.147,23.964,22.121s16.359,80.187,16.359,80.187H13.135S15.868,365.343,23.471,341.84Z" transform="translate(53.927 -63.049)" fill="#f24f71"/>
      <g id="Group_57279" data-name="Group 57279" transform="translate(66.313 233.858)">
        <g id="Group_57278" data-name="Group 57278" clip-path="url(#clip-path)">
          <g id="Group_57277" data-name="Group 57277" transform="translate(13.09 54.541)">
            <g id="Group_57275" data-name="Group 57275" transform="translate(111.064)">
              <path id="Path_103899" data-name="Path 103899" d="M56.6,407.088h0a.531.531,0,0,0,.526-.535c-.23-26.491-8.686-60.38-8.771-60.72a.53.53,0,1,0-1.028.26c.084.337,8.51,34.107,8.739,60.469A.53.53,0,0,0,56.6,407.088Z" transform="translate(-47.31 -345.433)" fill="#bc3556"/>
            </g>
            <g id="Group_57276" data-name="Group 57276" transform="translate(0 14.158)">
              <path id="Path_103900" data-name="Path 103900" d="M153.046,404.61a.536.536,0,0,0,.3-.094.53.53,0,0,0,.135-.737c-.037-.055-3.75-5.63-3.75-20.437,0-14.863,5.756-24.411,5.813-24.506a.53.53,0,0,0-.9-.555c-.06.1-5.972,9.88-5.972,25.061,0,15.2,3.779,20.81,3.939,21.041A.527.527,0,0,0,153.046,404.61Z" transform="translate(-148.672 -358.029)" fill="#bc3556"/>
            </g>
          </g>
        </g>
      </g>
      <path id="Path_103902" data-name="Path 103902" d="M163.526,173.895s17.627,21.429,16.245,57.721-7.259,73.273-11.751,83.3L86.1,351.2s-1.382,8.641,0,15.9c0,0,8.123-3.976,12.615,1.382s1.211,23.675-19.528,25.576S39.962,369.7,38.58,348.784s13.135-40.611,15.553-46.314,7.654-13.536,7.37-30.7-3.426-66.431-3.426-66.431-8.091-2.582-5.671-17.1S74.438,157.26,97.337,153.33C120.5,149.355,142.961,151.083,163.526,173.895Z" transform="translate(30.351 -81.055)" fill="#162655"/>
      <g id="Group_57291" data-name="Group 57291" transform="translate(68.838 70.601)">
        <g id="Group_57290" data-name="Group 57290" clip-path="url(#clip-path-2)">
          <g id="Group_57289" data-name="Group 57289" transform="translate(8.63 -0.531)">
            <g id="Group_57280" data-name="Group 57280" transform="translate(85.117 20.273)">
              <path id="Path_103903" data-name="Path 103903" d="M71.317,220.982a.531.531,0,0,0,.451-.25c.138-.221,13.807-22.515,9.485-51.059a.53.53,0,0,0-1.049.158c4.261,28.143-9.2,50.121-9.337,50.339a.53.53,0,0,0,.45.812Z" transform="translate(-70.787 -169.221)" fill="#2c3f70"/>
            </g>
            <g id="Group_57281" data-name="Group 57281" transform="translate(66.111 9.695)">
              <path id="Path_103904" data-name="Path 103904" d="M79.514,207.305a.531.531,0,0,0,.35-.132c19.656-17.219,20.22-46.533,20.223-46.828a.53.53,0,0,0-.524-.536h-.007a.531.531,0,0,0-.531.524c0,.29-.568,29.14-19.862,46.042a.53.53,0,0,0,.35.93Z" transform="translate(-78.983 -159.81)" fill="#2c3f70"/>
            </g>
            <g id="Group_57282" data-name="Group 57282" transform="translate(41.027 4.255)">
              <path id="Path_103905" data-name="Path 103905" d="M84.7,196.9a.53.53,0,0,0,.506-.372c8.953-28.6,38.683-40.418,38.983-40.533a.531.531,0,0,0-.383-.99c-.3.118-30.5,12.111-39.612,41.207a.529.529,0,0,0,.347.664A.524.524,0,0,0,84.7,196.9Z" transform="translate(-84.17 -154.97)" fill="#2c3f70"/>
            </g>
            <g id="Group_57283" data-name="Group 57283" transform="translate(20.54)">
              <path id="Path_103906" data-name="Path 103906" d="M89.816,191.807a.532.532,0,0,0,.5-.363c12.806-38.553,53.129-39.2,53.534-39.2a.531.531,0,0,0,0-1.061h0c-.414,0-41.492.659-54.536,39.925a.53.53,0,0,0,.336.671A.539.539,0,0,0,89.816,191.807Z" transform="translate(-89.285 -151.184)" fill="#2c3f70"/>
            </g>
            <g id="Group_57284" data-name="Group 57284" transform="translate(105.313 56.129)">
              <path id="Path_103907" data-name="Path 103907" d="M52.371,304.228a.529.529,0,0,0,.5-.348c18.191-50.032,9.141-101.8,9.048-102.321a.531.531,0,0,0-1.044.189c.093.515,9.089,52.014-9,101.769a.53.53,0,0,0,.317.68A.539.539,0,0,0,52.371,304.228Z" transform="translate(-51.84 -201.123)" fill="#2c3f70"/>
            </g>
            <g id="Group_57285" data-name="Group 57285" transform="translate(91.29 108.418)">
              <path id="Path_103908" data-name="Path 103908" d="M68.449,292.106a.53.53,0,0,0,.508-.378,185.18,185.18,0,0,0,7.321-43.541.531.531,0,0,0-.519-.542.507.507,0,0,0-.542.518,184.064,184.064,0,0,1-7.277,43.26.531.531,0,0,0,.356.661A.548.548,0,0,0,68.449,292.106Z" transform="translate(-67.919 -247.645)" fill="#2c3f70"/>
            </g>
            <g id="Group_57286" data-name="Group 57286" transform="translate(20.425 130.945)">
              <path id="Path_103909" data-name="Path 103909" d="M134.1,380.209a.529.529,0,0,0,.386-.894c-7.03-7.464-12.957-21.152-10.348-34.907,1.376-7.256,3.795-15.171,6.6-24.337,2.245-7.345,4.788-15.67,6.992-24.5,4.826-19.32,1.63-27.237,1.491-27.564a.53.53,0,0,0-.978.411c.033.078,3.182,7.986-1.542,26.9-2.2,8.8-4.738,17.11-6.979,24.444-2.81,9.194-5.237,17.136-6.622,24.448-2.68,14.123,3.4,28.172,10.619,35.832A.529.529,0,0,0,134.1,380.209Z" transform="translate(-122.453 -267.687)" fill="#2c3f70"/>
            </g>
            <g id="Group_57287" data-name="Group 57287" transform="translate(0 127.376)">
              <path id="Path_103910" data-name="Path 103910" d="M137.693,365.865a.541.541,0,0,0,.162-.025.532.532,0,0,0,.344-.668c-8.483-26.586.543-43.928,8.506-59.227,2.058-3.955,4-7.69,5.627-11.5,8.026-18.806,7.07-29.035,7.025-29.461a.522.522,0,0,0-.582-.472.531.531,0,0,0-.473.582c.011.1.958,10.419-6.945,28.935-1.608,3.769-3.544,7.487-5.592,11.423-8.06,15.483-17.193,33.032-8.577,60.041A.532.532,0,0,0,137.693,365.865Z" transform="translate(-133.71 -264.512)" fill="#2c3f70"/>
            </g>
            <g id="Group_57288" data-name="Group 57288" transform="translate(38.456 215.448)">
              <path id="Path_103911" data-name="Path 103911" d="M122.387,350.267a.53.53,0,0,0,.234-1.007c-2.567-1.254-3.672-5.931-3.683-5.978a.531.531,0,0,0-1.034.238c.049.211,1.228,5.216,4.251,6.694A.539.539,0,0,0,122.387,350.267Z" transform="translate(-117.89 -342.87)" fill="#2c3f70"/>
            </g>
          </g>
        </g>
      </g>
      <path id="Path_103913" data-name="Path 103913" d="M62.586,186.2s-8.3,13.825-12.1,35.945S47.723,273.3,84.705,278.832c14.862,2.42,18.318,0,18.318,0a141.805,141.805,0,0,1,1.729,21.429c0,11.406-17.627,33.18-19.356,38.71s-1.382,7.95-1.382,7.95,8.3,10.368,13.135,12.1,53.227-30.07,68.781-48.389c0,0-14.862-4.494-22.812-8.295s-12.443-5.185-13.135-16.591,1.729-26.613,1.729-26.613,9.677,1.382,17.627-7.95-1.729-20.047-9.332-19.356-10.369,14.66-10.369,14.66l-6.912-3.945s6.912-15.9,7.949-24.194C130.674,218.346,114.43,196.572,62.586,186.2Z" transform="translate(32.441 -76.772)" fill="#ffb78c"/>
      <path id="Path_103914" data-name="Path 103914" d="M78.132,237.425a4.61,4.61,0,0,0-1.408-1.72,3.877,3.877,0,0,0-2.315-.8,4.046,4.046,0,0,0-2.432.865,7.2,7.2,0,0,0-1.626,1.7,14.1,14.1,0,0,0-2.356,8.248c.765-1.234,1.413-2.453,2.059-3.645A35.646,35.646,0,0,1,72.08,238.7a8.4,8.4,0,0,1,1.154-1.372,2.9,2.9,0,0,1,1.322-.782A5.329,5.329,0,0,1,78.132,237.425Z" transform="translate(98.923 -70.735)" fill="#ce734e"/>
      <path id="Path_103915" data-name="Path 103915" d="M107.066,206.44a9.848,9.848,0,0,0,3.687,2.65c2.3.922,3.226,3.456,5.3,3.687s3.572-4.032-1.613-7.6S106.375,203.561,107.066,206.44Z" transform="translate(15.265 -74.66)" fill="#162655"/>
      <path id="Path_103916" data-name="Path 103916" d="M136.521,197.017a13.679,13.679,0,0,1,7.028,0c3.687,1.036,3.8,5.53,0,5.184s-4.147-1.152-7.028-.922S133.635,197.459,136.521,197.017Z" transform="translate(-43.914 -75.489)" fill="#162655"/>
      <path id="Path_103917" data-name="Path 103917" d="M147.961,212.239c-.9,1.044-1.787,2.052-2.72,2.994a21.972,21.972,0,0,1-2.932,2.528,11.806,11.806,0,0,1-3.384,1.553c-.627.21-1.253.421-1.871.61l-.916.257-.435.1-.191.033-.075.01s-.08,0,.056.011l-1.133,1.116a12.272,12.272,0,0,0,.79,2.624,10.732,10.732,0,0,0,1.4,2.309,7.257,7.257,0,0,0,2.068,1.728,5.906,5.906,0,0,0,2.5.717,8.289,8.289,0,0,1-2.011-1.394,7.812,7.812,0,0,1-1.4-1.853,10.414,10.414,0,0,1-.88-2.134,10.563,10.563,0,0,1-.459-2.218l-1.133,1.115a1.814,1.814,0,0,0,.31.01l.178-.012.31-.037c.193-.029.378-.063.559-.1.36-.073.7-.161,1.044-.258.68-.189,1.336-.409,1.985-.646a18.168,18.168,0,0,0,1.978-.819,10.888,10.888,0,0,0,1.837-1.261,14.639,14.639,0,0,0,2.744-3.238A15.625,15.625,0,0,0,147.961,212.239Z" transform="translate(-45.519 -73.545)" fill="#ce734e"/>
      <path id="Path_103918" data-name="Path 103918" d="M114.431,218.583c-1.367,3.326-1,6.629.828,7.379s4.412-1.338,5.778-4.663,1-6.628-.828-7.378S115.8,215.258,114.431,218.583Z" transform="translate(3.906 -73.355)" fill="#59313e"/>
      <path id="Path_103919" data-name="Path 103919" d="M140.109,209.705c-1.367,3.325-1,6.628.828,7.378s4.412-1.338,5.778-4.662,1-6.629-.828-7.379S141.476,206.379,140.109,209.705Z" transform="translate(-50.633 -74.456)" fill="#59313e"/>
      <path id="Path_103920" data-name="Path 103920" d="M123.645,237.4s4.147,1.3,10.6-1.6,9.793-1.855,11.29,1.888-2.9,12.019-15.784,12.152S118,240.861,118.805,238.9,121.442,237.121,123.645,237.4Z" transform="translate(-25.393 -70.83)" fill="#932047"/>
      <path id="Path_103921" data-name="Path 103921" d="M121.22,237.4s4.147,1.3,10.6-1.6c5.177-2.323,8.348-2.107,10.174,0-12.406,9.347-20.658,6.189-20.658,6.189l-1.73-4.748C120.112,237.271,120.651,237.33,121.22,237.4Z" transform="translate(-22.968 -70.83)" fill="#fff"/>
      <path id="Path_103922" data-name="Path 103922" d="M118.363,249.169c2.351-8.869,12.222-11.866,12.222-11.866C131.935,240.674,128.478,247.705,118.363,249.169Z" transform="translate(-10.444 -70.438)" fill="#ed8470"/>
      <path id="Path_103923" data-name="Path 103923" d="M77.3,236.943S92.389,220.6,94.117,198.435s-7.2-30.3-11.809-35.281-15.667-11.764-29.494-11.5c0,0,18.491,11.179,26.1,32.78s-6.221,51.672-6.221,51.672A6.105,6.105,0,0,1,77.3,236.943Z" transform="translate(99.759 -81.056)" fill="#ffdc5e"/>
      <path id="Path_103924" data-name="Path 103924" d="M149.783,186.224a18.245,18.245,0,0,0-7.835.575c-3.917,1.268,5.044,4.889,5.044,4.889S148.86,187.26,149.783,186.224Z" transform="translate(-54.756 -76.793)" fill="#101d3d"/>
      <path id="Path_103925" data-name="Path 103925" d="M79.455,270.789a48.35,48.35,0,0,0,28.688-19.7S106.927,259,106.634,264.6c0,0-3.446,16.33-25.508,23.931C81.125,288.533,81.53,283.231,79.455,270.789Z" transform="translate(56.01 -68.729)" fill="#ff9360"/>
      <path id="Path_103926" data-name="Path 103926" d="M190.684,174.286s-11.06-6.913-4.378-16.36,16.813-3.226,34.56-10.138,27.193-28.342,4.842-46.315-71.891-15.669-94.472,0-14.055,42.628,14.517,52.536c19.767,6.855,20.507,4.147,20.507,4.147S172.02,171.52,190.684,174.286Z" transform="translate(-118.354 -88.841)" fill="#8c6df2"/>
    </g>
  </g>
</svg>
