<svg xmlns="http://www.w3.org/2000/svg" xmlns:xlink="http://www.w3.org/1999/xlink" width="295" height="221" viewBox="0 0 295 221">
  <defs>
    <clipPath id="clip-path">
      <rect id="Rectangle_32264" data-name="Rectangle 32264" width="200" height="221" transform="translate(211 981)" fill="#fff" stroke="#707070" stroke-width="1"/>
    </clipPath>
  </defs>
  <g id="t2-i2" transform="translate(-180 -1196)">
    <path id="Rectangle_32188" data-name="Rectangle 32188" d="M0,0H229a66,66,0,0,1,66,66V91a0,0,0,0,1,0,0H0a0,0,0,0,1,0,0V0A0,0,0,0,1,0,0Z" transform="translate(180 1326)" fill="#ffdc72" opacity="0.5"/>
    <g id="Mask_Group_52" data-name="Mask Group 52" transform="translate(17 215)" clip-path="url(#clip-path)">
      <g id="Group_92426" data-name="Group 92426" transform="translate(3682.444 -1247.566)">
        <g id="Group_92386" data-name="Group 92386" transform="translate(-3471.444 2775.795)" opacity="0.5">
          <g id="Group_92385" data-name="Group 92385">
            <g id="Group_92384" data-name="Group 92384">
              <path id="Path_135403" data-name="Path 135403" d="M-3282.5,2703.743c0,6.933-42.3,12.552-94.47,12.552s-94.474-5.62-94.474-12.552,42.3-12.552,94.474-12.552S-3282.5,2696.811-3282.5,2703.743Z" transform="translate(3471.444 -2691.191)" fill="#231f20"/>
            </g>
          </g>
        </g>
        <ellipse id="Ellipse_4104" data-name="Ellipse 4104" cx="13.394" cy="20.895" rx="13.394" ry="20.895" transform="translate(-3402.805 2286.001)" fill="#603913"/>
        <path id="Path_135404" data-name="Path 135404" d="M-3348.637,2332.465c7.7,5.043,27.187,54.584,31.515,93.3,0,0-13.726,5.538-18.035,3.126-5.562-3.113-24.287-63.963-24.287-63.963Z" transform="translate(20.482 19.001)" fill="#8c6df2"/>
        <path id="Path_135405" data-name="Path 135405" d="M-3342.491,2393.329c-1.75-10.538-4.48-20.927-7.058-31.29-1.318-5.3-2.312-10.928-4.453-15.948l-5.442,16.344s9.942,32.3,17.489,51.037C-3341.89,2406.448-3341.489,2399.357-3342.491,2393.329Z" transform="translate(20.482 21.492)" fill="#5038a1"/>
        <path id="Path_135406" data-name="Path 135406" d="M-3340.141,2420.922c-.837-.774-10.46-7.575-4.328-19.477s11.18-12.264,11.18-12.264,20.56,12.986,16.953,22.724S-3330.4,2429.94-3340.141,2420.922Z" transform="translate(22.85 29.373)" fill="#e6e7e8"/>
        <path id="Path_135407" data-name="Path 135407" d="M-3425.421,2334.96c-8.249,6.135-26.7,77.871-26.934,98.168-.069,5.962,16.592,16.592,20.92,7.935s24.575-77.909,24.575-77.909Z" transform="translate(3.491 19.457)" fill="#8c6df2"/>
        <path id="Path_135408" data-name="Path 135408" d="M-3438.88,2486.747s5.706,11.039,6.645,13.8,3.63,14.548,3.63,14.548-2.587,1.744-5.767-3.074-2.91-7.832-4.979-6.264-2.316,14.668-2.745,16.206-1.681,9.524-4,9.6-2.09-.549-2.09-.549-2.576,1.232-2.5-.446c.029-.57-1.945-14.053-3.752-17.231s.3-19.521-.124-22.012a28.409,28.409,0,0,1,.636-10.9l14.585,3.163Z" transform="translate(2.975 46.059)" fill="#fab57a"/>
        <path id="Path_135409" data-name="Path 135409" d="M-3451.983,2417.951l-2.4,75.985c3.906,2.93,8.978,3.032,14.864,1.156l8.7-72.332Z" transform="translate(3.119 34.634)" fill="#fab57a"/>
        <path id="Path_135410" data-name="Path 135410" d="M-3433.25,2443.171l2.176-20.411-21.16-4.809-.786,24.886C-3446.428,2442.811-3439.838,2442.946-3433.25,2443.171Z" transform="translate(3.37 34.634)" fill="#e58052"/>
        <path id="Path_135411" data-name="Path 135411" d="M-3456.624,2414.306c8.656-1.083,28.855,7.574,31.02,10.821S-3428.49,2441-3428.49,2441l-28.135-2.525Z" transform="translate(2.711 33.951)" fill="#e6e7e8"/>
        <path id="Path_135412" data-name="Path 135412" d="M-3306.164,2346.111s-3.353,76.8-23.812,80.127c0,0-5.359,1.594-10.823-5.894-7.479-4.637,20.86-64.425,22.491-75.425Z" transform="translate(23.663 21.279)" fill="#fab57a"/>
        <path id="Path_135413" data-name="Path 135413" d="M-3400.381,2708.8s18.792-77.333,27.681-96,9.333-31.111,15.112-40.888,29.713-87.111,22.6-114.666l-45.777,32.444-7.491,76.445s-3.111,25.777-5.778,30.666-9.333,21.778-12.888,38.667,6.985,40-5.015,53.777-1.779,16-4.889,27.555-8,24.889-2.666,28,18.222,4,19.111-.444S-3403.937,2722.135-3400.381,2708.8Z" transform="translate(9.068 41.821)" fill="#e78052"/>
        <path id="Path_135414" data-name="Path 135414" d="M-3336.22,2440.918c1.3,11.179,2.32,34.447.361,40.537-4,12.444-37.333,21.778-37.333,21.778s1.333,9.778,2.222,25.777,4,45.778,1.778,53.333,2.031,75.556,5.586,91.556,8.7,34.222,12.7,48.443,12,25.334,12.889,29.778-7.112,4.445-19.111,3.111-11.556-10.221-12-18.221-9.333-11.112-9.778-16,2.666-16,2.666-24-21.841-82.222-19.618-113.333-16.889-46.667-22.667-84.889c-4.247-28.1,6.082-51.1,11.755-59.953C-3400.51,2433.542-3353.895,2431.179-3336.22,2440.918Z" transform="translate(9.495 37.613)" fill="#fab57a"/>
        <path id="Path_135415" data-name="Path 135415" d="M-3399.517,2556.256c-5.438-16.626-15.163-32.03-19.009-57.468-4.247-28.1,6.082-51.1,11.755-59.953,6.26-5.292,52.876-7.655,70.55,2.083.7,6.069,1.322,15.691,1.433,24.2,2.446,21.87-4.031,65.444-16.176,91.323C-3363.216,2552.74-3388.527,2551.827-3399.517,2556.256Z" transform="translate(9.495 37.613)" fill="#8c6df2"/>
        <path id="Path_135416" data-name="Path 135416" d="M-3350.486,2457.5c-9.027,3.045-19.633,3-28.974,1.977-11.819-1.289-23.213-4.635-34.366-8.671a73.658,73.658,0,0,1,6.014-11.974c6.26-5.292,52.875-7.655,70.55,2.083.286,2.471.556,5.546.786,8.881C-3340.992,2452.683-3345.417,2455.795-3350.486,2457.5Z" transform="translate(10.537 37.613)" fill="#5038a1"/>
        <path id="Path_135417" data-name="Path 135417" d="M-3383.954,2667.205c.809.485,1.608.984,2.386,1.527,7.458,5.208,8.443,12.058,12.164,19.623,4.322,8.788,11.937,9.069,20.1,10.45,2.495,4.853,4.584,8.565,5.014,10.711.889,4.445-7.112,4.445-19.111,3.111s-11.556-10.223-12-18.221a12.79,12.79,0,0,0-3.746-7.942c-1.364,6.771.692,23.546.692,23.546h-4.107a237.338,237.338,0,0,0-2.616-31.605C-3385.408,2675.893-3384.7,2671.734-3383.954,2667.205Z" transform="translate(15.768 80.218)" fill="#12263f"/>
        <path id="Path_135418" data-name="Path 135418" d="M-3416.825,2680.411a17.188,17.188,0,0,0,.6-4.081A19.948,19.948,0,0,0-3419.8,2683a3.175,3.175,0,0,1-1.875-2.5,61.092,61.092,0,0,0,3.809-14.479c-.21-2.674.384-5.641,3.288-9.782.745,4.127,2.945,8.153,3.35,12.613s-.409,8.542-1.23,12.872c-.453,2.4-1.067,5.359-.218,7.779,1.609,4.591,6.465,5.452,11.413,5.359.552,6.06,1.293,11.037.879,13.108-.888,4.444-13.777,3.555-19.111.444S-3419.936,2691.966-3416.825,2680.411Z" transform="translate(9.068 78.211)" fill="#12263f"/>
        <path id="Path_135419" data-name="Path 135419" d="M-3379.164,2314.45s5.53-6.854,11.422-4.689,13.105,8.9,19.718,8.176c0,0-5.29,7.935-13.706,5.53S-3379.164,2314.45-3379.164,2314.45Z" transform="translate(16.876 14.771)" fill="#5038a1"/>
        <path id="Path_135420" data-name="Path 135420" d="M-3403.021,2428.212c-1.1-7.911-27.291-85.675-27.291-85.675s27.493-15.318,30.163-16.431c9.626-4.016,1.331-28.856,1.331-28.856l25.211.9,7.2,24.8s26.614,13.678,29.859,15.363.361.444-.18,13.261c-.353,8.389,5.262,18.563,5.485,30.784s-8.881,28.228-8.881,28.233c3.629,27.91,13.862,48.647,13.862,51.533-.024,7.914-16.212,11.031-34.531,11.461-1.471.034-4.446-5.719-4.446-5.719s-3.2,5.755-4.81,5.72c-21.209-.462-42.152-3.948-42.154-7.349C-3412.206,2466.228-3401.921,2436.124-3403.021,2428.212Z" transform="translate(7.522 12.56)" fill="#8c6df2"/>
        <path id="Path_135421" data-name="Path 135421" d="M-3382.29,2350.713c-2.869-2.612-6.119-4.682-8.584-7.734-4.163-5.153-9.291-11.738-12.5-17.911,6.934-6.1-.315-27.819-.315-27.819l25.21.9,7.2,24.8,3.643,1.874c-1.242,10.656-3.573,23.341-8.579,32.477C-3376.326,2357.174-3380.646,2352.209-3382.29,2350.713Z" transform="translate(12.391 12.56)" fill="#fab57a"/>
        <path id="Path_135422" data-name="Path 135422" d="M-3403.372,2325.068a67.384,67.384,0,0,0,3.751,6.24c11.7,6.658,21.873,7.622,30.784,2.008.489-2.9.883-5.77,1.2-8.5l-3.643-1.874-7.2-24.8-25.21-.9S-3396.438,2318.969-3403.372,2325.068Z" transform="translate(12.391 12.56)" fill="#e68052"/>
        <path id="Path_135423" data-name="Path 135423" d="M-3376.588,2315.543s11.79,5,19.345,21.642c4.171,9.189-.847,1.028-.847,1.028l-3.143-5.5s-18.081,18.7-19.291,21.242l4.865-33.738Z" transform="translate(16.628 15.906)" fill="#e6e7e8"/>
        <path id="Path_135424" data-name="Path 135424" d="M-3400.884,2310s-1.354,1.546-1.354,2.284,1.8,2.384,1.444,3.492-.842,2.748-.121,3.979,1.923,6.359,17.073,6.852,14.247-4.1,13.166-5.7a5.558,5.558,0,0,1-.181-5.05c.542-.738-.63-2.213-1.531-2.706S-3389.162,2315.54-3400.884,2310Z" transform="translate(12.657 14.892)" fill="#8c6df2"/>
        <path id="Path_135425" data-name="Path 135425" d="M-3400.39,2315.9s-5.544,5.491-6.224,7.562c-.875,2.664-.241,20.191-.241,20.191l9.309-7.134,7.859,5.079,14.015,12.26S-3398.214,2325.085-3400.39,2315.9Z" transform="translate(11.771 15.97)" fill="#e6e7e8"/>
        <path id="Path_135426" data-name="Path 135426" d="M-3372.659,2364.911a81.225,81.225,0,0,1,18.034.24s-7.455-9.619-11.061-10.821S-3372.659,2364.911-3372.659,2364.911Z" transform="translate(18.066 22.983)" fill="#e6e7e8"/>
        <g id="Group_92387" data-name="Group 92387" transform="translate(-3357.671 2385.955)">
          <path id="Path_135427" data-name="Path 135427" d="M-3351.711,2365.82c-14.69-2.767-22.551-.253-22.631-.228l-.919-2.736c.342-.116,8.564-2.8,24.086.13Z" transform="translate(3375.261 -2361.622)" fill="#5038a1"/>
        </g>
        <g id="Group_92388" data-name="Group 92388" transform="translate(-3395.953 2374.648)">
          <path id="Path_135428" data-name="Path 135428" d="M-3395.721,2354.272l-1.744-2.209h-10.15c0,.079-.009.159-.009.239,0,2.14,1.381,3.891,3.069,3.891h17.666c1.688,0,3.07-1.751,3.07-3.891,0-.08-.006-.16-.009-.239h-10.15Z" transform="translate(3407.624 -2352.063)" fill="#ffdc72"/>
        </g>
        <g id="Group_92422" data-name="Group 92422" transform="translate(-3404.7 2241.212)">
          <g id="Group_92412" data-name="Group 92412" transform="translate(0 13.353)">
            <g id="Group_92411" data-name="Group 92411">
              <g id="Group_92390" data-name="Group 92390" transform="translate(54.659 30.182)">
                <g id="Group_92389" data-name="Group 92389">
                  <path id="Path_135429" data-name="Path 135429" d="M-3368.217,2283.453c-1.46,4.916-.135,9.647,2.963,10.567s6.792-2.318,8.252-7.234.134-9.648-2.963-10.568S-3366.757,2278.538-3368.217,2283.453Z" transform="translate(3368.811 -2276.062)" fill="#e78052"/>
                </g>
              </g>
              <g id="Group_92392" data-name="Group 92392" transform="translate(0 29.497)">
                <g id="Group_92391" data-name="Group 92391">
                  <path id="Path_135430" data-name="Path 135430" d="M-3414.672,2285.908c1.114,5.005,4.574,8.494,7.728,7.792s4.807-5.329,3.693-10.335-4.575-8.494-7.728-7.791S-3415.786,2280.9-3414.672,2285.908Z" transform="translate(3415.019 -2275.483)" fill="#e78052"/>
                </g>
              </g>
              <g id="Group_92394" data-name="Group 92394" transform="translate(6.664)">
                <g id="Group_92393" data-name="Group 92393">
                  <path id="Path_135431" data-name="Path 135431" d="M-3382.172,2250.548c25.305.272,26.576,24.03,26.637,26.894,0,.174,0,.341-.014.514-.18,2.641-1.92,27.068-4.406,31.711-2.061,3.849-17.134,16.282-23.182,16.282s-20.54-12.881-22.517-16.773c-2.386-4.7-3.6-29.153-3.724-31.8-.008-.174-.011-.341,0-.514C-3409.257,2274-3407.476,2250.276-3382.172,2250.548Z" transform="translate(3409.385 -2250.546)" fill="#fbbe7d"/>
                </g>
              </g>
              <path id="Path_135432" data-name="Path 135432" d="M-3405.091,2262.345h0c.008-.018.022-.035.033-.053a25.2,25.2,0,0,1,1.406-2.117c.142-.193.307-.375.456-.565.381-.485.776-.963,1.2-1.428.241-.261.5-.513.759-.765.383-.379.782-.747,1.2-1.1.308-.262.623-.518.951-.769.433-.329.9-.638,1.368-.944.354-.231.7-.466,1.076-.681.587-.334,1.222-.632,1.864-.925a29.129,29.129,0,0,1,12.6-2.442c25.305.271,26.576,24.03,26.637,26.894,0,.174,0,.341-.014.514-.022.341-.073,1.059-.148,2.039a169.949,169.949,0,0,0-20.607-10.01c-7.543-2.944-14.606-4.267-22.072-5.98a89.7,89.7,0,0,1-10.778,17.549c-.121-2.082-.2-3.625-.224-4.177-.008-.174-.011-.341,0-.514A33.316,33.316,0,0,1-3405.091,2262.345Z" transform="translate(3416.05 -2250.546)" fill="#e78052"/>
              <g id="Group_92405" data-name="Group 92405" transform="translate(19.196 34.425)">
                <g id="Group_92399" data-name="Group 92399">
                  <g id="Group_92398" data-name="Group 92398">
                    <g id="Group_92397" data-name="Group 92397">
                      <g id="Group_92396" data-name="Group 92396">
                        <g id="Group_92395" data-name="Group 92395">
                          <path id="Path_135433" data-name="Path 135433" d="M-3395.79,2279.661c1.773-.178,3.308,1.732,3.427,4.269s-1.221,4.736-2.994,4.915-3.309-1.732-3.427-4.268S-3397.562,2279.839-3395.79,2279.661Z" transform="translate(3398.791 -2279.649)" fill="#3e2511"/>
                        </g>
                      </g>
                    </g>
                  </g>
                </g>
                <g id="Group_92404" data-name="Group 92404" transform="translate(23.171 0.248)">
                  <g id="Group_92403" data-name="Group 92403">
                    <g id="Group_92402" data-name="Group 92402">
                      <g id="Group_92401" data-name="Group 92401">
                        <g id="Group_92400" data-name="Group 92400">
                          <path id="Path_135434" data-name="Path 135434" d="M-3376.2,2279.871c1.773-.178,3.309,1.733,3.427,4.269s-1.221,4.738-2.995,4.917-3.307-1.732-3.427-4.268S-3377.973,2280.05-3376.2,2279.871Z" transform="translate(3379.202 -2279.859)" fill="#3e2511"/>
                        </g>
                      </g>
                    </g>
                  </g>
                </g>
              </g>
              <g id="Group_92410" data-name="Group 92410" transform="translate(33.057 44.659)">
                <g id="Group_92409" data-name="Group 92409">
                  <g id="Group_92408" data-name="Group 92408">
                    <g id="Group_92407" data-name="Group 92407">
                      <g id="Group_92406" data-name="Group 92406">
                        <path id="Path_135435" data-name="Path 135435" d="M-3386.123,2293.683c.428.71.4.584.111,1.12a6.13,6.13,0,0,1-.967,1.02c-.628.662,2.1.518,2.583.008.4-.423,1.372-1.118,1.572-1.687.24-.678-.245-.939-.726-1.352a8.42,8.42,0,0,1-2.717-4.405C-3386.443,2287.7-3387.581,2291.263-3386.123,2293.683Z" transform="translate(3387.073 -2288.3)" fill="#e78052"/>
                      </g>
                    </g>
                  </g>
                </g>
              </g>
            </g>
            <path id="Path_135436" data-name="Path 135436" d="M-3374.694,2298.91a69.166,69.166,0,0,0-21.425,0s5.473,9.228,10.634,9.228S-3374.694,2298.91-3374.694,2298.91Z" transform="translate(3418.475 -2241.854)" fill="#fff"/>
          </g>
          <path id="Path_135437" data-name="Path 135437" d="M-3379.031,2240.717c-25.459-6.986-27.767,13.382-27.767,13.382s-4.165,1.531-5.982,4.594-.949,19.39,4.043,25.454c3.821-5.411,9.542-21.318,9.542-21.318s16.032-.489,44.471,20.575C-3348.782,2264.623-3355.985,2247.042-3379.031,2240.717Z" transform="translate(3415.269 -2239.258)" fill="#754c29"/>
          <g id="Group_92421" data-name="Group 92421" transform="translate(11.725 36.711)">
            <g id="Group_92416" data-name="Group 92416">
              <g id="Group_92415" data-name="Group 92415">
                <g id="Group_92414" data-name="Group 92414">
                  <g id="Group_92413" data-name="Group 92413">
                    <path id="Path_135438" data-name="Path 135438" d="M-3388.092,2272.406c-.165-.024-.331-.054-.493-.095-9.861-2.138-14.875,3.063-14.742,2.827a2.592,2.592,0,0,1-1.509.675c-.383-.03-.364-.406.089-.839.012.241,4.392-6.417,16.178-4.244C-3387.764,2270.918-3387.5,2272.494-3388.092,2272.406Z" transform="translate(3405.106 -2270.293)" fill="#3e2511"/>
                  </g>
                </g>
              </g>
            </g>
            <g id="Group_92420" data-name="Group 92420" transform="translate(26.944 2.275)">
              <g id="Group_92419" data-name="Group 92419">
                <g id="Group_92418" data-name="Group 92418">
                  <g id="Group_92417" data-name="Group 92417">
                    <path id="Path_135439" data-name="Path 135439" d="M-3381.965,2274.42a3.648,3.648,0,0,0,.444-.1c8.806-2.269,14.23,2.385,14.065,2.222a2.592,2.592,0,0,0,1.544.583c.38-.051.328-.427-.156-.834.048.161-5.037-5.958-15.679-3.493C-3382.464,2273-3382.495,2274.509-3381.965,2274.42Z" transform="translate(3382.328 -2272.217)" fill="#3e2511"/>
                  </g>
                </g>
              </g>
            </g>
          </g>
        </g>
        <g id="Group_92423" data-name="Group 92423" transform="translate(-3402.391 2228.567)">
          <path id="Path_135440" data-name="Path 135440" d="M-3382.6,2228.588a9.769,9.769,0,0,0-1.522.018,9.782,9.782,0,0,0-1.523-.018c-16.176,1.082-29.2,29.216-27.229,32.06,1.621,2.345,21.739,8.093,28.751,8.014,7.012.079,27.13-5.668,28.75-8.014C-3353.4,2257.8-3366.421,2229.671-3382.6,2228.588Z" transform="translate(3413.067 -2228.567)" fill="#8c6df2"/>
        </g>
        <g id="Group_92424" data-name="Group 92424" transform="translate(-3386.345 2228.567)">
          <path id="Path_135441" data-name="Path 135441" d="M-3373.7,2233.677c-3.472-2.846-7.327-4.816-11.38-5.088a9.775,9.775,0,0,0-1.522.018,9.777,9.777,0,0,0-1.522-.018c-4.054.272-7.908,2.243-11.381,5.088,5.051,3.071,10.057,5.328,12.9,5.25C-3383.753,2239.005-3378.748,2236.748-3373.7,2233.677Z" transform="translate(3399.502 -2228.567)" fill="#5038a1"/>
        </g>
        <g id="Group_92425" data-name="Group 92425" transform="translate(-3399.104 2247.841)">
          <path id="Path_135442" data-name="Path 135442" d="M-3384.578,2255.583h-.128c-5.125,0-18.089-6.77-24.234-10.722-.483.852-.935,1.684-1.348,2.5,6.835,4.418,19.812,11.107,25.563,11.107h.163c5.778,0,18.76-6.689,25.6-11.107-.415-.818-.865-1.649-1.348-2.5C-3366.459,2248.813-3379.431,2255.583-3384.578,2255.583Z" transform="translate(3410.288 -2244.861)" fill="#ffe177"/>
        </g>
        <path id="Path_135443" data-name="Path 135443" d="M-3364.512,2496.142l-17.858-5.478c4.054,7.745,6.613,17.316,8.572,27.623C-3371.747,2509.892-3369.219,2501.958-3364.512,2496.142Z" transform="translate(16.29 47.932)" fill="#5038a1"/>
        <path id="Path_135444" data-name="Path 135444" d="M-3328.051,2329.952c.614,2.063,1.529,2.925,2.24,5.091a6.291,6.291,0,0,0,.543,1.165c.03-6.528.492-31.152,8.155-30.411,15.819,1.534,14.321,30.309,14.321,30.309,1.86,14.9-3.323,19.494-11.113,20.15a13.1,13.1,0,0,1-3.754-.207c-2.328-.856-6.832-2.728-8.889-5.415-2.712-3.542-7.01-21.576-7.921-23.46S-3330.26,2322.52-3328.051,2329.952Z" transform="translate(25.03 14.12)" fill="#fab57a"/>
      </g>
    </g>
  </g>
</svg>
