<svg xmlns="http://www.w3.org/2000/svg" xmlns:xlink="http://www.w3.org/1999/xlink" width="295" height="221" viewBox="0 0 295 221">
  <defs>
    <clipPath id="clip-path">
      <rect id="Rectangle_32437" data-name="Rectangle 32437" width="200" height="221" fill="#fff" stroke="#707070" stroke-width="1"/>
    </clipPath>
  </defs>
  <g id="t8-m2" transform="translate(-1125 -18448)">
    <path id="Rectangle_32438" data-name="Rectangle 32438" d="M66,0H295a0,0,0,0,1,0,0V91a0,0,0,0,1,0,0H0a0,0,0,0,1,0,0V66A66,66,0,0,1,66,0Z" transform="translate(1125 18578)" fill="#ffdc72" opacity="0.5"/>
    <g id="Mask_Group_54" data-name="Mask Group 54" transform="translate(1172 18448)" clip-path="url(#clip-path)">
      <g id="Group_92764" data-name="Group 92764" transform="translate(5.939 0)">
        <g id="Group_92724" data-name="Group 92724" transform="translate(5.117 547.228)" opacity="0.5">
          <g id="Group_92723" data-name="Group 92723">
            <g id="Group_92722" data-name="Group 92722">
              <path id="Path_136029" data-name="Path 136029" d="M-3471.444,2703.743c0,6.933,42.3,12.552,94.47,12.552s94.474-5.62,94.474-12.552-42.3-12.552-94.474-12.552S-3471.444,2696.811-3471.444,2703.743Z" transform="translate(3471.444 -2691.191)" fill="#231f20"/>
            </g>
          </g>
        </g>
        <ellipse id="Ellipse_4200" data-name="Ellipse 4200" cx="13.394" cy="20.895" rx="13.394" ry="20.895" transform="translate(98.634 57.434)" fill="#603913"/>
        <path id="Path_136030" data-name="Path 136030" d="M-3327.929,2332.465c-7.7,5.043-27.187,54.584-31.515,93.3,0,0,13.726,5.538,18.035,3.126,5.562-3.113,24.287-63.963,24.287-63.963Z" transform="translate(3378.701 -2209.566)" fill="#8c6df2"/>
        <path id="Path_136031" data-name="Path 136031" d="M-3358.774,2393.329c1.75-10.538,4.48-20.927,7.058-31.29,1.318-5.3,2.312-10.928,4.453-15.948l5.442,16.344s-9.942,32.3-17.489,51.037C-3359.375,2406.448-3359.776,2399.357-3358.774,2393.329Z" transform="translate(3403.4 -2207.075)" fill="#5038a1"/>
        <path id="Path_136032" data-name="Path 136032" d="M-3322.271,2420.922c.837-.774,10.46-7.575,4.328-19.477s-11.18-12.264-11.18-12.264-20.56,12.986-16.953,22.724S-3332.01,2429.94-3322.271,2420.922Z" transform="translate(3362.179 -2199.194)" fill="#e6e7e8"/>
        <path id="Path_136033" data-name="Path 136033" d="M-3433.793,2334.96c8.249,6.135,26.7,77.871,26.934,98.168.069,5.962-16.592,16.592-20.92,7.935s-24.575-77.909-24.575-77.909Z" transform="translate(3578.34 -2209.11)" fill="#8c6df2"/>
        <path id="Path_136034" data-name="Path 136034" d="M-3444.906,2486.747s-5.706,11.039-6.645,13.8-3.63,14.548-3.63,14.548,2.587,1.744,5.767-3.074,2.91-7.832,4.979-6.264,2.316,14.668,2.745,16.206,1.681,9.524,4,9.6,2.09-.549,2.09-.549,2.576,1.232,2.5-.446c-.029-.57,1.945-14.053,3.752-17.231s-.3-19.521.124-22.012a28.409,28.409,0,0,0-.636-10.9l-14.585,3.163Z" transform="translate(3603.428 -2182.508)" fill="#fab57a"/>
        <path id="Path_136035" data-name="Path 136035" d="M-3433.228,2417.951l2.4,75.985c-3.906,2.93-8.978,3.032-14.864,1.156l-8.7-72.332Z" transform="translate(3604.709 -2193.933)" fill="#fab57a"/>
        <path id="Path_136036" data-name="Path 136036" d="M-3450.844,2443.171l-2.176-20.411,21.16-4.809.786,24.886C-3437.666,2442.811-3444.255,2442.946-3450.844,2443.171Z" transform="translate(3603.341 -2193.933)" fill="#e58052"/>
        <path id="Path_136037" data-name="Path 136037" d="M-3425.065,2414.306c-8.656-1.083-28.855,7.574-31.02,10.821S-3453.2,2441-3453.2,2441l28.135-2.525Z" transform="translate(3601.596 -2194.616)" fill="#e6e7e8"/>
        <path id="Path_136038" data-name="Path 136038" d="M-3342.053,2346.111s3.353,76.8,23.812,80.127c0,0,5.359,1.594,10.823-5.894,7.479-4.637-20.86-64.425-22.491-75.425Z" transform="translate(3347.172 -2207.288)" fill="#fab57a"/>
        <path id="Path_136039" data-name="Path 136039" d="M-3355.162,2708.8s-18.792-77.333-27.681-96-9.333-31.111-15.112-40.888-29.713-87.111-22.6-114.666l45.777,32.444,7.491,76.445s3.111,25.777,5.778,30.666,9.333,21.778,12.888,38.667-6.985,40,5.015,53.777,1.779,16,4.889,27.555,8,24.889,2.666,28-18.222,4-19.111-.444S-3351.606,2722.135-3355.162,2708.8Z" transform="translate(3469.093 -2186.746)" fill="#e78052"/>
        <path id="Path_136040" data-name="Path 136040" d="M-3418.071,2440.918c-1.3,11.179-2.32,34.447-.361,40.537,4,12.444,37.333,21.778,37.333,21.778s-1.333,9.778-2.222,25.777-4,45.778-1.778,53.333-2.031,75.556-5.586,91.556-8.7,34.222-12.7,48.443-12,25.334-12.889,29.778,7.112,4.445,19.111,3.111,11.556-10.221,12-18.221,9.333-11.112,9.778-16-2.666-16-2.666-24,21.841-82.222,19.618-113.333,16.889-46.667,22.667-84.889c4.247-28.1-6.082-51.1-11.755-59.953C-3353.781,2433.542-3400.4,2431.179-3418.071,2440.918Z" transform="translate(3467.413 -2190.954)" fill="#fab57a"/>
        <path id="Path_136041" data-name="Path 136041" d="M-3354.283,2556.256c5.438-16.626,15.163-32.03,19.009-57.468,4.247-28.1-6.082-51.1-11.755-59.953-6.26-5.292-52.876-7.655-70.55,2.083-.7,6.069-1.322,15.691-1.433,24.2-2.446,21.87,4.031,65.444,16.176,91.323C-3390.584,2552.74-3365.273,2551.827-3354.283,2556.256Z" transform="translate(3466.922 -2190.954)" fill="#8c6df2"/>
        <path id="Path_136042" data-name="Path 136042" d="M-3399.816,2457.5c9.027,3.045,19.633,3,28.974,1.977,11.819-1.289,23.213-4.635,34.366-8.671a73.658,73.658,0,0,0-6.014-11.974c-6.26-5.292-52.875-7.655-70.55,2.083-.286,2.471-.556,5.546-.786,8.881C-3409.309,2452.683-3404.885,2455.795-3399.816,2457.5Z" transform="translate(3462.382 -2190.954)" fill="#5038a1"/>
        <path id="Path_136043" data-name="Path 136043" d="M-3345.493,2667.205c-.809.485-1.608.984-2.386,1.527-7.458,5.208-8.443,12.058-12.164,19.623-4.322,8.788-11.937,9.069-20.1,10.45-2.495,4.853-4.584,8.565-5.014,10.711-.889,4.445,7.112,4.445,19.111,3.111s11.556-10.223,12-18.221a12.79,12.79,0,0,1,3.746-7.942c1.364,6.771-.692,23.546-.692,23.546h4.107a237.338,237.338,0,0,1,2.616-31.605C-3344.039,2675.893-3344.749,2671.734-3345.493,2667.205Z" transform="translate(3436.296 -2148.349)" fill="#12263f"/>
        <path id="Path_136044" data-name="Path 136044" d="M-3405.3,2680.411a17.188,17.188,0,0,1-.6-4.081,19.948,19.948,0,0,1,3.573,6.667,3.175,3.175,0,0,0,1.875-2.5,61.092,61.092,0,0,1-3.809-14.479c.21-2.674-.384-5.641-3.288-9.782-.745,4.127-2.945,8.153-3.35,12.613s.409,8.542,1.23,12.872c.453,2.4,1.067,5.359.218,7.779-1.609,4.591-6.465,5.452-11.413,5.359-.552,6.06-1.293,11.037-.879,13.108.888,4.444,13.777,3.555,19.111.444S-3402.189,2691.966-3405.3,2680.411Z" transform="translate(3535.675 -2150.355)" fill="#12263f"/>
        <path id="Path_136045" data-name="Path 136045" d="M-3348.025,2314.45s-5.53-6.854-11.422-4.689-13.105,8.9-19.718,8.176c0,0,5.29,7.935,13.706,5.53S-3348.025,2314.45-3348.025,2314.45Z" transform="translate(3432.93 -2213.795)" fill="#5038a1"/>
        <path id="Path_136046" data-name="Path 136046" d="M-3353.556,2428.212c1.1-7.911,27.291-85.675,27.291-85.675s-27.493-15.318-30.163-16.431c-9.626-4.016-1.331-28.856-1.331-28.856l-25.211.9-7.2,24.8s-26.614,13.678-29.859,15.363-.361.444.18,13.261c.353,8.389-5.262,18.563-5.485,30.784s8.881,28.228,8.881,28.233c-3.629,27.91-13.862,48.647-13.862,51.533.024,7.914,16.212,11.031,34.531,11.461,1.471.034,4.446-5.719,4.446-5.719s3.2,5.755,4.81,5.72c21.209-.462,42.152-3.948,42.154-7.349C-3344.371,2466.228-3354.656,2436.124-3353.556,2428.212Z" transform="translate(3471.672 -2216.007)" fill="#8c6df2"/>
        <path id="Path_136047" data-name="Path 136047" d="M-3389.033,2350.713c2.869-2.612,6.119-4.682,8.584-7.734,4.163-5.153,9.291-11.738,12.5-17.911-6.934-6.1.315-27.819.315-27.819l-25.21.9-7.2,24.8-3.643,1.874c1.242,10.656,3.573,23.341,8.579,32.477C-3395,2357.174-3390.677,2352.209-3389.033,2350.713Z" transform="translate(3481.549 -2216.007)" fill="#fab57a"/>
        <path id="Path_136048" data-name="Path 136048" d="M-3367.951,2325.068a67.384,67.384,0,0,1-3.751,6.24c-11.7,6.658-21.873,7.622-30.784,2.008-.489-2.9-.883-5.77-1.2-8.5l3.643-1.874,7.2-24.8,25.21-.9S-3374.885,2318.969-3367.951,2325.068Z" transform="translate(3481.549 -2216.007)" fill="#e68052"/>
        <path id="Path_136049" data-name="Path 136049" d="M-3359.521,2315.543s-11.79,5-19.345,21.642c-4.171,9.189.847,1.028.847,1.028l3.143-5.5s18.081,18.7,19.291,21.242l-4.865-33.738Z" transform="translate(3442.098 -2212.661)" fill="#e6e7e8"/>
        <path id="Path_136050" data-name="Path 136050" d="M-3371.5,2310s1.354,1.546,1.354,2.284-1.8,2.384-1.444,3.492.842,2.748.121,3.979-1.923,6.359-17.073,6.852-14.247-4.1-13.166-5.7a5.558,5.558,0,0,0,.181-5.05c-.542-.738.63-2.213,1.531-2.706S-3383.222,2315.54-3371.5,2310Z" transform="translate(3482.344 -2213.675)" fill="#8c6df2"/>
        <path id="Path_136051" data-name="Path 136051" d="M-3382.36,2315.9s5.544,5.491,6.224,7.562c.875,2.664.241,20.191.241,20.191l-9.309-7.134-7.859,5.079-14.015,12.26S-3384.536,2325.085-3382.36,2315.9Z" transform="translate(3493.596 -2212.596)" fill="#e6e7e8"/>
        <path id="Path_136052" data-name="Path 136052" d="M-3354.625,2364.911a81.225,81.225,0,0,0-18.034.24s7.455-9.619,11.061-10.821S-3354.625,2364.911-3354.625,2364.911Z" transform="translate(3431.835 -2205.583)" fill="#e6e7e8"/>
        <g id="Group_92725" data-name="Group 92725" transform="translate(56.203 157.388)">
          <path id="Path_136053" data-name="Path 136053" d="M-3374.725,2365.82c14.69-2.767,22.551-.253,22.631-.228l.919-2.736c-.342-.116-8.564-2.8-24.086.13Z" transform="translate(3375.261 -2361.622)" fill="#5038a1"/>
        </g>
        <g id="Group_92726" data-name="Group 92726" transform="translate(94.765 146.081)">
          <path id="Path_136054" data-name="Path 136054" d="M-3395.722,2354.272l1.744-2.209h10.15c0,.079.009.159.009.239,0,2.14-1.381,3.891-3.069,3.891h-17.666c-1.688,0-3.07-1.751-3.07-3.891,0-.08.006-.16.009-.239h10.15Z" transform="translate(3407.624 -2352.063)" fill="#ffdc72"/>
        </g>
        <g id="Group_92760" data-name="Group 92760" transform="translate(60.255 12.645)">
          <g id="Group_92750" data-name="Group 92750" transform="translate(0 13.353)">
            <g id="Group_92749" data-name="Group 92749">
              <g id="Group_92728" data-name="Group 92728" transform="translate(0 30.182)">
                <g id="Group_92727" data-name="Group 92727">
                  <path id="Path_136055" data-name="Path 136055" d="M-3357,2283.453c1.46,4.916.135,9.647-2.963,10.567s-6.792-2.318-8.252-7.234-.134-9.648,2.963-10.568S-3358.461,2278.538-3357,2283.453Z" transform="translate(3368.811 -2276.062)" fill="#e78052"/>
                </g>
              </g>
              <g id="Group_92730" data-name="Group 92730" transform="translate(54.947 29.497)">
                <g id="Group_92729" data-name="Group 92729">
                  <path id="Path_136056" data-name="Path 136056" d="M-3403.251,2285.908c-1.114,5.005-4.574,8.494-7.728,7.792s-4.807-5.329-3.693-10.335,4.575-8.494,7.728-7.791S-3402.137,2280.9-3403.251,2285.908Z" transform="translate(3415.02 -2275.483)" fill="#e78052"/>
                </g>
              </g>
              <g id="Group_92732" data-name="Group 92732" transform="translate(6.547)">
                <g id="Group_92731" data-name="Group 92731">
                  <path id="Path_136057" data-name="Path 136057" d="M-3382.747,2250.548c-25.305.272-26.576,24.03-26.637,26.894,0,.174,0,.341.014.514.18,2.641,1.92,27.068,4.406,31.711,2.061,3.849,17.134,16.282,23.182,16.282s20.54-12.881,22.517-16.773c2.386-4.7,3.6-29.153,3.724-31.8.008-.174.011-.341,0-.514C-3355.662,2274-3357.443,2250.276-3382.747,2250.548Z" transform="translate(3409.385 -2250.546)" fill="#fbbe7d"/>
                </g>
              </g>
              <path id="Path_136058" data-name="Path 136058" d="M-3359.828,2262.345h0c-.008-.018-.022-.035-.033-.053a25.2,25.2,0,0,0-1.406-2.117c-.142-.193-.307-.375-.456-.565-.381-.485-.776-.963-1.2-1.428-.241-.261-.5-.513-.759-.765-.383-.379-.782-.747-1.2-1.1-.308-.262-.623-.518-.951-.769-.433-.329-.9-.638-1.368-.944-.354-.231-.7-.466-1.076-.681-.587-.334-1.222-.632-1.864-.925a29.129,29.129,0,0,0-12.6-2.442c-25.305.271-26.576,24.03-26.637,26.894,0,.174,0,.341.014.514.022.341.073,1.059.148,2.039a169.949,169.949,0,0,1,20.607-10.01c7.543-2.944,14.606-4.267,22.072-5.98a89.7,89.7,0,0,0,10.778,17.549c.121-2.082.2-3.625.224-4.177.008-.174.011-.341,0-.514A33.316,33.316,0,0,0-3359.828,2262.345Z" transform="translate(3415.932 -2250.546)" fill="#e78052"/>
              <g id="Group_92743" data-name="Group 92743" transform="translate(18.259 34.425)">
                <g id="Group_92737" data-name="Group 92737" transform="translate(23.172)">
                  <g id="Group_92736" data-name="Group 92736">
                    <g id="Group_92735" data-name="Group 92735">
                      <g id="Group_92734" data-name="Group 92734">
                        <g id="Group_92733" data-name="Group 92733">
                          <path id="Path_136059" data-name="Path 136059" d="M-3395.356,2279.661c-1.773-.178-3.308,1.732-3.427,4.269s1.221,4.736,2.994,4.915,3.309-1.732,3.427-4.268S-3393.584,2279.839-3395.356,2279.661Z" transform="translate(3398.791 -2279.649)" fill="#3e2511"/>
                        </g>
                      </g>
                    </g>
                  </g>
                </g>
                <g id="Group_92742" data-name="Group 92742" transform="translate(0 0.248)">
                  <g id="Group_92741" data-name="Group 92741">
                    <g id="Group_92740" data-name="Group 92740">
                      <g id="Group_92739" data-name="Group 92739">
                        <g id="Group_92738" data-name="Group 92738">
                          <path id="Path_136060" data-name="Path 136060" d="M-3375.768,2279.871c-1.773-.178-3.309,1.733-3.427,4.269s1.221,4.738,2.995,4.917,3.307-1.732,3.427-4.268S-3374,2280.05-3375.768,2279.871Z" transform="translate(3379.202 -2279.859)" fill="#3e2511"/>
                        </g>
                      </g>
                    </g>
                  </g>
                </g>
              </g>
              <g id="Group_92748" data-name="Group 92748" transform="translate(29.694 44.659)">
                <g id="Group_92747" data-name="Group 92747">
                  <g id="Group_92746" data-name="Group 92746">
                    <g id="Group_92745" data-name="Group 92745">
                      <g id="Group_92744" data-name="Group 92744">
                        <path id="Path_136061" data-name="Path 136061" d="M-3383.711,2293.683c-.428.71-.4.584-.111,1.12a6.13,6.13,0,0,0,.967,1.02c.628.662-2.1.518-2.583.008-.4-.423-1.372-1.118-1.572-1.687-.24-.678.245-.939.726-1.352a8.42,8.42,0,0,0,2.717-4.405C-3383.391,2287.7-3382.253,2291.263-3383.711,2293.683Z" transform="translate(3387.073 -2288.3)" fill="#e78052"/>
                      </g>
                    </g>
                  </g>
                </g>
              </g>
            </g>
            <path id="Path_136062" data-name="Path 136062" d="M-3396.119,2298.91a69.166,69.166,0,0,1,21.425,0s-5.473,9.228-10.634,9.228S-3396.119,2298.91-3396.119,2298.91Z" transform="translate(3419.4 -2241.854)" fill="#fff"/>
          </g>
          <path id="Path_136063" data-name="Path 136063" d="M-3387.361,2240.717c25.459-6.986,27.767,13.382,27.767,13.382s4.165,1.531,5.982,4.594.949,19.39-4.043,25.454c-3.821-5.411-9.542-21.318-9.542-21.318s-16.032-.489-44.471,20.575C-3417.611,2264.623-3410.407,2247.042-3387.361,2240.717Z" transform="translate(3418.187 -2239.258)" fill="#754c29"/>
          <g id="Group_92759" data-name="Group 92759" transform="translate(11.726 36.711)">
            <g id="Group_92754" data-name="Group 92754" transform="translate(26.274)">
              <g id="Group_92753" data-name="Group 92753">
                <g id="Group_92752" data-name="Group 92752">
                  <g id="Group_92751" data-name="Group 92751">
                    <path id="Path_136064" data-name="Path 136064" d="M-3404.784,2272.406c.165-.024.331-.054.493-.095,9.861-2.138,14.875,3.063,14.742,2.827a2.592,2.592,0,0,0,1.509.675c.383-.03.364-.406-.089-.839-.012.241-4.392-6.417-16.178-4.244C-3405.111,2270.918-3405.379,2272.494-3404.784,2272.406Z" transform="translate(3405.106 -2270.293)" fill="#3e2511"/>
                  </g>
                </g>
              </g>
            </g>
            <g id="Group_92758" data-name="Group 92758" transform="translate(0 2.275)">
              <g id="Group_92757" data-name="Group 92757">
                <g id="Group_92756" data-name="Group 92756">
                  <g id="Group_92755" data-name="Group 92755">
                    <path id="Path_136065" data-name="Path 136065" d="M-3366.024,2274.42a3.648,3.648,0,0,1-.444-.1c-8.806-2.269-14.23,2.385-14.065,2.222a2.592,2.592,0,0,1-1.544.583c-.38-.051-.328-.427.156-.834-.048.161,5.037-5.958,15.679-3.493C-3365.525,2273-3365.494,2274.509-3366.024,2274.42Z" transform="translate(3382.328 -2272.217)" fill="#3e2511"/>
                  </g>
                </g>
              </g>
            </g>
          </g>
        </g>
        <g id="Group_92761" data-name="Group 92761" transform="translate(67.112)">
          <path id="Path_136066" data-name="Path 136066" d="M-3385.642,2228.588a9.769,9.769,0,0,1,1.522.018,9.782,9.782,0,0,1,1.523-.018c16.176,1.082,29.2,29.216,27.229,32.06-1.621,2.345-21.739,8.093-28.751,8.014-7.012.079-27.13-5.668-28.75-8.014C-3414.836,2257.8-3401.817,2229.671-3385.642,2228.588Z" transform="translate(3413.067 -2228.567)" fill="#8c6df2"/>
        </g>
        <g id="Group_92762" data-name="Group 92762" transform="translate(83.156)">
          <path id="Path_136067" data-name="Path 136067" d="M-3399.5,2233.677c3.472-2.846,7.327-4.816,11.38-5.088a9.775,9.775,0,0,1,1.522.018,9.777,9.777,0,0,1,1.522-.018c4.054.272,7.908,2.243,11.381,5.088-5.051,3.071-10.057,5.328-12.9,5.25C-3389.446,2239.005-3394.452,2236.748-3399.5,2233.677Z" transform="translate(3399.503 -2228.567)" fill="#5038a1"/>
        </g>
        <g id="Group_92763" data-name="Group 92763" transform="translate(70.397 19.274)">
          <path id="Path_136068" data-name="Path 136068" d="M-3384.675,2255.583h.128c5.125,0,18.089-6.77,24.234-10.722.483.852.935,1.684,1.348,2.5-6.835,4.418-19.812,11.107-25.563,11.107h-.163c-5.778,0-18.76-6.689-25.6-11.107.415-.818.865-1.649,1.348-2.5C-3402.794,2248.813-3389.822,2255.583-3384.675,2255.583Z" transform="translate(3410.288 -2244.861)" fill="#ffe177"/>
        </g>
        <path id="Path_136069" data-name="Path 136069" d="M-3382.37,2496.142l17.858-5.478c-4.054,7.745-6.613,17.316-8.572,27.623C-3375.135,2509.892-3377.663,2501.958-3382.37,2496.142Z" transform="translate(3453.21 -2180.635)" fill="#5038a1"/>
        <path id="Path_136070" data-name="Path 136070" d="M-3308.939,2329.952c-.614,2.063-1.529,2.925-2.24,5.091a6.291,6.291,0,0,1-.543,1.165c-.03-6.528-.492-31.152-8.155-30.411-15.819,1.534-14.321,30.309-14.321,30.309-1.86,14.9,3.323,19.494,11.113,20.15a13.1,13.1,0,0,0,3.754-.207c2.328-.856,6.832-2.728,8.889-5.415,2.712-3.542,7.01-21.576,7.921-23.46S-3306.73,2322.52-3308.939,2329.952Z" transform="translate(3334.577 -2214.447)" fill="#fab57a"/>
      </g>
    </g>
  </g>
</svg>
